<svg id="Capa_1" data-name="Capa 1" xmlns="http://www.w3.org/2000/svg" viewBox="0 0 72 72"><defs><style>.cls-1{fill:#e8b577;}</style></defs><path class="cls-1" d="M24.55,0H1.64A1.63,1.63,0,0,0,0,1.64V24.55a1.63,1.63,0,0,0,1.64,1.63H4.91a1.64,1.64,0,0,0,1.64-1.63v-18h18a1.64,1.64,0,0,0,1.63-1.64V1.64A1.63,1.63,0,0,0,24.55,0Z"/><path class="cls-1" d="M70.36,0H47.45a1.63,1.63,0,0,0-1.63,1.64V4.91a1.64,1.64,0,0,0,1.63,1.64h18v18a1.64,1.64,0,0,0,1.64,1.63h3.27A1.63,1.63,0,0,0,72,24.55V1.64A1.63,1.63,0,0,0,70.36,0Z"/><path class="cls-1" d="M70.36,45.82H67.09a1.64,1.64,0,0,0-1.64,1.63v18h-18a1.64,1.64,0,0,0-1.63,1.64v3.27A1.63,1.63,0,0,0,47.45,72H70.36A1.63,1.63,0,0,0,72,70.36V47.45A1.63,1.63,0,0,0,70.36,45.82Z"/><path class="cls-1" d="M24.55,65.45h-18v-18a1.64,1.64,0,0,0-1.64-1.63H1.64A1.63,1.63,0,0,0,0,47.45V70.36A1.63,1.63,0,0,0,1.64,72H24.55a1.63,1.63,0,0,0,1.63-1.64V67.09A1.64,1.64,0,0,0,24.55,65.45Z"/></svg>