<svg id="Capa_1" data-name="Capa 1" xmlns="http://www.w3.org/2000/svg" viewBox="0 0 72 72"><defs><style>.cls-1{fill:#e8b577;}</style></defs><path class="cls-1" d="M36,59.45a3.27,3.27,0,0,1-3.27,3.27A3.31,3.31,0,0,1,30.66,62L12.79,47.16H3.27A3.27,3.27,0,0,1,0,43.89v-13a3.26,3.26,0,0,1,3.27-3.27h9.52L30.67,12.78A3.27,3.27,0,0,1,36,15.3V59.45Zm12.57-5.11h-.24a3.26,3.26,0,0,1-2.31-1L45.6,53a3.27,3.27,0,0,1-.31-4.26,19,19,0,0,0-.51-23.29A3.28,3.28,0,0,1,45,21l.44-.43a3.18,3.18,0,0,1,2.47-1,3.27,3.27,0,0,1,2.37,1.2A26.17,26.17,0,0,1,51,53,3.28,3.28,0,0,1,48.59,54.34ZM62.11,64.45a3.33,3.33,0,0,1-2.37,1.15h-.13a3.31,3.31,0,0,1-2.32-1l-.43-.43a3.28,3.28,0,0,1-.19-4.42,34.84,34.84,0,0,0-.57-45.52,3.27,3.27,0,0,1,.13-4.48l.43-.43a3.17,3.17,0,0,1,2.41-1,3.27,3.27,0,0,1,2.35,1.1,42,42,0,0,1,.69,54.94Z"/><path class="cls-1" d="M4.13,57.5a2.78,2.78,0,0,1-1.39-5.18L67.34,15a2.78,2.78,0,1,1,2.77,4.81L5.51,57.13A2.75,2.75,0,0,1,4.13,57.5Z"/></svg>