<svg id="Capa_1" data-name="Capa 1" xmlns="http://www.w3.org/2000/svg" xmlns:xlink="http://www.w3.org/1999/xlink" viewBox="0 0 572 467"><defs><clipPath id="clip-path"><path d="M437.21,147.08c.06,7.65-5.38,14.18-12.13,14.76s-12.42-5.08-12.66-12.68,5.18-14.53,12.13-15.12S437.15,139.36,437.21,147.08Z" style="fill:none"/></clipPath><clipPath id="clip-path-2"><path d="M495.57,142c-2,7.4,1.69,15.08,8.08,17.31s13.29-1.83,15.41-9.13-1.4-15.36-8-17.66S497.54,134.55,495.57,142Z" style="fill:none"/></clipPath></defs><path d="M354.69,272.31c-2.12-.21-4.84-.06-5.61,1.93-.57,1.46.34,3.08,1.45,4.18,2.25,2.23,5.35,3.34,8.35,4.38-3,.75-10.29,7.84-11.53,10.7a10.37,10.37,0,0,0,.45,9c2.76,4.93,9,6.69,14.62,7.09a14.14,14.14,0,0,0,6.78-.78c2.52-1.13,8.92-8.33,10.5-10.6,2.63-3.75,5.17-7.76,5.86-12.29,1.14-7.48-3.63-13.06-11.08-13.33-2.53-.1-4.89.65-7.39.82C363,273.7,358.76,272.72,354.69,272.31Z" style="fill:#8a4d00"/><path d="M463.15,340.6c3.79-.77,5.34-17.5,3.65-32.67A208.72,208.72,0,0,1,442,306a106.64,106.64,0,0,1-21.55-5.6s-1.24,15.69-.95,29.61c.12,6.11.1,17.67.18,36.25.14,6.72.94,13.8,17.6,15.63,9.5,1,18.43-3.46,19-16.2.59-10.52.92-14.25,1.21-16.52C458.06,344.86,459.37,341.37,463.15,340.6Z" style="fill:#501100"/><path d="M419.72,369.57c-.54,10.62,2.87,31.11,2.87,31.11s.09,4.17,18.18,3.8c12.06-.25,11-1.59,11-1.59s2.82-13.08,4-34.6c.23-8.62-9.78-13.71-18.39-13.6C430.38,354.78,420.26,358.94,419.72,369.57Z" style="fill:#501100"/><path d="M421.64,425.91l-.14,2.88s2.87,12.87,10.64,13.82c4.68.58,13.35-2.89,15.1-7a27.06,27.06,0,0,0,1.56-7.48C440.27,432.88,429,432.08,421.64,425.91Z" style="fill:#8a4d00"/><path d="M420.72,399.53l.92,26.38c7.33,6.17,18.63,7,27.16,2.2.4-4,3.91-21.95,4.83-26.74s-8.53-.24-16.73-.73C428.37,400.13,421.05,394.87,420.72,399.53Z" style="fill:#8a4d00"/><path d="M450.88,444.14s-.11,4.18-.22,7-6.85,3.11-10.81,3.75-14.46,3.11-20.78,3.75-22.17,1.07-26.35.11-6.32-2.57-6.53-4.39.75-5.79,1.5-6S450.88,444.14,450.88,444.14Z" style="fill:#501100"/><path d="M417,430.54s4.48-3.34,6.19-3.34,2.06.88,2.59,3.34l.54,2.46s1.07-1.07,3,.86.53,4.71,8.35,4.07A12.32,12.32,0,0,0,448.2,430c.21-.53-.56-4.08.12-4.54s3.09,3.26,3.41,6.69.22,11.78-.43,14-1.92,4.49-6.21,5.46-11.78,1.28-15.63,1.5-16.5,3.21-26,3.1-12.21-.75-16-3.53,1.5-10.82,15.1-15.74S417,430.54,417,430.54Z" style="fill:#8a4d00"/><path d="M420.52,448.4c-8.67,2.67-25.07,3.67-30-4.79-4.3,3.72-5.38,7.39-3.09,9.1,3.75,2.78,6.43,3.43,16,3.53s22.17-2.89,26-3.1,11.35-.54,15.63-1.5,5.57-3.21,6.22-5.46a25.79,25.79,0,0,0,.5-4.56,17,17,0,0,1-2.35,1.15C439.81,446.79,430.17,444.38,420.52,448.4Z" style="fill:#8a4d00"/><path d="M414.15,432.54a23.27,23.27,0,0,1,8.93,5.57c4,4.1,4-.31,4-.31s-.21-2-4.94-4.94S416,430.55,414.15,432.54Z" style="fill:#501100"/><path d="M408.32,434.82a23.21,23.21,0,0,1,8.13,6.69c3.42,4.59,4,.22,4,.22s.06-2-4.24-5.55S410.46,433.09,408.32,434.82Z" style="fill:#501100"/><path d="M401.29,437.77a23.09,23.09,0,0,1,8.12,6.69c3.42,4.58,4,.21,4,.21s0-2-4.25-5.54S403.42,436,401.29,437.77Z" style="fill:#501100"/><path d="M420,410.34s3.14-2.27,8.64-1.43,1-3.22,1-3.22-2.11-1.68-6.68-.92S418.59,407.12,420,410.34Z" style="fill:#501100"/><path d="M420.41,416.7s3.7-1.51,9.51.19,1.54-2.73,1.54-2.73-2-1.89-7.06-2S419.35,413.54,420.41,416.7Z" style="fill:#501100"/><path d="M421.08,424.56s3.71-1.51,9.52.19,1.53-2.73,1.53-2.73-2-1.89-7.06-2S420,421.4,421.08,424.56Z" style="fill:#501100"/><path d="M419.22,429.58a23.27,23.27,0,0,1,10.3,2.18c5.15,2.49,3.64-1.65,3.64-1.65s-.88-1.81-6.33-3S420.32,427.06,419.22,429.58Z" style="fill:#501100"/><path d="M451.14,394.36a7.8,7.8,0,0,1-3-1.81c-.36,1.14-.91,2.47-2.09,2.73s-2.11-.62-3.17-1-2.72.31-2.31,1.37l-4.51-2c0,1-.65,2.47-1.57,2a1.91,1.91,0,0,1-.64-.71,3.13,3.13,0,0,0-2.59-1.42,2.29,2.29,0,0,0-2.17,1.82,6.67,6.67,0,0,0-5.48-2.59,2.52,2.52,0,0,1,.33,2.21,6.4,6.4,0,0,0-4.48-.21,2.72,2.72,0,0,1,.37,4.32c4-.66,8,1,12,2a35.43,35.43,0,0,0,18.2-.44,3.13,3.13,0,0,1,2.56,0,2.53,2.53,0,0,0,.74.46,1.59,1.59,0,0,0,1.07-.4,5.31,5.31,0,0,1,4.76-.46,9.49,9.49,0,0,0-1.82-2.52c4.26-2.36-2.05-2.17-3.14-4.35A2.94,2.94,0,0,1,451.14,394.36Z" style="fill:#aebdb9"/><path d="M566.6,276.52c2.13.05,4.81.55,5.32,2.62.38,1.51-.71,3-1.95,4-2.52,1.93-5.73,2.65-8.83,3.31,2.9,1.12,9.23,9.06,10.1,12a10.3,10.3,0,0,1-1.57,8.88c-3.34,4.55-9.74,5.53-15.38,5.22a14,14,0,0,1-6.63-1.62c-2.36-1.43-7.81-9.37-9.1-11.82-2.14-4.05-4.17-8.34-4.29-12.92-.2-7.56,5.23-12.51,12.65-11.85,2.52.22,4.77,1.25,7.23,1.73C558.19,276.87,562.5,276.42,566.6,276.52Z" style="fill:#8a4d00"/><path d="M418.17,41.86l28.87-31c6-6.43,14.56-13.45,22.53-9.75,1.74.8,3.29,2.1,5.16,2.51,2.06.45,4.17-.23,6.27-.4,9.05-.75,16,7.55,21.14,15,6.24,9,12.62,18.7,13.4,29.66-.22-3.08-64.54,2.26-70.48,3.21-10.84,1.73-23.15,8.32-33.71,8.86C398.16,60.61,413.86,46.49,418.17,41.86Z" style="fill:#501100"/><path d="M519.79,229.93l6.13,12.18s4.57,7.76,7.34,13.06,3.67,5.85,3.67,5.85,1.51,7.66-3.12,10.23-8.54,5.43-12.39.67-11.94-14.46-14.69-18-13.21-13.55-13.42-18,2.29-9.2,13-12.94C513.65,220.45,519.79,229.93,519.79,229.93Z" style="fill:#efc698"/><path d="M499.65,198.86c16,.74,21.41,26.59,21.41,26.59l6.18,15.93c.46,1.21,24.54,33.55,23.79,34.6-.87,1.22-2.57,2.8-5.85,4.62-5.35,3-11.1,5.2-15.75,7.81-1.82,1-28.37-30.51-29.52-32.26L489.55,243.3s-.24.26-10.64-12.67S487.16,198.29,499.65,198.86Z" style="fill:#501100"/><path d="M437.5,304.43a100.93,100.93,0,0,1-13.57-4.07s-.94,11.88-1,24.14C430.6,320.64,436.19,314.48,437.5,304.43Z" style="fill:#004d85"/><path d="M463.15,340.6c-3.78-.77-5.34-17.5-3.64-32.67a208.72,208.72,0,0,0,24.76-2,106.65,106.65,0,0,0,21.54-5.6s1.25,15.69,1,29.61c-.13,6.11-.1,17.67-.18,36.25-.14,6.72-.94,13.8-17.6,15.63-9.5,1-18.43-3.46-19-16.2-.59-10.52-.93-14.25-1.21-16.52C468.25,344.86,466.94,341.37,463.15,340.6Z" style="fill:#501100"/><path d="M492.24,304.43a100.34,100.34,0,0,0,13.57-4.07s.95,11.88,1,24.14C499.14,320.64,493.56,314.48,492.24,304.43Z" style="fill:#004d85"/><path d="M506.59,369.57c.53,10.62-2.88,31.11-2.88,31.11s-.08,4.17-18.17,3.8c-12.06-.25-11-1.59-11-1.59s-2.83-13.08-4-34.6c-.23-8.62,9.78-13.71,18.39-13.6C495.93,354.78,506.05,358.94,506.59,369.57Z" style="fill:#501100"/><path d="M504.67,425.91l.14,2.88s-2.88,12.87-10.64,13.82c-4.69.58-13.35-2.89-15.1-7a27.06,27.06,0,0,1-1.56-7.48C486,432.88,497.34,432.08,504.67,425.91Z" style="fill:#8a4d00"/><path d="M505.59,399.53l-.92,26.38c-7.33,6.17-18.63,7-27.16,2.2-.41-4-3.92-21.95-4.84-26.74s8.54-.24,16.74-.73C497.94,400.13,505.26,394.87,505.59,399.53Z" style="fill:#8a4d00"/><path d="M404.29,233.73l-7.43,11.44s-5.39,7.22-8.72,12.18-4.29,5.42-4.29,5.42-2.34,7.45,2,10.5,7.89,6.34,12.24,2,13.45-13.07,16.57-16.28,14.62-12,15.31-16.39-1.27-9.4-11.52-14.29C411.42,225,404.29,233.73,404.29,233.73Z" style="fill:#efc698"/><path d="M427.7,205.06c-16-1-24.19,24.08-24.19,24.08l-7.88,15.17c-.6,1.15-27.39,29.49-24.33,31.65,5,3.54,12.53,9,16.87,12.1,1.7,1.22,31.68-24.47,33-26.08l11.7-11.64s.21.28,12-11.44S440.18,205.85,427.7,205.06Z" style="fill:#501100"/><path d="M418.53,251.61s2-35.12,3.53-42.12,9.25-16.17,39.88-16.35,50.53,4.72,51.59,31.72c.44,11.33-3.75,33.28-3.75,33.28Z" style="fill:#310"/><path d="M469.05,195.61l-25.73,4.18s-15.91,12-20.61,24.18c-2.73,7.11-3.11,15.85-4.18,27.64s-5.11,103.32-5.11,103.32,24.59,11.26,51.5,11.26A171.93,171.93,0,0,0,517,357.61l-7.79-132.73S502,197.46,469.05,195.61Z" style="fill:#501100"/><path d="M481.54,193.27s5.14-.2,7.06,2c0,0,.43,20.65-23.2,18S441,196,441,196a27.5,27.5,0,0,1,12.91-3.46C460.93,192.64,481.54,193.27,481.54,193.27Z" style="fill:#b02f00"/><path d="M481.89,180.18l.1,18.47s-2,10.2-17.24,9.67S448,195.06,448,195.06l3.7-18.35Z" style="fill:#efc698"/><path d="M451.67,176.72l-2.8,13.88a30,30,0,0,0,4.61,3.11,31.2,31.2,0,0,0,28.49.67l-.08-14.2Z" style="fill:#e8ad6b"/><path d="M392.24,119.28s-12,4.23-11.93,14.78,3.63,20.58,22,19.54c0,0,11,34.45,63.1,35.27s59.77-37,59.77-37,8.84,5.9,17.58-10.24-2.92-22.41-6.57-23.83c0,0,1.87-37.61-10.44-50.18s-90.14-41.36-111.49-20.2S382.65,96.51,392.24,119.28Z" style="fill:#efc698"/><path d="M531.74,125.25l-4.43,20s5.44-.84,8-2.81S541.54,129.16,531.74,125.25Z" style="fill:#dfb171"/><path d="M394.11,126l5.06,19.88s-5.47-.67-8.06-2.56S384.44,130.21,394.11,126Z" style="fill:#dfb171"/><g style="clip-path:url(#clip-path)"><rect x="412.16" y="133.46" width="25.11" height="28.92" style="fill:#efc698"/><circle cx="424.81" cy="147.94" r="9.31" style="fill:#efc698"/><circle cx="424.81" cy="147.94" r="8.95" style="fill:#efc598"/><circle cx="424.81" cy="147.94" r="8.59" style="fill:#efc498"/><circle cx="424.81" cy="147.94" r="8.23" style="fill:#efc398"/><circle cx="424.81" cy="147.94" r="7.88" style="fill:#efc298"/><circle cx="424.81" cy="147.94" r="7.52" style="fill:#efc198"/><circle cx="424.81" cy="147.94" r="7.16" style="fill:#efc098"/><circle cx="424.81" cy="147.94" r="6.8" style="fill:#efbf97"/><circle cx="424.81" cy="147.94" r="6.44" style="fill:#efbe97"/><circle cx="424.81" cy="147.94" r="6.09" style="fill:#efbd97"/><circle cx="424.81" cy="147.94" r="5.73" style="fill:#efbc97"/><circle cx="424.81" cy="147.94" r="5.37" style="fill:#efbb97"/><circle cx="424.81" cy="147.94" r="5.01" style="fill:#efba97"/><circle cx="424.81" cy="147.94" r="4.65" style="fill:#eeb897"/><circle cx="424.81" cy="147.94" r="4.3" style="fill:#eeb797"/><circle cx="424.81" cy="147.94" r="3.94" style="fill:#eeb697"/><circle cx="424.81" cy="147.94" r="3.58" style="fill:#eeb597"/><circle cx="424.81" cy="147.94" r="3.22" style="fill:#eeb497"/><circle cx="424.81" cy="147.94" r="2.86" style="fill:#eeb397"/><circle cx="424.81" cy="147.94" r="2.51" style="fill:#eeb296"/><circle cx="424.81" cy="147.94" r="2.15" style="fill:#eeb196"/><circle cx="424.81" cy="147.94" r="1.79" style="fill:#eeb096"/><circle cx="424.81" cy="147.94" r="1.43" style="fill:#eeaf96"/><circle cx="424.81" cy="147.94" r="1.07" style="fill:#eeae96"/><circle cx="424.81" cy="147.94" r="0.72" style="fill:#eead96"/><circle cx="424.81" cy="147.94" r="0.36" style="fill:#eeac96"/></g><g style="clip-path:url(#clip-path-2)"><rect x="493.6" y="130.25" width="27.63" height="31.28" style="fill:#efc698"/><circle cx="507.36" cy="145.93" r="9.31" style="fill:#efc698"/><circle cx="507.36" cy="145.93" r="8.95" style="fill:#efc598"/><circle cx="507.36" cy="145.93" r="8.59" style="fill:#efc498"/><circle cx="507.36" cy="145.93" r="8.23" style="fill:#efc398"/><circle cx="507.36" cy="145.93" r="7.88" style="fill:#efc298"/><circle cx="507.36" cy="145.93" r="7.52" style="fill:#efc198"/><circle cx="507.36" cy="145.93" r="7.16" style="fill:#efc098"/><circle cx="507.36" cy="145.93" r="6.8" style="fill:#efbf97"/><circle cx="507.36" cy="145.93" r="6.44" style="fill:#efbe97"/><circle cx="507.36" cy="145.93" r="6.09" style="fill:#efbd97"/><circle cx="507.36" cy="145.93" r="5.73" style="fill:#efbc97"/><circle cx="507.36" cy="145.93" r="5.37" style="fill:#efbb97"/><circle cx="507.36" cy="145.93" r="5.01" style="fill:#efba97"/><circle cx="507.36" cy="145.93" r="4.65" style="fill:#eeb897"/><circle cx="507.36" cy="145.93" r="4.3" style="fill:#eeb797"/><circle cx="507.36" cy="145.93" r="3.94" style="fill:#eeb697"/><circle cx="507.36" cy="145.93" r="3.58" style="fill:#eeb597"/><circle cx="507.36" cy="145.93" r="3.22" style="fill:#eeb497"/><circle cx="507.36" cy="145.93" r="2.86" style="fill:#eeb397"/><circle cx="507.36" cy="145.93" r="2.51" style="fill:#eeb296"/><circle cx="507.36" cy="145.93" r="2.15" style="fill:#eeb196"/><circle cx="507.36" cy="145.93" r="1.79" style="fill:#eeb096"/><circle cx="507.36" cy="145.93" r="1.43" style="fill:#eeaf96"/><circle cx="507.36" cy="145.93" r="1.07" style="fill:#eeae96"/><circle cx="507.36" cy="145.93" r="0.72" style="fill:#eead96"/><circle cx="507.36" cy="145.93" r="0.36" style="fill:#eeac96"/></g><path d="M438.55,114.77s7.2,7,8.36,10.61,2,4.61,1,5.11-13.22,2.12-19.83-1-11.72-10.85-12.72-12.72-2.74-4.12,2.49-5.11S429.44,108.79,438.55,114.77Z" style="fill:#d9e0de"/><circle cx="432.96" cy="120.89" r="9.5" style="fill:#424548"/><circle cx="434.27" cy="120.38" r="5.82" style="fill:#1a171a"/><path d="M418.09,97.85s3.12-3.62,10.23-4.86a22.32,22.32,0,0,1,13.35,1.87c1.37.5,2.62-.75,2-2.37s-2.24-3-8.23-3.24-11.47.37-14.84,3S412.61,100.35,418.09,97.85Z" style="fill:#181515"/><path d="M507.91,97.85s-3.12-3.62-10.23-4.86a22.34,22.34,0,0,0-13.35,1.87c-1.37.5-2.61-.75-2-2.37s2.24-3,8.23-3.24,11.48.37,14.84,3S513.4,100.35,507.91,97.85Z" style="fill:#181515"/><circle cx="436.43" cy="119.02" r="2.99" style="fill:#fff"/><path d="M454,142.3s2.58-6.69,9-6.69,8.49,6.43,8.49,6.43a12.24,12.24,0,0,1-9,3.61C456.57,145.65,454,142.3,454,142.3Z" style="fill:#dfb171"/><path d="M416.6,112.46s-.92,2.1-.39,3.41,2,3.53,1.44,3.66-2.68-2.86-3.35-4.21-1.35-2.43.07-3.12S417.11,111.4,416.6,112.46Z" style="fill:#342f31"/><path d="M415.41,113.58a26.37,26.37,0,0,1,12.43-1.38c6.4,1,10,2.7,14.69,8a34.3,34.3,0,0,1,5.53,8.81s1.21-.69-1.21-6.39-9.16-11.4-16.93-13.13a22.11,22.11,0,0,0-15.55,2.76C413.33,112.89,413.84,114,415.41,113.58Z" style="fill:#1a171a"/><path d="M487.45,114.77s-7.2,7-8.35,10.61-2,4.61-1,5.11,13.22,2.12,19.83-1,11.73-10.85,12.72-12.72,2.75-4.12-2.49-5.11S496.56,108.79,487.45,114.77Z" style="fill:#d9e0de"/><circle cx="493.05" cy="120.89" r="9.5" style="fill:#424548"/><circle cx="491.83" cy="120.38" r="5.82" style="fill:#1a171a"/><circle cx="489.57" cy="119.02" r="2.99" style="fill:#fff"/><path d="M509.4,112.46s.92,2.1.39,3.41-2,3.53-1.44,3.66,2.68-2.86,3.35-4.21,1.35-2.43-.07-3.12S508.89,111.4,509.4,112.46Z" style="fill:#342f31"/><path d="M510.6,113.58a26.42,26.42,0,0,0-12.44-1.38c-6.4,1-10,2.7-14.69,8a34.3,34.3,0,0,0-5.53,8.81s-1.21-.69,1.21-6.39,9.16-11.4,16.93-13.13a22.09,22.09,0,0,1,15.55,2.76C512.67,112.89,512.16,114,510.6,113.58Z" style="fill:#1a171a"/><path d="M396,129s-4.43-26.58,2.73-41.91S413.4,66.68,413.4,66.68s-5.45,15,48.05,15S512.22,65,512.22,65A49.4,49.4,0,0,1,528.92,98a185.41,185.41,0,0,1-1,41.23s15.33-20.44,16-35.78-2.73-73.6-79.4-73.6-78.38,46.68-78.38,66.45A57.88,57.88,0,0,0,396,129Z" style="fill:#342f31"/><path d="M483.72,150.94a8.31,8.31,0,0,1-1.44.49,11.34,11.34,0,0,1-3.43,5.5c-4.17,3.62-13.07,2.9-18.75,3.17s-10.29-2.25-11.83-3.83c-.92-.94-1.41-2.86-1.68-4.72-1.25-.46-2.33-.9-3.26-1.25-3.69-1.37-5.45,5.18-3.45,9,1,1.94,4.26,5.58,8.71,8.64,1.79-2.31,4.08-4.44,6.73-5,5.58-1.17,17.91-.7,23.35,5.82a22.53,22.53,0,0,0,9.24-11.28C490.17,150.63,486,149.79,483.72,150.94Z" style="fill:#661512"/><path d="M455.32,162.92c-2.65.55-4.94,2.68-6.73,5,4.19,2.9,9.46,5.28,15,5.22a27.93,27.93,0,0,0,15.1-4.39C473.23,162.22,460.9,161.75,455.32,162.92Z" style="fill:#ff9396"/><path d="M460.1,160.1c5.68-.27,14.58.45,18.75-3.17a11.34,11.34,0,0,0,3.43-5.5,118.23,118.23,0,0,1-18.84,2.82,43.29,43.29,0,0,1-16.85-2.7c.27,1.86.76,3.78,1.68,4.72C449.81,157.85,454.42,160.38,460.1,160.1Z" style="fill:#f7fcff"/><path d="M463.88,174.35q-.63,0-1.26,0c-12-.45-22.05-11.4-24.05-15.68-1.42-3-.87-7.4,1.19-9.53a3.68,3.68,0,0,1,4.26-.89l1.29.58A43,43,0,0,0,463.47,153c4.88.11,17.9-1.34,19.89-2.22a4.69,4.69,0,0,1,5.09.66c1.11,1.06,2.09,3.23.41,7.6C486,166.55,477,174.35,463.88,174.35Zm-21.41-24a1.33,1.33,0,0,0-1,.48c-1.22,1.27-1.81,4.52-.74,6.82,1.76,3.78,11.18,13.89,21.95,14.29,12.61.48,21.22-6.76,23.89-13.69.92-2.4,1-4.21.18-5a2.31,2.31,0,0,0-2.43-.21c-2.63,1.17-16.45,2.54-20.94,2.43h0A45.18,45.18,0,0,1,444.32,151l-1.26-.56A1.49,1.49,0,0,0,442.47,150.31Z" style="fill:#ecaa7e"/><path d="M475.43,444.14s.11,4.18.21,7,6.86,3.11,10.82,3.75,14.46,3.11,20.78,3.75,22.17,1.07,26.35.11,6.32-2.57,6.53-4.39-.75-5.79-1.5-6S475.43,444.14,475.43,444.14Z" style="fill:#501100"/><path d="M509.27,430.54s-4.47-3.34-6.19-3.34-2.05.88-2.59,3.34L500,433s-1.07-1.07-3,.86-.54,4.71-8.36,4.07A12.3,12.3,0,0,1,478.11,430c-.22-.53.56-4.08-.13-4.54s-3.08,3.26-3.41,6.69-.21,11.78.43,14,1.93,4.49,6.21,5.46,11.79,1.28,15.64,1.5,16.49,3.21,26,3.1,12.21-.75,16-3.53-1.5-10.82-15.1-15.74S509.27,430.54,509.27,430.54Z" style="fill:#8a4d00"/><path d="M505.79,448.4c8.67,2.67,25.07,3.67,29.95-4.79,4.31,3.72,5.39,7.39,3.09,9.1-3.74,2.78-6.42,3.43-16,3.53s-22.17-2.89-26-3.1-11.35-.54-15.64-1.5-5.56-3.21-6.21-5.46a24.86,24.86,0,0,1-.5-4.56,16.47,16.47,0,0,0,2.35,1.15C486.49,446.79,496.14,444.38,505.79,448.4Z" style="fill:#8a4d00"/><path d="M512.16,432.54a23.27,23.27,0,0,0-8.93,5.57c-4,4.1-4-.31-4-.31s.22-2,4.94-4.94S510.27,430.55,512.16,432.54Z" style="fill:#501100"/><path d="M518,434.82a23.23,23.23,0,0,0-8.12,6.69c-3.42,4.59-4,.22-4,.22s-.05-2,4.25-5.55S515.85,433.09,518,434.82Z" style="fill:#501100"/><path d="M525,437.77a23.09,23.09,0,0,0-8.12,6.69c-3.42,4.58-4,.21-4,.21s0-2,4.25-5.54S522.89,436,525,437.77Z" style="fill:#501100"/><path d="M506.3,410.34s-3.13-2.27-8.63-1.43-1-3.22-1-3.22,2.11-1.68,6.67-.92S507.72,407.12,506.3,410.34Z" style="fill:#501100"/><path d="M505.9,416.7s-3.7-1.51-9.51.19-1.54-2.73-1.54-2.73,2-1.89,7.06-2S507,413.54,505.9,416.7Z" style="fill:#501100"/><path d="M505.22,424.56s-3.7-1.51-9.51.19-1.54-2.73-1.54-2.73,2-1.89,7.06-2S506.29,421.4,505.22,424.56Z" style="fill:#501100"/><path d="M507.08,429.58a23.24,23.24,0,0,0-10.29,2.18c-5.15,2.49-3.64-1.65-3.64-1.65s.88-1.81,6.32-3S506,427.06,507.08,429.58Z" style="fill:#501100"/><path d="M503.81,69.1l.5-4.91a50.32,50.32,0,0,1,15.83,7.93,7.44,7.44,0,0,1-.63-4.71A40.17,40.17,0,0,1,522.81,91,6,6,0,0,0,527,89.3a67.45,67.45,0,0,1-4.11,17.62l5.29-.34a63.89,63.89,0,0,1-5.35,18.87,15.66,15.66,0,0,0,7.09-3.31,51,51,0,0,1-11.57,15.23,18.44,18.44,0,0,0,12.45-.58,24.86,24.86,0,0,1-14.42,17.71l9.06,1.66a33.46,33.46,0,0,1-16.61,8.55l4,2.22a24.44,24.44,0,0,1-12.37,6.3l5.15,3.8a34.73,34.73,0,0,1-23.07,6.24l3.53,3.86a42.56,42.56,0,0,1-15.59.21l1.87,3.83-15.93,2.63a307.27,307.27,0,0,0,33.17,3.12l-1.81,6.24a36,36,0,0,0,18.29-10,15.08,15.08,0,0,0,3.23,7.2,112.06,112.06,0,0,1,8.24-14.5l7.86,5.72,4.88-15.6a37.37,37.37,0,0,1,8.51,5.06l.11-17a13.91,13.91,0,0,1,7.74,3.18l.84-17.11,7.06,1.85a109.3,109.3,0,0,0-1.21-21.61l11.21.85a60.46,60.46,0,0,0-5.2-19.43,21.18,21.18,0,0,1,7-1.37,31.85,31.85,0,0,0-7.1-13.34,23.59,23.59,0,0,1,6.47-2.82,90.22,90.22,0,0,0-17.49-6.67A22.9,22.9,0,0,1,557.85,85L541,78.15a23.44,23.44,0,0,1,9.43-5,45.47,45.47,0,0,0-20.19-9.93,11.34,11.34,0,0,1,7-5.13,66.69,66.69,0,0,0-22.34-6.29,10.63,10.63,0,0,1,4.7-4.54,102.68,102.68,0,0,0-23.42-1.4,17.09,17.09,0,0,1,7.94-4.74,62.41,62.41,0,0,0-26.56,1.76,16.11,16.11,0,0,1,5.34-8,29.37,29.37,0,0,0-15.65,3.38l9.06-7.14c-4.24,3.35-14.21,3.68-19.53,6.81-8.46,5-9.22,10-.92,16.75,4.57,3.69,7.37,2.71,12.75,2.15,7-.74,11.52.52,18.11,3.09-.88-1.36-1.12-3.56-2-4.94C492.35,56.88,499.37,62.69,503.81,69.1Z" style="fill:#d9e0de"/><path d="M404.68,35.63,406.39,41l-12.26,2.84c1.7-.29,3.07,1.69,2.86,3.4s-1.44,3.08-2.61,4.34l-9.12,9.83c.95-.93,2.7,0,3,1.29a5.68,5.68,0,0,1-.9,3.77l-5.49,11,4,0-10.62,32.77,4.13.71c-2.6,2.23-5.4,4.85-5.62,8.27s4.14,6.79,6.65,4.45l-6,18.57a9.81,9.81,0,0,0,5.31-.46A99.13,99.13,0,0,0,376.64,157a28.14,28.14,0,0,1,9.15-.52l.2,15.05a14.36,14.36,0,0,0,5.44-.77c-.58,3.19-1.14,6.58.06,9.6s4.88,5.27,7.75,3.77c1.7-.89,3.05-2.93,4.93-2.58,3,.55,1.69,5.29,3,8.06,1.6,3.39,7.29,2.42,9-.9s.64-7.4-.91-10.81c-4.84-10.61-13.72-19-18.2-29.78-5.18-12.41-4-26.46-2.3-39.8a116.38,116.38,0,0,1,3.72-19.8c4.12-13.46,12.65-24.66,22.88-34.1,11.15-10.29,17-19.19-1.67-24C419.75,37.87,410.17,35.55,404.68,35.63Z" style="fill:#c9d3d0"/><path d="M447.56,31l.25,9.51a56.46,56.46,0,0,0-18.44-6.33l3.21,7.77a94.29,94.29,0,0,0-22.32,2.77,20.61,20.61,0,0,1,9.19,3.57,80.14,80.14,0,0,0-20.4,12.94,20.29,20.29,0,0,1,8,.65,65.29,65.29,0,0,0-14.24,17.81l3.41-1L386.1,95.52l7.62-.13a60.42,60.42,0,0,0-8.7,18.69l6.17,0a54.75,54.75,0,0,0-6.91,20.4l4.55-1-1.34,15.66a7.85,7.85,0,0,0,5.56-2.31,87.73,87.73,0,0,0-.38,20.42l4.16-1.22a29,29,0,0,0,4.84,13l5-5a94.13,94.13,0,0,0,10,13.56l1.55-5,11.6,11.72a7,7,0,0,1,1.32-6.18l10.19,9.18,2.68-6.07a74.6,74.6,0,0,0,22.56,15.89l-12.92-16.27,8.68-1.43-17-6.25,4.33-4.59a70.21,70.21,0,0,1-21.47-1.92,14.77,14.77,0,0,0,3.56-7.23A29.88,29.88,0,0,1,415,165.94l3-4.6c-2.46-.19-5.14-.48-6.89-2.23s-1.5-5.44.9-6l-9.88-6.4a5.56,5.56,0,0,0,3.21-5.64,20.79,20.79,0,0,1-9-9.61,17.42,17.42,0,0,0,4.48-6.07A9.57,9.57,0,0,1,402,107.83a20.88,20.88,0,0,1-2.92-7.53,10.9,10.9,0,0,0,7.28-5.38,16.48,16.48,0,0,1-5.58-7.68,20.93,20.93,0,0,0,10-6.81A13.42,13.42,0,0,1,409,72.52c2.6,1.21,5.8-.65,7.08-3.22s1.16-5.58,1-8.45a9.47,9.47,0,0,0,4.17,5.06l6-11.82,7.5,5.67a24.91,24.91,0,0,1,4.75-8.48c.74,3.86,6.57,4,9.72,1.63,2.55-1.91,8.65-6.66,8.6-9.84C457.77,38.38,447.65,34.64,447.56,31Z" style="fill:#d9e0de"/><path d="M374.78,91.33a.84.84,0,0,0-.37.63c0,.36.46.52.82.59l3.72.72c.49.1,1.07.27,1.24.75s-.36,1.12-.85,1.49a32.47,32.47,0,0,0-8.26,9.4l5.75,1.34a14.29,14.29,0,0,0,2.82-5.3c.46-1.63.63-3.33,1-5s5.77-11.64,4.69-12.41C383.17,82,376.19,90.07,374.78,91.33Z" style="fill:#c9d3d0"/><path d="M435.57,28.22a4,4,0,0,0-2-1c-2.64-.24-3.28,4.31-5.88,4.87a4.7,4.7,0,0,1-2.22-.27l-8.6-2.5c-1.06,2.59-2.72,5.61-5.52,5.63-2.63,0-5.39-2.76-7.5-1.18-1.55,1.15-1.12,3.72-2.39,5.18-1.83,2.11-5.41.45-8,1.48a9.93,9.93,0,0,1-3.61,11c-1.45,1-3.41,2-3.4,3.77,0,1.07.77,2,1.32,2.86a7.66,7.66,0,0,1,.88,5.52,16.2,16.2,0,0,0-.64,2.82,2.27,2.27,0,0,0,1.36,2.32,2.66,2.66,0,0,0,2.08-.53c2.82-1.82,4.28-5.06,5.89-8a106.74,106.74,0,0,1,7.44-11.21c1.58-2.18,3.22-4.41,5.52-5.79,3.09-1.86,6.93-1.92,10.5-1.44s7.09,1.46,10.7,1.47a2.26,2.26,0,0,0,1.1-.18c1.93-1-.9-4.45.58-6a19.06,19.06,0,0,1,6.8,2.16c1.62.87,3.29,2,5.13,1.83,4-.44,1.75-3.61.18-4.88C442.05,33.42,438.8,30.82,435.57,28.22Z" style="fill:#c9d3d0"/><path d="M473.32,23.76c1.83-.9,4.45-1.61,5.54.1,1.22,1.91-.64,5.45,1.48,6.23a3,3,0,0,0,1.53,0l8.74-1.44-1.16,6.52q7-1.06,14-1.53a17.75,17.75,0,0,0,.37,4.71,81,81,0,0,1,12.35.78l-1.91,4.6a128.08,128.08,0,0,1,16.46,1.82l-.91,3.83,14,5.09a2.58,2.58,0,0,1,1.48,1,2.25,2.25,0,0,1,.13,1.43,10.32,10.32,0,0,1-15.18,7.55,1.11,1.11,0,0,1-.62-.64c-.08-.39.24-.73.54-1q2.5-2.24,5.15-4.31a66,66,0,0,0-24-4.8c1-1.36,2.15-3.1,1.42-4.66s-3-1.83-4.9-1.75l-13.58.6a1.07,1.07,0,0,1-.81-.19c-.32-.31-.13-.83,0-1.27.4-1.69-1-3.38-2.7-3.9a10.52,10.52,0,0,0-5.16.17l-8.61,1.72a1.63,1.63,0,0,1-1.42-.15c-.5-.43-.3-1.23,0-1.83a13,13,0,0,1,2.73-3.82,12.87,12.87,0,0,0-10.76,1.09l.09-3.51c0-1.42-14.88,7.46-10.17-1.37C460.14,29.57,468.27,26.25,473.32,23.76Z" style="fill:#c9d3d0"/><path d="M440.9,25.84a2.44,2.44,0,0,1,.23-1.31,1.74,1.74,0,0,1,.45-.49,4,4,0,0,1,3.62-.44,12,12,0,0,1,3.29,1.87c2.1,1.51,4.2,3,6.22,4.65,2.27,1.82,4.53,3.93,5.41,6.71a1.38,1.38,0,0,1-.13,1.38,1.32,1.32,0,0,1-.63.3,10.39,10.39,0,0,1-9.6-2.6c-.47,2.64-.49,4-3.53,4.12-1.71.09-2.59-.1-3.58-1.49C440.57,35.64,440.94,29.22,440.9,25.84Z" style="fill:#c9d3d0"/><path d="M556.52,68.75a2.26,2.26,0,0,1,.78,1,2.14,2.14,0,0,1-.51,1.7,13.79,13.79,0,0,1-5.26,4.59c3.36,4.84,10.14,6.65,12.91,11.84l-2,1.21a53,53,0,0,0,7.87,5.84c-.7,2-3.28,2.61-4.46,4.35s-.69,4,.21,5.8,2.2,3.45,2.79,5.39.18,4.43-1.62,5.37a2.27,2.27,0,0,0-1,.68,1.64,1.64,0,0,0,0,1.35c1.35,3.93,3.45,7.79,3.23,11.94a3.34,3.34,0,0,1-.54,1.89,3.87,3.87,0,0,1-2.74,1.18,32.65,32.65,0,0,1-14-1.38,13.14,13.14,0,0,0,2-17.58c-1-1.26-2.3-2.66-1.89-4.21.48-1.78,2.85-2.25,3.94-3.74,1.45-2,0-4.86-1.89-6.41s-4.33-2.58-5.69-4.64l1.54-1L540.17,88.3a10.25,10.25,0,0,1,3.85-3l-10.91-8.24a32,32,0,0,1,5.31-4c-1.11-2.75-5-2.77-7.46-4.39s-3.29-5.45-2-8.07c1.49-3,4.1-2.39,7-1.85A43.45,43.45,0,0,1,556.52,68.75Z" style="fill:#c9d3d0"/><path d="M505,198.19c.65,2.32,3.18,4.29,5.43,3.43a5.93,5.93,0,0,0,2.49-2.25,30.07,30.07,0,0,0,4.1-7.94c1.71.46,2.91,1.94,4.2,3.16s3.1,2.29,4.76,1.65,2.29-2.64,2.7-4.39L531,181.78c2.87-1.38,5.42,4.33,8.42,3.24,1.72-.62,1.92-3,1.81-4.79L540.54,169c1.23-1.07,3,.36,4.65.51,2.16.21,3.83-2.08,4.09-4.24s-.39-4.32-.39-6.5,1-4.66,3.07-5.23c1.42-.38,3,.21,4.35-.47,1.64-.85,1.79-3.1,1.61-4.93a45.12,45.12,0,0,0-3-12.48c-4,1.22-3,8.68-7,9.65-.7.17-1.44.08-2.13.29-1.68.51-2.41,2.52-2.38,4.27s.55,3.5.33,5.24a2.51,2.51,0,0,1-.82,1.72,3,3,0,0,1-1.59.46l-5.9.61c.6,3.27,1.2,6.69.22,9.86s-4.06,6-7.34,5.43c-.65-.11-1.38-.34-1.94,0s-.68,1.16-.79,1.84c-.91,5.4-7.51,9-12.54,6.81-1.73,1.72-2.17,4.4-1.88,6.83a2.34,2.34,0,0,1-.1,1.39c-1,1.87-4-1.09-5.46.31C504.46,191.41,504.63,196.88,505,198.19Z" style="fill:#c9d3d0"/><path d="M518.94,82.52a12.72,12.72,0,0,0-.08,3.26,8.46,8.46,0,0,0,4.45-5.84,13.12,13.12,0,0,0,.12-3.37C523.16,73,522,69.21,519.14,67c-3.52-2.76-.94,4.23-.69,5.46A34.71,34.71,0,0,1,518.94,82.52Z" style="fill:#c9d3d0"/><path d="M521.73,117a27.13,27.13,0,0,0-2.94,5.78c1-.72,2.29-.43,3.43-.78a6.29,6.29,0,0,0,2.66-2.07,20.67,20.67,0,0,0,2-2.48,16.66,16.66,0,0,0,2.29-8.07c.17-2.37-1.42-5.48-3.24-2.35S523.54,113.88,521.73,117Z" style="fill:#c9d3d0"/><path d="M514.23,153.35c-.27.21-.57.49-.52.83s.51.53.89.58c4.42.64,8.64-2.06,11.86-5.16a16.75,16.75,0,0,0,4.68-6.77c.94-2.94.54-6.14,0-9.18-.59.91-1.16,1.84-1.79,2.71a12,12,0,0,0-.09-1.45c-1.39.22-2.22,3.23-2.91,4.45a47.83,47.83,0,0,1-3.45,5.24A38.17,38.17,0,0,1,514.23,153.35Z" style="fill:#c9d3d0"/><path d="M522.33,162.16a27.61,27.61,0,0,1-3.11,2.39,17,17,0,0,1-5.12,2.54,7.26,7.26,0,0,1-5.56-.6,1.36,1.36,0,0,1-.76-.92c-.06-.62.58-1,1.12-1.33a46.45,46.45,0,0,0,8.66-5.9c1.55-1.34,5.06-4.9,7.27-3C527.26,157.42,523.81,160.82,522.33,162.16Z" style="fill:#c9d3d0"/><path d="M482,183.7c6.35,1.59,13-.47,19.19-2.59,2.08-.71,4.4-1.67,5.13-3.74a8.92,8.92,0,0,0-3.46.5,41.45,41.45,0,0,1-14.58,1.28A17,17,0,0,0,484,179a4.56,4.56,0,0,0-3.46,2.23,2,2,0,0,0-.23.91c.05,1.19,1.55,1.74,2.73,1.59s2.36-.67,3.51-.39" style="fill:#c9d3d0"/><path d="M458.77,188.3c1.2.38,2.75.63,3.53-.36s.19-2.45-.75-3.25c-1.64-1.38-4-1.48-6.1-1.54a59.79,59.79,0,0,0-7.07-.23C448.44,185.73,456.55,187.61,458.77,188.3Z" style="fill:#c9d3d0"/><path d="M433.75,179.5a55.54,55.54,0,0,0,10.79.22c.95,0,2.15-.33,2.26-1.26s-1.13-1.53-2.13-1.7A95.35,95.35,0,0,0,428,175.12c-1.85,0-2.94.66-1.09,2.31C428.25,178.64,432,179.5,433.75,179.5Z" style="fill:#c9d3d0"/><path d="M413.45,162.27c1.15.62,2.54,1.24,3.71.65a2.71,2.71,0,0,0,1.31-1.88c.41-2-.89-4-2.55-5.11a25.33,25.33,0,0,0-5.56-2.36,26.79,26.79,0,0,1-8.55-5.24c.23.21.14,3.78.63,4.63a28.27,28.27,0,0,0,2.69,3.42C407.33,159,410.47,160.69,413.45,162.27Z" style="fill:#c9d3d0"/><path d="M393.46,129.06a15.62,15.62,0,0,0,2.19,7.62,7.5,7.5,0,0,0,6.72,3.59,6.79,6.79,0,0,0-.73-5.55c-.92-1.7-2.23-3.14-3.3-4.74a19.85,19.85,0,0,1-2.53-5.37,8,8,0,0,0-.81-2.11c-1.51-2.36-1.79.1-1.74,1.48C393.33,125.67,393.34,127.37,393.46,129.06Z" style="fill:#c9d3d0"/><path d="M472.87,220.87a6.4,6.4,0,0,0,1.19,2.92c1.78,2.07,5.94.48,5.88-2.25a19.33,19.33,0,0,1,5.35,7.53c.73,1.86,1.44,4.12,3.36,4.69a3.88,3.88,0,0,0,4.19-2,11.43,11.43,0,0,0,1.13-4.85,19.5,19.5,0,0,1,11.38,8c2.87-2.62,1.9-7.27.7-11a44.62,44.62,0,0,0,13.33,8.28,12.63,12.63,0,0,0,0-10.57A36.41,36.41,0,0,1,533,224.17c3.41-3.5.94-10.56-3.9-11.19l3.18-1.38c1-1.29-1.14-2.7-2.76-3l-9.74-1.54c1.31-1.18.85-3.48-.46-4.65a9.52,9.52,0,0,0-4.89-1.82l-32.6-5.58c-6.23-1.06-10.89-2-11.47,4.89S471.42,214.32,472.87,220.87Z" style="fill:#c9d3d0"/><path d="M472.25,197.93a17.82,17.82,0,0,0,9.42-1l-2.11,5.66a2.33,2.33,0,0,0-.21,1.41c.37,1.34,2.36,1,3.55.27a41.57,41.57,0,0,0,6.55-4.8l-.36,7.83a38.2,38.2,0,0,0,8.11-5.19,13.42,13.42,0,0,0,4.63-8.22,3,3,0,0,0-.2-1.74c-.61-1.18-2.22-1.3-3.55-1.26-5.48.17-11.2,0-16.65.68-2.53.32-3.71,0-5.84,1.58A25.64,25.64,0,0,0,472.25,197.93Z" style="fill:#d9e0de"/><path d="M488.42,223.94a2.84,2.84,0,0,1,1.81-3.35,4.45,4.45,0,0,1,4,.74c.84.6,1.53,1.41,2.43,1.93a2.51,2.51,0,0,0,2.9,0,2.93,2.93,0,0,1,2.23-4.24c1.58-.07,3.2,1.17,4.61.47a18.07,18.07,0,0,0-7.93-7.76c-.54.17-.64.91-.45,1.45a7.22,7.22,0,0,1,.62,1.57c.12,1.17-1.24,2-2.41,1.9a6.14,6.14,0,0,1-3-1.71,5.66,5.66,0,0,0-3.06-1.6c-.36,0-.16,3.35-.13,3.6C482.4,214.15,485.77,220.09,488.42,223.94Z" style="fill:#d9e0de"/><path d="M527.78,210.19c-.32.72-1.29.82-2.08.82l-6.28,0c4.23,1.29,8.75,2.78,11.38,6.32-2,.49-4.16-.24-6.13-1l-5.07-1.85a8.18,8.18,0,0,1,2.38,3.34c-4.08-.9-8.16-1.83-12.23-2.76-.3-.07-.64-.18-.73-.46-.18-.51.54-.82,1.08-.86.94-.06,1.89,0,2.83-.06-1.55-2.66-6-2.87,0-4.25C517.66,208.34,523.06,209.29,527.78,210.19Z" style="fill:#d9e0de"/><path d="M410.41,213.76c11.62-12.55,24.67-20.5,36.9-23.49a3.2,3.2,0,0,1,2.49.1c.77.5,1.06,1.54,1.48,2.42,1.45,3.08,4.72,4.39,7.71,5s6,.82,8.43,2.7c3.29,2.52,4.84,8.1,3.57,12.7-1.32,4.8-5.48,8.25-9.73,8.06-.89,0-2-.77-1.69-1.82l-14.16,7c-2,1-4.91,1.59-5.46-.75-.42-1.76,1-3.57,2.14-5a28.72,28.72,0,0,0,2.49-3.72,3.53,3.53,0,0,0,.62-2.48c-.38-1.43-2.17-1.23-3.48-.76l-20.52,7.26c-1.7.61-4.22.64-4-1.23a3.13,3.13,0,0,1,.57-1.33c2.33-3.43,7.28-4.52,8.33-8.19-7,.67-13.92,9.84-21.53,9.19a1.89,1.89,0,0,1-1.27-.47,1.92,1.92,0,0,1-.35-1.28c0-4.42,4.58-8.14,8.46-10.59a130.71,130.71,0,0,1,24.76-12.33" style="fill:#c9d3d0"/><path d="M441,200.11c.07.55-.46,1-1,1.18a4.27,4.27,0,0,0-1.51.65c-.41.37-.43,1.21.11,1.35a1,1,0,0,0,.57,0l3.17-.84c1.43-.37,3.21-.64,4.14.5a.82.82,0,0,1,.23.64c0,.31-.35.52-.63.68l-8.85,5.16a3.66,3.66,0,0,1-1.63.62,1.24,1.24,0,0,1-1.31-.92,1.52,1.52,0,0,1,.87-1.37,5.29,5.29,0,0,0,1.41-.95c.37-.44.38-1.24-.14-1.48a1.3,1.3,0,0,0-.62-.07l-5.35.25,1.77-1.23a15.91,15.91,0,0,1-3.26.22C431.4,201.1,437.18,199.79,441,200.11Z" style="fill:#d9e0de"/><path d="M460.4,207a1.62,1.62,0,0,1,.9,0,1.1,1.1,0,0,1,.6,1.14,3.2,3.2,0,0,1-.52,1.27c1,.47,2.3-.52,3.33-.06a1.88,1.88,0,0,1,.9,1.93,11.5,11.5,0,0,1-.63,2.18,5.19,5.19,0,0,1-.8,2c-.48.56-1.49.73-1.89.11s.22-1.31.11-2a1.16,1.16,0,0,0-1-.88,2.73,2.73,0,0,0-1.42.31c-1.12.49-2.13,1.19-3.26,1.66a4.62,4.62,0,0,1-3.55.19l1.14-1.85a.7.7,0,0,0,.14-.45c-.06-.27-.4-.34-.67-.34-2.61-.09-7.64.4-4-3.39,1.22-1.27,3.58-2.85,5.36-2.71a24.07,24.07,0,0,0-1,2.22C456.22,208.07,458.32,207.49,460.4,207Z" style="fill:#d9e0de"/><path d="M471.33,248.28a1.66,1.66,0,0,1-1.23-.54l-16.48-17.62a1.69,1.69,0,0,1,2.47-2.31l16.48,17.62a1.7,1.7,0,0,1-1.24,2.85Z" style="fill:#732808"/><path d="M454.43,247.07a1.73,1.73,0,0,1-1.24-.53,1.7,1.7,0,0,1,.08-2.4l17.63-16.48a1.69,1.69,0,0,1,2.31,2.48l-17.62,16.48A1.73,1.73,0,0,1,454.43,247.07Z" style="fill:#732808"/><path d="M470.26,275.38a1.7,1.7,0,0,1-1.24-.54l-16.48-17.62A1.7,1.7,0,0,1,455,254.9l16.48,17.63a1.7,1.7,0,0,1-1.24,2.85Z" style="fill:#732808"/><path d="M453.36,274.17a1.67,1.67,0,0,1-1.24-.54,1.69,1.69,0,0,1,.08-2.39l17.62-16.48a1.69,1.69,0,1,1,2.32,2.47l-17.63,16.48A1.65,1.65,0,0,1,453.36,274.17Z" style="fill:#732808"/><path d="M469.13,301.86a1.68,1.68,0,0,1-1.21-.51l-16.82-17.3a1.69,1.69,0,0,1,2.43-2.36L470.35,299a1.69,1.69,0,0,1,0,2.39A1.66,1.66,0,0,1,469.13,301.86Z" style="fill:#732808"/><path d="M452.21,301a1.73,1.73,0,0,1-1.22-.52,1.69,1.69,0,0,1,0-2.39l17.3-16.82a1.69,1.69,0,0,1,2.36,2.43l-17.3,16.82A1.7,1.7,0,0,1,452.21,301Z" style="fill:#732808"/><path d="M469.13,338.92a1.65,1.65,0,0,1-1.21-.52L451.1,321.1a1.69,1.69,0,0,1,2.43-2.36L470.35,336a1.7,1.7,0,0,1,0,2.4A1.66,1.66,0,0,1,469.13,338.92Z" style="fill:#732808"/><path d="M452.21,338a1.72,1.72,0,0,1-1.22-.51,1.7,1.7,0,0,1,0-2.4l17.3-16.82a1.69,1.69,0,0,1,2.36,2.43l-17.3,16.82A1.7,1.7,0,0,1,452.21,338Z" style="fill:#732808"/><path d="M529,274.2c-.14-1.39-.52-3.05.52-4l3,.63.59-3.62,3.26,1.58a14.3,14.3,0,0,1,.89-3.59L540,267a6.39,6.39,0,0,0,.86-2.85,1.76,1.76,0,0,1,1.68,1.31,7.47,7.47,0,0,1,2.88-3.24,4.14,4.14,0,0,0,6,2.58l-1.51,3.31a14.72,14.72,0,0,1,4.81,3.54l-2.77.85a8,8,0,0,1,1.52,3.95c-2.06.78-4.5,1.52-6.34.31l-.59,6.2a5.72,5.72,0,0,1-4.77-3.09c-2.24,1.56.87,5.77-1.09,7.68-1.43,1.39-3.75-.06-5.17-1.47a19,19,0,0,0-.86,3.77,3.77,3.77,0,0,1-2.21,3c-1.23.39-2.82-.89-2.27-2.06a21.94,21.94,0,0,1-6.57,2.05,2,2,0,0,1-1.57-.22c-.75-.6-.34-1.83.29-2.56s1.46-1.45,1.44-2.41c0-1.46-1.87-2-3.29-2.35-5.5-1.25-.16-4.73,1.78-6.51,1.74-1.61,2.6-1.2,4.4-1.7C528.11,276.62,529.21,276.47,529,274.2Z" style="fill:#c9d3d0"/><path d="M540.42,270.5l2.1-2.8a2.34,2.34,0,0,1,1.71,2.88l2.86-3.68a3,3,0,0,1-1.12,3.43,3.56,3.56,0,0,1,2.94,2.32,5.23,5.23,0,0,1-2.36-.08,6.2,6.2,0,0,1-1.21,4.23,1.25,1.25,0,0,1-1.58-.8,3.66,3.66,0,0,1,0-2,11.17,11.17,0,0,1-6.56.64c-.05-.77,1.62-.4,1.75-1.16.06-.32-.24-.58-.46-.83a2.29,2.29,0,0,1-.48-2.27,3.28,3.28,0,0,1,2.48.09" style="fill:#d9e0de"/><path d="M524.55,288.16a8.35,8.35,0,0,0,2-.77,5.32,5.32,0,0,1-.28,3.56,6.63,6.63,0,0,0,3.7-2.52,25.22,25.22,0,0,1,2,2.4c.47-.13.6-.73.65-1.21l.7-6.91c0-.3,0-.68-.24-.83a.64.64,0,0,0-.43,0c-1.37.26-1.69,2.08-2.71,3a.73.73,0,0,1-.35.2c-.36,0-.55-.4-.62-.75a15.2,15.2,0,0,1-.25-3.16,4.22,4.22,0,0,0-.54-2.89c.16.19-2.92,1.55-3.06,1.69-.78.81-.48.52-.17,1.58s.8,1.59.62,2.88S524.6,286.84,524.55,288.16Z" style="fill:#aebdb9"/><path d="M387.94,274.08c.2-1.38.64-3-.37-4l-3,.52-.46-3.63-3.32,1.46a13.67,13.67,0,0,0-.76-3.62l-2.83,1.65a6.43,6.43,0,0,1-.75-2.88,1.77,1.77,0,0,0-1.73,1.25A7.46,7.46,0,0,0,372,261.5a4.14,4.14,0,0,1-6.06,2.37l1.39,3.36a14.63,14.63,0,0,0-4.93,3.37l2.73.94a8.09,8.09,0,0,0-1.65,3.89c2,.86,4.44,1.69,6.32.54l.37,6.22a5.74,5.74,0,0,0,4.88-2.92c2.18,1.64-1.08,5.74.81,7.71,1.38,1.44,3.75.08,5.22-1.28a18.49,18.49,0,0,1,.72,3.8,3.81,3.81,0,0,0,2.11,3.05c1.22.42,2.85-.8,2.34-2a21.81,21.81,0,0,0,6.5,2.29,2,2,0,0,0,1.57-.17c.77-.57.41-1.81-.19-2.56s-1.42-1.5-1.36-2.46c.08-1.46,1.94-2,3.38-2.23,5.54-1.06.32-4.73-1.56-6.58-1.68-1.66-2.55-1.28-4.33-1.85C388.71,276.53,387.62,276.33,387.94,274.08Z" style="fill:#c9d3d0"/><path d="M376.63,270l-2-2.87a2.34,2.34,0,0,0-1.8,2.82l-2.73-3.79a3,3,0,0,0,1,3.47,3.61,3.61,0,0,0-3,2.21,5.27,5.27,0,0,0,2.37,0,6.14,6.14,0,0,0,1.06,4.26,1.25,1.25,0,0,0,1.61-.74,3.65,3.65,0,0,0,.07-2,11.15,11.15,0,0,0,6.54.87c.08-.76-1.61-.46-1.71-1.22-.05-.32.26-.57.49-.81a2.3,2.3,0,0,0,.56-2.25,3.28,3.28,0,0,0-2.48,0" style="fill:#d9e0de"/><path d="M391.86,288.18a8.16,8.16,0,0,1-2-.84,5.4,5.4,0,0,0,.16,3.57,6.63,6.63,0,0,1-3.61-2.65,22.73,22.73,0,0,0-2.06,2.33c-.47-.15-.58-.75-.61-1.24l-.45-6.92c0-.31,0-.69.27-.83a.7.7,0,0,1,.43,0c1.36.31,1.62,2.14,2.6,3.13a.66.66,0,0,0,.35.22c.35.05.56-.38.64-.73a15.21,15.21,0,0,0,.36-3.15,4.17,4.17,0,0,1,.64-2.87c-.16.18,2.87,1.65,3,1.8.75.83.46.54.11,1.59s-.86,1.55-.72,2.85S391.86,286.86,391.86,288.18Z" style="fill:#aebdb9"/><path d="M422.65,307.15c1.33-.2,3-.4,3.72.75a2.91,2.91,0,0,1,4.72.31c1.43-1.9,4.33-1.59,6.66-1.09,1.84.4,3.8.86,5.1,2.22a4.39,4.39,0,0,1,6.31-.19,14.9,14.9,0,0,1,6.23-4,7.9,7.9,0,0,0,.25,3.92l4.63-2.83a2.64,2.64,0,0,1,1.45-.54c1.33.06,1.74,1.81,1.77,3.14a8,8,0,0,1,5.27-.33,8.21,8.21,0,0,0,3.28-1.87,6.06,6.06,0,0,0,3.13,1.69,28.1,28.1,0,0,1,2.86-4.4l4.94,4.41a6.11,6.11,0,0,1,2.09-3.81,54,54,0,0,1,4.83,4.23,12.23,12.23,0,0,1,2.75-4.16,4.1,4.1,0,0,0,1.78,4,17.69,17.69,0,0,0,6.46-3.61l1.14,2.81,5.18-1.75a2.77,2.77,0,0,1-.3,2.5,7.32,7.32,0,0,1,5.37-2.72l-.43,1.92a3.93,3.93,0,0,1,4.61.67l-1.66,1.62a4.67,4.67,0,0,1,2.12,4.83c-1.79-1.05-4.17-2.08-5.8-.78-.54.43-.92,1.1-1.57,1.37-1.14.48-2.33-.48-3.24-1.32s-2.29-1.65-3.29-.92a4.88,4.88,0,0,0-.94,1.25,3.56,3.56,0,0,1-5.4.22c-.52-.62-.93-1.5-1.73-1.6-1.49-.19-1.73,2.27-3,3a3.09,3.09,0,0,1-1.32.32c-2.31.22-5,.27-6.46-1.56-.67.92-2.11.6-3.13.1s-2.25-1.09-3.21-.48c-.5.32-.8.92-1.35,1.13a2.24,2.24,0,0,1-1.48-.13,22.38,22.38,0,0,1-4.6-2.21,5.34,5.34,0,0,1-6.85,2.13c-1-.51-1.94-1.39-3-1.07a4.59,4.59,0,0,0-1.3.9,4.13,4.13,0,0,1-3.64.69,4,4,0,0,1,.08-2.4,33.75,33.75,0,0,0-5.88,1.22l.17-2.83a10.5,10.5,0,0,0-4.88,3.84,7.16,7.16,0,0,1-1,1.32,2.76,2.76,0,0,1-4.31-3.35,31.83,31.83,0,0,1-9.51,1.75,3.43,3.43,0,0,1-.14-3c-3-.52-5.09,4-8.11,3.53a5.44,5.44,0,0,1-2.72-1.68l1.12-1.1a17.2,17.2,0,0,1-9.06-.3l1.8-1.61a18.5,18.5,0,0,0-3.2-2.64,2.2,2.2,0,0,1,2.85-1l.49-3.35s2.56,2.64,2.8,2.74c1.46.59,2-.27,3.19-1.25C419.86,307.11,421.35,307.34,422.65,307.15Z" style="fill:#c9d3d0"/><path d="M423.54,335a17.92,17.92,0,0,0,.19,6,9.17,9.17,0,0,1,3.67-2.36,5.56,5.56,0,0,0,2,2.82,4.29,4.29,0,0,0-.7-3.4,15.34,15.34,0,0,1,7.85,4,7.13,7.13,0,0,1,4.62-3.1,8.2,8.2,0,0,0,1.32,4.41,7,7,0,0,1,4.81-2.48,5.36,5.36,0,0,0,1.57,3.72l5.72-3.37a18.66,18.66,0,0,0,3.26,4.23,9.46,9.46,0,0,0,4.84-4.15l4,3.38a2.56,2.56,0,0,0,1,.59c.8.21,1.57-.36,2.24-.84a14,14,0,0,1,9.22-2.55,3.36,3.36,0,0,0-.91,3.67c1.8-.55,3.13-2,4.55-3.26s3.29-2.31,5.1-1.8a15.79,15.79,0,0,0,2.05,4.82l4.63-4.07a7,7,0,0,1,1.79-1.26c2.3-1,4.81.67,6.77,2.23a10.83,10.83,0,0,1,5.79-6.42l2.17,5A7.42,7.42,0,0,1,518,337.9a11.94,11.94,0,0,1-.64,4.06,6.39,6.39,0,0,1,5,2.57l-5.42.41a12.37,12.37,0,0,1,3.88,5.92,5.4,5.4,0,0,1-3.06-.11,14.61,14.61,0,0,1,4.07,8.44,19.53,19.53,0,0,1-6.84-2.32,17.41,17.41,0,0,1-2.72,7.19,39.38,39.38,0,0,1-6.1-3.68,10.87,10.87,0,0,1-5.84,7.12,5.38,5.38,0,0,0-2.94-3.17,9.76,9.76,0,0,1-3.63,3.31,3.86,3.86,0,0,1-4.53-.8,4.76,4.76,0,0,1-6.29,3.66c-2.26-1-4-3.78-6.41-3.16-1.91.49-3.35,3.13-5.15,2.34a7.85,7.85,0,0,1-1.17-.84c-1.28-.87-3-.52-4.44.09s-2.8,1.46-4.35,1.51-3.27-1.17-3-2.69l-10.75.82a1.67,1.67,0,0,1-1.15-.19,2.61,2.61,0,0,1-.52-.7c-.87-1.32-2.82-1.34-4.33-.86s-2.95,1.34-4.54,1.29-3.23-1.67-2.53-3.09a45.7,45.7,0,0,0-12,.79,6.9,6.9,0,0,1,1.31-3.78l-7.44-.86,0-2.57a61.52,61.52,0,0,1-8.61-3.33,10,10,0,0,1,2.9-3.94,35,35,0,0,0-3.56-5.15c1.27.3,2.48-.94,2.68-2.23a8.77,8.77,0,0,0-.66-3.82,5.37,5.37,0,0,1-.14-3.82c.62.65,1.22,1.31,1.88,1.9.51-6.46,4-1,6.13,1.64C417.79,339.07,423.46,335.52,423.54,335Z" style="fill:#c9d3d0"/><path d="M514,354.76a10.42,10.42,0,0,1-4.11-2.06,22.94,22.94,0,0,0-.51,6.18,17.13,17.13,0,0,1-6.38-2,2.76,2.76,0,0,0-2-.54c-1.72.46-.85,3.39-2.16,4.59-2,1.84-5.36-2.73-7.58-1.14a5.24,5.24,0,0,0-1.14,1.56c-1.34,2.11-4.06,3-6.55,2.84a21.08,21.08,0,0,1-7.1-2.24c-.27,2.05-3,2.58-5,2.6l-4.23,0a8.07,8.07,0,0,1-3.75-.57,2.78,2.78,0,0,1-1.61-3.12,48.09,48.09,0,0,1-8.06,2.89,1.94,1.94,0,0,1-1.78-.13c-.46-.4-.46-1.11-.71-1.66a2.67,2.67,0,0,0-2.55-1.27,27.55,27.55,0,0,0-3,.52,23.13,23.13,0,0,1-5.55-.45c-1.85-.2-3.9-.06-5.28,1.19a8.35,8.35,0,0,1,1.94-6,10.77,10.77,0,0,1,3.14,2.52l3.56-5a24.88,24.88,0,0,1,3,4,12.93,12.93,0,0,1,5.75-5.25l.94,4.64a17.25,17.25,0,0,1,7.79-4.39,9.08,9.08,0,0,0,.67,4.8,25.09,25.09,0,0,1,9.69-4.68,17.3,17.3,0,0,0-.62,5.36,32.31,32.31,0,0,1,5-4.14l6.8,4.89a11.35,11.35,0,0,1,7.32-7.19,22,22,0,0,0,3.26,3.35,12.71,12.71,0,0,1,6.79-4.78,3.66,3.66,0,0,0,2.11,2.72l4.43-5.41,1.73,2.58c-.91-1.37,1.25-5.53,3.14-3.6C512.77,347.77,514.13,353,514,354.76Z" style="fill:#aebdb9"/><path d="M416.31,348.23a1.75,1.75,0,0,0,.69.8c.89.45,1.79-.55,2.26-1.42s1.28-1.91,2.21-1.56a2,2,0,0,1,.77.63L426,351a19.33,19.33,0,0,1,3.13-3.85,19.59,19.59,0,0,0,4.17,3.91,4,4,0,0,1,6.32.72,2.9,2.9,0,0,1,4.78-.44,8.87,8.87,0,0,1,3.76-2,20,20,0,0,0-6.07-.49l-.07-3a3.17,3.17,0,0,0-2,.75,2.65,2.65,0,0,1-1.06.74c-.75.16-1.35-.58-1.82-1.18a11.36,11.36,0,0,0-5.39-3.81,5.55,5.55,0,0,1,.42,3.86,7.62,7.62,0,0,0-3.47-2.52c-1.4-.35-3.19.45-3.32,1.89l-3.89-3.18c0,1.07-1.47,1.61-2.44,1.16a5.63,5.63,0,0,1-2-2.33C414.92,343.31,414.89,345.61,416.31,348.23Z" style="fill:#d9e0de"/><path d="M424.62,310.35c.79.5,1.31,1.45,2.22,1.71,1.69.47,3.21-1.79,4.93-1.44.61.13,1.11.57,1.71.76,1.12.35,2.31-.27,3.49-.24,1.43,0,2.71,1,4.13,1a6.76,6.76,0,0,0,1.83-.32l5.24-1.43a13.37,13.37,0,0,0-5.62-.48,2,2,0,0,1-1.08,0c-.36-.16-.57-.53-.83-.83a2.77,2.77,0,0,0-3.64-.38,6.86,6.86,0,0,1-.86.67c-1.83,1-4-2.17-5.78-1.12-.6.35-.94,1.13-1.62,1.3-1.14.28-2.08-1.4-3.24-1.14-.46.1-.8.5-1.24.67-1.48.59-2.73-1.2-4.13-1.32-1.74-.13-2.29.88-4.12-.06.1,1.07,1.16,3.32,2.22,3.8C420.16,312.38,422.07,308.74,424.62,310.35Z" style="fill:#d9e0de"/><path d="M480.2,310.83a2,2,0,0,1,2.14.58c.42.51.75,1.33,1.4,1.24a1.54,1.54,0,0,0,.73-.46A3.62,3.62,0,0,1,490,313.8a5.38,5.38,0,0,1,7.4-1.65,1.9,1.9,0,0,0,.93.46,1.87,1.87,0,0,0,1-.4,6.72,6.72,0,0,1,7.77.61c.33-1.75-1.35-3.35-3.1-3.64a10.1,10.1,0,0,0-5.17,1,7.68,7.68,0,0,1-.57-3.07l-6.63,2.38c.17-1.55-1.7-2.7-3.23-2.37a6.06,6.06,0,0,0-3.48,2.93c-.06-1.41-1.83-2-3.25-2.05s-2.88.16-4-.87c-2,1.85-.87,4.29,1.26,5.44A2.2,2.2,0,0,1,480.2,310.83Z" style="fill:#d9e0de"/><path d="M475.17,394.36a7.8,7.8,0,0,0,3-1.81c.36,1.14.91,2.47,2.09,2.73s2.11-.62,3.17-1,2.71.31,2.31,1.37l4.51-2c0,1,.65,2.47,1.56,2a1.93,1.93,0,0,0,.65-.71,3.12,3.12,0,0,1,2.58-1.42,2.27,2.27,0,0,1,2.17,1.82,6.7,6.7,0,0,1,5.49-2.59,2.49,2.49,0,0,0-.33,2.21,6.4,6.4,0,0,1,4.48-.21,2.72,2.72,0,0,0-.37,4.32c-4-.66-8,1-12,2a35.4,35.4,0,0,1-18.19-.44,3.13,3.13,0,0,0-2.56,0,2.45,2.45,0,0,1-.75.46,1.56,1.56,0,0,1-1.06-.4,5.31,5.31,0,0,0-4.76-.46,9.49,9.49,0,0,1,1.82-2.52c-4.26-2.36,2.05-2.17,3.13-4.35A3,3,0,0,0,475.17,394.36Z" style="fill:#aebdb9"/><path d="M304.24,241.11c-9.45-8.9-18.91-18.28-30.65-23.61,5.25-2,11.11-2,15.87.8,6.68,4,9,13.3,15.29,17.87,6,4.33,14.74,3.77,20.59,8.17C319.19,247.21,309.65,246.52,304.24,241.11Z" style="fill:#fff9f3"/><path d="M253.46,242.76c2.91-7.79,6.56-15.64,12.89-21a24.34,24.34,0,0,1,7.24-4.23c11.74,5.33,21.2,14.71,30.65,23.61,5.41,5.41,14.95,6.1,21.1,3.23.19.14.4.28.59.44a5.8,5.8,0,0,1,2.46,6.16c-.56,3.75-2.34,7.19-4.27,10.45a15.38,15.38,0,0,1-3.49,4.45,5.81,5.81,0,0,1-5.32,1.21,2.15,2.15,0,0,1-1.18,1.26c-4.41,2.48-9.66,1.52-14.46,2.24a12.32,12.32,0,0,0-9.69,6.76c-1.32,2.52-1.52,6-3.78,7.95-6.06,5.18-18.42.15-23.24-4.49a39.36,39.36,0,0,1-4.86-6c-3.77-5.39-7.3-11.34-7.62-17.92C250.24,252,251.76,247.3,253.46,242.76Z" style="fill:#f1dfd0"/><path d="M279.59,186.65c-1.41.07-2.45,1.29-3.3,2.41-2.68,3.53-4.57,8.5-7.25,12-1.85,2.44-3.73,4.94-4.62,7.86-4.87-4.8-6.87-13.66-12-18.23-3.59,1.84-4.49,6.95-5.25,10.91s-.64,8.06-1.58,12c-.51,2.17-1.34,4.45-.62,6.57-3.83,1.05-6.72,4.19-8.95,7.48a44.92,44.92,0,0,0-6.28,13.95c-1.46,5.73-1.84,11.88-4.83,17-3.25,5.57-9.34,9.37-11.45,15.47l3.63.1c-.2,2.18-1.83,4-3.62,5.23s-3.81,2.19-5.44,3.65a1.75,1.75,0,0,0-.72,1.13,2,2,0,0,0,.54,1.24l7.89,10.29a6.86,6.86,0,0,0,2,2,4.65,4.65,0,0,0,2.66.42c4.68-.44,17.55-7,19.94-11.09,11-18.67,9.59-36.67,20.68-55.31a30.54,30.54,0,0,1,5.15-6.93c2.7-2.5,6.12-3.95,9.45-5.41,2.64-1.15,7-2.19,7.59-5.19C283.72,211.89,281,186.59,279.59,186.65Z" style="fill:#342f31"/><path d="M227.32,365.45c1.34,28.79,41.45,30.12,36.83,42.12-1.24,3.21-2.65,6.45-5,9s-5.88,4.18-9.25,3.5c-2.21-.45-4.22-1.85-6.47-1.86-3.67,0-6.41,3.87-6.39,7.54s8.67,10.17,11.12,11a10.49,10.49,0,0,0,5.25,0c5.64-1.17,10.59-4.48,15.11-8,15.74-12.35,17.08-21.87,17.73-26.37,1-7.09-23.73-46.78-33.47-48.21C243.45,352.7,227,358.35,227.32,365.45Z" style="fill:#ddc2a5"/><path d="M238.48,276.93c2.6-.19,6.16,5.6,5.72,8.17s-7.36,1.6-9.66,2.84-4.84,2-7.12,3.22c-4.64,2.55-7.85,7.2-9.63,12.19s-2.26,10.33-2.53,15.62c-.92,17.46.14,35.54-6.29,51.79-1.47,3.72-3.33,7.32-4.08,11.25-1,5.22,0,10.58.35,15.88.79,13.44-3.06,26.67-4.53,40a115,115,0,0,0-.51,18.74,8.89,8.89,0,0,0,1,4.36c.95,1.49,2.64,2.29,4.25,3a27.81,27.81,0,0,0,8.65,2.83c3,.29,6.35-.57,8.26-2.95,2.72-3.39,1.53-8.8-1.73-11.68-1.28-1.14-2.86-2-3.72-3.51a7.92,7.92,0,0,1-.87-3.33c-.66-7.36,1.73-14.64,4.36-21.55a273.12,273.12,0,0,1,14.61-31.95c2.24-4.15,4.62-8.36,5.36-13s-.13-9.29,1.32-13.64a9.42,9.42,0,0,0,3.59,7.95,10,10,0,0,0,4.54-7.67L253,372.7a62,62,0,0,0,7.06-8.87l.15,9c4.87-5.2,7.68-11.95,10.39-18.54,3-7.21,6-14.57,6.57-22.34.26-3.36.07-6.82,1.18-10s3.4-5.82,4.72-8.91a26.8,26.8,0,0,0,1.73-9.19,85.9,85.9,0,0,0-1.44-20.56c-.57-3-1.34-6-3.12-8.44-3-4.12-8.34-5.8-13.38-6.6-7.63-1.21-15.6-.94-22.84,1.76S238.48,276.93,238.48,276.93Z" style="fill:#f1dfd0"/><path d="M291.37,276.11,290,290.2l-2.18.19s.2,14.09-.59,16.07-3.37-3.37-3.37-3.37,1.19,10.51,1.58,18.65l-4.56-3.18s-.6,18.25-2.78,24.6L274.91,339s2.18,9.13-4.56,20.44L268,354.27l3.37-8.33,1.78,2s1-8.13-.59-12.3l4.16.2s1.39-10.31-4-14.48l5.35,3.17s0-9.32-3.17-13.68l-3.18-4.37s7.15,3.77,8.73,6.75c0,0,1-7.54-2.58-12.3l3.38.79s.39-8.53-3.18-15.08S291.37,276.11,291.37,276.11Z" style="fill:#ecd1bb"/><path d="M299.73,229.72c.61-5.05-2.13-10-6-13.41s-8.6-5.38-13.3-7.3l-1.21-14.32c-2.7.35-4.5,2.95-5.62,5.43s-2,5.26-4.26,6.85a6.36,6.36,0,0,0-1.45,1.17c-1.22,1.6.13,4.39-1.41,5.7a10.91,10.91,0,0,0-15.2,10.86,7.61,7.61,0,0,1-.09,3.62c-.65,1.55-2.45,2.19-4,3a14,14,0,0,0-7.2,9.2l5.84-.55a57.29,57.29,0,0,0-10.09,12c-.61,1-1.19,2.19-.6,3.15s1.88,1,2.94.78a7.68,7.68,0,0,1,3.19-.45c1,1.14-.47,2.75-1.7,3.65a20.2,20.2,0,0,0-7.6,11.58c6.36-.13,12.55,3,18.87,2.28,3-.36,5.89-1.59,8.88-1.31,2.36.22,5.07,1.28,6.87-.25,2-1.74.88-5.14-.93-7.11s-4.24-3.73-4.63-6.38a12.11,12.11,0,0,0,5.82,1.73l-6.08-11.71a8,8,0,0,0,3.35.6,2.7,2.7,0,0,0,2.45-2c.12-.89-.36-1.87.06-2.66s1.76-.93,2.79-1c4-.44,6.85-4.25,8.42-8s2.51-7.9,5.21-10.95c.7,1.57,1.86,4,3.43,4.67,5,2.22,10.05,4.23,13.05,8.84a6.14,6.14,0,0,0,.52-3.43" style="fill:#424548"/><path d="M123.29,397a105.13,105.13,0,0,1-25.38,16.81Q90.85,396.58,84.85,379a18.19,18.19,0,0,1-1.3-5.84,13.74,13.74,0,0,1,1.92-6.47c6.08-11.13,19.52-16.12,32.13-17.44,11.31-1.18,32.76.42,30.58,16.59-.87,6.45-4.54,12.95-7.66,18.54-2.35,4.24-4.86,3.57-8.87,5.86C128.55,392,125.93,394.59,123.29,397Z" style="fill:#ddc2a5"/><path d="M215.25,388.83a67.36,67.36,0,0,1-39.5,3.67l1.42-1.37a94.74,94.74,0,0,1-18.75,0l3.06-2.09a35.65,35.65,0,0,1-11.87-4.46l2.07-.62-27.06-10.2c-4.9-1.84-10-3.86-13.31-8-4.33-5.39-4.31-13-4.09-19.87a13.93,13.93,0,0,1,1.14-6.15,11.31,11.31,0,0,1,4.19-4c6.77-4.23,14.91-5.6,22.86-6.2,11.49-.85,23-.26,34.54.45,8.79.54,17.75,1.2,25.87,4.6,11.46,4.81,19.8,14.77,24.81,25.92,2.23,5,5.37,12,5.13,17.56S220,386.87,215.25,388.83Z" style="fill:#ddc2a5"/><path d="M42.52,311.54l.73-4.43A30.23,30.23,0,0,1,24,302.16l2.08-5.31a22.74,22.74,0,0,1-14.25-8.94L16,286.6A27.38,27.38,0,0,1,1.72,273.1a8.33,8.33,0,0,1,6.19.69,35.45,35.45,0,0,1-7.91-15l10,5a31.76,31.76,0,0,1-2.81-16.3,73.11,73.11,0,0,1,6.58,10.36,26.91,26.91,0,0,1,5.39-8.11,87.49,87.49,0,0,0,4,9.48,20.52,20.52,0,0,1,6.1-4.65,44.16,44.16,0,0,0,9.56,27,58.13,58.13,0,0,0,23.1,17.38c5.72,2.47,19.51,9.66,9,15.78C62.53,319.64,50.31,315.84,42.52,311.54Z" style="fill:#f1dfd0"/><path d="M47.22,306.27l4.16-3.7a49.52,49.52,0,0,1-17-.9,13.34,13.34,0,0,1,4.31-4.77A27.51,27.51,0,0,1,23.28,288l7.11-1a26.39,26.39,0,0,1-12.76-14.43,29.32,29.32,0,0,1,11.53,6.23,42.11,42.11,0,0,1-9-16.83,47.19,47.19,0,0,1,11.7,10.67l1.89-3.42c5,7.66,10.16,15.56,17.89,20.43,7.37,4.64,16.26,6,24.6,8.54,4.1,1.24,19.24,5.19,20.9,9.49,1.52,3.94-6.83,4.06-9.55,4.1C74.88,312,58.44,313.13,47.22,306.27Z" style="fill:#342f31"/><path d="M212,312c3.77,2.56,4.31,7.79,4.47,12.34q.93,27.85.53,55.73a13.85,13.85,0,0,1-1,6c-.91,1.84-3,3.28-5,2.82-4.25-1-3.77-8.48-7.93-9.8a38.15,38.15,0,0,1-1-11.12l-3.84,1.83a13.42,13.42,0,0,1,2.2-9.21,158.18,158.18,0,0,0-15.8,2c-.12,0,0-16.67.21-18.22.62-5.86,1.88-12.26,5.21-17.25C194.16,320.89,202.8,305.74,212,312Z" style="fill:#342f31"/><path d="M221.85,272.52a29,29,0,0,1-19.13,18,4.51,4.51,0,0,1,3.69,1.68,47.87,47.87,0,0,1-16.18,1l1.83,2.91a104.45,104.45,0,0,1-33.19-2.68l.16,3.39a226.81,226.81,0,0,0-24.07-5c1.1.95.4,2.94-.9,3.59a7.3,7.3,0,0,1-4.3.2,63,63,0,0,0-13.24-.47,6,6,0,0,0-3.78,1.2,6.29,6.29,0,0,0-1.48,3.58c-.51,2.82-1,5.72-.44,8.52.87,4.19,4.13,7.58,7.92,9.56s8.08,2.75,12.32,3.32c15.25,2,30.7,1.8,46.07,1.29,8.41-.28,16.87-.64,25.08-2.51,7.31-1.67,14.65-4.74,19.43-10.52,2.33-2.82,4-6.15,5.73-9.35,3.53-6.32,16.11-11.11,17.43-18.23,1.18-6.37-8-20.84-13.72-25.21C224,251.49,223.27,268.47,221.85,272.52Z" style="fill:#342f31"/><path d="M124.43,347.91c-3.79,3.52-6.11,8.29-8.8,12.71-6.76,11.13-16.13,20.4-25.39,29.56-5.56,5.49-11.71,11.28-19.46,12.31a31,31,0,0,0-3.2-9.66l-2.48,1.81c-1-6.36,2.59-12.51,3.38-18.9.74-6-1.06-12-1.94-18a59.76,59.76,0,0,1,6-35.75,39.14,39.14,0,0,1,9.37-12.29c9.9-8.3,24-9.14,36.86-8.45,5.13.28,10.32.75,15.14,2.52a45.31,45.31,0,0,1,13,8c4.54,3.73,8.88,8.07,10.84,13.6a15.75,15.75,0,0,1-.17,11.21c-2.11,4.92-4.3,4.35-9,4.32C140.12,340.81,130.87,341.94,124.43,347.91Z" style="fill:#342f31"/><path d="M138.68,362c0,2.09-.05,4.34,1.14,6.05s3.22,2.38,5.15,3l15.19,4.82-1.1,3.39c1.94.89,4.19.39,6.31.19s4.63.11,5.74,1.93c.64,1.07.93,2.69,2.17,2.82a2.68,2.68,0,0,0,1.43-.43A25.39,25.39,0,0,1,185.09,381c4.67-.22,9.62.81,13.85-1.19a21.42,21.42,0,0,1-2.5-9.91,21.86,21.86,0,0,1-4.13,5.16,16.69,16.69,0,0,1,3.45-11,62.72,62.72,0,0,0-7.83,2.19c3.45-4.63,7.07-9.81,6.69-15.58a15.77,15.77,0,0,0-2.4-7.07c-2.54-4.17-6.41-7.34-10.21-10.42A75.12,75.12,0,0,0,170.57,325c-6.82-3.68-14.59-5.17-22.28-6.2-6.16-.82-12.65-1.34-18.4,1a15.32,15.32,0,0,0-8.88,9.33c-1.48,5,1.5,5.93,5,8.58A32.12,32.12,0,0,1,138.68,362Z" style="fill:#f1dfd0"/><path d="M239.76,269.42s13,12.72,15.44,19.38,3.33,10-.3,8.48-7.57-2.73-7.87.9,2.72,17.57,3.33,26.95,2.12,17,1.21,24.83L248.24,346a20.37,20.37,0,0,1-1.82,7.27,13.88,13.88,0,0,0-3.93-6.36s-3,20.59-8,31.19-17.12,28.46-17.12,28.46-2.72-11.2-5.45-15.14-2.42-9.69-1.21-13.63l-4.54,1.82s1.82-21.5,4.54-26.95l-4.24.61s-.3-4.84,4.55-9.08l-5.76.6s.91-7.26,4.85-11.2l-4.85.91s1.52-12.42,5.76-19.08c0,0-9.09,6.36-9.69,15.75s-1.21,17.86-2.12,20.89-16.35,3.33-16.35,3.33a27.28,27.28,0,0,0,5.15-4.85l-2.12,2.73A144.23,144.23,0,0,1,165,356l6.36-6.66s-10.9,6.36-18.77,7.27c0,0-.91-4.24,4.85-7.27,0,0-13.33,6.66-17.26,7l-3.94.3s3-7,6.36-9.08h-6.06l5.15-8.18s-7.57,3-20,2.12c0,0-13,6.36-14.54,12.72s-8.47,15.14-13.62,17.26l-1.21-9.69s-2.73,13.62-8.18,18.16A61.64,61.64,0,0,1,76,386s-2.73-11.81-.3-21.8H72.33s4.23-17.26,8.47-22.71L85,336s-6.05,1.82-8.17,5.15l-2.12,3.33s5.75-16.05,10-21.2L89,318.17s-3.33,2.42-6.36,1.81c0,0,3.94-10.29,10.9-11.5a70.46,70.46,0,0,1,8.48-1.21l-3-3s9.69-5.15,15.14-1.21l2.42-4.54a53.53,53.53,0,0,1,19.68,1.81l-2.12-3s19.38-1.21,32.4,2.72,30-1.21,36.94-3.93a56.63,56.63,0,0,0,12.71-7.27l-6.35,9.69s8.47-6.06,11.2-7.57,3.63,2.42,3.63,2.42l4.85-7.87a8.18,8.18,0,0,1,8.17-1.21l4.85,1.81s-8-6.35-8-9.08S228.56,270.93,239.76,269.42Z" style="fill:#424548"/><path d="M111.44,387.64l.83,5.86c2-3.54,4-7.09,6.33-10.43,2.1-3,4.49-5.86,5.82-9.27a32.5,32.5,0,0,0,1.67-9.71q.43-6.57.65-13.15c.05-1.69-.22-3.86-1.85-4.33-1.35-.38-2.62.73-3.59,1.75a92.42,92.42,0,0,0-10.55,12.51c-5,7.55-8.17,17-16,21.51a8.41,8.41,0,0,0,.5-3.62,41.32,41.32,0,0,0-7.59,7.87,5.78,5.78,0,0,0-.85-2.95l-8,11-2.75-2-12.3,6.19a4,4,0,0,0-2.23,2c-.46,1.4.71,2.74,1.39,4.05,1.26,2.4.93,5.28.63,8q-1.05,9.23-1.2,18.52c-.12,7.4.46,15.51,5.53,20.9,4.88,5.19,12.82,6.56,17.75,11.71a3.18,3.18,0,0,0,1.84,1.24,2.7,2.7,0,0,0,1.44-.42,20,20,0,0,0,3.31-2.15,10.3,10.3,0,0,0,4-6.15c.37-2.49-1-5.34-3.47-5.93-1.41-.34-2.9.09-4.34-.1-2.6-.36-4.56-2.74-5.25-5.28s-.35-5.23,0-7.84l1.53-11.93a49.88,49.88,0,0,1,2.46-11.63c2-5.1,6.19-8.88,10.28-12.32A112,112,0,0,0,111.44,387.64Z" style="fill:#f1dfd0"/><path d="M136.2,385.79c-5.44,9.77-17.68,14.86-21.55,25.35-1.43,3.9-1.53,8.16-1.43,12.32.14,5.12.72,10.64,4.14,14.46,3,3.32,8.06,5.53,8.3,10a6.72,6.72,0,0,1-3.61,5.95,11.75,11.75,0,0,1-7.14,1.09c-10.23-1.24-18.26-12-16.56-22.15l-2.88,1.81c1.44-.9.77-16.6,1.84-19.34,1.71-4.36,6.13-8.25,9.49-11.46A81.1,81.1,0,0,1,136.2,385.79Z" style="fill:#e9d8cf"/><path d="M253.68,196.65c-.34-.64-.8-1.37-1.53-1.45-1.21-.14-1.74,1.48-1.82,2.69a254.1,254.1,0,0,0-.28,28.28c1.42.42,2.42-1.37,2.73-2.82s1-3.28,2.45-3.22c.7,0,1.46.53,2,.14,1.45-1,.19-3.46,2.28-4.66,2.3-1.32,3.54-.48,2.28-3.57C259.68,206.76,256.37,201.69,253.68,196.65Z" style="fill:#f1dfd0"/><path d="M273.65,198.41a26.19,26.19,0,0,1,3.59-6.88,1.46,1.46,0,0,1,2.52.53,43.69,43.69,0,0,1,1.43,17.36c0,.19-.08.41-.27.46a.47.47,0,0,1-.28,0,21.63,21.63,0,0,0-5.12-1.3c-1-.13-4.33.39-5-.3C269.18,206.89,273,200.09,273.65,198.41Z" style="fill:#f1dfd0"/><path d="M264.24,277.3a1,1,0,0,1-.28.84,1.11,1.11,0,0,1-1,0L258,276.59c2,2.69,4,5.88,3.2,9.1a8.07,8.07,0,0,0-4.94-.91,15.41,15.41,0,0,1,.59,9.3c-2.07-.4-3.56-2.15-4.87-3.8l-6.73-8.43a14.89,14.89,0,0,1-2.83-4.59,5,5,0,0,1,.95-5.06c1.23-1.2,3.08-1.39,4.79-1.58,3-.35,7.85-2.55,10.74-1.72S264.25,274.49,264.24,277.3Z" style="fill:#424548"/><ellipse cx="290.64" cy="240.49" rx="4.37" ry="5.48" transform="translate(-85.46 211.18) rotate(-35.15)"/><circle cx="287.8" cy="239.39" r="1.32" style="fill:#fff"/><path d="M321.06,241.11a2.94,2.94,0,0,0-1.24.54c-1.14,1-.63,2.85-1.24,4.21-.19.43-.5.92-.28,1.34a1,1,0,0,0,.37.35c1.45.91,3.61.46,4.75,1.73.23.25.4.55.62.81a2.68,2.68,0,0,0,1.68.81,4,4,0,0,0,3.89-2.34C332.17,243.12,325.47,240.08,321.06,241.11Z" style="fill:#181515"/></svg>