<svg id="Capa_1" data-name="Capa 1" xmlns="http://www.w3.org/2000/svg" viewBox="0 0 518 636"><path d="M226.87,390c13,0,65.06,36.87,65.06,99.75s-39,78.07-69.39,78.07S153.15,544,153.15,491.9,196.52,390,226.87,390Z" style="fill:#efb083"/><path d="M282.38,444.85c-3.64,19.13-12.58,36.8-25.15,53.56-21.68,21.68-56.38,30.36-82.4,10.84-11.29-9-16.7-21-20.21-34.08a99.56,99.56,0,0,0-1.47,16.73c0,52.05,39,75.9,69.39,75.9s69.39-15.18,69.39-78.07A109.61,109.61,0,0,0,282.38,444.85Z" style="fill:#ea965a"/><circle cx="257.23" cy="422.51" r="2.17" style="fill:#ba540a"/><circle cx="242.05" cy="420.34" r="4.34" style="fill:#ba540a"/><circle cx="255.45" cy="435.52" r="3.56" style="fill:#ba540a"/><circle cx="251.12" cy="461.54" r="3.56" style="fill:#ba540a"/><circle cx="239.89" cy="405.16" r="2.17" style="fill:#ba540a"/><path d="M305.52,509a3,3,0,0,1-1.74-5.42c9.33-6.66,25.68-6.69,32.78-6.35l-1.44-32.42a3,3,0,0,1,2.85-3.11,3,3,0,0,1,3.12,2.85l1.58,35.77a2.94,2.94,0,0,1-.93,2.3,3,3,0,0,1-2.35.8c-.23,0-22.08-2.17-32.14,5A3,3,0,0,1,305.52,509Z" style="fill:#e4472e"/><path d="M381,524.09a3,3,0,0,1-2.41-1.22c-6.67-9.08-30.92-17.19-39.7-19.55a3,3,0,0,1-1.05-5.25c10.73-8.25,44.23-16.11,45.65-16.43a3,3,0,1,1,1.36,5.81c-.29.07-24.64,5.78-37.79,12.09,10.29,3.32,29.54,10.53,36.34,19.8a3,3,0,0,1-2.4,4.75Z" style="fill:#e4472e"/><path d="M393,507.4a3,3,0,0,1-.73-.09c-.37-.09-37.42-9.25-51.5-4.07a3,3,0,1,1-2.06-5.6c15.78-5.82,53.42,3.47,55,3.88a3,3,0,0,1-.72,5.88Z" style="fill:#e4472e"/><path d="M305.52,509a3,3,0,0,1-1.74-5.42c9.33-6.66,25.68-6.69,32.78-6.35l-1.44-32.42a3,3,0,0,1,2.85-3.11,3,3,0,0,1,3.12,2.85l1.58,35.77a2.94,2.94,0,0,1-.93,2.3,3,3,0,0,1-2.35.8c-.23,0-22.08-2.17-32.14,5A3,3,0,0,1,305.52,509Z" style="fill:#e4472e"/><path d="M381,524.09a3,3,0,0,1-2.41-1.22c-6.67-9.08-30.92-17.19-39.7-19.55a3,3,0,0,1-1.05-5.25c10.73-8.25,44.23-16.11,45.65-16.43a3,3,0,1,1,1.36,5.81c-.29.07-24.64,5.78-37.79,12.09,10.29,3.32,29.54,10.53,36.34,19.8a3,3,0,0,1-2.4,4.75Z" style="fill:#e4472e"/><path d="M393,507.4a3,3,0,0,1-.73-.09c-.37-.09-37.42-9.25-51.5-4.07a3,3,0,1,1-2.06-5.6c15.78-5.82,53.42,3.47,55,3.88a3,3,0,0,1-.72,5.88Z" style="fill:#e4472e"/><path d="M310.28,448.78s16.69,15.1,27.82,15.89,44.51-33.38,48.49-66l-56.68-14L282.53,412.6Z" style="fill:#ccc"/><path d="M244.15,557.65a3,3,0,0,1-2.76-1.85c-6.18-15-23.86-32.61-24-32.78a3,3,0,0,1-.87-2.37l4.92-58.85a3,3,0,1,1,5.95.5l-4.8,57.48c4,4.07,18.53,19.6,24.36,33.74a3,3,0,0,1-1.62,3.9A2.87,2.87,0,0,1,244.15,557.65Z" style="fill:#e4472e"/><path d="M252,540.81a3,3,0,0,1-1.38-.34l-32.26-16.81c-2.64-.82-27.82-8.4-43.13-3a3,3,0,0,1-2-5.64c18-6.34,46,2.66,47.18,3a2.62,2.62,0,0,1,.46.19l32.49,16.92a3,3,0,0,1-1.38,5.64Z" style="fill:#e4472e"/><path d="M219.46,523.88a3,3,0,0,1-.89-5.83c.71-.23,17.54-5.43,30.31-6.2a3,3,0,1,1,.35,6c-12,.73-28.72,5.89-28.89,5.94A3,3,0,0,1,219.46,523.88Z" style="fill:#e4472e"/><path d="M169.3,399.14s9.56,58.54,55.56,62.72c0,0,44.06-4.82,56.51-53C245.5,411.18,169.3,399.14,169.3,399.14Z" style="fill:#e6e6e6"/><path d="M29.62,228.52c1.19-13.14,21.51,2.39,27.48-8.36,8.36-13.14-14.34-29.87-1.2-41.82,6-4.78,16.73,1.2,25.09,4.78,3.59,1.2,6-2.39,9.56-2.39-2.39-10.75-8.36-21.5-1.19-29.87,7.11-8.54,17.25-12.54,27.85-12.94L94.43,117.35C78.49,103,54,119.73,61.62,139.8l2.87,7.51-12.41-5.18c-18.33-7.65-35.7,12.69-25.28,29.6l17.69,28.68L28.6,194.25C11,187.46-5.59,206,3.07,222.72c7.45,14.41,16.48,31,26.7,48A266.72,266.72,0,0,1,29.62,228.52Z" style="fill:#ccc"/><path d="M470.63,245.23l-2.76-13.11,1.07.1-10.18-12.09a10.71,10.71,0,0,0-16.18-.24l-4.12,4.61a16.41,16.41,0,0,1-27.94-6.16l-1.16-3.85a10.72,10.72,0,0,0-13.73-7l-28.21,9.66a16.41,16.41,0,0,1-21.15-11.23l-5-18.5a10.72,10.72,0,0,0-12-7.78l-23,3.63s-15.22,20.4-64.46,20.73-91-35.63-101.71-45.35c-2.79-2.54-11.52-10.43-22.89-20.71-10.6.4-20.74,4.4-27.85,12.94-7.17,8.37-1.2,19.12,1.19,29.87-3.58,0-6,3.59-9.56,2.39-8.36-3.58-19.11-9.56-25.09-4.78-13.14,11.95,9.56,28.68,1.2,41.82-6,10.75-26.29-4.78-27.48,8.36a266.72,266.72,0,0,0,.15,42.21C59.41,320.16,99,373.5,139,389.34l63.66,25.24c7,2.79,26.56,5.93,33.17,6,29.42.48,58.64-1.7,87.93-3.57l0-.12s80-10.34,116.54-57.92S473.38,258.33,470.63,245.23Z" style="fill:#e6e6e6"/><path d="M411.94,172.37c-14.33-6-35.84,11.95-50.18-3.59-8-8-15.54-21.62-24.34-31.82-7.07,10.9-13.45,19.93-17.22,23.94-10.36,11-14.57,14.9-13.93,22.35l23-3.63a10.72,10.72,0,0,1,12,7.78l5,18.5a16.41,16.41,0,0,0,21.15,11.23l28.21-9.66a10.72,10.72,0,0,1,13.73,7l1.16,3.85a16.41,16.41,0,0,0,27.94,6.16l4.12-4.61a10.71,10.71,0,0,1,16.18.24l10.18,12.09,5.3.47s-11.12-30.9-14-51.67C442,191,427.47,180.13,411.94,172.37Z" style="fill:#ccc"/><path d="M512.46,85.33,479.94,73c-2.9,3.27-26.28,25.09-26.28,25.09s-2.39,19.11,8.17,30.32l35,1.93c-.64-2.68-20.34-32.26-20.34-32.26Z" style="fill:#ff8600"/><path d="M460.43,164.41l.07-.17s3.22,7.31,10.54,8.41,18.94-1.42,18.81-10.52-5.86-11.72-8.52-15.59c-1.77-2.58-14.25-16.63-14.55-18.4l-4.25,12.93A40.78,40.78,0,0,0,460.43,164.41Z" style="fill:#e01b22"/><path d="M466.77,50.2c2.29-2.38,5.21-6.05,5.81-9.82,1-6.38-.77-17.34-9.69-20.66s-14.28,1.53-14.28,1.53S447.59.34,434.84.09,418.26,13.6,418.26,13.6a14.76,14.76,0,0,0-16.83-5.1c-11,3.57-12.75,12.5-11.73,16.32,0,0-12,.26-13,13.26-.89,11.41,6.44,14.18,8.26,14.7C408.65,33,442,33.72,466.77,50.2Z" style="fill:#e01b22"/><path d="M466.3,48.1s-10.25-13.36-37.73-13.36S387.75,48.1,387.75,48.1s-7.65,9.43-17.34,31.11c-6.17,13.8-20.63,38.66-33,57.75,8.8,10.2,16.3,23.78,24.34,31.82,14.34,15.54,35.85-2.39,50.18,3.59,15.53,7.76,30,18.6,48.27,8.65-.16-1.13-.29-2.24-.4-3.3-2-19.62,6.57-47.65,7-49.79-3.58-3.59-7.17-17.92-6-29.87C465.6,88.5,479.94,73,479.94,73A60.59,60.59,0,0,0,466.3,48.1Z" style="fill:#f2f2f2"/><circle cx="441.72" cy="65.87" r="16.36" style="fill:#1d1d1b"/><circle cx="444.57" cy="63.07" r="6.07" style="fill:#fff"/><path d="M376.81,260.39c2.28,31.46-20.1,62.92-47.3,79.24-43,25.09-102.75,46.6-142.18,11.95-6-4.78,6-14.33,4.78-22.7C189.72,316.93,176.58,316.93,167,311c-4.78-3.58,2.39-7.17,4.78-9.56,9.55-4.78,25.09,1.2,27.48-8.36,2.39-10.75-4.78-21.51,6-27.48,10.75-7.17,21.51-9.56,29.87-19.12a21.15,21.15,0,0,0,4.09-7.9c-13.85,2.1-23.2,3.85-23.2,3.85-14.42,1-33.78.69-51.14,0-13.84-.51-20.64,16.64-10.22,25.76l16.53,14.47-27.39,1.86c-13.6.93-18.73,18.26-7.82,26.43l26.1,19.58-9.89.5c-14.18.72-19.23,19.15-7.36,27,12.7,8.35,30.6,17.44,55.24,25,64.58,19.76,184.2-44.21,195.35-77.65C400.35,290.48,391.6,274,376.81,260.39Z" style="fill:#ccc"/><path d="M205.25,265.56c-10.75,6-3.58,16.73-6,27.48-2.39,9.56-17.93,3.58-27.48,8.36-2.39,2.39-9.56,6-4.78,9.56,9.56,6,22.7,6,25.09,17.92,1.19,8.37-10.76,17.92-4.78,22.7,39.43,34.65,99.16,13.14,142.18-11.95,27.2-16.32,49.58-47.78,47.3-79.24-18.58-17.11-46.69-29.72-69.2-28.95-23.15.8-49.83,4.27-68.4,7.1a21.15,21.15,0,0,1-4.09,7.9C226.76,256,216,258.39,205.25,265.56Z" style="fill:#f2f2f2"/><path d="M237.49,219.34h-.06q-6.59-.14-13.93-.51c-3.41-.18-6.84-.45-10.18-.81a3,3,0,0,1-2.65-3.29,3,3,0,0,1,3.29-2.65c3.23.35,6.55.61,9.84.78,4.85.25,9.42.42,13.75.51a3,3,0,0,1-.06,6Zm35.77-1.29a3,3,0,0,1-.33-6,113,113,0,0,0,22.73-4.64,3,3,0,1,1,1.89,5.67,119.29,119.29,0,0,1-24,4.91Zm-94.54-7.66a3,3,0,0,1-1-.16,156.48,156.48,0,0,1-22.36-9.6,3,3,0,1,1,2.78-5.28,151.4,151.4,0,0,0,21.51,9.23,3,3,0,0,1-1,5.81Zm-51.37-29.75a3,3,0,0,1-2-.76c-11.11-9.91-16.47-17.79-16.69-18.12a3,3,0,1,1,5-3.34c0,.07,5.21,7.64,15.72,17a3,3,0,0,1-2,5.21Z" style="fill:#b3b3b3"/><path d="M230.52,352.6a49.8,49.8,0,0,1-7.79-.55,3,3,0,1,1,.93-5.9,63.48,63.48,0,0,0,17.12-.22,3,3,0,0,1,.74,5.93A88.77,88.77,0,0,1,230.52,352.6Zm45.41-9.21a3,3,0,0,1-1-5.81,223.4,223.4,0,0,0,21.85-8.87,3,3,0,0,1,2.54,5.41,227.93,227.93,0,0,1-22.44,9.1A3,3,0,0,1,275.93,343.39Zm53-27.17a3,3,0,0,1-1.79-5.38c2.62-1.95,5.12-4,7.43-6a89.23,89.23,0,0,0,9.51-9.75,3,3,0,0,1,4.59,3.83,96.74,96.74,0,0,1-10.15,10.41c-2.44,2.14-5.06,4.26-7.81,6.31A3,3,0,0,1,328.92,316.22Zm34.37-47.57a3,3,0,0,1-2.86-3.87,78.57,78.57,0,0,0,3.68-22.06v-.48a3,3,0,0,1,6-.23v.71a85.43,85.43,0,0,1-3.94,23.82A3,3,0,0,1,363.29,268.65Z" style="fill:#ccc"/><path d="M210.34,296.45c-2.5,0-4.58-.05-6.24-.11a3,3,0,0,1,.22-6c1.61.06,3.61.1,6,.1,5.37,0,11.28-.22,17.55-.65a2.91,2.91,0,0,1,3.18,2.77,3,3,0,0,1-2.77,3.18C221.89,296.22,215.85,296.44,210.34,296.45Zm53.33-4.82a3,3,0,0,1-.46-5.94l4.06-.66a82.86,82.86,0,0,0,18.29-5.22,3,3,0,1,1,2.3,5.52,89,89,0,0,1-19.6,5.59l-4.11.67A3.88,3.88,0,0,1,263.67,291.63Zm52-26.65a3,3,0,0,1-2.22-5,72,72,0,0,0,12.64-19,3,3,0,1,1,5.54,2.22c-.16.41-4.08,10-13.75,20.75A2.94,2.94,0,0,1,315.7,265Z" style="fill:#ccc"/><path d="M146.81,233.33a3,3,0,0,1-1.52-.41c-6.81-4-13.63-8.44-20.26-13.12a3,3,0,1,1,3.44-4.88c6.51,4.58,13.19,8.91,19.86,12.85a3,3,0,0,1-1.52,5.56ZM98.69,198.05a3,3,0,0,1-2-.75,221.48,221.48,0,0,1-17.34-17,3,3,0,1,1,4.48-3.95,224.23,224.23,0,0,0,16.84,16.47,3,3,0,0,1-2,5.21Z" style="fill:#b3b3b3"/><path d="M280,410.91h0c-7.88-.12-16-.5-24.06-1.13a3,3,0,1,1,.47-6c8,.62,15.93,1,23.68,1.12a3,3,0,0,1-.05,6Zm35.78-1.53a3,3,0,0,1-.33-5.95,147.59,147.59,0,0,0,23-4.29,3,3,0,1,1,1.62,5.75,152.85,152.85,0,0,1-23.94,4.47ZM220.58,405a2.73,2.73,0,0,1-.64-.07,232.44,232.44,0,0,1-23.35-6.39,3,3,0,0,1,1.86-5.68,227.84,227.84,0,0,0,22.75,6.23,3,3,0,0,1-.62,5.91Zm152-13a3,3,0,0,1-1.28-5.69A178.94,178.94,0,0,0,391.93,375a3,3,0,0,1,3.23,5,184,184,0,0,1-21.29,11.66A2.86,2.86,0,0,1,372.61,392Zm-208.36-6.64a3,3,0,0,1-1.29-.3,235.8,235.8,0,0,1-21.28-11.51,3,3,0,0,1,3.11-5.1,233.19,233.19,0,0,0,20.75,11.23,3,3,0,0,1-1.29,5.68Zm256.63-27.83a3,3,0,0,1-2.23-5,110.15,110.15,0,0,0,13.55-18.85,3,3,0,0,1,5.19,3,116.5,116.5,0,0,1-14.28,19.87A3,3,0,0,1,420.88,357.55ZM115,352a3,3,0,0,1-2.15-.92,81.22,81.22,0,0,1-6.69-7.88c-2.31-3.13-5-7-8-11.61a3,3,0,0,1,5-3.3c3,4.49,5.61,8.31,7.86,11.36a75.56,75.56,0,0,0,6.19,7.3A3,3,0,0,1,115,352Zm333-47.05a2.85,2.85,0,0,1-.86-.13,3,3,0,0,1-2-3.72c2.36-7.84,4.32-15.54,5.84-22.88a3,3,0,0,1,3.53-2.32,3,3,0,0,1,2.32,3.53c-1.55,7.51-3.56,15.38-6,23.4A3,3,0,0,1,448.06,305ZM81.61,302.51a3,3,0,0,1-2.56-1.44c-4.1-6.82-8.23-13.82-12.21-20.64a3,3,0,0,1,5.16-3c4,6.8,8.08,13.77,12.17,20.57a3,3,0,0,1-2.56,4.52ZM51.55,250.77a3,3,0,0,1-2.61-1.52C41.87,236.75,37.2,228.3,37.2,228.3a3,3,0,1,1,5.23-2.89s4.66,8.43,11.72,20.9a3,3,0,0,1-2.6,4.46Zm406.28-4.48a3,3,0,0,1-3-2.92,42.23,42.23,0,0,0-.29-4.64,3,3,0,0,1,5.92-.84,52.48,52.48,0,0,1,.35,5.34,3,3,0,0,1-2.92,3.06Z" style="fill:#b3b3b3"/><path d="M143.18,273.14a3,3,0,0,1-1.56-.45c-5.13-3.15-10.44-6.73-15.78-10.63a3,3,0,1,1,3.52-4.82c5.21,3.8,10.39,7.29,15.39,10.36a3,3,0,0,1-1.57,5.54ZM99.89,239.88a3,3,0,0,1-2-.78c-10.54-9.61-17-16.62-17.29-16.92a3,3,0,0,1,4.4-4.05c.06.07,6.59,7.13,16.92,16.56a3,3,0,0,1-2,5.19Z" style="fill:#b3b3b3"/><path d="M329.91,387.72a3,3,0,0,1-.92-5.83c1-.33,2-.68,3-1a3,3,0,1,1,2,5.62c-1.07.38-2.14.75-3.22,1.1A2.91,2.91,0,0,1,329.91,387.72Zm34.35-18.37a3,3,0,0,1-1.83-5.35,139.92,139.92,0,0,0,17.21-15.81,3,3,0,0,1,4.38,4.06,145.72,145.72,0,0,1-17.94,16.48A3,3,0,0,1,364.26,369.35Zm38.95-44.83a3,3,0,0,1-2.55-4.53q2.38-4,4.56-8a61.58,61.58,0,0,0,5.13-12.89,3,3,0,0,1,5.76,1.6,67.64,67.64,0,0,1-5.64,14.14q-2.24,4.13-4.69,8.2A3,3,0,0,1,403.21,324.52Zm12.64-57.16a3,3,0,0,1-3-2.73,127.52,127.52,0,0,0-4.07-22.91,3,3,0,0,1,5.71-1.73,129.48,129.48,0,0,1,4.31,24.12,3,3,0,0,1-2.71,3.24Z" style="fill:#b3b3b3"/><circle cx="339.48" cy="416.85" r="38.4" style="fill:#ffdd3e"/><circle cx="324.12" cy="403.03" r="7.68"/><circle cx="325.66" cy="399.95" r="3.07" style="fill:#fff"/><circle cx="351.77" cy="403.03" r="7.68"/><circle cx="353.31" cy="399.95" r="3.07" style="fill:#fff"/><path d="M334.88,381.52a21.75,21.75,0,0,0,4.6-3.07c1.54-1.54,4.61-4.61,4.61-7.68s0-4.61-1.53-6.15-1.36-6.09,4.6-4.6c6.15,1.53,6.15,9.21,1.54,15.36C344.79,380.59,342.56,381.52,334.88,381.52Z" style="fill:#ffdd3e"/><path d="M346.63,379.56a5.2,5.2,0,0,0,4.11-1.11c1.53-1.54,4.61-4.61,3.07-7.68s1.13-4,3.07-3.07c3.07,1.53,4.61,7.68,0,10.75s-6.14,3.07-9.21,3.07S346.63,379.56,346.63,379.56Z" style="fill:#ffdd3e"/><path d="M352.52,380.85s4.17.37,6.9-.8c3.1-1.32,2.21-5.3,5.84-5.3,2.19,0,3.18,3.89-.44,7.07-2.17,1.91-7.26,2.39-10.18,1.42S352.52,380.85,352.52,380.85Z" style="fill:#ffdd3e"/><path d="M322.22,438.63s-29.51,19.93-29.51,49.06,10.35,57.1,48.67,57.1,48.29-19.55,48.29-55.19-36.41-56-36.41-56Z" style="fill:#ffdd3e"/><path d="M313.69,451.8a102.83,102.83,0,0,0-26.57-20.21c-16.35-8.62-35.66-10.21-35.66-10.21s2.27,16.8,9.77,20.21l7.49,3.4s-8.17,3.86-4.31,10,12.49,2.73,12.49,2.73-5.45,4.09-2.73,9.08,12.72,2.95,12.72,2.95-3.63,7.5,13.17,12.27S313.69,451.8,313.69,451.8Z" style="fill:#ffdd3e"/><path d="M367.1,446.35a102.83,102.83,0,0,1,26.57-20.21c16.35-8.62,35.65-10.21,35.65-10.21s-2.27,16.8-9.77,20.21l-7.49,3.4s8.18,3.86,4.32,10-12.49,2.73-12.49,2.73,5.45,4.09,2.72,9.08-12.72,3-12.72,3,3.64,7.5-13.17,12.27S367.1,446.35,367.1,446.35Z" style="fill:#ffdd3e"/><path d="M280,452.08a.69.69,0,0,1-.34-.09,6.55,6.55,0,0,1-3.49-5,6.66,6.66,0,0,1,1.46-4.91,4.28,4.28,0,0,1-1.39-3.63,9,9,0,0,1,1.84-4.13.77.77,0,0,1,1.26.88,7.62,7.62,0,0,0-1.57,3.4,2.44,2.44,0,0,0,1.35,2.57.77.77,0,0,1,.51.58.75.75,0,0,1-.25.73,4.94,4.94,0,0,0,1,8.14.78.78,0,0,1,.34,1A.79.79,0,0,1,280,452.08Z" style="fill:#fcee54"/><path d="M294.43,467.81a.91.91,0,0,1-.23,0,9.18,9.18,0,0,1-5.47-5,9.41,9.41,0,0,1-.71-6.2,4.71,4.71,0,0,1-2.2-.71,6.08,6.08,0,0,1-2.71-3.82c-.46-2.19.11-4.63,1.73-7.46a.77.77,0,0,1,1.33.76c-1.42,2.49-1.93,4.58-1.56,6.38a4.51,4.51,0,0,0,2,2.83,2.89,2.89,0,0,0,2.29.4.79.79,0,0,1,.78.23.76.76,0,0,1,.14.8,8,8,0,0,0,4.83,10.28.77.77,0,0,1,.5,1A.76.76,0,0,1,294.43,467.81Z" style="fill:#fcee54"/><path d="M302.19,468.4a4.5,4.5,0,0,1-3.1-1.31,7.26,7.26,0,0,1-1.85-4.47,8.52,8.52,0,0,1,.34-3.93l-.2,0a3,3,0,0,1-2.05-1.85,4.32,4.32,0,0,1,1.17-4.24.77.77,0,1,1,1.12,1.05,2.83,2.83,0,0,0-.84,2.68,1.47,1.47,0,0,0,1,.87.92.92,0,0,0,.82-.13.76.76,0,0,1,1.08,1.08,5.73,5.73,0,0,0-.91,4.33,6,6,0,0,0,1.42,3.57,2.54,2.54,0,0,0,3.05.55.76.76,0,0,1,1.06.2.77.77,0,0,1-.2,1.07A3.31,3.31,0,0,1,302.19,468.4Z" style="fill:#fcee54"/><path d="M377,461.39a8.14,8.14,0,0,1-6.6-3.22.77.77,0,0,1,.17-1.07.79.79,0,0,1,1.08.17,6.4,6.4,0,0,0,10.72-7,.77.77,0,0,1,1.18-1,2.72,2.72,0,0,0,2,.68,2.51,2.51,0,0,0,1.79-.86,2.38,2.38,0,0,0,.43-2,2.22,2.22,0,0,0-1.1-1.57.77.77,0,0,1-.39-.89.83.83,0,0,1,.79-.56,2.48,2.48,0,0,0,2.38-1.46.78.78,0,0,1,1-.41.76.76,0,0,1,.41,1,4,4,0,0,1-2.19,2.11,4.22,4.22,0,0,1,.61,1.46,4,4,0,0,1-.75,3.29,4.06,4.06,0,0,1-2.89,1.41,4.31,4.31,0,0,1-1.19-.08,8.3,8.3,0,0,1-3.3,8.73A7.64,7.64,0,0,1,377,461.39Z" style="fill:#fcee54"/><path d="M388.48,465.07h-.16a4.36,4.36,0,0,1-3.29-1.54.76.76,0,0,1,.11-1.08.78.78,0,0,1,1.08.11,2.83,2.83,0,0,0,2.15,1,3.57,3.57,0,0,0,2.67-1.06,4.73,4.73,0,0,0,.38-5.42.78.78,0,0,1,.06-.84.76.76,0,0,1,.78-.29,6.87,6.87,0,0,0,5.81-1.38.76.76,0,0,1,1.08.1.77.77,0,0,1-.1,1.08,8.52,8.52,0,0,1-5.72,1.89,6.16,6.16,0,0,1-1.16,5.9A5.06,5.06,0,0,1,388.48,465.07Z" style="fill:#fcee54"/><path d="M395.46,450.11a.78.78,0,0,1-.69-.43.77.77,0,0,1,.34-1,2.56,2.56,0,0,0,1.34-2.55.76.76,0,0,1,1.3-.65,3.77,3.77,0,0,0,2.64,1,4.12,4.12,0,0,0,3-1.35,5.16,5.16,0,0,0,.18-6.09.78.78,0,0,1,.52-1.19,3.57,3.57,0,0,0,2.26-5.2.77.77,0,1,1,1.27-.86,4.84,4.84,0,0,1,.29,4.63A5,5,0,0,1,405.3,439a6.67,6.67,0,0,1-.79,7.07,5.7,5.7,0,0,1-4.08,1.87,5.31,5.31,0,0,1-2.55-.53A4.13,4.13,0,0,1,395.8,450,.69.69,0,0,1,395.46,450.11Z" style="fill:#fcee54"/><path d="M337.91,414.9l12.38,10L344,433.79s-7.13,4.75-8.89,4.38-9.63-12-9.63-12-3.25-.88,1.5-5.76A19.49,19.49,0,0,1,337.91,414.9Z" style="fill:#6f3a00"/><path d="M352.64,425.23c-.94-.24-2.94-.06-3.86-.37-3.17-1.06-5.11-3-7.9-4.84a8.12,8.12,0,0,0-3.92-1.77,7.19,7.19,0,0,0-3.11.81c-2.75,1.18-5.81,3.47-8.57,4.64-.9.39-1.51-.33-2.41.06,1.46-.63,12.47-15.58,14.38-15S348.91,421.92,352.64,425.23Z" style="fill:#e7772d"/><path d="M352.64,425.23s-2.34-1.77-3.86-.37c-3.63,3.35-8.95,11.66-12.46,10.59-3.32-1-8.16-8.62-11-11.75l-2.41.06s6.74,16.67,13,17.1S351.65,426.9,352.64,425.23Z" style="fill:#e7772d"/><path d="M281.52,567.11c.43.72.88,1.44,1.35,2.15C282.4,568.55,282,567.83,281.52,567.11Z" style="fill:#ed8836"/><path d="M279.8,564.09c.46.87.95,1.73,1.46,2.6C280.75,565.82,280.26,565,279.8,564.09Z" style="fill:#ed8836"/><path d="M278.49,561.48c.38.8.77,1.59,1.19,2.39C279.26,563.07,278.87,562.28,278.49,561.48Z" style="fill:#ed8836"/><path d="M274,547.27a50.36,50.36,0,0,0,1.26,5.55A50.36,50.36,0,0,1,274,547.27Z" style="fill:#ed8836"/><path d="M283.24,569.83q1.68,2.52,3.67,5Q284.91,572.35,283.24,569.83Z" style="fill:#ed8836"/><path d="M275.24,552.9c.25.87.52,1.73.82,2.59C275.76,554.63,275.49,553.77,275.24,552.9Z" style="fill:#ed8836"/><path d="M276.14,555.75c.61,1.76,1.33,3.52,2.14,5.29C277.47,559.27,276.75,557.51,276.14,555.75Z" style="fill:#ed8836"/><path d="M385.41,586.11q2.05-1.38,4.12-2.89Q387.46,584.74,385.41,586.11Z" style="fill:#ed8836"/><path d="M299.49,587.75c.69.57,1.41,1.12,2.15,1.66C300.9,588.87,300.18,588.32,299.49,587.75Z" style="fill:#ed8836"/><path d="M349.91,600.33c1.17-.17,2.35-.37,3.54-.61C352.26,600,351.08,600.16,349.91,600.33Z" style="fill:#ed8836"/><path d="M311.58,595.2a60.63,60.63,0,0,0,5.71,2.28A60.63,60.63,0,0,1,311.58,595.2Z" style="fill:#ed8836"/><path d="M317.29,597.48c1.48.52,3,1,4.57,1.4C320.29,598.46,318.77,598,317.29,597.48Z" style="fill:#ed8836"/><path d="M301.64,589.41c.74.54,1.5,1.06,2.28,1.58C303.14,590.47,302.38,590,301.64,589.41Z" style="fill:#ed8836"/><path d="M303.92,591a59.51,59.51,0,0,0,7.66,4.21A59.51,59.51,0,0,1,303.92,591Z" style="fill:#ed8836"/><path d="M357.82,598.73c.94-.25,1.88-.51,2.82-.79C359.7,598.22,358.76,598.48,357.82,598.73Z" style="fill:#ed8836"/><path d="M344.07,601a68.59,68.59,0,0,1-22.21-2.08A68.59,68.59,0,0,0,344.07,601Z" style="fill:#ed8836"/><path d="M294.21,582.94c-.65-.64-1.29-1.29-1.91-1.94C292.92,581.65,293.56,582.3,294.21,582.94Z" style="fill:#ed8836"/><path d="M391.59,581.67c1.37-1.06,2.75-2.16,4.12-3.32C394.34,579.51,393,580.61,391.59,581.67Z" style="fill:#ed8836"/><path d="M361.69,597.62a86.13,86.13,0,0,0,12.84-5.19A86.13,86.13,0,0,1,361.69,597.62Z" style="fill:#ed8836"/><path d="M377.23,591q3.06-1.65,6.13-3.6Q380.29,589.39,377.23,591Z" style="fill:#ed8836"/><path d="M346.11,600.8q1.63-.16,3.3-.39Q347.75,600.64,346.11,600.8Z" style="fill:#ed8836"/><path d="M289.55,578q1.08,1.22,2.22,2.43Q290.63,579.23,289.55,578Z" style="fill:#ed8836"/><path d="M294.91,583.62c.83.81,1.68,1.61,2.57,2.42C296.59,585.23,295.74,584.43,294.91,583.62Z" style="fill:#ed8836"/><path d="M287.43,575.49c.55.68,1.11,1.35,1.7,2C288.54,576.84,288,576.17,287.43,575.49Z" style="fill:#ed8836"/><path d="M297.48,586q1,.87,2,1.71C298.79,587.19,298.13,586.62,297.48,586Z" style="fill:#ed8836"/><path d="M360.64,597.94l1.05-.32Z" style="fill:#e5782e"/><path d="M279.68,563.87l.12.22Z" style="fill:#e5782e"/><path d="M374.53,592.43c.9-.45,1.8-.91,2.7-1.39C376.33,591.52,375.43,592,374.53,592.43Z" style="fill:#e5782e"/><path d="M281.26,566.69c.08.14.17.28.26.42C281.43,567,281.34,566.83,281.26,566.69Z" style="fill:#e5782e"/><path d="M274,547.23v0Z" style="fill:#e5782e"/><path d="M282.87,569.26l.37.57Z" style="fill:#e5782e"/><path d="M294.91,583.62l-.7-.68Z" style="fill:#e5782e"/><path d="M289.13,577.52l.42.5Z" style="fill:#e5782e"/><path d="M276.06,555.49a2.58,2.58,0,0,0,.08.26A2.58,2.58,0,0,1,276.06,555.49Z" style="fill:#e5782e"/><path d="M344.07,601c.67,0,1.36-.1,2-.16C345.43,600.86,344.74,600.92,344.07,601Z" style="fill:#e5782e"/><path d="M275.22,552.82s0,.06,0,.08S275.23,552.85,275.22,552.82Z" style="fill:#e5782e"/><path d="M286.91,574.84c.17.22.34.44.52.65C287.25,575.28,287.08,575.06,286.91,574.84Z" style="fill:#e5782e"/><path d="M349.41,600.41l.5-.08Z" style="fill:#e5782e"/><path d="M355.37,599.32c.82-.18,1.63-.38,2.45-.59C357,598.94,356.19,599.14,355.37,599.32Z" style="fill:#e5782e"/><path d="M291.77,580.45c.17.19.36.37.53.55C292.13,580.82,291.94,580.64,291.77,580.45Z" style="fill:#e5782e"/><path d="M278.28,561l.21.44Z" style="fill:#e5782e"/><path d="M386.34,510l-6.58-12-4.61,4.49A89,89,0,0,1,371.64,534c-8.45,21-27.41,30.85-48.74,33.23-19.35,4.15-38.56-1.9-51.1-14.38,4.15,18.44,13.45,33.3,28.31,41.55l0,0a51.49,51.49,0,0,0,5.12,2.48l.08,0c.83.34,1.67.67,2.53,1l.25.09c1.76.62,3.59,1.16,5.47,1.63l.48.11c.86.2,1.73.39,2.61.56l.25.05q1.44.27,2.94.48l.49.06c.83.11,1.67.2,2.52.28l.68.07q3,.25,6.2.26h.84l2.64-.06.65,0c1.08,0,2.18-.13,3.29-.22l.76-.07c.9-.08,1.8-.18,2.71-.28l1-.12c1.16-.15,2.32-.31,3.5-.5.86-.14,1.72-.31,2.59-.5s1.75-.41,2.63-.65,1.78-.51,2.67-.8a59.74,59.74,0,0,0,8.07-3.35c1.79-.91,3.58-1.92,5.34-3q2-1.26,3.94-2.7a68.64,68.64,0,0,0,15.49-16c.39-.56.77-1.13,1.15-1.7.6-.92,1.18-1.86,1.75-2.82l.26-.44c.59-1,1.17-2.07,1.73-3.15.3-.57.6-1.16.89-1.75.36-.75.71-1.51,1.06-2.29s.78-1.77,1.15-2.69c.13-.33.27-.67.4-1a85.84,85.84,0,0,0,4-13.27c.21-1,.41-2,.6-3q.61-3.42,1-7c.09-.81.17-1.62.24-2.44.14-1.64.24-3.31.31-5,0-.85.06-1.71.08-2.58,0-1.73,0-3.5,0-5.3-.07-2.66-.22-5.39-.47-8.18l-8.18-5.56Z" style="fill:#e5782e"/><path d="M300.11,594.37c-14.86-8.25-24.16-23.11-28.31-41.55,12.54,12.48,31.75,18.53,51.1,14.38,21.33-2.38,40.29-12.22,48.74-33.23a89,89,0,0,0,3.51-31.46l-7.54,7.34L359.56,498l-9.19,11.51L344.29,502l-5.75,8.87L332,505.61,326.55,504l-7.71,11.34-12.5-18-5.91,7.39-6.57-5.25-4.27-4.76-4.6,5.75-8.05-5.08-4.33,2c-.5,2.54-1,5.13-1.41,7.79C264.88,544.4,273.77,579.76,300.11,594.37Z" style="fill:#ed8836"/><circle cx="288.33" cy="534.04" r="4.34" style="fill:#ba540a"/><circle cx="289.67" cy="518.46" r="2.17" style="fill:#ba540a"/><circle cx="278.82" cy="504.25" r="4.34" style="fill:#ba540a"/><circle cx="277.48" cy="519.83" r="2.17" style="fill:#ba540a"/><circle cx="334.41" cy="559.74" r="4.34" style="fill:#ba540a"/><circle cx="348.96" cy="551.94" r="2.17" style="fill:#ba540a"/><path d="M384.49,398.88l7.28,1.08-2,6.08-1.23,8.33,9.36,1.38-9.32,19.89,13.68.95,1.31,5.51-1.23,8.33,10.56.49L409.48,460,424,462.13,417.88,475,428,477.86a87.06,87.06,0,0,0,24.9-25.28c16.75-28.77,3.91-60.79-21.73-75.34A92.38,92.38,0,0,1,450,379c-17.62-3.65-41.2-2-69.12,7.6l3.91,2.73Z" style="fill:#ed8836"/><path d="M478,393.82c-.5-.59-1-1.17-1.6-1.74-.17-.18-.36-.35-.54-.53-.39-.38-.8-.77-1.22-1.14l-.67-.58-1.27-1-.72-.55c-.46-.34-.93-.67-1.41-1l-.71-.47c-.55-.35-1.11-.7-1.69-1l-.56-.33c-.77-.44-1.56-.87-2.38-1.27h0a55.33,55.33,0,0,0-5.56-2.39l-.12,0c-.92-.33-1.86-.65-2.83-.95l-.32-.1c-.92-.28-1.87-.55-2.83-.8l-.31-.08q-1.53-.39-3.12-.72l-.11,0a92.38,92.38,0,0,0-18.86-1.79c25.64,14.55,38.48,46.57,21.73,75.34A87.06,87.06,0,0,1,428,477.86l6.21,1.72-7.05,11.72,7.13,2.11-.69,9.87q3.54-2.5,7.12-5.37C473.06,472,493,411.37,478,393.82Z" style="fill:#e5782e"/><circle cx="432.48" cy="456.13" r="4.34" style="fill:#ba540a"/><circle cx="458.46" cy="442.18" r="2.17" style="fill:#ba540a"/><circle cx="458.66" cy="424.69" r="4.34" style="fill:#ba540a"/><circle cx="469.02" cy="412.98" r="2.17" style="fill:#ba540a"/><circle cx="467.94" cy="436.91" r="2.17" style="fill:#ba540a"/><path d="M441.88,466c0-2.19.64-5,3.09-5.34a5.17,5.17,0,0,1,3.21,1,19.13,19.13,0,0,1,6.52,6.63c-.94-1.9.41-4.41,2.67-5s4.87,1,5.15,3.06l1.94-13.62,5.66,2.82a4.27,4.27,0,0,1,1.42-6.31,5.67,5.67,0,0,1,7.07,1.61c.72-2.92.13-5.95-.09-8.93s0-6.21,2.11-8.56,6.54-3.22,8.83-1a7.36,7.36,0,0,1,1.8,4.15,154.54,154.54,0,0,1,2.82,25.88,54.16,54.16,0,0,1,6.84-14.35c1.3-1.94,3.25-4.05,5.78-3.83,3.21.27,4.38,3.85,4.52,6.7a49.79,49.79,0,0,1-5.2,24.4c2.44,2.16,3.15,5.41,3.24,8.46.42,13.89-10.44,27.45-25.39,31.71-13.2,3.76-28.53,0-38-8.84-5.07-4.7-4.26-9.09-4.2-15.35Q441.77,478.66,441.88,466Z" style="fill:#d5842b"/><path d="M179.4,529.27a24.92,24.92,0,0,1-5.62-16.95c7,.17,13.71,3.65,17.3,8.93,1.43,2.11,2.57,4.63,5.07,5.69s5.28.31,7.88-.29c6.84-1.59,14.41-2.26,20.73.55s10.42,10.13,7,15.61c-.7,1.13-1.71,2.21-1.72,3.5,0,1.67,1.64,3,3.25,3.83a28.21,28.21,0,0,0,24.46.7l-15.11-6.66c-2.13-.94-4.64-2.92-3.38-4.7.71-1,2.23-1.2,3.56-1.22,9.48-.17,18.52,3.31,27.86,4.77,15.83,2.46,32.16-1,48.14.57,1.84.18,3.8.48,5.11,1.64,1.1,1,1.54,2.43,2.59,3.47,2.62,2.56,7.35,1.4,10.94,0-3-1.25-3.11-5.39-.94-7.65s5.62-3.14,8.87-3.9l19.49-4.52c2.45-.57,5.08-1.13,7.47-.39s4.2,3.36,2.89,5.28c14.53.73,23.91-17.6,38.36-16.07a157.93,157.93,0,0,1,26.33-28.4,6.83,6.83,0,0,1,3.66-1.92,6.33,6.33,0,0,1,4.15,1.58c8.87,6.61,11.66,17.86,10.53,28.07-1.71,15.47-11.1,29.64-23.15,40.95s-26.73,20.12-41.28,28.84c-8.72,5.22-17.61,10.52-27.7,13.2-8.49,2.26-17.48,2.56-26.35,2.78-14.81.38-29.72.57-44.36-1.47-11.56-1.61-22.82-4.59-34-7.56-26.89-7.13-54-14.32-79-25.61-11.24-5.07-22.14-11-30.86-19.11-10.56-9.77-20.73-26.4-14.77-40.23,5.44-12.62,21.93-13,30.06-2.42C169.4,513.48,172.76,532.75,179.4,529.27Z" style="fill:#d5842b"/><path d="M412,560.8q-46.36,0-92.6,3.69c-23.75,1.88-47.54,4.48-71.34,3.42s-48-6.06-67.56-18.09c-13.13-8.07-24.36-20.24-25.22-34.37-.46-7.65,2.14-15.21,2.36-22.87s-2.87-16.35-10.79-19.46q-.57,11.61-.58,23.22c-8.45-6.45-10.11-18.76-3.63-26.8,1.85-2.3,4.28-4.27,5.59-6.85s1.09-6.12-1.61-7.62-7.17,1.32-5.53,3.75c-5.09-1.19-10.95,1.15-13.31,5.31A64.8,64.8,0,0,1,128,446.7l-6.88-2.55c1.06,11.67-6.31,23.61-18,29.14,1.32-3.08,2.66-6.47,1.48-9.59s-6.16-5.17-8.75-2.81c-1.47,1.35-1.55,3.43-1.48,5.3a111.85,111.85,0,0,0,9,40.16c-12.1-7.93-8.2-25.42-17-36.23-1.91-2.34-5.48-4.44-8.24-2.89-2.36,1.33-2.34,4.35-2,6.8a108,108,0,0,0,21.7,49.3c3.87,5,8.36,10.1,8.57,16.13L79.58,507a7.14,7.14,0,0,0-3-2.5c-2.59-.87-5.48,1.24-6.05,3.63S71,513,72.07,515.2a98.77,98.77,0,0,0,18.08,25.21c4.12,4.18,9,9,8,14.42-.37,2.06-1.59,4-1.83,6s1,4.61,3.41,4.73a15.38,15.38,0,0,0,7.21-8c5.28,1.54,10.83,3.24,14.46,7,5.88,6,4.85,15.28,9.23,22.24,4.22,6.69,13.72,10.4,22.15,8.66-1.26,3.07-1.17,6.82,1.31,9.23s7.7,2.46,9.43-.42c3.1-1.41,6.65,2,6.31,5.09s-2.92,5.5-5.09,7.91-4.12,5.51-3,8.43c1.58,4.12,8.51,4.7,12.43,2.06s5.55-7.09,7-11.26a36.34,36.34,0,0,0,12.32,5.13,6,6,0,0,0,3.32,0c3.75-1.4.5-6.4-3-8.24s-7.49-6.07-4.25-8.24L220,621c3.86,2,8.15,4.1,12.56,3.4.3-4.94-3.41-9.85-8.68-11.49a45.24,45.24,0,0,1,19.58-.88c1.42-1.58-.87-3.73-3-4.41-11.24-3.61-26.33,2.54-34.43-5.24a164.59,164.59,0,0,1,26.27-.7c4.36.23,8.89.69,12.61,2.72,3.19,1.75,5.49,4.51,8.26,6.75,9.42,7.6,23.24,8.66,36,9.33,12,.64,24.19,1.26,36-.92,15.67-2.9,29.62-10.57,44.72-15.26,11.36-3.53,23.46-5.42,34.05-10.47,9.61-4.57,14.71-11,18.75-19.65,1.3-2.76,4-5.58,2.75-8.67C423.52,561,416.4,560.79,412,560.8Z" style="fill:#c7701c"/><path d="M497.17,532.53a161,161,0,0,1,14.2-29.4c4.9,8.28-1.13,18.12-7,25.9,3.17-1.26,4.38-5.35,7.82-5.82s5.77,3.31,4.9,6.2-3.71,4.91-6.35,6.79a222.47,222.47,0,0,0-18,14.3c-1.24,1.1-2.58,2.5-2.19,4,.23.93,1.08,1.64,1.59,2.49,1.5,2.51-.2,5.54-2,7.87a71.64,71.64,0,0,1-25.27,20c3.51.41,4.44,5,2.25,7.49s-5.95,3.25-9.42,3.88c3,2.68,1.32,8.05-2.79,9.11s-8.74-2.42-8.42-6.19a61.41,61.41,0,0,1-30,8.25,9.62,9.62,0,0,1,.22,11.62c-4.31,1-9.27-1.78-10-5.67a81.11,81.11,0,0,1-36.18,10c-2.13.07-4.59-.07-5.87-1.57-1.52-1.81-.27-4.56,1.86-5.79s4.8-1.37,7.33-1.59a87.26,87.26,0,0,0,19.62-4c2.74-.89,5.86-3.83,3.62-5.49-7.49,1.95-14.19,5.67-21.29,8.54a97.53,97.53,0,0,1-39.54,6.9l-4.57,9.43c-.91,1.88-1.9,3.84-3.73,5.09s-4.8,1.44-6.27-.14a18,18,0,0,1,6.5-12.46,148.54,148.54,0,0,1-32.88,7c-9.37.93-19.09.94-27.95-1.91A40.22,40.22,0,0,1,249.45,616c16.35,3.16,33.43,1.13,49.73-2.22,65.88-13.53,125.61-49.2,164.42-98.19,3.83-4.84,17.61-25.5,25-18.49C497,505,496.56,522.51,497.17,532.53Z" style="fill:#c7701c"/><path d="M149,474.56c11.62,6.3,11.66,20.76,13.91,32.64a64.77,64.77,0,0,0,12.67,27.67,22.54,22.54,0,0,0,11-2.91,105.68,105.68,0,0,1-8.94-17.78L190,528.24a9.58,9.58,0,0,0,4.16,3.22c2.2.67,4.57-.12,6.78-.77,5.44-1.61,11.43-2.4,16.9-.87s10.22,5.84,10.43,10.92c-5.8-7.89-19-10.62-28.13-5.84,7.08,11.14,21.37,17.52,35.67,19.38s28.85-.17,43.12-2.19a163.55,163.55,0,0,1-37.76-12.32,379.92,379.92,0,0,0,81.52,7.78A72.88,72.88,0,0,1,282.79,561c5.93,1.29,12.14.08,18.1-1.12l45.57-9.21L338,547.23a110.58,110.58,0,0,1,17.73,1.06L336,543.63a96.8,96.8,0,0,1,34.56-8.16l-13.43,9.6c1.39,1.91,4.69,1.08,7,0l46.47-21-27.71,17.24L396,544.72a217.83,217.83,0,0,1,43.5-45.26c2.45-1.91,5-3.9,6.18-6.61a15,15,0,0,0,.9-4.83l1.65-21.6a47,47,0,0,1,7.79,24.4,34.35,34.35,0,0,0,3-23.25,55,55,0,0,1,6.65,20.54,205.61,205.61,0,0,0,.7-31.68,25.56,25.56,0,0,1,9.42,21.89l-1.39-27.08a22.77,22.77,0,0,1,6.32,9.95l1.15-22.67c.06-1.2.2-2.56,1.26-3.32,2.64-1.89,5.6,2.08,6,5.07a100.74,100.74,0,0,1-4.69,44.51c5.77-.4,7.33-7.06,8.07-12.14A56.19,56.19,0,0,1,503,447.42a4.44,4.44,0,0,1,2.48-2c2.94-.59,3.89,3.39,3.33,6a237.22,237.22,0,0,1-13.68,43.24q5.83-8.54,12.57-16.56c2.58,10.61-6.46,22.3-18.57,24,2.47,9.71,5,19.59,4.23,29.52s-5.11,20.11-14.08,26.13c-6.34-8.3-16.51-14.23-27.62-16.13,9.83,4.17,16.94,13,18.17,22.59-4.34-2.57-6.53-7.44-11.11-9.66-5.6-2.72-12.57-.54-18.11,2.26s-11.15,6.31-17.53,6.22c9.27,4.44,16.55,12,20,20.87-5.53.63-10-3.91-12.65-8.24s-5.22-9.38-10.43-11.13c-3.65-1.23-7.71-.5-11.52.24l-24.79,4.83a108.3,108.3,0,0,1,18.81,19.75c2.15,2.93,3.31,8-.49,8.92a249.89,249.89,0,0,1-21.75-25.22c-8.94,12.39-25.88,19.89-42.45,18.8a145,145,0,0,0,35.79-16.17c-6.5-.29-12.76,1.94-18.88,3.91a273.81,273.81,0,0,1-114.38,11.19c-8.08-.93-16.53-2.39-22.74-7.06l49.05,1.33-3.2-3.58a190.45,190.45,0,0,0,66.47-4.24c-24.66-5.19-50.6,4.52-75.68,1.27-6.62-.86-13.2-2.63-19.87-2.15a45,45,0,0,0-14.53,4c-18.11,7.83-33.11,21.16-41.88,37.21a4.25,4.25,0,0,1-3.31-4.91c.34-2.09,1.86-3.86,3.36-5.5a255.52,255.52,0,0,1,41.56-36.7c-4-2.69-9.65-2.67-14.32-1.09s-8.59,4.5-12.4,7.37l-34.1,25.68c-2.4-4.39,2.05-9.18,6.17-12.42q12.66-10,26-19.25a188.61,188.61,0,0,1-33-20.95l-7.46,8a8,8,0,0,1,4-7.74,8.85,8.85,0,0,1-4.13-8.11,30.12,30.12,0,0,1,8.81,3c0-17.51-21-33.44-15.78-51,1.14,1.84,3.78,9.5,6.15,9.91,3.23.56,3.64-2.84,3.66-4.61,0-3.72-2.33-8.25-3-12A81.84,81.84,0,0,1,149,474.56Z" style="fill:#f99d30"/></svg>