<svg id="Capa_1" data-name="Capa 1" xmlns="http://www.w3.org/2000/svg" xmlns:xlink="http://www.w3.org/1999/xlink" viewBox="0 0 733 346"><defs><clipPath id="clip-path"><rect x="316.06" y="184.02" width="7.87" height="8.83" style="fill:none"/></clipPath><clipPath id="clip-path-2"><path d="M316.06,188.22a4.53,4.53,0,0,0,3.91,4.63,3.88,3.88,0,0,0,3.95-4.08A4.53,4.53,0,0,0,320,184a3.88,3.88,0,0,0-3.95,4.19" style="fill:none"/></clipPath><clipPath id="clip-path-3"><rect x="315.08" y="184.03" width="9.86" height="8.8" transform="translate(100.55 488.01) rotate(-84.27)" style="fill:none"/></clipPath><clipPath id="clip-path-4"><rect x="291.12" y="171.79" width="7.87" height="8.83" style="fill:none"/></clipPath><clipPath id="clip-path-5"><path d="M291.12,176a4.52,4.52,0,0,0,3.91,4.62,3.89,3.89,0,0,0,4-4.08,4.53,4.53,0,0,0-3.92-4.73,3.88,3.88,0,0,0-3.95,4.19" style="fill:none"/></clipPath><clipPath id="clip-path-6"><rect x="290.14" y="171.8" width="9.86" height="8.8" transform="translate(90.27 452.19) rotate(-84.27)" style="fill:none"/></clipPath><clipPath id="clip-path-7"><rect x="474.07" y="189.9" width="7.91" height="8.47" style="fill:none"/></clipPath><clipPath id="clip-path-8"><path d="M474.13,194.5a4.34,4.34,0,0,0,4.52,3.86,3.7,3.7,0,0,0,3.29-4.47,4.37,4.37,0,0,0-4.53-4,3.75,3.75,0,0,0-3.28,4.58" style="fill:none"/></clipPath><clipPath id="clip-path-9"><rect x="473.78" y="189.72" width="8.46" height="8.83" style="fill:none"/></clipPath><clipPath id="clip-path-10"><rect x="501.01" y="183.55" width="7.72" height="8.72" style="fill:none"/></clipPath><clipPath id="clip-path-11"><path d="M508.72,187.89c-.15,2.25-1.72,4.36-4.08,4.37s-3.71-2-3.63-4.26a4.39,4.39,0,0,1,4.08-4.45c2.41,0,3.78,2.08,3.63,4.34" style="fill:none"/></clipPath><clipPath id="clip-path-12"><rect x="500.93" y="183.52" width="7.93" height="8.76" style="fill:none"/></clipPath><clipPath id="clip-path-13"><rect x="600.49" y="188.56" width="7.93" height="8.78" style="fill:none"/></clipPath><clipPath id="clip-path-14"><path d="M600.52,193.13a4.54,4.54,0,0,0,4.36,4.21,3.87,3.87,0,0,0,3.52-4.45,4.52,4.52,0,0,0-4.36-4.33,3.89,3.89,0,0,0-3.52,4.57" style="fill:none"/></clipPath><clipPath id="clip-path-15"><rect x="600.26" y="188.5" width="8.34" height="8.9" style="fill:none"/></clipPath><clipPath id="clip-path-16"><rect x="627.16" y="183.59" width="7.93" height="8.78" style="fill:none"/></clipPath><clipPath id="clip-path-17"><path d="M635.06,188.16a4.54,4.54,0,0,1-4.36,4.21,3.89,3.89,0,0,1-3.53-4.45,4.54,4.54,0,0,1,4.37-4.33,3.9,3.9,0,0,1,3.52,4.57" style="fill:none"/></clipPath><clipPath id="clip-path-18"><rect x="626.97" y="183.53" width="8.34" height="8.9" style="fill:none"/></clipPath></defs><path d="M296.22,161.32l-6.28,3a4.71,4.71,0,0,0,2.9.92c-1.48,1.09-3,3.68-3.71,7.16s-.48,6.05-.74,6.78a1,1,0,0,1-1.44.66,2.82,2.82,0,0,1-1.15-1,14.57,14.57,0,0,0-.1,3.48c.26.53.9,2.21,4.17,2.54,0,0,.31,3.7,1.31,4.92A10.46,10.46,0,0,0,301.56,194c6.22-1,7-2.57,7-2.57l-12.35-30.14" style="fill:#fba92a"/><path d="M275.34,70.73c11.58,4.66,25.07-1.31,21-15.7C304.6,59,317.22,62.92,320,52.54s-2.58-15-10.64-15.74c12.74-13.62-.85-27.54-17-21.29-4.1-4.39-8.16-5.79-14-3.94-8.69-11.53-20.78-12.51-33-6C234.8.06,226.63.08,217.66,8.46c-8.7-4-17.09-1.88-23.65,4.9-6.08-5.32-12.41-6.7-20.26-5-4-4.69-7.31-8-13.79-5.94s-7,6.45-7.09,12.51c-4.83-5-7.13-6.14-13.9-3.68-9.86-14.08-44.39-17.09-43.49,5.3-4.89,3.33-5.23.89-7.88,7.43S85.51,38.94,88,46c-3.84.72-7.23,10.95-7.63,12.78-1.39,6.3,3.93,17,3.49,19.48-1.9,10.55-11.56,15.6-4.5,24.08,12,14.39,27.55,6.64,41.53.22,5-2.28,10-5.31,13.33-10.25s2.47-8-2-12c3.54-.65,3.41-3,5.74-5.17s-.61-2.63,5.4.56,8.89,15.21,19,18.39,17.45-.25,26.26-5.29c10.15,3.78,16.12,3,24.22-4.19,11,4.39,22,4.45,32.82-.41-.06.15-.35.38-.26.47C252,87,267.2,87,272.21,82.61s1.89-7,3.13-11.88" style="fill:#cac0b7"/><path d="M608.56,209.42l.31,10.71L599.59,230a18.89,18.89,0,0,1-9-6.56c-3.22-4.75-2.53-4.78-2.53-4.78S600.49,206,604.48,206c2.72,0,4.08,3.45,4.08,3.45" style="fill:#d90111"/><path d="M644,215.38a29.32,29.32,0,0,0-3.63,4.71c-.75,4.78-2.26,25.93-2.26,25.93l-32.28-.59-4.3-25,3-14.45,25.56-4.6s8.12,3.16,11.08,6c1.79,1.73,2.48,4.07,2.85,8" style="fill:#d90111"/><path d="M348.68,24.12a5.15,5.15,0,0,1,4.56,5,3.92,3.92,0,1,1,6.32,4,4.11,4.11,0,0,1,3.78,1.79A9.8,9.8,0,0,1,364.87,39a7.39,7.39,0,0,1,.07,3.07A5.52,5.52,0,0,1,361,45.68a16.24,16.24,0,0,1-5.57.32,8.63,8.63,0,1,1-17,2.58,7.16,7.16,0,0,1-6.27-12.69c.27-.19-.11-3.61,1.36-4.64,1.79-1.25,3.76.48,5.35-.23,3.79-1.68,4.11-7.61,9.79-6.9" style="fill:#cac0b7"/><polygon points="322.48 139.27 275.83 174.08 275.06 173.79 274.77 173.38 318.76 138.39 322.48 139.27" style="fill:#78929d"/><path d="M314.79,199.29l-2.05-.94,2.05-5.54-13.07-1.14-.22,2.83-2.35-1.26a13.68,13.68,0,0,0-.29,1.92,38,38,0,0,0,15.62,5.2c.21-.3.42-.61.61-.93l-.3-.14" style="fill:#f1a67b"/><path d="M298.11,154.3l-3.58,13.37-.07-2.52a2.4,2.4,0,0,0-1.57-.5c-.82.09-2,1.07-2.43,3.51a7.72,7.72,0,0,0,1.2,5.33h0a16.92,16.92,0,0,0-.63,7.39c.57,4.11,2.71,9.29,10.53,13.15s24.9,2,24.9,2l9.34-.91s9.47-9.05,9.41-16.58-1.17-17.64-10.82-21.79-25.94-8.85-27.73-8.85-8.55,6.37-8.55,6.37" style="fill:#fec1a3"/><path d="M334.42,161.3s-6.92,2.22-13.24,1.59-7.73-1.65-7.73-1.65,5.09,0,8.23-1.22a16.84,16.84,0,0,1-14.33-5.87c-6.1-7.1-5.24-10.26-4.39-14.39a16.9,16.9,0,0,0,3.08,2.68s-.23-7.37,3.62-7,4.1,2.25,4.1,2.25-2.9-1.13-2.27,2.15c.21,1.1,4.43,2.17,12.71,3.76,9.26,1.78,10.6,3.12,16.53,7.61s5,8.07,5,8.07a21.34,21.34,0,0,1-11.34,2" style="fill:#fbb03b"/><path d="M337.4,189.58a7.93,7.93,0,0,1-6,4.17c-4.83.71-6.24-1.38-6.24-1.38a8.2,8.2,0,0,1-4.67,3.42,35.65,35.65,0,0,1-7,.6L312.37,199a9.6,9.6,0,0,0,4.09,2.41,55.65,55.65,0,0,0,12.9-.73c5.15-.68,8.06-5.88,8-11.08" style="fill:#fba92a"/><path d="M308.75,151s-3.65-1.34-5.76,1.37-1.94,3.16-3.76,6.22-4.7,9-4.7,9-1.13-3,.27-4.77c0,0-2.58,1.26-4.33,0a13.37,13.37,0,0,0,2.92-1.8,3.11,3.11,0,0,1-1.27-3.15c.49-2,1-2.35,1-2.35s.24,2.62,1.81,2.78,1.63-3.3,2.91-6,3.49-8.16,8.09-8.77,2.79,7.41,2.79,7.41" style="fill:#fbb03b"/><path d="M307.5,184.14c-2.28-.72-4.28-1.43-5.88-3.32a4,4,0,0,1-.93-2.24c-1.09-.4-1.87-.61-2-.47s-.66,3.76.82,6.81a6.71,6.71,0,0,1,2.35.11c2.18.48,5.47,2.32,5.55,4.16,3.35-.65,5.53-3.73,5.34-4.42a2.13,2.13,0,0,0-.55-.85,6.09,6.09,0,0,1-4.69.22" style="fill:#742917"/><path d="M300.69,178.58a4,4,0,0,0,.93,2.24c1.6,1.89,3.6,2.6,5.88,3.32a6.09,6.09,0,0,0,4.69-.22,6,6,0,0,0-1.94-1.26c-.47-.17-6.36-2.93-9.56-4.08" style="fill:#f7fefe"/><path d="M301.85,185a6.71,6.71,0,0,0-2.35-.11,7.53,7.53,0,0,0,3.69,3.7,6.79,6.79,0,0,0,4.21.57c-.08-1.84-3.37-3.68-5.55-4.16" style="fill:#dc6b5e"/><path d="M300,158.87a5.8,5.8,0,0,1,3.43-.32,13.58,13.58,0,0,1,4.11,2.14c.35.21.94-.43.73-.92a6.85,6.85,0,0,0-4.75-2.11c-2.36,0-3.15.35-3.7.66s-.4.63.18.55" style="fill:#fbb03b"/><path d="M321.14,166.33a8.22,8.22,0,0,1,4,1.2,14.51,14.51,0,0,1,3.6,3.92c.65,1.16,1.08.57,1.11.24a7.66,7.66,0,0,0-2-3.69,10.24,10.24,0,0,0-5.6-2.92c-1.87-.29-2.46,1-1.13,1.25" style="fill:#fbb03b"/><path d="M303.84,177.39a.24.24,0,0,1-.11-.37,2.39,2.39,0,0,1,2.84-.88,2.36,2.36,0,0,1,1.68,2.73s-2.76-1-3.57-1.19a7.48,7.48,0,0,1-.84-.29" style="fill:#ea9261"/><g style="opacity:0.580002009868622"><g style="clip-path:url(#clip-path)"><g style="clip-path:url(#clip-path-2)"><g style="clip-path:url(#clip-path-3)"><rect x="315.13" y="183.09" width="9.74" height="10.69" style="fill:#ffbea4"/><circle cx="319.99" cy="188.43" r="4.18" style="fill:#ffbea4"/><circle cx="319.99" cy="188.43" r="4.1" style="fill:#ffbda4"/><circle cx="319.99" cy="188.43" r="4.02" style="fill:#febca3"/><circle cx="319.99" cy="188.43" r="3.94" style="fill:#febba3"/><circle cx="319.99" cy="188.43" r="3.86" style="fill:#febaa3"/><circle cx="319.99" cy="188.43" r="3.78" style="fill:#fdb9a2"/><circle cx="319.99" cy="188.43" r="3.7" style="fill:#fdb8a2"/><circle cx="319.99" cy="188.43" r="3.62" style="fill:#fdb7a2"/><circle cx="319.99" cy="188.43" r="3.54" style="fill:#fcb6a1"/><circle cx="319.99" cy="188.43" r="3.46" style="fill:#fcb5a1"/><circle cx="319.99" cy="188.43" r="3.38" style="fill:#fcb4a1"/><circle cx="319.99" cy="188.43" r="3.29" style="fill:#fbb3a1"/><circle cx="319.99" cy="188.43" r="3.21" style="fill:#fbb2a0"/><circle cx="319.99" cy="188.43" r="3.13" style="fill:#fbb1a0"/><circle cx="319.99" cy="188.43" r="3.05" style="fill:#fab0a0"/><circle cx="319.99" cy="188.43" r="2.97" style="fill:#faaf9f"/><circle cx="319.99" cy="188.43" r="2.89" style="fill:#faae9f"/><circle cx="319.99" cy="188.43" r="2.81" style="fill:#f9ad9f"/><circle cx="319.99" cy="188.43" r="2.73" style="fill:#f9ac9e"/><circle cx="319.99" cy="188.43" r="2.65" style="fill:#f9aa9e"/><circle cx="319.99" cy="188.43" r="2.57" style="fill:#f8a99e"/><circle cx="319.99" cy="188.43" r="2.49" style="fill:#f8a89d"/><circle cx="319.99" cy="188.43" r="2.41" style="fill:#f8a79d"/><circle cx="319.99" cy="188.43" r="2.33" style="fill:#f7a69d"/><circle cx="319.99" cy="188.43" r="2.25" style="fill:#f7a59c"/><circle cx="319.99" cy="188.43" r="2.17" style="fill:#f7a49c"/><circle cx="319.99" cy="188.43" r="2.09" style="fill:#f6a39c"/><circle cx="319.99" cy="188.43" r="2.01" style="fill:#f6a29b"/><circle cx="319.99" cy="188.43" r="1.93" style="fill:#f6a19b"/><circle cx="319.99" cy="188.43" r="1.85" style="fill:#f5a09b"/><circle cx="319.99" cy="188.43" r="1.77" style="fill:#f59f9b"/><circle cx="319.99" cy="188.43" r="1.69" style="fill:#f59e9a"/><circle cx="319.99" cy="188.43" r="1.61" style="fill:#f49d9a"/><circle cx="319.99" cy="188.43" r="1.53" style="fill:#f49c9a"/><circle cx="319.99" cy="188.43" r="1.45" style="fill:#f49b99"/><circle cx="319.99" cy="188.43" r="1.37" style="fill:#f39a99"/><circle cx="319.99" cy="188.43" r="1.29" style="fill:#f39999"/><circle cx="319.99" cy="188.43" r="1.21" style="fill:#f39898"/><circle cx="319.99" cy="188.43" r="1.13" style="fill:#f29798"/><circle cx="319.99" cy="188.43" r="1.04" style="fill:#f29698"/><circle cx="319.99" cy="188.43" r="0.96" style="fill:#f29597"/><circle cx="319.99" cy="188.43" r="0.88" style="fill:#f19497"/><circle cx="319.99" cy="188.43" r="0.8" style="fill:#f19397"/><circle cx="319.99" cy="188.43" r="0.72" style="fill:#f19296"/><circle cx="319.99" cy="188.43" r="0.64" style="fill:#f09196"/><circle cx="319.99" cy="188.43" r="0.56" style="fill:#f09096"/><circle cx="319.99" cy="188.43" r="0.48" style="fill:#f08f96"/><circle cx="319.99" cy="188.43" r="0.4" style="fill:#ef8e95"/><circle cx="319.99" cy="188.43" r="0.32" style="fill:#ef8d95"/><circle cx="319.99" cy="188.43" r="0.24" style="fill:#ef8c95"/><circle cx="319.99" cy="188.43" r="0.16" style="fill:#ee8b94"/><path d="M320.07,188.44a.1.1,0,0,0-.07-.09.08.08,0,0,0,0,.16A.07.07,0,0,0,320.07,188.44Z" style="fill:#ee8a94"/></g></g></g></g><g style="opacity:0.580002009868622"><g style="clip-path:url(#clip-path-4)"><g style="clip-path:url(#clip-path-5)"><g style="clip-path:url(#clip-path-6)"><rect x="290.2" y="170.86" width="9.74" height="10.69" style="fill:#ffbea4"/><circle cx="295.05" cy="176.2" r="4.18" style="fill:#ffbea4"/><circle cx="295.05" cy="176.2" r="4.1" style="fill:#ffbda4"/><circle cx="295.05" cy="176.2" r="4.02" style="fill:#febca3"/><circle cx="295.05" cy="176.2" r="3.94" style="fill:#febba3"/><circle cx="295.05" cy="176.2" r="3.86" style="fill:#febaa3"/><circle cx="295.05" cy="176.2" r="3.78" style="fill:#fdb9a2"/><circle cx="295.05" cy="176.2" r="3.7" style="fill:#fdb8a2"/><circle cx="295.05" cy="176.2" r="3.62" style="fill:#fdb7a2"/><circle cx="295.05" cy="176.2" r="3.54" style="fill:#fcb6a1"/><circle cx="295.05" cy="176.2" r="3.46" style="fill:#fcb5a1"/><circle cx="295.05" cy="176.2" r="3.38" style="fill:#fcb4a1"/><circle cx="295.05" cy="176.2" r="3.29" style="fill:#fbb3a1"/><circle cx="295.05" cy="176.2" r="3.21" style="fill:#fbb2a0"/><circle cx="295.05" cy="176.2" r="3.13" style="fill:#fbb1a0"/><circle cx="295.05" cy="176.2" r="3.05" style="fill:#fab0a0"/><circle cx="295.05" cy="176.2" r="2.97" style="fill:#faaf9f"/><circle cx="295.05" cy="176.2" r="2.89" style="fill:#faae9f"/><circle cx="295.05" cy="176.2" r="2.81" style="fill:#f9ad9f"/><circle cx="295.05" cy="176.2" r="2.73" style="fill:#f9ac9e"/><circle cx="295.05" cy="176.2" r="2.65" style="fill:#f9aa9e"/><circle cx="295.05" cy="176.2" r="2.57" style="fill:#f8a99e"/><circle cx="295.05" cy="176.2" r="2.49" style="fill:#f8a89d"/><circle cx="295.05" cy="176.2" r="2.41" style="fill:#f8a79d"/><circle cx="295.05" cy="176.2" r="2.33" style="fill:#f7a69d"/><circle cx="295.05" cy="176.2" r="2.25" style="fill:#f7a59c"/><circle cx="295.05" cy="176.2" r="2.17" style="fill:#f7a49c"/><circle cx="295.05" cy="176.2" r="2.09" style="fill:#f6a39c"/><circle cx="295.05" cy="176.2" r="2.01" style="fill:#f6a29b"/><circle cx="295.05" cy="176.2" r="1.93" style="fill:#f6a19b"/><circle cx="295.05" cy="176.2" r="1.85" style="fill:#f5a09b"/><circle cx="295.05" cy="176.2" r="1.77" style="fill:#f59f9b"/><circle cx="295.05" cy="176.2" r="1.69" style="fill:#f59e9a"/><circle cx="295.05" cy="176.2" r="1.61" style="fill:#f49d9a"/><circle cx="295.05" cy="176.2" r="1.53" style="fill:#f49c9a"/><circle cx="295.05" cy="176.2" r="1.45" style="fill:#f49b99"/><circle cx="295.05" cy="176.2" r="1.37" style="fill:#f39a99"/><circle cx="295.05" cy="176.2" r="1.29" style="fill:#f39999"/><circle cx="295.05" cy="176.2" r="1.21" style="fill:#f39898"/><circle cx="295.05" cy="176.2" r="1.13" style="fill:#f29798"/><circle cx="295.05" cy="176.2" r="1.04" style="fill:#f29698"/><circle cx="295.05" cy="176.2" r="0.96" style="fill:#f29597"/><circle cx="295.05" cy="176.2" r="0.88" style="fill:#f19497"/><circle cx="295.05" cy="176.2" r="0.8" style="fill:#f19397"/><circle cx="295.05" cy="176.2" r="0.72" style="fill:#f19296"/><circle cx="295.05" cy="176.2" r="0.64" style="fill:#f09196"/><circle cx="295.05" cy="176.2" r="0.56" style="fill:#f09096"/><circle cx="295.05" cy="176.2" r="0.48" style="fill:#f08f96"/><circle cx="295.05" cy="176.2" r="0.4" style="fill:#ef8e95"/><circle cx="295.05" cy="176.2" r="0.32" style="fill:#ef8d95"/><circle cx="295.05" cy="176.2" r="0.24" style="fill:#ef8c95"/><circle cx="295.05" cy="176.2" r="0.16" style="fill:#ee8b94"/><circle cx="295.05" cy="176.2" r="0.08" style="fill:#ee8a94"/></g></g></g></g><path d="M332.81,184.89a1.84,1.84,0,0,1,1.91,1,3.26,3.26,0,0,1-1,4c-1,.52-4.12,1.9-6.15.42,0,0,1.91-5.23,5.2-5.42" style="fill:#efb184"/><path d="M349.44,173.29c1-10.93-.71-12.4-3.26-17.08s-11.25,1.14-11.25,1.14l-.51,4s2.29,3,2.16,5.4-.6,3.83-3.21,7.25-1.47,6.11-2.92,7.49c-4.18,4,.45,6.32.45,6.32s.34-3.43,1.65-4.6c2.33-2.08,4.54,0,5.34,2.81a5.06,5.06,0,0,1-.49,3.61c0,5.2-2.89,10.4-8,11.08a55.65,55.65,0,0,1-12.9.73,19.71,19.71,0,0,0,3.05.79c5.3,1,6.65.45,8.3.19a13,13,0,0,0,6,1.89c2.93,0,4.22-3.25,4.22-3.25s-2-.2-2.05-1.07.33-2.24,2.93-5.54,9.57-10.18,10.56-21.11" style="fill:#fbb03b"/><path d="M336.85,169.42a7.6,7.6,0,0,1,2.78,1.83,10.29,10.29,0,0,1,3,3.8c.36.94-.89,1.06-2.87.65s-6.2-2.44-6.78-3.28,1.21-3,2.07-3.21a3.65,3.65,0,0,1,1.83.21m-1.72,1.19c-.52.28-.63.82-.17,1.38s4.08,2.07,4.78,2.35,1.78.39,1.08-.5a29.19,29.19,0,0,0-4.2-3.05c-.52-.2-1-.46-1.49-.18" style="fill:#23a2a5"/><path d="M343.17,220.46a43.64,43.64,0,0,1-4.76-.86c-2-.6-2.87-1.1-2.89-3.14s2.16-4,3.86-5c1,.32,1.9.67,2.86,1,1.17,2.76-.13,5.13.93,7.94" style="fill:#efb184"/><rect x="326.14" y="203.72" width="35.14" height="1.6" transform="translate(72.31 498.3) rotate(-78.02)" style="fill:#d90111"/><path d="M284.76,229.16l-2.25,1-1.05,4.29s15.54,3.8,26.12,4.32,10.19-1.65,10.19-1.65l-.93-4.57Z" style="fill:#23a2a5"/><path d="M264.69,178.81s3.85,4.82,5.58,5.63,3.15,1.09,4.94-.86.94-7.27.94-7.27L273.4,175Z" style="fill:#efb184"/><polygon points="264.72 179.99 255.94 175.26 256.66 172.68 264.42 179.36 264.72 179.99" style="fill:#78929d"/><path d="M274.35,172.38a9.67,9.67,0,0,1,1.8,3.93c.23,1.92-1.36,2-2.71.79s-2.31-4.93-2.25-5.44,1.77-1.6,3.16.72" style="fill:#feb591"/><path d="M269.55,172.79a14,14,0,0,1,3.12,2.19c1,1.08,1.45,3.18,1.21,3.51a2.58,2.58,0,0,1-3.18-.36,8.85,8.85,0,0,1-2.5-3.38c-.21-.84,0-2,1.35-2" style="fill:#feb591"/><path d="M266.88,175.11a18.84,18.84,0,0,1,2.59,1.25,5.05,5.05,0,0,1,2,3.1c.19,1.21-.11,1.62-1.37,1.46s-3.37-2-3.78-2.74a5.78,5.78,0,0,1-.72-2.2c0-.51,1.32-.87,1.32-.87" style="fill:#feb591"/><path d="M265.07,177.43a4.31,4.31,0,0,1,2.19,1,6.8,6.8,0,0,1,1.87,2.6c.23,1,0,1.14-1,1.47s-2.73-1.59-3.37-2.43-.95-1.38-.75-2,1.06-.61,1.06-.61" style="fill:#feb591"/><path d="M288.72,190a56.92,56.92,0,0,1-6.2-3.92,30.8,30.8,0,0,1-3.7-3.11,3.7,3.7,0,0,1-.23-1.73,7.85,7.85,0,0,0,0-3c-.21-1.31-.61-2.92-1.32-3.59a3.77,3.77,0,0,0-2.18-.86,7.11,7.11,0,0,0-2.69.3,1.57,1.57,0,0,0-.7,2,5.59,5.59,0,0,0,2.76,1.83c.91.18.89.37.73.81a8.87,8.87,0,0,0-.66,3.12c.12,1,0,1.29-.53,1.61a4.43,4.43,0,0,1-3.14.65c-1.13-.38-5.3-3.51-5.46-3.62s1.94,2.79,2.4,3.32a19.54,19.54,0,0,0,4.12,2.82c.83.28,3.92,3.36,5,4.16s8.62,6.59,9.21,6.82,3.52-6.36,3.52-6.36Z" style="fill:#fec1a3"/><path d="M342.57,210.89c-1.45.22-2.63.12-3.94,1.05s0,2,1.45,2,4-.29,5.05-1.5-2-1.74-2.56-1.55" style="fill:#fec1a3"/><path d="M345.56,214.14a11.58,11.58,0,0,0-3.51-.78c-.94,0-2.92.15-3.1,1.11s1.41,1.62,2.36,1.73a9.7,9.7,0,0,0,3.82-.17c1-.41,1.1-1.1.43-1.89" style="fill:#fec1a3"/><path d="M344.76,216.68a9.14,9.14,0,0,0-2.54-.85,5,5,0,0,0-3.31.43c-.92.53-.88,1,0,1.61a8.68,8.68,0,0,0,4.16,1,3.53,3.53,0,0,0,1.94-.65c.52-.37.15-1.24-.26-1.52" style="fill:#fec1a3"/><path d="M344.23,219.4a3.78,3.78,0,0,0-2-.94,5.72,5.72,0,0,0-2.87.17c-.76.4-.77.62-.24,1.42s2.82.91,3.61.88,1.5,0,1.8-.48.11-.65-.29-1" style="fill:#fec1a3"/><path d="M324,214c.25,1,.56,1.88.81,2.83,2.76-.79,5.4-1.84,8.23-2.39a5,5,0,0,0,1.3-1.26,7.28,7.28,0,0,1,2-2A6.44,6.44,0,0,1,339.6,210a4,4,0,0,1,2.18.91,4.65,4.65,0,0,1,1.67,1.84,1.07,1.07,0,0,1-.89,1.49,6.3,6.3,0,0,1-3-.71c-.63-.31-.76-.6-1.12,0a12.18,12.18,0,0,1-1.48,2.21c-.53.51-.87.64-.64,1.37a4.16,4.16,0,0,0,1.75,2c.7.38,2.82,1.15,3.12,1.37s-.41.14-1.18.19-2.71-.45-4.25-.58-2.6.06-5,1.15c-1.46.66-9.31,4.82-11.35,3.69-3.13-1.74-2.45-5.32-3.15-8,2.68-.92,5.18-1.88,7.76-2.9" style="fill:#fec1a3"/><path d="M300.76,202.29c2,2.31,5.29,2.31,7.93,2a9.91,9.91,0,0,0,5.79-3.91,38,38,0,0,1-15.62-5.2,10.57,10.57,0,0,0,1.9,7.13" style="fill:#feb490"/><path d="M283.22,227.08l-.71,3.12s5.69,4.78,17.73,6.37,17.05-1.14,17.05-1.14.8-1.93-.45-2.84.11-2.73-1-3.75l-.06-.07c-10.13,4.34-23.25,4.07-32.53-1.69" style="fill:#f490eb"/><path d="M284.46,221.6l-1.24,5.48c9.28,5.76,22.4,6,32.53,1.69-.94-1-1-3.39-.88-5.4-9.54,2.65-22.18,3.82-30.41-1.77" style="fill:#d649b4"/><path d="M290.15,188.43l-2.86-1.53-6.6,10,2.2,1.55a30.2,30.2,0,0,1,7.26-10" style="fill:#f490eb"/><path d="M293.71,190.34l-3.56-1.91a30.2,30.2,0,0,0-7.26,10l2.59,1.82c2.23-3.82,4.72-7.48,8.23-9.93" style="fill:#d649b4"/><path d="M315.83,211.53c0,1,.05,2,0,3a13.87,13.87,0,0,0,8.35-1c-.23-.95-.51-2-.79-3.13a29.92,29.92,0,0,1-7.58,1.1" style="fill:#d649b4"/><path d="M299,193.44l-5.32-3.1c-.24.17-.49.35-.72.54a39.37,39.37,0,0,0,5.87,4.28,10.9,10.9,0,0,1,.17-1.72" style="fill:#109a9d"/><path d="M315.62,211.54h.21c0-1-.11-2-.21-3,.1,1,.17,2,.21,3a29.92,29.92,0,0,0,7.58-1.1,39.43,39.43,0,0,0-2.14-6.6c-.68-1.18-2.56-2.43-4.12-3.31-.89,0-1.78-.07-2.67-.16a9.91,9.91,0,0,1-5.79,3.91c-2.64.33-5.95.33-7.93-2a10.57,10.57,0,0,1-1.9-7.13,38.74,38.74,0,0,1-5.87-4.29c-3.14,2.44-5.44,5.85-7.51,9.4l3.28,2.31-4.3,19c8.23,5.59,20.87,4.42,30.41,1.77,0-.27,0-.53,0-.78a30.52,30.52,0,0,1,.77-4.82c.1-1.07.15-2.14.17-3.21l-.23-.05.23.05c0-1,0-2,0-3h-.21" style="fill:#23a2a5"/><path d="M315.09,199.43c-.19.32-.4.63-.61.93.89.09,1.78.14,2.67.16-.87-.5-1.65-.89-2.06-1.09" style="fill:#109a9d"/><path d="M315.85,214.56c0,1.07-.07,2.14-.17,3.21l0-.07a25.92,25.92,0,0,0,6.48-.45l2.73-.69s-.29-1.26-.71-3a13.87,13.87,0,0,1-8.35,1" style="fill:#f490eb"/><path d="M300.22,164.07c3.47-.48,8.13.54,6.77,6a5,5,0,0,1-6.52,1.28,4.61,4.61,0,0,1-2.72-3.38C297.56,166.12,298.34,164.32,300.22,164.07Z" style="fill:#fffcf2"/><path d="M306.28,169.14a4.07,4.07,0,0,0,.74-2.31.19.19,0,0,0,0-.07,7,7,0,0,0-6.48-3.34s0,0-.07,0a5.24,5.24,0,0,0-1.42,1.92,4,4,0,0,0,2.4,5.5,1.92,1.92,0,0,0,.32.09A4.41,4.41,0,0,0,306.28,169.14Z" style="fill:#a67c52"/><path d="M302.57,169.88a2.56,2.56,0,1,1,2.45-1.65A2.56,2.56,0,0,1,302.57,169.88Z" style="fill:#3f1010"/><path d="M303.69,167.3a1.09,1.09,0,1,1,1,.79A1.11,1.11,0,0,1,303.69,167.3Z" style="fill:#fffcf2"/><path d="M307,170.1c.9-2.74-3.48-9.12-8.95-4.37C301.52,159.18,310.11,166.29,307,170.1Z" style="fill:#562409"/><path d="M316.27,171.51c3.48-.48,8.14.55,6.77,6a5,5,0,0,1-6.52,1.29,4.65,4.65,0,0,1-2.71-3.38C313.61,173.56,314.39,171.77,316.27,171.51Z" style="fill:#fffcf2"/><path d="M322.33,176.58a4,4,0,0,0,.75-2.31.14.14,0,0,0,0-.06,6.94,6.94,0,0,0-6.48-3.34l-.08,0a5.26,5.26,0,0,0-1.41,1.92,4.05,4.05,0,0,0,2.4,5.51l.32.08A4.39,4.39,0,0,0,322.33,176.58Z" style="fill:#a67c52"/><path d="M318.63,177.32a2.56,2.56,0,1,1,2.45-1.65A2.56,2.56,0,0,1,318.63,177.32Z" style="fill:#3f1010"/><path d="M319.75,174.74a1.09,1.09,0,0,1,1.08-1.4,1.11,1.11,0,0,1,1,.79,1.09,1.09,0,1,1-2.1.61Z" style="fill:#fffcf2"/><path d="M323,177.54c.91-2.74-3.47-9.12-8.94-4.36C317.58,166.63,326.17,173.73,323,177.54Z" style="fill:#562409"/><path d="M494.37,135.09h13A41.91,41.91,0,0,1,549.28,177v16.62h19.41V177a41.91,41.91,0,0,1,41.9-41.91h13A41.91,41.91,0,0,1,665.51,177v16.62h15.92v-66.7H436.33v66.7h16.13V177a41.91,41.91,0,0,1,41.91-41.91" style="fill:#23a2a5"/><polygon points="568.69 236.22 568.69 193.62 549.28 193.62 549.28 236.22 452.46 236.22 452.46 193.62 436.33 193.62 436.33 260.75 681.43 260.75 681.43 193.62 665.51 193.62 665.51 236.22 568.69 236.22" style="fill:#009397"/><path d="M427.64,289.87H379.49a3.31,3.31,0,0,1,0-6.61h48.15a3.31,3.31,0,0,1,0,6.61Z" style="fill:#fbb03b"/><rect x="419.04" y="277.53" width="17.21" height="18.07" style="fill:#072b77"/><path d="M421.19,286.57a6.46,6.46,0,1,1,6.45,6.45,6.46,6.46,0,0,1-6.45-6.45" style="fill:#c70111"/><path d="M428.29,282.48l.77,1.57a.71.71,0,0,0,.54.39l1.73.25a.72.72,0,0,1,.4,1.22l-1.26,1.22a.76.76,0,0,0-.2.64l.29,1.72a.72.72,0,0,1-1,.76l-1.54-.82a.72.72,0,0,0-.67,0l-1.55.82a.72.72,0,0,1-1-.76l.3-1.72a.73.73,0,0,0-.21-.64l-1.25-1.22a.71.71,0,0,1,.4-1.22l1.73-.25a.72.72,0,0,0,.54-.39l.77-1.57a.72.72,0,0,1,1.29,0" style="fill:#ffed28"/><rect x="436.33" y="260.75" width="245.1" height="34.86" style="fill:#c70111"/><path d="M672.84,318.84H445.13a8.8,8.8,0,0,1-8.8-8.8V295.6H681.64V310a8.8,8.8,0,0,1-8.8,8.8" style="fill:#9c0010"/><path d="M362.08,318.84H55.39a8.8,8.8,0,0,1-8.8-8.8V295.6h324.3V310a8.8,8.8,0,0,1-8.81,8.8" style="fill:#9c0010"/><rect x="370.89" y="277.53" width="17.21" height="18.07" style="fill:#072b77"/><rect x="86.39" y="245.69" width="284.49" height="49.92" style="fill:#c70111"/><rect x="166.86" y="208.68" width="66.7" height="37.96" style="fill:#f7931e"/><rect x="166.86" y="178.13" width="66.7" height="13.77" style="fill:#fae386"/><rect x="166.86" y="191.9" width="66.7" height="37.96" style="fill:#fbb03b"/><rect x="112.54" y="125.2" width="21.12" height="44.54" style="fill:#1a6bbe"/><rect x="82.67" y="125.2" width="29.87" height="44.54" style="fill:#0050a1"/><polygon points="66.09 103.25 82.67 122.29 114.69 122.29 121.03 103.25 66.09 103.25" style="fill:#d90111"/><polygon points="148.72 103.25 121.03 103.25 114.69 122.29 132.58 122.29 148.72 103.25" style="fill:#e10111"/><polygon points="73.2 80.66 66.09 103.25 120.48 103.25 116.34 80.66 73.2 80.66" style="fill:#f76603"/><polygon points="141.62 80.66 116.34 80.66 120.48 103.25 148.72 103.25 141.62 80.66" style="fill:#ff7e03"/><rect x="79.12" y="161.99" width="39.23" height="14.85" style="fill:#f76603"/><rect x="118.34" y="161.99" width="18.86" height="14.85" style="fill:#ff7e03"/><rect x="78.47" y="116.81" width="38.91" height="10.33" style="fill:#a34d98"/><rect x="117.38" y="116.81" width="20.48" height="10.33" style="fill:#a8579e"/><rect x="0.33" y="331.96" width="74.45" height="5.59" style="fill:#009397"/><rect x="44.22" y="282.69" width="42.17" height="12.91" style="fill:#009397"/><rect x="88.98" y="174.25" width="76.17" height="29.33" style="fill:#1a6bbe"/><rect x="88.98" y="203.59" width="76.17" height="53.54" style="fill:#004f9a"/><rect x="88.98" y="257.13" width="76.17" height="33.63" style="fill:#072b77"/><rect x="76.71" y="167.8" width="14.2" height="30.34" style="fill:#cadf00"/><rect x="76.71" y="198.13" width="14.2" height="64.87" style="fill:#afc602"/><rect x="76.71" y="263.01" width="14.2" height="28.08" style="fill:#779c01"/><rect x="161.2" y="173" width="13.59" height="29.03" style="fill:#1a6bbe"/><rect x="161.2" y="202.04" width="13.59" height="62.08" style="fill:#004f9a"/><rect x="161.2" y="264.12" width="13.59" height="26.87" style="fill:#072b77"/><path d="M17,231.27a36.79,36.79,0,0,1,5.25-8.39l-.48-7.42A48.87,48.87,0,0,0,17,231.27" style="fill:#fbb03b"/><path d="M23.6,243.77l-1.33-20.89A36.79,36.79,0,0,0,17,231.27,33.48,33.48,0,0,0,16.8,235,20.15,20.15,0,0,0,17,237.9a37.44,37.44,0,0,0,6.57,5.87" style="fill:#f7931e"/><path d="M17,237.9c1,6.57,4.76,13.59,4.76,13.59l2.13-2.68-.32-5A37.44,37.44,0,0,1,17,237.9" style="fill:#f15a24"/><rect x="21.79" y="215.46" width="9.88" height="8.04" style="fill:#fbb03b"/><rect x="21.79" y="223.5" width="9.88" height="19.03" style="fill:#f7931e"/><rect x="21.79" y="242.53" width="9.88" height="8.96" style="fill:#f15a24"/><path d="M28.08,221.41A129.63,129.63,0,0,1,46.41,192.1l-1.65-25.92s-13.35,25-16.68,55.23" style="fill:#e90111"/><path d="M51.06,265.09l-4.65-73a129.63,129.63,0,0,0-18.33,29.31,119.37,119.37,0,0,0-.75,13.19,68.49,68.49,0,0,0,.79,10,131.34,131.34,0,0,0,22.94,20.52" style="fill:#d90111"/><path d="M28.12,244.57c3.4,23,16.64,47.48,16.64,47.48l7.42-9.36-1.12-17.6a131.34,131.34,0,0,1-22.94-20.52" style="fill:#c70111"/><rect x="44.76" y="166.18" width="34.53" height="28.08" style="fill:#e90111"/><rect x="44.76" y="194.26" width="34.53" height="66.48" style="fill:#d90111"/><rect x="44.76" y="260.75" width="34.53" height="31.31" style="fill:#c70111"/><polygon points="79.94 295.17 64.88 333.04 73.27 333.04 86.39 295.6 79.94 295.17" style="fill:#009397"/><polygon points="72.62 295.17 51.75 333.9 44.01 333.9 67.89 293.02 72.62 295.17" style="fill:#009397"/><polygon points="51.97 294.96 15.39 334.98 4.42 334.98 46.59 293.02 51.97 294.96" style="fill:#009397"/><polygon points="55.63 294.74 25.93 334.76 35.19 334.76 62.51 294.53 55.63 294.74" style="fill:#009397"/><polygon points="352.43 193.62 352.43 236.22 255.61 236.22 255.61 193.62 233.65 193.62 233.65 260.75 370.89 260.75 370.89 193.62 352.43 193.62" style="fill:#009397"/><path d="M255.61,177a41.91,41.91,0,0,1,41.91-41.91h13A41.91,41.91,0,0,1,352.43,177v16.62h18.46V123.48H233.65v70.14h22Z" style="fill:#23a2a5"/><path d="M356.56,240H252.14V177a45.75,45.75,0,0,1,45.71-45.7h13A45.76,45.76,0,0,1,356.56,177Zm-96.82-7.6H349V177a38.15,38.15,0,0,0-38.11-38.11h-13A38.15,38.15,0,0,0,259.74,177Z" style="fill:#9e4d92"/><path d="M553.08,240H448.66V177a45.76,45.76,0,0,1,45.71-45.7h13A45.75,45.75,0,0,1,553.08,177Zm-96.82-7.6h89.22V177a38.15,38.15,0,0,0-38.11-38.11h-13A38.15,38.15,0,0,0,456.26,177Z" style="fill:#9e4d92"/><path d="M669.31,240H564.89V177a45.75,45.75,0,0,1,45.7-45.7h13A45.76,45.76,0,0,1,669.31,177Zm-96.83-7.6h89.23V177a38.15,38.15,0,0,0-38.11-38.11h-13A38.16,38.16,0,0,0,572.48,177Z" style="fill:#9e4d92"/><path d="M265.89,314.63a3.3,3.3,0,0,1-.94-6.47l41.69-12.28a3.3,3.3,0,0,1,1.87,6.33L266.82,314.5A3.37,3.37,0,0,1,265.89,314.63Z" style="fill:#072b77"/><path d="M307.58,302.35a3,3,0,0,1-.78-.1l-42.25-10.2a3.3,3.3,0,1,1,1.56-6.42l42.24,10.2a3.31,3.31,0,0,1-.77,6.52Z" style="fill:#072b77"/><path d="M307.58,302.35a3.34,3.34,0,0,1-2.28-.91l-31.48-30a3.3,3.3,0,1,1,4.55-4.78l31.48,30a3.3,3.3,0,0,1-2.27,5.7Z" style="fill:#072b77"/><path d="M307.58,302.35a3.3,3.3,0,0,1-3.17-2.37l-12.28-41.69a3.3,3.3,0,0,1,6.33-1.87l12.28,41.69a3.29,3.29,0,0,1-2.23,4.1A3.38,3.38,0,0,1,307.58,302.35Z" style="fill:#072b77"/><path d="M307.58,302.35a3,3,0,0,1-.78-.1,3.29,3.29,0,0,1-2.43-4L314.57,256a3.3,3.3,0,0,1,6.42,1.55l-10.2,42.25A3.32,3.32,0,0,1,307.58,302.35Z" style="fill:#072b77"/><path d="M307.58,302.35a3.31,3.31,0,0,1-2.4-5.58l30-31.49a3.3,3.3,0,0,1,4.78,4.56l-30,31.48A3.31,3.31,0,0,1,307.58,302.35Z" style="fill:#072b77"/><path d="M307.58,302.35a3.3,3.3,0,0,1-.94-6.47l41.69-12.29a3.31,3.31,0,0,1,1.87,6.34l-41.69,12.28A3.38,3.38,0,0,1,307.58,302.35Z" style="fill:#072b77"/><path d="M349.83,312.55a3.46,3.46,0,0,1-.78-.09L306.8,302.25a3.3,3.3,0,0,1,1.55-6.42L350.6,306a3.3,3.3,0,0,1-.77,6.51Z" style="fill:#072b77"/><path d="M339.06,332.31a3.29,3.29,0,0,1-2.28-.91l-31.48-30a3.3,3.3,0,1,1,4.55-4.79l31.49,30a3.31,3.31,0,0,1-2.28,5.7Z" style="fill:#072b77"/><path d="M319.86,344a3.31,3.31,0,0,1-3.17-2.37L304.41,300a3.3,3.3,0,1,1,6.33-1.87L323,339.8a3.32,3.32,0,0,1-3.17,4.24Z" style="fill:#072b77"/><path d="M297.37,344.59a3.59,3.59,0,0,1-.78-.09,3.3,3.3,0,0,1-2.43-4l10.21-42.25a3.3,3.3,0,1,1,6.42,1.55l-10.21,42.25A3.31,3.31,0,0,1,297.37,344.59Z" style="fill:#072b77"/><path d="M277.61,333.83a3.31,3.31,0,0,1-2.39-5.58l30-31.48a3.3,3.3,0,0,1,4.79,4.55L280,332.8A3.27,3.27,0,0,1,277.61,333.83Z" style="fill:#072b77"/><path d="M307.51,345.83a46.92,46.92,0,1,1,13.28-1.93A46.59,46.59,0,0,1,307.51,345.83Zm.12-87a40.21,40.21,0,1,0,19.16,4.91A40.15,40.15,0,0,0,307.63,258.87Z" style="fill:#00a1a4"/><path d="M307.58,309a10,10,0,0,1-9.52-7.12h0a9.92,9.92,0,1,1,12.32,6.71A9.69,9.69,0,0,1,307.58,309Zm-3.18-9a3.31,3.31,0,1,0,2.24-4.12A3.31,3.31,0,0,0,304.4,300Z" style="fill:#e0d000"/><path d="M166.48,314.63a3.3,3.3,0,0,1-.93-6.47l41.69-12.28a3.3,3.3,0,1,1,1.86,6.33L167.41,314.5A3.31,3.31,0,0,1,166.48,314.63Z" style="fill:#072b77"/><path d="M208.17,302.35a3,3,0,0,1-.78-.1l-42.24-10.2a3.3,3.3,0,1,1,1.55-6.42l42.24,10.2a3.31,3.31,0,0,1-.77,6.52Z" style="fill:#072b77"/><path d="M208.17,302.35a3.34,3.34,0,0,1-2.28-.91l-31.48-30a3.3,3.3,0,1,1,4.55-4.78l31.49,30a3.31,3.31,0,0,1-2.28,5.7Z" style="fill:#072b77"/><path d="M208.17,302.35A3.3,3.3,0,0,1,205,300l-12.28-41.69a3.3,3.3,0,1,1,6.33-1.87l12.29,41.69a3.32,3.32,0,0,1-3.17,4.24Z" style="fill:#072b77"/><path d="M208.17,302.35a3,3,0,0,1-.78-.1,3.29,3.29,0,0,1-2.43-4L215.16,256a3.31,3.31,0,0,1,6.43,1.55l-10.21,42.25A3.32,3.32,0,0,1,208.17,302.35Z" style="fill:#072b77"/><path d="M208.17,302.35a3.3,3.3,0,0,1-2.39-5.58l30-31.49a3.3,3.3,0,0,1,4.78,4.56l-30,31.48A3.31,3.31,0,0,1,208.17,302.35Z" style="fill:#072b77"/><path d="M208.17,302.35a3.3,3.3,0,0,1-.93-6.47l41.69-12.29a3.3,3.3,0,1,1,1.86,6.34L209.1,302.21A3.33,3.33,0,0,1,208.17,302.35Z" style="fill:#072b77"/><path d="M250.42,312.55a3.46,3.46,0,0,1-.78-.09l-42.25-10.21a3.3,3.3,0,0,1,1.55-6.42L251.19,306a3.3,3.3,0,0,1-.77,6.51Z" style="fill:#072b77"/><path d="M239.65,332.31a3.25,3.25,0,0,1-2.27-.91l-31.49-30a3.31,3.31,0,0,1,4.56-4.79l31.48,30a3.31,3.31,0,0,1-2.28,5.7Z" style="fill:#072b77"/><path d="M220.45,344a3.3,3.3,0,0,1-3.16-2.37L205,300a3.31,3.31,0,0,1,6.34-1.87l12.28,41.69a3.29,3.29,0,0,1-2.23,4.1A3.45,3.45,0,0,1,220.45,344Z" style="fill:#072b77"/><path d="M198,344.59a3.44,3.44,0,0,1-.77-.09,3.3,3.3,0,0,1-2.44-4L205,298.27a3.3,3.3,0,1,1,6.42,1.55l-10.21,42.25A3.3,3.3,0,0,1,198,344.59Z" style="fill:#072b77"/><path d="M178.21,333.83a3.31,3.31,0,0,1-2.4-5.58l30-31.48a3.3,3.3,0,1,1,4.78,4.55l-30,31.48A3.27,3.27,0,0,1,178.21,333.83Z" style="fill:#072b77"/><path d="M208.19,345.81a46.86,46.86,0,0,1-44.88-33.55h0a46.76,46.76,0,1,1,44.88,33.55ZM169.65,310.4a40.16,40.16,0,1,0,27.17-49.88,40.2,40.2,0,0,0-27.17,49.88Z" style="fill:#00a1a4"/><path d="M208.16,309a9.92,9.92,0,0,1-9.51-7.12h0A9.92,9.92,0,1,1,211,308.56,10.06,10.06,0,0,1,208.16,309Zm0-13.24a3.38,3.38,0,0,0-.94.13A3.33,3.33,0,0,0,205,300h0a3.31,3.31,0,1,0,6.36-1.87,3.29,3.29,0,0,0-3.18-2.38Z" style="fill:#e0d000"/><path d="M91.79,320.41a3.3,3.3,0,0,1-.54-6.56l30-5a3.3,3.3,0,0,1,1.09,6.51l-30,5A3.31,3.31,0,0,1,91.79,320.41Z" style="fill:#072b77"/><path d="M121.8,315.39a3.33,3.33,0,0,1-1.15-.21l-28.5-10.66a3.3,3.3,0,0,1,2.31-6.19L123,309a3.3,3.3,0,0,1-1.16,6.4Z" style="fill:#072b77"/><path d="M121.81,315.38a3.25,3.25,0,0,1-2.55-1.2L99.91,290.71a3.3,3.3,0,1,1,5.09-4.2L124.35,310a3.29,3.29,0,0,1-2.54,5.4Z" style="fill:#072b77"/><path d="M121.8,315.39a3.31,3.31,0,0,1-3.25-2.76l-5-30a3.3,3.3,0,1,1,6.51-1.09l5,30a3.3,3.3,0,0,1-2.71,3.8A3.41,3.41,0,0,1,121.8,315.39Z" style="fill:#072b77"/><path d="M121.8,315.39a3.31,3.31,0,0,1-3.09-4.46l10.66-28.5a3.3,3.3,0,1,1,6.18,2.31l-10.65,28.5A3.31,3.31,0,0,1,121.8,315.39Z" style="fill:#072b77"/><path d="M121.81,315.39a3.26,3.26,0,0,1-2.55-1.21,3.31,3.31,0,0,1,.44-4.65l23.48-19.35a3.3,3.3,0,0,1,4.2,5.1L123.9,314.63A3.25,3.25,0,0,1,121.81,315.39Z" style="fill:#072b77"/><path d="M121.8,315.39a3.3,3.3,0,0,1-.54-6.56l30-5a3.3,3.3,0,0,1,1.09,6.51l-30,5A3.41,3.41,0,0,1,121.8,315.39Z" style="fill:#072b77"/><path d="M150.3,326a3.33,3.33,0,0,1-1.15-.21l-28.5-10.65A3.3,3.3,0,0,1,123,309l28.5,10.66A3.3,3.3,0,0,1,150.3,326Z" style="fill:#072b77"/><path d="M141.16,338.86a3.3,3.3,0,0,1-2.55-1.2l-19.35-23.48a3.3,3.3,0,1,1,5.09-4.2l19.35,23.48a3.29,3.29,0,0,1-2.54,5.4Z" style="fill:#072b77"/><path d="M126.82,345.39a3.3,3.3,0,0,1-3.25-2.76l-5-30a3.3,3.3,0,0,1,6.51-1.09l5,30a3.31,3.31,0,0,1-2.71,3.81A3.39,3.39,0,0,1,126.82,345.39Z" style="fill:#072b77"/><path d="M111.15,343.88a3.39,3.39,0,0,1-1.16-.21,3.3,3.3,0,0,1-1.93-4.25l10.65-28.49a3.3,3.3,0,0,1,6.19,2.31l-10.66,28.5A3.3,3.3,0,0,1,111.15,343.88Z" style="fill:#072b77"/><path d="M98.33,334.74a3.3,3.3,0,0,1-2.1-5.85l23.47-19.36a3.31,3.31,0,0,1,4.21,5.1L100.43,334A3.29,3.29,0,0,1,98.33,334.74Z" style="fill:#072b77"/><path d="M121.73,345.82a33.75,33.75,0,0,1-33.19-28.17h0a33.73,33.73,0,1,1,38.83,27.7A34.71,34.71,0,0,1,121.73,345.82ZM95.06,316.56a27.12,27.12,0,1,0,22.27-31.23,26.93,26.93,0,0,0-22.27,31.23Z" style="fill:#00a1a4"/><path d="M121.79,320a8,8,0,0,1-7.81-6.63h0a7.94,7.94,0,0,1,6.52-9.13,7.93,7.93,0,1,1,2.61,15.65A8.4,8.4,0,0,1,121.79,320Zm0-9.27-.23,0a1.33,1.33,0,0,0-1.09,1.53h0a1.33,1.33,0,0,0,1.53,1.1,1.33,1.33,0,0,0-.21-2.65Z" style="fill:#e0d000"/><path d="M452.37,324.1a3.3,3.3,0,0,1-.95-6.46l29.15-8.72a3.3,3.3,0,0,1,1.89,6.33L453.32,324A3.17,3.17,0,0,1,452.37,324.1Z" style="fill:#072b77"/><path d="M481.52,315.39a3.44,3.44,0,0,1-.77-.09l-29.6-7a3.3,3.3,0,1,1,1.53-6.42l29.6,7a3.3,3.3,0,0,1-.76,6.52Z" style="fill:#072b77"/><path d="M481.52,315.39a3.27,3.27,0,0,1-2.27-.91L457.13,293.6a3.3,3.3,0,1,1,4.53-4.8l22.12,20.88a3.3,3.3,0,0,1-2.26,5.71Z" style="fill:#072b77"/><path d="M481.52,315.39a3.31,3.31,0,0,1-3.17-2.36l-8.71-29.15A3.3,3.3,0,1,1,476,282l8.72,29.15a3.31,3.31,0,0,1-2.22,4.11A3.4,3.4,0,0,1,481.52,315.39Z" style="fill:#072b77"/><path d="M481.52,315.39a3.44,3.44,0,0,1-.77-.09,3.32,3.32,0,0,1-2.45-4l7-29.6a3.3,3.3,0,1,1,6.42,1.52l-7,29.61A3.32,3.32,0,0,1,481.52,315.39Z" style="fill:#072b77"/><path d="M481.52,315.39a3.31,3.31,0,0,1-2.4-5.57L500,287.69a3.3,3.3,0,1,1,4.8,4.54l-20.88,22.12A3.3,3.3,0,0,1,481.52,315.39Z" style="fill:#072b77"/><path d="M481.52,315.39a3.3,3.3,0,0,1-.95-6.47l29.15-8.72a3.3,3.3,0,1,1,1.89,6.33l-29.15,8.72A3.4,3.4,0,0,1,481.52,315.39Z" style="fill:#072b77"/><path d="M511.12,322.41a3.29,3.29,0,0,1-.76-.09l-29.61-7a3.3,3.3,0,0,1,1.53-6.43l29.6,7a3.3,3.3,0,0,1-.76,6.51Z" style="fill:#072b77"/><path d="M503.64,336.27a3.32,3.32,0,0,1-2.27-.9l-22.12-20.89a3.3,3.3,0,0,1,4.53-4.8l22.13,20.89a3.3,3.3,0,0,1-2.27,5.7Z" style="fill:#072b77"/><path d="M490.23,344.53a3.3,3.3,0,0,1-3.16-2.35L478.35,313a3.3,3.3,0,1,1,6.33-1.89l8.72,29.14a3.3,3.3,0,0,1-2.22,4.11A3.13,3.13,0,0,1,490.23,344.53Z" style="fill:#072b77"/><path d="M474.49,345a3.35,3.35,0,0,1-.76-.09,3.31,3.31,0,0,1-2.45-4l7-29.6a3.3,3.3,0,0,1,6.43,1.53l-7,29.6A3.32,3.32,0,0,1,474.49,345Z" style="fill:#072b77"/><path d="M460.63,337.51a3.31,3.31,0,0,1-2.4-5.57l20.89-22.12a3.3,3.3,0,1,1,4.8,4.53L463,336.47A3.28,3.28,0,0,1,460.63,337.51Z" style="fill:#072b77"/><path d="M481.47,345.82a33.76,33.76,0,0,1-32.26-24.07h0a33.66,33.66,0,1,1,32.26,24.07Zm-25.94-26a27.12,27.12,0,1,0,2.12-20.65,27,27,0,0,0-2.12,20.65Z" style="fill:#00a1a4"/><path d="M481.51,320a7.92,7.92,0,0,1-7.59-5.66h0a7.93,7.93,0,1,1,9.87,5.33A8.11,8.11,0,0,1,481.51,320Zm0-9.27a1.21,1.21,0,0,0-.38.06,1.31,1.31,0,0,0-.79.64,1.33,1.33,0,0,0-.11,1h0a1.35,1.35,0,0,0,1.66.9,1.33,1.33,0,0,0-.38-2.61Z" style="fill:#e0d000"/><path d="M608.38,322.87a3.3,3.3,0,0,1-.81-6.5l29.49-7.49a3.3,3.3,0,1,1,1.62,6.4l-29.49,7.49A3.21,3.21,0,0,1,608.38,322.87Z" style="fill:#072b77"/><path d="M637.87,315.39a3.11,3.11,0,0,1-.9-.13L607.69,307a3.3,3.3,0,0,1,1.8-6.36l29.28,8.26a3.31,3.31,0,0,1-.9,6.49Z" style="fill:#072b77"/><path d="M637.87,315.39a3.33,3.33,0,0,1-2.37-1l-21.22-21.8A3.3,3.3,0,1,1,619,288l21.22,21.79a3.31,3.31,0,0,1-2.36,5.61Z" style="fill:#072b77"/><path d="M637.87,315.39a3.31,3.31,0,0,1-3.2-2.49l-7.49-29.49a3.3,3.3,0,1,1,6.4-1.63l7.49,29.49a3.3,3.3,0,0,1-2.39,4A3.22,3.22,0,0,1,637.87,315.39Z" style="fill:#072b77"/><path d="M637.87,315.39a3.11,3.11,0,0,1-.9-.13,3.3,3.3,0,0,1-2.28-4.07L643,281.91a3.3,3.3,0,1,1,6.36,1.79L641.05,313A3.32,3.32,0,0,1,637.87,315.39Z" style="fill:#072b77"/><path d="M637.87,315.39a3.3,3.3,0,0,1-2.3-5.67l21.79-21.23a3.3,3.3,0,1,1,4.61,4.73l-21.8,21.23A3.31,3.31,0,0,1,637.87,315.39Z" style="fill:#072b77"/><path d="M637.87,315.39a3.31,3.31,0,0,1-.81-6.51l29.48-7.48a3.3,3.3,0,1,1,1.63,6.4l-29.49,7.48A3.22,3.22,0,0,1,637.87,315.39Z" style="fill:#072b77"/><path d="M667.15,323.65a3.11,3.11,0,0,1-.9-.13L637,315.26a3.3,3.3,0,0,1,1.8-6.36l29.28,8.26a3.31,3.31,0,0,1-.9,6.49Z" style="fill:#072b77"/><path d="M659.1,337.18a3.29,3.29,0,0,1-2.37-1L635.5,314.39a3.3,3.3,0,0,1,4.73-4.61l21.23,21.79a3.3,3.3,0,0,1-.06,4.67A3.26,3.26,0,0,1,659.1,337.18Z" style="fill:#072b77"/><path d="M645.35,344.87a3.3,3.3,0,0,1-3.2-2.49l-7.48-29.48a3.3,3.3,0,1,1,6.4-1.63l7.49,29.49a3.3,3.3,0,0,1-3.21,4.11Z" style="fill:#072b77"/><path d="M629.61,344.67a3.11,3.11,0,0,1-.9-.13,3.3,3.3,0,0,1-2.28-4.07l8.26-29.28a3.3,3.3,0,1,1,6.36,1.79l-8.26,29.28A3.31,3.31,0,0,1,629.61,344.67Z" style="fill:#072b77"/><path d="M616.08,336.61a3.3,3.3,0,0,1-2.31-5.66l21.8-21.23a3.3,3.3,0,0,1,4.6,4.73l-21.79,21.23A3.3,3.3,0,0,1,616.08,336.61Z" style="fill:#072b77"/><path d="M637.81,345.82a33.74,33.74,0,0,1-32.63-25.44h0a33.73,33.73,0,1,1,41,24.39A34.14,34.14,0,0,1,637.81,345.82Zm.06-60.86a27.14,27.14,0,0,0-26.29,33.8h0A27.12,27.12,0,1,0,637.87,285Z" style="fill:#00a1a4"/><path d="M637.87,320a8,8,0,0,1-7.69-6h0a7.93,7.93,0,1,1,9.64,5.73A7.73,7.73,0,0,1,637.87,320Zm-1.29-7.61a1.33,1.33,0,1,0,1-1.62A1.34,1.34,0,0,0,636.58,312.41Z" style="fill:#e0d000"/><path d="M140.3,312.6a3.3,3.3,0,0,1-.65-6.54l94.26-18.88a3.49,3.49,0,0,1,.65-.06H334.82a3.3,3.3,0,0,1,0,6.6H234.89L141,312.53A3.69,3.69,0,0,1,140.3,312.6Z" style="fill:#fbb03b"/><path d="M140.3,314.17a4.88,4.88,0,1,1,4.88-4.88A4.89,4.89,0,0,1,140.3,314.17Zm0-6.45a1.58,1.58,0,1,0,1.58,1.57A1.57,1.57,0,0,0,140.3,307.72Z" style="fill:#fbb03b"/><path d="M137.5,309.29a2.8,2.8,0,1,1,2.8,2.8,2.79,2.79,0,0,1-2.8-2.8" style="fill:#c1272d"/><path d="M234.56,295.3a4.88,4.88,0,1,1,4.88-4.88A4.89,4.89,0,0,1,234.56,295.3Zm0-6.46a1.58,1.58,0,1,0,1.57,1.58A1.58,1.58,0,0,0,234.56,288.84Z" style="fill:#fbb03b"/><path d="M231.76,290.42a2.8,2.8,0,1,1,2.8,2.8,2.8,2.8,0,0,1-2.8-2.8" style="fill:#c1272d"/><path d="M334.82,295.3a4.88,4.88,0,1,1,4.88-4.88A4.89,4.89,0,0,1,334.82,295.3Zm0-6.46a1.58,1.58,0,1,0,1.58,1.58A1.57,1.57,0,0,0,334.82,288.84Z" style="fill:#fbb03b"/><path d="M332,290.42a2.8,2.8,0,1,1,2.79,2.8,2.8,2.8,0,0,1-2.79-2.8" style="fill:#c1272d"/><path d="M404,291.44a4.88,4.88,0,1,1,4.88-4.87A4.88,4.88,0,0,1,404,291.44Zm0-6.45a1.58,1.58,0,1,0,1.57,1.58A1.58,1.58,0,0,0,404,285Z" style="fill:#fbb03b"/><path d="M401.17,286.57a2.8,2.8,0,1,1,2.8,2.79,2.8,2.8,0,0,1-2.8-2.79" style="fill:#c1272d"/><path d="M335.12,103.25H271.86c-13.35,0-30.55,1.29-41.74,9H376.86c-11.19-7.75-28.39-9-41.74-9" style="fill:#db162d"/><rect x="230.12" y="112.29" width="146.74" height="14.63" style="fill:#9c0010"/><rect x="427.55" y="112.76" width="268.56" height="14.63" style="fill:#9c0010"/><path d="M373,286.57a6.46,6.46,0,1,1,6.45,6.45,6.46,6.46,0,0,1-6.45-6.45" style="fill:#c70111"/><path d="M380.13,282.48l.78,1.57a.69.69,0,0,0,.54.39l1.73.25a.72.72,0,0,1,.4,1.22l-1.26,1.22a.73.73,0,0,0-.2.64l.29,1.72a.72.72,0,0,1-1,.76l-1.54-.82a.72.72,0,0,0-.67,0l-1.55.82a.72.72,0,0,1-1-.76l.3-1.72a.73.73,0,0,0-.21-.64l-1.25-1.22a.71.71,0,0,1,.4-1.22l1.73-.25a.72.72,0,0,0,.54-.39l.77-1.57a.71.71,0,0,1,1.28,0" style="fill:#ffed28"/><path d="M619.46,227.43,612.88,235a.67.67,0,0,1,.07.94.67.67,0,0,1-.94.06l-1,1.21a1.21,1.21,0,0,0,.12,1.69l6.65,5.76a1.19,1.19,0,0,0,1.69-.12l1.05-1.21,0,0a.67.67,0,0,1-.06-.94.65.65,0,0,1,.93-.06l0,0,6.57-7.58Z" style="fill:#ebebeb"/><path d="M628.78,233.76a1.2,1.2,0,0,0-.12-1.69L622,226.31a1.19,1.19,0,0,0-1.69.12l-.86,1,8.45,7.33Z" style="fill:#5ab566"/><rect x="611.24" y="237.59" width="1.64" height="0.2" transform="translate(31.44 544.28) rotate(-49.06)" style="fill:#696969"/><rect x="611.64" y="237.88" width="1.64" height="0.32" transform="translate(31.29 544.64) rotate(-49.05)" style="fill:#696969"/><rect x="613.75" y="239.7" width="1.64" height="0.32" transform="translate(30.64 546.87) rotate(-49.05)" style="fill:#696969"/><rect x="612.08" y="238.31" width="1.64" height="0.2" transform="translate(31.24 545.27) rotate(-49.07)" style="fill:#696969"/><rect x="616.63" y="242.26" width="1.64" height="0.2" transform="translate(29.83 550.07) rotate(-49.07)" style="fill:#696969"/><rect x="617.03" y="242.6" width="1.64" height="0.2" transform="translate(29.7 550.49) rotate(-49.07)" style="fill:#696969"/><rect x="612.49" y="238.65" width="1.64" height="0.24" transform="translate(31.32 546.1) rotate(-49.11)" style="fill:#696969"/><rect x="612.93" y="239.1" width="1.64" height="0.11" transform="matrix(0.65, -0.76, 0.76, 0.65, 31.31, 546.8)" style="fill:#696969"/><rect x="613.34" y="239.45" width="1.64" height="0.11" transform="translate(30.61 546.14) rotate(-49.03)" style="fill:#696969"/><rect x="614.15" y="240.15" width="1.64" height="0.11" transform="translate(30.36 547) rotate(-49.03)" style="fill:#696969"/><rect x="614.96" y="240.86" width="1.64" height="0.11" transform="translate(30.11 547.86) rotate(-49.03)" style="fill:#696969"/><rect x="615.78" y="241.56" width="1.64" height="0.11" transform="translate(30.43 549.8) rotate(-49.13)" style="fill:#696969"/><rect x="616.18" y="241.91" width="1.64" height="0.11" transform="translate(30.3 550.23) rotate(-49.13)" style="fill:#696969"/><rect x="617.46" y="243.03" width="1.64" height="0.11" transform="translate(29.33 550.49) rotate(-49.03)" style="fill:#696969"/><rect x="617.88" y="243.39" width="1.64" height="0.11" transform="translate(29.77 552.03) rotate(-49.13)" style="fill:#696969"/><rect x="614.56" y="240.41" width="1.64" height="0.31" transform="translate(30.49 547.92) rotate(-49.07)" style="fill:#696969"/><rect x="615.4" y="241.17" width="1.64" height="0.24" transform="translate(30.42 549.17) rotate(-49.11)" style="fill:#696969"/><rect x="613.17" y="236.13" width="0.22" height="0.24" transform="translate(32.94 544.69) rotate(-49.06)" style="fill:#696969"/><rect x="613.78" y="236.66" width="0.22" height="0.24" transform="translate(33.03 545.85) rotate(-49.11)" style="fill:#696969"/><rect x="614.39" y="237.19" width="0.22" height="0.24" transform="matrix(0.66, -0.76, 0.76, 0.66, 32.56, 545.98)" style="fill:#696969"/><rect x="615" y="237.72" width="0.22" height="0.24" transform="translate(32.65 547.14) rotate(-49.11)" style="fill:#696969"/><rect x="615.62" y="238.25" width="0.22" height="0.24" transform="translate(32.18 547.27) rotate(-49.06)" style="fill:#696969"/><rect x="616.23" y="238.78" width="0.22" height="0.24" transform="translate(32.27 548.43) rotate(-49.11)" style="fill:#696969"/><rect x="616.84" y="239.31" width="0.22" height="0.24" transform="translate(31.8 548.56) rotate(-49.06)" style="fill:#696969"/><rect x="618.06" y="240.37" width="0.22" height="0.24" transform="translate(31.42 549.85) rotate(-49.06)" style="fill:#696969"/><rect x="617.45" y="239.84" width="0.22" height="0.24" transform="translate(31.89 549.72) rotate(-49.11)" style="fill:#696969"/><rect x="618.67" y="240.9" width="0.22" height="0.24" transform="translate(31.51 551.01) rotate(-49.11)" style="fill:#696969"/><rect x="619.28" y="241.43" width="0.22" height="0.24" transform="translate(31.32 551.66) rotate(-49.11)" style="fill:#696969"/><rect x="619.89" y="241.96" width="0.22" height="0.24" transform="matrix(0.65, -0.76, 0.76, 0.65, 31.13, 552.3)" style="fill:#696969"/><path d="M621.88,232l.11-.13a.11.11,0,0,1,.18,0l.91.79a.11.11,0,0,1,0,.17L623,233l.38.48a2.53,2.53,0,0,1,.43.81.87.87,0,0,1,.05.28.59.59,0,0,1-.16.47l-2.28,2.64a.78.78,0,0,1-.92.22.71.71,0,0,1-.14-.1c-.94-.81-1.87-1.63-2.82-2.43a.75.75,0,0,1-.14-1,1.3,1.3,0,0,1,.15-.2l1.08-1.24,1.13-1.31a.64.64,0,0,1,.53-.25,2,2,0,0,1,.92.26c.2.1.39.22.59.33l.1,0m-1.71,3.09h0l1.18,1a.48.48,0,0,0,.7,0l.6-.7a.46.46,0,0,0-.06-.7l-2.38-2.06a.47.47,0,0,0-.68,0l-.58.67a.47.47,0,0,0,.06.76l1.16,1m1.55-1.79h0l.65.56a.13.13,0,0,0,.2,0,2.62,2.62,0,0,0,.22-.25.14.14,0,0,0,0-.21l-1.28-1.11c-.09-.07-.16-.07-.23,0l-.18.21c-.07.09-.07.16,0,.23l.64.56m-1.24,3.91a.33.33,0,0,0,.48,0,.34.34,0,0,0,0-.48.35.35,0,0,0-.49,0,.34.34,0,0,0,0,.48m-1.88-2.08a.35.35,0,0,0,0-.48.35.35,0,0,0-.49,0,.33.33,0,0,0,0,.47.33.33,0,0,0,.48,0" style="fill:#696969"/><path d="M617.63,235.63l.35.35-.3.06,1.94,1.68a3,3,0,0,1,0-.31l.39.31c0,.23,0,.5,0,.79s0,.33,0,.5-.11.36-.26.31a.51.51,0,0,1-.24-.5l0-.47a.13.13,0,0,0-.05-.13L618.11,237l-.9-.79a.16.16,0,0,0-.16,0l-.49.1a.49.49,0,0,1-.45-.13c-.1-.1-.07-.22.06-.3a.37.37,0,0,1,.15,0l1.3-.17h0" style="fill:#696969"/><path d="M622.29,228.87l.59-.68a0,0,0,0,1,.06,0l.17.15a.24.24,0,0,1,0,.35.27.27,0,0,1-.23.09.27.27,0,0,1,0,.3.25.25,0,0,1-.38,0l-.18-.15A0,0,0,0,1,622.29,228.87Zm.24.15a.19.19,0,0,0,.27,0,.22.22,0,0,0,0-.32l-.12-.11-.26.29Zm.29-.37a.18.18,0,0,0,.26,0c.06-.06.06-.15,0-.23l-.14-.12-.22.26Z" style="fill:#ebebeb"/><path d="M622.9,229.4a0,0,0,0,1,.06,0l0,0,.53-.62,0,0s0,0,0-.06a0,0,0,0,1,.06,0l.13.11s0,0,0,.06,0,0,0,0l0,0-.53.61,0,0s0,0,0,.06,0,0-.06,0l-.13-.11A0,0,0,0,1,622.9,229.4Z" style="fill:#ebebeb"/><path d="M623.28,229.72l.58-.67a0,0,0,0,1,.06,0,0,0,0,0,1,0,.06l-.56.64.29.26a0,0,0,0,1,0,.07l-.33-.29A0,0,0,0,1,623.28,229.72Z" style="fill:#ebebeb"/><path d="M623.82,230.2l.59-.68a0,0,0,0,1,.06,0s0,0,0,.06l-.56.65.3.25s0,.05,0,.06a0,0,0,0,1-.06,0l-.32-.29S623.81,230.22,623.82,230.2Z" style="fill:#ebebeb"/><path d="M624.36,230.67,625,230a0,0,0,0,1,.06,0l.29.25a0,0,0,0,1,0,.06s0,0-.06,0l-.26-.22-.25.28.26.23s0,0,0,.06a0,0,0,0,1-.06,0l-.26-.22-.22.26.26.23s0,0,0,.05,0,0-.06,0l-.29-.25A0,0,0,0,1,624.36,230.67Z" style="fill:#ebebeb"/><path d="M625.1,231.31l.56-.65-.16-.14a0,0,0,1,1,0-.07l.4.35a0,0,0,0,1,0,.06,0,0,0,0,1-.05,0l-.17-.14-.56.65s0,0-.06,0A0,0,0,0,1,625.1,231.31Z" style="fill:#ebebeb"/><path d="M625.54,231.69l.59-.68a0,0,0,0,1,.06,0l.29.25a0,0,0,0,1,0,.06,0,0,0,0,1-.06,0l-.26-.22-.25.29.26.22s0,0,0,.06,0,0-.06,0l-.26-.22-.22.26.26.23s0,0,0,.06,0,0-.06,0l-.29-.25A0,0,0,0,1,625.54,231.69Z" style="fill:#ebebeb"/><path d="M622.76,229.3a.38.38,0,0,1-.25-.1l-.18-.16a.12.12,0,0,1,0-.17l.58-.68a.13.13,0,0,1,.18,0l.17.15a.34.34,0,0,1,.13.23.32.32,0,0,1-.09.23.35.35,0,0,1-.19.12.35.35,0,0,1-.34.39Zm-.17-.36.08.07c.06.06.12.06.16,0a.14.14,0,0,0,0-.19l-.07-.06Zm.3-.36.07.06a.13.13,0,0,0,.08,0,.1.1,0,0,0,.07,0,.06.06,0,0,0,0,0s0,0,0-.07l-.07-.06Z" style="fill:#ebebeb"/><path d="M623.16,229.72a.16.16,0,0,1-.09,0l-.13-.12a.12.12,0,0,1,0-.17.09.09,0,0,1,.08,0,.07.07,0,0,1,.06,0l.43-.5a.14.14,0,0,1,0-.14.13.13,0,0,1,.18,0l.13.12a.08.08,0,0,1,0,.08.09.09,0,0,1,0,.09.12.12,0,0,1-.14,0l-.43.5a.14.14,0,0,1,0,.06.16.16,0,0,1,0,.09A.12.12,0,0,1,623.16,229.72Zm-.16-.21Z" style="fill:#ebebeb"/><path d="M623.72,230.21a.11.11,0,0,1-.08,0l-.32-.28a.14.14,0,0,1-.05-.09.16.16,0,0,1,0-.09l.59-.67A.13.13,0,0,1,624,229a.14.14,0,0,1,.09,0,.19.19,0,0,1,0,.09.16.16,0,0,1,0,.09l-.51.58.24.2a.14.14,0,0,1,0,.18.15.15,0,0,1-.09,0Z" style="fill:#ebebeb"/><path d="M624.27,230.69a.12.12,0,0,1-.08,0l-.33-.28a.1.1,0,0,1,0-.09.11.11,0,0,1,0-.08l.58-.68a.13.13,0,0,1,.18,0,.09.09,0,0,1,0,.08.09.09,0,0,1,0,.09l-.5.58.23.21a.09.09,0,0,1,0,.08.08.08,0,0,1,0,.09.14.14,0,0,1-.08.05Zm0-.1Zm.06-.06Zm.2-1Z" style="fill:#ebebeb"/><path d="M624.78,231.13a.16.16,0,0,1-.09,0l-.29-.26a.12.12,0,0,1,0-.08.14.14,0,0,1,0-.09L625,230a.12.12,0,0,1,.08,0,.16.16,0,0,1,.09,0l.29.25a.13.13,0,0,1,0,.18.14.14,0,0,1-.18,0l-.2-.17-.14.16.2.17a.12.12,0,0,1,0,.17.11.11,0,0,1-.09.05l-.09,0-.19-.17-.12.13.2.18a.12.12,0,0,1,0,.08.14.14,0,0,1,0,.09.13.13,0,0,1-.09,0Zm0-.1Zm.33-.39Z" style="fill:#ebebeb"/><path d="M625.23,231.52a.18.18,0,0,1-.09,0h0a.12.12,0,0,1,0-.17l.51-.59-.11-.09a.12.12,0,0,1,0-.08.16.16,0,0,1,0-.09.09.09,0,0,1,.08,0,.1.1,0,0,1,.1,0l.39.34a.12.12,0,0,1,0,.17.12.12,0,0,1-.18,0l-.11-.09-.5.58A.14.14,0,0,1,625.23,231.52Zm.36-1Z" style="fill:#ebebeb"/><path d="M626,232.15a.13.13,0,0,1-.08,0l-.29-.26a.12.12,0,0,1,0-.08.14.14,0,0,1,0-.09l.59-.68a.12.12,0,0,1,.08,0l.09,0,.29.25a.13.13,0,0,1,0,.18.12.12,0,0,1-.17,0l-.2-.17-.14.16.2.17a.13.13,0,1,1-.17.19l-.19-.17-.12.14.2.17a.12.12,0,0,1,0,.17A.14.14,0,0,1,626,232.15Zm0-.1Z" style="fill:#ebebeb"/><path d="M607.82,234.14a12.45,12.45,0,0,1,2-1,55.26,55.26,0,0,1,5.52-1c1-.21,1.08.5.94.82s-1.26.6-2.91,1.09a5.45,5.45,0,0,0-2.1.95,27.23,27.23,0,0,0,3.31.29,11.28,11.28,0,0,1,3.14.42c.26.1.55.73.1.94a14,14,0,0,1-3.31.33c-1,0-3,.14-3.14.16a14.39,14.39,0,0,0,2,.55c.74.17,3.48.75,3.79.89s.28.87-.16,1.13-3.67-.14-4.16-.16a15.64,15.64,0,0,0-2.39,0,.59.59,0,0,0-.14.94c.27.19,2.13.14,2.8.37s2.28.79,2.59.94.18.79-.63.86-2.84-.65-3.56-.63a24.41,24.41,0,0,0-3.31.33c-.6.14-1.62.92-2.32,1.11s-2,0-4.06-1.55-15.36-7.78-16.4-9.24-1.24-6.81-.23-8.11,1.5-1.86,1.5-1.86L598.16,232l6.19,3.52a2.73,2.73,0,0,0,2.21-.35,16,16,0,0,0,1.26-1" style="fill:#9a5622"/><path d="M654.38,103.73H469.29c-13.35,0-30.55,1.29-41.74,9H696.12c-11.19-7.74-28.4-9-41.74-9" style="fill:#db162d"/><path d="M681.6,186c-.28,1.3-.5,5.43.49,7s2,1.85,3.77,1.85A8.81,8.81,0,0,0,691,193.1a13.14,13.14,0,0,0,2.72-3.62c-.32-.42-.6-.84-.91-1.26-.52,0-.82-.17-.74-.73s.27-1.35-.22-1.81-1.58-.75-1.8-1.48a5.64,5.64,0,0,0-.88-1.79c-1.15.43-3.12.75-4.08,1.17a7.26,7.26,0,0,1-2.27.51c-.71.11-1,.63-1.26,1.92" style="fill:#7f3c00"/><path d="M690.31,183.43a25.11,25.11,0,0,1-3,2.69c-.92.68-2.1,1.92-3.2,1s-.91-1.88,0-3.12a12.89,12.89,0,0,1,4.38-3.58,1.56,1.56,0,0,1,2.29,1c.41.88.25,1.24-.46,2" style="fill:#9a5622"/><path d="M691.22,184.05c-1.32.55-3,2.19-4,2.82s-1.76,1.91-1.34,2.6c.62,1,1.11,1.06,2.25.54a16,16,0,0,0,4.21-3.3c.92-1.1.61-3.38-1.11-2.66" style="fill:#9a5622"/><path d="M693.65,188.1c-.78-.79-1.7-.38-2.58.28s-2.86,2-3.38,3-.31,1.46.68,1.89,3.08-.63,4.17-1.38,2.58-2.41,1.11-3.74" style="fill:#9a5622"/><path d="M686.64,182.13c1.62-1.32,1.52-1.73,4.53-1.87s7.89-.19,12.13,1.67,5.91,3,11.46,0c4.75-2.56,11.33-6.22,17.09-6.08.77,0,1.1-.49.55-1.08a21.12,21.12,0,0,0-9.47-5.7c-5-1.21-9.18-1.46-13.25,1.61s-8.78.88-14,.15c-7.93-1.1-10.13,6.17-11,13.27.55-.65,1.43-1.3,1.92-2" style="fill:#e7e2de"/><path d="M685.57,180.68a17.71,17.71,0,0,1-2.6,4.07c-.72.94-.54,1-.15,2a4.7,4.7,0,0,1,.41,3.13,2.42,2.42,0,0,0,.68,2.91,4.57,4.57,0,0,0,3.64,1.19,10.09,10.09,0,0,0,3.87-.95c2.34-.85.46.47-3,2.15s-1.83.23-4.69,3.2a179.81,179.81,0,0,1-13.93,12.15c-3.39,2.6-4.38,2.13-8.06,2.36s-10.47,1.33-13.67,1.16-.9-4.81-1-6.2c-.06-.88,1-3.06,1.52-3.94,4.48-.15,8.67-.08,13.25-.27,3.65-2.41,11.27-7.24,13.95-9.18s2.55-1.12,2.88-3.13,0-4.38.57-6.23.72-2.94,1.92-4.26a6.42,6.42,0,0,1,1.4-.93c.81-.54,1.44-.95,2.2-1.52.62.73,1.16,1.12.8,2.29" style="fill:#9a5622"/><path d="M640.16,218.89l12.15-1.43c.08.27.17.54.26.81.95-.08,1.93,0,2.86-.19,2.72-3.66,3.36-9.71,2.43-13.43a8.12,8.12,0,0,0-6.45-6c-2.17-.24-1,.44-2.5.34a3.33,3.33,0,0,1,.08,1l-18.67,1.34,9.84,17.55" style="fill:#d90111"/><polygon points="347.81 187.81 371.91 206.94 342.74 209.16 347.81 187.81" style="fill:#d90111"/><path d="M346.42,202.42c.19-.94.35-1.68.52-2.49l5.13,1.09c.1-.49.2-.94.31-1.47,1,.21,1.88.39,2.79.61.09,0,.15.2.21.31a.87.87,0,0,0,1.47.32,1.27,1.27,0,0,1,.56-.17.74.74,0,0,1,.25,0,1.81,1.81,0,0,1,1.47,2.74,4.32,4.32,0,0,1-.34.68c-.6-.25-.63-.23-.93.68-.14-.15-.3-.23-.36-.36a1.72,1.72,0,0,0-2.94-.65c-.32.29-.64.21-.8-.2a1.71,1.71,0,0,0-2.85-.65c-.39.37-.77.29-1-.19a1.73,1.73,0,0,0-2.87-.6,2.67,2.67,0,0,1-.65.3" style="fill:#fbb03b"/><path d="M347.85,196.12l.68.14.54.12c-.17.84-.34,1.64-.52,2.47l2.89.61L352,197l.71.15-.76,3.57-4.83-1c.25-1.19.5-2.36.77-3.61" style="fill:#fbb03b"/><path d="M353.91,197.21,347,195.75a1.13,1.13,0,0,1,1.37-.87c1.55.31,3.09.64,4.63,1a1.14,1.14,0,0,1,.88,1.34" style="fill:#fbb03b"/><path d="M354.66,205.81c.42,0,.85-.06,1.27-.12a.78.78,0,0,0-.1-1.56.77.77,0,0,0-.78.79,1.62,1.62,0,0,1,0,.18l-.65-.14a1.42,1.42,0,0,1,1.16-1.55,1.53,1.53,0,0,1,1,2.84,1.44,1.44,0,0,1-1.91-.44" style="fill:#fbb03b"/><path d="M349.66,204l-.67-.14a1.65,1.65,0,0,0,.11-.36.76.76,0,0,0-.48-.87.72.72,0,0,0-1,.34,2.94,2.94,0,0,0-.31.92c0,.1.19.31.34.35.46.13.93.21,1.41.31a1.27,1.27,0,0,1-1.73,0,1.51,1.51,0,0,1-.27-2.07,1.55,1.55,0,0,1,2.06-.39,1.47,1.47,0,0,1,.51,1.94" style="fill:#fbb03b"/><path d="M355.59,199a7.4,7.4,0,0,1,.49-1.05c.08-.12.41-.15.59-.11s.51.2.55.35a3.35,3.35,0,0,1-.47,2.39.81.81,0,0,1-.73.26.89.89,0,0,1-.48-.61,5.3,5.3,0,0,1,0-1.23" style="fill:#fbb03b"/><path d="M353.47,204.77l-.63-.13c.14-.84-.07-1.24-.65-1.3s-.81.29-.86,1l-.64-.14a1.29,1.29,0,0,1,.75-1.42,1.52,1.52,0,0,1,1.76.26,1.41,1.41,0,0,1,.27,1.74" style="fill:#fbb03b"/><path d="M359.72,206.7l-1.9-.4c.15-.7.3-1.42.45-2.13a5.68,5.68,0,0,1,1.45,2.53" style="fill:#fbb03b"/><path d="M347.56,203.78l8.1,1.72a42.7,42.7,0,0,1-8.1-1.72" style="fill:#fbb03b"/><path d="M355.28,204.76a.55.55,0,0,1,.7-.42c.36.09.55.36.42.69s-.34.31-.53.46c-.12-.3-.76-.19-.59-.73" style="fill:#fbb03b"/><path d="M348.11,203.76c-.13-.18-.38-.38-.36-.56a.52.52,0,0,1,.68-.45.54.54,0,0,1,.48.67c-.07.43-.38.35-.68.25Z" style="fill:#fbb03b"/><path d="M352.05,204.49c-.28,0-.61-.08-.48-.51a.54.54,0,0,1,.7-.42.53.53,0,0,1,.43.69c-.08.42-.37.31-.65.24" style="fill:#fbb03b"/><path d="M350.92,204.93l1.95.41a1.26,1.26,0,0,1-1.95-.41" style="fill:#fbb03b"/><path d="M346.73,202.53c-.08.34-.12.55-.2.9-.32-.19-.61-.34-.88-.52,0,0,.05-.34.1-.34.31,0,.62,0,1,0" style="fill:#fbb03b"/><path d="M350,204c.05-.27.1-.47.14-.66.44,0,.44,0,.28.72L350,204" style="fill:#fbb03b"/><path d="M354.08,204.9l-.33-.07c-.05-.39.16-.67.48-.62q-.08.33-.15.69" style="fill:#fbb03b"/><path d="M589,218.62l-.73-.76-2.17,1.35s-.57.77.91,3.43a19.29,19.29,0,0,0,6.42,6.58,45,45,0,0,0,5.25,2.58l1.47-1.32-1.5-2.95Z" style="fill:#d90111"/><path d="M518.52,198.47a11.51,11.51,0,0,1-6.82,1.18,31.33,31.33,0,0,1,2.05,5.36c-2.11,0-3.49-1.25-4.92-2.66a31.78,31.78,0,0,1-.35,7.55,7.23,7.23,0,0,1-2.5-4.16,33.57,33.57,0,0,1-.9-4,11.21,11.21,0,0,1-.15-3.56c.18-1.2.6-2.56,1.84-3a9.17,9.17,0,0,1,4-.09,16.43,16.43,0,0,1,7.78,3.39" style="fill:#e44e23"/><path d="M457.59,203.82a14.21,14.21,0,0,0,7.32-.31,27.78,27.78,0,0,0-1,5.56c2.07-.4,3.23-1.81,4.42-3.45a33.63,33.63,0,0,0,1.71,7.26,7.14,7.14,0,0,0,1.79-4.45,30.42,30.42,0,0,0,.18-4,10.4,10.4,0,0,0-.5-3.46c-.42-1.14-1.07-2.35-2.41-2.53a10.37,10.37,0,0,0-4.08.58,15.3,15.3,0,0,0-7.47,4.84" style="fill:#e44e23"/><path d="M542.16,168.34c1.88-1.41.09-.41,1.29-1.38a1.69,1.69,0,0,0-1.71-.53,7.4,7.4,0,0,0-4,2.57c1-1.21,1.9-2.42,2.91-3.64-.34-.57-.61-.56-1.54-.29-1.69.5-3.83,2.54-5,3.83a27.73,27.73,0,0,1-3.2,2.68c0-.91,0-2.37,0-3.16s.19-3.45-.84-3.34-.93.87-1.31,2.45a37.51,37.51,0,0,1-2.25,6.73c-1.08,2.21-.58,2.26-1.49,6s-3.51,12.76-4.91,17.41c.2.65.55.79.8,1.4,2-3.19,3.6-3.67,5.89-7.35s3.55-11.61,5.35-16.29c2.58-2,8.1-5.65,10-7.07" style="fill:#e1937c"/><path d="M534.89,172.9a16.89,16.89,0,0,1,5.34-4.12,5.48,5.48,0,0,1,3.45-.23c-.62.54-1.16,1-1.74,1.55l1,.47c.21.2.42.43.62.61-2,1.56-4.63,2.6-6.11,4.87a13.58,13.58,0,0,1-6.41,5.1c-.11,4.18-.13,10.8-1,14.36s-1.73,6-3.5,8.06a47.31,47.31,0,0,1-4.76,4.4,25.29,25.29,0,0,1-5.87,3.65l-4.14-10.09c3.05-1.56,6-2.94,9.06-4.73,1.46-4.53,4-13.05,5.13-16.69s.57-3.56,2.57-5.29,4-1.23,6.32-1.92" style="fill:#ffbead"/><path d="M430,178.13c-2.11-1.07-.15-.4-1.51-1.14.47-.53.68-.85,1.56-.84a7.27,7.27,0,0,1,4.31,1.82c-1.16-1-2.28-2.05-3.49-3.08.22-.62.47-.67,1.43-.56,1.75.19,4.23,1.81,5.67,2.83a35.74,35.74,0,0,0,3.78,2c-.17-.9-.47-2.34-.58-3.12s-.77-3.41.26-3.47,1.05.71,1.71,2.22a41.22,41.22,0,0,0,3.48,6.31c1.44,2,.91,2.14,2.38,5.78s6.09,12.16,7.78,16.85c-.17.66-.56.82-.78,1.44-2.29-3.12-4-3.49-6.91-6.8s-5.27-10.89-7.89-15.22c-2.92-1.46-9.1-4-11.2-5" style="fill:#e1937c"/><path d="M438.05,181.2a19,19,0,0,0-6.08-3,5.32,5.32,0,0,0-3.37.4c.7.43,1.3.82,2,1.22l-.92.67c-.17.23-.34.49-.49.71,2.26,1.17,5,1.69,6.91,3.57a14.65,14.65,0,0,0,7.16,3.85c.7,4,1.85,10.41,3.14,13.76s2.28,5.59,4.12,7.51,3,2.57,4.76,4.14a28.14,28.14,0,0,0,5.66,3.64c1.54-3.28,3-6.55,4.58-9.81-3.14-1.75-6.19-3.34-9.52-5-2-4.45-6.27-12.47-7.9-16s-1.06-3.49-3.34-4.91-4.29-.53-6.68-.77" style="fill:#ffbead"/><path d="M473.63,224s0,.08,0,.08a1.86,1.86,0,0,1-.34-.05,21.07,21.07,0,0,1-5.62-2.26c-1.6-1-2.73-1.81-4.25-2.74-.16.15-.35.28-.52.43-1.13-.44-2.3-.78-3.4-1.26a64.53,64.53,0,0,1,4.08-8.28c1.07-1.79,1-1.38,1.91-2.75.66.5,1.38.85,2.06,1.3,1.33.29,2.67.57,4,.87A16.79,16.79,0,0,1,473.63,224" style="fill:#afc602"/><path d="M471.48,224.93l.11-.06c-.09,2.53-.09,5,0,7.58,11.27-.45,22.57.11,33.84-.09-.37-4.92-.56-9.84-.84-14.76,2.85-1.13,5.7-2.27,8.52-3.45l.76.52,2.73-1.34c-1.63-4.18-3.23-8.36-4.84-12.54l-2.12,1.12c0,.19-.08.36-.13.57-2.8.65-5.84,1.84-8.57,2.32s-4.12.15-7.12.55-9.14,1.08-11.94,1.52-3.17.65-5.5,1.1a30.19,30.19,0,0,0-7,2.29s0,.05,0,.07c2.88,4.67,3.81,9.33,2.08,14.6" style="fill:#afc602"/><path d="M481.51,205.53c.35,1-.24,2.54.37,3.45,1.54,2.28,4,2.83,7.08,2.64a5.12,5.12,0,0,0,5-6.14c0-.07,0-.11,0-.16a20.47,20.47,0,0,1-12.44.21" style="fill:#ffbea4"/><path d="M493.6,199.65q-6.21-.1-12.43-.11c.11,2,.24,4,.36,6a20.19,20.19,0,0,0,12.42-.19q-.26-2.83-.35-5.67" style="fill:#e2a384"/><path d="M507.34,192.51A2.19,2.19,0,0,1,509,194.3a4.11,4.11,0,0,1-.71,3.58,4.91,4.91,0,0,1-3.13,1.82,2.36,2.36,0,0,1-2.36-.59,2.73,2.73,0,0,1-.37-2.69c.67-2.15,2.46-4.3,5-3.91" style="fill:#004f9a"/><path d="M468.17,196a2.23,2.23,0,0,0-1.38,2,3.72,3.72,0,0,0,1.35,3.28,5.45,5.45,0,0,0,3.51,1.23,2.43,2.43,0,0,0,2.29-.93,2.52,2.52,0,0,0-.1-2.65c-1.07-2-3.3-3.69-5.67-2.89" style="fill:#004f9a"/><path d="M470.42,195.49c-.68,1.09-.58,1.94-2.63,1.69s-5.74-3-7.08-5.19-1.49-4.75,1.91-5.5,6.77,5.93,7.8,9" style="fill:#ffbea4"/><path d="M468.69,194.8a5.32,5.32,0,0,1-4-1.45,7.93,7.93,0,0,1-2.57-3.5c.63-.32.31-2.33,1.83-1.51s3.65,4.68,4.73,6.46" style="fill:#ea9261"/><path d="M507.79,189.31c2.22-.48,3-1.54,4-3.84s.39-7.89-1.11-9.62-1.51-1.06-3-1.1c.08,4.93.1,9.65.08,14.56" style="fill:#ffbea4"/><path d="M508.5,187.1a5.75,5.75,0,0,0,2.23-2.32c.7-1.34.43-5.53-.54-6.54s-1.09-.57-2-.8c.14,3.27.24,6.4.34,9.66" style="fill:#ea9261"/><path d="M460.37,181.7c2.24,6.16,8.9,17.54,15.81,20.39s12.56,3.59,18.61,1.67,10.22-5.09,12.86-10.38,1.88-12.29,1.34-18.14.24-10.33-2.81-16.31-8.7-10.31-17.5-11.18c-6.88-.69-21.08,3-26.29,8.86-4.11,4.64-6.82,7.2-6,12.68s1.77,6.24,4,12.41" style="fill:#ffbea4"/><path d="M494.12,186.93c.28,0,.34-.38.27-.57-.33-.89-.12-2.27-1.37-2.57-1.08-.25-2.67.73-3.59,1.73a1.24,1.24,0,0,0,1.18,1.85c1-.14,2.41-.28,3.51-.44" style="fill:#ea9261"/><path d="M480.7,171.12a1.13,1.13,0,0,1-.95,1c-3.77.32-8,.8-10.65,3.42-.31.31-.55.49-.61.37-.18-.37-.68-.48-.21-1,2.72-3.24,7.07-4.36,11.33-4.82a1.16,1.16,0,0,1,1.09,1.07h0" style="fill:#cc4e23"/><path d="M494.52,168.1a.94.94,0,0,0,1.05.56c3.16-.76,6.72-1.51,9.61-.09.34.16.59.24.6.14.05-.36.43-.59-.11-.92-3.09-1.92-6.95-1.65-10.55-.87a1,1,0,0,0-.6,1.18h0" style="fill:#cc4e23"/><path d="M482.7,168.47a20.34,20.34,0,0,0,14.92-10.84,10.49,10.49,0,0,1-1.61,6.48,7.64,7.64,0,0,0,4.54-5.31c2,.48,4,1,5,2.9a5.6,5.6,0,0,1,.48,2.31,69.53,69.53,0,0,0,4.34,17.61c-.08-3.59-.06-7.12-.22-10.72-.21-4.49-.43-8.84-2.59-12.9a16.54,16.54,0,0,0-3.06-4.16c-2.57-2.56-3.09-3.78-7.29-5.73a29.31,29.31,0,0,0-12.08-1.66c-8.57.91-17.25,3.12-24.61,8.72a21.84,21.84,0,0,0-5.8,8.11,10.86,10.86,0,0,0-.6,4.11,32.78,32.78,0,0,0,10.43,23.67c1.5-5.47,1.22-10.75.71-16.34a16.34,16.34,0,0,1,1.2,6.52l5.25-7.84a61.41,61.41,0,0,0,4.49-7.58,6.21,6.21,0,0,1-.64,3.86,10.18,10.18,0,0,1,2.5-1.73c1-.7,1.8-1.33,2.66-2,1.7-1.38,3.32-2.87,4.83-4.37.78-.77,1.62-1.7,2.25-2.4s1.22-1.59,1.31-.23c.11,1.69-1.05,3.72-2,5.13a14.83,14.83,0,0,1-4.47,4.42" style="fill:#e44e23"/><path d="M499.83,192.24a2.35,2.35,0,0,0-.76-3c-.38-.37-1.17-.27-1.7-.27a6.82,6.82,0,0,1-5.1,3.29c-2.46.33-4.37.44-6.18-1.16a16.78,16.78,0,0,0-2,.61c-2.31,1.39.29,3.66,1.7,4.65a4.09,4.09,0,0,0,.46.25c1.14-1,2-2.17,3.65-2.49a11.83,11.83,0,0,1,7.95,1.14,8.75,8.75,0,0,0,2-3.06" style="fill:#b50c19"/><path d="M492.28,192.3a6.84,6.84,0,0,0,5.09-3.29c-1.86.18-3.38.49-5.35.81-1.8.3-4,.81-5.92,1.32,1.78,1.6,3.71,1.49,6.18,1.16" style="fill:#f4f4f2"/><path d="M489.85,194.16c-1.63.32-2.51,1.47-3.65,2.5a11.22,11.22,0,0,0,8.13.87,9.8,9.8,0,0,0,3.46-2.21,11.63,11.63,0,0,0-7.94-1.16" style="fill:#e1404a"/><path d="M503,232.34c-.63-3.54-.09-10.48-.72-13.21s-.08-1.5-3.09-1.75-14.57.42-17.78.86-3.88-1.55-4.79,1.78c-.58,2.1,0,9.24-.4,12.23,9,.13,17.8.28,26.78.09" style="fill:#004f9a"/><path d="M497.44,220.45a1.57,1.57,0,0,1,1.57-1.6,1.49,1.49,0,0,1,1.55,1.56A1.57,1.57,0,0,1,499,222a1.51,1.51,0,0,1-1.55-1.56" style="fill:#f6af20"/><path d="M498.66,220.21h-.33v-1.65l-1.32,0v-2.1h.17l3.71-.07H501v.16c0,.6,0,1.19,0,1.78v.16l-1.19,0c0,.34,0,.69,0,1v.5h-.33v-.5c0-.4,0-.8,0-1.19v-.17l1.19,0c0-.48,0-1,0-1.44l-3.38.06v1.44l1.32,0v2Z" style="fill:#f6af20"/><path d="M500.68,217.59l-3.25.06c0-4.3-.19-8.6-.38-12.89l3.23-.08c.18,4.3.38,8.6.4,12.91" style="fill:#004f9a"/><path d="M499,221.66a1.22,1.22,0,0,1-.85-.34,1.24,1.24,0,0,1-.35-.87h0A1.23,1.23,0,0,1,499,219.2a1.08,1.08,0,0,1,.86.34,1.18,1.18,0,0,1,.36.88,1.22,1.22,0,0,1-1.22,1.24Zm-.87-1.21a.87.87,0,0,0,.26.64.84.84,0,0,0,.61.24h0a.92.92,0,0,0,.64-1.56.88.88,0,0,0-.61-.24h0a.9.9,0,0,0-.9.92Z" style="fill:#f59400"/><path d="M477.81,220.57a1.56,1.56,0,0,1,1.39-1.73,1.5,1.5,0,0,1,1.73,1.33,1.56,1.56,0,0,1-1.41,1.72,1.48,1.48,0,0,1-1.71-1.32" style="fill:#f6af20"/><path d="M478.67,220.23c0-.46-.1-.92-.15-1.38l0-.2-1.31.17,0-.17c-.07-.56-.13-1.11-.2-1.67l0-.16.16-.06,2.28-.3,1.43-.18.16,0,.24,2.05-1.18.15,0,.3c.05.39.09.78.13,1.17l-.33,0c0-.39-.08-.78-.13-1.17l-.07-.63,1.18-.15-.16-1.38-1.27.16-2.12.28c.06.47.11.93.17,1.38l1.31-.17.06.53c.06.46.12.92.16,1.39Z" style="fill:#f6af20"/><path d="M480.74,217.44l-3.25.42c-.43-3.5-.93-7-1.47-10.48l3.26-.46c.54,3.5,1,7,1.46,10.52" style="fill:#004f9a"/><path d="M479.33,221.57a1.18,1.18,0,0,1-.75-.26,1.14,1.14,0,0,1-.43-.79,1.22,1.22,0,0,1,1.08-1.35,1.19,1.19,0,0,1,.92.25,1.15,1.15,0,0,1,.44.8,1.23,1.23,0,0,1-1.1,1.34Zm.08-2.08h-.13a.89.89,0,0,0-.8,1,.8.8,0,0,0,.3.57.87.87,0,0,0,.67.18.89.89,0,0,0,.81-1,.85.85,0,0,0-.31-.57A.87.87,0,0,0,479.41,219.49Z" style="fill:#f59400"/><path d="M497,232.35c0-3,0-6,0-9.06-4.94,0-9.88.12-14.81.2,0,3-.07,5.93,0,8.89,4.94.06,9.89-.07,14.83,0" style="fill:#1960a4"/><path d="M493,225.42a.77.77,0,0,0-.33-.34,1.31,1.31,0,0,0-.74-.08.81.81,0,0,0-.31.06.61.61,0,0,0-.31.55,1.12,1.12,0,0,0,.22.63c.29.44.91,1.22,1.5,1s.26-1.29,0-1.78" style="fill:#cabe57"/><path d="M491.66,226.05a.79.79,0,0,0-.48,0,1.48,1.48,0,0,0-.59.48,1,1,0,0,0-.17.27.55.55,0,0,0,.18.59,1.07,1.07,0,0,0,.61.27c.52.08,1.53.17,1.75-.44s-.75-1.06-1.3-1.17" style="fill:#cabe57"/><path d="M491.2,227.39a.85.85,0,0,0-.34.36,1.3,1.3,0,0,0-.07.74.67.67,0,0,0,.07.31.58.58,0,0,0,.56.27,1.24,1.24,0,0,0,.62-.25c.42-.32,1.21-1,.93-1.56s-1.31-.18-1.77.13" style="fill:#cabe57"/><path d="M491.84,228.64a.83.83,0,0,0,0,.49,1.22,1.22,0,0,0,.49.55.74.74,0,0,0,.27.16.6.6,0,0,0,.6-.21,1.31,1.31,0,0,0,.25-.62c.07-.52.15-1.54-.47-1.73s-1.05.81-1.16,1.36" style="fill:#cabe57"/><path d="M493.2,229a.81.81,0,0,0,.36.32,1.35,1.35,0,0,0,.75,0,.84.84,0,0,0,.31-.08.61.61,0,0,0,.26-.57,1.2,1.2,0,0,0-.27-.61c-.33-.42-1-1.16-1.58-.85s-.16,1.3.17,1.76" style="fill:#cabe57"/><path d="M494.44,228.32a.8.8,0,0,0,.48,0,1.44,1.44,0,0,0,.55-.52.84.84,0,0,0,.15-.28.58.58,0,0,0-.23-.58,1.17,1.17,0,0,0-.62-.23c-.53-.05-1.54-.07-1.72.56s.83,1,1.39,1.08" style="fill:#cabe57"/><path d="M494.8,227a.91.91,0,0,0,.31-.38,1.27,1.27,0,0,0,0-.75.86.86,0,0,0-.09-.3.57.57,0,0,0-.57-.24,1.26,1.26,0,0,0-.6.3c-.4.35-1.14,1.06-.82,1.63s1.32.08,1.76-.26" style="fill:#cabe57"/><path d="M494.06,225.74a.81.81,0,0,0,0-.48,1.39,1.39,0,0,0-.53-.52.66.66,0,0,0-.28-.13.58.58,0,0,0-.58.25,1.28,1.28,0,0,0-.21.64c0,.52,0,1.54.59,1.69s1-.88,1.05-1.45" style="fill:#cabe57"/><path d="M492.21,227.24a.79.79,0,0,1,.8-.8.76.76,0,0,1,.79.79.79.79,0,0,1-.8.8.77.77,0,0,1-.79-.79" style="fill:#edf3e0"/><path d="M486.24,232.42a3.22,3.22,0,0,0-.34-.75.84.84,0,0,0-.34-.36,1.4,1.4,0,0,0-.74-.09.85.85,0,0,0-.31.06.6.6,0,0,0-.3.54,1.35,1.35,0,0,0,.21.59h1.82" style="fill:#cabe57"/><path d="M485.14,232.41a3.28,3.28,0,0,0-.51-.15,1,1,0,0,0-.46,0,.8.8,0,0,0-.29.15h1.26" style="fill:#cabe57"/><path d="M488.12,232.4c0-.11,0-.23-.05-.34a1,1,0,0,0-.1-.3.59.59,0,0,0-.58-.23,1.21,1.21,0,0,0-.59.29,4,4,0,0,0-.56.6l1.88,0" style="fill:#cabe57"/><path d="M487,232.42A3.11,3.11,0,0,0,487,232a1,1,0,0,0-.05-.48,1.42,1.42,0,0,0-.54-.52.82.82,0,0,0-.28-.14.61.61,0,0,0-.57.25,1.18,1.18,0,0,0-.2.63,4,4,0,0,0,0,.69H487" style="fill:#cabe57"/><path d="M494.74,232.33a.77.77,0,0,0-.07-.26.59.59,0,0,0-.55-.3,1.22,1.22,0,0,0-.62.22,4.07,4.07,0,0,0-.45.34h1.69" style="fill:#cabe57"/><path d="M493.66,232.33c0-.05,0-.1,0-.15a1,1,0,0,0,0-.49,1.45,1.45,0,0,0-.48-.58.81.81,0,0,0-.27-.16.6.6,0,0,0-.6.19,1.18,1.18,0,0,0-.27.6c0,.21,0,.39-.06.6h1.66" style="fill:#cabe57"/><path d="M492.66,232.34a2.89,2.89,0,0,0-.33-.6.88.88,0,0,0-.35-.34,1.38,1.38,0,0,0-.76-.05.79.79,0,0,0-.3.08.6.6,0,0,0-.28.55.93.93,0,0,0,.1.38c.64,0,1.28,0,1.92,0" style="fill:#cabe57"/><path d="M487.89,227.14a.78.78,0,0,0,.36-.34,1.49,1.49,0,0,0,.1-.74.85.85,0,0,0-.06-.31.57.57,0,0,0-.55-.29,1.21,1.21,0,0,0-.62.23c-.44.3-1.25.93-1,1.53s1.3.22,1.77-.08" style="fill:#cabe57"/><path d="M487.3,225.87a.86.86,0,0,0,0-.48,1.34,1.34,0,0,0-.47-.57.69.69,0,0,0-.26-.17.61.61,0,0,0-.6.2,1.28,1.28,0,0,0-.28.6c-.09.52-.21,1.53.4,1.75s1.07-.78,1.2-1.33" style="fill:#cabe57"/><path d="M486,225.44a.8.8,0,0,0-.35-.33,1.31,1.31,0,0,0-.74-.05.68.68,0,0,0-.31.08.58.58,0,0,0-.29.55,1.16,1.16,0,0,0,.24.61c.31.43,1,1.19,1.54.9s.22-1.29-.09-1.76" style="fill:#cabe57"/><path d="M484.7,226.11a.8.8,0,0,0-.48,0,1.39,1.39,0,0,0-.57.49.74.74,0,0,0-.16.27.58.58,0,0,0,.2.59,1.18,1.18,0,0,0,.62.24c.52.07,1.53.13,1.73-.49s-.79-1-1.34-1.12" style="fill:#cabe57"/><path d="M484.29,227.46a.78.78,0,0,0-.33.36,1.41,1.41,0,0,0,0,.74.8.8,0,0,0,.09.3.56.56,0,0,0,.56.26,1.12,1.12,0,0,0,.61-.27c.41-.33,1.17-1,.87-1.59s-1.31-.12-1.76.2" style="fill:#cabe57"/><path d="M485,228.68a.83.83,0,0,0,0,.49,1.38,1.38,0,0,0,.51.54.82.82,0,0,0,.28.14.59.59,0,0,0,.58-.23,1.2,1.2,0,0,0,.23-.63c.05-.52.09-1.53-.53-1.71s-1,.85-1.1,1.4" style="fill:#cabe57"/><path d="M486.34,229a.76.76,0,0,0,.37.31,1.28,1.28,0,0,0,.75,0,.71.71,0,0,0,.3-.1.59.59,0,0,0,.24-.58,1.06,1.06,0,0,0-.29-.59c-.34-.41-1-1.12-1.6-.79s-.11,1.31.23,1.75" style="fill:#cabe57"/><path d="M487.55,228.27a.9.9,0,0,0,.48-.06,1.45,1.45,0,0,0,.53-.54.78.78,0,0,0,.14-.29.57.57,0,0,0-.24-.57,1.12,1.12,0,0,0-.63-.19c-.53,0-1.54,0-1.7.62s.86,1,1.42,1" style="fill:#cabe57"/><path d="M486.1,226.44a.76.76,0,0,1,.78.79.79.79,0,0,1-.8.8.76.76,0,0,1-.79-.79.8.8,0,0,1,.81-.8" style="fill:#edf3e0"/><g style="opacity:0.580002009868622"><g style="clip-path:url(#clip-path-7)"><g style="clip-path:url(#clip-path-8)"><g style="clip-path:url(#clip-path-9)"><rect x="473.78" y="189.72" width="8.46" height="8.83" style="fill:#ffbea4"/><circle cx="478.03" cy="194.13" r="4.09" style="fill:#ffbea4"/><circle cx="478.03" cy="194.13" r="4.02" style="fill:#ffbda4"/><circle cx="478.03" cy="194.13" r="3.94" style="fill:#febca3"/><circle cx="478.03" cy="194.13" r="3.86" style="fill:#febba3"/><circle cx="478.03" cy="194.13" r="3.78" style="fill:#febaa3"/><circle cx="478.03" cy="194.13" r="3.7" style="fill:#fdb9a2"/><circle cx="478.03" cy="194.13" r="3.62" style="fill:#fdb8a2"/><circle cx="478.03" cy="194.13" r="3.54" style="fill:#fdb7a2"/><circle cx="478.03" cy="194.13" r="3.46" style="fill:#fcb6a1"/><circle cx="478.03" cy="194.13" r="3.39" style="fill:#fcb5a1"/><circle cx="478.03" cy="194.13" r="3.31" style="fill:#fcb4a1"/><circle cx="478.03" cy="194.13" r="3.23" style="fill:#fbb3a1"/><circle cx="478.03" cy="194.13" r="3.15" style="fill:#fbb2a0"/><circle cx="478.03" cy="194.13" r="3.07" style="fill:#fbb1a0"/><circle cx="478.03" cy="194.13" r="2.99" style="fill:#fab0a0"/><circle cx="478.03" cy="194.13" r="2.91" style="fill:#faaf9f"/><circle cx="478.03" cy="194.13" r="2.83" style="fill:#faae9f"/><circle cx="478.03" cy="194.13" r="2.76" style="fill:#f9ad9f"/><circle cx="478.03" cy="194.13" r="2.68" style="fill:#f9ac9e"/><circle cx="478.03" cy="194.13" r="2.6" style="fill:#f9aa9e"/><circle cx="478.03" cy="194.13" r="2.52" style="fill:#f8a99e"/><circle cx="478.03" cy="194.13" r="2.44" style="fill:#f8a89d"/><circle cx="478.03" cy="194.13" r="2.36" style="fill:#f8a79d"/><circle cx="478.03" cy="194.13" r="2.28" style="fill:#f7a69d"/><circle cx="478.03" cy="194.13" r="2.2" style="fill:#f7a59c"/><circle cx="478.03" cy="194.13" r="2.13" style="fill:#f7a49c"/><circle cx="478.03" cy="194.13" r="2.05" style="fill:#f6a39c"/><circle cx="478.03" cy="194.13" r="1.97" style="fill:#f6a29b"/><circle cx="478.03" cy="194.13" r="1.89" style="fill:#f6a19b"/><circle cx="478.03" cy="194.13" r="1.81" style="fill:#f5a09b"/><circle cx="478.03" cy="194.13" r="1.73" style="fill:#f59f9b"/><circle cx="478.03" cy="194.13" r="1.65" style="fill:#f59e9a"/><circle cx="478.03" cy="194.13" r="1.57" style="fill:#f49d9a"/><circle cx="478.03" cy="194.13" r="1.5" style="fill:#f49c9a"/><circle cx="478.03" cy="194.13" r="1.42" style="fill:#f49b99"/><circle cx="478.03" cy="194.13" r="1.34" style="fill:#f39a99"/><circle cx="478.03" cy="194.13" r="1.26" style="fill:#f39999"/><circle cx="478.03" cy="194.13" r="1.18" style="fill:#f39898"/><circle cx="478.03" cy="194.13" r="1.1" style="fill:#f29798"/><circle cx="478.03" cy="194.13" r="1.02" style="fill:#f29698"/><circle cx="478.03" cy="194.13" r="0.94" style="fill:#f29597"/><circle cx="478.03" cy="194.13" r="0.87" style="fill:#f19497"/><circle cx="478.03" cy="194.13" r="0.79" style="fill:#f19397"/><circle cx="478.03" cy="194.13" r="0.71" style="fill:#f19296"/><circle cx="478.03" cy="194.13" r="0.63" style="fill:#f09196"/><circle cx="478.03" cy="194.13" r="0.55" style="fill:#f09096"/><circle cx="478.03" cy="194.13" r="0.47" style="fill:#f08f96"/><circle cx="478.03" cy="194.13" r="0.39" style="fill:#ef8e95"/><circle cx="478.03" cy="194.13" r="0.31" style="fill:#ef8d95"/><circle cx="478.03" cy="194.13" r="0.24" style="fill:#ef8c95"/><circle cx="478.03" cy="194.13" r="0.16" style="fill:#ee8b94"/><circle cx="478.03" cy="194.13" r="0.08" style="fill:#ee8a94"/></g></g></g></g><g style="opacity:0.580002009868622"><g style="clip-path:url(#clip-path-10)"><g style="clip-path:url(#clip-path-11)"><g style="clip-path:url(#clip-path-12)"><rect x="500.93" y="183.52" width="7.93" height="8.76" style="fill:#ffbea4"/><circle cx="504.87" cy="187.9" r="4.11" style="fill:#ffbea4"/><circle cx="504.87" cy="187.9" r="4.03" style="fill:#ffbda4"/><circle cx="504.87" cy="187.9" r="3.95" style="fill:#febca3"/><circle cx="504.87" cy="187.9" r="3.87" style="fill:#febba3"/><circle cx="504.87" cy="187.9" r="3.8" style="fill:#febaa3"/><circle cx="504.87" cy="187.9" r="3.72" style="fill:#fdb9a2"/><circle cx="504.87" cy="187.9" r="3.64" style="fill:#fdb8a2"/><circle cx="504.87" cy="187.9" r="3.56" style="fill:#fdb7a2"/><circle cx="504.87" cy="187.9" r="3.48" style="fill:#fcb6a1"/><circle cx="504.87" cy="187.9" r="3.4" style="fill:#fcb5a1"/><circle cx="504.87" cy="187.9" r="3.32" style="fill:#fcb4a1"/><circle cx="504.87" cy="187.9" r="3.24" style="fill:#fbb3a1"/><circle cx="504.87" cy="187.9" r="3.16" style="fill:#fbb2a0"/><circle cx="504.87" cy="187.9" r="3.08" style="fill:#fbb1a0"/><circle cx="504.87" cy="187.9" r="3.01" style="fill:#fab0a0"/><circle cx="504.87" cy="187.9" r="2.93" style="fill:#faaf9f"/><circle cx="504.87" cy="187.9" r="2.85" style="fill:#faae9f"/><circle cx="504.87" cy="187.9" r="2.77" style="fill:#f9ad9f"/><circle cx="504.87" cy="187.9" r="2.69" style="fill:#f9ac9e"/><circle cx="504.87" cy="187.9" r="2.61" style="fill:#f9aa9e"/><circle cx="504.87" cy="187.9" r="2.53" style="fill:#f8a99e"/><circle cx="504.87" cy="187.9" r="2.45" style="fill:#f8a89d"/><circle cx="504.87" cy="187.9" r="2.37" style="fill:#f8a79d"/><circle cx="504.87" cy="187.9" r="2.29" style="fill:#f7a69d"/><circle cx="504.87" cy="187.9" r="2.21" style="fill:#f7a59c"/><circle cx="504.87" cy="187.9" r="2.14" style="fill:#f7a49c"/><circle cx="504.87" cy="187.9" r="2.06" style="fill:#f6a39c"/><circle cx="504.87" cy="187.9" r="1.98" style="fill:#f6a29b"/><circle cx="504.87" cy="187.9" r="1.9" style="fill:#f6a19b"/><circle cx="504.87" cy="187.9" r="1.82" style="fill:#f5a09b"/><circle cx="504.87" cy="187.9" r="1.74" style="fill:#f59f9b"/><circle cx="504.87" cy="187.9" r="1.66" style="fill:#f59e9a"/><circle cx="504.87" cy="187.9" r="1.58" style="fill:#f49d9a"/><circle cx="504.87" cy="187.9" r="1.5" style="fill:#f49c9a"/><circle cx="504.87" cy="187.9" r="1.42" style="fill:#f49b99"/><circle cx="504.87" cy="187.9" r="1.34" style="fill:#f39a99"/><circle cx="504.87" cy="187.9" r="1.27" style="fill:#f39999"/><circle cx="504.87" cy="187.9" r="1.19" style="fill:#f39898"/><circle cx="504.87" cy="187.9" r="1.11" style="fill:#f29798"/><circle cx="504.87" cy="187.9" r="1.03" style="fill:#f29698"/><circle cx="504.87" cy="187.9" r="0.95" style="fill:#f29597"/><circle cx="504.87" cy="187.9" r="0.87" style="fill:#f19497"/><circle cx="504.87" cy="187.9" r="0.79" style="fill:#f19397"/><circle cx="504.87" cy="187.9" r="0.71" style="fill:#f19296"/><circle cx="504.87" cy="187.9" r="0.63" style="fill:#f09196"/><circle cx="504.87" cy="187.9" r="0.55" style="fill:#f09096"/><circle cx="504.87" cy="187.9" r="0.47" style="fill:#f08f96"/><circle cx="504.87" cy="187.9" r="0.4" style="fill:#ef8e95"/><circle cx="504.87" cy="187.9" r="0.32" style="fill:#ef8d95"/><circle cx="504.87" cy="187.9" r="0.24" style="fill:#ef8c95"/><circle cx="504.87" cy="187.9" r="0.16" style="fill:#ee8b94"/><circle cx="504.87" cy="187.9" r="0.08" style="fill:#ee8a94"/></g></g></g></g><path d="M501.14,186.88a7.82,7.82,0,0,1-7.92-7.66h0a8,8,0,1,1,15.94-.75,7.85,7.85,0,0,1-7.6,8.4Zm-6.93-7.7a7,7,0,1,0,14-.67,7,7,0,1,0-14,.67Z" style="fill:#8478a7"/><path d="M479.43,191.26a8,8,0,0,1-5.47-2,7.79,7.79,0,0,1-2.51-5.47,7.9,7.9,0,0,1,7.65-8.41,8,8,0,0,1,5.83,2,8.16,8.16,0,0,1,.59,11.31,8.11,8.11,0,0,1-5.65,2.59Zm.12-14.95h-.4a7.05,7.05,0,0,0-4.52,12.16,7.39,7.39,0,0,0,10.15-.48,7,7,0,0,0-5.23-11.69Z" style="fill:#8478a7"/><path d="M487.29,181.28l-.72-.68c2.32-2.48,5.18-1.83,7.12-1.13l-.33.93C490.65,179.42,488.78,179.7,487.29,181.28Z" style="fill:#8478a7"/><path d="M465.05,186.51a.49.49,0,0,1-.49-.41.48.48,0,0,1,.4-.57l2.74-.53c.91-.18,1.78-.35,2.31-.44a6.49,6.49,0,0,1,.93-.14c.11,0,.23,0,.59-.08a.5.5,0,0,1,.17,1,6.28,6.28,0,0,1-.69.09,7.21,7.21,0,0,0-.83.12l-2.29.44-2.75.53Z" style="fill:#8478a7"/><path d="M613.74,203.41c0,1.8.08,3.35.14,3.54.14.51,2.08,2.94,6.81,2.94s5.59-3.37,5.45-6.09a.92.92,0,0,0,0-.16,18,18,0,0,1-12.39-.23" style="fill:#9a5622"/><path d="M626.07,197.92l-12.41-.58s0,3.32.08,6.07a18,18,0,0,0,12.39.23c-.13-2.69-.06-5.72-.06-5.72" style="fill:#783d15"/><path d="M594.38,181s-3.58-1.65-5.65-.83-.81,3.28-.81,3.28-1,3.88,1.09,6.08,4.26,2.89,6.74,2.2c0,0,0-.14,1.51,1.79s6.33,9.08,20.09,9.08,18.58-9.77,19.27-12.8l.68-3s3.86-2.07,4-5.92,0-6.88-3-7.71l-2.2-11.55-12.53-8.95-8.94-.13-15.68,5.77L592,159.81,590.52,165Z" style="fill:#9a5622"/><path d="M620.67,184.31c-1-1.49-2-2.32-3-2.12s-1.69,1.38-2,3.13Z" style="fill:#783d15"/><g style="opacity:0.580002009868622"><g style="clip-path:url(#clip-path-13)"><g style="clip-path:url(#clip-path-14)"><g style="clip-path:url(#clip-path-15)"><rect x="600.26" y="188.5" width="8.34" height="8.9" style="fill:#9a5622"/><circle cx="604.46" cy="192.95" r="4.18" style="fill:#9a5622"/><circle cx="604.46" cy="192.95" r="4.09" style="fill:#9a5522"/><circle cx="604.46" cy="192.95" r="4" style="fill:#9a5422"/><circle cx="604.46" cy="192.95" r="3.91" style="fill:#9a5322"/><circle cx="604.46" cy="192.95" r="3.82" style="fill:#9a5222"/><circle cx="604.46" cy="192.95" r="3.73" style="fill:#9a5122"/><circle cx="604.46" cy="192.95" r="3.64" style="fill:#9a5022"/><circle cx="604.46" cy="192.95" r="3.54" style="fill:#9a4f22"/><circle cx="604.46" cy="192.95" r="3.45" style="fill:#9a4e22"/><circle cx="604.46" cy="192.95" r="3.36" style="fill:#9a4d22"/><circle cx="604.46" cy="192.95" r="3.27" style="fill:#9a4c22"/><circle cx="604.46" cy="192.95" r="3.18" style="fill:#9a4b22"/><circle cx="604.46" cy="192.95" r="3.09" style="fill:#9a4a22"/><circle cx="604.46" cy="192.95" r="3" style="fill:#9a4922"/><circle cx="604.46" cy="192.95" r="2.91" style="fill:#9a4822"/><circle cx="604.46" cy="192.95" r="2.82" style="fill:#9a4722"/><circle cx="604.46" cy="192.95" r="2.73" style="fill:#9a4622"/><circle cx="604.46" cy="192.95" r="2.64" style="fill:#9a4522"/><circle cx="604.46" cy="192.95" r="2.54" style="fill:#9a4422"/><circle cx="604.46" cy="192.95" r="2.45" style="fill:#9a4322"/><circle cx="604.46" cy="192.95" r="2.36" style="fill:#9a4222"/><circle cx="604.46" cy="192.95" r="2.27" style="fill:#9a4122"/><circle cx="604.46" cy="192.95" r="2.18" style="fill:#9a3f22"/><circle cx="604.46" cy="192.95" r="2.09" style="fill:#9a3e22"/><circle cx="604.46" cy="192.95" r="2" style="fill:#9a3d22"/><circle cx="604.46" cy="192.95" r="1.91" style="fill:#9a3c22"/><circle cx="604.46" cy="192.95" r="1.82" style="fill:#9a3b22"/><circle cx="604.46" cy="192.95" r="1.73" style="fill:#9a3a22"/><circle cx="604.46" cy="192.95" r="1.64" style="fill:#9a3922"/><circle cx="604.46" cy="192.95" r="1.55" style="fill:#9a3822"/><circle cx="604.46" cy="192.95" r="1.45" style="fill:#9a3722"/><circle cx="604.46" cy="192.95" r="1.36" style="fill:#9a3622"/><circle cx="604.46" cy="192.95" r="1.27" style="fill:#9a3522"/><circle cx="604.46" cy="192.95" r="1.18" style="fill:#9a3422"/><circle cx="604.46" cy="192.95" r="1.09" style="fill:#9a3322"/><circle cx="604.46" cy="192.95" r="1" style="fill:#9a3222"/><circle cx="604.46" cy="192.95" r="0.91" style="fill:#9a3122"/><circle cx="604.46" cy="192.95" r="0.82" style="fill:#9a3022"/><circle cx="604.46" cy="192.95" r="0.73" style="fill:#9a2f22"/><circle cx="604.46" cy="192.95" r="0.64" style="fill:#9a2e22"/><circle cx="604.46" cy="192.95" r="0.55" style="fill:#9a2d22"/><circle cx="604.46" cy="192.95" r="0.45" style="fill:#9a2c22"/><circle cx="604.46" cy="192.95" r="0.36" style="fill:#9a2b22"/><circle cx="604.46" cy="192.95" r="0.27" style="fill:#9a2a22"/><circle cx="604.46" cy="192.95" r="0.18" style="fill:#9a2922"/><circle cx="604.46" cy="192.95" r="0.09" style="fill:#9a2822"/></g></g></g></g><g style="opacity:0.580002009868622"><g style="clip-path:url(#clip-path-16)"><g style="clip-path:url(#clip-path-17)"><g style="clip-path:url(#clip-path-18)"><rect x="626.97" y="183.53" width="8.34" height="8.9" style="fill:#9a5622"/><circle cx="631.12" cy="187.98" r="4.18" style="fill:#9a5622"/><circle cx="631.12" cy="187.98" r="4.09" style="fill:#9a5522"/><circle cx="631.12" cy="187.98" r="4" style="fill:#9a5422"/><circle cx="631.12" cy="187.98" r="3.91" style="fill:#9a5322"/><circle cx="631.12" cy="187.98" r="3.82" style="fill:#9a5222"/><circle cx="631.12" cy="187.98" r="3.73" style="fill:#9a5122"/><circle cx="631.12" cy="187.98" r="3.64" style="fill:#9a5022"/><circle cx="631.12" cy="187.98" r="3.54" style="fill:#9a4f22"/><circle cx="631.12" cy="187.98" r="3.45" style="fill:#9a4e22"/><circle cx="631.12" cy="187.98" r="3.36" style="fill:#9a4d22"/><circle cx="631.12" cy="187.98" r="3.27" style="fill:#9a4c22"/><circle cx="631.12" cy="187.98" r="3.18" style="fill:#9a4b22"/><circle cx="631.12" cy="187.98" r="3.09" style="fill:#9a4a22"/><circle cx="631.12" cy="187.98" r="3" style="fill:#9a4922"/><circle cx="631.12" cy="187.98" r="2.91" style="fill:#9a4822"/><circle cx="631.12" cy="187.98" r="2.82" style="fill:#9a4722"/><circle cx="631.12" cy="187.98" r="2.73" style="fill:#9a4622"/><circle cx="631.12" cy="187.98" r="2.64" style="fill:#9a4522"/><circle cx="631.12" cy="187.98" r="2.54" style="fill:#9a4422"/><circle cx="631.12" cy="187.98" r="2.45" style="fill:#9a4322"/><circle cx="631.12" cy="187.98" r="2.36" style="fill:#9a4222"/><circle cx="631.12" cy="187.98" r="2.27" style="fill:#9a4122"/><circle cx="631.12" cy="187.98" r="2.18" style="fill:#9a3f22"/><circle cx="631.12" cy="187.98" r="2.09" style="fill:#9a3e22"/><circle cx="631.12" cy="187.98" r="2" style="fill:#9a3d22"/><circle cx="631.12" cy="187.98" r="1.91" style="fill:#9a3c22"/><circle cx="631.12" cy="187.98" r="1.82" style="fill:#9a3b22"/><circle cx="631.12" cy="187.98" r="1.73" style="fill:#9a3a22"/><circle cx="631.12" cy="187.98" r="1.64" style="fill:#9a3922"/><circle cx="631.12" cy="187.98" r="1.55" style="fill:#9a3822"/><circle cx="631.12" cy="187.98" r="1.45" style="fill:#9a3722"/><circle cx="631.12" cy="187.98" r="1.36" style="fill:#9a3622"/><circle cx="631.12" cy="187.98" r="1.27" style="fill:#9a3522"/><circle cx="631.12" cy="187.98" r="1.18" style="fill:#9a3422"/><circle cx="631.12" cy="187.98" r="1.09" style="fill:#9a3322"/><circle cx="631.12" cy="187.98" r="1" style="fill:#9a3222"/><circle cx="631.12" cy="187.98" r="0.91" style="fill:#9a3122"/><circle cx="631.12" cy="187.98" r="0.82" style="fill:#9a3022"/><circle cx="631.12" cy="187.98" r="0.73" style="fill:#9a2f22"/><circle cx="631.12" cy="187.98" r="0.64" style="fill:#9a2e22"/><circle cx="631.12" cy="187.98" r="0.55" style="fill:#9a2d22"/><circle cx="631.12" cy="187.98" r="0.45" style="fill:#9a2c22"/><circle cx="631.12" cy="187.98" r="0.36" style="fill:#9a2b22"/><circle cx="631.12" cy="187.98" r="0.27" style="fill:#9a2a22"/><circle cx="631.12" cy="187.98" r="0.18" style="fill:#9a2922"/><circle cx="631.12" cy="187.98" r="0.09" style="fill:#9a2822"/></g></g></g></g><path d="M593.15,184.32s1.4,1.12,1.57,2a15.7,15.7,0,0,1,.17,2.3,2.35,2.35,0,0,1-3.37-.11c-2-1.63-1.74-3.65-.73-4.27a3.18,3.18,0,0,1,2.36.06" style="fill:#783d15"/><path d="M637.83,180v3.52a3.71,3.71,0,0,0,2.14-3.1,5.34,5.34,0,0,0-1-3.73s-1.59-1.38-1.17,3.31" style="fill:#783d15"/><path d="M595,163.74s3.77,3,1.3,7c0,0,3,3.91.15,6.23,0,0,.29,4.78-1.16,6.37,0,0-1.89-2.17-3.77-2.17s-3.77.58-3.62,2.32c0,0-4.5-2.75-4.35-5.36,0,0-4.49-5.51-2-8.7,0,0-2.46-4.78.43-7.68,0,0-.14-4.64,3.19-5.51l3.34-.87s-1.89-3.91,1.88-5.5,3-1.6,3-1.6-.29-4.06,2.76-5.07,4.2-.58,4.2-.58,1.59-4.93,8.7-4.93,8,5.65,8,5.65,1.13-4.3,7.24-3.62c3.92.44,2.47,5.65,2.47,5.65a7.33,7.33,0,0,1,8.26,1c3.91,3.48,1,7.68,1,7.68a7.55,7.55,0,0,1,5.51,5.8c.29,1.59-2.61,4.2-2.61,4.2a2.75,2.75,0,0,1,2.47,2.46c.28,1.51-3.19,4.35-3.19,4.35s1.3-.14,1.45,2.32-1.31,2.61-1.31,2.61,1,2.32-.58,3.62c0,0-2.32-2.46-1.59-3.77,0,0-1.74-3.47-.15-4.63,0,0-2-2.22-2-4.18a10.44,10.44,0,0,0-.39-3.09,5.76,5.76,0,0,1-4.32-1.69c-2-1.95-1.62-2.49-1.62-2.49s-4,.87-5.73-3.57c0,0-1,4-4,4.24s-3.44-.27-3.44-.27-.67,2.43-2.83,2.83a6.94,6.94,0,0,1-4.44-1.14s.8,2.69-1.22,3.77A10.28,10.28,0,0,1,595,163.74" style="fill:#4d4e23"/><path d="M626.93,190.48c.27-2.12-.62-3.44-1.59-3.62a5.65,5.65,0,0,0-1-.05,2.53,2.53,0,0,1-.14,1c-.35.89-1.14,2.47-6.88,2.56-2.73.05-4.2-.81-5-1.72a2.85,2.85,0,0,0-2.15,2.08c-.26,1.34,1.32,4,4.31,5.42a7.35,7.35,0,0,1,5-2.42c2.74-.3,4.16.7,4.87,1.62a8.12,8.12,0,0,0,2.63-4.89" style="fill:#711811"/><path d="M617.31,190.39c5.74-.08,6.53-1.67,6.88-2.56a2.53,2.53,0,0,0,.14-1,55.7,55.7,0,0,0-6.4.76,32.66,32.66,0,0,0-5.62,1.1c.8.91,2.27,1.77,5,1.72" style="fill:#fff8cb"/><path d="M619.43,193.75a7.35,7.35,0,0,0-5,2.42,10.17,10.17,0,0,0,4.51,1,7.84,7.84,0,0,0,5.32-1.82c-.71-.92-2.13-1.92-4.87-1.62" style="fill:#db6e5f"/><path d="M608.76,170.39a26.84,26.84,0,0,0-4.3.63,8.61,8.61,0,0,0-3.59,1.79c-.76.7-2.29.3-2.08-.41s1.92-2.18,4.06-2.73a29.16,29.16,0,0,1,5.49-1c.89,0,2.08,1.2.42,1.77" style="fill:#4d4e23"/><path d="M621,168.9a26.71,26.71,0,0,1,4.15-1.31,8.68,8.68,0,0,1,4,0c1,.31,2.19-.72,1.69-1.27s-2.68-1.12-4.84-.69a30.44,30.44,0,0,0-5.41,1.44c-.78.41-1.34,2,.39,1.78" style="fill:#4d4e23"/><path d="M475.83,181.82c2.48-2.49,6.81-4.51,9.05.69a5,5,0,0,1-4.41,5,4.64,4.64,0,0,1-4.21-1C475,185.06,474.49,183.16,475.83,181.82Z" style="fill:#fffcf2"/><path d="M483.73,182.17a4,4,0,0,0-.81-2.28.1.1,0,0,0-.06,0,7,7,0,0,0-7.17,1.28.12.12,0,0,0-.05.07,5.16,5.16,0,0,0,0,2.37,4.05,4.05,0,0,0,5.25,2.93l.3-.12A4.4,4.4,0,0,0,483.73,182.17Z" style="fill:#cabe57"/><path d="M481.23,185a2.56,2.56,0,1,1,.94-2.8A2.57,2.57,0,0,1,481.23,185Z" style="fill:#3f1010"/><path d="M480.56,182.28a1.09,1.09,0,1,1,1.28,0A1.1,1.1,0,0,1,480.56,182.28Z" style="fill:#fffcf2"/><path d="M484.88,182.51c-.95-2.74-8.3-5.14-9.77,2C473.91,177.14,485.05,177.58,484.88,182.51Z" style="fill:#562409"/><path d="M496.14,177.83c2.28-2.29,6.27-4.15,8.34.64a4.57,4.57,0,0,1-4.06,4.58,4.27,4.27,0,0,1-3.89-1C495.34,180.82,494.91,179.07,496.14,177.83Z" style="fill:#fffcf2"/><path d="M503.42,178.16a3.69,3.69,0,0,0-.75-2.1.07.07,0,0,0-.05,0,6.38,6.38,0,0,0-6.61,1.17s0,0,0,.06a4.82,4.82,0,0,0,0,2.2,3.73,3.73,0,0,0,4.84,2.69l.28-.11A4.07,4.07,0,0,0,503.42,178.16Z" style="fill:#cabe57"/><path d="M501.11,180.77a2.36,2.36,0,1,1,.88-2.57A2.35,2.35,0,0,1,501.11,180.77Z" style="fill:#3f1010"/><path d="M500.49,178.26a1,1,0,1,1,1.19,0A1,1,0,0,1,500.49,178.26Z" style="fill:#fffcf2"/><path d="M504.48,178.47c-.87-2.52-7.65-4.74-9,1.8C494.37,173.53,504.63,173.93,504.48,178.47Z" style="fill:#562409"/><path d="M602.4,177.32c2.47-2.48,6.8-4.5,9,.69a5,5,0,0,1-4.41,5,4.65,4.65,0,0,1-4.21-1C601.52,180.56,601.06,178.67,602.4,177.32Z" style="fill:#fffcf2"/><path d="M610.29,177.68a4,4,0,0,0-.81-2.29.1.1,0,0,0-.05,0,6.94,6.94,0,0,0-7.18,1.28.08.08,0,0,0,0,.06,5,5,0,0,0,0,2.38,4,4,0,0,0,5.25,2.92,1.66,1.66,0,0,0,.31-.12A4.39,4.39,0,0,0,610.29,177.68Z" style="fill:#cabe57"/><path d="M607.79,180.51a2.56,2.56,0,1,1,1-2.79A2.56,2.56,0,0,1,607.79,180.51Z" style="fill:#3f1010"/><path d="M607.12,177.79a1.09,1.09,0,1,1,1.28,0A1.11,1.11,0,0,1,607.12,177.79Z" style="fill:#fffcf2"/><path d="M611.44,178c-.94-2.73-8.3-5.14-9.76,2C600.47,172.65,611.61,173.08,611.44,178Z" style="fill:#562409"/><path d="M621.93,172.56c2.28-2.29,6.27-4.14,8.33.64a4.56,4.56,0,0,1-4.06,4.58,4.25,4.25,0,0,1-3.88-.95C621.13,175.55,620.7,173.8,621.93,172.56Z" style="fill:#fffcf2"/><path d="M629.2,172.89a3.61,3.61,0,0,0-.74-2.1.1.1,0,0,0-.05,0,6.41,6.41,0,0,0-6.62,1.17l0,.06a4.89,4.89,0,0,0,0,2.2,3.73,3.73,0,0,0,4.84,2.69l.28-.11A4.06,4.06,0,0,0,629.2,172.89Z" style="fill:#cabe57"/><path d="M626.9,175.5a2.36,2.36,0,1,1,.87-2.57A2.33,2.33,0,0,1,626.9,175.5Z" style="fill:#3f1010"/><path d="M626.28,173a1,1,0,1,1,1.18,0A1,1,0,0,1,626.28,173Z" style="fill:#fffcf2"/><path d="M630.26,173.2c-.87-2.52-7.64-4.74-9,1.8C620.16,168.26,630.42,168.66,630.26,173.2Z" style="fill:#562409"/></svg>