<svg id="Capa_1" data-name="Capa 1" xmlns="http://www.w3.org/2000/svg" viewBox="0 0 603 555"><path d="M508.58,83.84s28.6,15.82,48,20.82a1.89,1.89,0,0,0,1.87-3.11A34.26,34.26,0,0,1,551,88.16c-3.82-12.79-12.7-15.58-12.7-15.58s10.65,6.1,18.88,7.53a1.9,1.9,0,0,0,1.52-3.33c-3.79-3.13-9-8.38-11.45-15.1-4-11.2-20.72-6.49-20.72-6.49A117.86,117.86,0,0,0,547,48.85a1.9,1.9,0,0,0-.26-3.57c-7.73-2.12-22.94-5.78-29.89-3.86a1.9,1.9,0,0,1-2.41-1.51c-.78-5-3.26-16.87-10.21-25.32a1.89,1.89,0,0,0-3.33,1.49c1.13,7.6,1.25,20.06-9.39,22.5-14.43,3.32-44.43,4.19-53.08-12.21a1.89,1.89,0,0,0-3.44.1c-2.85,6.75-7.79,20.4-5.94,30.4a1.89,1.89,0,0,1-2.68,2.05c-3.51-1.57-8.5-1.6-13.87,5.4-7.05,9.2-13,12.15-15.88,13.09A1.88,1.88,0,0,0,395.43,80c1.08,2.51,3.14,6.33,5.51,6,10.43-1.25,13-.59,13-.59s-17.31-1.7-26.53,16.5c-8,15.77-10.27,22-15.94,24.82a1.9,1.9,0,0,0-.14,3.34c3.24,2,9.32,3.84,18.22-.77,0,0-13.47,1.75-20.64,21.56-5.73,15.83-10.11,21.76-15.71,24.06a1.9,1.9,0,0,0,0,3.54,17.26,17.26,0,0,0,10.67.83,1.89,1.89,0,0,1,2.26,2.56c-1.66,3.83-6,9.34-17.29,10.87-17.8,2.42-31,37.48-27.64,51.18s53.18-5.65,89.6-79.82,47-86,56.35-91S508.58,83.84,508.58,83.84Z" style="fill:#42464a"/><path d="M126.81,265.26c-7.17-3.14-17-3.57-24.11-5.67-12.75-3.8-31-6.16-33.63,8.52S65.8,292.05,56.3,301.49s-9.61,26.06-10.4,35.21,0,6.45,1,13.32c-5-2.66-8.6-3.79-8.77-10.66s-.33-15.77,4.62-22c-7.52,3.07-10.49,8.29-11.56,18.43s-7.11,23.9-15.63,29-6.61,4.84-13.08,8.82c5.8-8,11-16.75,9.7-26.6S7.48,329.54,9.4,319.46C2.76,323,4.11,330.71,4.69,337.29c-8.21,6.9-2.73-13.84.57-22.64S20,279.11,34.75,275.5c-7.65,1.32-10.79-7.41-13-13,10.3.1,12.09,3,23.23-4.53s33.41-16.33,49-12.65,29.46,5.67,43.31,13.13C133.73,260.69,130.42,263,126.81,265.26Z" style="fill:#42464a"/><path d="M433,490.35l14.38,9.58s8.22,11.64,12.33,21.91-4.11,13-12.33,14.38-22.59-.68-26-4.1c0,0-8-6-6.16-13.7S433,490.35,433,490.35Z" style="fill:#41465d"/><path d="M406.59,508.39l14,10.1s7.8,11.93,11.53,22.34-4.57,12.85-12.83,13.92-22.56-1.49-25.86-5c0,0-7.78-6.26-5.66-13.91S406.59,508.39,406.59,508.39Z" style="fill:#41465d"/><path d="M207.85,490.53l14.5,9.41s8.36,11.53,12.6,21.75-3.94,13.06-12.14,14.53-22.61-.4-26.07-3.78c0,0-8.08-5.88-6.34-13.62S207.85,490.53,207.85,490.53Z" style="fill:#41465d"/><path d="M87.5,501l11.16,13.19s4.67,13.47,5.78,24.47-7.55,11.37-15.83,10.41-21.52-6.92-23.86-11.15c0,0-6-8-2.13-14.87S87.5,501,87.5,501Z" style="fill:#41465d"/><path d="M226.92,353.22s-7.53,33.55-17.8,44.51-15.76,33-12.33,39.89,21.22,32.18,26.7,39,10.27,15.75,9.59,23.28l-.69,7.53S213.22,514.31,205,515s-13.69,2.74-17.12-6.85,0-30.81-10.27-40.4S148.85,439,144.06,426.66s-14.37-62.48.69-93.3S216.65,299.81,226.92,353.22Z" style="fill:#969696"/><path d="M442.36,311.91s-8.92,38-10.58,55.75,7.88,26.18,6.48,41.18-1.77,41.09.94,48.91,11.77,28.61,13.18,35.62,2.94,12.65-3.51,15.49-22.88,2-31.81,1.85-7.36-31.64-7.88-48.19-8.93-51.73-13.24-64.51-15.4-41.32-6.74-60.46S442.36,311.91,442.36,311.91Z" style="fill:#969696"/><path d="M407.83,358.64c-49.39,34.28-106.86,28.23-162.3,24.2-44.36-3-81.65-44.19-121-63.35-4.64-2.09-9.28-4.28-13.81-6.68,2.93,17.5,10.93,38,26.47,61.64,0,0,89,34.92,137.64,31.5s94.48-1.88,119.82-18.32c24.38-15.81,44.95-55.08,47.68-75.72C438.74,329.45,423.29,347.73,407.83,358.64Z" style="fill:#969696"/><path d="M562.66,219.74l.24.13Z" style="fill:none"/><path d="M556.28,215.66l.35.24Z" style="fill:none"/><path d="M565.89,221.56l.15.08Z" style="fill:none"/><path d="M553.12,213.47l.38.26Z" style="fill:none"/><path d="M525.61,193.11c-.59-.39-1.19-.77-1.77-1.13.58.36,1.18.75,1.77,1.14Z" style="fill:none"/><path d="M537.94,202l-.83-.64h0Z" style="fill:none"/><path d="M569.14,223.21h0Z" style="fill:none"/><path d="M559.46,217.76l.3.19Z" style="fill:none"/><path d="M538.31,202.29c.91.69,1.82,1.4,2.74,2.11C540.14,203.69,539.22,203,538.31,202.29Z" style="fill:none"/><path d="M550,211.19l.39.3Z" style="fill:none"/><path d="M546.88,208.86l.43.33Z" style="fill:none"/><path d="M543.79,206.51l.43.33Z" style="fill:none"/><path d="M366.08,374.24c-1.43,6.87-7.69,11.44-13.16,15.83-1.1.87-2.19,1.81-3.24,2.81,2.35,3.87,7.27,11.78,11.56,17.5,1.33,1.77,2.33,8.68,4,15.75,4.74-8.45,7.54-17.53,6.37-28.84,5.08,0,8.74,4.6,12.83,7.61,5.21,3.85,11.78,5.34,17.43,8.5a33,33,0,0,1,9.47,8c-.31-.8-.61-1.56-.9-2.26C407,411.08,406,399.26,406.21,390c-3-2.91-6.7-4.09-10.82-5.13A155.69,155.69,0,0,1,366.08,374.24Z" style="fill:#c2c2c2"/><path d="M383,414.74c1.53,6.11-2.34,12.26-6.78,16.73A78.11,78.11,0,0,1,369,438c2.12,7.47,14.88,52.89,12.32,59.43-2.78,7.13-4.77,8,1.11,16.54s7.51,14.44,9.39,15.5,21.89-1.31,30.54.09,10.52-6.74,5.57-14.26S413,493.68,417.78,475.5c3-11.46,1.22-26.34-1.73-38.63L415,438.42A204,204,0,0,0,383,414.74Z" style="fill:#c2c2c2"/><path d="M451.05,209.06a9.06,9.06,0,0,1-3.11-.12,17.32,17.32,0,0,1-6.15-3.23q-7.87-5.62-15.39-11.74a22.88,22.88,0,0,0,3.17.88,91,91,0,0,1-14.82-18.12,2.8,2.8,0,0,1-1.31-1.3c-5.27-8.49-10.68-17.38-11.58-27.33l1.55.43a60.61,60.61,0,0,1-.62-19.25,12.9,12.9,0,0,1-1.65-.66l-.27-.16c-6.49,14.21-17.23,36.2-28.9,53.6-14.92,22.25-19.16,41.6-37,42.73-9.52.61-25.64,7.28-25.88,8a56.54,56.54,0,0,1-5.84,3.16s0,.08,0,.12c.16,8.33-3.65,17.64-4.07,26.21-.81,16.9,2.15,34.22,10.9,48.89,3.79,6.36,8.75,12.64,8.92,20,.25,10.55-9.25,19-10.93,29.39-2-17.95-11.89-33.88-20.55-49.73S271,277.31,273.7,259.44a58.54,58.54,0,0,1,5.46-16.8,120.16,120.16,0,0,1-12.86.23c-.31,7-2.53,16.2-2.85,20.37-1.52,19.59-2,40.05,6,58.43,2.66,6.06,6.18,11.71,8.77,17.8a64.79,64.79,0,0,1,3.82,38.23c-10.53-28.36-34.84-50.32-43.47-79.32-5.58-18.76-4-39,1.28-57.92-8.09-1.09-16.33-2.43-24.39-3.78-.48,3.85-1.66,8.33-1.81,10.55-.86,11.94,1,21.85,3.86,33.28,3.4,8.48,9,15.87,13.13,24,10.85,21.63,10.26,47.08,7.78,71.14q-8.13-13.86-15.33-28.27c-9.3-18.62-17.47-38.08-20.78-58.63-2.89-18-2-36.28-.73-54.46q-6.54-1.11-12.62-2c9.5,32.75,5.69,65.51,11.65,99.26,2.79,15.86,14.22,29.13,15.11,43.8a93,93,0,0,0,29.79,7.5c19,1.38,38.25,3,57.32,3.14a18.25,18.25,0,0,1,1-4.29c1-2.36,3-4.11,4.83-5.89a56.86,56.86,0,0,0,12.62-18.52c1.81-4.28,3.12-8.85,5.83-12.62,1.64-2.28,3.77-4.24,5-6.79,2.28-4.9.54-10.65-1.23-15.76,4.39,6.43,8.53,13.17,10.76,20.63s2.43,15.79-.91,22.82c-4.08,8.9-12.84,14-20.2,20.08a223.94,223.94,0,0,0,23.32-2.29l.51.84a80.44,80.44,0,0,0,7.43-12.7c3.71-8.28,5.18-18.09,1.48-26.37,4.36,8.49,13.09,13.91,22,17.28s18.43,5.13,27.3,8.65a26.74,26.74,0,0,1,5.36,2.72,83.42,83.42,0,0,0-.36-13c-6.5-1-16-10-20.8-11.75-4.22-1.53-8.63-2.53-12.72-4.35-6-2.66-11.11-7-16.12-11.23l-18-15.28c-7.84-6.66-15.87-13.55-20.64-22.67,10.16,10.91,28,11.41,38.51,22,2.81,2.82,5,6.26,7.84,9,7.64,7.27,19,8.62,28.66,12.81,4.22,1.82,17.21,8.62,19.09,15.1a104,104,0,0,0,15.75-16.16c-13.68-4.16-26.29-12.79-37-22.53-7.57-6.88-14.77-14.56-24.12-18.72-8-3.58-17-4.25-25.48-6.6-10.91-3-21.66-9.65-25.81-20.19-4.36-11.05-.57-23.46,3.23-34.72.73,10.22,2.77,20.77,8.93,28.94,6.6,8.76,17,13.64,27,18.18a79.68,79.68,0,0,1-.71-57.22q2.86,11.81,6.8,23.29a117,117,0,0,0,10,22.66c9,15,23.15,26.45,38.51,34.89a217.42,217.42,0,0,0,29.63,13.1,48.87,48.87,0,0,0,1.87-6,61.8,61.8,0,0,0,.73-9.06c-11.27-4.88-22.36-10.16-32.66-16.82-14.15-9.14-26.87-21.12-34.4-36.2-4.44-8.89-7-18.63-8.59-28.44a130.27,130.27,0,0,0,56.12,56.94c6.63,3.44,13.58,6.28,20.2,9.76.3-4.05.78-8.91,1.52-14.85-15-5.12-28.37-15.85-40.81-26.21-8.28-6.9-16.86-14.2-21-24.17-1.41-3.43-5.67-16.27-3.38-19.68,2.87-4.25,5.11,6.54,6.29,8.95,5,10.12,12.88,18.72,21.92,25.39,11.82,8.71,25.55,14.37,39.52,19q.77-3.76,1.59-7l-14.53-6.46a67.05,67.05,0,0,1-9.22-4.68c-11-7.05-14.16-15.22-18-26.54a460.7,460.7,0,0,0,43.11,27.47,13.06,13.06,0,0,1,1.5,1,68.65,68.65,0,0,1,3.59-8.27c-18.71-5.54-35.21-18.63-50.59-31.25-2.48-2-5-4.16-6.5-7a23.63,23.63,0,0,1-1.94-6.79c-.37-2.07-3.81-14-2-15.11,2.69-1.68,5.94,7.42,7.27,9.42,5.81,8.72,13.93,13.26,21.06,20.38,12.59,8.27,27,13.36,41.38,17.77l.2-.24c1.73-2.21,3.28-4.3,4.62-6.28C466.76,214.28,461,213.83,451.05,209.06Z" style="fill:#c2c2c2"/><path d="M418.64,116.52c-.29-9.15,1.35-17.82,5.28-27.93C418.62,94,412.75,102,407.23,114c-.34.74-.66,1.48-1,2.23,2,.25,4,.6,5.37.62A56.43,56.43,0,0,0,418.64,116.52Z" style="fill:#969696"/><path d="M572.37,224.63l-.08,0c-1-.42-2.09-.88-3.12-1.37h0c-1-.5-2.07-1-3.1-1.57l-.15-.08c-1-.54-2-1.1-3-1.69l-.24-.13c-1-.58-1.94-1.18-2.9-1.79l-.3-.19c-1-.6-1.89-1.23-2.83-1.86l-.35-.24c-.93-.63-1.86-1.27-2.78-1.93l-.38-.26-2.73-2-.39-.3-2.69-2-.43-.33-2.66-2-.43-.33-2.74-2.11c-.92-.71-1.83-1.42-2.74-2.11l-.37-.29-.83-.63a23.87,23.87,0,0,1-3.38,5.21l-4.43,7.29a17.64,17.64,0,0,1,1.92,1.6c.41-2.7,2.08-4.85,5.75-5.89,4.34-1.23,5.15,6.6,9,9,6.94,4.39,5.19,10.82,17.15,13.25.64.13,8.41-4.65,8.88-4.2C572.74,226.51,573.32,225,572.37,224.63Z" style="fill:#969696"/><path d="M422,137a1,1,0,0,1-.05-.16c-.83-3.13-1.5-6.1-2-9-1.68.42-3.38.78-5.07,1.12a41.34,41.34,0,0,1-7.09.93,15.55,15.55,0,0,1-5-.64,60.61,60.61,0,0,0,.62,19.25,46.72,46.72,0,0,0,6.84,1.24,47.31,47.31,0,0,0,16.55-1.2A83.09,83.09,0,0,1,422,137Z" style="fill:#969696"/><path d="M457,181.76a86,86,0,0,1-19.57-17.13,62.5,62.5,0,0,1-13.58,9,51.24,51.24,0,0,1-7.67,3,2.62,2.62,0,0,1-1.35.14l-.09,0a91,91,0,0,0,14.82,18.12,24.41,24.41,0,0,0,19.14-4.15,27.35,27.35,0,0,0,3.19-2.79A52.92,52.92,0,0,0,457,181.76Z" style="fill:#969696"/><path d="M542.54,122.18c2.64,6.84,5.15,13.9,9.76,19.61,9,11.14,24.33,15.11,38.64,15.21h.82c-13.1-10.1-22.27-7.73-26.07-10.39-4-2.78-14.32-14.17-16.11-22.75S542.68,95.05,529,82.73c-2.88-2.58-5.61-4.88-8.28-6.87,2.27,3.91,4.41,7.91,6.46,11.91A357.7,357.7,0,0,1,542.54,122.18Z" style="fill:#c2c2c2"/><path d="M559.27,154.78c-9.13-3.32-16.06-11.06-20.72-19.58s-7.4-17.92-10.72-27c-1.61-4.43-3.41-8.9-6.46-12.49-5.8-6.83-15.5-9.83-20.24-17.42-2.07-3.31-2.51-6.94-2.37-10.64a26.31,26.31,0,0,0-4.05.53,1.89,1.89,0,0,1-2.13-2.57c3.14-7.87,5.63-28.31-25.66-64.92-5.7-6.66-27.12,39.78-25.3,75.43A1.88,1.88,0,0,1,440.24,78a31.74,31.74,0,0,0-10.05,5.15c-.3.21-6.14,5.1-6.27,5.44a1.9,1.9,0,0,1,3.13,2c-3.07,8.45-5.63,17-6.54,25.71,1.13-.17,2.24-.39,3.35-.67,12.13-3,22.64-12.94,35.13-12.15-4.25,6.29-12.23,8.62-18.59,12.78-4,2.62-7.49,6.07-11.7,8.38a36.08,36.08,0,0,1-8.33,3.14,52.82,52.82,0,0,0,1.57,9.08,1,1,0,0,0,.05.16,83.09,83.09,0,0,0,4.81,11.57,45.64,45.64,0,0,0,7.55-2.64c10.71-4.83,16.35-12.86,22.85-22,.76,15.22-7.8,30.28-19.76,40.67A86,86,0,0,0,457,181.76l.74-1c4.83-4.83,8.66-12.8,11.29-19,.67-1.57,2-9,3.5-9.54,3.21-1.3,1.53,6,1.43,7.66-.27,4.66-.54,9.36-1.82,13.85-1.32,4.64-3.67,8.91-5.44,13.41,17.12,8,36.77,10.28,55.6,4.68a1.91,1.91,0,0,1,1.53.19c.58.36,1.18.74,1.77,1.13a42.92,42.92,0,0,0-4.39-15.53c-1.16-2.27-4.18-5.29-1.46-7.71,1.66-1.49,7.48-.32,9.26.49a13.16,13.16,0,0,1,4.18,3.24A25.12,25.12,0,0,1,539.65,190a25.52,25.52,0,0,1-2.54,11.39l.83.64.37.29c.91.69,1.83,1.4,2.74,2.11l2.74,2.11.43.33,2.66,2,.43.33,2.69,2,.39.3,2.73,2,.38.26c.92.66,1.85,1.3,2.78,1.93l.35.24c.94.63,1.88,1.26,2.83,1.86l.3.19c1,.61,1.93,1.21,2.9,1.79l.24.13c1,.59,2,1.15,3,1.69l.15.08c1,.55,2.06,1.07,3.1,1.57h0c1,.49,2.08.95,3.12,1.37.61.26,1.23.5,1.85.72a1.88,1.88,0,0,0,1.93-.4l5.17-4.74a1.73,1.73,0,0,0,.59-1.19,3.79,3.79,0,0,0-1.48-2.9,1.89,1.89,0,0,1,.87-3.16c3.84-1.06,9.3-4,13.9-12.26,6-10.79,10-22.63,5.64-32.82a49.28,49.28,0,0,0-20.4-9.34C573.35,157.09,566,157.22,559.27,154.78Zm-55.15-6.64a50.06,50.06,0,0,1-12-5.83c-7.34-5.2-11.89-13.49-15.13-21.9-3.56-9.24-5.86-19.26-4.4-29.06,1.32-8.81,15.38-33,19.43-13.49,3.17,15.36.09,31.16,1.21,46.67.46,6.51,2.22,13.79,7.86,17.07s12.58,1.28,19,1.35a29.48,29.48,0,0,1,21.25,9.53C529,155.53,516,152.49,504.12,148.14Z" style="fill:#c2c2c2"/><path d="M559.76,218c1,.61,1.93,1.21,2.9,1.79C561.69,219.16,560.72,218.56,559.76,218Z" style="fill:#c2c2c2"/><path d="M553.5,213.73c.92.66,1.85,1.3,2.78,1.93C555.35,215,554.42,214.39,553.5,213.73Z" style="fill:#c2c2c2"/><path d="M556.63,215.9c.94.63,1.88,1.26,2.83,1.86C558.51,217.16,557.57,216.53,556.63,215.9Z" style="fill:#c2c2c2"/><path d="M421.94,136.84a52.82,52.82,0,0,1-1.57-9.08l-.46.11C420.44,130.74,421.11,133.71,421.94,136.84Z" style="fill:#c2c2c2"/><path d="M566,221.64c1,.55,2.06,1.07,3.1,1.57C568.1,222.71,567.07,222.19,566,221.64Z" style="fill:#c2c2c2"/><path d="M541.05,204.4l2.74,2.11Z" style="fill:#c2c2c2"/><path d="M418.64,116.52c.63-.07,1.25-.15,1.87-.24.91-8.69,3.47-17.26,6.54-25.71a1.9,1.9,0,0,0-3.13-2C420,98.7,418.35,107.37,418.64,116.52Z" style="fill:#c2c2c2"/><path d="M544.22,206.84l2.66,2Z" style="fill:#c2c2c2"/><path d="M537.94,202l.37.29Z" style="fill:#c2c2c2"/><path d="M547.31,209.19l2.69,2Z" style="fill:#c2c2c2"/><path d="M572.29,224.59c-1-.42-2.09-.88-3.12-1.37C570.2,223.71,571.25,224.17,572.29,224.59Z" style="fill:#c2c2c2"/><path d="M550.39,211.49l2.73,2Z" style="fill:#c2c2c2"/><path d="M401.74,182.58c-1.33-2-4.58-11.1-7.27-9.42-1.76,1.1,1.68,13,2,15.11a23.63,23.63,0,0,0,1.94,6.79c1.47,2.85,4,5,6.5,7,15.38,12.62,31.88,25.71,50.59,31.25a69.23,69.23,0,0,1,8.63-12.59c-14.41-4.41-28.79-9.5-41.38-17.77C415.67,195.84,407.55,191.3,401.74,182.58Z" style="fill:#42464a"/><path d="M386.09,213.51c-1.18-2.41-3.42-13.2-6.29-8.95-2.29,3.41,2,16.25,3.38,19.68,4.12,10,12.7,17.27,21,24.17,12.44,10.36,25.78,21.09,40.81,26.21.28-2.26.59-4.66,1-7.26.48-3.42,1-6.56,1.6-9.48-14-4.61-27.7-10.27-39.52-19C399,232.23,391.09,223.63,386.09,213.51Z" style="fill:#42464a"/><path d="M407.35,213.17c3.86,11.32,7,19.49,18,26.54a67.05,67.05,0,0,0,9.22,4.68l14.53,6.46c.89-3.47,1.85-6.54,2.84-9.26a13.06,13.06,0,0,0-1.5-1A460.7,460.7,0,0,1,407.35,213.17Z" style="fill:#42464a"/><path d="M367.13,222.77c1.62,9.81,4.15,19.55,8.59,28.44,7.53,15.08,20.25,27.06,34.4,36.2,10.3,6.66,21.39,11.94,32.66,16.82.11-3.69.17-8.17.67-14.76-6.62-3.48-13.57-6.32-20.2-9.76A130.27,130.27,0,0,1,367.13,222.77Z" style="fill:#42464a"/><path d="M372,271.27a117,117,0,0,1-10-22.66q-3.93-11.48-6.8-23.29a79.68,79.68,0,0,0,.71,57.22c-10-4.54-20.4-9.42-27-18.18-6.16-8.17-8.2-18.72-8.93-28.94-3.8,11.26-7.59,23.67-3.23,34.72,4.15,10.54,14.9,17.16,25.81,20.19,8.47,2.35,17.45,3,25.48,6.6,9.35,4.16,16.55,11.84,24.12,18.72,10.73,9.74,23.34,18.37,37,22.53a75,75,0,0,0,11-18.92,217.42,217.42,0,0,1-29.63-13.1C395.19,297.72,381.08,286.28,372,271.27Z" style="fill:#42464a"/><path d="M394.37,339.24c-9.68-4.19-21-5.54-28.66-12.81-2.88-2.75-5-6.19-7.84-9-10.51-10.57-28.35-11.07-38.51-22,4.77,9.12,12.8,16,20.64,22.67l18,15.28c5,4.25,10.11,8.57,16.12,11.23,4.09,1.82,8.5,2.82,12.72,4.35,4.84,1.76,14.3,10.74,20.8,11.75-.06-.59-.13-1.18-.21-1.79l.42-.29c1.89-1.33,3.77-2.77,5.63-4.3C411.58,347.86,398.59,341.06,394.37,339.24Z" style="fill:#42464a"/><path d="M375.32,362.4c-8.93-3.37-17.66-8.79-22-17.28,3.7,8.28,2.23,18.09-1.48,26.37a80.44,80.44,0,0,1-7.43,12.7c1.18,1.91,2.47,4,3.89,6.36,0,0,.52.88,1.4,2.33,1.05-1,2.14-1.94,3.24-2.81,5.47-4.39,11.73-9,13.16-15.83a155.69,155.69,0,0,0,29.31,10.59c4.12,1,7.77,2.22,10.82,5.13.12-5.71.7-10.48,1.49-12.83,0,0,.16-1.22.28-3.36a26.74,26.74,0,0,0-5.36-2.72C393.75,367.53,384.26,365.77,375.32,362.4Z" style="fill:#42464a"/><path d="M401.86,413.4c-5.65-3.16-12.22-4.65-17.43-8.5-4.09-3-7.75-7.61-12.83-7.61,1.17,11.31-1.63,20.39-6.37,28.84a59.34,59.34,0,0,0,3.43,10.81s.1.37.3,1a78.11,78.11,0,0,0,7.26-6.51c4.44-4.47,8.31-10.62,6.78-16.73a204,204,0,0,1,32,23.68l1.05-1.55a127.49,127.49,0,0,0-4.72-15.48A33,33,0,0,0,401.86,413.4Z" style="fill:#42464a"/><path d="M340.76,365.56c3.34-7,3.15-15.36.91-22.82s-6.37-14.2-10.76-20.63c1.77,5.11,3.51,10.86,1.23,15.76-1.19,2.55-3.32,4.51-5,6.79-2.71,3.77-4,8.34-5.83,12.62a56.86,56.86,0,0,1-12.62,18.52c-1.83,1.78-3.85,3.53-4.83,5.89a18.25,18.25,0,0,0-1,4.29c5.93,0,11.83-.05,17.71-.34C327.92,379.58,336.68,374.46,340.76,365.56Z" style="fill:#42464a"/><path d="M287.5,310.83c8.66,15.85,18.57,31.78,20.55,49.73,1.68-10.42,11.18-18.84,10.93-29.39-.17-7.4-5.13-13.68-8.92-20-8.75-14.67-11.71-32-10.9-48.89.42-8.57,4.23-17.88,4.07-26.21,0,0,0-.08,0-.12-2.66,1.27-5.7,2.53-9.2,3.82a56.34,56.34,0,0,1-14.86,2.91,58.54,58.54,0,0,0-5.46,16.8C271,277.31,278.85,295,287.5,310.83Z" style="fill:#42464a"/><path d="M238.59,298.38c8.63,29,32.94,51,43.47,79.32a64.79,64.79,0,0,0-3.82-38.23c-2.59-6.09-6.11-11.74-8.77-17.8-8.06-18.38-7.54-38.84-6-58.43.32-4.17,2.54-13.32,2.85-20.37a262.52,262.52,0,0,1-26.43-2.41C234.57,259.41,233,279.62,238.59,298.38Z" style="fill:#42464a"/><path d="M202.33,288.78c3.31,20.55,11.48,40,20.78,58.63q7.2,14.38,15.33,28.27c2.48-24.06,3.07-49.51-7.78-71.14-4.09-8.16-9.73-15.55-13.13-24-2.85-11.43-4.72-21.34-3.86-33.28.15-2.22,1.33-6.7,1.81-10.55l-13.88-2.36C200.33,252.5,199.44,270.81,202.33,288.78Z" style="fill:#42464a"/><path d="M160.23,259.47c.36-6.76.72-13.6-.48-20.26a64.51,64.51,0,0,0-2.24-9.06c-.52.08-1,.16-1.49.26a44.61,44.61,0,0,0-7.16,1.61c-2.25.7-4.38,1.41-6.4,2.15a17,17,0,0,0,.56,2.12C146.05,245.53,153.26,252.69,160.23,259.47Z" style="fill:#42464a"/><path d="M100.36,397.58c4.79,1.79,9.11,4.77,14,6.14,5.27,1.46,10.86,1,16.3.5,4.75-.42,10.15-1.22,12.76-5.2-7.8,1.07-14.56-4.82-21.52-8.49a59.93,59.93,0,0,0-25-6.34,134.85,134.85,0,0,1-14.11,11.25C88.85,395.12,94.78,395.5,100.36,397.58Z" style="fill:#42464a"/><path d="M114.1,426.64a13.51,13.51,0,0,0,.12-5.8c-8.79-3.6-17.63-7.21-26.93-9.13-5.17-1.07-11.37-2-17.12-1.31a151.65,151.65,0,0,0-.84,20.17C83.6,432.12,100.21,424,114.1,426.64Z" style="fill:#42464a"/><path d="M94.63,453.33c3.56-2.52,7-6.67,5.62-10.8-3.09,2.43-7.39,2.7-11.28,2.1s-7.65-1.95-11.56-2.38a50.5,50.5,0,0,0-7.84-.08c.23,7.49.58,14.83.85,20.77a58.49,58.49,0,0,0,10-2.61A56.68,56.68,0,0,0,94.63,453.33Z" style="fill:#42464a"/><path d="M520.69,75.86C514,64.27,506.13,53.32,496.08,44.41c6.34,5.93,3,14.72,2.68,23.19C506.36,67.19,513.24,70.28,520.69,75.86Z" style="fill:#42464a"/><path d="M593.5,158.4c-.59-.49-1.17-1-1.74-1.39h-.82c-14.31-.1-29.66-4.07-38.64-15.21-4.61-5.71-7.12-12.77-9.76-19.61a357.7,357.7,0,0,0-15.39-34.41c-2-4-4.19-8-6.46-11.91-7.45-5.58-14.33-8.67-21.93-8.26-.14,3.7.3,7.33,2.37,10.64,4.74,7.59,14.44,10.59,20.24,17.42,3,3.59,4.85,8.06,6.46,12.49,3.32,9.13,6.06,18.53,10.72,27s11.59,16.26,20.72,19.58c6.72,2.44,14.08,2.31,21.09,3.72a49.28,49.28,0,0,1,20.4,9.34A25.3,25.3,0,0,0,593.5,158.4Z" style="fill:#42464a"/><path d="M520.11,143c-6.46-.07-13.46,1.9-19-1.35s-7.4-10.56-7.86-17.07c-1.12-15.51,2-31.31-1.21-46.67-4.05-19.55-18.11,4.68-19.43,13.49-1.46,9.8.84,19.82,4.4,29.06,3.24,8.41,7.79,16.7,15.13,21.9a50.06,50.06,0,0,0,12,5.83c11.92,4.35,24.92,7.39,37.24,4.34A29.48,29.48,0,0,0,520.11,143Z" style="fill:#42464a"/><path d="M402.79,129.28a52.46,52.46,0,0,1,1.73-8.1,1.84,1.84,0,0,0-.77.87c-.83,1.88-1.8,4-2.88,6.41l.27.16A12.9,12.9,0,0,0,402.79,129.28Z" style="fill:#c2c2c2"/><path d="M407.38,122.75c.08,2.14.2,4.56.37,7.17a41.34,41.34,0,0,0,7.09-.93c1.69-.34,3.39-.7,5.07-1.12a76.85,76.85,0,0,1-1.27-11.35,56.43,56.43,0,0,1-7,.28c-1.41,0-3.35-.37-5.37-.62a49.46,49.46,0,0,0-1.75,5A1.9,1.9,0,0,1,407.38,122.75Z" style="fill:#171b22"/><path d="M407.75,129.92c-.17-2.61-.29-5-.37-7.17a1.9,1.9,0,0,0-2.86-1.57,52.46,52.46,0,0,0-1.73,8.1A15.55,15.55,0,0,0,407.75,129.92Z" style="fill:#171b22"/><path d="M420.37,127.76a36.08,36.08,0,0,0,8.33-3.14c4.21-2.31,7.68-5.76,11.7-8.38,6.36-4.16,14.34-6.49,18.59-12.78-12.49-.79-23,9.1-35.13,12.15-1.11.28-2.22.5-3.35.67A60.28,60.28,0,0,0,420.37,127.76Z" style="fill:#42464a"/><path d="M419.91,127.87l.46-.11a60.28,60.28,0,0,1,.14-11.48c-.62.09-1.24.17-1.87.24A76.85,76.85,0,0,0,419.91,127.87Z" style="fill:#42464a"/><path d="M401.86,148.1c.9,10,6.31,18.84,11.58,27.33a2.8,2.8,0,0,0,1.31,1.3,82.75,82.75,0,0,1-11.34-28.2Z" style="fill:#c2c2c2"/><path d="M410.25,149.77c1.16,5.76,2.76,11.12,5,15,1.74,3.09,4.8,6.05,8.62,8.83a62.5,62.5,0,0,0,13.58-9,83.67,83.67,0,0,1-10.64-16.06A47.31,47.31,0,0,1,410.25,149.77Z" style="fill:#171b22"/><path d="M416.19,176.63a51.24,51.24,0,0,0,7.67-3c-3.82-2.78-6.88-5.74-8.62-8.83-2.23-3.93-3.83-9.29-5-15a46.72,46.72,0,0,1-6.84-1.24,82.75,82.75,0,0,0,11.34,28.2l.09,0A2.62,2.62,0,0,0,416.19,176.63Z" style="fill:#171b22"/><path d="M457.2,124c-6.5,9.11-12.14,17.14-22.85,22a45.64,45.64,0,0,1-7.55,2.64,83.67,83.67,0,0,0,10.64,16.06C449.4,154.24,458,139.18,457.2,124Z" style="fill:#42464a"/><path d="M429.57,194.85a22.88,22.88,0,0,1-3.17-.88q7.52,6.1,15.39,11.74a17.32,17.32,0,0,0,6.15,3.23,9.06,9.06,0,0,0,3.11.12A115.52,115.52,0,0,1,438.62,202,66.36,66.36,0,0,1,429.57,194.85Z" style="fill:#c2c2c2"/><path d="M464.76,192.69c.54-1.63,1.06-3.27,1.67-4.88.09-.23.18-.47.28-.7a84.82,84.82,0,0,1-9.7-5.35,52.92,52.92,0,0,1-5.11,6.15C456.77,189.83,461.25,191.44,464.76,192.69Z" style="fill:#171b22"/><path d="M448.71,190.7a24.41,24.41,0,0,1-19.14,4.15,66.36,66.36,0,0,0,9.05,7.15,115.52,115.52,0,0,0,12.43,7.06c3.92-.51,7.55-3.42,9.72-6.88a41.56,41.56,0,0,0,4-9.49c-3.51-1.25-8-2.86-12.86-4.78A27.35,27.35,0,0,1,448.71,190.7Z" style="fill:#171b22"/><path d="M472.15,173.7c1.28-4.49,1.55-9.19,1.82-13.85.1-1.64,1.78-9-1.43-7.66-1.45.58-2.83,8-3.5,9.54-2.63,6.23-6.46,14.2-11.29,19l-.74,1a84.82,84.82,0,0,0,9.7,5.35C468.48,182.61,470.83,178.34,472.15,173.7Z" style="fill:#42464a"/><path d="M526.52,193.7c-.3-.2-.6-.4-.91-.59h0Z" style="fill:#42464a"/><path d="M529.28,195.59c-.89-.63-1.77-1.23-2.64-1.82C527.51,194.36,528.39,195,529.28,195.59Z" style="fill:#42464a"/><path d="M537.11,201.37h0L535.3,200Z" style="fill:#42464a"/><path d="M532.11,197.62c-.88-.65-1.76-1.28-2.63-1.89C530.35,196.34,531.23,197,532.11,197.62Z" style="fill:#42464a"/><path d="M535,199.76l-2.63-2Z" style="fill:#42464a"/><path d="M537.11,201.37,535.3,200l-.3-.23-2.63-2-.26-.18c-.88-.65-1.76-1.28-2.63-1.89l-.2-.14c-.89-.63-1.77-1.23-2.64-1.82l-.12-.07-.91-.58c.09.83.15,1.66.19,2.49a79.69,79.69,0,0,1-1,15.95,18.91,18.91,0,0,1,4.5,2.31l4.43-7.29A23.87,23.87,0,0,0,537.11,201.37Z" style="fill:#171b22"/><path d="M526.64,193.77c.87.59,1.75,1.19,2.64,1.82l.2.14c.87.61,1.75,1.24,2.63,1.89l.26.18,2.63,2,.3.23,1.81,1.37A25.52,25.52,0,0,0,539.65,190a25.12,25.12,0,0,0-6.45-16.37,13.16,13.16,0,0,0-4.18-3.24c-1.78-.81-7.6-2-9.26-.49-2.72,2.42.3,5.44,1.46,7.71a42.92,42.92,0,0,1,4.39,15.53c.31.19.61.39.91.59Z" style="fill:#42464a"/><path d="M535.3,200l-.3-.23Z" style="fill:#42464a"/><path d="M529.48,195.73l-.2-.14Z" style="fill:#42464a"/><path d="M532.37,197.8l-.26-.18Z" style="fill:#42464a"/><path d="M526.64,193.77l-.12-.07Z" style="fill:#42464a"/><path d="M550.61,219.37c-3.89-2.29-9.3-11-13.64-9.79-3.67,1-5.34,3.19-5.75,5.89.15.14.29.27.42.41,5.12,5.12-3.91,11.72,17.12,20.65,7.64,3.24,16.58-1.92,21.58-6.51,0,0,.73-1.3.74-1.31a5.88,5.88,0,0,0,.88-1.06C571.49,227.2,567.76,229.51,550.61,219.37Z" style="fill:#3a3e42"/><path d="M466.71,187.11c-.1.23-.19.47-.28.7-.61,1.61-1.13,3.25-1.67,4.88a41.56,41.56,0,0,1-4,9.49c-2.17,3.46-5.8,6.37-9.72,6.88,9.93,4.77,15.71,5.22,17.95,5.15a7,7,0,0,0,1.1-.11s4.16-.51,10.06-1.18a81.69,81.69,0,0,0,10.7-18.71A82,82,0,0,1,466.71,187.11Z" style="fill:#969696"/><path d="M525.8,195.61c0-.83-.1-1.66-.19-2.49-.59-.39-1.19-.78-1.77-1.14a1.91,1.91,0,0,0-1.53-.19,74.44,74.44,0,0,1-20.84,3.08,79.44,79.44,0,0,1-3.75,16.21c8.9-.82,17.29-1.4,20.48-1a29.76,29.76,0,0,1,6.6,1.49A79.69,79.69,0,0,0,525.8,195.61Z" style="fill:#969696"/><path d="M501.47,194.87q.38-3.17.45-6.38c.06-3.27-1.2-26.45-7.45-24.41-2.16.71.07,9,.09,11.21A49.55,49.55,0,0,1,492,191c-.36,1.09-.76,2.17-1.18,3.23A76.63,76.63,0,0,0,501.47,194.87Z" style="fill:#42464a"/><path d="M490.86,194.21a81.69,81.69,0,0,1-10.7,18.71c5.07-.58,11.44-1.27,17.56-1.84a79.44,79.44,0,0,0,3.75-16.21A76.63,76.63,0,0,1,490.86,194.21Z" style="fill:#171b22"/><ellipse cx="513.24" cy="115.45" rx="11.98" ry="16.44" transform="translate(-6.59 196.2) rotate(-21.51)" style="fill:#0e0a07"/><ellipse cx="518.38" cy="118.16" rx="5.79" ry="6.86" transform="translate(-7.23 198.26) rotate(-21.51)" style="fill:#fff"/><path d="M465.08,12.15a1.9,1.9,0,0,1,3.11.3c4.24,7.71,17.92,33.31,17.66,42.48-.48,16.54-3.45,16.88-12,18.38s-14.9-8.6-15.92-18.43C456.88,44.76,455.21,23.57,465.08,12.15Z" style="fill:#d5a5d4"/><ellipse cx="585.74" cy="189.55" rx="10.38" ry="7.07" transform="translate(151.99 626.45) rotate(-63.14)" style="fill:#53575a"/><path d="M167.19,278.26q1.59-23.46,1-47,0-.7,0-1.38a54.4,54.4,0,0,0-10.65.28,64.51,64.51,0,0,1,2.24,9.06c1.2,6.66.84,13.5.48,20.26-7-6.78-14.18-13.94-17.21-23.18a17,17,0,0,1-.56-2.12,91.35,91.35,0,0,0-11.8,5.18A72.38,72.38,0,0,0,167.19,278.26Z" style="fill:#c2c2c2"/><path d="M171.72,312.32c-2.33-14.3-14.06-25-25.41-34-10.86-8.63-22.6-17.66-27.53-30.51-8.77,8.55-11.46,18.87-13,31.27,11.42.67,22.6,4.55,32.73,10C150.42,295.44,161.11,303.9,171.72,312.32Z" style="fill:#c2c2c2"/><path d="M189,232.28c-2.61-.4-5.17-.78-7.62-1.1a29.44,29.44,0,0,1,3.62,7.89c2.49,8.55,1.72,17.65,1.46,26.55-1,34.09,16.24,91.8,16.24,91.8s-2.61-2.81-6.75-7.44c-11.13-12.47-22.58-24.79-35.86-34.93S131.48,297,115,294.33c-3.59-.58-7.35-1-10.61-2.46-.38,3.85-.81,7.86-1.39,12.05-.23,1.7-.42,3.36-.59,5,16.55-4.68,42.37,15.95,53,24,3.36,2.54,28.59,28.32,29.84,27.92-9.09,2.88-18.91-1.49-26.62-7.11s-14.57-12.69-23.38-16.35c-11-4.57-22.36-1.3-33.29-2.89.41,6.62,1.13,12.56,1.78,17.81,9.48-1.33,20.43-.28,28.65,4,7,3.66,12.26,9.74,18.46,14.57a60.35,60.35,0,0,0,14.06,8.2,46.43,46.43,0,0,1-36.78-6.57,76.64,76.64,0,0,0-7.67-5.15A21.33,21.33,0,0,0,105.09,366a25,25,0,0,1-.74,7.78c-1,3.48-3.82,7-7.38,10.43a59.93,59.93,0,0,1,25,6.34c7,3.67,13.72,9.56,21.52,8.49-2.61,4-8,4.78-12.76,5.2-5.44.49-11,1-16.3-.5-4.93-1.37-9.25-4.35-14-6.14-5.58-2.08-11.51-2.46-17.5-2.14-4.67,3.38-8.77,6.29-10.69,8.45-.91,1-1.56,3.33-2,6.51,5.75-.67,12,.24,17.12,1.31,9.3,1.92,18.14,5.53,26.93,9.13a13.51,13.51,0,0,1-.12,5.8c-13.89-2.65-30.5,5.48-44.77,3.93,0,3.78.12,7.71.24,11.6a50.5,50.5,0,0,1,7.84.08c3.91.43,7.67,1.78,11.56,2.38s8.19.33,11.28-2.1c1.41,4.13-2.06,8.28-5.62,10.8a56.68,56.68,0,0,1-14.22,7,58.49,58.49,0,0,1-10,2.61c.21,4.79.37,8.67.37,11C70.79,485.55,55,509.52,57.1,515S77.64,529.38,90,528s17.8-7.53,15.74-17.12-3.42-13-2-30.13,7.53-32.18,13-37.66,21.92-24.14,47.26-39.89c19.73-12.27,28.66-21.63,34.56-36.49,1.06-2.24,3.17-12.16,16.15-13.16-3.7-10.72-11.91-10.07-14-22C194.67,297.79,198.48,265,189,232.28Z" style="fill:#c2c2c2"/><path d="M160.07,315.05c13.28,10.14,24.73,22.46,35.86,34.93,2.31,2.59,4.63,5.22,6.73,8,1.65,2.19-17.2-58.27-16.22-92.36.26-8.9,1-18-1.46-26.55a29.44,29.44,0,0,0-3.62-7.89c-4.81-.64-9.25-1.1-13.2-1.31q0,.67,0,1.38.59,23.52-1,47a72.38,72.38,0,0,1-36.53-38.91,52.08,52.08,0,0,0-11.88,8.46c4.93,12.85,16.67,21.88,27.53,30.51,11.35,9,23.08,19.7,25.41,34-10.61-8.42-21.3-16.88-33.25-23.27-10.13-5.42-21.31-9.3-32.73-10-.52,4-.91,8.3-1.37,12.79,3.26,1.49,7,1.88,10.61,2.46C131.48,297,146.79,304.91,160.07,315.05Z" style="fill:#42464a"/><path d="M135.24,337.39c8.81,3.66,15.68,10.72,23.38,16.35s17.53,10,26.62,7.11c-1.25.4-26.48-25.38-29.84-27.92-10.64-8.05-36.46-28.68-53-24A154.58,154.58,0,0,0,102,334.5C112.88,336.09,124.27,332.82,135.24,337.39Z" style="fill:#42464a"/><path d="M120.45,367.4a76.64,76.64,0,0,1,7.67,5.15,46.43,46.43,0,0,0,36.78,6.57,60.35,60.35,0,0,1-14.06-8.2c-6.2-4.83-11.51-10.91-18.46-14.57-8.22-4.32-19.17-5.37-28.65-4,.66,5.24,1.24,9.79,1.36,13.67A21.33,21.33,0,0,1,120.45,367.4Z" style="fill:#42464a"/></svg>