<svg id="Capa_1" data-name="Capa 1" xmlns="http://www.w3.org/2000/svg" viewBox="0 0 343 528"><path d="M167.11,358.63a19.9,19.9,0,0,1-13.65,8.5c-5.31-35,15.83-67.91,36-97l-30.25-4.6a170.43,170.43,0,0,1,48.51-51.74,57.45,57.45,0,0,1-23.53-14.16,322.65,322.65,0,0,1,89.69-43.3l-14.73-13c28.22-14.45,57.28-31,73.55-58.25s14.07-68-12.76-84.9L303.82,23.42c.57-9.29-6.71-17.72-15.4-21.07S270-.24,260.87,1.5c-17.93,3.42-38.27,14.7-38,33L212,19.88A216.82,216.82,0,0,0,84.54,113.41l-6.16-8.57a403.94,403.94,0,0,0-60.4,158C16.36,273.33,10.09,287.36,0,284a393,393,0,0,0,63,153c-6.19,2.52-7.5,11.39-4.2,17.2s9.62,9.16,15.73,11.89c18.5,8.29,86.11,33.76,102,11.89,7.23-9.95-5-40.93-6.49-53A437.82,437.82,0,0,1,167.11,358.63Z" style="fill:#3fa9f5"/><path d="M216.3,36.43c-3,10.36-5.7,19.8-9,31.29,4-1.26,5.68-1.25,6.24-2,22.31-30.9,53-30.52,85.15-21.94,18.37,4.9,22,13,13.89,30.38-17.79,38.35-43.75,65.49-91.06,61-.16,1.5-.31,3-.47,4.5l33.09,9.51c-28.35,25.42-65.32,33.92-103.56,48.35l43.71,8.87c-15.89,15.1-33.21,29.68-48.1,46.42C137.18,263,132,276.44,124,290.14L170.6,277c-20.45,39.46-36.95,77.53-23.46,121.26,3.69-3,7-6.41,10.92-8.8,3.34-2,7.37-3,12.28-3.34-15.71,21.32-2.36,44.29-5.63,66-40.09-20.42-73.19-113.06-64.11-182.37,9.13-69.65,39.62-127.95,95.59-172.64-2.94,1.62-6.1,2.95-8.79,4.91C77.57,182.31,58.64,351.36,147.73,454.11,167.25,476.62,191,493,218.39,503.88c10.66,4.26,13.65,12,16.66,24.11-26.44-7.91-46.7-21.37-66.76-35.64a67.39,67.39,0,0,0-24.5-10.67c-23.38-5-41.5-16.89-56.21-36.76l23,1C55,416.49,36.74,367,30,308.74c9.67,5.41,17.61,9.88,25.6,14.26.63.34,1.65,0,2.52-.08-36.56-48.25-36.46-94.57.58-152.12a94,94,0,0,1,21.71-24.21l5.49,54c3-38.41,9.51-75.1,35.39-105.52C146.4,65.51,175.48,42.35,216.3,36.43Z" style="fill:#bce1fb"/></svg>