<svg id="Capa_1" data-name="Capa 1" xmlns="http://www.w3.org/2000/svg" viewBox="0 0 516 346"><path d="M299,77.63s199.9,74,208.68,77.25,8,5.51,7.71,8.63-3.19,3.12-6.39,5.31S240.83,345.69,240.83,345.69L23.39,225.48S9,200.8,6.44,186s-7.21-26.09-1.08-34.2S299,77.63,299,77.63Z" style="fill:#828ac3"/><path d="M494,91s-3.92,24.09-2.24,39.43,9,29.57,9,29.57L236.52,331.53l-97-76.29Z" style="fill:#dcdcdc"/><path d="M235.05,242.24s-14,23.76-14,43.92,15.47,45.37,15.47,45.37L30.14,218s-17.57-22.34-17.57-45.54S12,144.67,28.09,141,235.05,242.24,235.05,242.24Z" style="fill:#ececec"/><path d="M239.07,248.55l-10,15S17.42,156,13.89,154.28s-7.64-.58-7.64,12.64,10,48.29,20,56.33S239.07,339.37,239.07,339.37a8.71,8.71,0,0,1,1.76,6.32L25.06,229.58s-21.8-32.47-23.62-55-3-30.54,13-32.92S239.07,248.55,239.07,248.55Z" style="fill:#9da0d0"/><path d="M285.19,1.48A10.67,10.67,0,0,1,293.71,1C324.13,12.1,502.8,77.51,509.25,79.23c7,1.89,7,6.27-.64,11.29s-279.54,173-279.54,173,2.56-7.53-7-11.91S13,146.93,7.23,145.68s-5.77,6.9-5.77,6.9S-3.67,143.8,22,133.14C53.11,120.21,253.74,17.59,285.19,1.48Z" style="fill:#828ac3"/></svg>