<svg id="Capa_1" data-name="Capa 1" xmlns="http://www.w3.org/2000/svg" viewBox="0 0 362 444"><path d="M351.11,325.51c-6.06-16.82-12.22-33.8-19.5-50.16-7.91-17.76-17.16-34.79-29.09-50.11-.82-1.05-1.66-2.1-2.5-3.13-11.85-14.53-25.89-27.19-40.78-38.6-2.18-1.67-4.39-3.31-6.6-4.93l.75-.86.06-.08a217,217,0,0,0,12.89-18.4c9.86-16,16.54-33.66,12.06-51.39-3.53-14-13.54-25.36-18.94-38.71a111,111,0,0,1-4.9-16.61c-2.64-11.36-4.84-22.83-11.62-32.15C234.83,9.23,221.22,3.07,207.56,1.22A82.38,82.38,0,0,0,199,.54c-10.85-.32-21.78,1.31-32.52,3.18C159.18,5,151.88,6.4,144.63,8c-18.24,4.12-36.15,9.7-52.47,18.31A136.26,136.26,0,0,0,75.82,36.43C67.7,42.3,60.13,49.35,55.66,58.32c-3,6.08-4.48,12.74-5.4,19.51-.44,3.29-.77,6.61-1.08,9.9l-4.86,51.21c-.63,6.65-1.22,13.61,1.3,19.8,2,4.92,5.81,8.88,9.75,12.44A134.24,134.24,0,0,0,68,181.25c10.64,7.56,22.21,13.72,34.17,19.33,5.8,2.72,11.69,5.32,17.61,7.88l-.17.14c-2.51,2-5.46,4.06-8.77,6.35-10.18,7.05-23.7,16-37.66,29.59a187.49,187.49,0,0,0-27.22,33.3,212.94,212.94,0,0,0-17.78,34.31,52.64,52.64,0,0,0-1.85,5.25C21.55,333.25,23,352,22.75,370.83,22.48,392.87,6,413.17.41,431.54c2.88,2,6.23-1.8,7.68-5,7.57-16.7,22.18-36,24-54.26,5.18,2.19,5.57,9.27,5.13,14.88-1.4,17.74-11.31,33.11-17.15,49.93,1.6,2.37,5.43,2.1,7.57.21s3-4.79,3.84-7.53c4.92-17,11.67-34.69,12.14-52.36,4.7.8,5.71,7,5.61,11.78-.3,14.27-5.33,32.22-8.33,46.17-.6,2.77-.84,6.36,1.64,7.71,3.56,1.95,6.75-3.17,7.54-7.15,2.31-11.66,5.79-27.51,5.79-39.4,0-7.68-1.8-12.71,2.76-16.9,6.56,3.38,5.15,10.46,5,17.84-.3,14.06-3,31.09-3.28,45.15,2.63,1.59,6.25-.19,7.72-2.9s1.39-5.94,1.27-9c-.49-12.71,1.38-28.38.89-41.09-.11-2.64.08-5.83,2.4-7.1s5.17.35,6.32,2.62,1,5,.85,7.5c-.7,10.75-1.58,30.47-2.28,41.22-.21,3.24,0,7.24,2.91,8.67,4.44,2.18,8.22-4.14,8.68-9.07,1.24-13.21-2.12-35.35-2.48-48.62a96,96,0,0,1,6.9-37.32,150.8,150.8,0,0,1,19.12-34.16c2.38-3.26,4.86-6.45,7.4-9.54a217.23,217.23,0,0,1,20.41-21.63A162.53,162.53,0,0,1,178,256,130.72,130.72,0,0,1,190,250.69l2.69-3.1c.75.58,1.5,1.18,2.24,1.77q3.94,3.16,7.74,6.51A219.47,219.47,0,0,1,242.09,302q1.53,2.39,3,4.81c14.73,24.34,29.87,54,19.31,80.4-.69,1.72-1.47,3.55-1.1,5.36.8,3.88,6.58,4.7,9.67,2.21s4.08-6.7,4.78-10.61c3.09-17.28-.77-34.3-1.67-51.83l7.66-.94q2.82,26.52,5.65,53c.32,3,1.4,6.87,4.44,7.15,3.91.35,5-5.22,4.61-9.12q-1.53-14.9-3.07-29.8c-1.05-10.13-.67-22.92,8.58-27.17,3.08,21.65,5.34,43.15,11.91,64,3.25.8,4.59-4,4.27-7.37-1.68-17.56-2.39-35.06-7.26-52-1.34-4.67-1-11.92,3.84-11.84,2.74,0,4.54,2.81,5.74,5.27,6.71,13.72,10.26,39.09,11.85,54.28.7,6.72,4,5.26,10.73,4.69a334.91,334.91,0,0,1-12.73-73.33c15.29,11.58,11.72,44.95,22.9,59.11,1.72,2.18,4.3-.92,6.39-1.47C360.83,352.55,356,338.91,351.11,325.51ZM179,137.31c-12.47-5.15-25.26-9.66-37.94-14.36-9.88-3.65-19.7-7.42-29.25-11.68l-1.1-.49.94-.12a155.71,155.71,0,0,1,48.1-23.44A146.22,146.22,0,0,1,205,81.28c1.84.06,3.68.15,5.51.29a25.63,25.63,0,0,1,9.49,3c2.47,1.37,4.46,3.13,5,5.12,0,.09.05.19.07.29l.15.21a64.29,64.29,0,0,1-2.88,6.39,73.58,73.58,0,0,1-4.15,7c-8.75,13.11-22.18,25.27-34.61,33.75l-1.21,1.35-1.3-.56-2.06-.85,4.09,2.22h0Z" style="fill:#b60076"/><path d="M331.61,275.35,242.09,302q1.53,2.39,3,4.81c14.73,24.34,29.87,54,19.31,80.4-.69,1.72-1.47,3.55-1.1,5.36.8,3.88,6.58,4.7,9.67,2.21s4.08-6.7,4.78-10.61c3.09-17.28-.77-34.3-1.67-51.83l7.66-.94q2.82,26.52,5.65,53c.32,3,1.4,6.87,4.44,7.15,3.91.35,5-5.22,4.61-9.12q-1.53-14.9-3.07-29.8c-1.05-10.13-.67-22.92,8.58-27.17,3.08,21.65,5.34,43.15,11.91,64,3.25.8,4.59-4,4.27-7.37-1.68-17.56-2.39-35.06-7.26-52-1.34-4.67-1-11.92,3.84-11.84,2.74,0,4.54,2.81,5.74,5.27,6.71,13.72,10.26,39.09,11.85,54.28.7,6.72,4,5.26,10.73,4.69a334.91,334.91,0,0,1-12.73-73.33c15.29,11.58,11.72,44.95,22.9,59.11,1.72,2.18,4.3-.92,6.39-1.47-.76-14.23-5.64-27.87-10.48-41.27C345.05,308.69,338.89,291.71,331.61,275.35Z" style="fill:#e00076"/><path d="M300,222.11l-97.31,33.76A219.47,219.47,0,0,1,242.09,302l89.52-26.61c-7.91-17.76-17.16-34.79-29.09-50.11C301.7,224.19,300.86,223.14,300,222.11Z" style="fill:#ffca05"/><path d="M93.5,347.51a150.8,150.8,0,0,1,19.12-34.16c-11.48-10.09-25.43-16.27-39.38-23-6.52-3-13.64-6.52-20.75-10.08a57.18,57.18,0,0,0-6.56-2.47,212.94,212.94,0,0,0-17.78,34.31,52.64,52.64,0,0,0-1.85,5.25,195.94,195.94,0,0,0,26.19,13.9A435.47,435.47,0,0,0,93.5,347.51Z" style="fill:#ffca05"/><path d="M93.5,347.51a435.47,435.47,0,0,1-41-16.21A195.94,195.94,0,0,1,26.3,317.4C21.55,333.25,23,352,22.75,370.83,22.48,392.87,6,413.17.41,431.54c2.88,2,6.23-1.8,7.68-5,7.57-16.7,22.18-36,24-54.26,5.18,2.19,5.57,9.27,5.13,14.88-1.4,17.74-11.31,33.11-17.15,49.93,1.6,2.37,5.43,2.1,7.57.21s3-4.79,3.84-7.53c4.92-17,11.67-34.69,12.14-52.36,4.7.8,5.71,7,5.61,11.78-.3,14.27-5.33,32.22-8.33,46.17-.6,2.77-.84,6.36,1.64,7.71,3.56,1.95,6.75-3.17,7.54-7.15,2.31-11.66,5.79-27.51,5.79-39.4,0-7.68-1.8-12.71,2.76-16.9,6.56,3.38,5.15,10.46,5,17.84-.3,14.06-3,31.09-3.28,45.15,2.63,1.59,6.25-.19,7.72-2.9s1.39-5.94,1.27-9c-.49-12.71,1.38-28.38.88-41.09-.1-2.64.09-5.83,2.41-7.1s5.17.35,6.32,2.62,1,5,.85,7.5c-.7,10.75-1.58,30.47-2.28,41.22-.21,3.24,0,7.24,2.91,8.67,4.44,2.18,8.22-4.14,8.68-9.07,1.24-13.21-2.12-35.35-2.48-48.62A96,96,0,0,1,93.5,347.51Z" style="fill:#e00076"/><path d="M73.24,290.39c14,6.69,27.9,12.87,39.38,23,2.38-3.26,4.86-6.45,7.4-9.54a217.23,217.23,0,0,1,20.41-21.63c-18-18.6-41.88-31.18-67.28-37.64a187.49,187.49,0,0,0-27.22,33.3,57.18,57.18,0,0,1,6.56,2.47C59.6,283.87,66.72,287.42,73.24,290.39Z" style="fill:#00c7e4"/><path d="M110.81,215c-10.18,7.05-23.7,16-37.66,29.59,25.4,6.46,49.28,19,67.28,37.64A162.53,162.53,0,0,1,178,256C158.91,236.5,135.29,225.1,110.81,215Z" style="fill:#e00076"/><path d="M186.49,243c-8.3-7.12-17.2-10.08-26.68-16-12.76-8.51-26.27-13.62-40.23-18.35-2.51,2-5.46,4.06-8.77,6.35,24.48,10.15,48.1,21.55,67.16,41A130.72,130.72,0,0,1,190,250.69l2.69-3.1c.75.58,1.5,1.18,2.24,1.77C192.73,246.74,189.33,245,186.49,243Z" style="fill:#d09605"/><path d="M67.91,64.49C60.79,75.16,69.68,87,79.17,93.54c8.09,5.28,16,11.38,24.64,15.1-5.51-23.76-4-47.58-8.74-72.25A104.35,104.35,0,0,0,67.91,64.49Z" style="fill:#d09605"/><path d="M146.75,15.86C128.1,19,110.32,25.61,95.07,36.39c4.75,24.67,3.23,48.49,8.74,72.25a44.17,44.17,0,0,0,8,2.63l-1.1-.49.94-.12a155.71,155.71,0,0,1,48.1-23.44c-.77-3.77-1.59-7.57-2.33-11.47C153.86,55.74,148.36,35.74,146.75,15.86Z" style="fill:#3a8bba"/><path d="M222.09,36c-4.94-8.42-11.19-15.86-21.37-18.91-.6,0-3-1.78-3-1.78-1.5-.2-3-.38-4.51-.55A126.83,126.83,0,0,0,200.72,55,76.4,76.4,0,0,1,205,81.28c1.84.06,3.68.15,5.51.29a25.63,25.63,0,0,1,9.49,3q.75-1.71,1.44-3.51C225.93,67.71,217,48.31,222.09,36Z" style="fill:#3a8bba"/><path d="M222.09,36c-5.11,12.34,3.84,31.74-.62,45.12q-.69,1.8-1.44,3.51c2.47,1.37,4.46,3.13,5,5.12,6.67-15.89,7.11-34.74-.57-49.54C223.68,38.76,222.91,37.35,222.09,36Z" style="fill:#d09605"/><path d="M200.72,55a126.83,126.83,0,0,1-7.48-40.27,169.82,169.82,0,0,0-46.49,1.13c1.61,19.88,7.11,39.88,10.68,59.89.74,3.9,1.56,7.7,2.33,11.47A146.22,146.22,0,0,1,205,81.28,76.4,76.4,0,0,0,200.72,55Z" style="fill:#b60076"/><path d="M259.24,183.51c-2.18-1.67-4.39-3.31-6.6-4.93l.75-.86-.18-.1c-10.29,2-20,6.42-28.78,10.79-22,11-38.4,27.71-59.08,41.75,7.42,4,14.47,7.08,21.14,12.8,2.84,2,6.24,3.78,8.48,6.4q3.94,3.16,7.74,6.51L300,222.11C288.17,207.58,274.13,194.92,259.24,183.51Z" style="fill:#00c7e4"/><path d="M134.65,214.07A133.84,133.84,0,0,1,159.81,227c1.87,1.17,3.71,2.22,5.54,3.21,20.68-14,37.05-30.73,59.08-41.75,8.74-4.37,18.49-8.74,28.78-10.79l-54.76-29.75a79.86,79.86,0,0,0-26.19,16.82C157.18,179,144.77,195.91,134.65,214.07Z" style="fill:#e00076"/><path d="M119.75,208.46l-.17.14c5.09,1.72,10.11,3.5,15.07,5.47,10.12-18.16,22.53-35.1,37.61-49.38a79.86,79.86,0,0,1,26.19-16.82L179,137.31c-12.47-5.15-25.26-9.66-37.94-14.36a319.44,319.44,0,0,0-38.93,77.63C107.94,203.3,113.83,205.9,119.75,208.46Z" style="fill:#ffca05"/><path d="M102.14,200.58A319.44,319.44,0,0,1,141.07,123c-9.88-3.65-19.7-7.42-29.25-11.68a55.22,55.22,0,0,1-16.65-7.14C77.27,124.41,73,153.62,68,181.25,78.61,188.81,90.18,195,102.14,200.58Z" style="fill:#00c7e4"/><path d="M50.26,77.83c-.44,3.29-.77,6.61-1.08,9.9l-4.86,51.21c-.63,6.65-1.22,13.61,1.3,19.8,2,4.92,5.81,8.88,9.75,12.44A134.24,134.24,0,0,0,68,181.25c5.07-27.63,9.3-56.84,27.2-77.12-5.43-3.28-10.67-7.11-16-10.59C70.8,87.79,62.9,77.88,66,68.3,58.29,65.61,53.62,71.06,50.26,77.83Z" style="fill:#e00076"/><path d="M75.82,36.43C67.7,42.3,60.13,49.35,55.66,58.32c-3,6.08-4.48,12.74-5.4,19.51,3.36-6.77,8-12.22,15.78-9.53a15.62,15.62,0,0,1,1.87-3.81A104.49,104.49,0,0,1,96,35.78a28.61,28.61,0,0,0-3.8-9.44A136.26,136.26,0,0,0,75.82,36.43Z" style="fill:#ffca05"/><path d="M144.63,8c-18.24,4.12-36.15,9.7-52.47,18.31A28.61,28.61,0,0,1,96,35.78c14.6-10.11,31.47-16.45,49.16-19.64A47.7,47.7,0,0,0,144.63,8Z" style="fill:#00c7e4"/><path d="M199,.54c-10.85-.32-21.78,1.31-32.52,3.18C159.18,5,151.88,6.4,144.63,8a47.7,47.7,0,0,1,.49,8.11,168.54,168.54,0,0,1,45-1.72A38.7,38.7,0,0,1,199,.54Z" style="fill:#e00076"/><path d="M226.21,26c5.93-4.74,13.64-1.19,17.2,4.74,3.8,7.61,7.37,14.73,11.15,21.84-2.64-11.36-4.84-22.83-11.62-32.15C234.83,9.23,221.22,3.07,207.56,1.22A82.38,82.38,0,0,0,199,.54a38.7,38.7,0,0,0-8.85,13.88c2.55.24,5.1.52,7.63.86,0,0,2.37,1.78,3,1.78,8.92,2.67,14.82,8.7,19.46,15.81A39.84,39.84,0,0,1,226.21,26Z" style="fill:#00c7e4"/><path d="M278.4,107.85c-3.53-14-13.54-25.36-18.94-38.71a111,111,0,0,1-4.9-16.61c-3.78-7.11-7.35-14.23-11.15-21.84-3.56-5.93-11.27-9.48-17.2-4.74a39.84,39.84,0,0,0-6,6.92c1.53,2.35,2.93,4.81,4.25,7.31,7.68,14.8,7.24,33.65.57,49.54,0,.09.05.19.07.29l.15.21a64.29,64.29,0,0,1-2.88,6.39,73.58,73.58,0,0,1-4.15,7c15.24,20.78,29.51,40.07,48.15,55.62C276.2,143.21,282.88,125.58,278.4,107.85Z" style="fill:#ffca05"/><path d="M218.19,103.62c-8.75,13.11-22.18,25.27-34.61,33.75l-1.21,1.35-1.3-.56-2.06-.85,74.38,40.41.06-.08a217,217,0,0,0,12.89-18.4C247.7,143.69,233.43,124.4,218.19,103.62Z" style="fill:#b60076"/></svg>