<svg id="Capa_1" data-name="Capa 1" xmlns="http://www.w3.org/2000/svg" viewBox="0 0 593 344"><rect x="0.71" y="326.98" width="591.57" height="16.05" style="fill:#cfccca"/><polygon points="592.29 326.98 0.71 326.98 114.99 78.25 478.01 78.25 592.29 326.98" style="fill:#b3b3b3"/><polygon points="554.03 307.04 38.97 307.04 130.15 86.15 462.85 86.15 554.03 307.04" style="fill:#f2ecec"/><polygon points="295.47 147.58 248.5 147.58 250.76 125.71 295.51 125.71 295.47 147.58" style="fill:#7d7d7d"/><polygon points="389.93 147.58 342.97 147.58 340.78 125.71 385.53 125.71 389.93 147.58" style="fill:#7d7d7d"/><polygon points="485.46 147.58 438.5 147.58 431.81 125.71 476.57 125.71 485.46 147.58" style="fill:#7d7d7d"/><polygon points="245.97 171.69 196.57 171.69 201.51 147.55 248.47 147.55 245.97 171.69" style="fill:#7d7d7d"/><polygon points="345.34 171.69 295.94 171.69 295.97 147.55 342.93 147.55 345.34 171.69" style="fill:#7d7d7d"/><polygon points="445.27 171.69 395.87 171.69 390.96 147.55 437.92 147.55 445.27 171.69" style="fill:#7d7d7d"/><polygon points="295.35 199.51 243.13 199.51 245.91 172.62 295.41 172.62 295.35 199.51" style="fill:#7d7d7d"/><polygon points="400.38 199.51 348.16 199.51 345.47 172.62 394.97 172.62 400.38 199.51" style="fill:#7d7d7d"/><polygon points="506.6 199.51 454.38 199.51 446.15 172.62 495.65 172.62 506.6 199.51" style="fill:#7d7d7d"/><polygon points="239.99 229.49 184.75 229.49 190.88 199.48 243.1 199.48 239.99 229.49" style="fill:#7d7d7d"/><polygon points="351.12 229.49 295.87 229.49 295.91 199.48 348.12 199.48 351.12 229.49" style="fill:#7d7d7d"/><polygon points="462.87 229.49 407.62 229.49 401.52 199.48 453.73 199.48 462.87 229.49" style="fill:#7d7d7d"/><polygon points="295.21 263.89 236.48 263.89 239.97 230.09 295.28 230.09 295.21 263.89" style="fill:#7d7d7d"/><polygon points="413.33 263.89 354.6 263.89 351.22 230.09 406.53 230.09 413.33 263.89" style="fill:#7d7d7d"/><polygon points="532.79 263.89 474.06 263.89 463.73 230.09 519.04 230.09 532.79 263.89" style="fill:#7d7d7d"/><polygon points="232.34 303.51 169.6 303.51 177.46 265.1 236.31 265.1 232.34 303.51" style="fill:#7d7d7d"/><polygon points="201.5 147.58 154.53 147.58 161.22 125.71 205.97 125.71 201.5 147.58" style="fill:#7d7d7d"/><polygon points="147.13 171.69 97.72 171.69 107.55 147.55 154.51 147.55 147.13 171.69" style="fill:#7d7d7d"/><polygon points="295.56 105.83 252.81 105.83 254.69 87.64 295.6 87.64 295.56 105.83" style="fill:#7d7d7d"/><polygon points="381.53 105.83 338.79 105.83 336.97 87.64 377.87 87.64 381.53 105.83" style="fill:#7d7d7d"/><polygon points="468.48 105.83 425.73 105.83 420.17 87.64 461.08 87.64 468.48 105.83" style="fill:#7d7d7d"/><polygon points="250.73 125.71 205.97 125.71 210.04 105.81 252.79 105.81 250.73 125.71" style="fill:#7d7d7d"/><polygon points="340.75 125.71 295.99 125.71 296.01 105.81 338.76 105.81 340.75 125.71" style="fill:#7d7d7d"/><polygon points="431.27 125.71 386.51 125.71 382.46 105.81 425.21 105.81 431.27 125.71" style="fill:#7d7d7d"/><polygon points="210.04 105.83 167.3 105.83 172.86 87.64 213.76 87.64 210.04 105.83" style="fill:#7d7d7d"/><polygon points="161.19 125.71 116.43 125.71 124.53 105.81 167.27 105.81 161.19 125.71" style="fill:#7d7d7d"/><polygon points="190.88 199.51 138.66 199.51 146.88 172.62 196.38 172.62 190.88 199.51" style="fill:#7d7d7d"/><polygon points="129.46 229.49 74.2 229.49 86.42 199.48 138.63 199.48 129.46 229.49" style="fill:#7d7d7d"/><polygon points="177.71 263.89 118.98 263.89 129.31 230.09 184.62 230.09 177.71 263.89" style="fill:#7d7d7d"/><polygon points="106.82 303.51 44.09 303.51 59.72 265.1 118.57 265.1 106.82 303.51" style="fill:#7d7d7d"/><polygon points="358.52 303.51 295.79 303.51 295.83 265.1 354.68 265.1 358.52 303.51" style="fill:#7d7d7d"/><polygon points="485.41 303.51 422.68 303.51 414.86 265.1 473.71 265.1 485.41 303.51" style="fill:#7d7d7d"/><circle cx="99.6" cy="204.03" r="10.03"/><ellipse cx="99.6" cy="214.06" rx="10.37" ry="2.18"/><ellipse cx="98.94" cy="245.59" rx="16.38" ry="3.82"/><ellipse cx="98.94" cy="249.41" rx="16.38" ry="3.82"/><path d="M82.56,256.26c0-2.11,7.34-12,16.38-12s16.38,9.94,16.38,12-7.33,3.82-16.38,3.82S82.56,258.37,82.56,256.26Z"/><path d="M93.86,212.13s-.12,10.49-4.47,31c0,0-2,3.44,8,3.44s5.08-.54,5.08-.54V210.43Z"/><path d="M105.2,212.13s.11,10.49,4.47,31c0,0,2,3.44-8,3.44s-5.08-.54-5.08-.54V210.43Z"/><circle cx="96.3" cy="200.49" r="4.03"/><circle cx="159.67" cy="202.47" r="10.03"/><ellipse cx="159.67" cy="212.5" rx="10.37" ry="2.18"/><ellipse cx="159.01" cy="244.03" rx="16.38" ry="3.82"/><ellipse cx="159.01" cy="247.85" rx="16.38" ry="3.82"/><path d="M142.63,254.7c0-2.11,7.33-12,16.38-12s16.38,9.94,16.38,12-7.34,3.82-16.38,3.82S142.63,256.81,142.63,254.7Z"/><path d="M153.92,210.57s-.11,10.49-4.47,31c0,0-2,3.44,8,3.44s5.08-.54,5.08-.54V208.87Z"/><path d="M165.26,210.57s.12,10.49,4.47,31c0,0,2,3.44-8,3.44s-5.08-.54-5.08-.54V208.87Z"/><circle cx="156.37" cy="198.93" r="4.03"/><circle cx="220.98" cy="202.47" r="10.03"/><ellipse cx="220.98" cy="212.5" rx="10.37" ry="2.18"/><ellipse cx="220.31" cy="244.03" rx="16.38" ry="3.82"/><ellipse cx="220.31" cy="247.85" rx="16.38" ry="3.82"/><path d="M203.93,254.7c0-2.11,7.34-12,16.38-12s16.38,9.94,16.38,12-7.33,3.82-16.38,3.82S203.93,256.81,203.93,254.7Z"/><path d="M215.23,210.57s-.11,10.49-4.47,31c0,0-2,3.44,8,3.44s5.08-.54,5.08-.54V208.87Z"/><path d="M226.57,210.57s.12,10.49,4.47,31c0,0,2,3.44-8,3.44s-5.08-.54-5.08-.54V208.87Z"/><circle cx="217.68" cy="198.93" r="4.03"/><circle cx="277.71" cy="201.56" r="10.03"/><ellipse cx="277.71" cy="211.59" rx="10.37" ry="2.18"/><ellipse cx="277.05" cy="243.11" rx="16.38" ry="3.82"/><ellipse cx="277.05" cy="246.93" rx="16.38" ry="3.82"/><path d="M260.67,253.78c0-2.11,7.33-12,16.38-12s16.38,9.93,16.38,12-7.34,3.82-16.38,3.82S260.67,255.89,260.67,253.78Z"/><path d="M272,209.65s-.11,10.5-4.46,31c0,0-2,3.45,8,3.45s5.07-.55,5.07-.55V208Z"/><path d="M283.3,209.65s.12,10.5,4.47,31c0,0,2,3.45-8,3.45s-5.08-.55-5.08-.55V208Z"/><circle cx="274.41" cy="198.02" r="4.03"/><circle cx="322.55" cy="202.47" r="10.03"/><ellipse cx="322.55" cy="212.5" rx="10.37" ry="2.18"/><ellipse cx="321.89" cy="244.03" rx="16.38" ry="3.82"/><ellipse cx="321.89" cy="247.85" rx="16.38" ry="3.82"/><path d="M305.51,254.7c0-2.11,7.33-12,16.38-12s16.38,9.94,16.38,12-7.34,3.82-16.38,3.82S305.51,256.81,305.51,254.7Z"/><path d="M316.8,210.57s-.11,10.49-4.47,31c0,0-2,3.44,8,3.44s5.08-.54,5.08-.54V208.87Z"/><path d="M328.14,210.57s.12,10.49,4.47,31c0,0,2,3.44-8,3.44s-5.08-.54-5.08-.54V208.87Z"/><circle cx="319.25" cy="198.93" r="4.03"/><circle cx="379.68" cy="202.47" r="10.03"/><ellipse cx="379.68" cy="212.5" rx="10.37" ry="2.18"/><ellipse cx="379.02" cy="244.03" rx="16.38" ry="3.82"/><ellipse cx="379.02" cy="247.85" rx="16.38" ry="3.82"/><path d="M362.64,254.7c0-2.11,7.33-12,16.38-12s16.38,9.94,16.38,12-7.34,3.82-16.38,3.82S362.64,256.81,362.64,254.7Z"/><path d="M373.93,210.57s-.11,10.49-4.46,31c0,0-2,3.44,8,3.44s5.07-.54,5.07-.54V208.87Z"/><path d="M385.27,210.57s.12,10.49,4.47,31c0,0,2,3.44-8,3.44s-5.08-.54-5.08-.54V208.87Z"/><circle cx="376.38" cy="198.93" r="4.03"/><circle cx="435.98" cy="201.02" r="10.03"/><ellipse cx="435.98" cy="211.06" rx="10.37" ry="2.18"/><ellipse cx="435.32" cy="242.58" rx="16.38" ry="3.82"/><ellipse cx="435.32" cy="246.4" rx="16.38" ry="3.82"/><path d="M418.94,253.25c0-2.11,7.33-12,16.38-12s16.38,9.93,16.38,12-7.33,3.82-16.38,3.82S418.94,255.36,418.94,253.25Z"/><path d="M430.24,209.12s-.12,10.5-4.47,31c0,0-2,3.45,8,3.45s5.08-.55,5.08-.55V207.42Z"/><path d="M441.58,209.12s.11,10.5,4.46,31c0,0,2,3.45-8,3.45S433,243,433,243V207.42Z"/><circle cx="432.68" cy="197.49" r="4.03"/><circle cx="495.33" cy="205.22" r="10.03"/><ellipse cx="495.33" cy="215.25" rx="10.37" ry="2.18"/><ellipse cx="494.67" cy="246.77" rx="16.38" ry="3.82"/><ellipse cx="494.67" cy="250.59" rx="16.38" ry="3.82"/><path d="M478.29,257.44c0-2.11,7.33-12,16.38-12s16.38,9.93,16.38,12-7.34,3.82-16.38,3.82S478.29,259.55,478.29,257.44Z"/><path d="M489.58,213.31s-.11,10.5-4.47,31c0,0-2,3.45,8,3.45s5.08-.55,5.08-.55V211.61Z"/><path d="M500.92,213.31s.12,10.5,4.47,31c0,0,2,3.45-8,3.45s-5.08-.55-5.08-.55V211.61Z"/><circle cx="492.03" cy="201.68" r="4.03"/><path d="M378.94,206.57c0-3.54,3.61-9.53,6.77-14.09a5.64,5.64,0,0,1,9.29,0c3.16,4.56,6.77,10.55,6.77,14.09a11.42,11.42,0,0,1-22.83,0Z" style="fill:#32231c"/><ellipse cx="390.35" cy="222.46" rx="11.8" ry="2.48" style="fill:#32231c"/><ellipse cx="389.6" cy="275.82" rx="18.63" ry="4.35" style="fill:#32231c"/><ellipse cx="389.74" cy="218.54" rx="15.27" ry="3.56" style="fill:#32231c"/><ellipse cx="389.6" cy="280.17" rx="18.63" ry="4.35" style="fill:#32231c"/><path d="M371,288c0-2.4,8.34-13.7,18.63-13.7s18.63,11.3,18.63,13.7-8.34,4.34-18.63,4.34S371,290.36,371,288Z" style="fill:#32231c"/><path d="M387.56,219.47a5.63,5.63,0,0,0-4.69,5.38c-.29,9.18-1.41,30.45-5.73,48.16,0,0-2.6,3.92,10.41,3.92,7.23,0,8.47-.19,8.15-.36-1.31-.68-1.53-2.51-1.53-4V225a5.64,5.64,0,0,0-6.61-5.57Z" style="fill:#32231c"/><path d="M393.17,219.47a5.63,5.63,0,0,1,4.69,5.38c.29,9.18,1.41,30.45,5.73,48.16,0,0,2.6,3.92-10.41,3.92-7.23,0-8.47-.19-8.14-.36,1.3-.68,1.52-2.51,1.52-4V225a5.65,5.65,0,0,1,6.61-5.57Z" style="fill:#32231c"/><circle cx="390.35" cy="186.23" r="4.59" style="fill:#32231c"/><path d="M382.83,207.75a4.11,4.11,0,0,1,1.18-2.94c1.24-1.32,3.28-2,6.05-2,6.69,0,6.89,4.8,6.89,4.85l-1.91.05c0-.3-.28-3-5-3-2.17,0-3.77.46-4.63,1.35a2.32,2.32,0,0,0-.7,1.57Z"/><circle cx="389.37" cy="185.02" r="2.22" style="fill:#42342e"/><path d="M202.05,206.57c0-3.54,3.61-9.53,6.77-14.09a5.64,5.64,0,0,1,9.29,0c3.16,4.56,6.77,10.55,6.77,14.09a11.42,11.42,0,0,1-22.83,0Z" style="fill:#32231c"/><ellipse cx="213.47" cy="222.46" rx="11.8" ry="2.48" style="fill:#32231c"/><ellipse cx="212.71" cy="275.82" rx="18.63" ry="4.35" style="fill:#32231c"/><ellipse cx="212.85" cy="218.54" rx="15.27" ry="3.56" style="fill:#32231c"/><ellipse cx="212.71" cy="280.17" rx="18.63" ry="4.35" style="fill:#32231c"/><path d="M194.09,288c0-2.4,8.34-13.7,18.62-13.7s18.63,11.3,18.63,13.7-8.34,4.34-18.63,4.34S194.09,290.36,194.09,288Z" style="fill:#32231c"/><path d="M210.67,219.47a5.65,5.65,0,0,0-4.69,5.38c-.29,9.18-1.41,30.45-5.72,48.16,0,0-2.61,3.92,10.4,3.92,7.23,0,8.47-.19,8.15-.36-1.3-.68-1.52-2.51-1.52-4V225a5.65,5.65,0,0,0-6.62-5.57Z" style="fill:#32231c"/><path d="M216.28,219.47a5.63,5.63,0,0,1,4.69,5.38c.29,9.18,1.42,30.45,5.73,48.16,0,0,2.6,3.92-10.41,3.92-7.22,0-8.47-.19-8.14-.36,1.3-.68,1.52-2.51,1.52-4V225a5.65,5.65,0,0,1,6.61-5.57Z" style="fill:#32231c"/><circle cx="213.47" cy="186.23" r="4.59" style="fill:#32231c"/><path d="M205.94,207.75a4.16,4.16,0,0,1,1.18-2.94c1.24-1.32,3.28-2,6-2,6.69,0,6.89,4.8,6.89,4.85l-1.9.05c0-.3-.29-3-5-3-2.16,0-3.77.46-4.63,1.35a2.38,2.38,0,0,0-.7,1.57Z"/><circle cx="212.48" cy="185.02" r="2.22" style="fill:#42342e"/><path d="M315.86,193c0,3.54,2.75,9.82,5.91,14.38,2.25,3.25,9.2,2.94,11.45-.31,3.16-4.56,6.76-10.55,6.76-14.09,0-4.32-1.74-3-5.27-3.88a29.83,29.83,0,0,0-6.14-.67c-2.05,0-5.27-3-6.93-2.56C318.19,186.76,315.86,188.78,315.86,193Z" style="fill:#32231c"/><path d="M341.54,193c0,3.54-2.75,9.82-5.91,14.38-2.24,3.25-9.2,2.94-11.44-.31-3.16-4.56-6.77-10.55-6.77-14.09,0-4.32,1.74-3,5.28-3.88a29.73,29.73,0,0,1,6.13-.67c2.05,0,5.27-3,6.93-2.56C339.22,186.76,341.54,188.78,341.54,193Z" style="fill:#32231c"/><ellipse cx="328.57" cy="223.29" rx="11.8" ry="2.48" style="fill:#32231c"/><ellipse cx="327.82" cy="276.65" rx="18.63" ry="4.35" style="fill:#32231c"/><ellipse cx="327.95" cy="219.36" rx="15.27" ry="3.56" style="fill:#32231c"/><ellipse cx="327.95" cy="215.08" rx="15.27" ry="3.56" style="fill:#32231c"/><ellipse cx="327.95" cy="210.88" rx="15.27" ry="3.56" style="fill:#32231c"/><ellipse cx="327.82" cy="280.99" rx="18.63" ry="4.35" style="fill:#32231c"/><path d="M309.19,288.78c0-2.4,8.34-13.7,18.63-13.7s18.63,11.3,18.63,13.7-8.34,4.35-18.63,4.35S309.19,291.18,309.19,288.78Z" style="fill:#32231c"/><path d="M325.78,220.29a5.64,5.64,0,0,0-4.69,5.39c-.29,9.18-1.41,30.44-5.73,48.16,0,0-2.6,3.91,10.41,3.91,7.23,0,8.47-.19,8.14-.36-1.3-.68-1.52-2.51-1.52-4V225.86a5.66,5.66,0,0,0-6.61-5.57Z" style="fill:#32231c"/><path d="M331.39,220.29a5.65,5.65,0,0,1,4.69,5.39c.29,9.18,1.41,30.44,5.73,48.16,0,0,2.6,3.91-10.41,3.91-7.23,0-8.47-.19-8.15-.36,1.3-.68,1.52-2.51,1.52-4V225.86a5.66,5.66,0,0,1,6.62-5.57Z" style="fill:#32231c"/><circle cx="328.42" cy="188.93" r="4.59" style="fill:#32231c"/><circle cx="327.43" cy="187.72" r="2.22" style="fill:#42342e"/><path d="M323.62,189.9c.53.41,1.05,1,.8,1.67a15.67,15.67,0,0,1-2.45.33,5.45,5.45,0,0,1-2-.2c-1.27-.43-2.34-2.17-.92-3.09S322.57,189.09,323.62,189.9Z" style="fill:#42342e"/><path d="M325.76,193.63a1.71,1.71,0,0,0,.7.2,8.28,8.28,0,0,0,5.24-1.13,1.8,1.8,0,0,0,.73-.69.7.7,0,0,0-.19-.9,1.1,1.1,0,0,0-.57-.1l-4,0c-.65,0-1.8,0-2.24.56A1.65,1.65,0,0,0,325.76,193.63Z" style="fill:#42342e"/><path d="M334.77,187.37a1.71,1.71,0,0,1-.06,1.67c-.22.34-.55.59-.79.92a1,1,0,0,0-.1,1.12.9.9,0,0,0,.41.27,2.11,2.11,0,0,0,2.66-1.2,3.51,3.51,0,0,0,.17-1.16,2.12,2.12,0,0,0-.13-.87,2.38,2.38,0,0,0-1.74-1.08.75.75,0,0,0-.39,0,.23.23,0,0,0-.17.3" style="fill:#42342e"/><ellipse cx="86.96" cy="231.45" rx="11.8" ry="2.48" style="fill:#32231c"/><ellipse cx="86.21" cy="275" rx="18.63" ry="4.35" style="fill:#32231c"/><ellipse cx="86.34" cy="227.52" rx="15.27" ry="3.56" style="fill:#32231c"/><ellipse cx="86.21" cy="279.35" rx="18.63" ry="4.35" style="fill:#32231c"/><path d="M67.58,287.13c0-2.4,8.34-13.69,18.63-13.69s18.63,11.29,18.63,13.69-8.35,4.35-18.63,4.35S67.58,289.54,67.58,287.13Z" style="fill:#32231c"/><path d="M84.17,228.45a5.66,5.66,0,0,0-4.7,5.39c-.29,9.18-1.41,20.63-5.72,38.35,0,0-2.6,3.92,10.41,3.92,7.22,0,8.47-.19,8.14-.36-1.3-.68-1.52-2.51-1.52-4V234a5.66,5.66,0,0,0-6.61-5.57Z" style="fill:#32231c"/><path d="M89.78,228.45a5.66,5.66,0,0,1,4.69,5.39c.29,9.18,1.41,20.63,5.72,38.35,0,0,2.61,3.92-10.4,3.92-7.23,0-8.47-.19-8.15-.36,1.3-.68,1.52-2.51,1.52-4V234a5.66,5.66,0,0,1,6.62-5.57Z" style="fill:#32231c"/><polygon points="101.12 217.34 101.12 217.01 71.64 217.01 71.64 217.35 71.11 217.35 71.11 227.52 101.61 227.52 101.61 217.34 101.12 217.34" style="fill:#32231c"/><path d="M101.12,217.34V216c-1.55-1.41-6.72-2.49-13.07-2.65l-.65,1.38,0,1.71H85.18v-1.7l-.38-1.4c-6.32.15-11.49,1.2-13.16,2.59v1.39H71.2c.91,1.77,7.34,3.13,15.14,3.13s14.25-1.37,15.15-3.14Z" style="fill:#3f312a"/><path d="M77.05,216.92c0-1.11,3.54-2,8.13-2.15v3.09h2.19l0-3.1c4.64.13,8.24,1.05,8.24,2.16s-4.17,2.17-9.3,2.17S77.05,218.12,77.05,216.92Z" style="fill:#50433d"/><rect x="83.6" y="220.49" width="5" height="5"/><polygon points="87.8 219.02 88.6 220.49 87.54 220.49 83.6 220.49 84.39 219.07 87.8 219.02"/><rect x="84.39" y="218.76" width="3.36" height="3.88" style="fill:#50433d"/><polygon points="87.75 222.64 88.6 225.49 83.6 225.49 84.39 222.64 87.75 222.64" style="fill:#3f312a"/><path d="M77.77,216.07l0,1.68a2.57,2.57,0,0,1-.63-.54l-5.52.13,0-1.41Z" style="fill:#302119"/><path d="M95.05,216.17,95,217.75a2.57,2.57,0,0,0,.63-.54l5.52.13V216Z" style="fill:#302119"/><ellipse cx="511.18" cy="231.45" rx="11.8" ry="2.48" style="fill:#32231c"/><ellipse cx="510.43" cy="275" rx="18.63" ry="4.35" style="fill:#32231c"/><ellipse cx="510.57" cy="227.52" rx="15.27" ry="3.56" style="fill:#32231c"/><ellipse cx="510.43" cy="279.35" rx="18.63" ry="4.35" style="fill:#32231c"/><path d="M491.8,287.13c0-2.4,8.34-13.69,18.63-13.69s18.63,11.29,18.63,13.69-8.34,4.35-18.63,4.35S491.8,289.54,491.8,287.13Z" style="fill:#32231c"/><path d="M508.39,228.45a5.65,5.65,0,0,0-4.69,5.39c-.29,9.18-1.41,20.63-5.73,38.35,0,0-2.6,3.92,10.41,3.92,7.23,0,8.47-.19,8.15-.36-1.31-.68-1.52-2.51-1.52-4V234a5.66,5.66,0,0,0-6.62-5.57Z" style="fill:#32231c"/><path d="M514,228.45a5.64,5.64,0,0,1,4.69,5.39c.29,9.18,1.41,20.63,5.73,38.35,0,0,2.6,3.92-10.41,3.92-7.23,0-8.47-.19-8.14-.36,1.3-.68,1.52-2.51,1.52-4V234a5.66,5.66,0,0,1,6.61-5.57Z" style="fill:#32231c"/><polygon points="525.35 217.34 525.35 217.01 495.87 217.01 495.87 217.35 495.34 217.35 495.34 227.52 525.84 227.52 525.84 217.34 525.35 217.34" style="fill:#32231c"/><path d="M525.34,217.34V216c-1.55-1.41-6.71-2.49-13.06-2.65l-.65,1.38v1.71H509.4v-1.7l-.38-1.4c-6.31.15-11.48,1.2-13.15,2.59v1.39h-.45c.92,1.77,7.34,3.13,15.15,3.13s14.25-1.37,15.15-3.14Z" style="fill:#3f312a"/><path d="M501.27,216.92c0-1.11,3.55-2,8.13-2.15v3.09h2.2l0-3.1c4.63.13,8.23,1.05,8.23,2.16s-4.16,2.17-9.29,2.17S501.27,218.12,501.27,216.92Z" style="fill:#50433d"/><rect x="507.82" y="220.49" width="5" height="5"/><polygon points="512.03 219.02 512.82 220.49 511.76 220.49 507.82 220.49 508.62 219.07 512.03 219.02"/><rect x="508.62" y="218.76" width="3.36" height="3.88" style="fill:#50433d"/><polygon points="511.97 222.64 512.82 225.49 507.82 225.49 508.62 222.64 511.97 222.64" style="fill:#3f312a"/><path d="M502,216.07l0,1.68a2.51,2.51,0,0,1-.64-.54l-5.52.13,0-1.41Z" style="fill:#302119"/><path d="M519.28,216.17l-.09,1.58a2.51,2.51,0,0,0,.64-.54l5.52.13V216Z" style="fill:#302119"/><path d="M347.48,32.59c0-2.84,2.89-7.63,5.42-11.28a4.52,4.52,0,0,1,7.43,0c2.53,3.65,5.41,8.44,5.41,11.28a9.13,9.13,0,1,1-18.26,0Z" style="fill:#cfccca"/><ellipse cx="356.61" cy="45.3" rx="9.44" ry="1.99" style="fill:#cfccca"/><ellipse cx="356.01" cy="87.99" rx="14.9" ry="3.48" style="fill:#cfccca"/><ellipse cx="356.12" cy="42.16" rx="12.22" ry="2.85" style="fill:#cfccca"/><ellipse cx="356.01" cy="91.47" rx="14.9" ry="3.48" style="fill:#cfccca"/><path d="M341.11,97.7c0-1.92,6.67-11,14.9-11s14.91,9,14.91,11-6.68,3.48-14.91,3.48S341.11,99.62,341.11,97.7Z" style="fill:#cfccca"/><path d="M354.38,42.91a4.51,4.51,0,0,0-3.75,4.31c-.23,7.34-1.13,24.35-4.58,38.52,0,0-2.09,3.14,8.32,3.14,5.78,0,6.78-.15,6.52-.29-1-.55-1.22-2-1.22-3.19v-38a4.52,4.52,0,0,0-5.29-4.45Z" style="fill:#cfccca"/><path d="M358.87,42.91a4.51,4.51,0,0,1,3.75,4.31c.23,7.34,1.13,24.35,4.58,38.52,0,0,2.08,3.14-8.32,3.14-5.79,0-6.78-.15-6.52-.29,1-.55,1.22-2,1.22-3.19v-38a4.52,4.52,0,0,1,5.29-4.45Z" style="fill:#cfccca"/><circle cx="356.61" cy="16.32" r="3.67" style="fill:#cfccca"/><path d="M350.59,33.54a3.31,3.31,0,0,1,1-2.36c1-1.05,2.62-1.59,4.84-1.59,5.35,0,5.51,3.84,5.51,3.88l-1.52,0c0-.24-.23-2.4-4-2.4a5.18,5.18,0,0,0-3.71,1.09,1.88,1.88,0,0,0-.56,1.26Z" style="fill:#b0aba7"/><circle cx="355.83" cy="15.35" r="1.78" style="fill:#dedcdb"/><path d="M224.53,32.59c0-2.84,2.89-7.63,5.42-11.28a4.52,4.52,0,0,1,7.43,0c2.53,3.65,5.41,8.44,5.41,11.28a9.13,9.13,0,0,1-18.26,0Z" style="fill:#cfccca"/><ellipse cx="233.66" cy="45.3" rx="9.44" ry="1.99" style="fill:#cfccca"/><ellipse cx="233.06" cy="87.99" rx="14.9" ry="3.48" style="fill:#cfccca"/><ellipse cx="233.17" cy="42.16" rx="12.22" ry="2.85" style="fill:#cfccca"/><ellipse cx="233.06" cy="91.47" rx="14.9" ry="3.48" style="fill:#cfccca"/><path d="M218.16,97.7c0-1.92,6.67-11,14.9-11s14.91,9,14.91,11-6.68,3.48-14.91,3.48S218.16,99.62,218.16,97.7Z" style="fill:#cfccca"/><path d="M231.43,42.91a4.51,4.51,0,0,0-3.75,4.31c-.23,7.34-1.13,24.35-4.58,38.52,0,0-2.09,3.14,8.32,3.14,5.79,0,6.78-.15,6.52-.29-1-.55-1.22-2-1.22-3.19v-38a4.52,4.52,0,0,0-5.29-4.45Z" style="fill:#cfccca"/><path d="M235.92,42.91a4.51,4.51,0,0,1,3.75,4.31c.23,7.34,1.13,24.35,4.58,38.52,0,0,2.08,3.14-8.32,3.14-5.79,0-6.78-.15-6.52-.29,1-.55,1.22-2,1.22-3.19v-38a4.52,4.52,0,0,1,5.29-4.45Z" style="fill:#cfccca"/><circle cx="233.66" cy="16.32" r="3.67" style="fill:#cfccca"/><path d="M227.64,33.54a3.31,3.31,0,0,1,1-2.36c1-1.05,2.62-1.59,4.84-1.59,5.35,0,5.51,3.84,5.51,3.88l-1.52,0c0-.24-.23-2.4-4-2.4a5.18,5.18,0,0,0-3.71,1.09,1.88,1.88,0,0,0-.56,1.26Z" style="fill:#b0aba7"/><circle cx="232.88" cy="15.35" r="1.78" style="fill:#dedcdb"/><rect x="274.42" y="0.97" width="2.43" height="10.37" rx="1.22" style="fill:#cfccca"/><rect x="274.42" y="0.97" width="2.43" height="8.06" rx="1.22" transform="translate(270.64 280.63) rotate(-90)" style="fill:#cfccca"/><path d="M266.7,21c0,2.83,2.89,7.62,5.42,11.27a4.51,4.51,0,0,0,7.43,0C282.08,28.61,285,23.82,285,21c0-5-4.08-6.15-9.13-6.15S266.7,16,266.7,21Z" style="fill:#cfccca"/><ellipse cx="275.83" cy="45.21" rx="9.44" ry="1.99" style="fill:#cfccca"/><ellipse cx="275.23" cy="87.9" rx="14.9" ry="3.48" style="fill:#cfccca"/><ellipse cx="275.34" cy="42.07" rx="12.22" ry="2.85" style="fill:#cfccca"/><ellipse cx="275.34" cy="38.65" rx="12.22" ry="2.85" style="fill:#cfccca"/><ellipse cx="275.34" cy="35.28" rx="12.22" ry="2.85" style="fill:#cfccca"/><ellipse cx="275.23" cy="91.37" rx="14.9" ry="3.48" style="fill:#cfccca"/><path d="M260.33,97.61c0-1.92,6.67-11,14.9-11s14.91,9,14.91,11-6.68,3.47-14.91,3.47S260.33,99.53,260.33,97.61Z" style="fill:#cfccca"/><path d="M273.6,42.81a4.51,4.51,0,0,0-3.75,4.31c-.23,7.35-1.13,24.36-4.58,38.53,0,0-2.09,3.13,8.32,3.13,5.78,0,6.78-.15,6.52-.28-1-.55-1.22-2-1.22-3.19v-38a4.53,4.53,0,0,0-5.29-4.46Z" style="fill:#cfccca"/><path d="M278.09,42.81a4.52,4.52,0,0,1,3.75,4.31c.23,7.35,1.13,24.36,4.58,38.53,0,0,2.08,3.13-8.32,3.13-5.79,0-6.78-.15-6.52-.28,1-.55,1.22-2,1.22-3.19v-38a4.53,4.53,0,0,1,5.29-4.46Z" style="fill:#cfccca"/><circle cx="275.8" cy="12.46" r="3.67" style="fill:#cfccca"/><circle cx="275.01" cy="11.49" r="1.78" style="fill:#dedcdb"/><ellipse cx="270.93" cy="19.93" rx="3.48" ry="2.95" transform="translate(146.91 261.63) rotate(-67.04)" style="fill:#dedcdb"/><path d="M307.64,23.34c0,2.84,2.2,7.86,4.72,11.51,1.8,2.6,7.36,2.35,9.16-.25,2.53-3.65,5.41-8.44,5.41-11.27,0-3.46-1.39-2.44-4.22-3.11a24,24,0,0,0-4.91-.53c-1.63,0-4.21-2.38-5.54-2.05C309.5,18.33,307.64,19.94,307.64,23.34Z" style="fill:#cfccca"/><path d="M328.18,23.34c0,2.84-2.2,7.86-4.72,11.51-1.8,2.6-7.36,2.35-9.16-.25-2.53-3.65-5.41-8.44-5.41-11.27,0-3.46,1.39-2.44,4.22-3.11a24,24,0,0,1,4.91-.53c1.63,0,4.21-2.38,5.54-2.05C326.32,18.33,328.18,19.94,328.18,23.34Z" style="fill:#cfccca"/><ellipse cx="317.8" cy="47.55" rx="9.44" ry="1.99" style="fill:#cfccca"/><ellipse cx="317.2" cy="90.24" rx="14.9" ry="3.48" style="fill:#cfccca"/><ellipse cx="317.31" cy="44.41" rx="12.22" ry="2.85" style="fill:#cfccca"/><ellipse cx="317.31" cy="40.99" rx="12.22" ry="2.85" style="fill:#cfccca"/><ellipse cx="317.31" cy="37.62" rx="12.22" ry="2.85" style="fill:#cfccca"/><ellipse cx="317.2" cy="93.71" rx="14.9" ry="3.48" style="fill:#cfccca"/><path d="M302.3,99.94c0-1.92,6.67-11,14.9-11s14.91,9,14.91,11-6.68,3.48-14.91,3.48S302.3,101.87,302.3,99.94Z" style="fill:#cfccca"/><path d="M315.57,45.15a4.52,4.52,0,0,0-3.75,4.31c-.23,7.35-1.13,24.36-4.58,38.53,0,0-2.08,3.13,8.32,3.13,5.79,0,6.78-.15,6.52-.29-1-.54-1.22-2-1.22-3.18v-38a4.52,4.52,0,0,0-5.29-4.46Z" style="fill:#cfccca"/><path d="M320.06,45.15a4.52,4.52,0,0,1,3.75,4.31c.23,7.35,1.13,24.36,4.58,38.53,0,0,2.09,3.13-8.32,3.13-5.79,0-6.78-.15-6.52-.29,1-.54,1.22-2,1.22-3.18v-38a4.53,4.53,0,0,1,5.29-4.46Z" style="fill:#cfccca"/><circle cx="317.68" cy="20.06" r="3.67" style="fill:#cfccca"/><circle cx="316.9" cy="19.09" r="1.78" style="fill:#dedcdb"/><path d="M313.85,20.84c.42.32.84.84.63,1.33a11.7,11.7,0,0,1-2,.27,4.36,4.36,0,0,1-1.57-.16c-1-.34-1.87-1.74-.73-2.47S313,20.19,313.85,20.84Z" style="fill:#dedcdb"/><path d="M315.55,23.82a1.4,1.4,0,0,0,.57.17,6.69,6.69,0,0,0,4.19-.91,1.4,1.4,0,0,0,.58-.55.56.56,0,0,0-.15-.72.86.86,0,0,0-.45-.08l-3.23,0c-.52,0-1.44,0-1.79.45A1.32,1.32,0,0,0,315.55,23.82Z" style="fill:#dedcdb"/><path d="M322.76,18.82a1.34,1.34,0,0,1-.05,1.33c-.17.27-.44.47-.62.73a.78.78,0,0,0-.09.9.91.91,0,0,0,.33.22,1.69,1.69,0,0,0,2.13-1,2.62,2.62,0,0,0,.13-.93,1.53,1.53,0,0,0-.1-.7c-.22-.52-.84-.72-1.39-.86a.65.65,0,0,0-.31,0,.21.21,0,0,0-.14.25" style="fill:#dedcdb"/><ellipse cx="148.99" cy="53.5" rx="9.44" ry="1.99" style="fill:#cfccca"/><ellipse cx="148.39" cy="88.34" rx="14.9" ry="3.48" style="fill:#cfccca"/><ellipse cx="148.5" cy="50.35" rx="12.22" ry="2.85" style="fill:#cfccca"/><ellipse cx="148.39" cy="91.81" rx="14.9" ry="3.48" style="fill:#cfccca"/><path d="M133.49,98.05c0-1.93,6.67-11,14.9-11s14.91,9,14.91,11-6.68,3.47-14.91,3.47S133.49,100,133.49,98.05Z" style="fill:#cfccca"/><path d="M146.76,51.1A4.51,4.51,0,0,0,143,55.41c-.23,7.34-1.13,16.51-4.58,30.68,0,0-2.09,3.13,8.32,3.13,5.79,0,6.78-.15,6.52-.29-1-.54-1.22-2-1.22-3.18V55.56a4.52,4.52,0,0,0-5.29-4.46Z" style="fill:#cfccca"/><path d="M151.25,51.1A4.51,4.51,0,0,1,155,55.41c.23,7.34,1.13,16.51,4.58,30.68,0,0,2.08,3.13-8.32,3.13-5.79,0-6.78-.15-6.52-.29,1-.54,1.22-2,1.22-3.18V55.56a4.52,4.52,0,0,1,5.29-4.46Z" style="fill:#cfccca"/><polygon points="160.32 42.21 160.32 41.94 136.74 41.94 136.74 42.22 136.32 42.22 136.32 50.35 160.72 50.35 160.72 42.21 160.32 42.21" style="fill:#cfccca"/><path d="M160.32,42.21V41.16c-1.24-1.13-5.37-2-10.45-2.12l-.52,1.11v1.36h-1.79V40.15l-.3-1.11c-5.06.11-9.19,1-10.53,2.06v1.12h-.36c.74,1.41,5.88,2.5,12.12,2.5s11.4-1.09,12.12-2.51Z" style="fill:#dedcdb"/><path d="M141.07,41.87c0-.88,2.83-1.61,6.5-1.72v2.47h1.76l0-2.47c3.71.1,6.59.83,6.59,1.72s-3.33,1.74-7.44,1.74S141.07,42.83,141.07,41.87Z" style="fill:#cfccca"/><rect x="146.31" y="44.73" width="4" height="4" style="fill:#b4afac"/><polygon points="149.67 43.55 150.31 44.73 149.46 44.73 146.31 44.73 146.94 43.59 149.67 43.55" style="fill:#b4afac"/><rect x="146.94" y="43.34" width="2.69" height="3.1" style="fill:#cfccca"/><polygon points="149.63 46.45 150.31 48.73 146.31 48.73 146.94 46.45 149.63 46.45" style="fill:#c7c4c2"/><path d="M141.65,41.19v1.34a2,2,0,0,1-.51-.42l-4.41.1V41.08Z" style="fill:#c7c4c1"/><path d="M155.47,41.27l-.07,1.26a2,2,0,0,0,.51-.42l4.41.1V41.16Z" style="fill:#c7c4c1"/><ellipse cx="445.01" cy="53.5" rx="9.44" ry="1.99" style="fill:#cfccca"/><ellipse cx="444.41" cy="88.34" rx="14.9" ry="3.48" style="fill:#cfccca"/><ellipse cx="444.52" cy="50.35" rx="12.22" ry="2.85" style="fill:#cfccca"/><ellipse cx="444.41" cy="91.81" rx="14.9" ry="3.48" style="fill:#cfccca"/><path d="M429.51,98.05c0-1.93,6.67-11,14.9-11s14.91,9,14.91,11-6.68,3.47-14.91,3.47S429.51,100,429.51,98.05Z" style="fill:#cfccca"/><path d="M442.78,51.1A4.5,4.5,0,0,0,439,55.41c-.24,7.34-1.13,16.51-4.58,30.68,0,0-2.09,3.13,8.32,3.13,5.78,0,6.78-.15,6.52-.29-1-.54-1.22-2-1.22-3.18V55.56a4.52,4.52,0,0,0-5.29-4.46Z" style="fill:#cfccca"/><path d="M447.27,51.1A4.51,4.51,0,0,1,451,55.41c.23,7.34,1.13,16.51,4.58,30.68,0,0,2.08,3.13-8.32,3.13-5.79,0-6.78-.15-6.52-.29,1-.54,1.22-2,1.22-3.18V55.56a4.52,4.52,0,0,1,5.29-4.46Z" style="fill:#cfccca"/><polygon points="456.34 42.21 456.34 41.94 432.76 41.94 432.76 42.22 432.33 42.22 432.33 50.35 456.74 50.35 456.74 42.21 456.34 42.21" style="fill:#cfccca"/><path d="M456.34,42.21V41.16C455.1,40,451,39.17,445.89,39l-.52,1.11v1.36h-1.79V40.15L443.28,39c-5,.11-9.19,1-10.52,2.06v1.12h-.36c.74,1.41,5.88,2.5,12.12,2.5s11.4-1.09,12.12-2.51Z" style="fill:#dedcdb"/><path d="M437.08,41.87c0-.88,2.84-1.61,6.51-1.72v2.47h1.75l0-2.47c3.71.1,6.59.83,6.59,1.72s-3.33,1.74-7.44,1.74S437.08,42.83,437.08,41.87Z" style="fill:#cfccca"/><rect x="442.33" y="44.73" width="4" height="4" style="fill:#b4afac"/><polygon points="445.69 43.55 446.32 44.73 445.48 44.73 442.33 44.73 442.96 43.59 445.69 43.55" style="fill:#b4afac"/><rect x="442.96" y="43.34" width="2.69" height="3.1" style="fill:#cfccca"/><polygon points="445.64 46.45 446.32 48.73 442.33 48.73 442.96 46.45 445.64 46.45" style="fill:#c7c4c2"/><path d="M437.67,41.19v1.34a2,2,0,0,1-.51-.42l-4.41.1V41.08Z" style="fill:#c7c4c1"/><path d="M451.49,41.27l-.07,1.26a2,2,0,0,0,.51-.42l4.41.1V41.16Z" style="fill:#c7c4c1"/><ellipse cx="191.2" cy="86.4" rx="14.9" ry="3.48" style="fill:#cfccca"/><ellipse cx="191.2" cy="89.88" rx="14.9" ry="3.48" style="fill:#cfccca"/><path d="M176.3,96.11c0-1.92,6.67-11,14.9-11s14.91,9,14.91,11-6.67,3.48-14.91,3.48S176.3,98,176.3,96.11Z" style="fill:#cfccca"/><path d="M195.09,86.11s-10-24.78-10.34-37.44,6.51-11.54,6.51-11.54-.37-5.58,1-7.57L199,30s-.51,6.61-.51,9.15l12,13.41a4.55,4.55,0,0,1,.46,5.45,11.93,11.93,0,0,1-2.72,3.32,10.92,10.92,0,0,1-4.56.84,6.54,6.54,0,0,1-3.93-3.2s3.71,9.55,3.71,15.46l-3,10.14Z" style="fill:#bdb9b6"/><path d="M181.24,84.15s-4.73-20-3.44-32.62c1.45-14.27,9.21-14.4,9.21-14.4s3.36-5,5.26-7.57c0,0-.51,6.62-.51,9.15l14.48,14.21a3.9,3.9,0,0,1,.57,4.83,13.29,13.29,0,0,1-2.89,3.58c-1.9,1.26-8.61-4.26-8.61-4.26s3.43,10.72,3.43,18.16l-3.65,10.88Z" style="fill:#cfccca"/><path d="M192.64,58.71s3.21,14.6,2.89,16-2.55,6.4-4.33,8.17l-1.77,1.78a20.58,20.58,0,0,1-6.1-.81s5.62-3.52,7.06-5.61S194.08,64.8,192.64,58.71Z" style="fill:#bdb9b6"/><path d="M195.09,86.11l-13.85-2s-2.94,0-2.72,1.24S187.34,89,195.09,86.11Z" style="fill:#d7d5d3"/><path d="M188.18,38s-5.1-.32-7.65,5.41-3.18,13.07-1.48,21.14a121.83,121.83,0,0,0,3.29,12.75s-3.4-20.25.11-28.68S188.18,38,188.18,38Z" style="fill:#d7d5d3"/><circle cx="192.43" cy="46.52" r="2.44" style="fill:#d7d5d3"/><circle cx="192.43" cy="46.52" r="1.7" style="fill:#cfccca"/><ellipse cx="400.83" cy="86.4" rx="14.9" ry="3.48" style="fill:#cfccca"/><ellipse cx="400.83" cy="89.88" rx="14.9" ry="3.48" style="fill:#cfccca"/><path d="M385.92,96.11c0-1.92,6.68-11,14.91-11s14.9,9,14.9,11-6.67,3.48-14.9,3.48S385.92,98,385.92,96.11Z" style="fill:#cfccca"/><path d="M404.71,86.11s-10-24.78-10.33-37.44,6.51-11.54,6.51-11.54-.37-5.58,1-7.57l6.73.44s-.51,6.61-.51,9.15l11.95,13.41a4.58,4.58,0,0,1,.46,5.45,12.12,12.12,0,0,1-2.73,3.32,10.92,10.92,0,0,1-4.56.84A6.54,6.54,0,0,1,409.3,59S413,68.52,413,74.43L410,84.57Z" style="fill:#bdb9b6"/><path d="M390.86,84.15s-4.72-20-3.44-32.62c1.46-14.27,9.21-14.4,9.21-14.4s3.36-5,5.26-7.57c0,0-.51,6.62-.51,9.15l14.48,14.21a3.9,3.9,0,0,1,.57,4.83,12.93,12.93,0,0,1-2.89,3.58c-1.9,1.26-8.61-4.26-8.61-4.26s3.43,10.72,3.43,18.16l-3.65,10.88Z" style="fill:#cfccca"/><path d="M402.26,58.71s3.21,14.6,2.89,16-2.55,6.4-4.32,8.17l-1.78,1.78a20.53,20.53,0,0,1-6.09-.81s5.61-3.52,7.06-5.61S403.71,64.8,402.26,58.71Z" style="fill:#bdb9b6"/><path d="M404.71,86.11l-13.85-2s-2.93,0-2.72,1.24S397,89,404.71,86.11Z" style="fill:#d7d5d3"/><path d="M397.8,38s-5.09-.32-7.64,5.41S387,56.5,388.67,64.57A121.83,121.83,0,0,0,392,77.32s-3.4-20.25.11-28.68S397.8,38,397.8,38Z" style="fill:#d7d5d3"/><circle cx="402.05" cy="46.52" r="2.44" style="fill:#d7d5d3"/><circle cx="402.05" cy="46.52" r="1.7" style="fill:#cfccca"/><ellipse cx="444.18" cy="273.2" rx="18.63" ry="4.35" style="fill:#32231c"/><ellipse cx="444.18" cy="277.54" rx="18.63" ry="4.35" style="fill:#32231c"/><path d="M425.55,285.33c0-2.4,8.34-13.7,18.63-13.7s18.63,11.3,18.63,13.7-8.34,4.35-18.63,4.35S425.55,287.73,425.55,285.33Z" style="fill:#32231c"/><path d="M449,272.83s-12.52-31-12.92-46.8,8.14-14.43,8.14-14.43-.46-7,1.26-9.45l8.4.54s-.63,8.27-.63,11.44l14.93,16.77a5.68,5.68,0,0,1,.58,6.81,15,15,0,0,1-3.4,4.14,13.64,13.64,0,0,1-5.71,1.06,8.15,8.15,0,0,1-4.91-4s4.64,11.95,4.64,19.33l-3.81,12.68Z"/><path d="M431.72,270.39s-5.91-25-4.3-40.78c1.82-17.84,11.52-18,11.52-18s4.19-6.29,6.57-9.45c0,0-.64,8.27-.64,11.43L463,231.35a4.87,4.87,0,0,1,.71,6,16,16,0,0,1-3.61,4.47c-2.37,1.59-10.76-5.31-10.76-5.31s4.28,13.39,4.28,22.7L449,272.83Z" style="fill:#32231c"/><path d="M446,238.58s4,18.25,3.61,20-3.18,8-5.4,10.22L442,271.07a25.89,25.89,0,0,1-7.62-1s7-4.42,8.82-7S447.78,246.2,446,238.58Z"/><path d="M449,272.83l-17.31-2.44s-3.67-.05-3.4,1.54S439.34,276.38,449,272.83Z" style="fill:#50433d"/><path d="M440.4,212.72s-6.37-.4-9.56,6.77-4,16.33-1.86,26.42a151.64,151.64,0,0,0,4.12,15.93s-4.25-25.3.13-35.84S440.4,212.72,440.4,212.72Z" style="fill:#50433d"/><circle cx="445.71" cy="223.34" r="3.05" style="fill:#50433d"/><circle cx="445.71" cy="223.34" r="2.12" style="fill:#32231c"/><ellipse cx="146.31" cy="279.42" rx="18.63" ry="4.35" style="fill:#32231c"/><ellipse cx="146.31" cy="283.77" rx="18.63" ry="4.35" style="fill:#32231c"/><path d="M164.94,291.56c0-2.4-8.34-13.7-18.63-13.7s-18.63,11.3-18.63,13.7,8.34,4.35,18.63,4.35S164.94,294,164.94,291.56Z" style="fill:#32231c"/><path d="M141.46,279.06s12.52-31,12.92-46.8-8.14-14.43-8.14-14.43.46-7-1.26-9.46l-8.4.55s.63,8.27.63,11.44l-14.93,16.77a5.68,5.68,0,0,0-.58,6.81,14.88,14.88,0,0,0,3.41,4.14,13.56,13.56,0,0,0,5.7,1.06,8.15,8.15,0,0,0,4.91-4s-4.64,11.95-4.64,19.33l3.81,12.68Z"/><path d="M158.77,276.61s5.91-25,4.3-40.78c-1.82-17.83-11.52-18-11.52-18s-4.19-6.29-6.57-9.46c0,0,.64,8.28.64,11.44l-18.1,17.77a4.87,4.87,0,0,0-.71,6,16,16,0,0,0,3.61,4.47c2.38,1.58,10.76-5.31,10.76-5.31s-4.28,13.39-4.28,22.69l4.56,13.6Z" style="fill:#32231c"/><path d="M144.52,244.81s-4,18.25-3.61,20.05,3.19,8,5.4,10.22l2.22,2.22a25.73,25.73,0,0,0,7.62-1s-7-4.41-8.82-7S142.71,252.43,144.52,244.81Z"/><path d="M141.46,279.06l17.31-2.45s3.67,0,3.4,1.55S151.15,282.61,141.46,279.06Z" style="fill:#50433d"/><path d="M150.09,219s6.37-.4,9.56,6.77,4,16.33,1.86,26.42a148.57,148.57,0,0,1-4.12,15.93s4.25-25.3-.13-35.85S150.09,219,150.09,219Z" style="fill:#50433d"/><circle cx="144.78" cy="229.57" r="3.05" style="fill:#50433d"/><circle cx="144.78" cy="229.57" r="2.12" style="fill:#32231c"/><rect x="266.45" y="162.74" width="3.04" height="12.96" rx="1.52" style="fill:#32231c"/><rect x="266.45" y="162.74" width="3.04" height="10.07" rx="1.52" transform="translate(100.19 435.74) rotate(-90)" style="fill:#32231c"/><path d="M256.81,187.77c0,3.54,3.6,9.53,6.76,14.09a5.65,5.65,0,0,0,9.3,0c3.15-4.56,6.76-10.55,6.76-14.09,0-6.31-5.11-7.7-11.41-7.7S256.81,181.46,256.81,187.77Z" style="fill:#32231c"/><ellipse cx="268.22" cy="218.04" rx="11.8" ry="2.48" style="fill:#32231c"/><ellipse cx="267.47" cy="271.4" rx="18.63" ry="4.35" style="fill:#32231c"/><ellipse cx="267.6" cy="214.11" rx="15.27" ry="3.56" style="fill:#32231c"/><ellipse cx="267.6" cy="209.84" rx="15.27" ry="3.56" style="fill:#32231c"/><ellipse cx="267.6" cy="205.63" rx="15.27" ry="3.56" style="fill:#32231c"/><ellipse cx="267.47" cy="275.75" rx="18.63" ry="4.35" style="fill:#32231c"/><path d="M248.84,283.54c0-2.4,8.34-13.7,18.63-13.7s18.63,11.3,18.63,13.7-8.34,4.34-18.63,4.34S248.84,285.94,248.84,283.54Z" style="fill:#32231c"/><path d="M265.43,215.05a5.63,5.63,0,0,0-4.69,5.38c-.29,9.18-1.42,30.44-5.73,48.16,0,0-2.6,3.92,10.41,3.92,7.22,0,8.47-.19,8.14-.36-1.3-.68-1.52-2.51-1.52-4V220.62a5.65,5.65,0,0,0-6.61-5.57Z" style="fill:#32231c"/><path d="M271,215.05a5.65,5.65,0,0,1,4.69,5.38c.29,9.18,1.41,30.44,5.72,48.16,0,0,2.61,3.92-10.4,3.92-7.23,0-8.47-.19-8.15-.36,1.3-.68,1.52-2.51,1.52-4V220.62a5.65,5.65,0,0,1,6.62-5.57Z" style="fill:#32231c"/><circle cx="268.18" cy="177.1" r="4.59" style="fill:#32231c"/><circle cx="267.19" cy="175.89" r="2.22" style="fill:#42342e"/><ellipse cx="262.09" cy="186.44" rx="4.35" ry="3.68" transform="translate(-11.8 355.06) rotate(-67.04)" style="fill:#42342e"/><circle cx="146.46" cy="77.26" r="8.03" style="fill:#e3e2e0"/><ellipse cx="146.46" cy="85.28" rx="8.3" ry="1.75" style="fill:#e3e2e0"/><ellipse cx="145.93" cy="110.5" rx="13.1" ry="3.06" style="fill:#e3e2e0"/><ellipse cx="145.93" cy="113.56" rx="13.1" ry="3.06" style="fill:#e3e2e0"/><path d="M132.82,119c0-1.69,5.87-9.64,13.11-9.64S159,117.35,159,119s-5.87,3.06-13.1,3.06S132.82,120.73,132.82,119Z" style="fill:#e3e2e0"/><path d="M141.86,83.73s-.09,8.4-3.57,24.79c0,0-1.6,2.76,6.38,2.76s4.06-.43,4.06-.43V82.38Z" style="fill:#e3e2e0"/><path d="M150.93,83.73s.09,8.4,3.58,24.79c0,0,1.59,2.76-6.39,2.76s-4.06-.43-4.06-.43V82.38Z" style="fill:#e3e2e0"/><circle cx="143.82" cy="74.43" r="3.23" style="fill:#edeceb"/><circle cx="186.73" cy="77.26" r="8.03" style="fill:#e3e2e0"/><ellipse cx="186.73" cy="85.28" rx="8.3" ry="1.75" style="fill:#e3e2e0"/><ellipse cx="186.21" cy="110.5" rx="13.1" ry="3.06" style="fill:#e3e2e0"/><ellipse cx="186.21" cy="113.56" rx="13.1" ry="3.06" style="fill:#e3e2e0"/><path d="M173.1,119c0-1.69,5.87-9.64,13.11-9.64s13.1,7.95,13.1,9.64-5.87,3.06-13.1,3.06S173.1,120.73,173.1,119Z" style="fill:#e3e2e0"/><path d="M182.14,83.73s-.09,8.4-3.58,24.79c0,0-1.59,2.76,6.39,2.76s4.06-.43,4.06-.43V82.38Z" style="fill:#e3e2e0"/><path d="M191.21,83.73s.09,8.4,3.57,24.79c0,0,1.6,2.76-6.38,2.76s-4.06-.43-4.06-.43V82.38Z" style="fill:#e3e2e0"/><circle cx="184.09" cy="74.43" r="3.23" style="fill:#edeceb"/><circle cx="227.01" cy="77.26" r="8.03" style="fill:#e3e2e0"/><ellipse cx="227.01" cy="85.28" rx="8.3" ry="1.75" style="fill:#e3e2e0"/><ellipse cx="226.48" cy="110.5" rx="13.1" ry="3.06" style="fill:#e3e2e0"/><ellipse cx="226.48" cy="113.56" rx="13.1" ry="3.06" style="fill:#e3e2e0"/><path d="M213.38,119c0-1.69,5.87-9.64,13.1-9.64s13.11,7.95,13.11,9.64-5.87,3.06-13.11,3.06S213.38,120.73,213.38,119Z" style="fill:#e3e2e0"/><path d="M222.42,83.73s-.1,8.4-3.58,24.79c0,0-1.59,2.76,6.39,2.76s4.06-.43,4.06-.43V82.38Z" style="fill:#e3e2e0"/><path d="M231.49,83.73s.09,8.4,3.57,24.79c0,0,1.6,2.76-6.38,2.76s-4.06-.43-4.06-.43V82.38Z" style="fill:#e3e2e0"/><circle cx="224.37" cy="74.43" r="3.23" style="fill:#edeceb"/><circle cx="272.37" cy="77.26" r="8.03" style="fill:#e3e2e0"/><ellipse cx="272.37" cy="85.28" rx="8.3" ry="1.75" style="fill:#e3e2e0"/><ellipse cx="271.84" cy="110.5" rx="13.1" ry="3.06" style="fill:#e3e2e0"/><ellipse cx="271.84" cy="113.56" rx="13.1" ry="3.06" style="fill:#e3e2e0"/><path d="M258.74,119c0-1.69,5.86-9.64,13.1-9.64s13.1,7.95,13.1,9.64-5.86,3.06-13.1,3.06S258.74,120.73,258.74,119Z" style="fill:#e3e2e0"/><path d="M267.77,83.73s-.09,8.4-3.57,24.79c0,0-1.6,2.76,6.38,2.76s4.06-.43,4.06-.43V82.38Z" style="fill:#e3e2e0"/><path d="M276.84,83.73s.1,8.4,3.58,24.79c0,0,1.6,2.76-6.39,2.76s-4.06-.43-4.06-.43V82.38Z" style="fill:#e3e2e0"/><circle cx="269.73" cy="74.43" r="3.23" style="fill:#edeceb"/><circle cx="319.78" cy="77.26" r="8.03" style="fill:#e3e2e0"/><ellipse cx="319.78" cy="85.28" rx="8.3" ry="1.75" style="fill:#e3e2e0"/><ellipse cx="319.25" cy="110.5" rx="13.1" ry="3.06" style="fill:#e3e2e0"/><ellipse cx="319.25" cy="113.56" rx="13.1" ry="3.06" style="fill:#e3e2e0"/><path d="M306.15,119c0-1.69,5.86-9.64,13.1-9.64s13.1,7.95,13.1,9.64-5.86,3.06-13.1,3.06S306.15,120.73,306.15,119Z" style="fill:#e3e2e0"/><path d="M315.18,83.73s-.09,8.4-3.57,24.79c0,0-1.6,2.76,6.38,2.76s4.07-.43,4.07-.43V82.38Z" style="fill:#e3e2e0"/><path d="M324.26,83.73s.09,8.4,3.57,24.79c0,0,1.6,2.76-6.38,2.76s-4.07-.43-4.07-.43V82.38Z" style="fill:#e3e2e0"/><circle cx="317.14" cy="74.43" r="3.23" style="fill:#edeceb"/><circle cx="360.9" cy="77.26" r="8.03" style="fill:#e3e2e0"/><ellipse cx="360.9" cy="85.28" rx="8.3" ry="1.75" style="fill:#e3e2e0"/><ellipse cx="360.37" cy="110.5" rx="13.1" ry="3.06" style="fill:#e3e2e0"/><ellipse cx="360.37" cy="113.56" rx="13.1" ry="3.06" style="fill:#e3e2e0"/><path d="M347.26,119c0-1.69,5.87-9.64,13.11-9.64s13.1,7.95,13.1,9.64-5.86,3.06-13.1,3.06S347.26,120.73,347.26,119Z" style="fill:#e3e2e0"/><path d="M356.3,83.73s-.09,8.4-3.57,24.79c0,0-1.6,2.76,6.38,2.76s4.06-.43,4.06-.43V82.38Z" style="fill:#e3e2e0"/><path d="M365.37,83.73s.1,8.4,3.58,24.79c0,0,1.59,2.76-6.39,2.76s-4.06-.43-4.06-.43V82.38Z" style="fill:#e3e2e0"/><circle cx="358.26" cy="74.43" r="3.23" style="fill:#edeceb"/><circle cx="405.75" cy="77.26" r="8.03" style="fill:#e3e2e0"/><ellipse cx="405.75" cy="85.28" rx="8.3" ry="1.75" style="fill:#e3e2e0"/><ellipse cx="405.22" cy="110.5" rx="13.1" ry="3.06" style="fill:#e3e2e0"/><ellipse cx="405.22" cy="113.56" rx="13.1" ry="3.06" style="fill:#e3e2e0"/><path d="M392.12,119c0-1.69,5.86-9.64,13.1-9.64s13.1,7.95,13.1,9.64-5.86,3.06-13.1,3.06S392.12,120.73,392.12,119Z" style="fill:#e3e2e0"/><path d="M401.15,83.73s-.09,8.4-3.57,24.79c0,0-1.6,2.76,6.38,2.76s4.07-.43,4.07-.43V82.38Z" style="fill:#e3e2e0"/><path d="M410.23,83.73s.09,8.4,3.57,24.79c0,0,1.6,2.76-6.38,2.76s-4.07-.43-4.07-.43V82.38Z" style="fill:#e3e2e0"/><circle cx="403.11" cy="74.43" r="3.23" style="fill:#edeceb"/><circle cx="448.54" cy="77.26" r="8.03" style="fill:#e3e2e0"/><ellipse cx="448.54" cy="85.28" rx="8.3" ry="1.75" style="fill:#e3e2e0"/><ellipse cx="448.02" cy="110.5" rx="13.1" ry="3.06" style="fill:#e3e2e0"/><ellipse cx="448.02" cy="113.56" rx="13.1" ry="3.06" style="fill:#e3e2e0"/><path d="M434.91,119c0-1.69,5.87-9.64,13.11-9.64s13.1,7.95,13.1,9.64-5.87,3.06-13.1,3.06S434.91,120.73,434.91,119Z" style="fill:#e3e2e0"/><path d="M444,83.73s-.09,8.4-3.58,24.79c0,0-1.59,2.76,6.39,2.76s4.06-.43,4.06-.43V82.38Z" style="fill:#e3e2e0"/><path d="M453,83.73s.09,8.4,3.58,24.79c0,0,1.59,2.76-6.39,2.76s-4.06-.43-4.06-.43V82.38Z" style="fill:#e3e2e0"/><circle cx="445.9" cy="74.43" r="3.23" style="fill:#edeceb"/></svg>