<svg id="Capa_1" data-name="Capa 1" xmlns="http://www.w3.org/2000/svg" xmlns:xlink="http://www.w3.org/1999/xlink" viewBox="0 0 250 549"><defs><clipPath id="clip-path"><path d="M61.38,236.32c.88,5.28,5.43,9.12,10.16,8.7s7.94-5,7.18-10.27-5.33-9.39-10.19-9S60.48,231,61.38,236.32Z" style="fill:none"/></clipPath><clipPath id="clip-path-2"><path d="M144.61,235.28c-.25,5.35-4.31,9.71-9.05,9.85s-8.48-4-8.36-9.34,4.18-10,9.06-10.11S144.86,229.88,144.61,235.28Z" style="fill:none"/></clipPath></defs><circle cx="220.16" cy="30.04" r="29.04" style="fill:#87cde7"/><path d="M119,492.62s-6.5,2.29-6.93,4.9-.66,10,3,12c3.54,1.88,40.27,25.61,56.13,38.2a1.26,1.26,0,0,0,2-.9c.29-4.18,2.62-12,15.9-13.78a1.26,1.26,0,0,0,1-1.66c-1-3-1.9-9.31,8-9.84a1.26,1.26,0,0,0,.38-2.44l-68.9-26.16A23,23,0,0,0,119,492.62Z" style="fill:#ff5207"/><rect x="121.94" y="259.78" width="29.8" height="115.17" rx="14.9" transform="translate(273.68 634.72) rotate(-180)" style="fill:#ea4a00"/><path d="M101.22,282.09V397.16s10.47,29.4,10.79,46.78-.64,41.1,2.53,55.32c0,0,16.43,11.06,22.76-1.26,0,0,5-54.69,6.32-63.86s2.53-92.3,2.53-98.94-2.22-56.9-4.43-61-20.61-6.64-40.5-6.64Z" style="fill:#464a47"/><path d="M193.39,519.87l-46.47-17.58a2,2,0,0,0-2,1,4.3,4.3,0,0,0-.06,2.39l41.82,22.82c-.24-1.89,1-3.7,2.46-5S191.85,521,193.39,519.87Z" style="fill:#ff6522"/><path d="M181.67,531l-42.62-22.63c-1.47,0-2.91-.54-4.35-.24A3.28,3.28,0,0,0,132,511l38,29.09C172.64,535.6,176.46,531,181.67,531Z" style="fill:#ff6522"/><path d="M83.49,492.62s6.49,2.29,6.93,4.9.66,10-3,12c-3.54,1.88-40.27,25.61-56.13,38.2a1.26,1.26,0,0,1-2-.9c-.29-4.18-2.62-12-15.9-13.78a1.26,1.26,0,0,1-1-1.66c1-3,1.9-9.31-8-9.84a1.26,1.26,0,0,1-.38-2.44l68.9-26.16A23,23,0,0,1,83.49,492.62Z" style="fill:#ff5207"/><rect x="50.71" y="259.78" width="29.8" height="115.17" rx="14.9" style="fill:#ea4a00"/><path d="M101.22,282.09V397.16s-10.46,29.4-10.78,46.78.64,41.1-2.53,55.32c0,0-16.43,11.06-22.76-1.26,0,0-5.05-54.69-6.32-63.86s-2.53-92.3-2.53-98.94,2.22-56.9,4.43-61,20.61-6.64,40.49-6.64Z" style="fill:#464a47"/><rect x="80.72" y="232.1" width="43.68" height="66.59" rx="21.84" style="fill:#ff5207"/><rect x="98.45" y="291.68" width="7.84" height="80.68" rx="3.92" style="fill:#ff5207"/><rect x="88.42" y="239.54" width="29.72" height="45.31" rx="14.86" style="fill:#393d3a"/><path d="M103.21,269.16c13.5,0,45.27-4.21,57.46-29.33,4.35-9,8.21-16.42,10-18.9s5-11.94,5-19.15-6-6.22-8-14.68-8.95-41.78-64.42-41.78S103.21,269.16,103.21,269.16Z" style="fill:#464a47"/><path d="M103.21,269.16c-13.49,0-45.26-4.21-57.45-29.33-4.35-9-8.21-16.42-9.95-18.9s-5-11.94-5-19.15,6-6.22,8-14.68,9-41.78,64.41-41.78S103.21,269.16,103.21,269.16Z" style="fill:#464a47"/><path d="M102.08,263.68c10.5,0,42.78-2.34,53.28-34.62s-8.94-46.67-19.83-49.39-62.23-5.84-74.29,5.05S50,201.84,49.57,209.61,44.08,241.2,73.3,257.06C86.91,264.45,102.08,263.68,102.08,263.68Z" style="fill:#f6c8a4"/><path d="M104,198.34s-20.22,17.5-24.11,19.44c0,0,3.5,8.56,23.72,8.56S125.8,217,125.8,217Z" style="fill:#546947"/><path d="M139.32,223.65c-13.3,0-22-7.64-28.44-13.22-2.79-2.45-5.23-4.57-7-5-1.76.42-4.19,2.54-7,5-6.38,5.58-15.13,13.22-28.44,13.22-7.18,0-12.26-1.61-15.51-4.91-4.27-4.35-4.17-10.45-4.1-14.9,0-.53,0-1,0-1.5,0-4.32,2.67-11.45,10.22-17.32,9.74-7.58,24.81-11.42,44.8-11.42S139,177.44,148.7,185c7.54,5.87,10.22,13,10.22,17.32,0,.47,0,1,0,1.5.07,4.45.17,10.55-4.11,14.9C151.58,222,146.51,223.65,139.32,223.65ZM103.9,202.78l.21,0c2.51.41,5.15,2.72,8.5,5.64C118.68,213.76,127,221,139.32,221c6.36,0,11-1.39,13.64-4.13,3.51-3.57,3.43-8.81,3.36-13,0-.54,0-1.06,0-1.54,0-3.73-2.41-10-9.21-15.25C138,180,123,176.22,103.9,176.22S69.85,180,60.71,187.09c-6.8,5.29-9.21,11.52-9.21,15.25,0,.48,0,1,0,1.54-.07,4.21-.15,9.45,3.35,13,2.7,2.74,7.29,4.13,13.64,4.13,12.32,0,20.64-7.27,26.72-12.58,3.34-2.92,6-5.23,8.5-5.64Z" style="fill:#546947"/><path d="M157.61,202.34c0-6.86-8-27.43-53.71-27.43s-53.71,20.57-53.71,27.43-1.72,20,18.28,20c19.4,0,29.13-17.21,35.43-18.24,6.3,1,16,18.24,35.42,18.24C159.32,222.34,157.61,209.2,157.61,202.34Z" style="fill:#87cde7"/><path d="M139.32,223.65c-13.3,0-22-7.64-28.44-13.22-2.79-2.45-5.23-4.57-7-5-1.76.42-4.19,2.54-7,5-6.38,5.58-15.13,13.22-28.44,13.22-7.18,0-12.26-1.61-15.51-4.91-4.27-4.35-4.17-10.45-4.1-14.9,0-.53,0-1,0-1.5,0-4.32,2.67-11.45,10.22-17.32,9.74-7.58,24.81-11.42,44.8-11.42S139,177.44,148.7,185c7.54,5.87,10.22,13,10.22,17.32,0,.47,0,1,0,1.5.07,4.45.17,10.55-4.11,14.9C151.58,222,146.51,223.65,139.32,223.65ZM103.9,202.78l.21,0c2.51.41,5.15,2.72,8.5,5.64C118.68,213.76,127,221,139.32,221c6.36,0,11-1.39,13.64-4.13,3.51-3.57,3.43-8.81,3.36-13,0-.54,0-1.06,0-1.54,0-3.73-2.41-10-9.21-15.25C138,180,123,176.22,103.9,176.22S69.85,180,60.71,187.09c-6.8,5.29-9.21,11.52-9.21,15.25,0,.48,0,1,0,1.54-.07,4.21-.15,9.45,3.35,13,2.7,2.74,7.29,4.13,13.64,4.13,12.32,0,20.64-7.27,26.72-12.58,3.34-2.92,6-5.23,8.5-5.64Z" style="fill:#546947"/><path d="M101.33,212a17.11,17.11,0,0,0-3.76,4.31c-.86,1.71-.87,4.05.58,5.31a5.81,5.81,0,0,0,3.39,1.12,32.47,32.47,0,0,0,10.12-.66,3.88,3.88,0,0,0,1.89-.84c1.12-1.11.59-3,0-4.45a24.58,24.58,0,0,0-3.14-5.93C106.08,205.45,104.8,208.7,101.33,212Z" style="fill:#627557"/><path d="M112.54,150.08c2.93.71,6.22,2,7.09,4.91a6.15,6.15,0,0,1-1.41,5.55,15.58,15.58,0,0,1-4.76,3.54c-12.65,6.84-27.12,9.56-41.45,10.82-2.84.25-5.89.4-8.33-1.08a8.73,8.73,0,0,1-3.84-6.68c-1-11.23,12.85-14.7,21.52-16.86A65.75,65.75,0,0,1,112.54,150.08Z" style="fill:#5e615f"/><path d="M9.06,519.87l46.47-17.58a2,2,0,0,1,2,1,4.3,4.3,0,0,1,.06,2.39L15.73,528.55c.24-1.89-1-3.7-2.46-5S10.6,521,9.06,519.87Z" style="fill:#ff6522"/><path d="M20.78,531,63.4,508.35c1.47,0,2.91-.54,4.35-.24A3.28,3.28,0,0,1,70.47,511l-38,29.09C29.81,535.6,26,531,20.78,531Z" style="fill:#ff6522"/><rect x="71.66" y="314.58" width="59.86" height="7.79" style="fill:#ea4a00"/><circle cx="196.24" cy="184.64" r="8.54" style="fill:#87cde7"/><circle cx="212.47" cy="140.22" r="15.37" style="fill:#87cde7"/><circle cx="191.97" cy="94.1" r="17.94" style="fill:#87cde7"/><path d="M178.53,280.2c-2.22,1.13-2.59,4.11-2.57,6.61,0,4.46.38,8.93-.1,13.37-.38,3.4-1.23,6.82-.67,10.2a11,11,0,0,0,5.57,7.91,8.94,8.94,0,0,0,9.45-.78c3.16-2.53,3.92-7,3.85-11.07a23.26,23.26,0,0,0-6.25-16C185.4,287.74,184.64,277.09,178.53,280.2Z" style="fill:#f2b17c"/><path d="M141.72,274.19a223.12,223.12,0,0,0-2.45,30.67c0,15.32,6.57,43.14,16.26,47.52s23.76-7.19,30.32-18.76,10.32-19.69,10.32-19.69-9.69,2.5-13.76,0a53.92,53.92,0,0,1-8.75-7.51s-7.82,10.63-8.75,13.45l-.94,2.81s2.19-13.13,1.25-18.44S157.3,279.16,141.72,274.19Z" style="fill:#ff6522"/><path d="M184.15,287.89a6.13,6.13,0,0,0-2.87.75,2.36,2.36,0,0,0-1.13,2.54c.3,1,1.35,1.46,2.3,1.8a28.65,28.65,0,0,0,9.21,1.62,36.81,36.81,0,0,0-9.38,0,5.15,5.15,0,0,0-2.66.89,2,2,0,0,0-.57,2.51,2.81,2.81,0,0,0,1.56.9A40.18,40.18,0,0,0,193,300.64a62.17,62.17,0,0,0-10.12-.1c-1.27.09-2.68.3-3.46,1.3a3.14,3.14,0,0,0,.67,4.07,6.86,6.86,0,0,0,4.23,1.41,27.3,27.3,0,0,1,4.53.31,9.75,9.75,0,0,0-5.23.73c-1.56.86-2.57,3-1.59,4.49a4.6,4.6,0,0,0,3.38,1.61,31.29,31.29,0,0,0,11.49-.52c1.18-.28,2.58-.88,2.7-2.09.08-.83-.5-1.58-.62-2.4-.2-1.31.74-2.47,1.51-3.54s1.42-2.55.69-3.65c-.36-.56-1-.95-1.14-1.61s.66-1.32,1.11-1.95a3,3,0,0,0-1-4.22,2.82,2.82,0,0,0,1.53-2.78C201.08,286.75,187.5,287.6,184.15,287.89Z" style="fill:#f6c8a4"/><path d="M148.43,380.51a2.63,2.63,0,0,1-2.33-1.42,176.08,176.08,0,0,1-15-47.5c-5.91-35.83,1.21-63.93,1.52-65.11a2.62,2.62,0,1,1,5.07,1.32h0c-.07.27-7.14,28.26-1.42,62.93a174.42,174.42,0,0,0,14.46,46,2.61,2.61,0,0,1-1.13,3.53A2.56,2.56,0,0,1,148.43,380.51Z" style="fill:#ea4a00"/><path d="M23.92,280.2c2.22,1.13,2.59,4.11,2.57,6.61,0,4.46-.38,8.93.1,13.37.38,3.4,1.23,6.82.67,10.2a11,11,0,0,1-5.57,7.91,8.94,8.94,0,0,1-9.45-.78c-3.16-2.53-3.92-7-3.85-11.07a23.26,23.26,0,0,1,6.25-16C17.05,287.74,17.81,277.09,23.92,280.2Z" style="fill:#f2b17c"/><circle cx="103.63" cy="241.9" r="15.56" style="fill:#222"/><g style="opacity:0.58"><g style="clip-path:url(#clip-path)"><rect x="60.48" y="225.36" width="18.99" height="20.09" style="fill:#f6c8a4"/><circle cx="70.03" cy="235.41" r="9.23" style="fill:#f6c8a4"/><circle cx="70.03" cy="235.41" r="9.08" style="fill:#f6c7a4"/><circle cx="70.03" cy="235.41" r="8.94" style="fill:#f6c6a3"/><circle cx="70.03" cy="235.41" r="8.79" style="fill:#f6c5a3"/><circle cx="70.03" cy="235.41" r="8.64" style="fill:#f5c4a3"/><circle cx="70.03" cy="235.41" r="8.49" style="fill:#f5c3a3"/><circle cx="70.03" cy="235.41" r="8.34" style="fill:#f5c2a2"/><circle cx="70.03" cy="235.41" r="8.19" style="fill:#f5c1a2"/><circle cx="70.03" cy="235.41" r="8.04" style="fill:#f5c0a2"/><circle cx="70.03" cy="235.41" r="7.89" style="fill:#f5bfa2"/><circle cx="70.03" cy="235.41" r="7.74" style="fill:#f5bea1"/><circle cx="70.03" cy="235.41" r="7.6" style="fill:#f5bda1"/><circle cx="70.03" cy="235.41" r="7.45" style="fill:#f4bca1"/><circle cx="70.03" cy="235.41" r="7.3" style="fill:#f4bba1"/><circle cx="70.03" cy="235.41" r="7.15" style="fill:#f4baa0"/><circle cx="70.03" cy="235.41" r="7" style="fill:#f4b9a0"/><circle cx="70.03" cy="235.41" r="6.85" style="fill:#f4b8a0"/><circle cx="70.03" cy="235.41" r="6.7" style="fill:#f4b7a0"/><circle cx="70.03" cy="235.41" r="6.55" style="fill:#f4b69f"/><circle cx="70.03" cy="235.41" r="6.4" style="fill:#f4b59f"/><circle cx="70.03" cy="235.41" r="6.25" style="fill:#f3b49f"/><circle cx="70.03" cy="235.41" r="6.11" style="fill:#f3b39e"/><circle cx="70.03" cy="235.41" r="5.96" style="fill:#f3b29e"/><circle cx="70.03" cy="235.41" r="5.81" style="fill:#f3b19e"/><circle cx="70.03" cy="235.41" r="5.66" style="fill:#f3b09e"/><circle cx="70.03" cy="235.41" r="5.51" style="fill:#f3af9d"/><circle cx="70.03" cy="235.41" r="5.36" style="fill:#f3ae9d"/><circle cx="70.03" cy="235.41" r="5.21" style="fill:#f2ad9d"/><circle cx="70.03" cy="235.41" r="5.06" style="fill:#f2ac9d"/><circle cx="70.03" cy="235.41" r="4.91" style="fill:#f2ab9c"/><circle cx="70.03" cy="235.41" r="4.77" style="fill:#f2aa9c"/><circle cx="70.03" cy="235.41" r="4.62" style="fill:#f2a89c"/><circle cx="70.03" cy="235.41" r="4.47" style="fill:#f2a79c"/><circle cx="70.03" cy="235.41" r="4.32" style="fill:#f2a69b"/><circle cx="70.03" cy="235.41" r="4.17" style="fill:#f2a59b"/><circle cx="70.03" cy="235.41" r="4.02" style="fill:#f1a49b"/><circle cx="70.03" cy="235.41" r="3.87" style="fill:#f1a39b"/><circle cx="70.03" cy="235.41" r="3.72" style="fill:#f1a29a"/><circle cx="70.03" cy="235.41" r="3.57" style="fill:#f1a19a"/><circle cx="70.03" cy="235.41" r="3.43" style="fill:#f1a09a"/><circle cx="70.03" cy="235.41" r="3.28" style="fill:#f19f9a"/><circle cx="70.03" cy="235.41" r="3.13" style="fill:#f19e99"/><circle cx="70.03" cy="235.41" r="2.98" style="fill:#f09d99"/><circle cx="70.03" cy="235.41" r="2.83" style="fill:#f09c99"/><circle cx="70.03" cy="235.41" r="2.68" style="fill:#f09b98"/><circle cx="70.03" cy="235.41" r="2.53" style="fill:#f09a98"/><circle cx="70.03" cy="235.41" r="2.38" style="fill:#f09998"/><circle cx="70.03" cy="235.41" r="2.23" style="fill:#f09898"/><circle cx="70.03" cy="235.41" r="2.08" style="fill:#f09797"/><circle cx="70.03" cy="235.41" r="1.94" style="fill:#f09697"/><circle cx="70.03" cy="235.41" r="1.79" style="fill:#ef9597"/><circle cx="70.03" cy="235.41" r="1.64" style="fill:#ef9497"/><circle cx="70.03" cy="235.41" r="1.49" style="fill:#ef9396"/><circle cx="70.03" cy="235.41" r="1.34" style="fill:#ef9296"/><circle cx="70.03" cy="235.41" r="1.19" style="fill:#ef9196"/><circle cx="70.03" cy="235.41" r="1.04" style="fill:#ef9096"/><circle cx="70.03" cy="235.41" r="0.89" style="fill:#ef8f95"/><circle cx="70.03" cy="235.41" r="0.74" style="fill:#ef8e95"/><circle cx="70.03" cy="235.41" r="0.6" style="fill:#ee8d95"/><circle cx="70.03" cy="235.41" r="0.45" style="fill:#ee8c95"/><circle cx="70.03" cy="235.41" r="0.3" style="fill:#ee8b94"/><circle cx="70.03" cy="235.41" r="0.15" style="fill:#ee8a94"/></g></g><g style="opacity:0.58"><g style="clip-path:url(#clip-path-2)"><rect x="127.08" y="225.54" width="17.78" height="19.71" style="fill:#f6c8a4"/><circle cx="135.91" cy="235.41" r="9.23" style="fill:#f6c8a4"/><circle cx="135.91" cy="235.41" r="9.08" style="fill:#f6c7a4"/><circle cx="135.91" cy="235.41" r="8.94" style="fill:#f6c6a3"/><circle cx="135.91" cy="235.41" r="8.79" style="fill:#f6c5a3"/><circle cx="135.91" cy="235.41" r="8.64" style="fill:#f5c4a3"/><circle cx="135.91" cy="235.41" r="8.49" style="fill:#f5c3a3"/><circle cx="135.91" cy="235.41" r="8.34" style="fill:#f5c2a2"/><circle cx="135.91" cy="235.41" r="8.19" style="fill:#f5c1a2"/><circle cx="135.91" cy="235.41" r="8.04" style="fill:#f5c0a2"/><circle cx="135.91" cy="235.41" r="7.89" style="fill:#f5bfa2"/><circle cx="135.91" cy="235.41" r="7.74" style="fill:#f5bea1"/><circle cx="135.91" cy="235.41" r="7.6" style="fill:#f5bda1"/><circle cx="135.91" cy="235.41" r="7.45" style="fill:#f4bca1"/><circle cx="135.91" cy="235.41" r="7.3" style="fill:#f4bba1"/><circle cx="135.91" cy="235.41" r="7.15" style="fill:#f4baa0"/><circle cx="135.91" cy="235.41" r="7" style="fill:#f4b9a0"/><circle cx="135.91" cy="235.41" r="6.85" style="fill:#f4b8a0"/><circle cx="135.91" cy="235.41" r="6.7" style="fill:#f4b7a0"/><circle cx="135.91" cy="235.41" r="6.55" style="fill:#f4b69f"/><circle cx="135.91" cy="235.41" r="6.4" style="fill:#f4b59f"/><circle cx="135.91" cy="235.41" r="6.25" style="fill:#f3b49f"/><circle cx="135.91" cy="235.41" r="6.11" style="fill:#f3b39e"/><circle cx="135.91" cy="235.41" r="5.96" style="fill:#f3b29e"/><circle cx="135.91" cy="235.41" r="5.81" style="fill:#f3b19e"/><circle cx="135.91" cy="235.41" r="5.66" style="fill:#f3b09e"/><circle cx="135.91" cy="235.41" r="5.51" style="fill:#f3af9d"/><circle cx="135.91" cy="235.41" r="5.36" style="fill:#f3ae9d"/><circle cx="135.91" cy="235.41" r="5.21" style="fill:#f2ad9d"/><circle cx="135.91" cy="235.41" r="5.06" style="fill:#f2ac9d"/><circle cx="135.91" cy="235.41" r="4.91" style="fill:#f2ab9c"/><circle cx="135.91" cy="235.41" r="4.77" style="fill:#f2aa9c"/><circle cx="135.91" cy="235.41" r="4.62" style="fill:#f2a89c"/><circle cx="135.91" cy="235.41" r="4.47" style="fill:#f2a79c"/><circle cx="135.91" cy="235.41" r="4.32" style="fill:#f2a69b"/><circle cx="135.91" cy="235.41" r="4.17" style="fill:#f2a59b"/><circle cx="135.91" cy="235.41" r="4.02" style="fill:#f1a49b"/><circle cx="135.91" cy="235.41" r="3.87" style="fill:#f1a39b"/><circle cx="135.91" cy="235.41" r="3.72" style="fill:#f1a29a"/><circle cx="135.91" cy="235.41" r="3.57" style="fill:#f1a19a"/><circle cx="135.91" cy="235.41" r="3.43" style="fill:#f1a09a"/><circle cx="135.91" cy="235.41" r="3.28" style="fill:#f19f9a"/><circle cx="135.91" cy="235.41" r="3.13" style="fill:#f19e99"/><circle cx="135.91" cy="235.41" r="2.98" style="fill:#f09d99"/><circle cx="135.91" cy="235.41" r="2.83" style="fill:#f09c99"/><circle cx="135.91" cy="235.41" r="2.68" style="fill:#f09b98"/><circle cx="135.91" cy="235.41" r="2.53" style="fill:#f09a98"/><circle cx="135.91" cy="235.41" r="2.38" style="fill:#f09998"/><circle cx="135.91" cy="235.41" r="2.23" style="fill:#f09898"/><circle cx="135.91" cy="235.41" r="2.08" style="fill:#f09797"/><circle cx="135.91" cy="235.41" r="1.94" style="fill:#f09697"/><circle cx="135.91" cy="235.41" r="1.79" style="fill:#ef9597"/><circle cx="135.91" cy="235.41" r="1.64" style="fill:#ef9497"/><circle cx="135.91" cy="235.41" r="1.49" style="fill:#ef9396"/><circle cx="135.91" cy="235.41" r="1.34" style="fill:#ef9296"/><circle cx="135.91" cy="235.41" r="1.19" style="fill:#ef9196"/><circle cx="135.91" cy="235.41" r="1.04" style="fill:#ef9096"/><circle cx="135.91" cy="235.41" r="0.89" style="fill:#ef8f95"/><circle cx="135.91" cy="235.41" r="0.74" style="fill:#ef8e95"/><circle cx="135.91" cy="235.41" r="0.6" style="fill:#ee8d95"/><circle cx="135.91" cy="235.41" r="0.45" style="fill:#ee8c95"/><circle cx="135.91" cy="235.41" r="0.3" style="fill:#ee8b94"/><circle cx="135.91" cy="235.41" r="0.15" style="fill:#ee8a94"/></g></g><path d="M122,188.44c9.26.42,16.57,3.06,18,6.54.43-.66,1-1.44.66-2-1.78-2.69-8.19-7.31-18.67-7.7Z" style="fill:#453226"/><path d="M87.13,187.23a1.86,1.86,0,0,1-1.71,1.82c-9,.62-16.2,3.07-18.71,6.34-.3.38-.94.82-1.06.63-.41-.63-.75-1.3-.41-1.81,2-3,8.79-8,19.86-8.87a1.88,1.88,0,0,1,2,1.89Z" style="fill:#453226"/><path d="M135.8,200.66c-6.46-4-16.58-6-18.67,6a10.73,10.73,0,0,0,11.78,8.24c3.76-.27,6.88-1.76,8.33-4.31C139.27,207,139.29,202.82,135.8,200.66Z" style="fill:#a8daee"/><path d="M119.38,205.39a8.59,8.59,0,0,1,.54-5.2.29.29,0,0,1,.1-.12c6.64-4.29,12-2.66,15.74-.94a.2.2,0,0,1,.12.12,11,11,0,0,1,1.12,5,8.74,8.74,0,0,1-9.56,8.79c-.23,0-.47-.06-.7-.1A9.49,9.49,0,0,1,119.38,205.39Z" style="fill:#3d7454"/><path d="M126.07,210.1a5.53,5.53,0,1,0-3.41-5.41A5.53,5.53,0,0,0,126.07,210.1Z" style="fill:#3f1010"/><path d="M126.1,204a2.36,2.36,0,1,0-2.69.67A2.36,2.36,0,0,0,126.1,204Z" style="fill:#a8daee"/><path d="M117.13,206.68c.61-6.22,14.85-15,21.52-.82C137.49,189.87,114.28,196.4,117.13,206.68Z" style="fill:#333"/><path d="M87.59,200.7c-6-3.66-15.28-5.56-17.2,5.55a9.88,9.88,0,0,0,10.85,7.59c3.46-.25,6.34-1.63,7.68-4C90.79,206.58,90.81,202.69,87.59,200.7Z" style="fill:#a8daee"/><path d="M72.46,205.06a8,8,0,0,1,.49-4.8.35.35,0,0,1,.1-.11c6.12-4,11-2.45,14.5-.87a.43.43,0,0,1,.12.11,10.52,10.52,0,0,1,1,4.63,8.08,8.08,0,0,1-8.82,8.11l-.64-.1A8.74,8.74,0,0,1,72.46,205.06Z" style="fill:#3d7454"/><path d="M78.62,209.39a5.1,5.1,0,1,0-3.14-5A5.1,5.1,0,0,0,78.62,209.39Z" style="fill:#3f1010"/><path d="M78.65,203.8a2.18,2.18,0,1,0-2.48.61A2.18,2.18,0,0,0,78.65,203.8Z" style="fill:#a8daee"/><path d="M70.38,206.25c.56-5.74,13.69-13.82,19.83-.76C89.15,190.75,67.76,196.78,70.38,206.25Z" style="fill:#333"/><path d="M46.59,296c-2.9-18.89-5.41-35.19,13.22-47.33,17.26-11.24,39.94-9.82,40.89-9.75l-.36,5.23.18-2.61-.18,2.61c-.21,0-21.9-1.35-37.67,8.92-15.09,9.83-14.11,21.2-10.89,42.13Z" style="fill:#ea4a00"/><path d="M60.73,274.19a223.12,223.12,0,0,1,2.45,30.67c0,15.32-6.57,43.14-16.26,47.52s-23.76-7.19-30.32-18.76S6.28,313.93,6.28,313.93s9.69,2.5,13.76,0a53.92,53.92,0,0,0,8.75-7.51s7.82,10.63,8.75,13.45l.94,2.81s-2.19-13.13-1.25-18.44S45.15,279.16,60.73,274.19Z" style="fill:#ff6522"/><circle cx="103.63" cy="241.9" r="8.56" style="fill:#ff5207"/><path d="M18.3,287.89a6.13,6.13,0,0,1,2.87.75,2.36,2.36,0,0,1,1.13,2.54c-.3,1-1.35,1.46-2.3,1.8a28.65,28.65,0,0,1-9.21,1.62,36.81,36.81,0,0,1,9.38,0,5.15,5.15,0,0,1,2.66.89A2,2,0,0,1,23.4,298a2.81,2.81,0,0,1-1.56.9,40.18,40.18,0,0,1-12.37,1.74,62.17,62.17,0,0,1,10.12-.1c1.27.09,2.68.3,3.46,1.3a3.14,3.14,0,0,1-.67,4.07,6.88,6.88,0,0,1-4.23,1.41,27.3,27.3,0,0,0-4.53.31,9.75,9.75,0,0,1,5.23.73c1.56.86,2.56,3,1.59,4.49a4.6,4.6,0,0,1-3.38,1.61,31.29,31.29,0,0,1-11.49-.52c-1.18-.28-2.58-.88-2.7-2.09-.08-.83.5-1.58.62-2.4.2-1.31-.74-2.47-1.51-3.54s-1.42-2.55-.69-3.65c.36-.56,1-.95,1.14-1.61s-.66-1.32-1.11-1.95a3,3,0,0,1,1-4.22A2.82,2.82,0,0,1,.82,291.7C1.37,286.75,15,287.6,18.3,287.89Z" style="fill:#f6c8a4"/><path d="M54,380.51a2.56,2.56,0,0,1-1.2-.29,2.61,2.61,0,0,1-1.13-3.53,174.42,174.42,0,0,0,14.46-46c5.72-34.67-1.35-62.66-1.42-62.93a2.62,2.62,0,1,1,5.07-1.32c.31,1.18,7.43,29.28,1.52,65.11a176.08,176.08,0,0,1-15,47.5A2.63,2.63,0,0,1,54,380.51Z" style="fill:#ea4a00"/></svg>