<svg id="Capa_1" data-name="Capa 1" xmlns="http://www.w3.org/2000/svg" viewBox="0 0 420 492"><path d="M141.23,266.91s-4.06,44.21,3,72.13,30.88,6.19,30.88,6.19l-18.21-71.41Z" style="fill:#f9cfd1"/><path d="M161.26,241.11c-1.49,1.07-4.78,5.6-6.35,5.19s-1.66-3.08-1.66-3.08l-.55-.87c2.24-2.34,4-4.62,4.32-5.81.73-2.93-1.83-8.94-1.83-8.94s1.61-1.26,1.28-5.82-3.84-14-3.84-14l-7.54,11.83-6.45-.17-.39.06-6.08,2.17-10.84-8.91s-.4,10.1.71,14.54,3,5.13,3,5.13-.57,6.51,1,9.06c.82,1.29,4.33,3.48,8,5.26.14.77.29,2.34-.72,3-1.36.89-5.89-2.4-7.65-2.95s-6.3,1.33-5.73,4.92,3.65,5.09,6.18,7.36a23.42,23.42,0,0,0,5.24,3.51,38.6,38.6,0,0,0-.7,14.47c1.19,7.49,3,14.55,3,14.55s3.57,1.43,17.25-.75,16.62-4.65,16.62-4.65-.49-7.27-1.68-14.76a38.78,38.78,0,0,0-5.17-13.53,23.46,23.46,0,0,0,3.89-5c1.7-3,4.16-5.34,3.59-8.92S162.76,240,161.26,241.11Z" style="fill:#f59c22"/><path d="M132.43,233.67a.89.89,0,0,1-.6-.22.9.9,0,0,1-.09-1.28l4.51-5.23a.91.91,0,0,1,1.28-.1.93.93,0,0,1,.1,1.29l-4.51,5.23A.94.94,0,0,1,132.43,233.67Z" style="fill:#f15a24"/><path d="M137.17,233.08a.87.87,0,0,1-.49-.14l-5.59-3.62a.91.91,0,1,1,1-1.53l5.59,3.62a.91.91,0,0,1-.5,1.67Z" style="fill:#f15a24"/><path d="M150.18,230.84a.9.9,0,0,1-.47-.13l-5.91-3.56a.91.91,0,0,1,.94-1.56l5.91,3.56a.91.91,0,0,1,.31,1.25A.89.89,0,0,1,150.18,230.84Z" style="fill:#f15a24"/><path d="M145.48,231.76a.94.94,0,0,1-.57-.2.92.92,0,0,1-.13-1.29L149,225.1a.92.92,0,0,1,1.28-.14.93.93,0,0,1,.14,1.29l-4.19,5.17A.91.91,0,0,1,145.48,231.76Z" style="fill:#f15a24"/><path d="M134,246.28s.74,2.56-.62,3.44-5.89-2.4-7.65-2.95-6.3,1.33-5.73,4.92,3.65,5.09,6.18,7.36a23.42,23.42,0,0,0,5.24,3.51,38.6,38.6,0,0,0-.7,14.47c1.19,7.49,3,14.55,3,14.55s3.57,1.43,17.25-.75" style="fill:none"/><path d="M153.25,243.22s.09,2.66,1.66,3.08,4.85-4.12,6.35-5.19,6.41-.69,7,2.9-1.89,6-3.59,8.92a23.46,23.46,0,0,1-3.89,5,38.78,38.78,0,0,1,5.17,13.53c1.19,7.49,1.68,14.76,1.68,14.76s-2.94,2.47-16.62,4.65" style="fill:none"/><path d="M143.24,249.57c3.33-.53,13-10.11,13.78-13s-1.83-8.94-1.83-8.94,1.61-1.26,1.28-5.82-3.84-14-3.84-14l-7.54,11.83-6.45-.17-.39.06-6.08,2.17-10.85-8.91s-.39,10.1.72,14.54,3,5.13,3,5.13-.57,6.51,1,9.06,13.82,8.64,17.14,8.11" style="fill:none"/><path d="M142.67,245.75l-12.13-8.35,19.85-2.91Zm-7.27-7.22,6.8,4.68,4.33-6.31Z" style="fill:#f15a24"/><polygon points="241.94 289.77 201.45 367.37 252.06 369.9 257.96 299.05 241.94 289.77" style="fill:#f9cfd1"/><path d="M120.26,113.48S107.28,218,74.84,262.9C59,284.82,49.26,295.79,49.26,295.79l21.93,63.33-41,1.22V113.09h90.05" style="fill:#bc1b22"/><path d="M299.74,113.48s13,104.51,45.42,149.42c15.83,21.92,25.58,32.89,25.58,32.89l-21.93,63.33,41,1.22V113.09H299.74" style="fill:#bc1b22"/><rect x="30.21" y="347.97" width="45.48" height="144" style="fill:#bc1b22"/><rect x="44.66" y="347.97" width="45.48" height="144" style="fill:#e01b22"/><rect x="90.14" y="347.97" width="45.48" height="144" style="fill:#bc1b22"/><rect x="104.59" y="347.97" width="45.48" height="144" style="fill:#e01b22"/><rect x="150.07" y="347.97" width="45.48" height="144" style="fill:#bc1b22"/><rect x="164.52" y="347.97" width="45.48" height="144" style="fill:#e01b22"/><rect x="210" y="347.97" width="45.48" height="144" style="fill:#bc1b22"/><rect x="224.45" y="347.97" width="45.48" height="144" style="fill:#e01b22"/><rect x="269.93" y="347.97" width="45.48" height="144" style="fill:#bc1b22"/><rect x="284.38" y="347.97" width="45.48" height="144" style="fill:#e01b22"/><rect x="329.86" y="347.97" width="45.48" height="144" style="fill:#bc1b22"/><rect x="344.31" y="347.97" width="45.48" height="144" style="fill:#e01b22"/><path d="M30.82,105.54V143.3a29.82,29.82,0,0,0,59.63,0,29.81,29.81,0,1,0,59.62,0,29.81,29.81,0,0,0,59.62,0,29.82,29.82,0,0,0,59.63,0,29.81,29.81,0,1,0,59.62,0,29.81,29.81,0,1,0,59.62,0h0V105.54Z" style="fill:#e01b22"/><path d="M403.22,115.29H16.78A16.68,16.68,0,0,1,.1,98.61v-.1A16.69,16.69,0,0,1,10.21,83.18l190.9-81.8a16.64,16.64,0,0,1,13,0L409.66,83.22A16.7,16.7,0,0,1,419.9,98.61h0A16.68,16.68,0,0,1,403.22,115.29Z" style="fill:#7ec252"/><path d="M385.15,104.16H34.8a4.63,4.63,0,0,1-4.63-4.64V90.21c0-1.85,15.94-8.32,17.64-9L206,13.4a4.62,4.62,0,0,1,3.61,0L380.06,83.63c6.95,2.32,9.73,4.62,9.73,6.49v9.4A4.64,4.64,0,0,1,385.15,104.16Z" style="fill:#fff"/><rect x="30.21" y="347.97" width="359.57" height="144" style="fill:none"/><path d="M270.69,274.25c-1.78.46-6.48,3.51-7.79,2.55s-.44-3.46-.44-3.46l-.58-.36c5.74-1.63,9.44-6.11,10.33-10.3,1.29-6.07-3.38-11.25-3.38-11.25,2.72-7.36,5-8.61,6.75-11.41a5.63,5.63,0,0,0,.22-6.45c-.95-1.64-6.42-5.11-9.86.21s-4.87,13.4-4.87,13.4l-2.35-.5-.27-.06-2.35-.5s2-8,1-14.21-7.38-5.33-8.92-4.21a5.64,5.64,0,0,0-2.42,6c.46,3.27,2,5.34,1.53,13.17,0,0-6.38,2.83-7.67,8.9a14.29,14.29,0,0,0,4.32,12.77l-.51.77s-.23,2.65-1.82,3-4.63-4.36-6.08-5.51-6.35-1-7.11,2.53,1.58,6.07,3.12,9.1a23.62,23.62,0,0,0,3.63,5.15,38.58,38.58,0,0,0-5.85,13.25c-1.58,7.42-2.45,14.65-2.45,14.65s2.82,2.63,16.37,5.51,17.18,1.63,17.18,1.63,2.15-7,3.73-14.38a38.77,38.77,0,0,0,.05-14.49,23.3,23.3,0,0,0,5.41-3.23c2.64-2.13,5.79-3.49,6.55-7S272.48,273.78,270.69,274.25Z" style="fill:#afafae"/><path d="M246.93,259.17a.91.91,0,0,1-.43-1.71l6.08-3.26a.91.91,0,1,1,.86,1.61l-6.08,3.25A.86.86,0,0,1,246.93,259.17Z" style="fill:#666"/><path d="M251.57,260.33a.91.91,0,0,1-.74-.38l-3.91-5.38a.91.91,0,1,1,1.47-1.07l3.92,5.38a.92.92,0,0,1-.74,1.45Z" style="fill:#666"/><path d="M264.51,262.91a.91.91,0,0,1-.72-.35l-4.23-5.45A.91.91,0,0,1,261,256l4.23,5.45a.91.91,0,0,1-.72,1.47Z" style="fill:#666"/><path d="M259.8,262.08a.91.91,0,0,1-.45-1.7l5.76-3.33a.9.9,0,0,1,1.24.34.89.89,0,0,1-.33,1.24L260.26,262A1,1,0,0,1,259.8,262.08Z" style="fill:#666"/><path d="M243.43,269.29s-.23,2.65-1.82,3-4.63-4.36-6.08-5.51-6.35-1-7.11,2.53,1.58,6.07,3.12,9.1a23.62,23.62,0,0,0,3.63,5.15,38.58,38.58,0,0,0-5.85,13.25c-1.58,7.42-2.45,14.65-2.45,14.65s2.82,2.63,16.37,5.51" style="fill:none"/><path d="M262.46,273.34s-.87,2.51.44,3.46,6-2.09,7.79-2.55,6.22,1.66,5.47,5.21-3.91,4.9-6.55,7a23.3,23.3,0,0,1-5.41,3.23,38.77,38.77,0,0,1-.05,14.49c-1.58,7.42-3.73,14.38-3.73,14.38s-3.64,1.25-17.18-1.63" style="fill:none"/><path d="M258.72,246.68l-2.62-.56s2-8,1-14.21-7.38-5.33-8.92-4.21a5.64,5.64,0,0,0-2.42,6c.46,3.27,2,5.34,1.53,13.17,0,0-6.38,2.83-7.67,8.9s2.56,15.12,13.33,17.41" style="fill:none"/><path d="M258.45,246.62l2.62.56s1.43-8.07,4.87-13.4,8.91-1.85,9.86-.21a5.63,5.63,0,0,1-.22,6.45c-1.75,2.8-4,4-6.75,11.41,0,0,4.67,5.18,3.38,11.25s-8.49,12.77-19.26,10.48" style="fill:none"/><path d="M255.88,270.22a.62.62,0,0,1-.19,0l-4.42-.94a.91.91,0,0,1-.71-1.08.93.93,0,0,1,1.09-.7l4.42.94a.92.92,0,0,1,.7,1.08A.91.91,0,0,1,255.88,270.22Z" style="fill:#666"/><path d="M219,61.11c-.14.62-.26,1.23-.4,1.84-1.46,6.4-3.63,12.47-8.21,17.41a1.16,1.16,0,0,0-.22.82c.17,1.3.33,2.6.6,3.87a19.18,19.18,0,0,0,2.91,7.11c2.68,3.81,6.39,4.85,10.78,4a26.72,26.72,0,0,0,10.52-5,65.81,65.81,0,0,0,20.05-23.8,22.19,22.19,0,0,0,2.34-6.72c.38-2.5-.48-4.34-2.88-5.12a53.94,53.94,0,0,0-7.35-1.67c-4.68-.82-9.11-2.2-12.84-5.27-1.9-1.57-3.72-3.25-5.62-4.82a23.68,23.68,0,0,0-3.26-2.3,4,4,0,0,0-4.89.56,1.27,1.27,0,0,0-.48,1.16c.06,2.3.12,4.6.08,6.9,0,2-.22,4.07-.33,6.15A2.27,2.27,0,0,1,222,57.53a3.41,3.41,0,0,0,5.53,1.09,2,2,0,0,1,3,.17,2.17,2.17,0,0,1-.33,3A7.33,7.33,0,0,1,221.67,63,22.26,22.26,0,0,1,219,61.11Z" style="fill:#fff"/><path d="M170.22,36.26a2.1,2.1,0,0,0,.15-.3c.54-2.62,1.91-3.86,4.64-4,1.92-.07,3.86,0,5.78.1,4.09.19,8.22.43,12.11-1.14,2.62-1.05,5.11-2.43,7.66-3.65,1.51-.72,3-1.52,4.54-2.11a4.27,4.27,0,0,1,5.63,1.95,22.54,22.54,0,0,1,2.59,7.42,63.83,63.83,0,0,1,1.18,16.94c-.36,6.61-1.41,13.1-4.28,19.14a25.52,25.52,0,0,1-3,4.9c-3.39,4.25-8,5.25-12.94,2.94a27.33,27.33,0,0,1-9.1-7.29A65.88,65.88,0,0,1,171,43.48c-.35-1.42-.55-2.88-.82-4.33ZM197.08,72A13.29,13.29,0,0,0,209,63.56a2.74,2.74,0,0,0-.39-3,2.68,2.68,0,0,0-2.84-.9c-1.18.26-1.71,1.18-2.17,2.2a7.67,7.67,0,0,1-8,4.49A8.79,8.79,0,0,1,191,64.06a2.73,2.73,0,0,0-3.89.31,2.78,2.78,0,0,0,.21,3.91A13.76,13.76,0,0,0,197.08,72Zm-12-28.46c-3.17,0-5.47,1.19-6.81,3.15a2.11,2.11,0,0,0,3.28,2.66c.27-.29.52-.6.81-.87a3.4,3.4,0,0,1,4.91.86,2.08,2.08,0,0,0,3.05.55,2.12,2.12,0,0,0,.33-3A7.18,7.18,0,0,0,185.09,43.57Zm19.33-4.7-.07.23a7.55,7.55,0,0,0-7.5,6.64A2.22,2.22,0,0,0,198,47.92a2,2,0,0,0,2.28-.34,4.22,4.22,0,0,0,.77-1.56,3.39,3.39,0,0,1,5.06-2.22,2.09,2.09,0,0,0,2.81-1,2.06,2.06,0,0,0-1-2.79C206.8,39.54,205.59,39.25,204.42,38.87Z" style="fill:#bed138"/><path d="M219,61.11A22.26,22.26,0,0,0,221.67,63a7.33,7.33,0,0,0,8.52-1.17,2.17,2.17,0,0,0,.33-3,2,2,0,0,0-3-.17A3.41,3.41,0,0,1,222,57.53a2.27,2.27,0,0,0-2.12-1.32c.11-2.08.29-4.12.33-6.15,0-2.3,0-4.6-.08-6.9a1.27,1.27,0,0,1,.48-1.16,4,4,0,0,1,4.89-.56,23.68,23.68,0,0,1,3.26,2.3c1.9,1.57,3.72,3.25,5.62,4.82,3.73,3.07,8.16,4.45,12.84,5.27a53.94,53.94,0,0,1,7.35,1.67c2.4.78,3.26,2.62,2.88,5.12a22.19,22.19,0,0,1-2.34,6.72A65.81,65.81,0,0,1,235,91.14a26.72,26.72,0,0,1-10.52,5c-4.39.87-8.1-.17-10.78-4a19.18,19.18,0,0,1-2.91-7.11c-.27-1.27-.43-2.57-.6-3.87a1.16,1.16,0,0,1,.22-.82c4.58-4.94,6.75-11,8.21-17.41C218.77,62.34,218.89,61.73,219,61.11Zm3,12.33a13.58,13.58,0,0,0-7,1.9,2.72,2.72,0,0,0-1.36,2.81,2.79,2.79,0,0,0,2.08,2.34,3.5,3.5,0,0,0,2.59-.53,7.72,7.72,0,0,1,11.17,5.46,8.4,8.4,0,0,0,.24,1,2.81,2.81,0,0,0,5.42-1.36A13.41,13.41,0,0,0,222,73.44Zm21.44-.66c.59-.09,1.18-.14,1.76-.27a2.18,2.18,0,0,0,1.84-2.6,2.25,2.25,0,0,0-2.72-1.57,4.69,4.69,0,0,1-1.83,0c-1.61-.43-2.32-1.59-2.38-3.66a2.1,2.1,0,1,0-4.19-.18A7.61,7.61,0,0,0,243.47,72.78Z" style="fill:#e01b22"/><path d="M197.08,72a13.76,13.76,0,0,1-9.77-3.75,2.78,2.78,0,0,1-.21-3.91,2.73,2.73,0,0,1,3.89-.31,8.79,8.79,0,0,0,4.67,2.25,7.67,7.67,0,0,0,8-4.49c.46-1,1-1.94,2.17-2.2a2.68,2.68,0,0,1,2.84.9,2.74,2.74,0,0,1,.39,3A13.29,13.29,0,0,1,197.08,72Z" style="fill:#fff"/><path d="M185.09,43.57a7.18,7.18,0,0,1,5.57,3.31,2.12,2.12,0,0,1-.33,3,2.08,2.08,0,0,1-3.05-.55,3.4,3.4,0,0,0-4.91-.86c-.29.27-.54.58-.81.87a2.11,2.11,0,0,1-3.28-2.66C179.62,44.76,181.92,43.57,185.09,43.57Z" style="fill:#fff"/><path d="M204.42,38.87c1.17.38,2.38.67,3.51,1.15a2.06,2.06,0,0,1,1,2.79,2.09,2.09,0,0,1-2.81,1A3.39,3.39,0,0,0,201.09,46a4.22,4.22,0,0,1-.77,1.56,2,2,0,0,1-2.28.34,2.22,2.22,0,0,1-1.19-2.18,7.55,7.55,0,0,1,7.5-6.64Z" style="fill:#fff"/><path d="M222,73.44A13.41,13.41,0,0,1,235.2,85.05a2.81,2.81,0,0,1-5.42,1.36,8.4,8.4,0,0,1-.24-1A7.72,7.72,0,0,0,218.37,80a3.5,3.5,0,0,1-2.59.53,2.79,2.79,0,0,1-2.08-2.34,2.72,2.72,0,0,1,1.36-2.81A13.58,13.58,0,0,1,222,73.44Z" style="fill:#fff"/><path d="M243.47,72.78a7.61,7.61,0,0,1-7.52-8.3,2.1,2.1,0,1,1,4.19.18c.06,2.07.77,3.23,2.38,3.66a4.69,4.69,0,0,0,1.83,0,2.25,2.25,0,0,1,2.72,1.57,2.18,2.18,0,0,1-1.84,2.6C244.65,72.64,244.06,72.69,243.47,72.78Z" style="fill:#fff"/></svg>