<svg id="Capa_1" data-name="Capa 1" xmlns="http://www.w3.org/2000/svg" viewBox="0 0 235 44"><path d="M31.73,9.34a15.37,15.37,0,0,1,1.51,6.84A15.21,15.21,0,0,1,31.73,23a13.33,13.33,0,0,1-3.88,4.83,16.11,16.11,0,0,1-10,3.71H10.64v6.55a16.21,16.21,0,0,1-.09,2A4.64,4.64,0,0,1,10,41.62q-.81,1.56-4.52,1.56Q1.42,43.18.73,41a9.46,9.46,0,0,1-.35-3V5.86a16.33,16.33,0,0,1,.09-2A4.39,4.39,0,0,1,1,2.33c.54-1,2-1.57,4.52-1.57h12.4a16.09,16.09,0,0,1,9.91,3.71A13.31,13.31,0,0,1,31.73,9.34ZM21.36,20A4.49,4.49,0,0,0,23,16.18a4.59,4.59,0,0,0-1.68-3.86A5.6,5.6,0,0,0,17.88,11H10.64V21.28h7.3A5.62,5.62,0,0,0,21.36,20Z" style="fill:#e5336a"/><path d="M64.76,2.33a3,3,0,0,1,1.68-1.28A9.41,9.41,0,0,1,69.2.7,9.7,9.7,0,0,1,71.83,1a4.74,4.74,0,0,1,1.51.7,2.21,2.21,0,0,1,.75,1.21,9.5,9.5,0,0,1,.35,3v17.5a22.44,22.44,0,0,1-4.75,13.91,17.38,17.38,0,0,1-6,4.78,17.77,17.77,0,0,1-8.08,1.83,17.36,17.36,0,0,1-8.06-1.86,16.77,16.77,0,0,1-5.88-4.87A22.3,22.3,0,0,1,37,23.3V5.86a17,17,0,0,1,.09-2.06,4.68,4.68,0,0,1,.55-1.53,2.54,2.54,0,0,1,1.57-1.22A10.1,10.1,0,0,1,42.16.7a10.23,10.23,0,0,1,3,.35,2.32,2.32,0,0,1,1.5,1.22,7.87,7.87,0,0,1,.7,3.65V23.3A13.86,13.86,0,0,0,49.06,30a6.47,6.47,0,0,0,2.61,2.6,8.17,8.17,0,0,0,4.11,1,7.07,7.07,0,0,0,6.32-3.13,12.76,12.76,0,0,0,2.08-7.24V5.51A6.41,6.41,0,0,1,64.76,2.33Z" style="fill:#e5336a"/><path d="M106.52,2.53a2.73,2.73,0,0,1,1.65-1.36,9,9,0,0,1,2.75-.35,10.18,10.18,0,0,1,2.67.29,4.27,4.27,0,0,1,1.51.69A2.47,2.47,0,0,1,115.82,3a9.16,9.16,0,0,1,.35,3V38.14a16.22,16.22,0,0,1-.09,2,4.63,4.63,0,0,1-.55,1.5q-.81,1.57-4.52,1.57a9.57,9.57,0,0,1-3.13-.35,3.41,3.41,0,0,1-1.45-1.1q-13-17.38-17.15-22.72V38.14a16.22,16.22,0,0,1-.09,2,4.63,4.63,0,0,1-.55,1.5q-.81,1.57-4.52,1.57c-2.4,0-3.86-.52-4.4-1.57a4.63,4.63,0,0,1-.56-1.56,20.07,20.07,0,0,1-.08-2V5.74a7,7,0,0,1,.55-3.21,2.75,2.75,0,0,1,1.65-1.36A9.34,9.34,0,0,1,84.12.82a9.53,9.53,0,0,1,2.75.32,3.49,3.49,0,0,1,1.42.72,15.36,15.36,0,0,1,1.34,1.51Q101.86,20,106,25.33V5.74A7,7,0,0,1,106.52,2.53Z" style="fill:#e5336a"/><path d="M123.59.7h32.22a6.39,6.39,0,0,1,2.72.44,2.18,2.18,0,0,1,1.16,1.36A8.49,8.49,0,0,1,160,4.93a8.19,8.19,0,0,1-.29,2.41,2,2,0,0,1-1,1.24,6.68,6.68,0,0,1-2.95.53H144.68V38.26a15.66,15.66,0,0,1-.09,2,4.5,4.5,0,0,1-.52,1.47,2.45,2.45,0,0,1-1.53,1.19,10,10,0,0,1-2.9.35,9.61,9.61,0,0,1-2.87-.35,2.44,2.44,0,0,1-1.51-1.19,4.72,4.72,0,0,1-.52-1.5,16.33,16.33,0,0,1-.09-2V9.11H123.53a6.42,6.42,0,0,1-2.73-.44,2.21,2.21,0,0,1-1.16-1.36,8.51,8.51,0,0,1-.29-2.44,8.17,8.17,0,0,1,.29-2.4,2.06,2.06,0,0,1,1-1.25A6.86,6.86,0,0,1,123.59.7Z" style="fill:#e5336a"/><path d="M179.62.24a20.58,20.58,0,0,1,14.9,6.2,20.69,20.69,0,0,1,6.32,15.39,22.08,22.08,0,0,1-6,15.64A19.51,19.51,0,0,1,180,43.94a20.09,20.09,0,0,1-15-6.38,21.09,21.09,0,0,1-6.17-15.18,23.29,23.29,0,0,1,1.74-9,20.94,20.94,0,0,1,4.63-7,21.86,21.86,0,0,1,6.67-4.46A19.46,19.46,0,0,1,179.62.24ZM169.08,22.09a11.1,11.1,0,0,0,3.33,8.37,10.28,10.28,0,0,0,14.86.09,11,11,0,0,0,3.31-8.41,11.18,11.18,0,0,0-3.33-8.46,10.57,10.57,0,0,0-7.45-3.18,10.38,10.38,0,0,0-7.42,3.21A11.19,11.19,0,0,0,169.08,22.09Z" style="fill:#e5336a"/><path d="M205.24,37.27a5.54,5.54,0,0,1-1.51-3.33q0-1.48,2.49-3.91a4.4,4.4,0,0,1,3.08-1.39c1.08,0,2.58,1,4.52,2.89a8.8,8.8,0,0,0,2.31,1.89,5.53,5.53,0,0,0,2.79.89c3.59,0,5.39-1.46,5.39-4.4a2.61,2.61,0,0,0-1.48-2.23,10.82,10.82,0,0,0-3.68-1.3,31.47,31.47,0,0,1-4.75-1.31A31.73,31.73,0,0,1,209.64,23,9.68,9.68,0,0,1,206,19.1a12.84,12.84,0,0,1-1.47-6.34,12.19,12.19,0,0,1,3.79-8.9Q212.08.06,218.63.06A21.11,21.11,0,0,1,225,1a12.13,12.13,0,0,1,4,1.83l1.45,1.1c1.2,1.12,1.8,2.07,1.8,2.84a6.51,6.51,0,0,1-1.39,3.19q-2,2.89-4.06,2.89a5.92,5.92,0,0,1-3-1.15,6.7,6.7,0,0,1-.67-.58,10.16,10.16,0,0,0-.9-.76,5.81,5.81,0,0,0-3.1-.75,5.2,5.2,0,0,0-3.13.9A2.9,2.9,0,0,0,214.69,13a3,3,0,0,0,1.47,2.58,9.07,9.07,0,0,0,3.68,1.33,43.59,43.59,0,0,1,4.81,1.07,31.2,31.2,0,0,1,4.81,1.77,8.47,8.47,0,0,1,3.68,3.62,12.56,12.56,0,0,1,1.48,6.35,14,14,0,0,1-1.51,6.63,11.39,11.39,0,0,1-3.94,4.44,18,18,0,0,1-10,3.07,19.2,19.2,0,0,1-5.16-.67,13.73,13.73,0,0,1-3.94-1.65,14,14,0,0,1-4.29-3.59Z" style="fill:#e5336a"/></svg>