<svg id="Fondo" xmlns="http://www.w3.org/2000/svg" xmlns:xlink="http://www.w3.org/1999/xlink" viewBox="0 0 1920 1080"><defs><radialGradient id="Degradado_sin_nombre_14" cx="8458.83" cy="462.27" r="14.44" gradientTransform="matrix(-1, 0, 0, 1, 10291.23, 0)" gradientUnits="userSpaceOnUse"><stop offset="0" stop-color="#eeac96"/><stop offset="0.71" stop-color="#efc698"/></radialGradient><radialGradient id="Degradado_sin_nombre_14-2" cx="-2774.2" cy="1038.92" r="14.44" gradientTransform="matrix(0.79, 0.09, -0.11, 0.99, 4059.92, -326.76)" xlink:href="#Degradado_sin_nombre_14"/><radialGradient id="Degradado_sin_nombre_18" cx="-2106.62" cy="698.74" r="12.31" gradientTransform="matrix(-1, 0, 0, 1, -1911.01, 0)" gradientUnits="userSpaceOnUse"><stop offset="0" stop-color="#ee8a94"/><stop offset="1" stop-color="#f6c8a4"/></radialGradient><radialGradient id="Degradado_sin_nombre_18-2" cx="-2032.41" cy="696.85" r="12.31" xlink:href="#Degradado_sin_nombre_18"/></defs><rect x="-0.26" y="-0.47" width="1920.06" height="1080.26" style="fill:#0090c6"/><path d="M262.5,956.2c8.47,5.72,15.22,14.8,15.8,25,.66,11.67-6.9,22.62-16.68,29s-21.5,9-33,11A402.45,402.45,0,0,1,101.48,1023c-10.41-1.52-21-3.55-30-9C18.13,981.83,101.8,945.15,129,938.82,166.17,930.14,230.72,934.72,262.5,956.2Z" style="fill:#007fc6"/><path d="M1102,977.29c80,.57,161,1.48,238.32,21.91,13,3.42,26.41,7.79,35.43,17.69s11.45,27,1.7,36.19c-6,5.6-14.63,6.93-22.74,7.89-45.58,5.42-91.56,7.39-137.46,7.39l-760-6.35c-9.74-.08,20-59.3,23.9-63.63,14.69-16.24,27.65-21.4,48.49-22.6,61.56-3.56,124.5,0,186.19.09Q908.92,976,1102,977.29Z" style="fill:#007fc6"/><path d="M1853.25,836.35c15.83,3.36,34.36,9.53,38.48,25.19,4.75,18.07-13.4,33.64-30.21,41.8a229.8,229.8,0,0,1-80.08,22.12c-5.57.49-11.51.9-16,4.28-6.94,5.28-7.42,15.26-9,23.83-7.74,40.92-51,64.16-90.76,76.52a507.53,507.53,0,0,1-164.13,22.62c-6.38-.17-13.24-.64-18.21-4.64-4.77-3.84-6.8-10.23-7.14-16.35-1.68-29.59,28.66-52.25,32-81.69,2.81-24.56-13.78-49.16-7.6-73.09,7.87-30.47,45.55-40.17,76.73-44.41C1670.93,819.81,1760.27,805.36,1853.25,836.35Z" style="fill:#007fc6"/><path d="M564.51,910.42h780.14a28.89,28.89,0,0,1,28.89,28.89v51.86a0,0,0,0,1,0,0H535.62a0,0,0,0,1,0,0V939.31A28.89,28.89,0,0,1,564.51,910.42Z" style="fill:#699100"/><path d="M578.8,914.83h753.46a32.57,32.57,0,0,1,32.57,32.57v34.54a13.64,13.64,0,0,1-13.64,13.64H559.86a13.64,13.64,0,0,1-13.64-13.64V947.4A32.57,32.57,0,0,1,578.8,914.83Z" style="fill:#8cc63f"/><path d="M1373.55,991.17H535.62l-49.3,51.17c0,7.46,11.88,13.51,26.53,13.51h867.74c14.65,0,26.53-6,26.53-13.51Z" style="fill:#699100"/><path d="M1347.14,995.58H563.35c-10.36,0-19.7,3.18-23.65,8.06l-19.35,23.9c-6.57,8.12,4.18,17.4,21.4,17.91.51,0,1,0,1.56,0h822a50.88,50.88,0,0,0,7.55-.55c14-2.11,21.15-10,16-17L1371.08,1004C1367.32,998.93,1357.79,995.58,1347.14,995.58Z" style="fill:#7abe21"/><polygon points="1889.99 869.22 1563.03 851.8 1563.18 741.99 1571.44 739.25 1889.99 753.16 1889.99 869.22" style="fill:#f7ad47"/><polygon points="1889.99 869.22 1563.57 854.74 1563.57 741.99 1887.05 756.1 1889.99 869.22" style="fill:#f59c22"/><polygon points="1569.7 852 1500.46 877.02 1500.46 764.28 1571.44 739.25 1569.7 852" style="fill:#f7ad47"/><polygon points="1889.99 869.22 1818.92 894.44 1818.92 782.78 1888.16 758.89 1889.99 869.22" style="fill:#f7ad47"/><polygon points="1570.09 743.7 1514.75 762.94 1807.68 780.03 1884.95 756.02 1570.09 743.7" style="fill:#fac986"/><polygon points="1884.95 756.02 1807.68 780.03 1819.75 780.74 1888.2 757.86 1887.05 756.1 1884.95 756.02" style="fill:#f8bb67"/><polygon points="1821.87 891.5 1503.41 874.08 1500.46 764.28 1511.82 761.54 1821.87 775.44 1821.87 891.5" style="fill:#f7ad47"/><polygon points="1818.92 894.44 1500.46 877.02 1500.46 764.28 1818.92 778.38 1818.92 894.44" style="fill:#f59c22"/><path d="M1538,847.13c-1.73,0-2.59-.81-2.59-2.43V792.23a2.34,2.34,0,0,1,.7-1.79,2.69,2.69,0,0,1,1.89-.65h11.54a19.47,19.47,0,0,1,6,.91,20.1,20.1,0,0,1,6.06,3.17,24.65,24.65,0,0,1,5.37,5.46,26.42,26.42,0,0,1,3.78,8.16,38.13,38.13,0,0,1,1.4,10.88,34.29,34.29,0,0,1-1.51,10.32,27.71,27.71,0,0,1-3.91,8.13,28.41,28.41,0,0,1-5.4,5.68,22.57,22.57,0,0,1-6,3.51,16.17,16.17,0,0,1-5.68,1.12Zm2.43-4.83h9.22a12,12,0,0,0,4.24-.87,17.24,17.24,0,0,0,4.68-2.8,23.47,23.47,0,0,0,4.33-4.64,23.15,23.15,0,0,0,3.17-6.79,30.11,30.11,0,0,0,1.24-8.83q-.11-10.7-5-17.16a15.25,15.25,0,0,0-12.77-6.48h-9.11Z" style="fill:#d66e22"/><path d="M1590.06,847.43a13.7,13.7,0,0,1-10.6-4.71,16.72,16.72,0,0,1-4.26-11.67,14.53,14.53,0,0,1,2-7.44,14.92,14.92,0,0,1,5.29-5.41,13.57,13.57,0,0,1,7.06-2,19.6,19.6,0,0,1,2,.15,2.47,2.47,0,0,1,1.66.9,2.71,2.71,0,0,1,.59,1.68,7.42,7.42,0,0,1,1.84-.22A8.71,8.71,0,0,1,1600,820a12.18,12.18,0,0,1,3.89,3.65c1.5,2,2.25,4.78,2.25,8.3a9.94,9.94,0,0,1-.07,1.44,4.7,4.7,0,0,0,3.17-2.1,2.25,2.25,0,0,1,2.14-1.3,2.18,2.18,0,0,1,1.18.3,2.2,2.2,0,0,1,1.29,2.1,2.37,2.37,0,0,1-.29,1.22,7.66,7.66,0,0,1-3.69,3.43,16.69,16.69,0,0,1-5.16,1.18q-4.54,9.21-13.72,9.22Zm.37-4.83a9.41,9.41,0,0,0,8.92-5.06,13.24,13.24,0,0,1-4.28-1.93,11.57,11.57,0,0,1-2.89-2.73,14.35,14.35,0,0,1-1.66-3,13.48,13.48,0,0,1-.83-2.68,7.88,7.88,0,0,1-.15-1.73,8.23,8.23,0,0,1,1-4,11.62,11.62,0,0,0-1.51-.15,7.34,7.34,0,0,0-3.91,1.07,9.38,9.38,0,0,0-3.63,3.73,10.52,10.52,0,0,0-1.34,5.2,11.47,11.47,0,0,0,3,8A9.43,9.43,0,0,0,1590.43,842.6Zm10.8-9.44.07-1.22q0-3.69-1.36-5.49-2-3-4.35-3c-.86,0-1.29.72-1.29,2.17l.07,1a7.9,7.9,0,0,0,2.31,4.22A9,9,0,0,0,1601.23,833.16Z" style="fill:#d66e22"/><path d="M1623.5,847.79a2.34,2.34,0,0,1-1.73-.68,2.26,2.26,0,0,1-.7-1.71V820.84c0-.1,0-.15-.08-.15s-.29.22-.59.67l-6.89,12.24a2.23,2.23,0,0,1-1.48,1.14,2.62,2.62,0,0,1-3.08-1.62,2.25,2.25,0,0,1,.28-1.84q.3-.48,3-5.41T1616,819a5.74,5.74,0,0,1,5.12-3.17,5.12,5.12,0,0,1,2.78.8,4.39,4.39,0,0,1,1.83,2.23,14.57,14.57,0,0,1,8.85-3.18,10.7,10.7,0,0,1,4.74,1.06,8.53,8.53,0,0,1,3.48,3.07,14.06,14.06,0,0,1,9.59-4.05,10.55,10.55,0,0,1,7.23,2.64,8.1,8.1,0,0,1,3,6.28v13.65c0,2.48.44,3.72,1.33,3.72.64,0,1.73-.86,3.28-2.58.3-.35.59-.73.89-1.14s.66-1,1.1-1.66.77-1.2,1-1.53l1.24-2q.91-1.53,1.14-1.86a2.25,2.25,0,0,1,1.58-1.24,2.09,2.09,0,0,1,1.74.24,2.25,2.25,0,0,1,1.27,1.57,2,2,0,0,1-.28,1.75,85.76,85.76,0,0,1-6.27,9.44,13.59,13.59,0,0,1-3.59,3.06,7.51,7.51,0,0,1-3.74,1.1,4.54,4.54,0,0,1-3.56-1.6,8.47,8.47,0,0,1-1.86-4.44,17.09,17.09,0,0,1-.19-2.8V824.71a4.06,4.06,0,0,0-1.36-3,4.76,4.76,0,0,0-3.47-1.33q-4,0-8.44,5.12V845.4a2.22,2.22,0,0,1-.78,1.68,2.59,2.59,0,0,1-1.8.71,2.33,2.33,0,0,1-2.4-2.39V824.71a4.15,4.15,0,0,0-1.38-3,4.84,4.84,0,0,0-3.52-1.35q-4.1,0-8.49,5.2V845.4a2.22,2.22,0,0,1-.73,1.71A2.56,2.56,0,0,1,1623.5,847.79Z" style="fill:#d66e22"/><path d="M1686.07,847.35a4.65,4.65,0,0,1-4.11-2.49,12.45,12.45,0,0,1-1.53-6.58V827.4l-3.57,6.2a2.39,2.39,0,0,1-3.32.92,2.2,2.2,0,0,1-1.37-2,2.36,2.36,0,0,1,.41-1.21l8.22-14.2a2.21,2.21,0,0,1,2.1-1.14,2.41,2.41,0,0,1,1.77.73,2.45,2.45,0,0,1,.74,1.77v19.92a8.19,8.19,0,0,0,.46,3.13c.31.71.73,1,1.27.74a9.93,9.93,0,0,0,2.88-2.73c.29-.35.59-.73.88-1.14s.67-1,1.11-1.66l1-1.53c.21-.34.62-1,1.23-2s1-1.64,1.15-1.86a2.21,2.21,0,0,1,2.1-1.3,2.24,2.24,0,0,1,1.21.3,2.21,2.21,0,0,1,1.3,2.1,2.27,2.27,0,0,1-.3,1.22,85.76,85.76,0,0,1-6.27,9.44,15.45,15.45,0,0,1-3.69,3.17A7.14,7.14,0,0,1,1686.07,847.35Zm-.64-38.36a3,3,0,0,1-4.46,0,3.18,3.18,0,0,1-.94-2.27,3,3,0,0,1,.9-2.2,3.31,3.31,0,0,1,4.54,0,3,3,0,0,1,.9,2.2A3.18,3.18,0,0,1,1685.43,809Z" style="fill:#d66e22"/><path d="M1709.64,847.43a2.39,2.39,0,0,1-2.44-2.44V820.84c0-.1,0-.15-.07-.15s-.3.22-.59.67l-6.9,12.24a2.3,2.3,0,0,1-3.31.92,2.38,2.38,0,0,1-1.24-1.4,2.25,2.25,0,0,1,.28-1.84q.29-.48,3-5.41t3.82-6.84a5.74,5.74,0,0,1,5.13-3.17,5.05,5.05,0,0,1,2.85.85,4.34,4.34,0,0,1,1.76,2.32,15.86,15.86,0,0,1,9.66-3.32,11.83,11.83,0,0,1,7.57,2.44,7.9,7.9,0,0,1,3.08,6.56v13.65c0,2.48.46,3.72,1.37,3.72q.92,0,3.24-2.58c.3-.35.59-.73.89-1.14s.66-1,1.1-1.66.77-1.2,1-1.53l1.24-2q.92-1.53,1.14-1.86a2.27,2.27,0,0,1,1.6-1.24,2.1,2.1,0,0,1,1.75.24,2.26,2.26,0,0,1,1.24,1.57,2,2,0,0,1-.28,1.75,85.76,85.76,0,0,1-6.27,9.44,13.67,13.67,0,0,1-3.57,3.06,7.42,7.42,0,0,1-3.73,1.1,4.6,4.6,0,0,1-3.57-1.6,8.4,8.4,0,0,1-1.88-4.44,19.1,19.1,0,0,1-.15-2.8V824.71a3.87,3.87,0,0,0-1.72-3,6.44,6.44,0,0,0-4.18-1.39q-4.83,0-9.22,5.2V845a2.32,2.32,0,0,1-.74,1.74A2.54,2.54,0,0,1,1709.64,847.43Z" style="fill:#d66e22"/><path d="M1756.87,847.43a13.7,13.7,0,0,1-10.6-4.71,16.72,16.72,0,0,1-4.26-11.67,14.53,14.53,0,0,1,2-7.44,14.92,14.92,0,0,1,5.29-5.41,13.59,13.59,0,0,1,7.06-2,19.41,19.41,0,0,1,2,.15,2.43,2.43,0,0,1,1.66.9,2.71,2.71,0,0,1,.59,1.68,7.5,7.5,0,0,1,1.85-.22,8.74,8.74,0,0,1,4.33,1.25,12.29,12.29,0,0,1,3.89,3.65c1.5,2,2.25,4.78,2.25,8.3a9.59,9.59,0,0,1-.08,1.44,4.68,4.68,0,0,0,3.17-2.1,2.26,2.26,0,0,1,2.14-1.3,2.18,2.18,0,0,1,1.18.3,2.2,2.2,0,0,1,1.29,2.1,2.27,2.27,0,0,1-.29,1.22,7.62,7.62,0,0,1-3.69,3.43,16.56,16.56,0,0,1-5.16,1.18q-4.53,9.21-13.72,9.22Zm.37-4.83a9.4,9.4,0,0,0,8.92-5.06,13.09,13.09,0,0,1-4.27-1.93,11.63,11.63,0,0,1-2.9-2.73,14.35,14.35,0,0,1-1.66-3,13.48,13.48,0,0,1-.83-2.68,8.55,8.55,0,0,1-.15-1.73,8.22,8.22,0,0,1,1-4,12,12,0,0,0-1.51-.15,7.29,7.29,0,0,0-3.91,1.07,9.34,9.34,0,0,0-3.64,3.73,10.63,10.63,0,0,0-1.34,5.2,11.52,11.52,0,0,0,3,8A9.46,9.46,0,0,0,1757.24,842.6Zm2.8-30.35a2.6,2.6,0,0,1-1.79-.72,2.26,2.26,0,0,1-.79-1.71,2.19,2.19,0,0,1,.55-1.44l4.83-7.16a2.37,2.37,0,0,1,2-1.14,2.68,2.68,0,0,1,1.79.7,2.21,2.21,0,0,1,.79,1.7,2.28,2.28,0,0,1-.55,1.44l-4.83,7.19A2.37,2.37,0,0,1,1760,812.25Zm8,20.91.08-1.22a9.06,9.06,0,0,0-1.37-5.49q-2-3-4.35-3c-.86,0-1.29.72-1.29,2.17l.07,1a8,8,0,0,0,2.31,4.22A9,9,0,0,0,1768,833.16Z" style="fill:#d66e22"/><path d="M1709.71,520.81s6.75-8.31,12.42-8.31,7.32,10,.47,13.5-10,1.46-10,1.46Z" style="fill:#efc698"/><path d="M1705.76,557.38s11.85,8.53,13.93,8.94,3.32,3.53,8.31-.62,6.53-20.27-5.61-23.49S1705.76,557.38,1705.76,557.38Z" style="fill:#efc698"/><path d="M1749.81,525.68l-10,1.44-7.36,5.47-17.23,17.9L1725,567.8s11-2.31,27.12-19.62S1749.81,525.68,1749.81,525.68Z" style="fill:#efc698"/><polygon points="1816.33 733.68 1808.15 659.48 1841.17 651.91 1839.35 732.77 1816.33 733.68" style="fill:#efc698"/><path d="M1818.39,753.55l-4.28,5a19.73,19.73,0,0,0,0,4c.25,1.26,14.36,2.52,23.18,5.3s31,2.52,33.78,1-3-10.59-3-10.59Z" style="fill:#dd2f00"/><path d="M1814.52,743.67l-.31-8.17s-.3-2.12,10.6-2.73a122.79,122.79,0,0,1,17,0l1.21,12.12S1829.05,748.82,1814.52,743.67Z" style="fill:#ecf6ed"/><path d="M1814.83,740s7.32,2.62,11,2.36,7.59-.79,7.59-.79,3.92-3.92,5.75-5,4.14-.25,6.53,3,19.8,11.75,23.94,15.67.69,9.58.69,9.58-14.4,3.69-27,1.08-13.49-4.35-20.24-5.87-8.27-2-8.92-5S1812.92,741.73,1814.83,740Z" style="fill:#f1481f"/><path d="M1851.66,743.72a10.6,10.6,0,0,0-9.07-.5c-5,2-6.56,5.29-6.56,5.29" style="fill:#dd2f00;stroke:#e2ab62;stroke-linecap:round;stroke-linejoin:round;stroke-width:1.14050103228021px"/><path d="M1857.2,747.25a10.6,10.6,0,0,0-9.07-.5c-5,2-6.55,5.29-6.55,5.29" style="fill:#dd2f00;stroke:#e2ab62;stroke-linecap:round;stroke-linejoin:round;stroke-width:1.14050103228021px"/><path d="M1863,750.53a10.62,10.62,0,0,0-9.07-.51c-5,2-4.79,3-4.79,3" style="fill:#dd2f00;stroke:#e2ab62;stroke-linecap:round;stroke-linejoin:round;stroke-width:1.14050103228021px"/><polygon points="1779.46 733.68 1787.64 659.48 1754.62 651.91 1756.44 732.77 1779.46 733.68" style="fill:#efc698"/><path d="M1777.4,753.55l4.29,5a20.52,20.52,0,0,1,0,4c-.26,1.26-14.37,2.52-23.19,5.3s-31,2.52-33.78,1,3-10.59,3-10.59Z" style="fill:#dd2f00"/><path d="M1826.36,618.46a84,84,0,0,0,16.35-9.66l-5.32-13.48L1751.19,577l-8.46,40.23C1767.79,630.1,1801.35,629.07,1826.36,618.46Z" style="fill:#4287c5"/><path d="M1826.36,618.46c-25,10.61-58.57,11.64-83.63-1.24l-7.89,37.55s0,12.88,54,12.88,69.85-18.33,69.85-18.33l-16-40.52A84,84,0,0,1,1826.36,618.46Z" style="fill:#639ccf"/><path d="M1853.73,486.16c13.69-19.38,21.67-46.76,11.41-63.86-12.55-22.81-50.18-18.25-73-9.13-2.34.78-3.6,2.77-4.35,5.3a68.64,68.64,0,0,1,15.75-1.88,68.64,68.64,0,0,0-15.75,1.88c-1.46,4.9-1,11.86-2.5,16.37,1.5-4.51,1-11.47,2.5-16.37-20.79,4.92-38.94,18.83-52.68,33.48-4.34,4.34-6,11.39-5.09,18.56a79.7,79.7,0,0,1,12.73-12.92c-4.9,7.36-7.91,17.18-9.49,23.6a28.79,28.79,0,0,0,4.13,6.11,93.85,93.85,0,0,0,24.51,18.84c11.62,2.86,39,4.55,60.64,5.47C1834.29,507.08,1845.08,498.81,1853.73,486.16Z" style="fill:#261f21"/><path d="M1885,437.78c-3-16.85-2-21.31-1.49-36.17s-12.38-30.22-12.38-30.22-6.94-10.4-53-18.83-79.27,12.88-83.46,33.07-10.18,50.16-14.14,59.58,4.46,37.65,4.46,37.65c-.18-3.94,2.11-8.34,5.1-12.35-.88-7.17.75-14.22,5.09-18.56,13.74-14.65,31.89-28.56,52.68-33.48.75-2.53,2-4.52,4.35-5.3,22.81-9.12,60.44-13.68,73,9.13,10.26,17.1,2.28,44.48-11.41,63.86-8.65,12.65-19.44,20.92-31.18,25.45,16.56.71,29.7,1,29.7,1,7.93-4,11.4-22.78,11.4-22.78,5.94,9.41.49,22.78.49,22.78C1890.89,490.79,1887.92,454.62,1885,437.78Z" style="fill:#362f31"/><path d="M1737.4,487.3a28.79,28.79,0,0,1-4.13-6.11c-1,4-1.41,6.62-1.41,6.62,4,5.45,10.41,12.39,28.24,17.84.55.17,1.16.33,1.81.49A93.85,93.85,0,0,1,1737.4,487.3Z" style="fill:#261f21"/><path d="M1800.7,502.08s24,3.78,30.39,4.93c18.38,3.31,22,47.21,22,47.21L1831,568.29l13.28,37.12s-9.1,8.77-47.52,8.77-57.63-12.47-57.63-12.47l9.78-48.87-4.38,4.38-20.9-24.6s18.2-21.91,20.9-24.26,11.79-5.06,11.79-5.06l31.34-1.35Z" style="fill:#ff7917"/><path d="M1810.27,553l-5.49-.82c-2.27-.34-4.55-.66-6.81-1.08a1.63,1.63,0,0,1-1-1c-.33-1.12-.4-2.31-.71-3.44-.1-.36-.68-.89-1-.84a16.19,16.19,0,0,0-4.42,1.18,4.08,4.08,0,0,0-1.58,6.14,11.9,11.9,0,0,0,4.1,3.92c3.12,1.57,6.51,2.6,9.78,3.88a38.79,38.79,0,0,1,5.32,2.18c5.22,3,7.06,8,5,13.6-2.16,6-6.55,10-12.17,12.68a24.14,24.14,0,0,1-21.52.25c-11.36-5.32-18.33-14.16-20.08-26.71-.93-6.62.75-12.51,6.21-17.18l-3.27-2.34c4.67-3.61,12-5.42,18-3.24-4.53,3.13-8.6,6.49-10.06,12.13l-2.92-4.63c-.4.61-.71,1-1,1.5-4.88,8.74-2.94,18.62,5,24.71a32.08,32.08,0,0,0,17.13,6.59,11.79,11.79,0,0,0,6.72-1.18c2.13-1.14,3.56-2.8,3.47-5.36-.08-2.41-1.51-4-3.56-5-2.22-1.14-4.52-2.11-6.69-3.31a27.66,27.66,0,0,1-8.8-7.18c-4.09-5.33-3.45-11.42,1.67-15.78,3.34-2.84,7.37-4.29,13.27-4.75-1-2.44-2.9-3.19-8.51-3.3,3.06-3.25,10-2.4,15.93,2.1l-.22-4.73c2.47,2.46,4.36,5,4.94,8.28a2.65,2.65,0,0,0,1.59,2.26c2.31,1,4.59,2.12,6.94,3,.89.35,1.14.69.9,1.62C1816,549.25,1811.85,553.21,1810.27,553ZM1799,541.07a3.6,3.6,0,0,0,1.7,3.83,4,4,0,0,0,4.64-.4A11.74,11.74,0,0,0,1799,541.07Z" style="fill:#dd2f00"/><path d="M1769.48,502.5h-.73V508c0,5.52,4.1,13.54,18.53,16.93s20.85-2.5,26.73-7.13,3.57-12.65,3.57-12.65l-1.82-.48C1800.42,509.72,1783.52,509.53,1769.48,502.5Z" style="fill:#efc698"/><path d="M1811,484.21l-34.77,3.5.54,14.79h-7.29c14,7,30.94,7.22,46.28,2.2l-5.08-1.35Z" style="fill:#e8ad6b"/><path d="M1860.77,437.58a9.93,9.93,0,0,1,10.55,2.68c5,5,4.75,15.29,4,19.25s-7.12,17.93-19,16.61-13.45-3.69-14-5.8S1849.16,440.44,1860.77,437.58Z" style="fill:#efc698"/><path d="M1855.24,447.91s3.43-4,6.86-2.9,6.85,7.91,5.53,13.44-8.7,10.29-12.13,9-5-5.8-5-7.65S1855.24,447.91,1855.24,447.91Z" style="fill:#dfb171"/><path d="M1742.94,422.12a9.94,9.94,0,0,0-10.89,0c-6.08,3.63-8.33,13.67-8.52,17.7s2.53,19.12,14.36,20.73,13.94-.3,15-2.22S1753.5,427.71,1742.94,422.12Z" style="fill:#efc698"/><path d="M1745.78,433.48s-2.36-4.67-5.94-4.48-8.57,6-8.64,11.69,5.93,12.09,9.58,11.65,6.27-4.41,6.72-6.2S1745.78,433.48,1745.78,433.48Z" style="fill:#dfb171"/><path d="M1747.39,371.62s-12,14.84-12,19.79,1.65,21,2.06,36.69.82,32.16,7,42,21.85,28.86,40.4,29.27S1834,488.7,1841,482.52s14-21.85,19.79-44.94,14.84-47.82-10.31-62.67S1765.12,350.59,1747.39,371.62Z" style="fill:#efc698"/><path d="M1846,462.88c-.88,8.34-7.63,14.76-15,14.55s-12.87-7.08-12.18-15.38,7.44-15.16,15.08-14.93S1846.9,454.48,1846,462.88Z" style="fill:url(#Degradado_sin_nombre_14)"/><path d="M1739.59,450.41c-.18,8.37,4.49,15.38,10.39,15.85s11-5.86,11.28-14.17c.36-8.47-4.29-15.76-10.38-16.24S1739.77,442,1739.59,450.41Z" style="fill:url(#Degradado_sin_nombre_14-2)"/><path d="M1843.37,566.1c7.71-3.86,3.08-12.47,2.56-17.17s-6.57-6.55-17.67-8.4c-1.68-.28-2.42,1.36-4.94.87-14.16-2.73-40-10.07-40-10.07s-23.83-.73-26.65-1-13-2.17-14.25-2.49-1.52,2.76-.47,4,11,4.43,14.31,5.43,2.54,1.74,1.07,4.39c-1.56,2.81,7.78,15,8.91,15.69a7.78,7.78,0,0,0,6,.71c2.81-.77,7.93-3,9.3-4.07a11.7,11.7,0,0,1,7.16-2.77C1791.14,551.13,1831.17,572.2,1843.37,566.1Z" style="fill:#efc698"/><path d="M1781.28,743.67l.3-8.17s.3-2.12-10.6-2.73a122.85,122.85,0,0,0-17,0l-1.21,12.12S1766.74,748.82,1781.28,743.67Z" style="fill:#ecf6ed"/><path d="M1781,740s-7.32,2.62-11,2.36-7.59-.79-7.59-.79-3.92-3.92-5.75-5-4.14-.25-6.53,3-19.8,11.75-23.94,15.67-.69,9.58-.69,9.58,14.4,3.69,27,1.08,13.49-4.35,20.24-5.87,8.27-2,8.92-5S1782.87,741.73,1781,740Z" style="fill:#f1481f"/><path d="M1744.13,743.72a10.6,10.6,0,0,1,9.07-.5c5,2,6.56,5.29,6.56,5.29" style="fill:#dd2f00;stroke:#e2ab62;stroke-linecap:round;stroke-linejoin:round;stroke-width:1.14050103228021px"/><path d="M1738.59,747.25a10.6,10.6,0,0,1,9.07-.5c5,2,6.55,5.29,6.55,5.29" style="fill:#dd2f00;stroke:#e2ab62;stroke-linecap:round;stroke-linejoin:round;stroke-width:1.14050103228021px"/><path d="M1732.79,750.53a10.62,10.62,0,0,1,9.07-.51c5,2,4.79,3,4.79,3" style="fill:#dd2f00;stroke:#e2ab62;stroke-linecap:round;stroke-linejoin:round;stroke-width:1.14050103228021px"/><path d="M1733.8,544.3l-22.58,11.29a2.09,2.09,0,0,1-2.91-.62L1691,517.13c-.43-.94-.31-4.36,3.54-5.64s21.93-4.83,21.93-4.83a2.2,2.2,0,0,1,2.42,1l15.83,34.38A1.75,1.75,0,0,1,1733.8,544.3Z" style="fill:#ffead6"/><path d="M1731.43,543.7l-15.8,7.07a3.38,3.38,0,0,1-4.48-1.43l-15.3-33.14c-.73-1.58.24-3.23,2.12-3.68l17.22-4.08a3.63,3.63,0,0,1,4,1.88L1732.87,540A2.8,2.8,0,0,1,1731.43,543.7Z" style="fill:#fff7ef"/><path d="M1724,526.31l-17.6,6a.58.58,0,0,1-.72-.27h0a.44.44,0,0,1,.31-.61l17.64-5.93a.52.52,0,0,1,.62.26h0A.4.4,0,0,1,1724,526.31Z" style="fill:#313131"/><path d="M1713.68,528.78a1.63,1.63,0,0,1-.15-.83,1.61,1.61,0,0,0,0,1.45,2.17,2.17,0,0,0,2.68,1.05,1.75,1.75,0,0,0,1.23-1.5,1.84,1.84,0,0,1-1.05.89A2.19,2.19,0,0,1,1713.68,528.78Z" style="fill:#d89f0f"/><path d="M1714.62,527.06a1.89,1.89,0,0,0-1.09.89,1.63,1.63,0,0,0,.15.83,2.19,2.19,0,0,0,2.68,1.06,1.84,1.84,0,0,0,1.05-.89,1.6,1.6,0,0,0-.15-.82A2.19,2.19,0,0,0,1714.62,527.06Z" style="fill:#fdda16"/><path d="M1714.69,528.59a.8.8,0,0,1,.52-1.1,1,1,0,0,1,1.26.5.8.8,0,0,1-.52,1.11A1,1,0,0,1,1714.69,528.59Z" style="fill:#fef0a0"/><path d="M1709.65,514l1.3-.32c.53-.14.28-1.21.32-1.77s.26-1,1.23-1.19l1.28-.31c.2,0,.36.17.33.53s.38,3.2.38,3.2l-3.9,1.33Z" style="fill:#fadb5b"/><path d="M1708.25,515.52l-.61-1.36a.63.63,0,0,1,.42-1,.59.59,0,0,1,.8.36c.11.24.14.38.69.24s.84-.21,1.11.4l2.22,4.92-2,.55Z" style="fill:#ec228f"/><path d="M1716.1,523.49a1.38,1.38,0,0,1,.93-1.9,1.86,1.86,0,0,1,2.18.95,1.36,1.36,0,0,1-.9,1.88A1.87,1.87,0,0,1,1716.1,523.49Z" style="fill:#4e5d6e"/><path d="M1712.23,524.67a1.4,1.4,0,0,1,1-1.94,1.9,1.9,0,0,1,2.25.95,1.4,1.4,0,0,1-1,1.93A1.91,1.91,0,0,1,1712.23,524.67Z" style="fill:#4e5d6e"/><path d="M1708.21,525.89a1.44,1.44,0,0,1,1-2,2,2,0,0,1,2.33,1,1.44,1.44,0,0,1-1,2A2,2,0,0,1,1708.21,525.89Z" style="fill:#4e5d6e"/><path d="M1704,527.17a1.49,1.49,0,0,1,1.08-2,2,2,0,0,1,2.41,1,1.49,1.49,0,0,1-1,2A2,2,0,0,1,1704,527.17Z" style="fill:#4e5d6e"/><path d="M1704.78,526.94a.86.86,0,0,1,.61-1.17,1.18,1.18,0,0,1,1.39.56.86.86,0,0,1-.61,1.16A1.17,1.17,0,0,1,1704.78,526.94Z" style="fill:#c6037f"/><path d="M1708.93,525.67a.83.83,0,0,1,.59-1.14,1.12,1.12,0,0,1,1.33.56.82.82,0,0,1-.57,1.13A1.14,1.14,0,0,1,1708.93,525.67Z" style="fill:#c6037f"/><path d="M1712.93,524.45a.81.81,0,0,1,.55-1.11,1.11,1.11,0,0,1,1.3.55.81.81,0,0,1-.55,1.11A1.1,1.1,0,0,1,1712.93,524.45Z" style="fill:#c6037f"/><path d="M1716.77,523.28a.78.78,0,0,1,.53-1.08,1.06,1.06,0,0,1,1.26.54.78.78,0,0,1-.52,1.08A1.08,1.08,0,0,1,1716.77,523.28Z" style="fill:#c6037f"/><path d="M1713.47,518.66c-.14.59.06.81-.68,1l-1.63.46c-.19.05-.55-2-2.46-2.48a1.64,1.64,0,0,1-.2,2c-.74.87-3.34,1.63-3.34,1.63a1.61,1.61,0,0,0-1.19,2.2l.45,1,12.7-3.72a1.42,1.42,0,0,0,1-2l-.44-1a6.55,6.55,0,0,0-1.19-1.15l-1.61.44A2.2,2.2,0,0,0,1713.47,518.66Z" style="fill:#ec228f"/><path d="M1714.87,513.78a9.24,9.24,0,0,1-.27-1.67c-.11-.24-.58-.13-.75-.09l-1.36.34c-.59.14-.62.49-.64.87s-.09.67-.89.87l-2.68.67c-.56.14-.69.44-.5.86l.92,2c1.91.49,2.27,2.53,2.46,2.48l1.63-.46c.74-.21.54-.43.68-1a2.2,2.2,0,0,1,1.39-1.57l1.61-.44c-.16-.14-.34-.3-.54-.51C1715,515.23,1715.14,514.39,1714.87,513.78Z" style="fill:#ff228f"/><path d="M1713.54,514.72l1.45-.37a.42.42,0,0,0,.3-.6h0a.62.62,0,0,0-.72-.33l-1.46.36a.43.43,0,0,0-.31.61h0A.64.64,0,0,0,1713.54,514.72Z" style="fill:#4e5d6e"/><path d="M1708.45,517.11l1.53-.4a.45.45,0,0,0,.33-.62h0a.66.66,0,0,0-.76-.34l-1.53.4a.44.44,0,0,0-.34.62h0A.67.67,0,0,0,1708.45,517.11Z" style="fill:#2f4155"/><path d="M1707.83,520.21l1.23,1a.66.66,0,0,0,.84,0h0a.45.45,0,0,0,0-.71l-1.22-1a.69.69,0,0,0-.85,0h0A.46.46,0,0,0,1707.83,520.21Z" style="fill:#2f4155"/><path d="M1705.87,521.08l.76,1.31a.69.69,0,0,0,.82.26h0a.47.47,0,0,0,.27-.68l-.77-1.3a.7.7,0,0,0-.82-.27h0A.46.46,0,0,0,1705.87,521.08Z" style="fill:#2f4155"/><path d="M1717.55,521.17s1-.67,1-1.11a2.6,2.6,0,0,0-.31-1.38.54.54,0,0,0-.41-.08c-.2,0-3.35,2.56-5.44,3.17l-8,2.32c-.45.13-.39.2-.35.28l.5,1.12,4.68-1.19,6.72-2.11C1716.08,522.17,1717.55,521.17,1717.55,521.17Z" style="fill:#ffca05"/><path d="M1721.19,521.62l-.68-.35a.67.67,0,0,0-.48,0l-16.19,4.85a.54.54,0,0,0-.39.73l.16.35a.73.73,0,0,0,.88.35l15.55-4.77a.7.7,0,0,1,.49,0h0a.58.58,0,0,0,.78-.18l.14-.25A.54.54,0,0,0,1721.19,521.62Z" style="fill:#647180"/><path d="M1718.9,520.24l-3.35,1a.3.3,0,0,0-.23.4.89.89,0,0,1-.68.93l-5,1.48a1.3,1.3,0,0,1-1.33-.36c-.07-.08-.19-.28-.69-.14l-3.57,1.05a.76.76,0,0,0-.56,1l.2.44s0,0,0,0l16.42-4.91a.05.05,0,0,0,0,0l-.19-.41A1,1,0,0,0,1718.9,520.24Z" style="fill:#ff228f"/><path d="M1719.58,544.52a1.2,1.2,0,0,1-1.22-.11,3.1,3.1,0,0,1-1-1.33l-1.2-2.61c-.06.78-.12,1.42-.18,1.93a.56.56,0,0,1-.67.56.62.62,0,0,1-.44-.19.57.57,0,0,1-.13-.45c.14-1.58.25-3,.33-4.22l-.68-1.48-.44.2a.56.56,0,0,1-.47,0,.63.63,0,0,1-.36-.34.64.64,0,0,1,0-.49.58.58,0,0,1,.32-.35l.44-.2-.81-1.74a.66.66,0,0,1,0-.49.61.61,0,0,1,.33-.34.6.6,0,0,1,.47,0,.71.71,0,0,1,.37.32L1715,535l2.26-1.06a.58.58,0,0,1,.48,0,.64.64,0,0,1,.35.34.62.62,0,0,1,0,.48.58.58,0,0,1-.32.35l-2.27,1,3,6.47c.26.58.5.82.71.72s.3-.38.48-.94c0-.12.06-.23.08-.36s0-.3.08-.5.05-.36.06-.46,0-.3.07-.6.06-.49.07-.56a.56.56,0,0,1,.23-.45.5.5,0,0,1,.43-.13.55.55,0,0,1,.46.23.52.52,0,0,1,.12.43,21.13,21.13,0,0,1-.44,2.85,3.12,3.12,0,0,1-.51,1.07A1.84,1.84,0,0,1,1719.58,544.52Z" style="fill:#313131"/><path d="M1720.64,533.33a.78.78,0,0,1-1,.48.84.84,0,0,1-.46-.43.74.74,0,0,1,0-.6.79.79,0,0,1,.43-.45.79.79,0,0,1,1.06.38A.83.83,0,0,1,1720.64,533.33Zm4.23,8.82a1.19,1.19,0,0,1-1.21-.14,3.16,3.16,0,0,1-1.06-1.36l-1.16-2.52-.17,1.82a.6.6,0,0,1-.67.56.58.58,0,0,1-.53-.32.59.59,0,0,1,0-.33l.39-4.16a.55.55,0,0,1,.36-.49.63.63,0,0,1,.85.32l2.12,4.6a2.27,2.27,0,0,0,.44.68c.15.13.27.14.38,0a2.76,2.76,0,0,0,.37-.94,3.21,3.21,0,0,0,.08-.36c0-.13,0-.3.08-.5s.05-.36.07-.46,0-.3.07-.6,0-.49.06-.56a.57.57,0,0,1,.35-.52.61.61,0,0,1,.31-.06.58.58,0,0,1,.53.35.61.61,0,0,1,.06.31,21.14,21.14,0,0,1-.45,2.86,4.13,4.13,0,0,1-.51,1.12A2,2,0,0,1,1724.87,542.15Z" style="fill:#313131"/><path d="M1725,567.8s-12.15,2.35-18.19-6.88-15.28-22.73-15.28-22.73-1.42-11.37,4.27-13.85,6,1.79,6.22,5.4a9.28,9.28,0,0,1-2.28,6.32l7.23,18.31Z" style="fill:#efc698"/><path d="M1697.87,538.68s4.76-6.65,7.48-8.31,8.55,2.3,4.9,8.63a32.12,32.12,0,0,1-7.6,9.24Z" style="fill:#efc698"/><path d="M1700.77,543.25s8.78-3.78,11.82-4.1,6.27,6.18-1,11.58-4.77,10.19-4.77,10.19-9.57-6.24-13.1-11-2.18-11.71-2.18-11.71Z" style="fill:#efc698"/><path d="M1706.59,548.24s10.64-3.29,12.24-1.65,1.25,7.49-5.19,10.19-9.33-4.38-9.33-4.38Z" style="fill:#efc698"/><path d="M1817.07,378.21,1809.65,391s-7.42-4.12-20.62-4.53-18.55,0-18.55,0,.82-14.43,3.3-19l-9.07,19h-8.66s.41-11.13,2.06-13.61l-8.24,15.26-9.9,2.47-2.47,37.52s-7-26-2.89-42.47,13.61-44.52,71.33-43.7,67.61,24.74,73.79,40.82,3.71,25.56-2.06,39.58c-4.42,10.74-22.26,23.08-22.26,23.08s4.53-16.9,3.71-30.92a65.25,65.25,0,0,0-7.42-25.56l.41,14.43s-24.32-11.54-33.39-11.95Z" style="fill:#362f31"/><path d="M1777.75,450.31c2.68-5.41,6-8.64,9.48-8.35s6.22,4,8,9.79Z" style="fill:#dfb16c"/><path d="M1767.74,457.89s1.18,8.67,19.59,11.82c10.69,1.83,19.78-1.71,24.25-6.59" style="fill:none;stroke:#e2ab5c;stroke-linecap:round;stroke-linejoin:round;stroke-width:4.04057053244187px"/><path d="M1829.53,420.23a10.81,10.81,0,0,0,6.69,1.95l3.5-.39a3.13,3.13,0,0,1-2.5,2.69s3.41,2.45,6.31,1.35c0,0-1.48,4-4.48,3.94a22.91,22.91,0,0,0,4.14,1.51s-1.89,3.55-3.41,3a17.54,17.54,0,0,1-3,4.9c-2.39,3-6.54,5.6-15.43,3.7-3.51-.75,8.16-22.68,8.16-22.68" style="fill:#2d2628"/><path d="M1822.87,442.93c-10.95-1.18-16.35-10.81-16.35-10.81s4.51-9,11.55-10.68,10.8,1.19,14.71,4.28c3.37,2.67,4.76,8.7,4.76,8.7S1833.82,444.11,1822.87,442.93Z" style="fill:#fff"/><path d="M1826.43,441.39a10.35,10.35,0,1,1,7.66-12.48,10.36,10.36,0,0,1-7.66,12.48" style="fill:#362f31"/><path d="M1829.66,429.17a6,6,0,1,0-3.38,7.85,6,6,0,0,0,3.38-7.85" style="fill:#162516"/><path d="M1837.34,432.17s-3-8.68-11-10.36c-12.33-2.61-19.86,10.31-19.86,10.31s7.4-17,20.55-13.68c4,1,5.21,3.69,12.65,3.35C1839.72,421.79,1835.27,425.35,1837.34,432.17Z" style="fill:#2d2628"/><circle cx="1822.51" cy="424.26" r="2.36" style="fill:#fff"/><path d="M1760.82,412.21a10.82,10.82,0,0,1-7,.38l-3.32-1.18a3.14,3.14,0,0,0,1.82,3.19s-3.87,1.61-6.45-.12c0,0,.54,4.22,3.47,4.86a22.75,22.75,0,0,1-4.37.53s1,3.88,2.63,3.72a17.59,17.59,0,0,0,1.79,5.45c1.63,3.49,5.1,6.94,14.18,7.1,3.59.07-2.8-23.93-2.8-23.93" style="fill:#2d2628"/><path d="M1762.16,435.83c10.93,1.34,18.37-6.82,18.37-6.82s-2.35-9.76-8.82-13-10.79-1.3-15.29.82c-3.89,1.84-6.62,7.39-6.62,7.39S1751.22,434.49,1762.16,435.83Z" style="fill:#fff"/><path d="M1759,433.52a10.35,10.35,0,1,0-4.62-13.9,10.36,10.36,0,0,0,4.62,13.9" style="fill:#362f31"/><path d="M1758.67,420.88a6,6,0,1,1,1.51,8.42,6,6,0,0,1-1.51-8.42" style="fill:#162516"/><path d="M1750.51,422.06s4.92-7.77,13-7.6c12.6.26,17,14.55,17,14.55s-3.33-18.25-16.9-18c-4.15.08-5.91,2.41-13.08.39C1750.55,411.41,1754.08,415.89,1750.51,422.06Z" style="fill:#2d2628"/><circle cx="1760.28" cy="417.63" r="2.36" style="fill:#fff"/><path d="M1809.84,402.54a2.86,2.86,0,0,0,2.81,2.63c13.93.07,25.21,3.14,29.4,7.93.48.55,1.51,1.15,1.68.85.57-1,1-2.06.45-2.82-3.32-4.39-14.29-11.37-31.41-11.7a2.89,2.89,0,0,0-2.93,3.11Z" style="fill:#424548"/><path d="M1775.87,398a2.46,2.46,0,0,1-2.87,1.67c-11.77-2.61-21.86-2.18-26.31,1.05-.52.38-1.5.69-1.59.4-.29-.95-.47-1.94.16-2.47,3.65-3.06,14.24-6.84,28.73-3.84a2.5,2.5,0,0,1,1.88,3.19Z" style="fill:#424548"/><path d="M285.14,732.53s-11.28,5-13.11,4.75-7.9-10.53-7.9-10.53l3.83-9.66,9.42-1.2Z" style="fill:#f6c8a4"/><path d="M262.82,716.7s-4.21,8.44,3.11,11,8.24,7.09,10.34,6.81a33.72,33.72,0,0,0,7.57-2.3c.48-.43,2.92-5.52,1.67-9.81s-1.26-11.52-5.51-13.1-10.13,3.26-11.61,3.19S262.82,716.7,262.82,716.7Z" style="fill:#ea9261"/><path d="M197.93,958.16l.13,2.69s-2.68,12-9.92,12.9c-4.38.54-12.46-2.69-14.1-6.55a25.56,25.56,0,0,1-1.45-7C180.55,964.67,191.1,963.92,197.93,958.16Z" style="fill:#d8201f"/><path d="M197.27,944.37l.66,13.79c-6.83,5.76-17.38,6.51-25.34,2.05-.38-3.7-.51-8.12-.73-12.66C171.09,932,196.67,935.83,197.27,944.37Z" style="fill:#bd201f"/><path d="M199.73,905.58c.5,9.91,0,47.92,0,47.92s-.08,3.89-17,3.54c-11.26-.23-14.24-2.89-14.24-2.89s-1.34-29.68-2.47-49.76c-.21-8,9.13-12.8,17.17-12.7C189.78,891.78,199.22,895.66,199.73,905.58Z" style="fill:#53575a"/><path d="M159.45,878.55c-3.53-.72-5-16.33-3.4-30.5a194.4,194.4,0,0,0,23.1-1.84A99.84,99.84,0,0,0,199.26,841s1.17,14.64.9,27.63c-.12,5.7-.1,16.49-.18,33.83-.13,6.27-.87,12.88-16.42,14.59-8.86,1-17.2-3.22-17.73-15.12-.55-9.81-.86-13.29-1.13-15.42C164.21,882.52,163,879.26,159.45,878.55Z" style="fill:#53575a"/><path d="M186.6,844.79a94.65,94.65,0,0,0,12.66-3.8s.88,11.09.93,22.53C193,859.91,187.83,854.17,186.6,844.79Z" style="fill:#424548"/><path d="M162.66,878.55c3.53-.72,5-16.33,3.4-30.5a194.4,194.4,0,0,1-23.1-1.84A99.84,99.84,0,0,1,122.85,841s-1.17,14.64-.9,27.63c.12,5.7.1,16.49.18,33.83.13,6.27.87,12.88,16.42,14.59,8.86,1,17.2-3.22,17.73-15.12.55-9.81.86-13.29,1.13-15.42C157.9,882.52,159.13,879.26,162.66,878.55Z" style="fill:#53575a"/><path d="M135.51,844.79a94.65,94.65,0,0,1-12.66-3.8s-.88,11.09-.93,22.53C129.07,859.91,134.28,854.17,135.51,844.79Z" style="fill:#424548"/><path d="M170.65,975.18s.1,3.9.2,6.5,6.4,2.89,10.09,3.49,13.5,2.9,19.4,3.5,20.69,1,24.59.1,5.89-2.4,6.09-4.1-.7-5.39-1.4-5.59S170.65,975.18,170.65,975.18Z" style="fill:#2d2628"/><path d="M202.24,962.48s-2-2.39-3.6-2.39-4.1.1-4.6,2.39l-.5,2.3s-1-1-2.8.8-.5,4.4-7.8,3.8a11.49,11.49,0,0,1-9.79-7.4c-.2-.5.08-1.34-.56-1.77s-2.44.57-2.74,3.77-.2,11,.4,13.1,1.8,4.2,5.8,5.1,11,1.19,14.59,1.39,15.39,3,24.29,2.9,11.39-.7,14.89-3.3-1.4-10.09-14.09-14.69S202.24,962.48,202.24,962.48Z" style="fill:#53575a"/><path d="M199,979.15c8.09,2.49,23.4,3.42,28-4.47,4,3.48,5,6.9,2.88,8.49-3.5,2.6-6,3.2-14.89,3.3s-20.69-2.7-24.29-2.9-10.59-.5-14.59-1.39-5.2-3-5.8-5.1a23.12,23.12,0,0,1-.47-4.26A15.88,15.88,0,0,0,172,973.9C181,977.65,190,975.4,199,979.15Z" style="fill:#42464a"/><path d="M204.93,964.35a21.74,21.74,0,0,0-8.34,5.2c-3.72,3.82-3.72-.29-3.72-.29s.19-1.87,4.6-4.61S203.16,962.49,204.93,964.35Z" style="fill:#fff8cb"/><path d="M210.36,966.48a21.64,21.64,0,0,0-7.58,6.25c-3.19,4.28-3.73.19-3.73.19s-.05-1.87,4-5.17S208.37,964.87,210.36,966.48Z" style="fill:#fff8cb"/><path d="M216.93,969.23a21.55,21.55,0,0,0-7.58,6.24c-3.19,4.28-3.73.2-3.73.2s-.05-1.87,4-5.17S214.94,967.61,216.93,969.23Z" style="fill:#fff8cb"/><path d="M123.92,958.16l-.13,2.69s2.68,12,9.92,12.9c4.38.54,12.46-2.69,14.1-6.55a25.19,25.19,0,0,0,1.45-7C141.3,964.67,130.75,963.92,123.92,958.16Z" style="fill:#d8201f"/><path d="M124.58,944.37l-.66,13.79c6.83,5.76,17.38,6.51,25.34,2.05.38-3.7.51-8.12.73-12.66C150.76,932,125.18,935.83,124.58,944.37Z" style="fill:#bd201f"/><path d="M122.13,905.58c-.51,9.91,0,47.92,0,47.92s.08,3.89,17,3.54c11.25-.23,14.23-2.89,14.23-2.89s1.34-29.68,2.47-49.76c.21-8-9.13-12.8-17.17-12.7C132.07,891.78,122.63,895.66,122.13,905.58Z" style="fill:#53575a"/><path d="M151.2,975.18s-.1,3.9-.2,6.5-6.39,2.89-10.09,3.49-13.5,2.9-19.39,3.5-20.7,1-24.59.1-5.9-2.4-6.1-4.1.7-5.39,1.4-5.59S151.2,975.18,151.2,975.18Z" style="fill:#2d2628"/><path d="M119.62,962.48s2-2.39,3.59-2.39,4.1.1,4.6,2.39l.5,2.3s1-1,2.8.8.5,4.4,7.8,3.8a11.49,11.49,0,0,0,9.79-7.4c.2-.5-.07-1.34.56-1.77s2.44.57,2.74,3.77.2,11-.4,13.1-1.8,4.2-5.8,5.1-11,1.19-14.59,1.39-15.39,3-24.29,2.9-11.39-.7-14.89-3.3,1.4-10.09,14.09-14.69S119.62,962.48,119.62,962.48Z" style="fill:#53575a"/><path d="M122.87,979.15c-8.09,2.49-23.4,3.42-28-4.47-4,3.48-5,6.9-2.88,8.49,3.5,2.6,6,3.2,14.89,3.3s20.69-2.7,24.29-2.9,10.6-.5,14.59-1.39,5.2-3,5.8-5.1a23.12,23.12,0,0,0,.47-4.26,15.34,15.34,0,0,1-2.19,1.08C140.88,977.65,131.88,975.4,122.87,979.15Z" style="fill:#42464a"/><path d="M116.93,964.35a21.74,21.74,0,0,1,8.33,5.2c3.73,3.82,3.73-.29,3.73-.29s-.2-1.87-4.61-4.61S118.69,962.49,116.93,964.35Z" style="fill:#fff8cb"/><path d="M111.49,966.48a21.64,21.64,0,0,1,7.58,6.25c3.19,4.28,3.73.19,3.73.19s0-1.87-4-5.17S113.48,964.87,111.49,966.48Z" style="fill:#fff8cb"/><path d="M104.92,969.23a21.55,21.55,0,0,1,7.58,6.24c3.19,4.28,3.73.2,3.73.2s0-1.87-4-5.17S106.91,967.61,104.92,969.23Z" style="fill:#fff8cb"/><path d="M242.88,728a80.78,80.78,0,0,0,10.24-4.92c5.21-.61,11.07,2.49,11.79,7.84a22.38,22.38,0,0,1-.29,7.33c-3.45.54-14.65,6.85-17.37,8.16-4.54,2.18-10.26,3.09-14.14-5.13C230.48,735.71,234.47,731.61,242.88,728Z" style="fill:#f6c8a4"/><path d="M206.52,741.23l12.22-3.57s7.9-2.88,13.23-4.53,6-2.38,6-2.38,7.29-.09,8.86,4.59,3.54,8.76-1.47,11.49-15.3,8.51-19,10.44-14.68,9.84-18.76,9.28-8.06-3.66-9.69-14.13C196.79,745.25,206.52,741.23,206.52,741.23Z" style="fill:#f6c8a4"/><path d="M174.6,754.46c3.4-14.6,28-15.16,28-15.16l15.67-3a3.55,3.55,0,0,1,3.24,1,16.12,16.12,0,0,1,3.25,6.15c1.82,5.41,2.9,11.06,4.51,15.78a3.71,3.71,0,0,1-2.07,4.62l-13.54,7.34s.19.26-13.44,7.62S172,765.83,174.6,754.46Z" style="fill:#d8201f"/><path d="M204.31,795.49s-1.85-32.77-3.3-39.31-8.63-15.09-37.22-15.26-47.15,4.4-48.14,29.6c-.42,10.58,3.5,31.07,3.5,31.07Z" style="fill:#d8201f"/><path d="M157.15,743.23l24,3.9S196,758.28,200.4,769.7c2.55,6.63,2.91,14.78,3.91,25.79s.56,56.36.56,56.36a136.26,136.26,0,0,1-43.7,7c-26.3,0-44.88-6.52-44.88-6.52l.39-81.06S126.42,745,157.15,743.23Z" style="fill:#d8201f"/><path d="M145.5,741.05s-4.79-.19-6.59,1.83c0,0-.4,19.27,21.66,16.8s22.8-16.06,22.8-16.06a25.68,25.68,0,0,0-12.06-3.23C164.73,740.46,145.5,741.05,145.5,741.05Z" style="fill:#bd201f"/><path d="M145.18,728.82l-.1,17.25s1.85,9.51,16.09,9,15.67-12.38,15.67-12.38l-3.47-17.12Z" style="fill:#f6c8a4"/><path d="M173.37,725.59l2.63,13a28.61,28.61,0,0,1-4.32,2.91,29.12,29.12,0,0,1-26.58.62l.08-13.26Z" style="fill:#ea9261"/><path d="M228.85,672s11.23,3.95,11.13,13.8S236.59,705,219.47,704c0,0-10.25,32.15-58.89,32.92s-55.78-34.55-55.78-34.55-8.25,5.52-16.41-9.55,2.73-20.92,6.14-22.24c0,0-1.75-35.1,9.74-46.84s84.13-38.6,104.05-18.85S237.79,650.73,228.85,672Z" style="fill:#f6c8a4"/><path d="M98.65,677.56l4.13,18.69s-5.08-.78-7.44-2.62S89.5,681.21,98.65,677.56Z" style="fill:#ea9261"/><path d="M227.09,678.26l-4.71,18.55s5.1-.62,7.52-2.38S236.12,682.19,227.09,678.26Z" style="fill:#ea9261"/><path d="M184,697.93c-.06,7.15,5,13.24,11.32,13.78S207,707,207.17,699.88s-4.82-13.56-11.31-14.12S184.1,690.72,184,697.93Z" style="opacity:0.58;fill:url(#Degradado_sin_nombre_18)"/><path d="M132.41,693.2c1.83,6.91-1.58,14.07-7.55,16.16s-12.4-1.71-14.38-8.53,1.31-14.33,7.46-16.48S130.56,686.23,132.41,693.2Z" style="opacity:0.58;fill:url(#Degradado_sin_nombre_18-2)"/><path d="M140.12,700.16a7.64,7.64,0,0,0,1.28.53,10.37,10.37,0,0,0,2.83,5.22c3.6,3.55,11.78,3.4,17,4s9.53-1.46,11-2.82c.89-.81,1.46-2.54,1.81-4.22,1.17-.35,2.18-.69,3-1,3.45-1,4.68,5,2.64,8.39-1.05,1.72-4.22,4.85-8.45,7.4-1.51-2.21-3.49-4.29-5.87-4.95-5-1.39-16.33-1.66-21.68,4a20.75,20.75,0,0,1-7.8-10.84C134.24,699.51,138.11,699,140.12,700.16Z" style="fill:#661512"/><path d="M165.39,712.73c2.38.66,4.36,2.74,5.87,4.95-4,2.4-8.95,4.28-14,3.91a25.61,25.61,0,0,1-13.55-4.87C149.06,711.07,160.36,711.34,165.39,712.73Z" style="fill:#d86f62"/><path d="M161.18,709.88c-7,.14-16.27-1.24-19.87-4.79a10.12,10.12,0,0,1-2.64-5.29c3.78,1.3,16.1,4.22,19.79,4.54,7.22.63,16-1.53,19.43-2.56-.35,1.68-.72,3.69-1.81,4.22C172.91,707.56,166.39,709.78,161.18,709.88Z" style="fill:#fff6cc"/><path d="M158.46,704.34c-4.25-.37-16.33-3-18.34-4.18s-5.88-.65-4.21,5.72,8.83,14.79,21.35,15.71c10.39.76,20.41-8,22.45-11.32s.81-9.43-2.64-8.38S168.13,705.18,158.46,704.34Z" style="fill:none;stroke:#ec918b;stroke-linecap:round;stroke-linejoin:round;stroke-width:3.32172321679437px"/><path d="M151.23,692.73c2.38-5.46,5.54-8.8,8.93-8.68s6.33,3.66,8.4,9.25Z" style="fill:#ea9261"/><path d="M122.33,664.77c8.43-5.08,21.6-7.62,24.16,8.05,0,0-2.48,11.61-15.39,10.54-4.88-.4-8.92-2.37-10.77-5.7C117.75,673,117.77,667.52,122.33,664.77Z" style="fill:#fffcf2"/><path d="M143.59,671.12a11.24,11.24,0,0,0-.64-6.77.27.27,0,0,0-.13-.15c-8.56-5.65-15.48-3.61-20.41-1.43a.44.44,0,0,0-.17.16,14.59,14.59,0,0,0-1.52,6.5c0,6.74,5.61,12.25,12.31,11.54l.91-.12A12.36,12.36,0,0,0,143.59,671.12Z" style="fill:#4c8056"/><path d="M134.85,677.14a7.18,7.18,0,1,1,4.49-7A7.18,7.18,0,0,1,134.85,677.14Z" style="fill:#3f1010"/><path d="M134.88,669.25a3.07,3.07,0,1,1,3.48.91A3.07,3.07,0,0,1,134.88,669.25Z" style="fill:#fffcf2"/><path d="M146.49,672.82c-.71-8.08-19.09-19.66-27.92-1.34C120.28,650.73,150.32,659.52,146.49,672.82Z" style="fill:#333"/><path d="M182.67,665.82c7.77-4.68,19.9-7,22.26,7.43,0,0-2.28,10.69-14.18,9.71-4.5-.37-8.22-2.19-9.92-5.26C178.44,673.41,178.46,668.36,182.67,665.82Z" style="fill:#fffcf2"/><path d="M202.26,671.68a10.31,10.31,0,0,0-.59-6.24.24.24,0,0,0-.12-.14c-7.89-5.21-14.26-3.33-18.81-1.32a.28.28,0,0,0-.15.15,13.06,13.06,0,0,0-1.4,6,10.48,10.48,0,0,0,11.34,10.64c.28,0,.55-.07.83-.12A11.37,11.37,0,0,0,202.26,671.68Z" style="fill:#4c8056"/><path d="M194.2,677.22a6.62,6.62,0,1,1,4.14-6.42A6.62,6.62,0,0,1,194.2,677.22Z" style="fill:#3f1010"/><path d="M194.23,670a2.83,2.83,0,1,1,3.21.83A2.84,2.84,0,0,1,194.23,670Z" style="fill:#fffcf2"/><path d="M204.93,673.25c-.65-7.46-17.59-18.12-25.73-1.24C180.78,652.88,208.46,661,204.93,673.25Z" style="fill:#333"/><path d="M187,651.39c-3,.83-4.6-.77-4.57-2.35s3.35-3.8,14-2.9c6.34.53,8.65,2.51,12,6.14,2.14,2.29,0,5-1.77,3.82s-5.46-4-10.36-5.44A14.52,14.52,0,0,0,187,651.39Z" style="fill:#e5a70a"/><path d="M138,650c2.89,1.29,4.67,0,4.89-1.62s-2.71-5.56-13.43-5c-6.28.32-8.93,1.15-12.84,4.21-2.46,1.93-.71,4.91,1.16,4s6-3.15,11.09-3.78A14.51,14.51,0,0,1,138,650Z" style="fill:#e5a70a"/><path d="M264,728.57a6.31,6.31,0,0,1,6.55-1.11c2.69,1.17,3.94,2.85,5.36,7.93a12.33,12.33,0,0,1-6.63,2.69c-3.67.16-4.7.16-4.7.16S259.47,731.59,264,728.57Z" style="fill:#f6c8a4"/><path d="M211.75,619.12c-5.7,9.31-5,14.42,0,23.93-2.52,9.27-2,13.33,5.35,19.84,2.12,6.41,4.26,12.56,8.88,17.58,1.49-2.16,2.59-7.05,6.14-5.91s6,4.77,6.94,8.29c6-5.41,9.77-10.88,10.63-19.08,4.12-9,7.54-19.11,1.84-28.2,2.26-9.42,2.07-13.92-4.05-21.82.46-6.65-4.4-13.22-9.15-16.19S232,594,227.61,591.23c4-8.43-1.82-16.15-6.53-19.6s-9.52-5.77-11-8.3c0-6.38-4.5-12.83-10.16-14.37s-7.8-.3-12.73.56c-7.3-7.25-16.42-8.34-26.59-5.87s-17.82,8.89-17.72,20.28c-6-7.66-9.93-10.23-20.44-7.92-6.73,1.47-9,12.62-6.51,18.86C106.23,576,96.39,581,90.71,589.3s-3,13.2,3.19,20.3c-6.82,5.57-10.91,10.26-11.38,19.72-.16,3.17,5.27,7.93,8.3,9.12-3.08,2.71-5.86,3.18-5.21,8.47.42,3.33,6.32,7.79,9.77,9.05-2.7,1.22-3.35,3.54-3.2,6.44s1.07,5.61,4.16,6.38c-1,3.9-.3,6.68,2.42,9.66,2.52-3.22,4.46-6.19,3.64-10.4,1.64-4.55,2.33-8.34-.85-12.37a20.35,20.35,0,0,0,4.08-11.41c0-3.57-.51-5.17.13-8.43,4.1.35,8.59-2.57,11.16-5s4.06-3.79,4.23-7c10.57-.37,11.94-5.14,14.65-14.41,1.95,4.87,7.86,7.56,12.38,7.54s6.35-.79,9.92-2.57c2.18,3.38,4.55,5.87,8.92,6.07s8.13-2.06,11.21-5c2.28,5.82-1.94,6.9,6.14,9.75S205.86,626.35,211.75,619.12Z" style="fill:#f6af20"/><rect x="124.08" y="842.81" width="26.85" height="4.9" rx="2.45" transform="translate(-473.78 245.51) rotate(-36.31)" style="fill:#009146"/><rect x="125.49" y="838.47" width="19.4" height="6.27" transform="translate(-472.07 243.43) rotate(-36.31)" style="fill:#709574"/><path d="M142.17,836l-14.63,10.75a6.51,6.51,0,0,1-9.1-1.4h0a6.51,6.51,0,0,1,1.39-9.1l14.63-10.75a6.52,6.52,0,0,1,9.11,1.39h0A6.52,6.52,0,0,1,142.17,836Zm-1.68-6.85h0a3.21,3.21,0,0,0-4.49-.68l-13.8,10.14a3.2,3.2,0,0,0-.69,4.48h0a3.21,3.21,0,0,0,4.49.69l13.8-10.14A3.21,3.21,0,0,0,140.49,829.16Z" style="fill:#009146"/><path d="M110,818.64s1.57-5.36,8.9-5.17a35,35,0,0,1,19.57,6.69c5.35,3.92,10.24,10.67,10.65,12s-.38,3.9-2.73,2.24-5.72-5.58-8.42-7.28-4.39-1-3,1.68,7,9.1,8.41,11,.35,5.59-2.6,2.8-7.83-9.73-8.95-11.09-2.73.45-1.32,2.55,5.37,7.34,6.26,9.22-.38,5.69-3.33,2.9-7.45-9.87-8.57-11.23-2.63-.62-1.92,1.24,3.73,7.71,4.62,9.59-1.73,4.85-3.62,2.16-6.64-12.66-8-15.12S108.61,825.68,110,818.64Z" style="fill:#f6c8a4"/><path d="M104.12,780.7l-4.49,11.91s-3.47,7.66-5.52,12.84a58.64,58.64,0,0,0-2.46,7.48,5.83,5.83,0,0,0,3.53,7.5c4.6,1.79,8.46,4.2,11.57-.59s9.65-14.6,11.86-18.15,10.93-13.88,10.68-18-3-8.31-13.35-10.73C108.88,771.3,104.12,780.7,104.12,780.7Z" style="fill:#f6c8a4"/><path d="M124.73,749.78c-15,.52-20.26,24.59-20.26,24.59l-5.93,14.81a3.58,3.58,0,0,0,.39,3.38,16.31,16.31,0,0,0,5.41,4.37c5,2.83,10.3,5,14.62,7.46a3.73,3.73,0,0,0,4.94-1.14l9.8-11.89s.22.25,10.06-11.72S136.39,749.38,124.73,749.78Z" style="fill:#d8201f"/><path d="M102.09,824.79c6.78,2.79,10.68,4.44,11.61,5a9.25,9.25,0,0,0,10.37-8.27,22.27,22.27,0,0,0-.41-7.32c-3.45-.48-14.74-6.63-17.49-7.89-4.57-2.11-10.3-2.93-14.06,5.35C89.57,817.27,93.62,821.3,102.09,824.79Z" style="fill:#f6c8a4"/><rect x="266.81" y="661.19" width="3.25" height="71.56" transform="translate(-191.62 108.61) rotate(-16.96)" style="fill:#bd201f"/><polygon points="259.28 663.16 321.09 673.5 271.3 706.2 259.28 663.16" style="fill:#d8201f"/><path d="M263.51,716.29l.38.09c1.33.3,5.88,1.27,7.15,1,1.49-.28,3.91-3.13,2.83-5.17s-7.55-3.51-10.93-4.29-4.66,2.14-6.63,7.43a78.08,78.08,0,0,1-3.19,7.68s1.11,8.54,8.17,6.86c4.44-1.06,6.9-3.68,6.8-6.48s-3.63-5.08-4.43-5.64S262.91,716.83,263.51,716.29Z" style="fill:#f6c8a4"/><path d="M279.52,704.43s-8.3,5.79-10.07,7.21-2.09,3.37.12,5,5.48-.48,9.65-3.57,7.23-5.14,5.9-7.2S282.15,703.26,279.52,704.43Z" style="fill:#f6c8a4"/><path d="M273.29,718a22.72,22.72,0,0,1,6.37-4.63c2.28-1.08,5.73-3.7,7.16-1.92,1.08,1.33,2,3.78.58,4.64s-9.32,5.25-11.59,6S271.78,719.69,273.29,718Z" style="fill:#f6c8a4"/><path d="M286.54,718.53s-10.06,4-11.75,4.76-.78,2.85,0,3.94,1.35,1,6,0,7.53-2.29,8.44-3.27S290.38,717.59,286.54,718.53Z" style="fill:#f6c8a4"/><path d="M275.5,732.14c.85.64.71.67,2.37,1a19.79,19.79,0,0,0,7.27-.56c1.31-.44,1.84-3,1.5-4.08s-2.1-1.07-5.77-.38c-2,.38-4.63.3-5.73,1.36A1.75,1.75,0,0,0,275.5,732.14Z" style="fill:#f6c8a4"/><path d="M270.73,681.56l3.25-8.44a1.54,1.54,0,0,1,.77-.78.85.85,0,0,1,.66,0,.82.82,0,0,1,.46.47l7,18a.82.82,0,0,1,0,.72,1,1,0,0,1-.48.45.89.89,0,0,1-.66,0,.82.82,0,0,1-.5-.51l-6.2-16-2.61,6.69a.85.85,0,0,1-.53.49.93.93,0,0,1-.66,0,1.3,1.3,0,0,1-.49-.44A.74.74,0,0,1,270.73,681.56Z" style="fill:#fff;stroke:#fff;stroke-miterlimit:10;stroke-width:1.4292399883270264px"/><path d="M140.28,792.36a21.86,21.86,0,0,1,19.39-20.69,22.51,22.51,0,0,1,3.5-.15,21.89,21.89,0,1,1-22.89,20.84Z" style="fill:#bd201f"/><path d="M176.23,814.18q-2.29-15.24-4.61-30.56l-12.33.76,16.85,29.84Z" style="fill:#f6af20"/><path d="M175.39,795.93l2.58-2.32c1.39-1.26,2.78-2.5,4.16-3.77a1.21,1.21,0,0,0,.36-.75c.26-5.23.49-10.46.73-15.69,0-.65.07-1.3.11-2l-.5.22c-1.6.8-3.21,1.59-4.8,2.41a1.4,1.4,0,0,0-.56.57c-1.32,2.59-2.63,5.19-3.91,7.8a1.71,1.71,0,0,0-.14,1q.9,6,1.83,12.07A4.26,4.26,0,0,0,175.39,795.93Z" style="fill:#f18520"/><path d="M148.49,789.35c-.89,1.57-1.73,3-2.55,4.49a1.25,1.25,0,0,0-.12.43l-3.72,20.65c0,.15-.07.29-.13.58.18-.21.28-.31.36-.42q5.23-7,10.48-13.93a.9.9,0,0,0,.13-.69c-1.41-3.59-2.85-7.18-4.28-10.76C148.63,789.61,148.58,789.54,148.49,789.35Z" style="fill:#f18520"/><path d="M155.25,800H166l-7.84-13.86Z" style="fill:#f18520"/><path d="M149.78,787.68l4,10h.1l2.7-12.77C153.92,784.85,151.91,786.35,149.78,787.68Z" style="fill:#f6af20"/><path d="M170.18,781.89l-6.7-6-4,6.68Z" style="fill:#f18520"/><path d="M191.61,775.43v-3.85l-6.44-.73L185,776.1Z" style="fill:#f6af20"/><polygon points="1504.72 990.22 1566.19 1003.24 1567.45 1033.33 1504.08 1018.51 1504.72 990.22" style="fill:#4f7700"/><ellipse cx="1508.92" cy="1002.86" rx="3.05" ry="4.72" style="fill:#f7ad47"/><path d="M1644.64,975.79v2.12s9.57.49,10.29.69.72.79.72,3.27v12.59l-52.14,24.29s-5.35,3.92-16,8a199.88,199.88,0,0,1-20,6.53l-1.26-30.09,36.92-18.45Z" style="fill:#447000"/><polygon points="1660.83 964.85 1708.79 940.01 1736.73 934.78 1737.51 939.58 1746.37 941.31 1746.17 951.68 1741.25 954.49 1661.18 992.18 1660.83 964.85" style="fill:#447000"/><path d="M1638,960.27l21.17,2.72s1.41-.47,1.66,1.86.36,27.33.36,27.33l-5.26-.36-.32-12.37s-1.29-1.17-5.9-1.41a37.69,37.69,0,0,0-5.07-.13L1634.16,966Z" style="fill:#4f7700"/><path d="M1596.07,985.34l10,1.93-39.86,16-61.47-13a2.19,2.19,0,0,1,.9-2.2c1.2-.72,49.81-7.77,49.81-7.77Z" style="fill:#699100"/><path d="M1678.67,874l-10,21.12.22,65.37,67.84-25.75c-.28,0-5.52-1.14-5.52-1.14l-.53-40.55Z" style="fill:#2a7ab9"/><path d="M1637.18,955.82l31.76,3.67V893.73l-.91-9.3s-8.11-12-22.7-12.73-20.61-.25-20.61-.25l10.42,22.9Z" style="fill:#006089"/><path d="M1606.76,890.5s-4.54,90-4.13,90.71,3.42,6.06,3.42,6.06l32.09-11.95-1-84.82Z" style="fill:#2a7ab9"/><path d="M1553.22,878s2.5-5.88,23.24-5.88a36.48,36.48,0,0,1,30.26,15.43l-.67,99.74-11.42-2-35.9-49.6-5.67-38.06Z" style="fill:#006089"/><path d="M1591.7,990.77s6.11.39,8.09,2.27,3.42,7.31,3.87,13.53.72,11.76-.09,17.48-3.15,13.73-5.49,15.22-8.18,1.38-9.8,1.18-8.18-1.28-8.18-1.28-4.24-3.66-5.13-8.15a76.83,76.83,0,0,1,.45-31.22s2.14-6.12,3.72-7.58,6-1.86,6-1.86Z" style="fill:#f656e6"/><path d="M1640.52,968.8a5.36,5.36,0,0,0-4.79-3.34c-3.83-.34-12.72-.84-12.72-.84s-4.6-.67-7.52,7.92-5.9,26.08-2.91,39.24c2,8.76,5.67,8.76,5.67,8.76s14.87,2.52,18.71.5,7-15.66,7.2-23.07-1.33-25-1.33-25Z" style="fill:#f656e6"/><path d="M1678.57,953.32h15.32s3.51.43,5.71,5.42,2.73,16.26,2.6,18.26-1.69,9.7-4.16,13.55-5.58,5-6.75,5-13.76-1.28-13.76-1.28-6.88-2.86-6.88-9.42-1.3-12.26,1-20A25.81,25.81,0,0,1,1678.57,953.32Z" style="fill:#f656e6"/><path d="M1678.84,901.77v26.56c0,2.08,2.63,3.59,5.31,3.06l15-3c1.85-.37,3.14-1.63,3.14-3.06V897.9Z" style="fill:#8cc63f"/><path d="M1707,897.26v24.11c0,2,2.23,3.49,4.5,3l12.73-2.92a3.2,3.2,0,0,0,2.65-3V893.88Z" style="fill:#8cc63f"/><path d="M1723.67,894.36V918c0,.71,0,1.43-2,2s-14.27,3.14-14.27,3.14V892.76Z" style="fill:#73cdf9"/><path d="M1698.6,899.27v25.54c0,.74,0,1.47-2.35,2.06s-16.87,3.23-16.87,3.23a23.11,23.11,0,0,1-.7-5.08v-30.2Z" style="fill:#73cdf9"/><path d="M1738.58,891.78c.54-.26,2.63-4.17,2.63-4.17s1.08-1.53-.39-4.17-10.36-19.85-26.6-19.85-72.9,4-77.41,4.17a64.11,64.11,0,0,0-10.2,1.69l4.35,4.76a25.58,25.58,0,0,1,8.77-.24c4.27.67,23.32,7.16,31.61,24.71a5.83,5.83,0,0,0,6.2,3.41l61-10.31" style="fill:#f656e6"/><path d="M1586.15,989l-24,8.91-24.36-52.3,21.25-7.38h14.1s20.35,16.22,20.8,24.82-7.76,26-7.76,26" style="fill:#f7ad47"/><path d="M1609.55,898.89v43.48c0,3,2.63,5.27,5.31,4.48l15-4.41A4.59,4.59,0,0,0,1633,938V899.51Z" style="fill:#8cc63f"/><path d="M1539.89,943.36s12.53.58,17.14,12.67,5.09,41.88,5.09,41.88l-6.57,2.89-40.47-7.71,2.16-41.59a27.24,27.24,0,0,1,4.32-5.47C1523.55,944.38,1527.85,941.25,1539.89,943.36Z" style="fill:#8cc63f"/><path d="M1524.73,995.91s-26.22,23.55-26.34,27.62,3,8.71,13.8,11.85,40.77-3.45,40.77-3.45l-1.14-22.87Z" style="fill:#a91a74"/><path d="M1508.54,987.12c4,9.22,9.1,14.89,15.13,15.72,12.94,1.77,19.15-1,22.52-3.31s7.27-4.68,7.27-21.24-10.11-29.81-22.34-30.59-15.89,4.7-15.89,4.7a31.43,31.43,0,0,0-7.5,14.72C1506.16,975.76,1508.54,987.12,1508.54,987.12Z" style="fill:#f656e6"/><path d="M1562.83,932.38l32.6,3a4.23,4.23,0,0,0,4.39-4.44V898.48c0-4.75-7.76-19.62-23.46-19.62-12.45,0-19.67,8.13-19.67,13.08,0,3.85.07,5.81.07,5.81Z" style="fill:#73cdf9"/><path d="M1504.18,1012.81,1516,997.52l32,1.45,5,1.59,2.29,23.92,1.92.66.54,6s-15.5,9.22-25.37,10.23-22.15-3-24.91-4.32-7-3.4-7.77-4.22a8.15,8.15,0,0,1-1.42-5.24c.25-1.83-.25-4.68,1.08-7.53A51.5,51.5,0,0,1,1504.18,1012.81Zm47.27,13s-4.7-15-5.83-17.86c-1.22-3.09-3.33-3.54-4.89,1.61s-4.21,20.11-4.21,20.11A117.37,117.37,0,0,0,1551.45,1025.77Zm-23,3.52s0-3.44.12-7.67.57-17.84-2.2-15.32-11.9,21.22-11.9,21.22C1519.32,1029.63,1528.49,1029.29,1528.49,1029.29Zm-20.72-3c2.29-2.91,10.71-18.45,10.83-20.56s-1.21-1.46-4.21,1.32-13.71,15.93-13.71,15.93C1503.2,1025.53,1507.77,1026.33,1507.77,1026.33Z" style="fill:#f656e6"/><ellipse cx="1560.95" cy="1016.68" rx="3.05" ry="4.72" style="fill:#f7ad47"/><ellipse cx="1525.27" cy="976.82" rx="6.5" ry="10.05" style="fill:#f7ad47"/><ellipse cx="1635.31" cy="980.24" rx="0.85" ry="2.17" style="fill:#ff8600;stroke:#1d1d1b;stroke-miterlimit:10;stroke-width:1.45129963166868px"/><path d="M1642.81,977.76s-43.1,43.27-45,43.51-3.28-.49-3.5-3.35,2.15-6.95,2.15-6.95l44.08-42.17s2.75-2,4.32.41S1646.85,974.69,1642.81,977.76Z" style="fill:#f7ad47"/><ellipse cx="1636.67" cy="995.02" rx="2.94" ry="7.76" style="fill:#a91a74"/><path d="M1637.45,898.26l-25.27,4.28s-1.42-.75-2.63-3.65a44.47,44.47,0,0,0-3.7-6.64c-5-7.53-15-18.48-30.81-18.48a36.41,36.41,0,0,0-21.45,7A45.06,45.06,0,0,0,1541.35,894s-4.25-.88-3.49-3.87,12.15-17.32,28.75-21.37l47.64-1.39,9,1.16s11.8,7.14,15.27,12.79,5.14,9.14,5.3,12S1643.59,897.92,1637.45,898.26Z" style="fill:#f656e6"/><path d="M1553.06,897.6s5.74-.44,8.38,1.15c0,0,6.74,12.29,7.58,13.87s.48,4.89-.48,6.74-6.26,9.39-6.26,9.39v12.42c0,1.59,0,2.51-2.28,3a35.82,35.82,0,0,1-11.43.26c-3.49-.66-4.44-1.81-4.44-1.81l.07-13s-6.83-9.57-6.69-11.77,2.51-7.85,4.55-12.8a40.74,40.74,0,0,1,3-6.31S1550,897.19,1553.06,897.6Z" style="fill:#f656e6"/><path d="M1594.63,985.26a2.1,2.1,0,0,1-1.26,2.07l-5.64,2.25s-1.79.81-1.79-1.73.74-24.22-2.63-34.18-14-14.71-20.88-15.06V934.9s1.79-1.15,7.17-.69,17.82,4,21.09,14.25,3.58,12.86,3.58,20.62C1594.27,975,1594.52,982.17,1594.63,985.26Z" style="fill:#8cc63f"/><path d="M1595.92,889.64c-4.58-5.21-11.11-10.52-23.74-8-7,1.39-12.46,7.82-12.46,9.4v7.36l-3-.65s-.8-6,.29-8.11,2.11-7.35,13.68-10.31,21.69,5,23.66,7.59S1595.92,889.64,1595.92,889.64Z" style="fill:#35a732"/><path d="M1629.31,899.73v37.48c0,1.08,0,2.16-2.35,3s-16.87,4.74-16.87,4.74-.46-6.07-.46-10.21V901.11l1-.17s.47,1.26,3.23,1.26S1629.31,899.73,1629.31,899.73Z" style="fill:#73cdf9"/><path d="M1738.14,956.21c0-16-6.73-19.25-9.09-19.25-1.37,0-5.9-.34-9.42-.63a9.35,9.35,0,0,0-9,5.39,29.86,29.86,0,0,0-2.7,9.1,53.65,53.65,0,0,0,.69,19.78l4.51,6.11s10.45,1.35,13.38,1.57a8.53,8.53,0,0,0,5.58-1c2-.86,4.42-6.16,5.32-10.55C1737.87,964.33,1738.14,956.21,1738.14,956.21Z" style="fill:#f656e6"/><ellipse cx="1695.6" cy="974.48" rx="2.94" ry="7.76" style="fill:#a91a74"/><ellipse cx="1731.91" cy="957.72" rx="2.94" ry="7.76" style="fill:#a91a74"/><path d="M1553.13,881.48v11.39s-8.77,2.06-10.28,2.06-1.94-.75.2-3.49S1548.39,883.73,1553.13,881.48Z" style="fill:#a91a74"/><ellipse cx="1598.87" cy="1015.87" rx="0.85" ry="2.17" style="fill:#a91a74"/><path d="M1668.9,960.53s1-.8-2.91-1.46-28.81-3.25-28.81-3.25l.82,4.45s20.22,2.51,21.17,2.72a2.24,2.24,0,0,1,1.66,1.86Z" style="fill:#699100"/></svg>