<svg id="Fondo" xmlns="http://www.w3.org/2000/svg" xmlns:xlink="http://www.w3.org/1999/xlink" viewBox="0 0 1920 1080"><defs><radialGradient id="Degradado_sin_nombre_4" cx="25749.41" cy="-10957.44" r="11.4" gradientTransform="matrix(1, -0.08, -0.08, -1, -26403.12, -8073.38)" gradientUnits="userSpaceOnUse"><stop offset="0" stop-color="#ee8a94"/><stop offset="1" stop-color="#fdbfa1"/></radialGradient><radialGradient id="Degradado_sin_nombre_4-2" cx="-12544.97" cy="-13487.21" r="10.39" gradientTransform="matrix(0.07, -1, 0.76, 0.05, 11344.48, -11034.47)" xlink:href="#Degradado_sin_nombre_4"/><radialGradient id="Degradado_sin_nombre_9" cx="1791.49" cy="586.77" r="11.46" gradientUnits="userSpaceOnUse"><stop offset="0" stop-color="#9a2822"/><stop offset="1" stop-color="#9a5622"/></radialGradient></defs><rect x="-0.26" y="-0.47" width="1920.06" height="1080.26" style="fill:#039c90"/><path d="M1863.22,868.18c8.67,2.52,20.84-5.76,26.77,1,12.1,13.84,1.19,48.4-14,58.78s-34.64,11.43-53,12.25-37.87,2.15-52.79,12.9c-15.68,11.31-23.06,30.7-35.59,45.42-24.59,28.87-65.38,36.51-102.85,42.36l-87.19,13.62c-19.61,3.06-39.79,6.11-59.14,1.69s-37.92-18.14-42-37.56c-7.09-33.71,29.36-59.81,40.38-92.45,2.79-8.27,3.91-17,6.34-25.4,18.6-64.4,84.7-66.77,139.07-66.5A854.73,854.73,0,0,1,1863.22,868.18Z" style="fill:#0f9096"/><path d="M255,1005.16c5,9.53,6.33,22-.14,30.55-6.63,8.8-18.83,10.73-29.77,12-39.72,4.52-80,9-119.5,2.72-9.51-1.53-20.45-5-23.55-14.09-1.8-5.29-.31-11.19,2.27-16.14,12.68-24.26,58-40.35,83.14-47.24C196.76,964.87,240.2,976.89,255,1005.16Z" style="fill:#0f9096"/><path d="M1102,977.29c80,.57,161,1.48,238.32,21.91,13,3.42,26.41,7.79,35.43,17.69s11.45,27,1.7,36.19c-6,5.6-14.63,6.93-22.74,7.89-45.58,5.42-91.56,7.39-137.46,7.39l-760-6.35c-9.74-.08,20-59.3,23.9-63.63,14.69-16.24,27.65-21.4,48.49-22.6,61.56-3.56,124.5,0,186.19.09Q908.92,976,1102,977.29Z" style="fill:#0f9096"/><path d="M251.44,722.94s4.48,9.91,8.37,11.88,5.93.57,8.21-.79,5.91-4.86,7-8.31.72-8.71.72-8.71l-2.82-1.19s-1.63,1.14-2-.46a4.7,4.7,0,0,0-2.26-2.88c-.38-.1-3.9.32-4.7-.66a13.51,13.51,0,0,0-3.29-2.19l-5.78,6.14s-2.42,3.25-3.21,3-.26,4.22-.26,4.22" style="fill:#e1937c"/><path d="M276.94,697.37a42.48,42.48,0,0,0,4.41-3.17c1.86-1.58,2.94-2.57,2.24-3.84s-1.68-2.06-4.13-1a16.67,16.67,0,0,0-6.07,4.85,2.12,2.12,0,0,0,.8,3.15,2.09,2.09,0,0,0,2.75,0" style="fill:#ffbead"/><path d="M275.07,701.38a61,61,0,0,1,4.89-4.45c1.18-1.09,3-1.71,3.83-.9,1.29,1.17.31,2.75.12,3.05a36.58,36.58,0,0,1-5.59,4.65c-1.66.89-4.82-.47-3.25-2.35" style="fill:#ffbead"/><path d="M277.73,708.65s-1.29-1.37,1-3.25,3.73-3.17,4.9-3.67,2,.58,2.27,1.37-1.16,3.25-2.92,5.13-4.32,2.38-5.21.42" style="fill:#ffbead"/><path d="M277.63,715.78s-1.29-1.37,1-3.25,3.72-3.17,4.9-3.67,2,.58,2.26,1.37-1.16,3.25-2.92,5.13-4.32,2.38-5.21.42" style="fill:#ffbead"/><rect x="251.03" y="669.59" width="30.85" height="55.96" rx="2.15" style="fill:#ffead6"/><rect x="252.12" y="671.55" width="28.68" height="52.03" rx="3.82" style="fill:#fff7ef"/><rect x="254.63" y="696.97" width="23.66" height="1.2" rx="0.6" style="fill:#313131"/><path d="M264.56,696.89a2.42,2.42,0,0,1,.26-1.08,2.4,2.4,0,1,0,3.79,2.83,2.37,2.37,0,0,1-1.64.65A2.4,2.4,0,0,1,264.56,696.89Z" style="fill:#d89f0f"/><path d="M266.46,695.16a2.08,2.08,0,1,0,.51,4.13,2.37,2.37,0,0,0,1.64-.65,2.41,2.41,0,0,0-2.15-3.48Z" style="fill:#fdda16"/><circle cx="266.9" cy="697.07" r="1.14" style="fill:#fef0a0"/><path d="M266.38,686.43s2.8-4.56,2.8-7.55-.9-4.6-2.9-4.6-2.5,2.8-2.5,4.7S266.38,686.43,266.38,686.43Z" style="fill:#cb0a0a"/><path d="M267.57,685.71s-3.26-4.24-6.06-5.31-4.62-.8-5.33,1.07,1.72,3.33,3.5,4S267.57,685.71,267.57,685.71Z" style="fill:#cb0a0a"/><path d="M267.32,684.34s-5.12,1.54-7.12,3.77-2.39,4-.9,5.36,3.72-.42,5-1.84S267.32,684.34,267.32,684.34Z" style="fill:#cb0a0a"/><path d="M265.4,685.71s3.26-4.24,6.06-5.31,4.62-.8,5.33,1.07-1.72,3.33-3.5,4S265.4,685.71,265.4,685.71Z" style="fill:#cb0a0a"/><path d="M265.65,684.34s5.12,1.54,7.12,3.77,2.39,4,.9,5.36-3.72-.42-5-1.84S265.65,684.34,265.65,684.34Z" style="fill:#cb0a0a"/><circle cx="266.54" cy="684.74" r="2.33" style="fill:#fdda16"/><path d="M258.84,715.26a3.5,3.5,0,0,1-2.56-1,.87.87,0,0,1-.23-.56.8.8,0,0,1,.77-.77.74.74,0,0,1,.56.23,2.07,2.07,0,0,0,1.6.61,2.93,2.93,0,0,0,1.28-.29,2,2,0,0,0,.89-.84,2.49,2.49,0,0,0,.23-1.18c0-.24,0-.42,0-.54a3.46,3.46,0,0,0-.78-1.81,6.06,6.06,0,0,0-1.8-1.5q-.76,1.75-1.71,3.45a.68.68,0,0,1-1,.28.67.67,0,0,1-.3-1c.42-.79.83-1.61,1.23-2.48s.68-1.55.85-2l.27-.72a.76.76,0,0,1,.27-.37.77.77,0,0,1,.45-.14.71.71,0,0,1,.29,0,.66.66,0,0,1,.49.65,1.43,1.43,0,0,1-.06.31l-.14.42-.07.18a17.23,17.23,0,0,1,1.81,1.47,6.39,6.39,0,0,1,1.23,1.59,3.75,3.75,0,0,1,.5,1.81,4.41,4.41,0,0,1,0,.69,8.38,8.38,0,0,0,1.15-1.43.78.78,0,0,1,.5-.37.61.61,0,0,1,.52.07.69.69,0,0,1,.38.48.65.65,0,0,1-.08.54,9.52,9.52,0,0,1-3.59,3.4A6,6,0,0,1,258.84,715.26Z" style="fill:#313131"/><path d="M267.68,715.24A3.43,3.43,0,0,1,265,714a4.56,4.56,0,0,1-1-3.11,5.23,5.23,0,0,1,1.47-3.82,5,5,0,0,1,3.76-1.5,3.57,3.57,0,0,1,2.49.91v-.13a.75.75,0,0,1,.23-.55.76.76,0,0,1,.55-.23.74.74,0,0,1,.54.23.71.71,0,0,1,.23.55v6.12c0,.76.14,1.15.42,1.15s.53-.27,1-.8c.09-.11.19-.22.28-.35l.34-.51c.13-.22.24-.37.3-.48l.38-.62.35-.58a.72.72,0,0,1,.49-.38.65.65,0,0,1,.54.08.68.68,0,0,1,.39.48.65.65,0,0,1-.08.54,27.16,27.16,0,0,1-1.94,2.91,4.26,4.26,0,0,1-1.11.95,2.4,2.4,0,0,1-1.15.34,1.41,1.41,0,0,1-1.1-.5,2.62,2.62,0,0,1-.58-1.37,5.87,5.87,0,0,1-1.88,1.37A5.12,5.12,0,0,1,267.68,715.24Zm.22-1.56a3.23,3.23,0,0,0,1.72-.53,4.08,4.08,0,0,0,1.38-1.39,3.3,3.3,0,0,0,.53-1.74,3.16,3.16,0,0,0-.64-2.1,2.16,2.16,0,0,0-1.76-.77,3.52,3.52,0,0,0-2.66,1.05,3.72,3.72,0,0,0-1,2.73C265.45,712.76,266.27,713.68,267.9,713.68Z" style="fill:#313131"/><path d="M252.89,710.09a38.72,38.72,0,0,1-.25,9.9c-.38,2,.59,2.56,1.79,3.37s3.51,2.16,4,4.9a4.87,4.87,0,0,0,4.09,4.26,10.08,10.08,0,0,0,7.4-1.65c2.22-1.54,4.8-4.28,5.11-5.15s-.14,3.12-2.76,6.63-3.71,3.9-4.15,8.81S257.8,773.27,256.66,777s-3,6.41-10.63,11.36-26,19.08-27.15,19.78-4.91-1.51-7.54-9.8A23.79,23.79,0,0,1,210,790l26.58-17s12.47-25.5,14.7-30.57,2.45-5.76,1.33-7.21a38.38,38.38,0,0,1-5.73-11.2c-1.81-5.66-1.55-6.82-1.12-9.12a16.35,16.35,0,0,1,1.42-3c1-2.08,2.15-4.79,2.15-4.79s3.16.42,3.61,3" style="fill:#ffbead"/><path d="M210.39,786.3l-4.52,2.91-.18,1.25-18.51,7.29-.18,0c-3.63,9.92,2.1,20,9.56,26.92a1.75,1.75,0,0,0,1.56,0l-.08-.37,17.53-9.26,1.72,1,5.68-3.42Z" style="fill:#9b0"/><path d="M174,915.17s-1.17,54.28-2.1,59.41-1.16,13-.47,16.54c0,0,0,2.33,11.19,3.26s22.83,3,27.49,2.79,7.45-1.16,8.38-1.86.93-4.89-3.49-7.45-20.27-9.56-21.9-12.12-2.56-9.78-1.86-15.84,9.55-46.82,9.55-46.82-22.83-7-26.79,2.09" style="fill:#e2a384"/><path d="M169.84,960.13a48.16,48.16,0,0,1,14-.23l8.62.93s-.7,10.95,1.17,12.82,11.81,7.94,13.8,8.81,10,5.1,11.57,7.71,2,4.36-.37,6.59-9.7,2.49-14.55,2-11.57-2.49-16.43-2.74-14-1.24-16.29-2.74-2.61-8.46-1.25-17c1.18-7.36.62-13.68-.25-16.11" style="fill:#a0a100"/><path d="M169,977.11s-1.49,1-1.74,1.62,1.12,13.93,1.62,14.68,15.05,3.35,18.29,3.73,8.08,2.74,15.92,2.86,15.05-.37,16.8-1.37,2.86-3.73,1.24-7.09-10.7-9.36-12.94-10.2c-1-.37-2.49-1-2.49-1s-2,4.11-8.58,4.48a36,36,0,0,1-11-.87s7.28-7.16,10.45-7.59c1.89-.25,1.84-.56,1.84-.56s-1.44-2.15-3.33-2.15-6.35,1.48-10.09,5.12l-3.74,3.64a28.81,28.81,0,0,1-12.3-5.3" style="fill:#af2a7e"/><path d="M129.39,919.18s-1.16,54.28-2.1,59.4-1.16,13-.46,16.54c0,0,0,2.33,11.18,3.26s22.83,3,27.49,2.8,7.45-1.16,8.39-1.86.93-4.9-3.5-7.46-20.26-9.55-21.9-12.11-2.56-9.79-1.86-15.84,9.55-46.83,9.55-46.83-22.83-7-26.79,2.1" style="fill:#ffc1a0"/><path d="M125.2,964.14a48.16,48.16,0,0,1,14-.23l8.61.93s-.69,10.95,1.17,12.81,11.82,8,13.81,8.82,9.95,5.1,11.57,7.71,2,4.35-.37,6.59-9.71,2.49-14.56,2-11.57-2.48-16.42-2.73-14.06-1.25-16.3-2.74-2.61-8.46-1.24-17c1.17-7.36.62-13.68-.25-16.11" style="fill:#a7a800"/><path d="M124.33,981.12s-1.5,1-1.74,1.61,1.12,13.94,1.61,14.68,15.06,3.36,18.29,3.74,8.09,2.73,15.92,2.86,15.06-.38,16.8-1.37,2.86-3.73,1.24-7.09-10.69-9.36-12.93-10.2c-1-.38-2.49-1-2.49-1s-2,4.11-8.59,4.48a36.4,36.4,0,0,1-10.95-.87s7.29-7.16,10.46-7.59c1.88-.26,1.83-.56,1.83-.56s-1.43-2.15-3.33-2.15-6.35,1.48-10.09,5.12l-3.74,3.64a28.79,28.79,0,0,1-12.29-5.3" style="fill:#af2a7e"/><path d="M189.84,796.68,175,793.44l-26.72,1.39-11.31,1.92s-12.64,4.25-12.6,4.31c6.28,9.76,5,23.11,1.22,33.08l2.28.19-1.88,39s27.87,4.38,50,3.51,19.53-5.72,19.53-5.72l2.26-51.18c-.63.09.08-18.57-7.89-23.26" style="fill:#afc602"/><path d="M107.37,915.92s18.4,12.35,57.77,12.35S212,912.71,212,912.71l-12.81-45.42s-3.11,4.6-4.27-8.21-2.1-37.27-2.1-37.27.47-3.26-5.59-3.26-31.79.48-35.75.72S142,818.1,142,822.06s-.47,38-1.16,43.56-5.25,6.55-9.21,6.32-5.26-2.11-5.26-2.11-2.66,1.13-4.76,5.56-14.21,40.53-14.21,40.53" style="fill:#af2a7e"/><path d="M182.19,825.39a3.48,3.48,0,1,1,3.48,3.48,3.48,3.48,0,0,1-3.48-3.48" style="fill:#3b3d20"/><polyline points="187.12 824.46 186.7 820.83 189.26 820.53 188.83 816.72 180.76 817.64 181.2 821.45 184.06 821.13 184.51 825.03" style="fill:none;stroke:#3b3d20;stroke-miterlimit:10;stroke-width:1.7981677779129px"/><polygon points="188.63 818.94 181.56 819.75 179.3 793.58 186.69 795.46 188.63 818.94" style="fill:#af2a7e"/><path d="M183.32,825.39a2.35,2.35,0,1,1,2.35,2.35A2.35,2.35,0,0,1,183.32,825.39Z" style="fill:none;stroke:#000;stroke-miterlimit:10;stroke-width:0.598886422453144px"/><path d="M143.6,824.68a3.48,3.48,0,1,1,4,2.91,3.48,3.48,0,0,1-4-2.91" style="fill:#3b3d20"/><polyline points="148.45 823.17 147.9 819.56 150.45 819.17 149.87 815.38 141.84 816.6 142.42 820.39 145.28 819.96 145.87 823.84" style="fill:none;stroke:#3b3d20;stroke-miterlimit:10;stroke-width:1.7981677779129px"/><path d="M144.72,824.51a2.35,2.35,0,0,1,4.64-.71,2.35,2.35,0,1,1-4.64.71Z" style="fill:none;stroke:#000;stroke-miterlimit:10;stroke-width:0.598886422453144px"/><polygon points="149.75 817.6 142.72 818.67 139.11 795.48 146.15 794.41 149.75 817.6" style="fill:#af2a7e"/><path d="M129.18,838.66s-2.53,16.14-2.72,17.07,5.74,17.51,7.77,20.76,9,7.84,11.27,10.68,1.24,9.93,1.45,11.35-1.39,1.54-2.25,1-1.77-6-2.1-6.93-.71-1.76-1-1.13.43,5.58.72,6.82a19.69,19.69,0,0,1,.26,3.64s-1.08,1.57-2.42,1.16S137.32,895,136.9,894s.24-1.21-.42-1-.13,4.44,0,6.79.16,3.38-.32,3.92a1.72,1.72,0,0,1-2.67-.39c-.74-1.22-1.23-7.38-1.6-8.44s-.31-1.91-.84-1.5-.76,1.4-.39,4.54.73,4.74.73,4.74a1.72,1.72,0,0,1-1.88,1.19c-1.43-.23-2.78-3.18-3.19-5.57s-1.39-6.81-1.53-7.2-3.24-5.7-3.62-9.07-10.3-17.73-11.1-30.9c-.43-7.23,2.63-21,2.63-21s6.92-19.1,13.93-21.39,10.94,9.35,2.58,29.94" style="fill:#ffbead"/><path d="M122.15,801.92c-.06,0-.11-.06-.17-.09l-.43.56a41.53,41.53,0,0,0-5.33,11.34l-2.4,9.88-1.33.14-3.16,6.6c3.41,2,17.53,6.37,17.53,6.37l5.85,1.16,1.2-4.59,4.49-6.61c4.53-6,.93-15.62-2.6-20.37-2.68-3.6-7.13-7-13.65-4.39" style="fill:#b7d424"/><path d="M78.76,650.67a10.16,10.16,0,0,0-16.31,10.54c-5.61-3.26-13.37-.65-17.08,4.67s-3.86,12.51-1.85,18.67a20.8,20.8,0,0,0-3.42,38.57c-5.15,5.06-3.08,13.61-.65,20.4a15.45,15.45,0,0,1,8.13-9.39,97.69,97.69,0,0,1,7.67,22.5,81.77,81.77,0,0,0,8.06-19.17,34.25,34.25,0,0,1,10.13,19.42,27.88,27.88,0,0,0,7.69-30.72c6.11,1.19,11.74-4.79,12.57-11s-1.7-12.25-4.18-18c1.69,3.89,14.3-10.79,15-12.69a52,52,0,0,0,2.41-19.13C105.82,653.1,89.66,638.1,78.76,650.67Z" style="fill:#950a0a"/><path d="M113.6,666.43S96.15,659.21,85.79,674c-6.44,9.16-4.79,30.7,4,27.11l3.52-.16s1-13.12,8.6-20.17A66,66,0,0,0,113.6,666.43Z" style="fill:#e682ed"/><path d="M173.64,630.23c3-3.15,9.16-7.79,18.9-3.45a10.26,10.26,0,0,1,5.58,10.7c6.66-1.3,14,1.45,16.74,7.86,2.55,6,3.1,8.75,1.83,15.11,8.19,1.37,13.86,6.54,15.57,14.66s2.37,16.62-4.56,21.18c5.7,4.4,4.67,13.14,3.08,20.17a15.53,15.53,0,0,0-9.2-8.36,97.91,97.91,0,0,0-4.93,23.26,81.6,81.6,0,0,1-10.29-18.07,34.23,34.23,0,0,0-7.74,20.49,27.87,27.87,0,0,1-11.3-29.58c-5.93,1.91-12.23-3.35-13.79-9.38s.23-12.37,2-18.34c-1.21,4.07-15.48-9-16.38-10.8A52.08,52.08,0,0,1,154.48,647C154.09,634.61,161.32,619,173.64,630.23Z" style="fill:#950a0a"/><path d="M138.5,655.33s11.81-14.75,28-6.82c10.06,4.93,19,24.59,9.57,25.67l-3.15,1.56s-7.17-11-17.26-13.53A66,66,0,0,1,138.5,655.33Z" style="fill:#e682ed"/><path d="M113.26,658.75a9,9,0,0,0-4.12,3.47,4.6,4.6,0,0,0,.21,5.13c-1.56-1.46-4-1.12-6.09-.5-5.12,1.56-10.06,4.52-12.69,9.17s-2.32,11.18,1.67,14.74a15.56,15.56,0,0,0-2.43,26.33c-5,.66-8.22,6.86-6.29,11.53s8,6.89,12.73,5A12,12,0,0,0,102,745.15c.77.45,8.72,3.83,9.6,3.7,1.62-.24,2.81-3.06,3.42-4.57,4.09-10,1.3-23,11.17-27.45a40.42,40.42,0,0,1,4.94-55.14C127.33,655.64,119.19,656.52,113.26,658.75Z" style="fill:#b50a0a"/><path d="M151.17,785.07l-1.65,14.85s2.6,8.89,14.89,7.75c14.48-1.34,12.79-7.77,12.79-7.77l-1.44-15.07s-.65-4.51-11.31-4.51C154.51,780.32,151.17,785.07,151.17,785.07Z" style="fill:#fdbfa1"/><path d="M175.76,784.83l1.09,11.41a24.22,24.22,0,0,1-4,2.11,25.23,25.23,0,0,1-23-1.86l1.27-11.42s1.57-5,13.23-5S175.76,784.83,175.76,784.83Z" style="fill:#e79166"/><path d="M218.26,733.72c-6.75-18.9-7.19-24.41-7.2-32.7,0-15.22-7.34-26.4-21.16-33.67s-33.05-7.9-45.41-4.63c-7.56,2-21.66,7.69-33.47,15.55-4.09,15.91-1,34.13,2,50-10.94,3.91-14,13-14.36,23.37a53.22,53.22,0,0,0,3.29,7c6.18,10.54,10.46,13,14.12,13.92a8.56,8.56,0,0,0,7.19-1.9s2.53,4.76,10.22,8.65c2.75,1.39,17.61,7.22,20.91,8.42,5.53,2,11.18,2.9,20.63,2.9,15.88,0,26-6,33.08-12.72C227.5,759.73,221,741.48,218.26,733.72Z" style="fill:#fdbfa1"/><path d="M121.85,761.85c.58,2.27-5,5.14-7.73,1-3.07-4.71-3-5.7-3.71-8.67s.85-6.41,6.22-5.67C119.56,748.93,120.54,756.81,121.85,761.85Z" style="fill:#e79166"/><path d="M137.21,766.62c.16-6.62,5.06-12.1,10.9-12.41s10.58,4.75,10.57,11.32-4.89,12.41-10.92,12.72S137,773.29,137.21,766.62Z" style="opacity:0.58;fill:url(#Degradado_sin_nombre_4)"/><path d="M220.4,753.81c.9-6.35-3.09-13.2-8.63-11.84S205,747.58,205,756.19s5.1,10.44,8.12,10.14S219.49,760.17,220.4,753.81Z" style="opacity:0.58;fill:url(#Degradado_sin_nombre_4-2)"/><path d="M179.66,746.39a1.27,1.27,0,0,1-1.16-2c2-2.87,3.58-4.67,6-4.77,3.05-.13,5.79,3.15,5.93,5.72Z" style="fill:#e79166"/><path d="M107.65,741c6.07-3.12,10.27-1.86,13.64.49s9.72,7.65,9.72,7.65,2.72-3.25-.82-7.06-4.68-9.59-4.68-9.59,6.38-.46,5.51-8-7.55-5.59-7.55-5.59,2.09-6.64,3.65-7.55,6.46-3.91,6.16-8.56l-.3-4.65c12.65-.32,9.39-7.28,9.39-7.28s7.59,3.85,10.87,1.28a13.29,13.29,0,0,0,4.26-6.39s4.39,4.95,10.27,4.3,10-1.83,11.22-3.94,1.53,5,10.68,3.77,7.67.39,7.67.39,4.11,10.89,9.13,13,5.13,13.5,5.13,13.5l3.14,6.56s-2.63-14.51,1.67-16.46,11.34-3,11-8.1-3.71-9.46-8.42-8.94l-4.7.51s10.28-3.84,9.19-15.3-9.35-15-15-14.39c0,0,1.5-5.59-3.13-8.53s-7,1.5-8.94,1c0,0-2.72-13.26-16.8-13.45S161.24,652,161.24,652s-5.41-5.57-12.6-1.83-6.54,7.38-6.54,7.38-.4-7.6-14-3.65-10.88,13-8.26,17.17c0,0-9.15,1.25-12.65,12.24,0,0-8.19-.83-8.41,7.57s5.09,9.06,5.09,9.06a18.81,18.81,0,0,0-3.19,13.66c1.37,7.74,2.32,11.83,2.32,11.83s-5.34,3.29-5.4,15.13,1,14.69,4.23,18C101.83,758.63,101.58,744.11,107.65,741Z" style="fill:#b50a0a"/><path d="M158,710.21a2.55,2.55,0,0,1-2.47,2.48c-12.12,1.56-19.29,4.35-20.95,7.29-.18.33-.66.69-.81.53-.5-.53-.94-1.09-.75-1.53,1.12-2.67,7-8,21.43-10.79,1.74-.33,3.43.61,3.55,2Z" style="fill:#cb0a0a"/><path d="M187.71,705.26a1.86,1.86,0,0,0,2.19,1.06c7.24-2.86,13.93-3.28,17.42-1.15.41.25,1.11.42,1.11.19,0-.75,0-1.51-.54-1.87-2.94-2.06-10.55-4.16-19.52-.8a1.79,1.79,0,0,0-.66,2.57Z" style="fill:#cb0a0a"/><path d="M147.58,731.94c6.12-5.44,12.74-7,17.22,5.43,0,0,1.22,9.2-10.5,10.3-9.33.88-13-5.87-12.54-7.15A27.55,27.55,0,0,1,147.58,731.94Z" style="fill:#fffcf2"/><path d="M148.45,731.35c-.06,0-1,1.72-1,1.79a12.05,12.05,0,0,0-.25,5.55A9.47,9.47,0,0,0,159,746.26l.72-.25a8.09,8.09,0,0,0,4.91-4.5c.64-1.57.62-5.15-.4-6.42-2.65-3.29-5.35-6-9.44-5.91A16.56,16.56,0,0,0,148.45,731.35Z" style="fill:#5c8573"/><path d="M159.91,742.84a6,6,0,1,1,2.6-6.38A6,6,0,0,1,159.91,742.84Z" style="fill:#3f1010"/><path d="M156,734.93a2.56,2.56,0,1,1,3,.21A2.56,2.56,0,0,1,156,734.93Z" style="fill:#fffcf2"/><path d="M165,737.5c-1.81-6.5-14.38-14.47-23.2,3C142.56,723.75,164.29,723.38,165,737.5Z" style="fill:#562409"/><path d="M194.85,724.2c6-5.31,12.45-6.84,16.83,5.31,0,0,1.19,9-10.26,10.07-9.12.86-12.68-5.74-12.25-7A26.64,26.64,0,0,1,194.85,724.2Z" style="fill:#fffcf2"/><path d="M195.7,723.63s-1,1.68-1,1.75a11.66,11.66,0,0,0-.25,5.42A9.24,9.24,0,0,0,206,738.19c.24-.07.47-.14.71-.23a8,8,0,0,0,4.79-4.4c.62-1.54.61-5-.39-6.28-2.59-3.21-5.23-5.86-9.23-5.77A16.19,16.19,0,0,0,195.7,723.63Z" style="fill:#5c8573"/><path d="M206.9,734.86a5.84,5.84,0,1,1,2.55-6.24A5.84,5.84,0,0,1,206.9,734.86Z" style="fill:#3f1010"/><path d="M203.11,727.13a2.5,2.5,0,1,1,2.92.2A2.5,2.5,0,0,1,203.11,727.13Z" style="fill:#fffcf2"/><path d="M211.84,729.64c-1.77-6.35-14.06-14.14-22.67,3C190,716.2,211.18,715.84,211.84,729.64Z" style="fill:#562409"/><path d="M141.14,662c.86-1.94,2.17-3.89,4.19-4.52s4.69.93,4.4,3a14.65,14.65,0,0,1,11.05-7,4.2,4.2,0,0,1,1.9.15c2,.76,2.19,3.53,2,5.69,1.33-2.6,2.88-5.32,5.51-6.58s6.55-.1,7,2.78a12.68,12.68,0,0,1,5.64-4.3,6.82,6.82,0,0,1,6.74,1.2c1.74,1.64,2.08,4.73.41,6.44a14.08,14.08,0,0,1,4.91,1.14,21.1,21.1,0,0,0-5.37,2.36,5.51,5.51,0,0,1,3,6,5.06,5.06,0,0,1-5.43,3.79,4.68,4.68,0,0,1-3.81-5.28c0,2.62,1.86,5.17,1.16,7.7a6.11,6.11,0,0,1-3.63,3.63c-2.54,1.13-5.83,1.21-7.8-.75a7.1,7.1,0,0,1-1.67-3.07,6.54,6.54,0,0,1,0-4.43,3.34,3.34,0,0,1,3.6-2.09c-2.27.6-4.73,1.31-6.09,3.23s-1.23,4.64-2.43,6.71a7.57,7.57,0,0,1-2.92,2.72,7.41,7.41,0,0,1-6.67.54c-2.08-1-3.36-3.74-2.3-5.81-1.91,2.39-3.9,4.87-6.65,6.22s-6.47,1.23-8.45-1.1a10.78,10.78,0,0,1-7.44,7.21c-2.61.68-6-.12-6.77-2.71a15.4,15.4,0,0,0,9.37-3.45,15.28,15.28,0,0,1-7.91-.26,28.93,28.93,0,0,0-4-1.19,4.32,4.32,0,0,0-3.84,1c-1.42,1.5-1.2,4.29-3,5.25-1.76-3.28-3.25-7.56-.95-10.48a7.73,7.73,0,0,1,3-2.14,15.41,15.41,0,0,1,14.36,1.13,4.73,4.73,0,0,0-3.57-4.26c.69.16,2.09-.47,2.91-.46a11.45,11.45,0,0,1,3.23.65c1.08-2,2.47-2.19,4-3.5S140.38,663.67,141.14,662Z" style="fill:#cb0a0a"/><path d="M197.36,675.2a12.75,12.75,0,0,0,8.09-5.33l1.08,5.74c.27,1.39,1,3.13,2.38,3a2.89,2.89,0,0,0,1.54-.85l5.09-4.38a8.74,8.74,0,0,0,2.13-2.33,4.46,4.46,0,0,0-7.52-4.76,11,11,0,0,0-2.93-3.66l-1.52,1.61a8.44,8.44,0,0,0-2.37-7.37A8,8,0,0,0,196,654.8C195.62,657.78,204.76,673.81,197.36,675.2Z" style="fill:#cb0a0a"/><path d="M199.25,763a3.65,3.65,0,0,1-.54,1.08c-1.12,1.57-4.73,6.14-9.34,6.85-5.59.87-16.53-5.48-17-6a38.81,38.81,0,0,1-1.88-4.54s27.29-2.79,29.67-5C202.23,753.4,199.94,760.81,199.25,763Z" style="fill:#e64d82"/><path d="M175.32,769.4s13.09-4.34,19.12.54c0,0-3.75,3.66-11,2.66S175.32,769.4,175.32,769.4Z" style="fill:#ea8db3"/><path d="M176,767.09s14.05-4.63,22-1.72l3.25-9.87s-9.27,2.61-10.26,2.7-20.78,2.34-20.78,2.34Z" style="fill:#231510"/><path d="M199.71,758.2s-2,3.13-10.33,4.84-14.73,1.58-18.14-.26l-1.1-2.24a174,174,0,0,0,17.37-1.42A33.94,33.94,0,0,0,201,754Z" style="fill:#fff"/><path d="M201,754s1,14.7-12,17.14c-13.62,2.55-18.85-10.58-18.85-10.58C172,760.37,188.39,761.31,201,754Z" style="fill:none;stroke:#ed9462;stroke-linecap:round;stroke-linejoin:round;stroke-width:2.82444481026204px"/><path d="M564.51,910.42h780.14a28.89,28.89,0,0,1,28.89,28.89v51.86a0,0,0,0,1,0,0H535.62a0,0,0,0,1,0,0V939.31a28.89,28.89,0,0,1,28.89-28.89Z" style="fill:#ff0e94"/><path d="M578.8,914.83h753.46a32.57,32.57,0,0,1,32.57,32.57v34.54a13.64,13.64,0,0,1-13.64,13.64H559.86a13.64,13.64,0,0,1-13.64-13.64V947.4A32.57,32.57,0,0,1,578.8,914.83Z" style="fill:#ff53b3"/><path d="M1373.55,991.17H535.62l-49.3,51.17c0,7.46,11.88,13.51,26.53,13.51h867.74c14.65,0,26.53-6,26.53-13.51Z" style="fill:#ff0e94"/><path d="M1347.14,995.58H563.35c-10.36,0-19.7,3.18-23.65,8.06l-19.35,23.9c-6.57,8.12,4.18,17.4,21.4,17.91.51,0,1,0,1.56,0h822a50.88,50.88,0,0,0,7.55-.55c14-2.11,21.15-10,16-17L1371.08,1004C1367.32,998.93,1357.79,995.58,1347.14,995.58Z" style="fill:#ff30a3"/><polygon points="1889.99 869.22 1563.03 851.8 1563.18 741.99 1571.44 739.25 1889.99 753.16 1889.99 869.22" style="fill:#f7ad47"/><polygon points="1889.99 869.22 1563.57 854.74 1563.57 741.99 1887.05 756.1 1889.99 869.22" style="fill:#f59c22"/><polygon points="1569.7 852 1500.46 877.02 1500.46 764.28 1571.44 739.25 1569.7 852" style="fill:#f7ad47"/><polygon points="1889.99 869.22 1818.92 894.44 1818.92 782.78 1888.16 758.89 1889.99 869.22" style="fill:#f7ad47"/><polygon points="1570.09 743.7 1514.75 762.94 1807.68 780.03 1884.95 756.02 1570.09 743.7" style="fill:#fac986"/><polygon points="1884.95 756.02 1807.68 780.03 1819.75 780.74 1888.2 757.86 1887.05 756.1 1884.95 756.02" style="fill:#f8bb67"/><polygon points="1821.87 891.5 1503.41 874.08 1500.46 764.28 1511.82 761.54 1821.87 775.44 1821.87 891.5" style="fill:#f7ad47"/><polygon points="1818.92 894.44 1500.46 877.02 1500.46 764.28 1818.92 778.38 1818.92 894.44" style="fill:#f59c22"/><path d="M1538,847.13c-1.73,0-2.59-.81-2.59-2.43V792.23a2.34,2.34,0,0,1,.7-1.79,2.69,2.69,0,0,1,1.89-.65h11.54a19.47,19.47,0,0,1,6,.91,20.1,20.1,0,0,1,6.06,3.17,24.65,24.65,0,0,1,5.37,5.46,26.42,26.42,0,0,1,3.78,8.16,38.13,38.13,0,0,1,1.4,10.88,34.29,34.29,0,0,1-1.51,10.32,27.71,27.71,0,0,1-3.91,8.13,28.41,28.41,0,0,1-5.4,5.68,22.57,22.57,0,0,1-6,3.51,16.17,16.17,0,0,1-5.68,1.12Zm2.43-4.83h9.22a12,12,0,0,0,4.24-.87,17.24,17.24,0,0,0,4.68-2.8,23.47,23.47,0,0,0,4.33-4.64,23.15,23.15,0,0,0,3.17-6.79,30.11,30.11,0,0,0,1.24-8.83q-.11-10.7-5-17.16a15.25,15.25,0,0,0-12.77-6.48h-9.11Z" style="fill:#d66e22"/><path d="M1590.06,847.43a13.7,13.7,0,0,1-10.6-4.71,16.72,16.72,0,0,1-4.26-11.67,14.53,14.53,0,0,1,2-7.44,14.92,14.92,0,0,1,5.29-5.41,13.57,13.57,0,0,1,7.06-2,19.6,19.6,0,0,1,2,.15,2.47,2.47,0,0,1,1.66.9,2.71,2.71,0,0,1,.59,1.68,7.42,7.42,0,0,1,1.84-.22A8.71,8.71,0,0,1,1600,820a12.18,12.18,0,0,1,3.89,3.65c1.5,2,2.25,4.78,2.25,8.3a9.94,9.94,0,0,1-.07,1.44,4.7,4.7,0,0,0,3.17-2.1,2.25,2.25,0,0,1,2.14-1.3,2.18,2.18,0,0,1,1.18.3,2.2,2.2,0,0,1,1.29,2.1,2.37,2.37,0,0,1-.29,1.22,7.66,7.66,0,0,1-3.69,3.43,16.69,16.69,0,0,1-5.16,1.18q-4.54,9.21-13.72,9.22Zm.37-4.83a9.41,9.41,0,0,0,8.92-5.06,13.24,13.24,0,0,1-4.28-1.93,11.57,11.57,0,0,1-2.89-2.73,14.35,14.35,0,0,1-1.66-3,13.48,13.48,0,0,1-.83-2.68,7.88,7.88,0,0,1-.15-1.73,8.23,8.23,0,0,1,1-4,11.62,11.62,0,0,0-1.51-.15,7.34,7.34,0,0,0-3.91,1.07,9.38,9.38,0,0,0-3.63,3.73,10.52,10.52,0,0,0-1.34,5.2,11.47,11.47,0,0,0,3,8A9.43,9.43,0,0,0,1590.43,842.6Zm10.8-9.44.07-1.22q0-3.69-1.36-5.49-2-3-4.35-3c-.86,0-1.29.72-1.29,2.17l.07,1a7.9,7.9,0,0,0,2.31,4.22A9,9,0,0,0,1601.23,833.16Z" style="fill:#d66e22"/><path d="M1623.5,847.79a2.34,2.34,0,0,1-1.73-.68,2.26,2.26,0,0,1-.7-1.71V820.84c0-.1,0-.15-.08-.15s-.29.22-.59.67l-6.89,12.24a2.23,2.23,0,0,1-1.48,1.14,2.62,2.62,0,0,1-3.08-1.62,2.25,2.25,0,0,1,.28-1.84q.3-.48,3-5.41T1616,819a5.76,5.76,0,0,1,5.13-3.17,5.12,5.12,0,0,1,2.78.8,4.39,4.39,0,0,1,1.83,2.23,14.57,14.57,0,0,1,8.85-3.18,10.7,10.7,0,0,1,4.74,1.06,8.53,8.53,0,0,1,3.48,3.07,14.06,14.06,0,0,1,9.59-4.05,10.55,10.55,0,0,1,7.23,2.64,8.1,8.1,0,0,1,3,6.28v13.65c0,2.48.44,3.72,1.33,3.72.64,0,1.73-.86,3.28-2.58.3-.35.59-.73.89-1.14s.66-1,1.1-1.66.77-1.2,1-1.53l1.24-2q.91-1.53,1.14-1.86a2.25,2.25,0,0,1,1.58-1.24,2.09,2.09,0,0,1,1.74.24,2.25,2.25,0,0,1,1.27,1.57,2,2,0,0,1-.28,1.75,85.76,85.76,0,0,1-6.27,9.44,13.59,13.59,0,0,1-3.59,3.06,7.51,7.51,0,0,1-3.74,1.1,4.54,4.54,0,0,1-3.56-1.6,8.47,8.47,0,0,1-1.86-4.44,17.09,17.09,0,0,1-.19-2.8V824.71a4.06,4.06,0,0,0-1.36-3,4.76,4.76,0,0,0-3.47-1.33q-4,0-8.44,5.12V845.4a2.22,2.22,0,0,1-.78,1.68,2.59,2.59,0,0,1-1.8.71,2.33,2.33,0,0,1-2.4-2.39V824.71a4.15,4.15,0,0,0-1.38-3,4.84,4.84,0,0,0-3.52-1.35q-4.1,0-8.49,5.2V845.4a2.22,2.22,0,0,1-.73,1.71A2.56,2.56,0,0,1,1623.5,847.79Z" style="fill:#d66e22"/><path d="M1686.07,847.35a4.65,4.65,0,0,1-4.11-2.49,12.45,12.45,0,0,1-1.53-6.58V827.4l-3.57,6.2a2.39,2.39,0,0,1-3.32.92,2.2,2.2,0,0,1-1.37-2,2.36,2.36,0,0,1,.41-1.21l8.22-14.2a2.21,2.21,0,0,1,2.1-1.14,2.41,2.41,0,0,1,1.77.73,2.45,2.45,0,0,1,.74,1.77v19.92a8.19,8.19,0,0,0,.46,3.13c.31.71.73,1,1.27.74a9.93,9.93,0,0,0,2.88-2.73c.29-.35.59-.73.88-1.14s.67-1,1.11-1.66l1-1.53c.21-.34.62-1,1.23-2s1-1.64,1.15-1.86a2.21,2.21,0,0,1,2.1-1.3,2.24,2.24,0,0,1,1.21.3,2.2,2.2,0,0,1,1.29,2.1,2.27,2.27,0,0,1-.29,1.22,85.76,85.76,0,0,1-6.27,9.44,15.45,15.45,0,0,1-3.69,3.17A7.14,7.14,0,0,1,1686.07,847.35Zm-.64-38.36a3,3,0,0,1-4.46,0,3.18,3.18,0,0,1-.94-2.27,3,3,0,0,1,.9-2.2,3.31,3.31,0,0,1,4.54,0,3,3,0,0,1,.9,2.2A3.22,3.22,0,0,1,1685.43,809Z" style="fill:#d66e22"/><path d="M1709.64,847.43a2.39,2.39,0,0,1-2.44-2.44V820.84c0-.1,0-.15-.07-.15s-.3.22-.59.67l-6.9,12.24a2.3,2.3,0,0,1-3.31.92,2.38,2.38,0,0,1-1.24-1.4,2.25,2.25,0,0,1,.28-1.84q.29-.48,3-5.41t3.82-6.84a5.74,5.74,0,0,1,5.13-3.17,5.05,5.05,0,0,1,2.85.85,4.34,4.34,0,0,1,1.76,2.32,15.86,15.86,0,0,1,9.66-3.32,11.83,11.83,0,0,1,7.57,2.44,7.9,7.9,0,0,1,3.08,6.56v13.65c0,2.48.46,3.72,1.37,3.72q.92,0,3.24-2.58c.3-.35.59-.73.89-1.14s.66-1,1.1-1.66.77-1.2,1-1.53.62-1,1.23-2,1-1.64,1.15-1.86a2.27,2.27,0,0,1,1.6-1.24,2.1,2.1,0,0,1,1.75.24,2.26,2.26,0,0,1,1.24,1.57,2,2,0,0,1-.28,1.75,85.76,85.76,0,0,1-6.27,9.44,13.67,13.67,0,0,1-3.57,3.06,7.42,7.42,0,0,1-3.73,1.1,4.6,4.6,0,0,1-3.57-1.6,8.4,8.4,0,0,1-1.88-4.44,19.1,19.1,0,0,1-.15-2.8V824.71a3.87,3.87,0,0,0-1.72-3,6.44,6.44,0,0,0-4.18-1.39q-4.83,0-9.22,5.2V845a2.32,2.32,0,0,1-.74,1.74A2.54,2.54,0,0,1,1709.64,847.43Z" style="fill:#d66e22"/><path d="M1756.87,847.43a13.7,13.7,0,0,1-10.6-4.71,16.72,16.72,0,0,1-4.26-11.67,14.53,14.53,0,0,1,2-7.44,14.92,14.92,0,0,1,5.29-5.41,13.59,13.59,0,0,1,7.06-2,19.41,19.41,0,0,1,2,.15,2.43,2.43,0,0,1,1.66.9,2.71,2.71,0,0,1,.59,1.68,7.48,7.48,0,0,1,1.84-.22,8.75,8.75,0,0,1,4.34,1.25,12.29,12.29,0,0,1,3.89,3.65c1.5,2,2.25,4.78,2.25,8.3a9.59,9.59,0,0,1-.08,1.44,4.68,4.68,0,0,0,3.17-2.1,2.26,2.26,0,0,1,2.14-1.3,2.18,2.18,0,0,1,1.18.3,2.2,2.2,0,0,1,1.29,2.1,2.37,2.37,0,0,1-.29,1.22,7.62,7.62,0,0,1-3.69,3.43,16.56,16.56,0,0,1-5.16,1.18q-4.53,9.21-13.72,9.22Zm.37-4.83a9.4,9.4,0,0,0,8.92-5.06,13.09,13.09,0,0,1-4.27-1.93,11.63,11.63,0,0,1-2.9-2.73,14.35,14.35,0,0,1-1.66-3,13.48,13.48,0,0,1-.83-2.68,8.55,8.55,0,0,1-.15-1.73,8.22,8.22,0,0,1,1-4,12,12,0,0,0-1.51-.15,7.29,7.29,0,0,0-3.91,1.07,9.34,9.34,0,0,0-3.64,3.73,10.63,10.63,0,0,0-1.34,5.2,11.52,11.52,0,0,0,3,8A9.46,9.46,0,0,0,1757.24,842.6Zm2.8-30.35a2.6,2.6,0,0,1-1.79-.72,2.23,2.23,0,0,1-.79-1.71,2.19,2.19,0,0,1,.55-1.44l4.83-7.16a2.37,2.37,0,0,1,2-1.14,2.68,2.68,0,0,1,1.79.7,2.21,2.21,0,0,1,.79,1.7,2.28,2.28,0,0,1-.55,1.44l-4.83,7.19A2.37,2.37,0,0,1,1760,812.25Zm8,20.91.08-1.22a9.06,9.06,0,0,0-1.37-5.49c-1.32-2-2.78-3-4.35-3-.86,0-1.29.72-1.29,2.17l.07,1a8,8,0,0,0,2.31,4.22A9,9,0,0,0,1768,833.16Z" style="fill:#d66e22"/><polygon points="1519.74 1031.84 1583.46 1023.51 1583.46 948.19 1519.74 948.19 1519.74 1031.84" style="fill:#0053a9"/><polygon points="1529.74 1018.7 1575.1 1013.63 1575.1 959.16 1529.74 960.01 1529.74 1018.7" style="fill:#afafae"/><polygon points="1619.15 1046.66 1540.91 1037.02 1540.91 948.6 1619.15 948.87 1619.15 1046.66" style="fill:#ffca05"/><polygon points="1606.9 1031.32 1551.21 1025.41 1551.21 961.51 1606.9 962.66 1606.9 1031.32" style="fill:#fff"/><polygon points="1668.65 1032.76 1619.15 1046.66 1619.15 948.55 1668.65 948.55 1668.65 1032.76" style="fill:#f7a318"/><polygon points="1662.42 1022.16 1627.24 1030.62 1627.24 962.31 1662.42 960.89 1662.42 1022.16" style="fill:#f2ecec"/><path d="M1652.07,971.11c-1.17.08-2.09,1.86-2.09,4v26.1a9.83,9.83,0,0,1-.84,4.38,4.3,4.3,0,0,1-2.93,2.5h0a2.56,2.56,0,0,1-2.68-1.36,8.27,8.27,0,0,1-.85-4.23,5.53,5.53,0,0,0-.69-2.9,1.57,1.57,0,0,0-1.54-.88c-1.24.19-2.22,2.11-2.23,4.37,0,4.07.69,7.46,2.11,9.8s3.68,3.6,5.88,3.14h0c4-.9,7.92-6.52,7.92-15.52V974.81C1654.13,972.65,1653.23,971,1652.07,971.11Z" style="fill:#f7a318"/><polygon points="1536.65 947.64 1481.61 949.08 1481.61 868.3 1536.65 857.68 1536.65 947.64" style="fill:#8b03c9"/><polygon points="1527.97 935.12 1488.79 937.11 1488.79 878.66 1527.97 871.86 1527.97 935.12" style="fill:#fff"/><path d="M1516.48,905.37c-.13-2.07-1.15-3.35-2.54-3.19l-3.93.47c-1.35.16-2.41,2-2.41,4.07s1.06,3.63,2.41,3.49l1.37-.14c-.51,8.82-2.74,9-3.61,9.13-1.06.09-1.92-.93-2.56-3a35.4,35.4,0,0,1-1.09-10c0-9.58,2.68-13.52,4.39-13.75a1.47,1.47,0,0,1,1.53.85,5.49,5.49,0,0,1,.59,1.85,3.29,3.29,0,0,0,1.45,2.73,2,2,0,0,0,2.51-.84,5.38,5.38,0,0,0,1-3.65c-.33-3.95-2.74-9.2-7-8.54l-.25,0c-2.33.47-4.58,2.8-6.19,6.4-1.78,4-2.71,9.27-2.71,15.39v0c0,12.67,3,20.2,8.09,20.15l.29,0c2.5-.17,4.61-1.88,6.07-5,1.79-3.56,2.68-9,2.64-16.08Z" style="fill:#8b03c9"/><polygon points="1609.58 947.64 1536.65 947.64 1536.65 857.68 1609.58 866.87 1609.58 947.64" style="fill:#a944d7"/><polygon points="1600.04 935.87 1548.13 934.93 1548.13 871.84 1600.04 877.44 1600.04 935.87" style="fill:#f2ecec"/><path d="M1586.52,922.92c2.85-2.64,5.25-6.06,5.25-10.88,0-5.34-2-21.08-15.83-22.26-16.28-1.4-18.79,13.42-18.79,19.43s4.07,12.5,6.32,13.94a22.24,22.24,0,0,0,11.83,3.63C1581.07,927,1583.64,925.58,1586.52,922.92Z" style="fill:#afafae"/><path d="M1590.62,903c4.71-4.13,2.9-18.06,2.9-18.06-11.22,1.71-11.55,6.29-11.55,6.29Z" style="fill:#afafae"/><path d="M1568.2,890.65s-.1-4.73-12-9.52c0,0-2.79,14.2,2.21,19.62Z" style="fill:#afafae"/><path d="M1565.71,891.41s-.24-1.67-3.14-3.4a15.07,15.07,0,0,0-4.68-2s-.68,8.28,1.41,13C1559.3,899,1562,893.77,1565.71,891.41Z" style="fill:#f6bec0"/><path d="M1589.86,901.08c2.11-4,1.88-12,1.88-12a11.19,11.19,0,0,0-4.36.85c-2.79,1-3.08,2.56-3.08,2.56C1587.6,895.56,1589.86,901.09,1589.86,901.08Z" style="fill:#f6bec0"/><path d="M1577.47,890s-.67,8.83-.78,10.13-.89,1.58-1.39,1.54-1.07-.59-1.24-1.85-.73-10-.73-10Z" style="fill:#868684"/><path d="M1582.77,891.79s-1,6.07-1.27,7.1-2.42,2.3-2.53-.58,0-7.88,0-7.88A10.34,10.34,0,0,1,1582.77,891.79Z" style="fill:#868684"/><path d="M1567.65,890.52s1,6.37,1.31,7.45,2.5,2.69,2.62-.2,0-8,0-8A9.71,9.71,0,0,0,1567.65,890.52Z" style="fill:#868684"/><g id="CONTORNO"><path d="M1568.2,890.65s-.1-4.73-12-9.52c0,0-2.79,14.2,2.21,19.62" style="fill:none"/><path d="M1590.62,903c4.71-4.13,2.9-18.06,2.9-18.06-11.22,1.71-11.55,6.29-11.55,6.29" style="fill:none"/><path d="M1586.52,922.92c2.85-2.64,5.25-6.06,5.25-10.88,0-5.34-2-21.08-15.83-22.26-16.28-1.4-18.79,13.42-18.79,19.43s4.07,12.5,6.32,13.94a22.24,22.24,0,0,0,11.83,3.63C1581.07,927,1583.64,925.58,1586.52,922.92Z" style="fill:none"/><path d="M1564.53,905.82a3.18,3.18,0,0,1,3.16-3.45,3.68,3.68,0,0,1,3.14,3.83,3.19,3.19,0,0,1-3.14,3.46A3.69,3.69,0,0,1,1564.53,905.82Z" style="fill:#1d1d1b"/><path d="M1568,904.77a.85.85,0,0,1,.84-.92,1,1,0,0,1,.84,1,.84.84,0,0,1-.84.92A1,1,0,0,1,1568,904.77Z" style="fill:#fff"/><path d="M1579,906.7c0-2,1.36-3.49,3-3.38a3.59,3.59,0,0,1,3,3.75c0,2-1.34,3.48-3,3.39A3.59,3.59,0,0,1,1579,906.7Z" style="fill:#1d1d1b"/><path d="M1582.29,905.67a.82.82,0,0,1,.8-.9,1,1,0,0,1,.81,1,.82.82,0,0,1-.81.9A1,1,0,0,1,1582.29,905.67Z" style="fill:#fff"/><line x1="1560.9" y1="909.96" x2="1550.43" y2="906.81" style="fill:none"/><line x1="1562.16" y1="913.48" x2="1552.39" y2="913.37" style="fill:none"/><line x1="1588.27" y1="911.46" x2="1597.64" y2="909.56" style="fill:none"/><line x1="1587.1" y1="914.72" x2="1595.93" y2="915.5" style="fill:none"/><path d="M1576.05,920.38s-1,1.58-2.43-.1" style="fill:none"/></g><path d="M1568.7,915.4s1,2.76,3.42,2.86a2.9,2.9,0,0,0,2.94-2.18v-2.76" style="fill:none"/><path d="M1581.3,916s-1,2.63-3.32,2.53a3.24,3.24,0,0,1-2.92-2.44v-2.76" style="fill:none"/><path d="M1575,913.63c.64,0,1.47-.36,1.47-1.71,0-.82-.63-1.17-1.35-1.21s-1.45.43-1.45,1S1574.39,913.6,1575,913.63Z" style="fill:#868684"/><path d="M1585.67,972.08c.13-1.46.11-2.77-.31-3.35a3,3,0,0,0-4.36-.1,6.59,6.59,0,0,0-.58,3.07A13.92,13.92,0,0,1,1585.67,972.08Z" style="fill:#f59c22"/><path d="M1603.59,975.67s-1.65.29-5.08,1.19-5.9,4.22-6.92,5.88-2.33,3.13-3.2,3.08-1.3-1.08-2.17-3a10.41,10.41,0,0,1-1.29-5.31c.08-1.08.55-3.4.74-5.44a13.92,13.92,0,0,0-5.25-.38c-.07,1.82,0,3.9,0,4.85,0,1.19-.87,1.27-1.85,1.2v-.06c-.19,0-.39,0-.6,0l-.6-.05v.06c-1,0-1.83-.16-1.83-1.34,0-1,.11-3.11,0-5a10.92,10.92,0,0,0-5,1.2c.2,1.72.53,3.47.6,4.36a9.81,9.81,0,0,1-1.25,5.1c-.82,1.78-1.24,2.76-2.06,2.72s-2.06-1.59-3-3.29-3.26-5.08-6.35-6.19-4.53-1.47-4.53-1.47-.66.62-.53,2.9.93,8.18,3.72,11.1,5,4,7.42,4.37,2.73,1.15,2.87,2a31.28,31.28,0,0,0,1.62,7.07c1,2.37,2.15,2.64,1.83,3.58a9.61,9.61,0,0,0-1,4.33c0,2.48,5,8.5,5.85,9.54A2.59,2.59,0,0,0,1578,1020a2.12,2.12,0,0,0,2.2-.85c.82-.9,6-6.09,6-8.63a9.27,9.27,0,0,0-.67-3.71c-1.83.2-3.68,1.06-4.86-.74-.72-.91.54-2.09,1.26-3.1.36-.4.18-1.27,0-1.71-1.08-1.35-2-2.9-1.26-4.55.72-1,2-1.8,3.06-1.3,1.45.73,2,2.27,3.82,1.74.49-.13.77.14.92.59.18-1,.29-1.85.35-2.19.15-.84.44-1.67,3.06-1.68s5-.9,8.11-3.65,4-9,4.2-11.39S1603.59,975.67,1603.59,975.67Z" style="fill:#ffca05"/><path d="M1587.55,997.14c-1.83.53-2.37-1-3.82-1.74-1.08-.5-2.34.28-3.06,1.3-.72,1.65.18,3.2,1.26,4.55.18.44.36,1.31,0,1.71-.72,1-2,2.19-1.26,3.1,1.18,1.8,3,.94,4.86.74-.12-.31-.23-.59-.32-.86-.33-1,.83-1.11,1.91-3.38a20.44,20.44,0,0,0,1.35-4.83C1588.32,997.28,1588,997,1587.55,997.14Z" style="fill:#f59c22"/><path d="M1575,968.46c-.86-1.14-3.28-1.46-4.25-.15-.5.67-.41,2.46-.18,4.3a10.92,10.92,0,0,1,5-1.2A6.47,6.47,0,0,0,1575,968.46Z" style="fill:#f59c22"/><path d="M1603.59,975.67s-1.65.29-5.08,1.19-5.9,4.22-6.92,5.88-2.33,3.13-3.2,3.08-1.3-1.08-2.17-3a10.41,10.41,0,0,1-1.29-5.31c.14-1.85,1.43-7.4.43-8.79a3,3,0,0,0-4.36-.1c-.87,1.1-.55,6.24-.55,7.92,0,1.19-.87,1.27-1.85,1.2v-.06c-.19,0-.39,0-.6,0l-.6-.05v.06c-1,0-1.83-.16-1.83-1.34,0-1.67.31-6.76-.54-7.9s-3.28-1.46-4.25-.15.28,6.82.42,8.66a9.81,9.81,0,0,1-1.25,5.1c-.82,1.78-1.24,2.76-2.06,2.72s-2.06-1.59-3-3.29-3.26-5.08-6.35-6.19-4.53-1.47-4.53-1.47-.66.62-.53,2.9.93,8.18,3.72,11.1,5,4,7.42,4.37,2.73,1.15,2.87,2a31.28,31.28,0,0,0,1.62,7.07c1,2.37,2.15,2.64,1.83,3.58a9.61,9.61,0,0,0-1,4.33c0,2.48,5,8.5,5.85,9.54A2.59,2.59,0,0,0,1578,1020a2.12,2.12,0,0,0,2.2-.85c.82-.9,6-6.09,6-8.63a10.78,10.78,0,0,0-1-4.57c-.33-1,.83-1.11,1.91-3.38a29.3,29.3,0,0,0,1.7-7c.15-.84.44-1.67,3.06-1.68s5-.9,8.11-3.65,4-9,4.2-11.39S1603.59,975.67,1603.59,975.67Z" style="fill:none"/><path d="M1569.15,989.77c0-1.88,1.07-3.34,2.38-3.27s2.4,1.66,2.4,3.55-1.08,3.36-2.4,3.28S1569.15,991.65,1569.15,989.77Z"/><path d="M1571.46,988.28a.82.82,0,0,1,.78-.9.94.94,0,0,1,.79,1,.81.81,0,0,1-.79.89A.93.93,0,0,1,1571.46,988.28Z" style="fill:#fff"/><path d="M1580.06,990.4c0-1.91,1.1-3.4,2.45-3.33s2.46,1.69,2.46,3.61-1.1,3.4-2.46,3.32S1580.06,992.3,1580.06,990.4Z"/><path d="M1582.44,988.88a.82.82,0,0,1,.8-.9.94.94,0,0,1,.81,1,.83.83,0,0,1-.81.91A1,1,0,0,1,1582.44,988.88Z" style="fill:#fff"/><path d="M1574.08,1008.52c-.31,1.24-.93,2.08-1.37,1.89s-.56-1.36-.24-2.6.92-2.08,1.37-1.89S1574.4,1007.28,1574.08,1008.52Z"/><path d="M1581.86,1009.15c.32,1.3,1,2.26,1.41,2.14s.57-1.28.25-2.59-1-2.26-1.41-2.14S1581.54,1007.84,1581.86,1009.15Z"/><path d="M1561.39,981.39a11.59,11.59,0,0,1,3.92,7.84,1.1,1.1,0,0,1-.14.66.66.66,0,0,1-.35.22c-2.12.72-4.51-.5-6.11-2.45-1.21-1.46-4.65-7.28-3.87-9.4C1555.83,975.58,1560.3,980.36,1561.39,981.39Z" style="fill:#f7a318"/><path d="M1594.86,983a10.57,10.57,0,0,0-4.23,7.71,1.22,1.22,0,0,0,.15.71.86.86,0,0,0,.37.26c2.29,1,4.89,0,6.65-1.82,1.34-1.4,5.21-7.2,4.32-9.52C1601,977.35,1596.05,982,1594.86,983Z" style="fill:#f7a318"/><polygon points="1519.74 1031.84 1456.02 1023.51 1456.02 948.19 1519.74 948.19 1519.74 1031.84" style="fill:#0060c1"/><polygon points="1509.74 1018.7 1464.38 1013.63 1464.38 959.16 1509.74 960.01 1509.74 1018.7" style="fill:#fff"/><path d="M1494.6,968.59c-1.6-.05-2.85,1.44-2.85,3.39v23.34a5.33,5.33,0,0,1-1.12,3.68,4.47,4.47,0,0,1-3.87,1.41h0a4.88,4.88,0,0,1-3.43-1.9,6.22,6.22,0,0,1-1.06-3.86,4.28,4.28,0,0,0-.86-2.64,2.67,2.67,0,0,0-1.9-1.1c-1.5-.1-2.68,1.3-2.69,3.2a14.45,14.45,0,0,0,2.54,8.82,10.67,10.67,0,0,0,7.4,4.44h0c5.28.45,10.72-3.4,10.72-11.63V972.2C1497.48,970.23,1496.21,968.64,1494.6,968.59Z" style="fill:#0060c1"/><path d="M1740,651.13c.3,1.16-3-.1-.91,3.56,3,5.16,10.39,10,13.54,10.23,0,0,4.79,2.65,6.46,3.5l3.26,1.63,1,.05-.19.38c.66.37,1.38.84,2.14,1.36,3.68-2,6.55-5.5,8.76-9.61l-.79-.45-3-2.49-2.87-1.18-5.86-5.85c-3.38-6.21-13.85-8.52-16.22-7-.63.4-1.76,1.73-2.25,1.81-.55-.2-3.4,2.94-3.09,4.09" style="fill:#783d15"/><path d="M1744.71,653.62a17.61,17.61,0,0,1-7.77-6.85c-1.35-2.28-2-5.43-.16-5.94s4.37,5.51,5.08,6.25a17.56,17.56,0,0,0,5.82,3.68c3,1.14-3,2.86-3,2.86" style="fill:#783d15"/><path d="M1744.81,658.1a.76.76,0,0,1-.59,0,17.69,17.69,0,0,1-7.49-6.72c-1.34-2.28-2-5.43-.16-5.94s4.38,5.51,5.09,6.25a17.44,17.44,0,0,0,5.82,3.68c2.54,1-1.51,2.4-2.67,2.76" style="fill:#783d15"/><path d="M1747.11,651.34s-4.91-2.32-5.82-4.81-3-7.57-.25-7.95c1.92-.27,2.32,4.25,2.94,5.07a25.59,25.59,0,0,0,6.41,5.2c2.79,1.48-3.28,2.49-3.28,2.49" style="fill:#783d15"/><path d="M1752.29,650.9s-6-3.19-7-5.67-1.57-6.59.33-6.9,2.54,3,3.17,3.84,3.9,4.76,6.71,6.21-3.26,2.52-3.26,2.52" style="fill:#783d15"/><path d="M1844.48,662.55c.26.18-6.94-2.54-21,4.42-10.06,5-21.12.49-22.93.09a108.93,108.93,0,0,0-24.74-8.75c-.12,0-8.81-5.34-8.81-5.34a1.82,1.82,0,0,0-2.45,1c-4.31,9.25-4.43,15.64-4.43,19.23a2.14,2.14,0,0,0,1.55,2.16s7.27,1.78,7.47,1.94L1785,688.19a62.26,62.26,0,0,0,14.9,6.26c13.25,5.31,26.46-3.31,33.36-6.91,6.57-3.43,17.5-21.66,11.2-25" style="fill:#dc8b20"/><path d="M1752.14,647.41l-9.4,4c-2.91,1.23-7.39-1-7.79-4.12l-4.85-38c-.4-3.13,3.5-5.44,6.62-5l10.1,1.47a4.76,4.76,0,0,1,4,4.11l4.16,32.51A4.77,4.77,0,0,1,1752.14,647.41Z" style="fill:#ffead6"/><path d="M1752,645.51l-7,3.44c-2.15,1.06-4.66-.73-5-3.6l-4.46-34.79c-.36-2.87,1.61-5.23,4-4.74l7.64,1.56a4.31,4.31,0,0,1,3.12,3.83l3.81,29.8A4.33,4.33,0,0,1,1752,645.51Z" style="fill:#fff7ef"/><rect x="1739.16" y="626.22" width="12.64" height="1.25" rx="0.39" transform="translate(-65.45 226.62) rotate(-7.29)" style="fill:#313131"/><circle cx="1746.05" cy="626.7" r="1.63" style="fill:#ecb927"/><path d="M1758.27,643.65a9.2,9.2,0,0,0-1.1-2.48,3.28,3.28,0,0,0-2.21-1.46,2.37,2.37,0,0,0-1.52,1.43,6.32,6.32,0,0,0-.39,2.12,19.35,19.35,0,0,1-.6,5,21.74,21.74,0,0,0-.92,2.68,4.6,4.6,0,0,0,2.63,4.91,8.13,8.13,0,0,0,2.63.51c1,.07,2,.11,2.93.11s3-.06,3.42-1.23-1.21-2.51-1.7-3.39A44.83,44.83,0,0,1,1758.27,643.65Z" style="fill:#783d15"/><path d="M1740.93,612a2.84,2.84,0,0,0,1.18-1.1,1.66,1.66,0,0,0-.08-1.57s-1,.33-1.13,1A7.12,7.12,0,0,0,1740.93,612Z" style="fill:#009146"/><path d="M1740.69,611.87a5.54,5.54,0,0,0-1.78-.59,2.45,2.45,0,0,0-2,1,1.65,1.65,0,0,0,1.92.8,3.4,3.4,0,0,0,2.11-1.09l-.22-.1" style="fill:#009146"/><circle cx="1743.58" cy="616.06" r="4.57" style="fill:#fd7e05"/><circle cx="1746.56" cy="617.8" r="0.17" style="fill:#ec5c00"/><circle cx="1746.69" cy="618.87" r="0.17" style="fill:#ec5c00"/><circle cx="1741.36" cy="614.24" r="0.28" style="fill:#f5b319"/><circle cx="1739.72" cy="614.84" r="0.17" style="fill:#f5b319"/><circle cx="1740.1" cy="615.7" r="0.17" style="fill:#f5b319"/><circle cx="1740.36" cy="614.86" r="0.17" style="fill:#f5b319"/><circle cx="1739.38" cy="616.05" r="0.17" style="fill:#f5b319"/><circle cx="1740.4" cy="613.86" r="0.14" style="fill:#f5b319"/><circle cx="1740.09" cy="617.01" r="0.28" style="fill:#f5b319"/><circle cx="1740.08" cy="617.98" r="0.2" style="fill:#f5b319"/><circle cx="1741.72" cy="613.48" r="0.2" style="fill:#f5b319"/><circle cx="1742.49" cy="612.5" r="0.14" style="fill:#f5b319"/><circle cx="1743.08" cy="612.03" r="0.11" style="fill:#f5b319"/><circle cx="1745.76" cy="619.57" r="0.2" style="fill:#ec5c00"/><circle cx="1745.26" cy="619.77" r="0.17" style="fill:#ec5c00"/><circle cx="1745.85" cy="618.67" r="0.14" style="fill:#ec5c00"/><circle cx="1747.23" cy="618.07" r="0.14" style="fill:#ec5c00"/><circle cx="1747.65" cy="617.24" r="0.14" style="fill:#ec5c00"/><circle cx="1747.73" cy="616.51" r="0.14" style="fill:#ec5c00"/><circle cx="1747" cy="616.93" r="0.14" style="fill:#ec5c00"/><circle cx="1747.13" cy="616.23" r="0.14" style="fill:#ec5c00"/><circle cx="1747.73" cy="615.62" r="0.2" style="fill:#ec5c00"/><ellipse cx="1741.36" cy="612.67" rx="0.62" ry="0.31" transform="translate(-85.69 876.48) rotate(-27.6)" style="fill:#009146"/><path d="M1741.53,612.5a7.17,7.17,0,0,0-.89-1c-.36-.28-.41-.07-.41-.07s.08.08.46.4a4.1,4.1,0,0,1,.67.8Z" style="fill:#009146"/><path d="M1741.23,612.14a4.77,4.77,0,0,1,1.08-.47,4.58,4.58,0,1,1-1.25.58" style="fill:none"/><path d="M1742,609.36s-1,.33-1.13,1a6.82,6.82,0,0,0,0,1.43l-.26-.24c-.36-.28-.41-.07-.41-.07s.08.08.46.4a5.54,5.54,0,0,0-1.78-.59,2.45,2.45,0,0,0-2,1,1.65,1.65,0,0,0,1.92.8,3.58,3.58,0,0,0,2.06-1c.12.13.24.27.33.39-.29.16-.45.39-.37.54s.38.15.69,0,.48-.41.4-.56-.28-.14-.52-.06l-.32-.38a2.57,2.57,0,0,0,1-1A1.66,1.66,0,0,0,1742,609.36Z" style="fill:none"/><path d="M1773.83,705.32a17.06,17.06,0,0,1,1.63-4.55,16.27,16.27,0,0,1,4.09-4.51,35,35,0,0,1,36.63-4c9.41,4.64,16.12,13.25,24.08,20.09,2.6,2.23,5.35,4.29,7.73,6.76-1.52,2.06-4.3,2.66-6.83,3.06a259.75,259.75,0,0,1-55.29,2.91c-3.33-.18-11.33,0-13-3.24C1770.81,718,1772.88,709.28,1773.83,705.32Z" style="fill:#072a4f"/><path d="M1776.53,731.7c-4.21-1.42-18.47-7.66-28.31-1.68-4,2.44-3.69,10.57-2.47,15.12,3.52,13,24.58,11.71,29.19,12.31,1.27.16,2.53.37,3.78.6l-.73-25.9C1777.5,732,1777,731.86,1776.53,731.7Z" style="fill:#926322"/><path d="M1788.83,735.15l-.66,0c-3.35-1.12-6.8-1.92-10.18-3l.73,25.9c2.34.43,4.66.94,7,1.45Z" style="fill:#796322"/><path d="M1806,738c-2.85-1.09-13.24-2.61-17.18-2.89l-3.15,24.35a74.5,74.5,0,0,0,15.35,2.23C1815.8,761.89,1816.79,742.1,1806,738Z" style="fill:#9f6322"/><path d="M1846.82,706.8a.71.71,0,0,0,1,.28.68.68,0,0,0,.29-1,.7.7,0,0,0-1-.3.72.72,0,0,0-.3,1" style="fill:#ea9767"/><line x1="1858.81" y1="716.91" x2="1872.32" y2="710.92" style="fill:#ea9767"/><path d="M1861.32,687.37l-7.43,12.78c-.87,5.38-13.4,9.35-18.09,13.53-23.87-8.88-46.46-18.06-60.77-12.74-1.5.55-5.29,4.2-5.83,5.24-4.53,8.65-8.67,18.23,8.6,25.06,11.07,4.37,46.91,22.28,64,23.09s45.09-1.78,48.29-18.66c1.27-6.69,3.17-14.4.85-19.25C1875.24,683.5,1861.32,687.37,1861.32,687.37Z" style="fill:#1f3e5f"/><path d="M1843.84,656.81c-.13.46-2,.61-2.17,1.08-.35,1.33-2.2,2.44-3.32,1.5l-1.12-40.23c-.18-.17-18.69,4.49-25.47,16-1.23,2.09,3,10.36,2.52,13.17-6,12.53-3.46,24.46,1,33.81a180.61,180.61,0,0,0,12.54,21.16c1,2.18-1.61,7.88-1.13,10,10.41,10.47,30.37,10,45.26,6.84-2.93-6.13-5-11.78-9.31-19.4C1855.52,688.26,1852,672.94,1843.84,656.81Z" style="fill:#f6a320"/><path d="M1817.26,636.83c1.55-2.47-9-18.1-8.67-21,.15-1.18,21.77-28.8,22.64-28,1.72,1.66,8.29,27.4,10.5,28.32,4.85,2,8,5.71,11.5,5.79-5.64,5.51-7,17.53-17.52,21.23-10.3,3.64-21-2.19-18.45-6.37" style="fill:#783d15"/><path d="M1891.84,715.55c-.33-2.24.58-4.17-1.61-4.17,4.49-4.33,3.32-7.83,1.12-13.31-2.89-6.36-4.09-22.82-5.57-29.63-.15-.25-.29-.49-.43-.75l-6-10.68c.08-24.75-23.17-35.89-27.14-37.36-2.42-3.71-4.07-9.39-8.67-6.62.45,1.09-10.77,8.58-18,17.63-2.62,3.28-1.72,12.68-3.42,15.5-2,3.38.55,3.39.66,6.72.6,16.61,25.71,31.61,27.64,40.5,2.4,10.79,5.43,18.47,8.3,27.92C1872.39,721.79,1883.39,724.6,1891.84,715.55Z" style="fill:#f6af20"/><line x1="1846.02" y1="614.45" x2="1849.84" y2="621.22" style="fill:none;stroke:#ff712a;stroke-linecap:round;stroke-linejoin:round;stroke-width:0.9046161651432px"/><line x1="1844.22" y1="616.26" x2="1848.12" y2="622.64" style="fill:none;stroke:#ff712a;stroke-linecap:round;stroke-linejoin:round;stroke-width:0.9046161651432px"/><path d="M1852.35,620.57s-14.1,14.6-20.7,19.44l-6.6,4.83" style="fill:none;stroke:#ff712a;stroke-linecap:round;stroke-linejoin:round;stroke-width:0.9046161651432px"/><path d="M1843,617.72s3.28,4.82,3.78,6.06" style="fill:none;stroke:#ff712a;stroke-linecap:round;stroke-linejoin:round;stroke-width:0.9046161651432px"/><path d="M1841.16,618.82s3.44,5.24,4.15,6.4" style="fill:none;stroke:#ff712a;stroke-linecap:round;stroke-linejoin:round;stroke-width:0.9046161651432px"/><path d="M1839.86,620.07s3.56,5.55,3.94,6.48" style="fill:none;stroke:#ff712a;stroke-linecap:round;stroke-linejoin:round;stroke-width:0.9046161651432px"/><path d="M1838.1,621.38s3.07,5.51,3.84,7.12" style="fill:none;stroke:#ff712a;stroke-linecap:round;stroke-linejoin:round;stroke-width:0.9046161651432px"/><line x1="1836.67" y1="622.92" x2="1840.87" y2="630.02" style="fill:none;stroke:#ff712a;stroke-linecap:round;stroke-linejoin:round;stroke-width:0.9046161651432px"/><line x1="1834.83" y1="624.63" x2="1838.92" y2="631.17" style="fill:none;stroke:#ff712a;stroke-linecap:round;stroke-linejoin:round;stroke-width:0.9046161651432px"/><line x1="1833.37" y1="626.06" x2="1837.06" y2="632.52" style="fill:none;stroke:#ff712a;stroke-linecap:round;stroke-linejoin:round;stroke-width:0.9046161651432px"/><path d="M1831.77,627.79l3.57,6.15" style="fill:none;stroke:#ff712a;stroke-linecap:round;stroke-linejoin:round;stroke-width:0.9046161651432px"/><line x1="1830.7" y1="629.31" x2="1834.21" y2="635.6" style="fill:none;stroke:#ff712a;stroke-linecap:round;stroke-linejoin:round;stroke-width:0.9046161651432px"/><line x1="1829.42" y1="630.91" x2="1832.14" y2="637.04" style="fill:none;stroke:#ff712a;stroke-linecap:round;stroke-linejoin:round;stroke-width:0.9046161651432px"/><path d="M1828.28,632.57s2.49,5.26,2.55,5.72" style="fill:none;stroke:#ff712a;stroke-linecap:round;stroke-linejoin:round;stroke-width:0.9046161651432px"/><line x1="1827.09" y1="634.38" x2="1829.32" y2="639.62" style="fill:none;stroke:#ff712a;stroke-linecap:round;stroke-linejoin:round;stroke-width:0.9046161651432px"/><line x1="1825.91" y1="636.54" x2="1827.54" y2="639.98" style="fill:none;stroke:#ff712a;stroke-linecap:round;stroke-linejoin:round;stroke-width:0.9046161651432px"/><line x1="1825.13" y1="638.18" x2="1825.49" y2="640.57" style="fill:none;stroke:#ff712a;stroke-linecap:round;stroke-linejoin:round;stroke-width:0.9046161651432px"/><path d="M1814.36,644.33s.18,2.22,6.27,2.41" style="fill:none;stroke:#ff712a;stroke-linecap:round;stroke-linejoin:round;stroke-width:0.9046161651432px"/><path d="M1820.28,645.56a13.58,13.58,0,0,1-4.87-5.5" style="fill:none;stroke:#ff712a;stroke-linecap:round;stroke-linejoin:round;stroke-width:0.9046161651432px"/><path d="M1816.77,644.93a82.42,82.42,0,0,1-4.6-6.94" style="fill:none;stroke:#ff712a;stroke-linecap:round;stroke-linejoin:round;stroke-width:0.9046161651432px"/><path d="M1824.48,647.22s-8.17,14.9-4,27.81,2.94,11.45,2.94,11.45c-1.33-3.34-2.65-6.69-3.25-8.32-1.41-3.87-4.58-15.95-3-23s2.66-7.28,2.66-7.28" style="fill:none;stroke:#ff712a;stroke-linecap:round;stroke-linejoin:round;stroke-width:0.9046161651432px"/><path d="M1822.79,648s-4.59,9.92-4.25,16.08l.34,6.17s-2.5-8-.3-15.59,2.5-6.67,2.5-6.67Z" style="fill:#ff712a"/><path d="M1823,647.3s-.14,1.38-1.14,1.78-1.36-.3-1.36-.3-.14-2.41,1.61-2.62.89,1.14.89,1.14" style="fill:#53575a"/><path d="M1820.26,649.79a11,11,0,0,1,1.36.07c.58.08-.85,4.07-1.23,4.69s-1.81.11-1.81.11-.35-.12,0-1.4a15.61,15.61,0,0,1,1.73-3.47m-1.09,4,.91,0a12.7,12.7,0,0,0,.39-1.55c.1-.62-.68-.27-.68-.27a6.78,6.78,0,0,0-.62,1.85" style="fill:#53575a"/><path d="M1821.89,648.08l-1,2.72h-.68a14.19,14.19,0,0,1,.85-2.81c.35-.47.81.09.81.09" style="fill:#53575a"/><path d="M1762.67,622.52c-10.82-5-17.72-15.91-21-28.15-2.23-8.48-1.33-23.24-.09-31.24s-1.22-12.58-1.05-15.72c.92-17.95,10-38.37,15.42-44.72,17.47-20.62,94.32-13.08,103.5,4.37,6.54,12.44,1.65,25.55,3.3,39.08.13,1.05-6.5,20.13-6.58,20.83-.17,1.52,2.89,13.32,2.63,14.82-3.06,8.33-28.52,21.39-32.12,21.09-5.46,9.79-19.83,21.92-36,24.32A45.5,45.5,0,0,1,1762.67,622.52Z" style="fill:#9a5622"/><path d="M1772.49,559.68c7.61-3.35,18.91-4.06,19.37,9.35a11.76,11.76,0,0,1-14,7.17c-4-.86-7.21-3-8.4-5.93C1767.76,566.09,1768.37,561.5,1772.49,559.68Z" style="fill:#fffcf2"/><path d="M1787.88,566.64a9.46,9.46,0,0,0,.19-5.74.29.29,0,0,0-.09-.15c-7.79-7.87-18.36-.42-18.72,2.45-.7,5.64,3,10.42,8.71,10.56.26,0,.52,0,.77,0A10.41,10.41,0,0,0,1787.88,566.64Z" style="fill:#7b6555"/><path d="M1778.85,570.77a6.06,6.06,0,1,1,4.51-5.35A6.06,6.06,0,0,1,1778.85,570.77Z" style="fill:#3f1010"/><path d="M1772.22,563.05a2.59,2.59,0,1,1,2.82,1.13A2.6,2.6,0,0,1,1772.22,563.05Z" style="fill:#fffcf2"/><path d="M1791.86,569c.28-6.85-13.87-18.53-23.25-4.13C1772.28,547.7,1796.5,558.29,1791.86,569Z" style="fill:#333"/><path d="M1753.92,564.17c-.88-10.1-8.53-10.35-14.66-8-1.87,4.64-1.16,9.68,1.09,12.68.4.64.77,1.28,1.13,1.93l.83.17A10,10,0,0,0,1753.92,564.17Z" style="fill:#fffcf2"/><path d="M1743,568.77a8.86,8.86,0,0,0,7.44-6.45,8,8,0,0,0-.09-4.89.42.42,0,0,0-.08-.12,9.63,9.63,0,0,0-10.75-1.71c-2.1,4.68-1.5,9.86.71,13a8.09,8.09,0,0,0,2.11.22C1742.54,568.81,1742.76,568.79,1743,568.77Z" style="fill:#7b6555"/><path d="M1742.94,566.24a5.16,5.16,0,0,0-3.14-9.84,4.41,4.41,0,0,0-.74.3,14.35,14.35,0,0,0-.23,9.11A5.19,5.19,0,0,0,1742.94,566.24Z" style="fill:#3f1010"/><path d="M1739.44,560.46a2.18,2.18,0,0,0-.21-4.24,14.54,14.54,0,0,0-1,4.25A2.1,2.1,0,0,0,1739.44,560.46Z" style="fill:#fffcf2"/><path d="M1740.44,553.82a14.51,14.51,0,0,0-1.27,2.56c6.89-3.54,14.69,3.2,14.75,7.79C1756.29,557.79,1747.19,552.07,1740.44,553.82Z" style="fill:#333"/><path d="M1780.77,585.47c-.4,6.64,4,12.55,9.86,13.35s11-3.85,11.55-10.43-3.84-12.84-9.85-13.66-11.17,4-11.56,10.74" style="opacity:0.58;fill:url(#Degradado_sin_nombre_9)"/><path d="M1769,541.34a2.07,2.07,0,0,0,2.06,1.89c10.12,0,18.33,2.11,21.41,5.56.35.4,1.1.84,1.23.61.4-.73.73-1.5.3-2-2.44-3.17-10.46-8.16-22.89-8.28a2.09,2.09,0,0,0-2.11,2.27" style="fill:#4d4e23"/><path d="M1747.9,539.43a37.52,37.52,0,0,0-7.76.4,4.33,4.33,0,0,0,.2,3.22,53.25,53.25,0,0,1,7.38,0,1.78,1.78,0,0,0,1.88-1.52A1.81,1.81,0,0,0,1747.9,539.43Z" style="fill:#4d4e23"/><path d="M1747.76,603.08c13.08,6.95,21.75-2.6,21.75-2.6" style="fill:none;stroke:#783d15;stroke-linecap:round;stroke-linejoin:round;stroke-width:3.25123022857311px"/><path d="M1839,574.62c0-1.43-.33-3-1.51-3.85s-2.6-.51-3.9-.19c-2.6.63-5.44,1.73-6.48,4.19a6.4,6.4,0,0,0-.42,2.81c.18,3.23,3.51,13.58,6.52,12.37,4.26-1.72,5.88-11.53,5.79-15.33" style="fill:#783d15"/><path d="M1857.79,480.72s-19,31.82-86,48.17c0,0,14.29-11.55,14.81-20.46,0,0-12,15-41.49,12.35-15.54-1.42-19.22-15.76-19.22-15.76s19.73-15.55,31.47-25.78c8.17-7.12,70.48-32.42,100.39,1.48" style="fill:#4d4e23"/><path d="M1828.22,566.64l-5.14,8.57-9,2.59s-.2-22.15-7.19-38.49-1.17-29,6.5-42.55,44.36-16,44.36-16a42.76,42.76,0,0,1,13.37,13.73c10,17.3,14,40.72,10.83,56.85s-17.38,37.36-48.06,49.68c0,0,8.5-6.79,10.45-15.68s1.24-18.66-4.51-21.61-10.65,1.85-10.65,1.85h0Z" style="fill:#4d4e23"/><path d="M1781.12,519.5s5.29-6,5.52-11.07c0,0-30.41,5.06-41.69-1.87-8.14-5-12.27-7.26-12.27-7.26s10.18-9.38,24.72-20.06,50.63-19.81,71.69-14.17,17.54,7.07,17.54,7.07,16,21.92-65.51,47.36" style="fill:#525329"/><path d="M1792.17,496.86s-8,4-26.21-.79a56.61,56.61,0,0,1-11-4.49s2.66-7.61,16.84-5.92,14.35,4.54,14.35,4.54l-19.56.75s17.91,7.15,25.55,5.91" style="fill:#4d4e23"/><path d="M1856.93,486.13s1.45,13.58-30.08,24.84c-12.52,4.48-7.34,16.23-4.79,26.68s7.16,27.89,7.16,27.89l8.79-2.61s4.63-20.85-5.12-36.09c0,0,18.1,5.54,16.06,24.69l-.51,4.78s9.46-3.35,7.78,10.66,3.09,19.58,3.09,19.58,24.52-29.3,20-54.84-8.21-35.19-15.58-41.54-6.84-4-6.84-4" style="fill:#525329"/><path d="M1752.52,656.58a49.29,49.29,0,0,0-9.4-2.47,2.15,2.15,0,0,1,1.69-1.47,6.68,6.68,0,0,0,2.21-.77c1.3-1,1.65-2.8,4.65-3.65,1.38-.39.58,2.42.42,3.62A9.9,9.9,0,0,0,1752.52,656.58Z" style="fill:#6a2c00"/><path d="M1742,644l-1-8.58-.42,1.39c-.14.33-.31.4-.51.33a.44.44,0,0,1-.22-.59l1-3.17a.47.47,0,0,1,.31-.32c.21-.06.41.11.44.38l0,.2a2.59,2.59,0,0,1,1.37-1.17c.86-.25,1.65.33,1.8,1.7l.26,2.29c0,.46.16.7.29.67s.28-.3.46-.66a18.8,18.8,0,0,0,.66-1.87c.09-.32.35-.41.51-.35a.48.48,0,0,1,.23.61,20.48,20.48,0,0,1-.79,2.15,2.07,2.07,0,0,1-1.06,1.16c-.46.13-.81-.22-1-.94a3.53,3.53,0,0,1-.1-.55l-.26-2.28c-.08-.77-.41-1.07-.85-.94a2.77,2.77,0,0,0-1.38,1.58l.43,3.84c.17,1.47.35,3.2.53,4.89a.59.59,0,0,1-.33.62C1742.19,644.43,1742,644.26,1742,644Z" style="fill:#313131"/><path d="M1746.45,634.53a3.36,3.36,0,0,1,1.94-3.58l.32-.06c.25,0,.39.18.42.4a1,1,0,0,1,.28-.13,1.35,1.35,0,0,1,1.41.59,3,3,0,0,1,.54,1.53,1.34,1.34,0,0,1,0,.28,1,1,0,0,0,.46-.56.47.47,0,0,1,.3-.35.34.34,0,0,1,.2,0,.43.43,0,0,1,.25.36.54.54,0,0,1,0,.25,2,2,0,0,1-1.29,1.32,3.09,3.09,0,0,1-2,2.45l-.14,0C1747.82,637.46,1746.65,636.36,1746.45,634.53Zm4,.16c-1.4,0-1.79-1.56-1.82-1.92a2.27,2.27,0,0,1,.08-.84l-.24,0a1.28,1.28,0,0,0-.6.39,2.63,2.63,0,0,0-.59,2c.14,1.22,1,2,1.87,1.75A1.87,1.87,0,0,0,1750.41,634.69Zm.18-1.19a1.93,1.93,0,0,0-.33-1,.77.77,0,0,0-.76-.38c-.14,0-.19.19-.15.49l0,.19a1.21,1.21,0,0,0,1.23,1Z" style="fill:#313131"/><path d="M1854.9,633c-2.08-1.51-13,1.86-15.77,8.48a116.36,116.36,0,0,1-14.61,25c-9.18,12.06-19.82,19.39-22.34,20.59,2.5,9.16,7.47,16.69,16.84,21.09,15.68-6.51,29.63-27.71,37.3-34.61C1871.93,659.59,1863.91,639.58,1854.9,633Z" style="fill:#ffbd20"/><path d="M1763.2,628.76c1.4.19-1-5.07,3.59-3.1,6.51,2.77,13.33,10.81,14,14.5,0,0,3.81,5.26,5.06,7.11l2.38,3.61.2,1.15.42-.29c.54.73,1.18,1.51,1.91,2.33-1.88,4.63-5.54,8.51-10.07,11.71l-.64-.87-3.37-3.14-1.8-3.21-4.41-9.54c-2.19-.87-10.47-4.54-12.18-5.85-4.38-3.36-2.76-6.63-1.75-8.79.38-.8,1.79-2.33,1.81-2.91-.31-.61.63-4.79,2-4.59Z" style="fill:#783d15"/><path d="M1760,639.65a21,21,0,0,1-6.4-10.51c-.72-3.06-.37-6.86,1.92-6.79s3,7.8,3.56,8.89a20.84,20.84,0,0,0,5.3,6.22c2.94,2.34-4.38,2.19-4.38,2.19" style="fill:#783d15"/><path d="M1758.93,643.41a.91.91,0,0,1-.65-.24,21,21,0,0,1-6.12-10.26c-.72-3.07-.38-6.87,1.91-6.8s3,7.8,3.56,8.89a21,21,0,0,0,5.3,6.23c2.54,2-2.55,2.18-4,2.18" style="fill:#783d15"/><path d="M1761.46,633.91s-5.13-3.91-5.57-7-1.64-9.54,1.69-9.3c2.28.17,1.63,5.51,2.15,6.61a30.5,30.5,0,0,0,6.16,7.64c2.88,2.41-4.43,2.07-4.43,2.07" style="fill:#783d15"/><path d="M1764.8,629.7s-4.35-7.41-4.61-10.55.26-6.41,2.54-6.15,1.91,4.28,2.37,5.42,2.9,6.71,5.63,9.28-4.54,1.81-4.54,1.81" style="fill:#783d15"/><path d="M1779.46,640.88a12.49,12.49,0,0,0,1.93-4.85c.19-2-.61-4-.45-6a16.6,16.6,0,0,1,1.47-4.64,7.71,7.71,0,0,0,.65-4.75c-.41-1.58-2-2.93-3.61-2.52-1.94.51-2.42,3-3,4.9-.94,3.16-3,5.82-4.61,8.71s-2.62,6.44-1.29,9.45a4.64,4.64,0,0,0,2,2.26c1.78,1,4,.2,5.83-.56" style="fill:#783d15"/><path d="M1816.81,678.28l-.16-.11c-9.82-11.74-23.43-25.71-24.82-26.79-.1-.08-5.89-8.22-5.89-8.22a2,2,0,0,0-2.58-.34c-7.56,5-10.36,9.73-11.9,12.47a2,2,0,0,0,.4,2.42s5.58,5.14,5.69,5.37c0,0,10.2,18.39,10.24,18.45,4.87,8.09,12.88,16.08,12.88,16.08,1.71,2.07,4.49,7.1,6.45,8.71,1.34.85,10.54,2.56,11.9,1.91C1828.8,703.53,1832.92,693.63,1816.81,678.28Z" style="fill:#ffbd20"/><line x1="1785.32" y1="644.79" x2="1789.69" y2="651.19" style="fill:none;stroke:#ff712a;stroke-linecap:round;stroke-linejoin:round;stroke-width:0.9046161651432px"/><line x1="1788.37" y1="652.48" x2="1783.75" y2="646.05" style="fill:none;stroke:#ff712a;stroke-linecap:round;stroke-linejoin:round;stroke-width:0.9046161651432px"/><line x1="1787.36" y1="654.01" x2="1781.76" y2="647.81" style="fill:none;stroke:#ff712a;stroke-linecap:round;stroke-linejoin:round;stroke-width:0.9046161651432px"/><line x1="1785.93" y1="655.34" x2="1779.81" y2="649.32" style="fill:none;stroke:#ff712a;stroke-linecap:round;stroke-linejoin:round;stroke-width:0.9046161651432px"/><line x1="1784.58" y1="657.23" x2="1777.72" y2="651.82" style="fill:none;stroke:#ff712a;stroke-linecap:round;stroke-linejoin:round;stroke-width:0.9046161651432px"/><line x1="1782.6" y1="658.99" x2="1776.15" y2="653.08" style="fill:none;stroke:#ff712a;stroke-linecap:round;stroke-linejoin:round;stroke-width:0.9046161651432px"/><line x1="1780.99" y1="660.5" x2="1774.59" y2="655.05" style="fill:none;stroke:#ff712a;stroke-linecap:round;stroke-linejoin:round;stroke-width:0.9046161651432px"/><line x1="1779.49" y1="661.13" x2="1773.34" y2="656.2" style="fill:none;stroke:#ff712a;stroke-linecap:round;stroke-linejoin:round;stroke-width:0.9046161651432px"/><line x1="1822.59" y1="557.45" x2="1784.45" y2="557.7" style="fill:none;stroke:#ff712a;stroke-linecap:round;stroke-linejoin:round;stroke-width:3.28874449090719px"/><ellipse cx="1770.52" cy="565.46" rx="11.85" ry="21.68" style="fill:none;stroke:#ff712a;stroke-linecap:round;stroke-linejoin:round;stroke-width:4.13326598472047px"/><ellipse cx="1744.2" cy="560.17" rx="8.29" ry="18.42" style="fill:none;stroke:#ff712a;stroke-linecap:round;stroke-linejoin:round;stroke-width:3.18527716145242px"/><path d="M1752.49,556.25s3.54-5.32,7.38,1.77" style="fill:none;stroke:#ff712a;stroke-linecap:round;stroke-linejoin:round;stroke-width:3.28874449090719px"/><path d="M1748.54,586a1.86,1.86,0,0,1-1.5-1.42c-.93-3.93-1.16-6.65,1.35-6.75,2-.08,6.94,3.05,10.3,6.46a1.86,1.86,0,0,1-1.64,3.14Z" style="fill:#783d15"/><circle cx="1746.34" cy="626.19" r="0.68" style="fill:#f6dc93"/></svg>