<svg id="Fondo" xmlns="http://www.w3.org/2000/svg" xmlns:xlink="http://www.w3.org/1999/xlink" viewBox="0 0 1920 1080"><defs><radialGradient id="Degradado_sin_nombre_15" cx="145.22" cy="708.86" r="10.08" gradientUnits="userSpaceOnUse"><stop offset="0" stop-color="#9b2923"/><stop offset="1" stop-color="#9b5722"/></radialGradient><radialGradient id="Degradado_sin_nombre_15-2" cx="-3060.02" cy="708.86" r="10.08" gradientTransform="matrix(-1, 0, 0, 1, -2848.87, 0)" xlink:href="#Degradado_sin_nombre_15"/><radialGradient id="Degradado_sin_nombre_17" cx="10356.58" cy="-3997.39" r="14.19" gradientTransform="matrix(0.77, 1.28, -1.34, 0.86, -11503.86, -9328.29)" gradientUnits="userSpaceOnUse"><stop offset="0" stop-color="#ee8a94"/><stop offset="1" stop-color="#ffd2cb"/></radialGradient><radialGradient id="Degradado_sin_nombre_17-2" cx="4986.24" cy="1415.84" r="13.6" gradientTransform="matrix(-0.85, 0.86, 0.76, 1.09, 4916.69, -5400.27)" xlink:href="#Degradado_sin_nombre_17"/></defs><rect x="-0.26" y="-0.47" width="1920.06" height="1080.26" style="fill:#af2a7e"/><path d="M1863.22,868.18c8.67,2.52,20.84-5.76,26.77,1,12.1,13.84,1.19,48.4-14,58.78s-34.64,11.43-53,12.25-37.87,2.15-52.79,12.9c-15.68,11.31-23.06,30.7-35.59,45.42-24.59,28.87-65.38,36.51-102.85,42.36l-87.19,13.62c-19.61,3.06-39.79,6.11-59.14,1.69s-37.92-18.14-42-37.56c-7.09-33.71,29.36-59.81,40.38-92.45,2.79-8.27,3.91-17,6.34-25.4,18.6-64.4,84.7-66.77,139.07-66.5A854.73,854.73,0,0,1,1863.22,868.18Z" style="fill:#a91a74"/><path d="M255,1005.16c5,9.53,6.33,22-.14,30.55-6.63,8.8-18.83,10.73-29.77,12-39.72,4.52-80,9-119.5,2.72-9.51-1.53-20.45-5-23.55-14.09-1.8-5.29-.31-11.19,2.27-16.14,12.68-24.26,58-40.35,83.14-47.24C196.76,964.87,240.2,976.89,255,1005.16Z" style="fill:#a91a74"/><path d="M1102,977.29c80,.57,161,1.48,238.32,21.91,13,3.42,26.41,7.79,35.43,17.69s11.45,27,1.7,36.19c-6,5.6-14.63,6.93-22.74,7.89-45.58,5.42-91.56,7.39-137.46,7.39l-760-6.35c-9.74-.08,20-59.3,23.9-63.63,14.69-16.24,27.65-21.4,48.49-22.6,61.56-3.56,124.5,0,186.19.09Q908.92,976,1102,977.29Z" style="fill:#a91a74"/><path d="M33.37,692.94l-3.09-2.47s.25-2.3,3.95-2.78c6.15-.8,13,4.43,13,4.43L36.65,684s-.77-2,3.59-1.92c7.9.16,14.76,6,17.15,7.44s10.54,5,10.54,5-1.18-4.68-2.33-9-1.76-9.82-.13-10.15,3,1.23,5.19,5.63,7.67,14,11.26,17.63,7.51,14.59,7.51,14.59l28.87,47.45-1.65,4s-20.54-15.78-22-15.91S67.32,706,67.32,706Z" style="fill:#793e16"/><path d="M58,701.07s-11.79-7.84-18.23-8S30.62,695,30.62,695l5.83,3.09-2.55,2.06-1.29,2.17S51.14,708.84,53,711.4s10.62,9,21.27,9.84c0,0,9.59,32.9,14.06,40s10.84,17.46,15.38,20,7.84,4.77,15.82,9.43,18.58,7.32,18.58,7.32l6.64-30.44-29.23-9s-28.05-44-28.74-45-3-9.73-10-12.12S58,701.07,58,701.07Z" style="fill:#9b5722"/><path d="M125.58,758.49s-16.58,21.3-13.25,36.64l3.71,1a122.13,122.13,0,0,1,15.67-37.07Z" style="fill:#702f74"/><path d="M136.55,759.55c-6.07,14.54-9.94,27.43-11.88,39l8.31,2.27c2.05-11.85,6-25.2,11.07-40.51Z" style="fill:#e00119"/><path d="M131.71,759.08A122.13,122.13,0,0,0,116,796.15l8.63,2.36c1.94-11.53,5.81-24.42,11.88-39Z" style="fill:#ffb705"/><path d="M326.3,692.94l3.09-2.47s-.25-2.3-3.95-2.78c-6.16-.8-13,4.43-13,4.43L323,684s.77-2-3.59-1.92c-7.91.16-14.76,6-17.15,7.44s-10.54,5-10.54,5,1.18-4.68,2.33-9,1.76-9.82.13-10.15-3,1.23-5.19,5.63-7.67,14-11.27,17.63-7.51,14.59-7.51,14.59l-28.86,47.45,1.65,4s20.54-15.78,22-15.91S292.35,706,292.35,706Z" style="fill:#793e16"/><path d="M301.63,701.07s11.79-7.84,18.23-8,9.19,1.93,9.19,1.93l-5.83,3.09,2.54,2.06,1.3,2.17s-18.53,6.51-20.38,9.07-10.62,9-21.27,9.84c0,0-9.59,32.9-14.06,40s-10.84,17.46-15.38,20-7.84,4.77-15.82,9.43-18.58,7.32-18.58,7.32l-6.64-30.44,29.23-9s28-44,28.74-45,3-9.73,10-12.12S301.63,701.07,301.63,701.07Z" style="fill:#9b5722"/><path d="M234.09,758.49s16.58,21.3,13.25,36.64l-3.71,1A122.13,122.13,0,0,0,228,759.08Z" style="fill:#702f74"/><path d="M223.12,759.55c6.07,14.54,9.94,27.43,11.87,39l-8.3,2.27c-2.05-11.85-6-25.2-11.08-40.51Z" style="fill:#e00119"/><path d="M228,759.08a122.13,122.13,0,0,1,15.67,37.07L235,798.51c-1.93-11.53-5.8-24.42-11.87-39Z" style="fill:#ffb705"/><path d="M217.68,1021.41c-6.44-2.57-11.19-8.09-16.73-12.42a12.83,12.83,0,0,1-.15-4.42c.38-2.38,3.52-4.27,3.52-4.27s31.38,5.78,35.52,7.66c3.61,1.64,6.45,7.57,7.13,9.9C239.82,1024.86,227.16,1025.36,217.68,1021.41Z" style="fill:#e00119"/><path d="M217.68,1021.41c9.48,3.95,22.14,3.45,29.29-3.55a3.68,3.68,0,0,1,.15.77c0,1.26.5,3.89-7.28,6.65s-17.32,1-21.22-.25-8.28-6.78-10.66-9.16-6.78-4.52-6.91-6c0-.28-.06-.56-.1-.85C206.49,1013.32,211.24,1018.84,217.68,1021.41Z" style="fill:#ad0119"/><path d="M203.25,939c4.31-7.91,12.84-12.65,21.73-13.08V926c3.45,11.47,1.33,42.1,1.33,42.1.22,14.67.52,23,.52,23,1.09,1.07,2,3.61,3.37,4.92,5.42,5.25,13,10,14.64,13.17-1.6,1.77-2.63,4.36-4.26,5.44-10.81,9.83-26.52,3.93-32.41-5.89a48.89,48.89,0,0,1-4.89-12.8c1.36-10.23-2.09-23.4-2.09-23.4-1-3.41-1.87-6.68-2.56-9.78C198.27,954.33,199.17,946.14,203.25,939Z" style="fill:#9b5722"/><path d="M219.31,856.44c0,.38,0,.76,0,1.14l.11,7.35c10.28,30.56,5.75,59.86,5.57,61-8.89.43-17.42,5.17-21.73,13.08-4.08,7.13-5,15.32-4.63,23.75-4-17.75-3-29.88-3-29.88-8.23-12.65-10.17-45.5-10.17-45.5s3.39-3.18,1.75-3l-2.21.72-7-.12-2.48-27.1C187.37,857.66,207.47,857.29,219.31,856.44Z" style="fill:#793e16"/><path d="M240.57,1014.63c1.63-1.08,2.66-3.67,4.26-5.44a6.87,6.87,0,0,1,.85,3.33c-.22,5.13-10.88,7.29-10.88,7.29.23,3.06-14.31,5-22.18-4.17-6.16-5.77-7.74-4.95-9.38-7.18-3.59-4.92-.33-10.42-.33-10.42q.22-1,.36-2.1a48.89,48.89,0,0,0,4.89,12.8c4.72,7.88,15.07,13.23,24.82,10,.53-.18,0-1.22.55-1.45C236.15,1018.36,238.89,1016.16,240.57,1014.63Z" style="fill:#793e16"/><path d="M203.44,991.3s1.55,6,10.35,4.7c8.64-1.27,10.8-1.91,13-4.62a1,1,0,0,1,1.45-.14l1,.88a1,1,0,0,1,.23,1.22c-.8,1.51-3.45,4.87-11.51,5.75-7.14.78-9.72,1.39-14.19-2.24,0,0-1-1.39-1.35-1.7S201.66,990.4,203.44,991.3Z" style="fill:#e00119"/><path d="M220.61,995.14l9.82,11.73,4.37-1.49-10.45-11.62S221,993.54,220.61,995.14Z" style="fill:#e00119"/><path d="M243.44,1006.55c-.32.59-4.48-1.92-9.28-.42s-10.45,2-12.8,6.18-3.2,5.66-2.45,9.28c0,0-2.78-.42-3.74-1.49s-.42-7.36,4-10.45,8.11-4.8,12.48-5.34a41.59,41.59,0,0,1,8.84-.41C241.7,1004.1,243.76,1006,243.44,1006.55Z" style="fill:#e00119"/><path d="M235.19,1000.47a38.73,38.73,0,0,0-6.21.63c-3.42.54-9,1.8-12.3,4.38s-6.22,6.52-10.65,6.46l-2.21-1.11s5.22-3.07,7.07-5.1,6.93-5.39,14.2-6.76c6.74-1.27,6.49-1,7.76-.53C233.57,998.73,236.17,1000.41,235.19,1000.47Z" style="fill:#e00119"/><path d="M141.25,1021.41c6.43-2.57,11.19-8.09,16.73-12.42a12.83,12.83,0,0,0,.15-4.42c-.38-2.38-3.52-4.27-3.52-4.27s-31.38,5.78-35.52,7.66c-3.61,1.64-6.46,7.57-7.13,9.9C119.1,1024.86,131.77,1025.36,141.25,1021.41Z" style="fill:#e00119"/><path d="M141.25,1021.41c-9.48,3.95-22.15,3.45-29.29-3.55a3.12,3.12,0,0,0-.15.77c0,1.26-.5,3.89,7.28,6.65s17.32,1,21.21-.25,8.29-6.78,10.67-9.16,6.78-4.52,6.9-6c0-.28.07-.56.11-.85C152.44,1013.32,147.68,1018.84,141.25,1021.41Z" style="fill:#ad0119"/><path d="M155.68,939c-4.32-7.91-12.85-12.65-21.74-13.08V926c-3.44,11.47-1.32,42.1-1.32,42.1-.22,14.67-.52,23-.52,23-1.1,1.07-2,3.61-3.37,4.92-5.42,5.25-13,10-14.64,13.17,1.6,1.77,2.63,4.36,4.26,5.44,10.8,9.83,26.52,3.93,32.41-5.89a48.51,48.51,0,0,0,4.88-12.8c-1.36-10.23,2.1-23.4,2.1-23.4,1-3.41,1.87-6.68,2.56-9.78C160.66,954.33,159.76,946.14,155.68,939Z" style="fill:#9b5722"/><path d="M139.62,856.44c0,.38,0,.76,0,1.14l-.11,7.35c-10.29,30.56-5.76,59.86-5.58,61,8.89.43,17.42,5.17,21.74,13.08,4.08,7.13,5,15.32,4.63,23.75,4-17.75,3-29.88,3-29.88,8.22-12.65,10.17-45.5,10.17-45.5s-3.39-3.18-1.75-3l2.21.72,7-.12,2.48-27.1C171.55,857.66,151.46,857.29,139.62,856.44Z" style="fill:#793e16"/><path d="M118.36,1014.63c-1.63-1.08-2.66-3.67-4.26-5.44a6.77,6.77,0,0,0-.85,3.33c.22,5.13,10.88,7.29,10.88,7.29-.24,3.06,14.31,5,22.18-4.17,6.16-5.77,7.74-4.95,9.37-7.18,3.6-4.92.33-10.42.33-10.42q-.21-1-.36-2.1a48.51,48.51,0,0,1-4.88,12.8c-4.72,7.88-15.07,13.23-24.83,10-.53-.18,0-1.22-.54-1.45C122.77,1018.36,120,1016.16,118.36,1014.63Z" style="fill:#793e16"/><path d="M201,759.67a9.29,9.29,0,0,1-5-6.71c-.14-.77-9.11-1.17-16.1-1.17s-16,.4-16.1,1.17a8.88,8.88,0,0,1-2.65,5A66.26,66.26,0,0,0,201,759.67Z" style="fill:#793e16"/><path d="M220,846.62c1.74-6.64.84-13.84-.35-22.15A183,183,0,0,1,202,764.19a6.91,6.91,0,0,1,.07-3.92A12.17,12.17,0,0,1,198.5,758a62.51,62.51,0,0,1-18.67,3.86A62.51,62.51,0,0,1,161.17,758a12.17,12.17,0,0,1-3.59,2.32,6.91,6.91,0,0,1,.07,3.92A183,183,0,0,1,140,824.47c-1,7.21-1.85,13.58-.91,19.48C164.51,853.17,193.05,852.29,220,846.62Z" style="fill:#9b5722"/><path d="M139.11,844a26.88,26.88,0,0,0,.8,3.53c-.92,2-.22,4.91-.14,8.3l.16,7,38.36.6v.05l1.54,0,1.55,0v-.05l38.36-.6.16-7c.07-3.39.78-6.25-.14-8.3.09-.29.16-.57.24-.86C193.05,852.29,164.51,853.17,139.11,844Z" style="fill:#793e16"/><path d="M153.29,803.5a1.63,1.63,0,0,0,1.69,1.6,1.61,1.61,0,0,0,1.59-1.66,1.64,1.64,0,1,0-3.28.06Z" style="fill:#e85387"/><path d="M154.28,803.48a.66.66,0,0,0,.67.65.69.69,0,0,0,.66-.68.68.68,0,0,0-.7-.64A.66.66,0,0,0,154.28,803.48Z" style="fill:#de2970"/><path d="M179,849.28a.77.77,0,0,0,1.54,0,.76.76,0,0,0-.78-.76A.79.79,0,0,0,179,849.28Z" style="fill:#eb9868"/><path d="M226.69,800.78c-2.05-11.85-6-25.2-11.08-40.51l-3.6.34-4.38.43-.23,0a2.54,2.54,0,0,0-.69.39l-6.37-2.35s-.42,2.11-3,11.35l-.37,1.34c-2.91,10.4-17.15,12.08-17.15,12.08s-14.23-1.68-17.14-12.08l-.21-.76c-2.71-9.73-3.15-11.93-3.15-11.93L153,761.45a2.54,2.54,0,0,0-.69-.39l-.23,0-4.38-.43-3.61-.34c-5.12,15.31-9,28.66-11.07,40.51l2.26.62,6.87,1.89-.28,1s0,.89-.11,2.1c0,.31-.26,2.08-.65,4.89-.32,2.35-.75,5.43-1.26,9-.46,3.15-1,6.67-1.53,10.41,25,10.83,56.94,9.65,83.08-.2-.53-3.55-1-6.91-1.45-9.92-.49-3.36-.9-6.28-1.22-8.6-.44-3.21-.71-5.24-.74-5.58-.11-1.21-.11-2.1-.11-2.1l-.28-1,6.87-1.89Z" style="fill:#ffb705"/><path d="M138.28,830.72c-.54,3.67-1.13,7.55-1.74,11.47,27.1,9.32,60.2,9.65,86.45-1-.57-3.67-1.12-7.28-1.63-10.72C195.22,840.37,163.28,841.55,138.28,830.72Z" style="fill:#e00119"/><path d="M136.54,842.19c-.5,3.2-1,6.43-1.53,9.6,0,.15,0,.3-.07.45a58,58,0,0,0,11.22,3.19c25.3,4,55,6.62,78.49-3.75-.57-3.45-1.13-7-1.66-10.44C196.74,851.84,163.64,851.51,136.54,842.19Z" style="fill:#ffb705"/><path d="M225.2,855.4c-.17-1.23-.35-2.44-.54-3.61,0,0,0-.07,0-.11-23.45,10.37-53.19,7.7-78.49,3.75a58,58,0,0,1-11.22-3.19c-.16,1-.3,2-.44,3C162.91,865.37,197.26,866.81,225.2,855.4Z" style="fill:#702f74"/><path d="M199.92,758.14l-1.08.1c-.57,20.19-14.05,24.31-19,24.31s-18.44-4.12-19-24.31l-1.09-.1-2,1.27s2,26.13,22.05,26.13,22.06-26.13,22.06-26.13Z" style="fill:#702f74"/><path d="M181.66,868.5s-32-1.12-41.73-5.68c0,0-.76-1.61-1.85.25s-1.24,7-1.24,7-8.68,27.76-10.08,41.71a1.9,1.9,0,0,0,.78,2.33c1.39,1.08,7.9,5.74,24.65,5.58s18.92-.31,18.92-.31,1.71-.31,2-2.79,5.74-24.32,6.2-23.7,12.25-18.79,12.25-18.79Z" style="fill:#e00119"/><path d="M177.31,868.5s32-1.12,41.73-5.68c0,0,.76-1.61,1.85.25s1.24,7,1.24,7,8.69,27.76,10.08,41.71a1.9,1.9,0,0,1-.77,2.33c-1.4,1.08-7.91,5.74-24.66,5.58s-18.92-.31-18.92-.31-1.71-.31-2-2.79-5.73-24.32-6.2-23.7-12.25-18.79-12.25-18.79Z" style="fill:#e00119"/><path d="M155.48,991.3s-1.54,6-10.34,4.7c-8.64-1.27-10.81-1.91-13-4.62a1,1,0,0,0-1.45-.14l-1,.88a1,1,0,0,0-.24,1.22c.8,1.51,3.46,4.87,11.52,5.75,7.14.78,9.72,1.39,14.18-2.24,0,0,1-1.39,1.35-1.7S157.26,990.4,155.48,991.3Z" style="fill:#e00119"/><path d="M138.31,995.14l-9.81,11.73-4.37-1.49,10.45-11.62S137.89,993.54,138.31,995.14Z" style="fill:#e00119"/><path d="M115.49,1006.55c.32.59,4.48-1.92,9.28-.42s10.45,2,12.8,6.18,3.2,5.66,2.45,9.28c0,0,2.77-.42,3.73-1.49s.43-7.36-3.94-10.45-8.11-4.8-12.48-5.34a41.68,41.68,0,0,0-8.85-.41C117.23,1004.1,115.17,1006,115.49,1006.55Z" style="fill:#e00119"/><path d="M123.74,1000.47a38.68,38.68,0,0,1,6.2.63c3.42.54,9,1.8,12.31,4.38s6.22,6.52,10.64,6.46l2.22-1.11s-5.23-3.07-7.07-5.1-6.93-5.39-14.2-6.76c-6.74-1.27-6.5-1-7.76-.53C125.36,998.73,122.76,1000.41,123.74,1000.47Z" style="fill:#e00119"/><path d="M113.9,700.71c.47,4.34,4.57,11.79,9.6,11.79s5.9-2.23,5.91-1.2c.08,9.15,12.55,34,38.76,43.29a4.82,4.82,0,0,1-1.8,2.18,8.69,8.69,0,0,1-5.85,2.06c-2.11-.19-4.18-1.82-4.3-3.94A4.51,4.51,0,1,1,147.4,753c-1.55,1.47-3.27,3-5.4,3.27s-4.58-1.57-4.09-3.65c-1.71,2.11-4,4.05-6.7,4.18s-5.55-2.47-4.76-5.06a6,6,0,0,1-10.71-3.35,3.89,3.89,0,0,1-4.69-5.78,7.15,7.15,0,1,1-1.79-14.15A5.77,5.77,0,0,1,113,717.68c-2.65-3.37-5.38-8.08-2.91-11.59-2.12-1.74-4.38-3.73-4.81-6.43s2.27-5.87,4.76-4.72c-3.37-3.51-2.25-10.18,2.08-12.39,1.79-.91,18-13.17,19.46-11.78,2.41,2.29.4,18.23-.67,20.33C129.27,694.29,113.51,697.14,113.9,700.71Z" style="fill:#412d21"/><path d="M230.21,709.27c-.87,16.59-13.8,35.28-34.93,43.32,1.24,2.91,5,3.48,8.2,3.31,1.52-.08,5.33-2.13,4.37-3.31.55,2.48,1.24,3.53,3.75,4s5.22-2.59,3.72-4.65c1.56,2.35,3.77,4.58,6.58,4.85s5.84-2.5,4.86-5.14c.86,3.05,3.81,5.73,6.93,5.19s4.75-5.35,2.09-7.07l7.62,1.15a5.34,5.34,0,0,0,.28-3.71c.65,2.73,5,2.89,6.63.57s.74-5.59-1-7.77c2.48-.17,5.18-.53,6.93-2.3s1.69-5.39-.65-6.25a3.3,3.3,0,1,0,.42-6.53,3.79,3.79,0,1,0-3.7-6.58c2.33-1.2,4.31-3.54,4.17-6.15s-3.19-4.91-5.49-3.65c1.79-2,3.68-4.19,4-6.86s-2-5.73-4.59-5.17c1.23-3.48,3.59-11.47,0-12.07,5.41-14-17.27-17.18-20.64-15.68-.32.15-6,19.48-.22,22.1C238.83,695.14,244.35,711,230.21,709.27Z" style="fill:#412d21"/><path d="M237.76,688.43a17.55,17.55,0,0,0-6.79,1.11c-1-9.52.17-32.87-10.66-43.88-16.67-16.95-80.55-10-87.47,5.88-5.31,12.22-4.24,27.67-5.09,40.18a17.82,17.82,0,0,0-6.75-.79c-6.93.51-7.71,5.72-7.53,13.74s6.92,19.25,15.31,13.2a8.2,8.2,0,0,0,.33,1.9c9.62,23.5,27.11,35.41,49.06,35.41,25.31,0,43-15.23,52.63-37.57.25-.57.11.26,4.38-.8s10.58-7,10.4-15S244.69,688.63,237.76,688.43Z" style="fill:#9b5722"/><path d="M197.69,719.45c1.12-3.15.39-4.76-1.3-6.45a5.9,5.9,0,0,0-3.52-1.15c-1.4,2-5,5.69-12.43,5.48-10-.3-12.45-2.49-13.76-5-3.28.3-5.55.58-5.55.58-6.35,1.19-3.27,9.1.56,12.57.32.29.68.58,1.06.88,3.43-2.57,7.8-5.32,11.08-5.51,5.38-.31,13,.52,18.69,5.54A18.45,18.45,0,0,0,197.69,719.45Z" style="fill:#b5191d"/><path d="M180.44,717.33c7.43.21,11-3.45,12.43-5.48-2.66-.27-6.62-.14-11.68-.21a142.57,142.57,0,0,0-14.51.71C168,714.84,170.43,717,180.44,717.33Z" style="fill:#f4f4f2"/><path d="M173.83,720.87c-3.28.19-7.65,2.94-11.08,5.51,4.33,3.4,12.58,7.3,20.68,5a23.55,23.55,0,0,0,9.09-5C186.81,721.39,179.21,720.56,173.83,720.87Z" style="fill:#e1414a"/><path d="M184.66,703.34c-1.7-3.93-4-6.33-6.39-6.25s-4.55,2.61-6.05,6.62Z" style="fill:#793e16"/><path d="M135.73,709.28c.62,5.82,5.33,10.3,10.5,10.16s9-4.94,8.5-10.74-5.2-10.58-10.53-10.42S135.1,703.42,135.73,709.28Z" style="opacity:0.58;fill:url(#Degradado_sin_nombre_15)"/><path d="M220.64,709.28c-.62,5.82-5.32,10.3-10.5,10.16s-9-4.94-8.5-10.74,5.2-10.58,10.53-10.42S221.27,703.42,220.64,709.28Z" style="opacity:0.58;fill:url(#Degradado_sin_nombre_15-2)"/><path d="M162.13,666.2a1.83,1.83,0,0,1-1.68,1.79c-7.71.54-14,2-17.18,4.49-.48.38-3,1.12-2.69.61,1.94-2.93,7.23-7.31,18.14-8.23,1.08-.09,3.43.25,3.41,1.34Z" style="fill:#412d21"/><path d="M194.41,666.2a1.82,1.82,0,0,0,1.68,1.79c7.7.54,14,2,17.17,4.49.49.38,3,1.12,2.69.61-1.93-2.93-7.23-7.31-18.13-8.23-1.09-.09-3.43.25-3.41,1.34Z" style="fill:#412d21"/><path d="M125.92,699.4a19.12,19.12,0,0,0,.44,10.12s-5.39,0-6.29-3.82S121.42,699.4,125.92,699.4Z" style="fill:#793e16"/><path d="M231.87,697.82V709.3a13.66,13.66,0,0,0,8.1-7.2c2.48-5.63-1.8-6.75-1.8-6.75S232.77,698.5,231.87,697.82Z" style="fill:#793e16"/><path d="M189.37,612.4a6.72,6.72,0,0,1,9.93-.13,6.07,6.07,0,1,1,11.85-2.59c1.21-2.58,3.36-5,6.19-5.36s5.93,2.41,5,5.12A6.11,6.11,0,0,1,232.82,614c2.72-1.93,6.67-2.26,9.36-.29s3.45,6.34,1.17,8.77a4.37,4.37,0,0,1,4.41,7.34c3.38-.61,6.45,3.13,6,6.53s-3.63,6-7,6.77c3.66,1.49,4.72,6.75,2.58,10.08s-6.49,4.71-10.42,4.25-7.5-2.48-10.77-4.72a72.12,72.12,0,0,1-10.53-8.81c-2.67-2.71-5.18-5.68-8.44-7.65-1.83-1.1-3.84-1.85-5.75-2.79C198.11,630.81,183.51,619.73,189.37,612.4Z" style="fill:#2a170e"/><path d="M149.1,655.53c5.16,3.53,13.79.75,14.66-5.6a13.72,13.72,0,0,0,11,10.48,13.57,13.57,0,0,0,13.38-6.8c4,6,13.43,6.69,18.25,1.32A10,10,0,0,0,218.8,660a6.84,6.84,0,0,0,.56,7.42,5.67,5.67,0,0,0,6.75,1.5c.5,3.26,1.1,6.74,3.24,9.05s6.38,2.57,8-.3c.71-1.3.74-2.92,1.4-4.25,2.34-4.73,9.75-2.18,13.09-6.09,2.87-3.38.62-8.89-2.5-11.87,3,.33,6-2.71,6-6s-3.17-6.12-6.18-5.54a5.53,5.53,0,0,0,1.28-7.13,4.48,4.48,0,0,0-6.59-.9c-.32-3-1-6.17-3-8.35s-5.51-2.91-7.59-.82c0-3.26-.1-6.71-1.71-9.46s-5.35-4.36-7.75-2.38c.21-3.55-1-7.4-3.73-9.41s-7.11-1.47-8.73,1.65c-1.76-7-10.78-10.61-16.37-6.49-2.54-6.64-11.49-9.45-16.95-5.27-6.63-3.74-15.93-.47-19,6.72-6.31-1.06-12.5,5.8-11,12.31-3-2.23-17.26-3.33-16.48,8.86-9.6-1.82-9.23,2.19-11.38,5.16s-2.4,7.87.66,9.86a9,9,0,0,0-8.51,5.74,9.16,9.16,0,0,0,2.64,10c-3.53-.1-7.36,1.86-8.46,5.29s1.85,7.74,5.34,7.08c-3.64.32-7.61,2.18-8.74,5.72s2.73,7.94,6,6.12c-3.32,3.45-1.24,10.24,3.37,11s9.06-4.78,7.32-9.12c1.62,2.93,6.52,2.33,8.27-.58s2.81-5.66.59-8.14c2.69,1.28,4.25-1.2,5.6-3.93a6.13,6.13,0,0,0-2.36-7.83,6.68,6.68,0,0,0,6.83-4,6.79,6.79,0,0,0-1.82-7.59c2.38,2.51,5.05-.09,6.63-2.15C144.28,649.69,145.88,653.33,149.1,655.53Z" style="fill:#453226"/><path d="M159.28,639.81c3.22,4.36,7.28,3.39,10.41-.38.05,3.87.53,7.65,4.75,9s7.11-1.14,9.84-4.09c4,5.13,8.58,4.55,13.53.93,3.15,3.58,6.47,2.71,10.34.72-.5,1.8-.67,3.4,1.15,4.49s3.74.46,5.49-.5c1,2.18,1.56,4.29,3.71,5.7s4.59,1.18,6-1.13c.63-1,.16-2.38.73-3.43,2-3.73,6.71-3.14,9-6.65,1.93-3-.73-6.38-3-8.47,2.36-.65,4.12-2.25,3.7-4.86s-2.49-3.46-4.89-3.25c1-1.36,1.94-3.09.56-4.55s-3.17-.62-4.51.42c-.49-1.52-.38-3.21-1.88-4.22s-3.32.19-4.49,1.25c.06-1.83.79-3.54-.09-5.33s-2.86-1.42-4.27-.4c.16-2.13.77-4.37-1.21-5.87s-4-.07-5.35,1.66c-1.59-4.9-4.55-6.58-9.38-4.48-2-4.9-5-7.32-10.25-5.44-4.94-2.86-8.61-1.7-11.87,2.86-5-.58-9.42.64-11.65,5.31-3.41-2.78-7.21-2.87-10.9-1.19s-3.15,6-3.55,10c-3.75-.91-10.05-.11-13.19,2.12a9.58,9.58,0,0,0-4.39,8.81c-3.31-.51-6.88.13-9.17,2.65s-2.28,5.54.69,7.15c-2.73-.2-5.83-.58-7.62,2s-.35,5.32,2.52,6c-2.68,2.34-3.65,6.44-.15,8.53s6.49-.9,7.23-4.33c1.21,2.54,3.67,3.09,6,1.54a6.46,6.46,0,0,0,3.17-6c2.46,1,4-.1,5.83-1.89s3-4.06,1.95-6.68a8.37,8.37,0,0,0,7.33-1.1c2.19-1.57,2.61-3.57,2.7-6.07,1.15,2.41,3.28,1.64,5.32.79C158.55,634.25,157.27,637.08,159.28,639.81Z" style="fill:#4e3b30"/><path d="M205.32,676.19a11.49,11.49,0,0,0-9.58-.74c-3,.94-5.49,2.65-6.49,8.76,0,0,.41,9.21,10.83,9.21,9.46,0,10.53-8.55,10.61-10.24C210.82,680.5,207.47,677.49,205.32,676.19Z" style="fill:#fffcf3"/><path d="M191.48,682.9a8.57,8.57,0,0,1,.49-5.19.2.2,0,0,1,.1-.12c6.57-4.34,11.88-2.78,15.67-1.1a.3.3,0,0,1,.13.12,11.11,11.11,0,0,1,1.17,5,8.73,8.73,0,0,1-9.45,8.86c-.23,0-.47-.06-.7-.1A9.47,9.47,0,0,1,191.48,682.9Z" style="fill:#7b6657"/><path d="M198.19,687a5.51,5.51,0,1,0-3.45-5.35A5.51,5.51,0,0,0,198.19,687Z" style="fill:#3d1313"/><path d="M198.17,680.94a2.36,2.36,0,1,0-2.68.69A2.37,2.37,0,0,0,198.17,680.94Z" style="fill:#fffcf3"/><path d="M189.25,684.21c.54-6.21,14.66-15.1,21.44-1C209.38,667.24,186.31,674,189.25,684.21Z" style="fill:#343434"/><path d="M161.47,678.83c-6-3.59-15.29-5.39-17.1,5.7,0,0,1.75,9.73,10.89,9,3.46-.29,6.32-1.68,7.62-4C164.71,686.18,164.7,680.78,161.47,678.83Z" style="fill:#fffcf3"/><path d="M146.42,683.33a8,8,0,0,1,.45-4.79.21.21,0,0,1,.1-.11c6.06-4,10.95-2.55,14.44-1a.32.32,0,0,1,.12.11,10.29,10.29,0,0,1,1.07,4.6,8,8,0,0,1-8.7,8.17c-.22,0-.43,0-.65-.09A8.75,8.75,0,0,1,146.42,683.33Z" style="fill:#7b6657"/><path d="M152.61,687.06a5.08,5.08,0,1,0-3.18-4.94A5.09,5.09,0,0,0,152.61,687.06Z" style="fill:#3d1313"/><path d="M152.59,681.48a2.17,2.17,0,1,0-2.47.64A2.2,2.2,0,0,0,152.59,681.48Z" style="fill:#fffcf3"/><path d="M144.37,684.53c.5-5.72,13.51-13.91,19.76-.94C162.92,668.9,141.66,675.12,144.37,684.53Z" style="fill:#343434"/><rect x="38.99" y="598.37" width="35.39" height="64.19" rx="2.46" transform="translate(-575.32 594.83) rotate(-81.64)" style="fill:#ffead6"/><rect x="40.23" y="600.62" width="32.9" height="59.68" rx="4.38" transform="translate(-575.32 594.83) rotate(-81.64)" style="fill:#fff7ef"/><rect x="43.11" y="629.78" width="27.14" height="1.38" rx="0.69" transform="translate(-575.32 594.83) rotate(-81.64)" style="fill:#313131"/><path d="M55.6,632.51a2.81,2.81,0,0,1-1.18-.48,2.72,2.72,0,0,0,1.86,1.16,2.76,2.76,0,0,0,2-5,2.76,2.76,0,0,1-2.67,4.3Z" style="fill:#d89f0f"/><path d="M54,630.06a2.74,2.74,0,0,0,.46,2,2.81,2.81,0,0,0,1.18.48,2.76,2.76,0,0,0,2.67-4.3,2.67,2.67,0,0,0-1.18-.47A2.76,2.76,0,0,0,54,630.06Z" style="fill:#fdda16"/><circle cx="56.19" cy="629.88" r="1.31" style="fill:#fef0a0"/><path d="M44,628.7s-4.71-3.94-8.11-4.44-5.37.26-5.7,2.53,2.76,3.3,4.91,3.61S44,628.7,44,628.7Z" style="fill:#cb0a0a"/><path d="M43.42,627.23s-5.36,3-7,6-1.68,5.1.32,6.22,4.07-1.39,5.14-3.29S43.42,627.23,43.42,627.23Z" style="fill:#cb0a0a"/><path d="M41.82,627.28s.89,6.07,3.09,8.71,4.17,3.39,5.93,1.92.15-4.3-1.25-6S41.82,627.28,41.82,627.28Z" style="fill:#cb0a0a"/><path d="M43.06,629.69s-4.27-4.41-5-7.76-.14-5.37,2.1-5.87,3.5,2.51,4,4.63S43.06,629.69,43.06,629.69Z" style="fill:#cb0a0a"/><path d="M41.54,629.18s2.6-5.56,5.47-7.45,5-2.05,6.23-.14-1.1,4.16-2.92,5.36S41.54,629.18,41.54,629.18Z" style="fill:#cb0a0a"/><circle cx="42.15" cy="628.23" r="2.67" style="fill:#fdda16"/><path d="M75.46,642.06a4,4,0,0,1-1.59,2.74,1,1,0,0,1-.67.18.86.86,0,0,1-.54-.33.83.83,0,0,1-.21-.68.76.76,0,0,1,.37-.59,2.44,2.44,0,0,0,1-1.72,3.29,3.29,0,0,0-.12-1.5,2.28,2.28,0,0,0-.8-1.16,2.74,2.74,0,0,0-1.3-.45l-.61-.07a3.86,3.86,0,0,0-2.19.59,6.73,6.73,0,0,0-2,1.79q1.86,1.15,3.63,2.51a.79.79,0,0,1,.15,1.21.81.81,0,0,1-.56.36.79.79,0,0,1-.63-.19c-.82-.61-1.69-1.21-2.61-1.81s-1.64-1-2.15-1.3l-.77-.43a.83.83,0,0,1-.38-.36.89.89,0,0,1-.08-.54.71.71,0,0,1,.1-.32.72.72,0,0,1,.81-.44,1.53,1.53,0,0,1,.34.11l.46.23.19.11a19.1,19.1,0,0,1,2-1.81,7.65,7.65,0,0,1,2-1.13,4.25,4.25,0,0,1,2.14-.27,4.31,4.31,0,0,1,.77.17,9.35,9.35,0,0,0-1.42-1.54.87.87,0,0,1-.34-.63.75.75,0,0,1,.16-.59.81.81,0,0,1,.61-.35.72.72,0,0,1,.6.19A10.93,10.93,0,0,1,75,638.67,6.82,6.82,0,0,1,75.46,642.06Z" style="fill:#313131"/><path d="M76.91,632a4,4,0,0,1-1.81,2.9,5.24,5.24,0,0,1-3.71.65,6,6,0,0,1-4.09-2.31,5.85,5.85,0,0,1-1.07-4.52,4.07,4.07,0,0,1,1.45-2.67l-.15,0a.88.88,0,0,1-.58-.35.83.83,0,0,1-.17-.66.81.81,0,0,1,.35-.58.83.83,0,0,1,.66-.17l6.94,1c.87.13,1.33,0,1.38-.29s-.22-.63-.74-1.26a3,3,0,0,0-.35-.37l-.53-.48L74,622.5l-.65-.53-.59-.5a.76.76,0,0,1-.35-.62.7.7,0,0,1,.17-.59.78.78,0,0,1,.61-.37.7.7,0,0,1,.6.19,29.34,29.34,0,0,1,3,2.68,4.73,4.73,0,0,1,.89,1.42,2.69,2.69,0,0,1,.2,1.36,1.67,1.67,0,0,1-.75,1.17,3,3,0,0,1-1.65.42,6.91,6.91,0,0,1,1.24,2.37A5.79,5.79,0,0,1,76.91,632Zm-1.73-.51a3.71,3.71,0,0,0-.31-2,5,5,0,0,0-1.35-1.8,3.83,3.83,0,0,0-1.89-.89,3.63,3.63,0,0,0-2.49.38A2.51,2.51,0,0,0,68,629a4.05,4.05,0,0,0,.75,3.19,4.29,4.29,0,0,0,2.93,1.61Q74.77,634.29,75.18,631.52Z" style="fill:#313131"/><rect x="79.33" y="517.45" width="35.39" height="64.19" rx="2.46" transform="translate(-337.02 198.81) rotate(-41.05)" style="fill:#ffead6"/><rect x="80.57" y="519.7" width="32.9" height="59.68" rx="4.38" transform="translate(-337.02 198.81) rotate(-41.05)" style="fill:#fff7ef"/><rect x="83.45" y="548.86" width="27.14" height="1.38" rx="0.69" transform="translate(-337.02 198.81) rotate(-41.05)" style="fill:#313131"/><path d="M94.87,550.39a2.93,2.93,0,0,1-.59-1.13,2.75,2.75,0,0,0,4.55,2.36,2.73,2.73,0,0,0,.86-2.76,2.71,2.71,0,0,1-.93,1.79A2.76,2.76,0,0,1,94.87,550.39Z" style="fill:#d89f0f"/><path d="M95.21,547.46a2.76,2.76,0,0,0-.93,1.8,2.93,2.93,0,0,0,.59,1.13,2.76,2.76,0,0,0,3.89.26,2.71,2.71,0,0,0,.93-1.79,2.68,2.68,0,0,0-.59-1.13A2.76,2.76,0,0,0,95.21,547.46Z" style="fill:#fdda16"/><circle cx="97.03" cy="548.78" r="1.31" style="fill:#fef0a0"/><path d="M86.92,548.45a15.27,15.27,0,0,0,12.21-17.81l-30,5.6A15.27,15.27,0,0,0,86.92,548.45Z" style="fill:#40813f"/><path d="M86.73,547.4a14.21,14.21,0,0,0,11.35-16.57l-27.92,5.22A14.2,14.2,0,0,0,86.73,547.4Z" style="fill:#c2dcb5"/><path d="M71.54,535.79A12.68,12.68,0,0,0,75.65,543L84,533.46Z" style="fill:#f62346"/><path d="M84.08,533.45H84L75.65,543a12.8,12.8,0,0,0,20.22-4.51Z" style="fill:#f62346"/><path d="M84.08,533.45l11.79,5.07a12.79,12.79,0,0,0,.83-7.43Z" style="fill:#f62346"/><path d="M82.57,537.22c.11-.17.53-.51.7-.39s0,.63-.1.8a.37.37,0,0,1-.51.09A.35.35,0,0,1,82.57,537.22Z" style="fill:#1d1d1b"/><circle cx="82.98" cy="537.45" r="0.08" style="fill:#afafae"/><path d="M79.4,540.34c.12-.16.54-.5.71-.39s0,.63-.1.8a.37.37,0,0,1-.61-.41Z" style="fill:#1d1d1b"/><circle cx="79.82" cy="540.57" r="0.08" style="fill:#afafae"/><path d="M83,541.81c0-.2.26-.69.46-.67s.29.57.27.76a.37.37,0,0,1-.41.32A.38.38,0,0,1,83,541.81Z" style="fill:#1d1d1b"/><circle cx="83.51" cy="541.83" r="0.08" style="fill:#afafae"/><path d="M85.51,544.58c0-.2.09-.73.29-.75s.42.48.44.68a.37.37,0,0,1-.73.07Z" style="fill:#1d1d1b"/><circle cx="85.98" cy="544.49" r="0.08" style="fill:#afafae"/><path d="M80.22,544c0-.2.33-.66.53-.62s.23.59.18.79a.37.37,0,0,1-.44.27A.36.36,0,0,1,80.22,544Z" style="fill:#1d1d1b"/><circle cx="80.69" cy="544.11" r="0.08" style="fill:#afafae"/><path d="M75.88,540.85c.15-.15.63-.39.77-.25s-.11.63-.26.77a.36.36,0,0,1-.51-.52Z" style="fill:#1d1d1b"/><circle cx="76.24" cy="541.15" r="0.08" style="fill:#afafae"/><path d="M77,537.22c.18-.09.72-.15.81,0s-.32.55-.51.63a.36.36,0,0,1-.3-.66Z" style="fill:#1d1d1b"/><circle cx="77.22" cy="537.63" r="0.08" style="fill:#afafae"/><path d="M80.66,534.56c.2,0,.74,0,.77.22s-.43.46-.63.49a.36.36,0,1,1-.14-.71Z" style="fill:#1d1d1b"/><circle cx="80.79" cy="535.01" r="0.08" style="fill:#afafae"/><path d="M73.29,536c.19,0,.73,0,.77.22s-.44.46-.63.5a.37.37,0,0,1-.14-.72Z" style="fill:#1d1d1b"/><circle cx="73.42" cy="536.41" r="0.08" style="fill:#afafae"/><path d="M86.41,536.48c-.17-.11-.69-.27-.8-.1s.22.59.39.7a.36.36,0,1,0,.41-.6Z" style="fill:#1d1d1b"/><circle cx="86.11" cy="536.85" r="0.08" style="fill:#afafae"/><path d="M90.5,538.21c-.16-.11-.68-.27-.8-.1s.23.59.39.71a.38.38,0,0,0,.51-.1A.37.37,0,0,0,90.5,538.21Z" style="fill:#1d1d1b"/><circle cx="90.2" cy="538.58" r="0.08" style="fill:#afafae"/><path d="M87.67,540.92c-.09-.18-.49-.55-.67-.45s-.06.63,0,.81a.37.37,0,0,0,.49.14A.36.36,0,0,0,87.67,540.92Z" style="fill:#1d1d1b"/><circle cx="87.24" cy="541.11" r="0.08" style="fill:#afafae"/><path d="M91.11,542c-.12-.17-.55-.49-.71-.38s0,.64.12.8a.36.36,0,0,0,.51.08A.35.35,0,0,0,91.11,542Z" style="fill:#1d1d1b"/><circle cx="90.7" cy="542.19" r="0.08" style="fill:#afafae"/><path d="M94,537.38c-.19-.08-.73-.13-.8.06s.33.53.52.61a.36.36,0,1,0,.28-.67Z" style="fill:#1d1d1b"/><circle cx="93.74" cy="537.79" r="0.08" style="fill:#afafae"/><path d="M91.59,534.41c-.2,0-.73.13-.74.33s.5.39.7.4a.37.37,0,0,0,0-.73Z" style="fill:#1d1d1b"/><circle cx="91.52" cy="534.88" r="0.08" style="fill:#afafae"/><path d="M87.2,533.3c-.2,0-.68.3-.64.5s.57.26.77.22a.36.36,0,0,0,.29-.43A.38.38,0,0,0,87.2,533.3Z" style="fill:#1d1d1b"/><circle cx="87.24" cy="533.77" r="0.08" style="fill:#afafae"/><path d="M94.56,531.87c-.2,0-.68.29-.64.49s.58.26.78.23a.38.38,0,0,0,.29-.43A.36.36,0,0,0,94.56,531.87Z" style="fill:#1d1d1b"/><circle cx="94.61" cy="532.34" r="0.08" style="fill:#afafae"/><path d="M107.34,578.17a.86.86,0,0,1-.93.82.88.88,0,0,1-.62-.32L95.66,567l.48,2.49a.84.84,0,0,1-.67,1,.88.88,0,0,1-.65-.09.78.78,0,0,1-.36-.56l-1.09-5.68a.79.79,0,0,1,.3-.79.88.88,0,0,1,1.25.08l.26.26a4.89,4.89,0,0,1,1.59-3.14,3.26,3.26,0,0,1,2.56-.85,3.86,3.86,0,0,1,2.62,1.47l2.7,3.1c.58.67,1,.89,1.23.68s.25-.62.27-1.44a4.63,4.63,0,0,0,0-.51c0-.18-.05-.42-.09-.7s-.08-.5-.1-.64-.07-.41-.14-.83-.12-.67-.13-.76a.83.83,0,0,1,.14-.7.74.74,0,0,1,.52-.34.79.79,0,0,1,.7.13.72.72,0,0,1,.34.53,32.78,32.78,0,0,1,.52,4,5.12,5.12,0,0,1-.25,1.66,2.69,2.69,0,0,1-.75,1.16,1.6,1.6,0,0,1-1.32.4,3,3,0,0,1-1.53-.75,7.11,7.11,0,0,1-.73-.72l-2.68-3.08a2.33,2.33,0,0,0-1.35-.88,1.46,1.46,0,0,0-1.25.38,3.19,3.19,0,0,0-.89,1.48,6.41,6.41,0,0,0-.29,2.28l4.52,5.2,2.78,3.22c1.3,1.5,2.29,2.65,3,3.43A.91.91,0,0,1,107.34,578.17Z" style="fill:#313131"/><path d="M112.58,561.59a3.93,3.93,0,0,1-3.26,1,5.29,5.29,0,0,1-3.24-1.91,6,6,0,0,1-1.6-4.42,5.8,5.8,0,0,1,2.12-4.12,4,4,0,0,1,2.85-1.09l-.11-.12a.86.86,0,0,1-.21-.65.8.8,0,0,1,.3-.6.88.88,0,0,1,1.25.08l4.61,5.3c.58.66,1,.89,1.23.68s.25-.63.27-1.45a4.63,4.63,0,0,0,0-.51c0-.18-.05-.41-.09-.7s-.08-.5-.1-.63-.07-.42-.14-.83-.11-.67-.13-.77a.81.81,0,0,1,.14-.69.74.74,0,0,1,.52-.34.78.78,0,0,1,.7.12.74.74,0,0,1,.34.53,30.87,30.87,0,0,1,.52,4,5.1,5.1,0,0,1-.25,1.65,2.74,2.74,0,0,1-.74,1.17,1.64,1.64,0,0,1-1.33.4,3.06,3.06,0,0,1-1.53-.76,6.82,6.82,0,0,1-.6,2.61A5.78,5.78,0,0,1,112.58,561.59Zm-1-1.51a3.72,3.72,0,0,0,1.09-1.76,5,5,0,0,0,.15-2.24,3.9,3.9,0,0,0-.86-1.91,3.67,3.67,0,0,0-2.14-1.33,2.49,2.49,0,0,0-2.1.66,4,4,0,0,0-1.51,2.91,4.29,4.29,0,0,0,1.18,3.13Q109.48,561.92,111.6,560.08Z" style="fill:#313131"/><rect x="161.38" y="495" width="35.39" height="64.19" rx="2.46" transform="translate(-4.22 1.45) rotate(-0.46)" style="fill:#ffead6"/><rect x="162.62" y="497.26" width="32.9" height="59.68" rx="4.38" transform="translate(-4.22 1.45) rotate(-0.46)" style="fill:#fff7ef"/><rect x="165.5" y="526.41" width="27.14" height="1.38" rx="0.69" transform="translate(-4.22 1.45) rotate(-0.46)" style="fill:#313131"/><path d="M176.89,526.34a2.7,2.7,0,0,1,.29-1.24,2.75,2.75,0,1,0,4.36,3.22,2.75,2.75,0,0,1-4.65-2Z" style="fill:#d89f0f"/><path d="M179.05,524.34a2.75,2.75,0,0,0-1.87.76,2.7,2.7,0,0,0-.29,1.24,2.5,2.5,0,1,0,2.16-2Z" style="fill:#fdda16"/><circle cx="179.58" cy="526.52" r="1.31" style="fill:#fef0a0"/><path d="M180.21,503.55h1.85c.78,0,1.08-1.68,1.47-2.5a2.15,2.15,0,0,1,2.32-1.33h1.9c.3,0,.38.39.12.9s-1.42,5-1.42,5l-5.9.47Z" style="fill:#fadb5b"/><path d="M177.58,505.19V503a1.12,1.12,0,0,1,1.08-1.25c.73,0,.82.43.82.82s0,.6.73.6,1.2,0,1.2,1v8.06h-2.84Z" style="fill:#ec228f"/><circle cx="185.39" cy="519.89" r="2.35" style="fill:#4e5d6e"/><circle cx="179.74" cy="519.89" r="2.35" style="fill:#4e5d6e"/><circle cx="174.1" cy="519.89" r="2.35" style="fill:#4e5d6e"/><circle cx="168.46" cy="519.89" r="2.35" style="fill:#4e5d6e"/><circle cx="168.46" cy="519.89" r="1.34" style="fill:#c6037f"/><circle cx="174.1" cy="519.89" r="1.34" style="fill:#c6037f"/><circle cx="179.74" cy="519.89" r="1.34" style="fill:#c6037f"/><circle cx="185.39" cy="519.89" r="1.34" style="fill:#c6037f"/><path d="M182.45,511.77c-.54.8-.4,1.2-1.48,1.2h-2.35c-.26,0,.44-3.08-1.69-4.53a2.89,2.89,0,0,1-1.36,2.77c-1.41,1-5,1-5,1A2.57,2.57,0,0,0,168,514.8v1.55h18a2.51,2.51,0,0,0,2.51-2.51v-1.62a8.49,8.49,0,0,0-.91-2.2H185.2A3.69,3.69,0,0,0,182.45,511.77Z" style="fill:#ec228f"/><path d="M187.2,505.12a16.22,16.22,0,0,1,.65-2.61c0-.41-.7-.41-1-.41h-2c-.85,0-1.1.5-1.36,1.06s-.5,1-1.66,1H178c-.79,0-1.11.38-1.11,1.05v3.27c2.13,1.45,1.43,4.53,1.69,4.53H181c1.08,0,.94-.4,1.48-1.2A3.69,3.69,0,0,1,185.2,510h2.41a9.8,9.8,0,0,1-.41-1C186.54,507.34,187.2,506.13,187.2,505.12Z" style="fill:#ff228f"/><rect x="184.09" y="504.46" width="3.7" height="1.55" rx="0.78" style="fill:#4e5d6e"/><rect x="176.16" y="506.01" width="3.7" height="1.55" rx="0.78" style="fill:#2f4155"/><rect x="173.75" y="511.6" width="3.7" height="1.55" rx="0.78" transform="translate(556.79 127.59) rotate(63.65)" style="fill:#2f4155"/><rect x="170.58" y="512.43" width="3.7" height="1.55" rx="0.78" transform="translate(665.94 290.58) rotate(84.29)" style="fill:#2f4155"/><path d="M186.33,517.15s1.77-.55,2.09-1.18a4.33,4.33,0,0,0,.41-2.18.66.66,0,0,0-.5-.3c-.31,0-6,2.35-9,2.35h-11c-.6,0-.57.12-.57.25v1.75l6.26.28,9.74-.15C183.79,518,186.33,517.15,186.33,517.15Z" style="fill:#ffca05"/><path d="M191,519.41l-.71-.81a.86.86,0,0,0-.64-.29H166.49a.84.84,0,0,0-.84.84v.55a.84.84,0,0,0,.84.84h22.24a.82.82,0,0,1,.63.29h0a.85.85,0,0,0,1.19.08l.35-.31A.84.84,0,0,0,191,519.41Z" style="fill:#647180"/><path d="M188.7,516.36h-5a.52.52,0,0,0-.54.49,1.51,1.51,0,0,1-1.44,1h-7.11a1.51,1.51,0,0,1-1.44-1.06c0-.14-.07-.48-.75-.48h-4.83a1.21,1.21,0,0,0-1.21,1.21v.7a0,0,0,0,0,0,0h23.49a0,0,0,0,0,0,0v-.7A1.22,1.22,0,0,0,188.7,516.36Z" style="fill:#ff228f"/><path d="M174.45,550.66a1.68,1.68,0,0,1-1.47-.84,4.27,4.27,0,0,1-.55-2.28l0-4c-.52,1-1,1.73-1.33,2.33a.78.78,0,0,1-1.17.34.87.87,0,0,1-.44-.49.79.79,0,0,1,.09-.66q1.62-2.87,2.82-5.15l0-2.26h-.66a.86.86,0,0,1-.62-.24.85.85,0,0,1-.25-.63.88.88,0,0,1,.24-.63.82.82,0,0,1,.61-.26h.67l0-2.66a.84.84,0,0,1,.23-.65.81.81,0,0,1,.61-.24.84.84,0,0,1,.61.22,1,1,0,0,1,.28.61l0,2.73,3.47,0a.84.84,0,0,1,.62.25.93.93,0,0,1,0,1.26.82.82,0,0,1-.61.25l-3.48,0,.08,9.89c0,.88.17,1.32.5,1.32s.59-.31,1.14-.93l.31-.4.38-.59.35-.55.43-.72c.21-.36.34-.58.4-.66a.79.79,0,0,1,.55-.44.71.71,0,0,1,.62.08.8.8,0,0,1,.45.55.72.72,0,0,1-.09.62,30.81,30.81,0,0,1-2.19,3.36,4.61,4.61,0,0,1-1.25,1.06A2.8,2.8,0,0,1,174.45,550.66Z" style="fill:#313131"/><path d="M182.52,550.67a1.61,1.61,0,0,1-1.46-.87,4.28,4.28,0,0,1-.56-2.32l0-3.85-1.25,2.2a.84.84,0,0,1-1.17.33.76.76,0,0,1-.49-.71.8.8,0,0,1,.14-.43l2.87-5a.77.77,0,0,1,.74-.41.89.89,0,0,1,.89.88l.06,7a2.86,2.86,0,0,0,.17,1.11c.11.25.26.33.45.25a6.06,6.06,0,0,0,1.32-1.38c.11-.15.24-.34.39-.59s.27-.42.34-.54l.43-.72.4-.67a.87.87,0,0,1,1.17-.36.8.8,0,0,1,.47.74.78.78,0,0,1-.1.43,29.89,29.89,0,0,1-2.2,3.36,5.62,5.62,0,0,1-1.29,1.14A2.53,2.53,0,0,1,182.52,550.67Zm-.34-13.58a1,1,0,0,1-.78.35,1.07,1.07,0,0,1-.8-.33,1.18,1.18,0,0,1-.34-.8,1.1,1.1,0,0,1,.32-.79,1.13,1.13,0,0,1,1.93.77A1.13,1.13,0,0,1,182.18,537.09Z" style="fill:#313131"/><rect x="257.48" y="520.3" width="35.39" height="64.19" rx="2.46" transform="matrix(0.76, 0.64, -0.64, 0.76, 420.8, -47.32)" style="fill:#ffead6"/><rect x="258.72" y="522.55" width="32.9" height="59.68" rx="4.38" transform="translate(420.8 -47.32) rotate(40.13)" style="fill:#fff7ef"/><rect x="261.6" y="551.71" width="27.14" height="1.38" rx="0.69" transform="translate(420.8 -47.32) rotate(40.13)" style="fill:#313131"/><path d="M274,550.4a2.87,2.87,0,0,1,1-.76,2.78,2.78,0,0,0-2,1,2.76,2.76,0,0,0,3.2,4.31A2.75,2.75,0,0,1,274,550.4Z" style="fill:#d89f0f"/><path d="M277,550.29a2.77,2.77,0,0,0-1.92-.65,2.87,2.87,0,0,0-1,.76,2.5,2.5,0,1,0,2.94-.11Z" style="fill:#fdda16"/><circle cx="275.93" cy="552.29" r="1.31" style="fill:#fef0a0"/><path d="M285.53,542.66a2.74,2.74,0,0,0-.75.18,19.15,19.15,0,0,1-1.07,3.12,25.43,25.43,0,0,0-2.09,5.14,3.88,3.88,0,0,0,.1,2.24c.74,1.85,3.19,2.16,4.84,1.42a4.37,4.37,0,0,0,2.47-3.14c.33-1.84-.53-3.65-1.26-5.38l0-.14h0a9.58,9.58,0,0,1-.82-3.07A2.05,2.05,0,0,0,285.53,542.66Zm.57,5.39a3.36,3.36,0,0,1,1.41,2.31,2.59,2.59,0,0,1-2.77,3A1.93,1.93,0,0,1,283,552a4,4,0,0,1,.81-3.49,1.66,1.66,0,0,1,2.26-.42Z" style="fill:#af2a7e"/><path d="M283.93,523.45c-.23.06-.21.39-.17.71.22,1.64.66,9.33.74,11.32l.7,4.77a16.26,16.26,0,0,1-.42,2.59,2.8,2.8,0,0,1,.76-.17,2,2,0,0,1,1.37.36,4.18,4.18,0,0,1,.4-2.2,2.61,2.61,0,0,0,.42-1.07,7.35,7.35,0,0,0-.42-1.93,115.46,115.46,0,0,0-2.37-13.41C284.83,523.9,284.57,523.27,283.93,523.45Z" style="fill:#b4b4b3"/><path d="M275.57,528.51a.36.36,0,0,0,0,.36A12.8,12.8,0,0,0,277.1,531c1.44,1.75,2.92,3.45,4.41,5.15l2.28,2.58a9.21,9.21,0,0,0,1.43,1.43l.07,0c.67.45,1.44.34,2.13.72a7,7,0,0,1,1.52,1.09,3,3,0,0,1,.46-1.38,2,2,0,0,1,.88-.75,6.22,6.22,0,0,1-.71-.29,15.81,15.81,0,0,1-3.17-2.43q-1.69-1.44-3.42-2.86-3.42-2.87-6.89-5.68C275.94,528.46,275.68,528.34,275.57,528.51Z" style="fill:#cacac9"/><path d="M289.4,540.6a2.84,2.84,0,0,0-.46,1.38,3.34,3.34,0,0,1,.33.32,44.39,44.39,0,0,1,3.51,4.12,5.16,5.16,0,0,0,2.56,2c2.07.55,4.23-1.27,4.6-3.25a3.61,3.61,0,0,0-1.27-3.45,5.7,5.7,0,0,0-1.92-.84c-2-.58-4.47-.35-6.48-1A2.13,2.13,0,0,0,289.4,540.6Zm8.79,3a2,2,0,0,1-.32,2.18c-1.51,2-4.88.09-4.61-2.15.31-2.55,4-1.84,4.93,0Z" style="fill:#af2a7e"/><circle cx="285.94" cy="538.75" r="0.53" style="fill:#af2a7e"/><path d="M256.3,566a4.91,4.91,0,0,1-1.8-3.69,6,6,0,0,1,1.51-4.14,5.31,5.31,0,0,1,4.91-1.81,4.7,4.7,0,0,1,2.36,1.08,4.51,4.51,0,0,1,.51.5.87.87,0,0,1,.25.62,1,1,0,0,1-.23.59,2.17,2.17,0,0,1,.55.36,3,3,0,0,1,.89,1.33,4.22,4.22,0,0,1,.22,1.87,4.8,4.8,0,0,1-1.28,2.76,3.4,3.4,0,0,1-.35.37,1.68,1.68,0,0,0,1.34.16.78.78,0,0,1,.87.14.76.76,0,0,1,.25.35.78.78,0,0,1-.13.86.79.79,0,0,1-.36.26,2.74,2.74,0,0,1-1.78.09,5.86,5.86,0,0,1-1.66-.86,5.19,5.19,0,0,1-5.82-.63Zm1.2-1.23a3.32,3.32,0,0,0,3.57.67,4.67,4.67,0,0,1-.71-1.5,4,4,0,0,1-.17-1.4,5.84,5.84,0,0,1,.24-1.19,5,5,0,0,1,.39-.92,2.6,2.6,0,0,1,.36-.5,2.82,2.82,0,0,1,1.19-.85,5.26,5.26,0,0,0-.37-.39,2.62,2.62,0,0,0-1.3-.6,3.44,3.44,0,0,0-1.84.18,3.71,3.71,0,0,0-1.55,1.1,4.09,4.09,0,0,0-1,2.85A3.37,3.37,0,0,0,257.5,564.81Zm5.08-.09.3-.31a3.22,3.22,0,0,0,.88-1.8,2,2,0,0,0-.5-1.79c-.23-.19-.52-.1-.85.3l-.2.28a2.74,2.74,0,0,0-.34,1.67A3.18,3.18,0,0,0,262.58,564.72Z" style="fill:#313131"/><path d="M265,573.3a4.5,4.5,0,0,1-1.6-2.88,1,1,0,0,1,.25-.66,1,1,0,0,1,.54-.35.93.93,0,0,1,.65.22.87.87,0,0,1,.33.6,2.53,2.53,0,0,0,1,1.76,3.05,3.05,0,0,0,1.32.66,2.41,2.41,0,0,0,1.41-.09,4,4,0,0,0,1.44-1.32q1.11-1.44-.42-5.36c-1.22.6-2.57,1.19-4.05,1.76a.83.83,0,0,1-.86-.16.89.89,0,0,1-.11-1.25.79.79,0,0,1,.35-.19c.95-.38,1.92-.8,2.91-1.27s1.74-.85,2.24-1.14l.77-.43a.82.82,0,0,1,.68-.13.93.93,0,0,1,.55.46.81.81,0,0,1,.13.63,1.05,1.05,0,0,1-.46.53l-.57.35c1.2,3.42,1.29,5.83.25,7.22a5.42,5.42,0,0,1-2.49,2,4.2,4.2,0,0,1-3-.24A4.12,4.12,0,0,1,265,573.3Z" style="fill:#313131"/><rect x="293.88" y="598.94" width="35.39" height="64.19" rx="2.46" transform="translate(884.09 221.75) rotate(80.72)" style="fill:#ffead6"/><rect x="295.12" y="601.2" width="32.9" height="59.68" rx="4.38" transform="translate(884.09 221.75) rotate(80.72)" style="fill:#fff7ef"/><rect x="298" y="630.35" width="27.14" height="1.38" rx="0.69" transform="translate(884.09 221.75) rotate(80.72)" style="fill:#313131"/><path d="M312,628.77a2.71,2.71,0,0,1,1.27.09,2.76,2.76,0,0,0-4.41,2.62,2.77,2.77,0,0,0,1.9,2.19,2.75,2.75,0,0,1,1.24-4.9Z" style="fill:#d89f0f"/><path d="M314.3,630.59a2.78,2.78,0,0,0-1-1.73,2.71,2.71,0,0,0-1.27-.09,2.75,2.75,0,0,0-1.24,4.9,2.84,2.84,0,0,0,1.27.09A2.76,2.76,0,0,0,314.3,630.59Z" style="fill:#fdda16"/><circle cx="312.22" cy="631.45" r="1.31" style="fill:#fef0a0"/><path d="M326.17,625a1.71,1.71,0,0,0-.07-1.08,5.27,5.27,0,0,0-2.09-2c-1.29-.75-2.32-1.39-3.1-.27a2,2,0,0,0-.23,2.23,14.57,14.57,0,0,0,2.33,1.28C323.75,625.42,325.53,625.74,326.17,625Z" style="fill:#bfa489"/><circle cx="336.21" cy="621.53" r="2.76" style="fill:#b29272"/><circle cx="336.21" cy="621.53" r="1.34" style="fill:#dcbc98"/><path d="M327.28,630.85a1.75,1.75,0,0,1,.32,1,5.25,5.25,0,0,1-1.18,2.67c-.93,1.17-1.66,2.14-2.79,1.39a2,2,0,0,1-1-2,14.14,14.14,0,0,1,1.7-2.05C324.87,631.36,326.41,630.42,327.28,630.85Z" style="fill:#bfa489"/><path d="M328.38,631.17l-2.26-3.12,1-3.73c-3.29-.71-4.23-.89-5.16-.72s-3.88,4.15-3.88,4.15.11,1.31.2,1.79.46,1.74.46,1.74,4.2,2.62,5.13,2.44S325.58,633,328.38,631.17Z" style="fill:#b29272"/><path d="M338.74,625.66c-.6-3.18-4.23-6.68-7.95-6-4.51.86-5.22,5.48-4.67,8.37s7.94,2.17,7.94,2.17Z" style="fill:#bfa489"/><path d="M315.75,624.38a8,8,0,0,0,.68,2,6.88,6.88,0,0,0,1.66,2.05,1.05,1.05,0,0,0,1.31-.11,4.61,4.61,0,0,0,.88-2.23C320.35,625.54,316.42,621.54,315.75,624.38Z" style="fill:#bfa489"/><path d="M315.75,624.38s.71,2.76,2.72,2.38a5.43,5.43,0,0,0,1.77-.68,3.17,3.17,0,0,0,1.7-3.18c-.36-1.89-2.54-2-3.55-1.81S315.35,622.27,315.75,624.38Z" style="fill:#dcbc98"/><circle cx="337.89" cy="630.43" r="2.76" style="fill:#b29272"/><circle cx="337.89" cy="630.43" r="1.34" style="fill:#dcbc98"/><path d="M338.74,625.66c.61,3.18-1.49,7.76-5.21,8.47-4.52.85-6.86-3.19-7.41-6.08s6.59-4.92,6.59-4.92Z" style="fill:#bfa489"/><path d="M331.18,627.09a3,3,0,0,1,0,1.39,2.67,2.67,0,0,1-1.89,1.92c-1.14.22-2.36-.42-2.74-2.42s2.87-2.33,2.87-2.33Z" style="fill:#dcbc98"/><circle cx="331.58" cy="630.32" r="0.95" style="fill:#1d1d1b"/><path d="M317.81,635.25a8.14,8.14,0,0,1-.11-2.14,6.68,6.68,0,0,1,.79-2.52,1.06,1.06,0,0,1,1.26-.37,4.55,4.55,0,0,1,1.64,1.75C321.67,632.49,319.47,637.65,317.81,635.25Z" style="fill:#bfa489"/><path d="M317.81,635.25s-.35-2.82,1.66-3.2,4.28.44,4.64,2.32-1.63,2.79-2.64,3S318.21,637.37,317.81,635.25Z" style="fill:#dcbc98"/><path d="M331.18,627.09a3,3,0,0,0-.55-1.28,2.71,2.71,0,0,0-2.46-1.1c-1.14.22-2,1.26-1.66,3.27s3.52,1.11,3.52,1.11Z" style="fill:#dcbc98"/><circle cx="330.37" cy="623.94" r="0.95" style="fill:#1d1d1b"/><path d="M328.69,627.56a.83.83,0,0,1-1-.66" style="fill:none;stroke:#9b8369;stroke-linecap:round;stroke-linejoin:round;stroke-width:0.121652088364898px"/><path d="M328.69,627.57a.82.82,0,0,0-.66,1" style="fill:none;stroke:#9b8369;stroke-linecap:round;stroke-linejoin:round;stroke-width:0.121652088364898px"/><path d="M329.8,627.32c.05.25,0,.77-.3.83a.79.79,0,0,1-.9-.61l.49-.56Z" style="fill:#1d1d1b"/><path d="M329.8,627.32c-.05-.26-.31-.72-.58-.67a.8.8,0,0,0-.62.89l.66.35Z" style="fill:#1d1d1b"/><path d="M281.74,627.82a2.61,2.61,0,0,1,.53-2.05,3,3,0,0,1,2.06-1.19,5.2,5.2,0,0,1,1.57,0,13.63,13.63,0,0,1,3.06.88,17.65,17.65,0,0,1,3.09,1.74l6.22-1-2.66-1a.86.86,0,0,1-.51-1.11.78.78,0,0,1,.63-.59.84.84,0,0,1,.45.07l5.44,2.09a.85.85,0,0,1,.53.74.88.88,0,0,1-.16.68.82.82,0,0,1-.57.37l-7.54,1.23a19.53,19.53,0,0,0,2.5,1.51l1,.48a.82.82,0,0,1,.53.48.75.75,0,0,1,0,.62.8.8,0,0,1-.48.52.7.7,0,0,1-.63,0,8.6,8.6,0,0,1-1.11-.52,12.68,12.68,0,0,1-1.24-.66c-.44-.27-.77-.48-1-.65l-1.05-.76-.83-.61-5.62.87a4.26,4.26,0,0,1-2.91-.35A2.49,2.49,0,0,1,281.74,627.82Zm1.71-.36a1,1,0,0,0,.64.72,2.61,2.61,0,0,0,1.51.09l3.88-.63a10.79,10.79,0,0,0-1.91-.88,8.67,8.67,0,0,0-1.88-.48,4.4,4.4,0,0,0-1.09,0,1.46,1.46,0,0,0-.91.45A.86.86,0,0,0,283.45,627.46Zm21.36-.67a1.08,1.08,0,0,1-.47-.72,1,1,0,0,1,.22-.83,1.09,1.09,0,0,1,.73-.46,1,1,0,0,1,.82.2,1.13,1.13,0,0,1,.26,1.56,1.05,1.05,0,0,1-.71.45A1.12,1.12,0,0,1,304.81,626.79Z" style="fill:#313131"/><path d="M292.46,635.78a4,4,0,0,1,.85-3.32,5.35,5.35,0,0,1,3.34-1.75,6,6,0,0,1,4.59,1,5.77,5.77,0,0,1,2.39,4,4,4,0,0,1-.57,3l.16,0a.83.83,0,0,1,.66.16.84.84,0,0,1,.36.57.87.87,0,0,1-.16.66.84.84,0,0,1-.57.36l-6.93,1.14c-.87.14-1.28.37-1.23.68s.4.55,1.09,1a4.76,4.76,0,0,0,.45.24l.64.3.59.25.78.32.72.29a.8.8,0,0,1,.52.48.71.71,0,0,1,0,.62.8.8,0,0,1-.47.54.77.77,0,0,1-.63,0,29.88,29.88,0,0,1-3.65-1.65,4.73,4.73,0,0,1-1.28-1.08,2.72,2.72,0,0,1-.6-1.25,1.6,1.6,0,0,1,.36-1.33,3,3,0,0,1,1.44-.91,7.08,7.08,0,0,1-1.9-1.88A6.06,6.06,0,0,1,292.46,635.78Zm1.81,0a3.71,3.71,0,0,0,.92,1.86,4.94,4.94,0,0,0,1.82,1.3,3.83,3.83,0,0,0,2.08.27,3.63,3.63,0,0,0,2.26-1.11,2.49,2.49,0,0,0,.54-2.14,4,4,0,0,0-1.68-2.82,4.37,4.37,0,0,0-3.28-.64C294.85,632.79,294,633.89,294.27,635.73Z" style="fill:#313131"/><path d="M564.51,910.42h780.14a28.89,28.89,0,0,1,28.89,28.89v51.86a0,0,0,0,1,0,0H535.62a0,0,0,0,1,0,0V939.31A28.89,28.89,0,0,1,564.51,910.42Z" style="fill:#d66e22"/><path d="M578.8,914.83h753.46a32.57,32.57,0,0,1,32.57,32.57v34.54a13.64,13.64,0,0,1-13.64,13.64H559.86a13.64,13.64,0,0,1-13.64-13.64V947.4a32.57,32.57,0,0,1,32.57-32.57Z" style="fill:#f7ad47"/><path d="M1373.55,991.17H535.62l-49.3,51.17c0,7.46,11.88,13.51,26.53,13.51h867.74c14.65,0,26.53-6,26.53-13.51Z" style="fill:#d66e22"/><path d="M1347.14,995.58H563.35c-10.36,0-19.7,3.18-23.65,8.06l-19.35,23.9c-6.57,8.12,4.18,17.4,21.4,17.91.51,0,1,0,1.56,0h822a50.88,50.88,0,0,0,7.55-.55c14-2.11,21.15-10,16-17L1371.08,1004C1367.32,998.93,1357.79,995.58,1347.14,995.58Z" style="fill:#f59c22"/><polygon points="1889.99 869.22 1563.03 851.8 1563.18 741.99 1571.44 739.25 1889.99 753.16 1889.99 869.22" style="fill:#f7ad47"/><polygon points="1889.99 869.22 1563.57 854.74 1563.57 741.99 1887.05 756.1 1889.99 869.22" style="fill:#f59c22"/><polygon points="1569.7 852 1500.46 877.02 1500.46 764.28 1571.44 739.25 1569.7 852" style="fill:#f7ad47"/><polygon points="1889.99 869.22 1818.92 894.44 1818.92 782.78 1888.16 758.89 1889.99 869.22" style="fill:#f7ad47"/><polygon points="1570.09 743.7 1514.75 762.94 1807.68 780.03 1884.95 756.02 1570.09 743.7" style="fill:#fac986"/><polygon points="1884.95 756.02 1807.68 780.03 1819.75 780.74 1888.2 757.86 1887.05 756.1 1884.95 756.02" style="fill:#f8bb67"/><polygon points="1821.87 891.5 1503.41 874.08 1500.46 764.28 1511.82 761.54 1821.87 775.44 1821.87 891.5" style="fill:#f7ad47"/><polygon points="1818.92 894.44 1500.46 877.02 1500.46 764.28 1818.92 778.38 1818.92 894.44" style="fill:#f59c22"/><path d="M1538,847.13c-1.73,0-2.59-.81-2.59-2.43V792.23a2.34,2.34,0,0,1,.7-1.79,2.69,2.69,0,0,1,1.89-.65h11.54a19.47,19.47,0,0,1,6,.91,20.1,20.1,0,0,1,6.06,3.17,24.65,24.65,0,0,1,5.37,5.46,26.42,26.42,0,0,1,3.78,8.16,38.13,38.13,0,0,1,1.4,10.88,34.29,34.29,0,0,1-1.51,10.32,27.9,27.9,0,0,1-3.91,8.14,28.62,28.62,0,0,1-5.4,5.67,22.57,22.57,0,0,1-6,3.51,16.17,16.17,0,0,1-5.68,1.12Zm2.43-4.83h9.22a12,12,0,0,0,4.24-.87,17.24,17.24,0,0,0,4.68-2.8,23.47,23.47,0,0,0,4.33-4.64,23.15,23.15,0,0,0,3.17-6.79,30.06,30.06,0,0,0,1.24-8.83q-.11-10.7-5-17.16a15.25,15.25,0,0,0-12.77-6.48h-9.11Z" style="fill:#d66e22"/><path d="M1590.06,847.43a13.7,13.7,0,0,1-10.6-4.71,16.72,16.72,0,0,1-4.26-11.67,14.53,14.53,0,0,1,2-7.44,14.92,14.92,0,0,1,5.29-5.41,13.57,13.57,0,0,1,7.06-2,19.6,19.6,0,0,1,2,.15,2.47,2.47,0,0,1,1.66.9,2.71,2.71,0,0,1,.59,1.68,7.42,7.42,0,0,1,1.84-.22A8.71,8.71,0,0,1,1600,820a12.18,12.18,0,0,1,3.89,3.65c1.5,2,2.25,4.78,2.25,8.3a9.94,9.94,0,0,1-.07,1.44,4.7,4.7,0,0,0,3.17-2.1,2.24,2.24,0,0,1,2.14-1.29,2.18,2.18,0,0,1,1.18.29,2.2,2.2,0,0,1,1.29,2.1,2.37,2.37,0,0,1-.29,1.22,7.66,7.66,0,0,1-3.69,3.43,16.69,16.69,0,0,1-5.16,1.18q-4.54,9.21-13.72,9.22Zm.37-4.83a9.41,9.41,0,0,0,8.92-5.06,13.24,13.24,0,0,1-4.28-1.93,11.57,11.57,0,0,1-2.89-2.73,14.35,14.35,0,0,1-1.66-3,13.48,13.48,0,0,1-.83-2.68,7.88,7.88,0,0,1-.15-1.73,8.23,8.23,0,0,1,1-4,11.78,11.78,0,0,0-1.51-.15,7.34,7.34,0,0,0-3.91,1.07,9.38,9.38,0,0,0-3.63,3.73,10.53,10.53,0,0,0-1.35,5.2,11.48,11.48,0,0,0,3,8A9.43,9.43,0,0,0,1590.43,842.6Zm10.8-9.44.07-1.22q0-3.69-1.36-5.49-2-3-4.35-3c-.86,0-1.29.72-1.29,2.17l.07,1a7.84,7.84,0,0,0,2.31,4.22A9,9,0,0,0,1601.23,833.16Z" style="fill:#d66e22"/><path d="M1623.5,847.79a2.34,2.34,0,0,1-1.73-.68,2.26,2.26,0,0,1-.7-1.71V820.84c0-.1,0-.15-.08-.15s-.29.22-.59.67l-6.89,12.24a2.23,2.23,0,0,1-1.48,1.14,2.62,2.62,0,0,1-3.08-1.62,2.25,2.25,0,0,1,.28-1.84q.3-.48,3-5.41T1616,819a5.76,5.76,0,0,1,5.13-3.17,5.12,5.12,0,0,1,2.78.8,4.39,4.39,0,0,1,1.83,2.23,14.57,14.57,0,0,1,8.85-3.18,10.7,10.7,0,0,1,4.74,1.06,8.53,8.53,0,0,1,3.48,3.07,14.06,14.06,0,0,1,9.59-4.05,10.55,10.55,0,0,1,7.23,2.64,8.1,8.1,0,0,1,3,6.28v13.65c0,2.48.44,3.72,1.33,3.72.64,0,1.73-.86,3.28-2.58.3-.35.59-.73.89-1.14s.66-1,1.1-1.66.77-1.2,1-1.53l1.24-2q.91-1.53,1.14-1.86a2.25,2.25,0,0,1,1.58-1.24,2.09,2.09,0,0,1,1.74.24,2.27,2.27,0,0,1,1.27,1.57,2,2,0,0,1-.28,1.75,85.76,85.76,0,0,1-6.27,9.44,13.59,13.59,0,0,1-3.59,3.06,7.52,7.52,0,0,1-3.74,1.11,4.54,4.54,0,0,1-3.56-1.61,8.47,8.47,0,0,1-1.86-4.44,17.09,17.09,0,0,1-.19-2.8V824.71a4.06,4.06,0,0,0-1.36-3,4.76,4.76,0,0,0-3.47-1.33q-4,0-8.44,5.12V845.4a2.22,2.22,0,0,1-.78,1.68,2.59,2.59,0,0,1-1.8.71,2.33,2.33,0,0,1-2.4-2.39V824.71a4.15,4.15,0,0,0-1.38-3,4.84,4.84,0,0,0-3.52-1.35q-4.1,0-8.49,5.2V845.4a2.22,2.22,0,0,1-.73,1.71A2.56,2.56,0,0,1,1623.5,847.79Z" style="fill:#d66e22"/><path d="M1686.07,847.35a4.65,4.65,0,0,1-4.11-2.49,12.45,12.45,0,0,1-1.53-6.58V827.4l-3.57,6.2a2.39,2.39,0,0,1-3.32.92,2.2,2.2,0,0,1-1.37-2,2.36,2.36,0,0,1,.41-1.21l8.22-14.2a2.21,2.21,0,0,1,2.1-1.14,2.41,2.41,0,0,1,1.77.73,2.45,2.45,0,0,1,.74,1.77v19.92a8.19,8.19,0,0,0,.46,3.13c.31.71.73,1,1.27.74a9.93,9.93,0,0,0,2.88-2.73c.29-.35.59-.73.88-1.14s.67-1,1.11-1.66l1-1.53c.21-.34.62-1,1.23-2s1-1.64,1.15-1.86a2.2,2.2,0,0,1,2.1-1.29,2.24,2.24,0,0,1,1.21.29,2.2,2.2,0,0,1,1.29,2.1,2.27,2.27,0,0,1-.29,1.22,85.76,85.76,0,0,1-6.27,9.44,15.45,15.45,0,0,1-3.69,3.17A7.14,7.14,0,0,1,1686.07,847.35Zm-.64-38.36a3,3,0,0,1-4.46,0,3.16,3.16,0,0,1-.94-2.27,3,3,0,0,1,.9-2.2,3.3,3.3,0,0,1,4.53,0,3,3,0,0,1,.91,2.2A3.2,3.2,0,0,1,1685.43,809Z" style="fill:#d66e22"/><path d="M1709.64,847.43a2.39,2.39,0,0,1-2.44-2.44V820.84c0-.1,0-.15-.07-.15s-.3.22-.59.67l-6.9,12.24a2.3,2.3,0,0,1-3.31.92,2.38,2.38,0,0,1-1.24-1.4,2.25,2.25,0,0,1,.28-1.84q.29-.48,3-5.41t3.82-6.84a5.74,5.74,0,0,1,5.13-3.17,5.05,5.05,0,0,1,2.85.85,4.28,4.28,0,0,1,1.75,2.32,15.91,15.91,0,0,1,9.67-3.32,11.83,11.83,0,0,1,7.57,2.44,7.9,7.9,0,0,1,3.08,6.56v13.65c0,2.48.46,3.72,1.37,3.72q.92,0,3.24-2.58c.3-.35.59-.73.89-1.14s.66-1,1.1-1.66.77-1.2,1-1.53.62-1,1.23-2,1-1.64,1.15-1.86a2.27,2.27,0,0,1,1.6-1.24,2.1,2.1,0,0,1,1.75.24,2.28,2.28,0,0,1,1.24,1.57,2,2,0,0,1-.28,1.75,85.76,85.76,0,0,1-6.27,9.44,13.67,13.67,0,0,1-3.57,3.06,7.43,7.43,0,0,1-3.73,1.11,4.61,4.61,0,0,1-3.57-1.61,8.4,8.4,0,0,1-1.88-4.44,19.1,19.1,0,0,1-.15-2.8V824.71a3.87,3.87,0,0,0-1.72-3,6.44,6.44,0,0,0-4.18-1.39q-4.83,0-9.22,5.2V845a2.32,2.32,0,0,1-.74,1.74A2.54,2.54,0,0,1,1709.64,847.43Z" style="fill:#d66e22"/><path d="M1756.87,847.43a13.7,13.7,0,0,1-10.6-4.71,16.72,16.72,0,0,1-4.26-11.67,14.53,14.53,0,0,1,2-7.44,14.92,14.92,0,0,1,5.29-5.41,13.59,13.59,0,0,1,7.06-2,19.41,19.41,0,0,1,2,.15,2.45,2.45,0,0,1,1.66.9,2.71,2.71,0,0,1,.59,1.68,7.48,7.48,0,0,1,1.84-.22,8.78,8.78,0,0,1,4.34,1.25,12.29,12.29,0,0,1,3.89,3.65c1.5,2,2.25,4.78,2.25,8.3a9.59,9.59,0,0,1-.08,1.44,4.68,4.68,0,0,0,3.17-2.1,2.25,2.25,0,0,1,2.14-1.29,2.18,2.18,0,0,1,1.18.29,2.2,2.2,0,0,1,1.29,2.1,2.37,2.37,0,0,1-.29,1.22,7.62,7.62,0,0,1-3.69,3.43,16.56,16.56,0,0,1-5.16,1.18q-4.53,9.21-13.72,9.22Zm.37-4.83a9.4,9.4,0,0,0,8.92-5.06,13.24,13.24,0,0,1-4.28-1.93,11.75,11.75,0,0,1-2.89-2.73,14.35,14.35,0,0,1-1.66-3,13.48,13.48,0,0,1-.83-2.68,8.55,8.55,0,0,1-.15-1.73,8.22,8.22,0,0,1,1-4,12,12,0,0,0-1.51-.15,7.29,7.29,0,0,0-3.91,1.07,9.34,9.34,0,0,0-3.64,3.73,10.63,10.63,0,0,0-1.34,5.2,11.52,11.52,0,0,0,3,8A9.46,9.46,0,0,0,1757.24,842.6Zm2.8-30.35a2.6,2.6,0,0,1-1.79-.72,2.23,2.23,0,0,1-.79-1.71,2.19,2.19,0,0,1,.55-1.44l4.83-7.16a2.37,2.37,0,0,1,2-1.14,2.68,2.68,0,0,1,1.79.7,2.21,2.21,0,0,1,.79,1.7,2.28,2.28,0,0,1-.55,1.44l-4.83,7.19A2.37,2.37,0,0,1,1760,812.25Zm8,20.91.08-1.22a9.06,9.06,0,0,0-1.37-5.49q-2-3-4.35-3c-.86,0-1.29.72-1.29,2.17l.07,1a8,8,0,0,0,2.31,4.22A9,9,0,0,0,1768,833.16Z" style="fill:#d66e22"/><path d="M1678.43,469.06a8.82,8.82,0,0,0-7.19,3.91c-2.45,4-3.17,11-1.7,14.94s3.74,6.59,4.54,6.75a6.55,6.55,0,0,0,7-4.09c1.7-4.42,5.92-9.77,4.62-11.7S1678.43,469.06,1678.43,469.06Z" style="fill:#e3c1bd"/><path d="M1761.34,728.6l2.92-34.17s10.94-31.51,11.48-39.57c.86-12.86-2.06-30.3-4.44-31-3.85-1.19-16.85-7.14-18.92-4.73s-10.25,26.48-11.61,38.27c-1.41,12.15-.73,17.91-1.29,29.25-.35,7,1.49,22.48.68,37.78,0,0,5.79,8.78,11.3,9.56S1761.34,728.6,1761.34,728.6Z" style="fill:#ffc9c1"/><path d="M1739,738.85l-.62-13.32,1.45-1.08a83.5,83.5,0,0,0,12.38,2.61,30.07,30.07,0,0,0,8.64,0s1.21-.84,1.43-.44l.23.4s-1.46,11-2.45,12.86-8.49,3.75-13.23,3.16A13.62,13.62,0,0,1,1739,738.85Z" style="fill:#e8dfd4"/><path d="M1705.24,752.56a6,6,0,0,0-1.45,3.89,61.09,61.09,0,0,0,19.64,3.42c10.86,0,34.31-3.12,35.67-3.49s2.28-2.63,2.38-3.34c0-.11.07-.44.14-.92A148.94,148.94,0,0,1,1705.24,752.56Z" style="fill:#125c81"/><path d="M1761.62,752.12c.46-2.86,1.73-11.52.22-15.38,0,0-12.94,2.87-18.35,2.42,0,0-3-4.71-4.08-5.22s-5.36-.44-5.36-.44-2.74,1.37-3.26,2.79a11.89,11.89,0,0,1-1.83,3s-22.57.62-23.62,13.14c0,.07-.06.1-.1.14A148.94,148.94,0,0,0,1761.62,752.12Z" style="fill:#2b7aa5"/><path d="M1728.4,740a5.41,5.41,0,0,1,1.35,5.94" style="fill:none;stroke:#e8dfd4;stroke-linecap:round;stroke-linejoin:round;stroke-width:1.12888348861422px"/><path d="M1724.58,740.33s2.41,1.54,1.13,5.35" style="fill:none;stroke:#e8dfd4;stroke-linecap:round;stroke-linejoin:round;stroke-width:1.12888348861422px"/><path d="M1720.94,741s2.3.79,1,4.59" style="fill:none;stroke:#e8dfd4;stroke-linecap:round;stroke-linejoin:round;stroke-width:1.12888348861422px"/><path d="M1832.11,726.9l-3.2-32.36s5.09-34.59,4.06-43c-1.64-13.41-8.07-30.79-10.65-31.08-4.21-.47-18.75-4-20.41-1.16s-5.35,29.27-4.45,41.68c.94,12.78,2.77,18.57,4.41,30.36,1,7.22,5.94,22.84,8.11,38.74,0,0,7.68,7.91,13.5,7.64S1832.11,726.9,1832.11,726.9Z" style="fill:#ffc9c1"/><path d="M1811.62,745.21l-3.25-13.59,1.28-1.39a87.7,87.7,0,0,0,13.25.25,31.3,31.3,0,0,0,8.89-1.72s1.08-1.1,1.39-.74l.32.37s.65,11.59,0,13.72-8,5.53-13,5.85A14.27,14.27,0,0,1,1811.62,745.21Z" style="fill:#e8dfd4"/><path d="M1779.56,765.94a6.32,6.32,0,0,0-.74,4.29,64.15,64.15,0,0,0,20.9-.34c11.18-2.09,34.7-9.93,36-10.57s1.84-3.17,1.8-3.92c0-.1,0-.46,0-1A156.23,156.23,0,0,1,1779.56,765.94Z" style="fill:#125c81"/><path d="M1837.51,754.43c-.09-3-.49-12.19-2.79-15.87,0,0-12.76,5.49-18.42,6.09,0,0-4-4.27-5.22-4.57s-5.6.59-5.6.59-2.56,2-2.81,3.52a12.72,12.72,0,0,1-1.3,3.43s-17,9.16-21.73,18.16l-.08.16A156.23,156.23,0,0,0,1837.51,754.43Z" style="fill:#2b7aa5"/><path d="M1798.79,748.83a5.68,5.68,0,0,1,3.94,5" style="fill:none;stroke:#e8dfd4;stroke-linecap:round;stroke-linejoin:round;stroke-width:1.18285742722999px"/><path d="M1795.34,750.89s3,.39,3.46,4.57" style="fill:none;stroke:#e8dfd4;stroke-linecap:round;stroke-linejoin:round;stroke-width:1.18285742722999px"/><path d="M1792.2,753.17s2.52-.28,3,3.9" style="fill:none;stroke:#e8dfd4;stroke-linecap:round;stroke-linejoin:round;stroke-width:1.18285742722999px"/><path d="M1841.67,599l1,59.67s-1,13.94-22.4,13.94-28.5-2.37-28.5-2.37-1.53-30.93-3.28-31.52-5.25,4.67-5.84,11.67-3.5,18.09-3.5,18.09-15.75,4.08-29.17,1.17-14.53-12.13-14.53-12.13L1750,589.12S1824.22,573.85,1841.67,599Z" style="fill:#224966"/><path d="M1745.26,505.45l-19.6-8.3L1697.43,483s-21.45-23.18-22.58-24.52-4,.34-2.19,4,8.06,11.63,8.44,12.55,3.68,4.06,3,5.89-3.54,2.39-5.32,1.48-7.87-5.45-10.07-5.6-4,3.14-3.1,4.42,4.69,3.15,5.61,4.17,4.92,7.66,8.15,8.3,8.82.6,10.6,1.51,22.48,15,24.69,16.55,11.92,9,16.34,10.73S1749.06,514.57,1745.26,505.45Z" style="fill:#ffc9c1"/><path d="M1774.56,517.25s-7.48,20.2-18.62,22.85-28-13-29.61-14.82l-1.64-1.84s.28-9.23,3.83-15.7c5.45-9.92,9.77-10.85,9.77-10.85Z" style="fill:#049598"/><path d="M1813,506.05s23.66,3.86,30.81,8.81,2.22,33.11,2.77,49.61-1.65,38.51-1.65,38.51,8.78,14.74-47.33,13.64-50.3-15.38-50.3-15.38-5-56.12-.56-71,14-23.11,29.41-23.66S1813,506.05,1813,506.05Z" style="fill:#23a2a5"/><path d="M1859.44,586.28a30.42,30.42,0,0,0,6.55-18.89c0-9.35-3.67-26.38-3.67-26.38s-23.3,3.68-24,8.49.89,24.93,1.07,25.55C1845.25,581.9,1853.06,580.16,1859.44,586.28Z" style="fill:#ffc9c1"/><rect x="1774.96" y="577.48" width="23.78" height="43.13" rx="1.66" transform="translate(-35.4 1079.76) rotate(-33.31)" style="fill:#ffead6"/><rect x="1775.8" y="578.99" width="22.11" height="40.11" rx="2.94" transform="translate(-35.4 1079.76) rotate(-33.31)" style="fill:#fff7ef"/><path d="M1839.42,575.05s-28.52,20.48-30.13,20.06-3.17-2.83-6-3.52-9.23-3.88-12.51-6.14-3.5.66-3.74,1.69,2,2.47,5.3,4.27,1.78,3-1.57,3.36-13.16,1.57-15.28,2.62.12,3.08,1.18,3.09,8,.2,9.45-.11,2.51.76,1.73,1.38-8.51,5.29-11,7.48,1.9,5.06,2.63,4.9,9.45-7.3,10.92-7.84,1.32.86.26,1.92-3.35,2.45-7.95,6.53-2,3.07-1.2,4.35a2.51,2.51,0,0,0,3.7.65c1.4-.9,7.79-6.19,10.38-8.25s.86.71-.15,2.37-3.22,3.78-4.46,5.4a2.4,2.4,0,0,0,1.57,3.84c.84,0,5-3.62,9.61-6.63,3.7-2.43,10.13-6.59,9.62-9.29,5.18-2.07,10.89-.2,16.92-.93,10.12-1.22,30.61-16.23,30.78-19.78v-.19C1858.76,577.1,1848.25,576.79,1839.42,575.05Z" style="fill:#ffc9c1"/><path d="M1843.8,514.86s16.52,10.12,23.53,25.81c0,0,4.34,5.68,0,9s-14.36,8.68-24,8.35l-9.69-.33S1819.27,527.78,1843.8,514.86Z" style="fill:#29a5a7"/><path d="M1813,510.7l-.81-20-32.49.48.68,19.41C1790.73,513.48,1801.87,513.3,1813,510.7Z" style="fill:#ffb9a2"/><path d="M1780.36,510.62l.27,7.83s3.33,9.54,14,10.6c14,1.4,18.53-14.9,18.53-14.9l-.14-3.45C1801.87,513.3,1790.73,513.48,1780.36,510.62Z" style="fill:#ffc9c1"/><path d="M1741.09,421.94s-5.85-3.61-8.55,1.8-8.11,23.87-1.36,30.18,14-1.8,14-1.8Z" style="fill:#ffd2cb"/><path d="M1739.29,414.28s.45-13.52,2.25-18a41.2,41.2,0,0,0,2.26-10.36s-9.91-10.81-11.26-21.17-.91-13.07-.91-13.07,4.51,7.66,9.91,11.27l5.41,3.6s-2.7-12.16-2.25-20.27a26.88,26.88,0,0,1,4.5-13.52s3.61,12.62,8.11,17.57c0,0,4.51-20.72,9.46-23.87,0,0-3.45,14.25,8.71,16.5s54.88-7.05,85.59,6.31c10.36,4.5,19.22,16.83,23.27,25.39,0,0,7.21,2.7,8.56,15.31s4.51,42.35-13.06,53.16-37.39,22.52-37.39,22.52-99.55-20.27-101.36-22.07S1739.29,414.28,1739.29,414.28Z" style="fill:#525329"/><path d="M1863.17,403s-.9,22.52-5,31.08a43.22,43.22,0,0,0-4.06,16.67h4.06s10.81-9,15.31-9,15.77,7.2,12.62,18.92-12.62,18-18,19.37-15.32-1.35-15.32-1.35-13.06,14.86-23.42,19.82-36.49,8.1-52.71,5-31.73-19.12-37.59-28.58-7.91-23.22-3.4-36.74,9.46-28.38,10.36-34.23,1.35-13.52,6.31-16.67,14-3.15,21.17.45,23.42,6.76,32.88,5a34.29,34.29,0,0,1-19.82,5.4s8.56,7.21,27.93,5.41,34.69-2.71,40.54-5S1863.17,403,1863.17,403Z" style="fill:#ffd2cb"/><path d="M1872,451.45s-12.4,6-12.83,11.12,2.14,7.27,4.28,6.85a16.48,16.48,0,0,0,11.54-7.7C1879.31,455.3,1875.46,449.32,1872,451.45Z" style="fill:#ffb9a2"/><path d="M1785.28,458.47s-5-9.46-10.36-10.36-9,8.11-9,8.11Z" style="fill:#ffb9a2"/><path d="M1818,453.91c-10.34,8.16-13.72,22.06-7.83,31.2s19.06,10.18,29.5,2.29c10.64-8,14.39-22.18,8.32-31.58S1828.42,445.66,1818,453.91Z" style="opacity:0.58;fill:url(#Degradado_sin_nombre_17)"/><path d="M1761,449.58c5.49,9.72,4.65,22.36-1.71,28.43s-15.42-1.24-21-10.75c-5.76-9.67-5.75-18.09.81-24.33S1755.42,439.77,1761,449.58Z" style="opacity:0.58;fill:url(#Degradado_sin_nombre_17-2)"/><path d="M1805.66,413.89a2.58,2.58,0,0,0,2.47,2.43c12.54.36,22.62,3.36,26.28,7.76.43.51,1.34,1.07,1.5.8.53-.88,1-1.83.46-2.53-2.89-4-12.61-10.53-28-11.19a2.6,2.6,0,0,0-2.71,2.73Z" style="fill:#525329"/><path d="M1776.14,408.36a2.22,2.22,0,0,1-2.62,1.45c-10.52-2.6-19.62-2.44-23.69.38-.47.32-1.36.58-1.44.32-.23-.86-.38-1.75.2-2.21,3.35-2.68,13-5.86,25.94-2.84a2.24,2.24,0,0,1,1.61,2.9Z" style="fill:#525329"/><path d="M1769.83,480.57a5,5,0,0,0,.81,1.25c1.59,1.76,6.64,6.81,12.36,7,6.94.27,19.38-9,19.85-9.77a48.08,48.08,0,0,0,1.65-5.8s-33.67.45-36.89-1.91C1764.85,469.35,1768.69,478.07,1769.83,480.57Z" style="fill:#e54b81"/><path d="M1795.64,486.15s-14.35-4.75-21,.6c0,0,4.1,4,12,2.91S1795.64,486.15,1795.64,486.15Z" style="fill:#e98db3"/><path d="M1798.8,482.34s-17.79-3.66-27,1l-5.36-11.57s11.67,1.87,12.89,1.84,25.68-.09,25.68-.09Z" style="fill:#23140e"/><path d="M1768.59,474.86s2.88,3.52,13.29,4.43,18.19-.15,22.08-2.88l1-2.89a213.06,213.06,0,0,1-21.38.73,42,42,0,0,1-17.14-4.36Z" style="fill:#fff"/><path d="M1766.47,469.89s.8,18.06,17,19.2c17,1.18,21.49-15.57,21.49-15.57C1802.73,473.57,1782.84,477.05,1766.47,469.89Z" style="fill:none;stroke:#ec9462;stroke-linecap:round;stroke-linejoin:round;stroke-width:3.46705247238404px"/><circle cx="1835.24" cy="463.9" r="1.03" style="fill:#ea9261"/><circle cx="1828.43" cy="468.85" r="1.03" style="fill:#ea9261"/><circle cx="1845.12" cy="466.16" r="1.03" style="fill:#ea9261"/><circle cx="1822.19" cy="465.31" r="1.03" style="fill:#ea9261"/><circle cx="1823.48" cy="475.61" r="1.03" style="fill:#ea9261"/><circle cx="1838.07" cy="471.9" r="1.03" style="fill:#ea9261"/><circle cx="1830.88" cy="476.54" r="1.03" style="fill:#ea9261"/><circle cx="1750.78" cy="455.21" r="0.93" style="fill:#ea9261"/><circle cx="1752.56" cy="462.64" r="0.93" style="fill:#ea9261"/><circle cx="1742.62" cy="450.94" r="0.93" style="fill:#ea9261"/><circle cx="1758.97" cy="463.86" r="0.93" style="fill:#ea9261"/><circle cx="1752.01" cy="470.22" r="0.93" style="fill:#ea9261"/><circle cx="1744.11" cy="459.07" r="0.93" style="fill:#ea9261"/><circle cx="1746.35" cy="466.51" r="0.93" style="fill:#ea9261"/><path d="M1803.24,432.56c9.08-3.72,22.44-4.22,22.58,11.61,0,0-4.21,11.06-16.77,8.05-4.75-1.14-8.43-3.7-9.74-7.26C1797.47,440,1798.32,434.58,1803.24,432.56Z" style="fill:#fffcf2"/><path d="M1821.18,441.23a11.16,11.16,0,0,0,.41-6.77.45.45,0,0,0-.11-.17c-9-9.52-21.65-1.05-22.16,2.32-1,6.64,3.25,12.4,10,12.72.3,0,.61,0,.92,0A12.29,12.29,0,0,0,1821.18,441.23Z" style="fill:#8faecd"/><path d="M1810.41,445.84a7.16,7.16,0,1,1,5.48-6.19A7.16,7.16,0,0,1,1810.41,445.84Z" style="fill:#3f1010"/><path d="M1802.82,436.52a3.06,3.06,0,1,1,3.29,1.42A3.06,3.06,0,0,1,1802.82,436.52Z" style="fill:#fffcf2"/><path d="M1825.82,444.17c.53-8.07-15.82-22.28-27.31-5.56C1803.35,418.41,1831.62,431.64,1825.82,444.17Z" style="fill:#644e0f"/><path d="M1751.89,424.85c7.55-3.57,18.89-4.59,19.71,8.86a11.81,11.81,0,0,1-13.89,7.59c-4.09-.76-7.33-2.77-8.61-5.73C1747.32,431.41,1747.8,426.79,1751.89,424.85Z" style="fill:#fffcf2"/><path d="M1767.53,431.42a9.47,9.47,0,0,0,0-5.77.26.26,0,0,0-.09-.14c-8-7.7-18.46.07-18.74,3-.55,5.69,3.32,10.39,9,10.37l.77,0A10.47,10.47,0,0,0,1767.53,431.42Z" style="fill:#8faecd"/><path d="M1758.58,435.82a6.09,6.09,0,1,1,4.39-5.5A6.09,6.09,0,0,1,1758.58,435.82Z" style="fill:#3f1010"/><path d="M1751.77,427.84a2.6,2.6,0,1,1,2.86,1.06A2.6,2.6,0,0,1,1751.77,427.84Z" style="fill:#fffcf2"/><path d="M1771.6,433.71c.1-6.88-14.44-18.23-23.46-3.51C1751.35,412.82,1776,422.8,1771.6,433.71Z" style="fill:#644e0f"/><path d="M1542.55,906.75c5.38-8.37,5.7-11.79,5.7-16.92a112.18,112.18,0,0,0-.76-11.3,12.84,12.84,0,1,1,16.31,0c-.19,1.7-.75,7.05-.75,11.3,0,5.13.31,8.55,5.69,16.92a44,44,0,0,1,7.24,22.93c0,5.94-3.83,15.92-6.9,22.25s-6.33,8.25-6.33,8.25h-14.2s-3.27-1.92-6.33-8.25-6.91-16.31-6.91-22.25a44,44,0,0,1,7.24-22.93" style="fill:#f67900"/><path d="M1542.55,906.75c5.38-8.37,5.7-11.79,5.7-16.92a112.18,112.18,0,0,0-.76-11.3,12.84,12.84,0,1,1,16.31,0c-.19,1.7-.75,7.05-.75,11.3,0,5.13.31,8.55,5.69,16.92a44,44,0,0,1,7.24,22.93c0,5.94-3.83,15.92-6.9,22.25s-6.33,8.25-6.33,8.25h-14.2s-3.27-1.92-6.33-8.25-6.91-16.31-6.91-22.25A44,44,0,0,1,1542.55,906.75Z" style="fill:none"/><path d="M1677.79,907.88c5.38-8.37,5.69-11.79,5.69-16.91,0-4.26-.56-9.6-.75-11.3a12.84,12.84,0,1,1,16.31,0c-.19,1.7-.76,7-.76,11.3,0,5.12.32,8.54,5.7,16.91a44,44,0,0,1,7.24,22.93c0,6-3.83,15.93-6.9,22.26s-6.34,8.25-6.34,8.25h-14.19s-3.27-1.92-6.34-8.25-6.9-16.31-6.9-22.26a44,44,0,0,1,7.24-22.93" style="fill:#e43f9d"/><path d="M1677.79,907.88c5.38-8.37,5.69-11.79,5.69-16.91,0-4.26-.56-9.6-.75-11.3a12.84,12.84,0,1,1,16.31,0c-.19,1.7-.76,7-.76,11.3,0,5.12.32,8.54,5.7,16.91a44,44,0,0,1,7.24,22.93c0,6-3.83,15.93-6.9,22.26s-6.34,8.25-6.34,8.25h-14.19s-3.27-1.92-6.34-8.25-6.9-16.31-6.9-22.26A44,44,0,0,1,1677.79,907.88Z" style="fill:none"/><path d="M1618.81,902.47c5.37-8.37,5.69-11.79,5.69-16.92,0-4.25-.56-9.6-.75-11.29a12.84,12.84,0,1,1,16.3,0c-.19,1.69-.75,7-.75,11.29,0,5.13.32,8.55,5.7,16.92a44.07,44.07,0,0,1,7.24,22.93c0,6-3.84,15.92-6.91,22.25s-6.33,8.26-6.33,8.26h-14.2s-3.26-1.92-6.33-8.26-6.91-16.3-6.91-22.25a44,44,0,0,1,7.25-22.93" style="fill:#006089"/><path d="M1618.81,902.47c5.37-8.37,5.69-11.79,5.69-16.92,0-4.25-.56-9.6-.75-11.29a12.84,12.84,0,1,1,16.3,0c-.19,1.69-.75,7-.75,11.29,0,5.13.32,8.55,5.7,16.92a44.07,44.07,0,0,1,7.24,22.93c0,6-3.84,15.92-6.91,22.25s-6.33,8.26-6.33,8.26h-14.2s-3.26-1.92-6.33-8.26-6.91-16.3-6.91-22.25A44,44,0,0,1,1618.81,902.47Z" style="fill:none"/><path d="M1572,932c5.37-8.37,5.69-11.8,5.69-16.92,0-4.25-.56-9.6-.75-11.3a12.84,12.84,0,1,1,16.31,0,112.18,112.18,0,0,0-.76,11.3c0,5.12.32,8.55,5.7,16.92a44,44,0,0,1,7.24,22.92c0,6-3.84,15.93-6.91,22.26s-6.33,8.25-6.33,8.25H1578s-3.26-1.92-6.33-8.25-6.91-16.31-6.91-22.26A44,44,0,0,1,1572,932" style="fill:#7ec252"/><path d="M1572,932c5.37-8.37,5.69-11.8,5.69-16.92,0-4.25-.56-9.6-.75-11.3a12.84,12.84,0,1,1,16.31,0,112.18,112.18,0,0,0-.76,11.3c0,5.12.32,8.55,5.7,16.92a44,44,0,0,1,7.24,22.92c0,6-3.84,15.93-6.91,22.26s-6.33,8.25-6.33,8.25H1578s-3.26-1.92-6.33-8.25-6.91-16.31-6.91-22.26A44,44,0,0,1,1572,932Z" style="fill:none"/><path d="M1645.62,940.06c5.38-8.37,5.7-11.79,5.7-16.92,0-4.25-.56-9.6-.75-11.29a12.84,12.84,0,1,1,16.3,0c-.19,1.69-.75,7-.75,11.29,0,5.13.32,8.55,5.7,16.92a44.07,44.07,0,0,1,7.24,22.93c0,6-3.84,15.92-6.91,22.25s-6.33,8.25-6.33,8.25h-14.2s-3.26-1.92-6.33-8.25-6.91-16.3-6.91-22.25a44.07,44.07,0,0,1,7.24-22.93" style="fill:#ffca05"/><path d="M1645.62,940.06c5.38-8.37,5.7-11.79,5.7-16.92,0-4.25-.56-9.6-.75-11.29a12.84,12.84,0,1,1,16.3,0c-.19,1.69-.75,7-.75,11.29,0,5.13.32,8.55,5.7,16.92a44.07,44.07,0,0,1,7.24,22.93c0,6-3.84,15.92-6.91,22.25s-6.33,8.25-6.33,8.25h-14.2s-3.26-1.92-6.33-8.25-6.91-16.3-6.91-22.25A44.07,44.07,0,0,1,1645.62,940.06Z" style="fill:none"/><path d="M1601.39,959.63c5.38-8.38,5.69-11.8,5.69-16.92,0-4.26-.56-9.6-.75-11.3a12.84,12.84,0,1,1,16.31,0c-.19,1.7-.76,7-.76,11.3,0,5.12.32,8.54,5.7,16.92a44,44,0,0,1,7.24,22.92c0,6-3.84,15.93-6.9,22.26s-6.34,8.25-6.34,8.25h-14.2s-3.26-1.92-6.33-8.25-6.9-16.31-6.9-22.26a44,44,0,0,1,7.24-22.92" style="fill:#e01b22"/><path d="M1601.39,959.63c5.38-8.38,5.69-11.8,5.69-16.92,0-4.26-.56-9.6-.75-11.3a12.84,12.84,0,1,1,16.31,0c-.19,1.7-.76,7-.76,11.3,0,5.12.32,8.54,5.7,16.92a44,44,0,0,1,7.24,22.92c0,6-3.84,15.93-6.9,22.26s-6.34,8.25-6.34,8.25h-14.2s-3.26-1.92-6.33-8.25-6.9-16.31-6.9-22.26A44,44,0,0,1,1601.39,959.63Z" style="fill:none"/><path d="M1568.94,1010.66a40,40,0,1,0-40,40,40,40,0,0,0,40-40" style="fill:#95d5d0"/><path d="M1568.94,1010.66a40,40,0,1,0-40,40A40,40,0,0,0,1568.94,1010.66Z" style="fill:none"/><path d="M1536.36,1003.8a5.22,5.22,0,1,0-5.22,5.22,5.22,5.22,0,0,0,5.22-5.22" style="fill:#007f68"/><path d="M1527,1024.67a5.22,5.22,0,1,0-5.22,5.21,5.22,5.22,0,0,0,5.22-5.21" style="fill:#007f68"/><path d="M1548.44,1024.67a5.22,5.22,0,1,0-5.22,5.21,5.22,5.22,0,0,0,5.22-5.21" style="fill:#007f68"/><path d="M176.94,793a8.78,8.78,0,0,1,8.79,8.78,8.93,8.93,0,0,1-1.78,5.28l-12,15.58H184.8a1.4,1.4,0,0,1,0,2.79H169.18a1.42,1.42,0,0,1-1.19-2.2l13.77-17.82a5.88,5.88,0,0,0,1.22-3.63,6.06,6.06,0,1,0-12.12,0,1.39,1.39,0,0,1-2.78,0,8.82,8.82,0,0,1,8.86-8.78m0-2a10.83,10.83,0,0,0-10.86,10.78,3.39,3.39,0,0,0,6.78,0,4.06,4.06,0,1,1,8.12,0,3.9,3.9,0,0,1-.81,2.42L166.41,822l-.07.09-.06.09a3.5,3.5,0,0,0-.07,3.51,3.36,3.36,0,0,0,3,1.73H184.8a3.4,3.4,0,0,0,0-6.79H176l9.51-12.36a10.94,10.94,0,0,0,2.19-6.5A10.8,10.8,0,0,0,176.94,791Z" style="fill:#702f74"/></svg>