<svg xmlns="http://www.w3.org/2000/svg" viewBox="0 0 195 100"><g id="Botones"><path d="M155.17,7.24H44.7A35.38,35.38,0,0,0,18.78,18.59c-.75.66-1.49,1.37-2.26,2.19a35.26,35.26,0,0,0-12,26.48V61a35.34,35.34,0,0,0,35.29,35.3H150.3a35.37,35.37,0,0,0,25.93-11.36h0l.27-.23c.66-.6,1.32-1.24,2-2a35.27,35.27,0,0,0,11.93-26.44V42.54a35.34,35.34,0,0,0-35.29-35.3Z" style="fill:#72ae2b;stroke:#72ae2b;stroke-miterlimit:10;stroke-width:6px"/><path d="M157.76.73H47.3A35.42,35.42,0,0,0,21.37,12.08c-.75.66-1.49,1.37-2.26,2.19a35.28,35.28,0,0,0-12,26.48V54.46a35.34,35.34,0,0,0,35.3,35.3H152.89A35.4,35.4,0,0,0,178.83,78.4h0a3,3,0,0,0,.27-.23c.67-.59,1.33-1.24,2-2a35.28,35.28,0,0,0,11.94-26.44V36A35.35,35.35,0,0,0,157.76.73Z" style="fill:red"/><rect x="15" y="3.73" width="175.06" height="78.3" rx="32.3" style="fill:#81cdc7"/><rect x="10.13" y="8.46" width="175.06" height="78.3" rx="32.3" style="fill:#039c90"/><path d="M187.62,52.58V37.91c0-17.57-14.68-31.82-32.79-31.82H45.35a33.4,33.4,0,0,0-18.91,5.83l150.66,64A31.31,31.31,0,0,0,187.62,52.58Z" style="fill:#35b0a6"/><path d="M26.44,11.92a31.53,31.53,0,0,0-13.88,26V52.58c0,17.57,14.68,31.82,32.79,31.82H154.83a33.25,33.25,0,0,0,22.27-8.47Z" style="fill:#1da69b"/><path d="M47.42,59a1.15,1.15,0,0,1-.75-.27,1,1,0,0,1-.31-.78V35.2a1,1,0,0,1,.31-.74,1.1,1.1,0,0,1,.75-.28,1,1,0,0,1,.93.5L59.51,54V35.2a1,1,0,0,1,.31-.77,1.18,1.18,0,0,1,.77-.28,1.09,1.09,0,0,1,.73.28,1,1,0,0,1,.31.77V58a1,1,0,0,1-.33.76,1.12,1.12,0,0,1-.74.29,1,1,0,0,1-.93-.56L48.51,39.19V58a1,1,0,0,1-.32.78A1.15,1.15,0,0,1,47.42,59Z" style="fill:#039c90;stroke:#039c90;stroke-miterlimit:10"/><path d="M66,59a1,1,0,0,1-.79-.31,1.09,1.09,0,0,1-.27-.74,1,1,0,0,1,1.06-1h1.18V36.3H66a1,1,0,0,1-.76-.29A1,1,0,0,1,65,35.3a1.12,1.12,0,0,1,.28-.76,1,1,0,0,1,.75-.32h4.45a.9.9,0,0,1,.74.32,1.12,1.12,0,0,1,.28.76,1,1,0,0,1-.26.72,1,1,0,0,1-.76.28H69.26V56.91h1.18a1,1,0,0,1,.78.31,1,1,0,0,1,.27.73,1.09,1.09,0,0,1-.27.74,1,1,0,0,1-.78.31Z" style="fill:#039c90;stroke:#039c90;stroke-miterlimit:10"/><path d="M82.41,59.07a1.05,1.05,0,0,1-.6-.2,1,1,0,0,1-.4-.55Q74.16,35.24,74.19,35.2a.93.93,0,0,1,.33-.73,1.12,1.12,0,0,1,.75-.29.94.94,0,0,1,1,.72l6.17,19.69,6.38-19.72a.91.91,0,0,1,.94-.69,1.12,1.12,0,0,1,.78.3,1,1,0,0,1,.33.76L83.43,58.32A1,1,0,0,1,82.41,59.07Z" style="fill:#039c90;stroke:#039c90;stroke-miterlimit:10"/><path d="M93.94,59A1,1,0,0,1,92.88,58V35.3a1,1,0,0,1,1.06-1h9.75a1,1,0,0,1,.8.31,1.09,1.09,0,0,1,0,1.48,1,1,0,0,1-.8.31H95V46h8.69a1,1,0,0,1,.77.31,1,1,0,0,1,.28.73,1.1,1.1,0,0,1-.28.76,1,1,0,0,1-.77.32H95v8.78h8.72a1,1,0,0,1,.78.31,1.2,1.2,0,0,1,0,1.52.94.94,0,0,1-.78.32Z" style="fill:#039c90;stroke:#039c90;stroke-miterlimit:10"/><path d="M108.71,59a1,1,0,0,1-.77-.29,1.09,1.09,0,0,1-.28-.79V35.27a1,1,0,0,1,.31-.8,1.08,1.08,0,0,1,.74-.29,1,1,0,0,1,1,1.09V56.85h9.93a1,1,0,0,1,.78.32,1.11,1.11,0,0,1,.27.75,1.16,1.16,0,0,1-.27.76,1,1,0,0,1-.78.32Z" style="fill:#039c90;stroke:#039c90;stroke-miterlimit:10"/><path d="M134.27,52.37a1,1,0,0,1,.31-.76,1.09,1.09,0,0,1,.72-.29,1.12,1.12,0,0,1,.73.27,1,1,0,0,1,.36.75,4.7,4.7,0,1,0,8-3.3,4.64,4.64,0,0,0-3.33-1.4.86.86,0,0,1-.86-.53,1.19,1.19,0,0,1,0-1,.86.86,0,0,1,.83-.52,4.69,4.69,0,0,0,3.33-8,4.67,4.67,0,0,0-8,3.33,1,1,0,0,1-.33.76,1.09,1.09,0,0,1-.72.29,1.19,1.19,0,0,1-.75-.27,1,1,0,0,1-.35-.75,6.64,6.64,0,0,1,2-4.86,6.56,6.56,0,0,1,4.84-2,6.48,6.48,0,0,1,4.8,2,6.57,6.57,0,0,1,2,4.82,6.69,6.69,0,0,1-.84,3.27,6.76,6.76,0,0,1-2.3,2.48A6.73,6.73,0,0,1,147,49.1a6.8,6.8,0,0,1-.07,6.67,6.83,6.83,0,0,1-2.47,2.48,6.65,6.65,0,0,1-3.41.94,6.78,6.78,0,0,1-6.82-6.82Z" style="fill:#039c90;stroke:#039c90;stroke-miterlimit:10"/><path d="M49.6,55.61a1.08,1.08,0,0,1-.75-.28,1,1,0,0,1-.32-.78V31.81a1,1,0,0,1,.31-.74,1.08,1.08,0,0,1,.76-.28,1,1,0,0,1,.93.49L61.68,50.57V31.81A1,1,0,0,1,62,31a1.18,1.18,0,0,1,.77-.28,1.07,1.07,0,0,1,.72.28,1,1,0,0,1,.31.78V54.55a1,1,0,0,1-.32.76,1.08,1.08,0,0,1-.74.3,1,1,0,0,1-.93-.56L50.69,35.79V54.55a1,1,0,0,1-.32.78A1.13,1.13,0,0,1,49.6,55.61Z" style="fill:#fff;stroke:#fff;stroke-miterlimit:10"/><path d="M68.17,55.61a1,1,0,0,1-.79-.32,1.1,1.1,0,0,1,0-1.47,1,1,0,0,1,.79-.3h1.18V32.91H68.17a1,1,0,0,1-.76-.3,1,1,0,0,1-.27-.71,1.09,1.09,0,0,1,.28-.75.94.94,0,0,1,.75-.33h4.45a.92.92,0,0,1,.74.33,1.09,1.09,0,0,1,.28.75,1,1,0,0,1-.26.72,1,1,0,0,1-.76.29H71.44V53.52h1.18a1,1,0,0,1,.78.3,1.14,1.14,0,0,1,0,1.47,1,1,0,0,1-.78.32Z" style="fill:#fff;stroke:#fff;stroke-miterlimit:10"/><path d="M84.59,55.67a1.11,1.11,0,0,1-.61-.2,1,1,0,0,1-.39-.55q-7.25-23.08-7.23-23.11a1,1,0,0,1,.34-.74,1.11,1.11,0,0,1,.75-.28,1,1,0,0,1,1,.71l6.17,19.69L91,31.47a.9.9,0,0,1,.94-.68,1.2,1.2,0,0,1,.78.29,1,1,0,0,1,.33.76L85.61,54.92A1,1,0,0,1,84.59,55.67Z" style="fill:#fff;stroke:#fff;stroke-miterlimit:10"/><path d="M96.11,55.64a1,1,0,0,1-1-1V31.9a1.07,1.07,0,0,1,.28-.77,1,1,0,0,1,.77-.28h9.76a1,1,0,0,1,.8.31,1.07,1.07,0,0,1,.28.74A1,1,0,0,1,105.87,33H97.15v9.62h8.69a1,1,0,0,1,.77.31,1,1,0,0,1,.28.73,1.08,1.08,0,0,1-.28.76.94.94,0,0,1-.77.32H97.15v8.79h8.72a1,1,0,0,1,.78.31,1.1,1.1,0,0,1,.27.75,1.15,1.15,0,0,1-.27.77,1,1,0,0,1-.78.32Z" style="fill:#fff;stroke:#fff;stroke-miterlimit:10"/><path d="M110.89,55.61a1,1,0,0,1-.77-.3,1.09,1.09,0,0,1-.28-.79V31.87a1,1,0,0,1,.31-.8,1.05,1.05,0,0,1,.74-.28,1,1,0,0,1,.73.28,1,1,0,0,1,.31.8V53.45h9.93a1,1,0,0,1,.78.32,1.19,1.19,0,0,1,0,1.51,1,1,0,0,1-.78.33Z" style="fill:#fff;stroke:#fff;stroke-miterlimit:10"/><path d="M136.44,49a1,1,0,0,1,.32-.76,1,1,0,0,1,.72-.29,1.14,1.14,0,0,1,.73.27.93.93,0,0,1,.35.75,4.71,4.71,0,1,0,8-3.3,4.68,4.68,0,0,0-3.33-1.4.85.85,0,0,1-.86-.53,1.19,1.19,0,0,1,0-1,.87.87,0,0,1,.83-.52,4.56,4.56,0,0,0,3.33-1.36,4.71,4.71,0,0,0,0-6.64,4.73,4.73,0,0,0-6.66,0,4.43,4.43,0,0,0-1.34,3.33,1,1,0,0,1-.33.77,1.08,1.08,0,0,1-.73.28,1.19,1.19,0,0,1-.74-.27.94.94,0,0,1-.36-.75,6.79,6.79,0,0,1,6.83-6.85,6.52,6.52,0,0,1,4.8,2,6.61,6.61,0,0,1,2,4.82,6.69,6.69,0,0,1-.84,3.27,7,7,0,0,1-2.3,2.49,6.8,6.8,0,0,1,2.23,9.13,6.93,6.93,0,0,1-2.47,2.49,6.75,6.75,0,0,1-3.41.94A6.79,6.79,0,0,1,136.44,49Z" style="fill:#fff;stroke:#fff;stroke-miterlimit:10"/></g></svg>