<svg xmlns="http://www.w3.org/2000/svg" viewBox="0 0 132 64"><g id="Botones"><path d="M106.43.79H29a24.79,24.79,0,0,0-18.17,8c-.53.46-1.05,1-1.59,1.53A24.75,24.75,0,0,0,.82,28.85v9.61A24.77,24.77,0,0,0,25.57,63.21H103a24.77,24.77,0,0,0,18.18-8h0l.19-.16c.46-.42.92-.87,1.41-1.39a24.74,24.74,0,0,0,8.37-18.54V25.54A24.77,24.77,0,0,0,106.43.79Z" style="fill:#fff"/><rect x="6.34" y="2.89" width="122.74" height="54.9" rx="22.64" style="fill:#96d1f0"/><rect x="2.92" y="6.21" width="122.74" height="54.9" rx="22.64" style="fill:#0993dc"/><path d="M127.37,37.14V26.86c0-12.32-10.29-22.31-23-22.31H27.62A23.39,23.39,0,0,0,14.36,8.64L120,53.51A21.93,21.93,0,0,0,127.37,37.14Z" style="fill:#62bae9"/><path d="M14.36,8.64A22.1,22.1,0,0,0,4.63,26.86V37.14c0,12.32,10.29,22.31,23,22.31h76.76A23.3,23.3,0,0,0,120,53.51Z" style="fill:#49afe5"/><path d="M30.79,41.65a.84.84,0,0,1-.53-.19.68.68,0,0,1-.22-.55V25a.65.65,0,0,1,.22-.52.76.76,0,0,1,.53-.2.73.73,0,0,1,.65.35l7.82,13.52V25a.67.67,0,0,1,.22-.54.8.8,0,0,1,.54-.2.76.76,0,0,1,.51.2.71.71,0,0,1,.22.54V40.91a.7.7,0,0,1-.23.53.77.77,0,0,1-.52.21.67.67,0,0,1-.65-.4l-7.8-13.5V40.91a.69.69,0,0,1-.23.55A.8.8,0,0,1,30.79,41.65Z" style="fill:#0993dc;stroke:#0993dc;stroke-miterlimit:10"/><path d="M43.81,41.65a.74.74,0,1,1,0-1.47h.83V25.73h-.83a.7.7,0,0,1-.54-.21.67.67,0,0,1-.19-.49.79.79,0,0,1,.2-.53.66.66,0,0,1,.53-.23h3.12a.64.64,0,0,1,.52.23.78.78,0,0,1,.19.53.66.66,0,0,1-.71.7H46.1V40.18h.83a.69.69,0,0,1,.54.21.81.81,0,0,1,0,1,.69.69,0,0,1-.54.22Z" style="fill:#0993dc;stroke:#0993dc;stroke-miterlimit:10"/><path d="M55.32,41.69a.78.78,0,0,1-.43-.14.69.69,0,0,1-.27-.39Q49.54,25,49.55,25a.63.63,0,0,1,.24-.51.75.75,0,0,1,.52-.21.66.66,0,0,1,.68.51l4.33,13.8,4.47-13.82a.63.63,0,0,1,.66-.49.81.81,0,0,1,.55.21.7.7,0,0,1,.23.53L56,41.16A.69.69,0,0,1,55.32,41.69Z" style="fill:#0993dc;stroke:#0993dc;stroke-miterlimit:10"/><path d="M63.4,41.67a.72.72,0,0,1-.74-.74V25a.77.77,0,0,1,.2-.55.73.73,0,0,1,.54-.19h6.84a.72.72,0,0,1,.56.22A.75.75,0,0,1,71,25a.77.77,0,0,1-.2.52.75.75,0,0,1-.56.21H64.13v6.75h6.09a.71.71,0,0,1,.54.22.75.75,0,0,1,.19.51.79.79,0,0,1-.19.54.67.67,0,0,1-.54.22H64.13v6.16h6.11a.68.68,0,0,1,.55.22.83.83,0,0,1,0,1.06.69.69,0,0,1-.55.23Z" style="fill:#0993dc;stroke:#0993dc;stroke-miterlimit:10"/><path d="M73.76,41.65a.7.7,0,0,1-.54-.21.77.77,0,0,1-.2-.55V25a.69.69,0,0,1,.22-.55.73.73,0,0,1,.52-.21.73.73,0,0,1,.73.76V40.14h7a.68.68,0,0,1,.55.22.82.82,0,0,1,.19.53.86.86,0,0,1-.19.53.69.69,0,0,1-.55.23Z" style="fill:#0993dc;stroke:#0993dc;stroke-miterlimit:10"/><path d="M91.24,30.11l5-5.52a1.25,1.25,0,0,1,.83-.37.66.66,0,0,1,.49.22.68.68,0,0,1,.22.5v16a.72.72,0,0,1-.23.55.72.72,0,0,1-1,0,.68.68,0,0,1-.23-.55V26.79l-4,4.37a.66.66,0,0,1-.55.21.75.75,0,0,1-.5-.22,1,1,0,0,1-.24-.49A.62.62,0,0,1,91.24,30.11Z" style="fill:#0993dc;stroke:#0993dc;stroke-miterlimit:10"/><path d="M32.31,39.26a.76.76,0,0,1-.52-.19.66.66,0,0,1-.22-.54v-16a.67.67,0,0,1,.21-.52.79.79,0,0,1,.53-.2.7.7,0,0,1,.65.35l7.83,13.52V22.58A.67.67,0,0,1,41,22a.8.8,0,0,1,.54-.2.72.72,0,0,1,.5.2.67.67,0,0,1,.22.54v16a.67.67,0,0,1-.23.53.72.72,0,0,1-.52.2.65.65,0,0,1-.64-.39l-7.81-13.5V38.53a.66.66,0,0,1-.22.54A.79.79,0,0,1,32.31,39.26Z" style="fill:#fff;stroke:#fff;stroke-miterlimit:10"/><path d="M45.33,39.26a.72.72,0,0,1-.55-.21.76.76,0,0,1-.19-.52.74.74,0,0,1,.19-.52.72.72,0,0,1,.55-.21h.83V23.35h-.83a.66.66,0,0,1-.53-.21.67.67,0,0,1-.19-.49.77.77,0,0,1,.2-.54.66.66,0,0,1,.52-.22h3.12a.65.65,0,0,1,.52.22.82.82,0,0,1,.2.54.67.67,0,0,1-.72.7h-.82V37.8h.82A.71.71,0,0,1,49,38a.74.74,0,0,1,.19.52.76.76,0,0,1-.19.52.71.71,0,0,1-.55.21Z" style="fill:#fff;stroke:#fff;stroke-miterlimit:10"/><path d="M56.85,39.31a.76.76,0,0,1-.43-.14.71.71,0,0,1-.28-.39q-5.07-16.17-5.06-16.2a.68.68,0,0,1,.23-.52.83.83,0,0,1,.53-.2.66.66,0,0,1,.68.51l4.33,13.8,4.47-13.83a.63.63,0,0,1,.65-.48.79.79,0,0,1,.55.21.66.66,0,0,1,.24.53l-5.2,16.18A.69.69,0,0,1,56.85,39.31Z" style="fill:#fff;stroke:#fff;stroke-miterlimit:10"/><path d="M64.93,39.29a.73.73,0,0,1-.54-.21.76.76,0,0,1-.2-.53V22.65a.67.67,0,0,1,.74-.74h6.84a.73.73,0,0,1,.76.74.73.73,0,0,1-.21.52.72.72,0,0,1-.55.21H65.65v6.75h6.09a.7.7,0,0,1,.74.73.79.79,0,0,1-.19.54.71.71,0,0,1-.55.22H65.65v6.16h6.12a.66.66,0,0,1,.54.22.75.75,0,0,1,.19.53.77.77,0,0,1-.19.53.67.67,0,0,1-.54.23Z" style="fill:#fff;stroke:#fff;stroke-miterlimit:10"/><path d="M75.29,39.26a.7.7,0,0,1-.55-.2.78.78,0,0,1-.19-.56V22.62a.72.72,0,0,1,.22-.56.76.76,0,0,1,1,0,.75.75,0,0,1,.21.56V37.76h7a.66.66,0,0,1,.54.22.76.76,0,0,1,.19.52.81.81,0,0,1-.19.54.66.66,0,0,1-.54.22Z" style="fill:#fff;stroke:#fff;stroke-miterlimit:10"/><path d="M92.77,27.73l5-5.52a1.22,1.22,0,0,1,.83-.37.68.68,0,0,1,.5.22.7.7,0,0,1,.22.5v16a.72.72,0,0,1-.23.55.74.74,0,0,1-1,0,.72.72,0,0,1-.23-.55V24.41l-4,4.37a.67.67,0,0,1-.55.21.69.69,0,0,1-.5-.23.93.93,0,0,1-.25-.48A.63.63,0,0,1,92.77,27.73Z" style="fill:#fff;stroke:#fff;stroke-miterlimit:10"/></g></svg>