<svg xmlns="http://www.w3.org/2000/svg" viewBox="0 0 132 64"><g id="Botones"><path d="M109.41.79H25.68a20.69,20.69,0,0,0-16,8,21.16,21.16,0,0,0-1.44,1.59A26.55,26.55,0,0,0,.82,29.1v9.22c0,13.73,9.77,24.89,21.77,24.89h83.73a20.68,20.68,0,0,0,16-8l0,0,.17-.16c.41-.43.82-.89,1.26-1.42a26.57,26.57,0,0,0,7.38-18.66V25.68C131.18,12,121.41.79,109.41.79Z" style="fill:#fff"/><rect x="5.17" y="2.23" width="124.74" height="56.1" rx="28.05" style="fill:#facd90"/><rect x="2.08" y="5.66" width="124.74" height="56.1" rx="28.05" style="fill:#f59c22"/><path d="M128.37,37V27C128.37,14.29,119.05,4,107.55,4H24.45a19.4,19.4,0,0,0-12,4.23L121.69,53.9A24.2,24.2,0,0,0,128.37,37Z" style="fill:#f7b04e"/><path d="M12.44,8.18A23.89,23.89,0,0,0,3.63,27V37c0,12.75,9.32,23.09,20.82,23.09h83.1a19.65,19.65,0,0,0,14.14-6.15Z" style="fill:#f6a639"/><path d="M29.07,45.54a6.61,6.61,0,0,1-5.18-2.28,8.17,8.17,0,0,1-2-5.78,1.17,1.17,0,0,1,.29-.84.87.87,0,0,1,.67-.31.94.94,0,0,1,.73.34,1.39,1.39,0,0,1,.3.95,5.79,5.79,0,0,0,1.44,4.11,5,5,0,0,0,3.78,1.54,5.21,5.21,0,0,0,3.95-1.61,5.73,5.73,0,0,0,1.51-4.18V19.65a1.14,1.14,0,0,1,.3-.84,1,1,0,0,1,.7-.31,1,1,0,0,1,.69.31,1.14,1.14,0,0,1,.3.84V37.48a8.15,8.15,0,0,1-2.11,5.76A7.16,7.16,0,0,1,29.07,45.54Z" style="fill:#f59c22"/><path d="M46.89,45.54a7.27,7.27,0,0,1-1.13-.09,7.18,7.18,0,0,1-1.26-.36,6.36,6.36,0,0,1-1.3-.66,5.72,5.72,0,0,1-1.2-1,6.85,6.85,0,0,1-1-1.46,8.27,8.27,0,0,1-.67-2,12,12,0,0,1-.25-2.56V19.72a1.17,1.17,0,0,1,.31-.87,1,1,0,0,1,.72-.31,1,1,0,0,1,.73.31,1.21,1.21,0,0,1,.3.87V37.37a7,7,0,0,0,1.2,4.39A4.61,4.61,0,0,0,47,43.27a6.92,6.92,0,0,0,1.37-.14,5.25,5.25,0,0,0,1.42-.54,4.45,4.45,0,0,0,1.3-1A4.92,4.92,0,0,0,52,39.86a7.87,7.87,0,0,0,.36-2.49V19.65a1.14,1.14,0,0,1,.31-.84,1,1,0,0,1,.73-.31,1,1,0,0,1,.7.31,1.14,1.14,0,0,1,.3.84V37.37a9.93,9.93,0,0,1-.56,3.44,7,7,0,0,1-1.38,2.36,7.36,7.36,0,0,1-1.89,1.43,8.25,8.25,0,0,1-2,.75A7.93,7.93,0,0,1,46.89,45.54Z" style="fill:#f59c22"/><path d="M64.84,45.58c-2.21,0-3.94-1.2-5.17-3.59s-1.85-5.73-1.85-10a22.24,22.24,0,0,1,1-6.86,11.45,11.45,0,0,1,2.75-4.77,5.46,5.46,0,0,1,3.93-1.72,4.61,4.61,0,0,1,2.29.58,5,5,0,0,1,1.66,1.46,8.75,8.75,0,0,1,1,1.77,6.27,6.27,0,0,1,.45,1.63,1.23,1.23,0,0,1-.26,1,1,1,0,0,1-.77.35.89.89,0,0,1-.62-.24,1.09,1.09,0,0,1-.34-.73,4.15,4.15,0,0,0-1.16-2.47,3,3,0,0,0-3.42-.75,5.15,5.15,0,0,0-1.26.75,5.71,5.71,0,0,0-1.22,1.4,11.19,11.19,0,0,0-1,2.05,13.73,13.73,0,0,0-.73,2.87A25,25,0,0,0,59.82,32a21,21,0,0,0,1.32,8.28c.88,2,2.09,3,3.64,3a3.91,3.91,0,0,0,3.58-2.32,17,17,0,0,0,1.37-7.06H67a.87.87,0,0,1-.73-.34,1.34,1.34,0,0,1-.27-.84,1.24,1.24,0,0,1,.27-.79.89.89,0,0,1,.73-.33h3.75a1,1,0,0,1,.78.31,1.21,1.21,0,0,1,.28.85q0,6.23-1.75,9.54A5.61,5.61,0,0,1,64.84,45.58Z" style="fill:#f59c22"/><path d="M75.52,45.51a1,1,0,0,1-.73-.32,1.15,1.15,0,0,1-.32-.83,2.24,2.24,0,0,1,.06-.38L81.3,19.39a1,1,0,0,1,1-.82.94.94,0,0,1,.58.21,1.09,1.09,0,0,1,.38.57v0L90,44a2.31,2.31,0,0,1,.06.39,1.05,1.05,0,0,1-.32.79,1,1,0,0,1-.74.32c-.48,0-.79-.29-.93-.85l-1.77-6.47h-8l-1.78,6.5A1,1,0,0,1,75.52,45.51Zm3.37-9.59h6.8L82.27,23.48Z" style="fill:#f59c22"/><path d="M92.86,45.58a1,1,0,0,1-.72-.3,1.11,1.11,0,0,1-.31-.85V19.75a1.3,1.3,0,0,1,.29-.88,1,1,0,0,1,.77-.33h5.72q6.38,0,6.37,6.75a8.63,8.63,0,0,1-1.3,4.83A6.37,6.37,0,0,1,100,32.79l5.37,11.09a1.66,1.66,0,0,1,.17.55,1.06,1.06,0,0,1-.33.79,1,1,0,0,1-.74.32.9.9,0,0,1-.86-.57L97.9,33.07h-4V44.43a1.14,1.14,0,0,1-.3.85A1,1,0,0,1,92.86,45.58Zm1-14.85h4.54a5.18,5.18,0,0,0,3.4-1.66,5.76,5.76,0,0,0,1.11-3.78,7.48,7.48,0,0,0-.29-2.12,3.66,3.66,0,0,0-.62-1.3,2.3,2.3,0,0,0-1-.66,4.32,4.32,0,0,0-1-.27,10.72,10.72,0,0,0-1.08,0H93.89Z" style="fill:#f59c22"/><path d="M31.11,43.7a6.63,6.63,0,0,1-5.19-2.28,8.14,8.14,0,0,1-2-5.78,1.17,1.17,0,0,1,.29-.84.89.89,0,0,1,.67-.3,1,1,0,0,1,.73.33,1.39,1.39,0,0,1,.3,1,5.79,5.79,0,0,0,1.44,4.11,4.92,4.92,0,0,0,3.78,1.54,5.21,5.21,0,0,0,3.95-1.6,5.81,5.81,0,0,0,1.51-4.19V17.81a1.17,1.17,0,0,1,.29-.84,1,1,0,0,1,.71-.3,1,1,0,0,1,.69.3,1.14,1.14,0,0,1,.3.84V35.64a8.15,8.15,0,0,1-2.11,5.77A7.15,7.15,0,0,1,31.11,43.7Z" style="fill:#fff;stroke:#fff;stroke-miterlimit:10"/><path d="M48.93,43.7a7.49,7.49,0,0,1-1.14-.09,6.12,6.12,0,0,1-1.26-.36,6.55,6.55,0,0,1-1.29-.66,6,6,0,0,1-1.2-1,7.19,7.19,0,0,1-1-1.47,8.12,8.12,0,0,1-.67-2,12,12,0,0,1-.25-2.55V17.88a1.17,1.17,0,0,1,.31-.87,1,1,0,0,1,.72-.31,1,1,0,0,1,.73.31,1.21,1.21,0,0,1,.3.87V35.54a7,7,0,0,0,1.2,4.38A4.57,4.57,0,0,0,49,41.43a6.25,6.25,0,0,0,1.37-.14,5.55,5.55,0,0,0,1.42-.53,4.66,4.66,0,0,0,1.3-1A4.74,4.74,0,0,0,54,38a7.85,7.85,0,0,0,.36-2.48V17.81A1.1,1.1,0,0,1,54.7,17a1,1,0,0,1,.73-.3,1,1,0,0,1,.7.3,1.14,1.14,0,0,1,.3.84V35.54A9.91,9.91,0,0,1,55.87,39a6.94,6.94,0,0,1-1.39,2.37,7.33,7.33,0,0,1-1.88,1.42,7.47,7.47,0,0,1-2,.75A7.93,7.93,0,0,1,48.93,43.7Z" style="fill:#fff;stroke:#fff;stroke-miterlimit:10"/><path d="M66.88,43.74q-3.33,0-5.17-3.58t-1.86-10a22.18,22.18,0,0,1,1-6.86,11.59,11.59,0,0,1,2.74-4.78,5.5,5.5,0,0,1,3.94-1.72,4.66,4.66,0,0,1,2.28.58,5,5,0,0,1,1.67,1.47,9,9,0,0,1,1,1.76,6.23,6.23,0,0,1,.45,1.64,1.21,1.21,0,0,1-.26,1,1,1,0,0,1-.77.36,1,1,0,0,1-.63-.25,1.11,1.11,0,0,1-.33-.73,4.17,4.17,0,0,0-1.16-2.47,3.06,3.06,0,0,0-2.24-1,3.19,3.19,0,0,0-1.18.24,5,5,0,0,0-1.26.75,5.51,5.51,0,0,0-1.22,1.4,11.87,11.87,0,0,0-1,2.05,14.43,14.43,0,0,0-.72,2.87,25.16,25.16,0,0,0-.26,3.72,21,21,0,0,0,1.32,8.28q1.32,3,3.64,3a3.94,3.94,0,0,0,3.58-2.33,16.77,16.77,0,0,0,1.36-7H69a.87.87,0,0,1-.73-.35,1.31,1.31,0,0,1-.27-.83,1.22,1.22,0,0,1,.27-.79.86.86,0,0,1,.73-.34h3.75a1,1,0,0,1,.77.31,1.17,1.17,0,0,1,.29.85q0,6.23-1.75,9.55A5.63,5.63,0,0,1,66.88,43.74Z" style="fill:#fff;stroke:#fff;stroke-miterlimit:10"/><path d="M77.56,43.67a1,1,0,0,1-.74-.32,1.16,1.16,0,0,1-.31-.82,2.31,2.31,0,0,1,.06-.39l6.77-24.59a1,1,0,0,1,1-.81.94.94,0,0,1,.58.21,1,1,0,0,1,.38.57v0L92,42.18a2.1,2.1,0,0,1,.06.38,1.09,1.09,0,0,1-.32.8,1,1,0,0,1-.74.31c-.48,0-.79-.28-.93-.85l-1.77-6.47h-8l-1.78,6.5A.94.94,0,0,1,77.56,43.67Zm3.37-9.59h6.79L84.31,21.65Z" style="fill:#fff;stroke:#fff;stroke-miterlimit:10"/><path d="M94.9,43.74a1,1,0,0,1-.72-.3,1.1,1.1,0,0,1-.31-.85V17.92a1.27,1.27,0,0,1,.29-.89,1,1,0,0,1,.77-.33h5.72q6.38,0,6.37,6.75a8.61,8.61,0,0,1-1.3,4.83A6.42,6.42,0,0,1,102.08,31L107.45,42a1.58,1.58,0,0,1,.16.55,1.07,1.07,0,0,1-.32.79,1,1,0,0,1-.74.32.9.9,0,0,1-.86-.57L99.94,31.24h-4V42.59a1.13,1.13,0,0,1-.3.85A1,1,0,0,1,94.9,43.74Zm1-14.85h4.54a5.18,5.18,0,0,0,3.4-1.66,5.81,5.81,0,0,0,1.1-3.78,7.56,7.56,0,0,0-.28-2.12,3.58,3.58,0,0,0-.63-1.3,2.21,2.21,0,0,0-1-.66,4.32,4.32,0,0,0-1-.27c-.28,0-.64,0-1.09,0h-5Z" style="fill:#fff;stroke:#fff;stroke-miterlimit:10"/></g></svg>