<svg xmlns="http://www.w3.org/2000/svg" viewBox="0 0 195 100"><g id="Botones"><path d="M154.35,6.73H43.89A35.42,35.42,0,0,0,18,18.08c-.74.66-1.49,1.37-2.26,2.19a35.28,35.28,0,0,0-12,26.48V60.46A35.34,35.34,0,0,0,39,95.76H149.48A35.4,35.4,0,0,0,175.42,84.4h0l.26-.23c.67-.59,1.33-1.24,2-2a35.3,35.3,0,0,0,11.93-26.44V42a35.35,35.35,0,0,0-35.3-35.3Z" style="fill:#72ae2b;stroke:#72ae2b;stroke-miterlimit:10;stroke-width:6px"/><path d="M159,1.24H48.52A35.42,35.42,0,0,0,22.59,12.59c-.74.66-1.49,1.37-2.26,2.19a35.3,35.3,0,0,0-12,26.48V55a35.35,35.35,0,0,0,35.3,35.3H154.11a35.4,35.4,0,0,0,25.94-11.36h0l.27-.23c.66-.59,1.32-1.24,2-2a35.3,35.3,0,0,0,11.93-26.44V36.54A35.34,35.34,0,0,0,159,1.24Z" style="fill:#fff"/><rect x="16.22" y="4.24" width="175.06" height="78.3" rx="32.3" style="fill:#96d1f0"/><rect x="11.35" y="8.97" width="175.06" height="78.3" rx="32.3" style="fill:#0993dc"/><path d="M188.84,53.09V38.42c0-17.57-14.68-31.82-32.78-31.82H46.58a33.36,33.36,0,0,0-18.91,5.83l150.66,64A31.3,31.3,0,0,0,188.84,53.09Z" style="fill:#62bae9"/><path d="M27.67,12.43a31.5,31.5,0,0,0-13.88,26V53.09c0,17.57,14.68,31.82,32.79,31.82H156.06a33.2,33.2,0,0,0,22.27-8.48Z" style="fill:#49afe5"/><path d="M51.09,59.51a1.15,1.15,0,0,1-.75-.27,1,1,0,0,1-.32-.78V35.71a1,1,0,0,1,.32-.74,1.1,1.1,0,0,1,.75-.28,1,1,0,0,1,.93.5L63.18,54.47V35.71a1,1,0,0,1,.31-.77,1.13,1.13,0,0,1,.77-.28,1,1,0,0,1,.72.28,1,1,0,0,1,.32.77V58.46a1,1,0,0,1-.33.76,1.12,1.12,0,0,1-.74.29A.94.94,0,0,1,63.3,59L52.18,39.7V58.46a1,1,0,0,1-.32.78A1.17,1.17,0,0,1,51.09,59.51Z" style="fill:#0993dc;stroke:#0993dc;stroke-miterlimit:10"/><path d="M69.66,59.51a1,1,0,0,1-.79-.31,1.09,1.09,0,0,1-.27-.74,1,1,0,0,1,1.06-1h1.18V36.81H69.66a1,1,0,0,1-.76-.29,1,1,0,0,1-.27-.71,1.12,1.12,0,0,1,.28-.76.93.93,0,0,1,.75-.32h4.45a.9.9,0,0,1,.74.32,1.12,1.12,0,0,1,.28.76,1.06,1.06,0,0,1-.26.72,1,1,0,0,1-.76.28H72.93V57.42h1.18a1,1,0,0,1,.78.31,1,1,0,0,1,.27.73,1.09,1.09,0,0,1-.27.74,1,1,0,0,1-.78.31Z" style="fill:#0993dc;stroke:#0993dc;stroke-miterlimit:10"/><path d="M86.08,59.58a1.05,1.05,0,0,1-.6-.2,1,1,0,0,1-.4-.55q-7.24-23.08-7.22-23.12a.93.93,0,0,1,.33-.73,1.12,1.12,0,0,1,.75-.29.94.94,0,0,1,1,.72L86.08,55.1l6.38-19.72a.91.91,0,0,1,.94-.69,1.14,1.14,0,0,1,.78.3,1,1,0,0,1,.33.75L87.1,58.83A1,1,0,0,1,86.08,59.58Z" style="fill:#0993dc;stroke:#0993dc;stroke-miterlimit:10"/><path d="M97.61,59.54a1.06,1.06,0,0,1-.76-.29,1,1,0,0,1-.3-.76V35.81a1,1,0,0,1,1.06-1.05h9.75a1,1,0,0,1,.8.31,1.12,1.12,0,0,1,0,1.48,1,1,0,0,1-.8.31H98.64v9.63h8.69a1,1,0,0,1,.77.31,1,1,0,0,1,.28.73,1.1,1.1,0,0,1-.28.76,1,1,0,0,1-.77.32H98.64v8.78h8.72a1,1,0,0,1,.78.31,1.2,1.2,0,0,1,0,1.52.94.94,0,0,1-.78.32Z" style="fill:#0993dc;stroke:#0993dc;stroke-miterlimit:10"/><path d="M112.38,59.51a1,1,0,0,1-.77-.29,1.09,1.09,0,0,1-.28-.79V35.78a1,1,0,0,1,.31-.8,1.08,1.08,0,0,1,.74-.29,1,1,0,0,1,1,1.09V57.36h9.93a1,1,0,0,1,.78.32,1.11,1.11,0,0,1,.27.75,1.18,1.18,0,0,1-.27.76,1,1,0,0,1-.78.32Z" style="fill:#0993dc;stroke:#0993dc;stroke-miterlimit:10"/><path d="M137.31,43.06l7.18-7.87a1.74,1.74,0,0,1,1.18-.53.94.94,0,0,1,.7.31,1,1,0,0,1,.32.71V58.49a1,1,0,0,1-.33.78,1,1,0,0,1-1.44,0,1,1,0,0,1-.32-.78V38.33l-5.73,6.23a1,1,0,0,1-.78.3,1,1,0,0,1-.71-.32,1.42,1.42,0,0,1-.35-.69A.88.88,0,0,1,137.31,43.06Z" style="fill:#0993dc;stroke:#0993dc;stroke-miterlimit:10"/><path d="M53.27,56.11a1.07,1.07,0,0,1-.75-.27,1,1,0,0,1-.32-.78V32.32a1,1,0,0,1,.31-.74,1.08,1.08,0,0,1,.76-.28,1,1,0,0,1,.92.49L65.35,51.08V32.32a1,1,0,0,1,.32-.78,1.16,1.16,0,0,1,.77-.28,1.09,1.09,0,0,1,.72.28,1,1,0,0,1,.31.78V55.06a1,1,0,0,1-.32.76,1.07,1.07,0,0,1-.75.29.94.94,0,0,1-.92-.55L54.35,36.3V55.06a1,1,0,0,1-.31.78A1.12,1.12,0,0,1,53.27,56.11Z" style="fill:#fff;stroke:#fff;stroke-miterlimit:10"/><path d="M71.84,56.11a1,1,0,0,1-.79-.31,1.1,1.1,0,0,1,0-1.47,1,1,0,0,1,.79-.3H73V33.42H71.84a1,1,0,0,1-1-1,1.15,1.15,0,0,1,.29-.76,1,1,0,0,1,.75-.32h4.45a1,1,0,0,1,.74.32,1.19,1.19,0,0,1,.28.76,1,1,0,0,1-.26.72,1,1,0,0,1-.76.29H75.11V54h1.18a1,1,0,0,1,.78.3,1.14,1.14,0,0,1,0,1.47,1,1,0,0,1-.78.31Z" style="fill:#fff;stroke:#fff;stroke-miterlimit:10"/><path d="M88.26,56.18a1.08,1.08,0,0,1-.61-.2,1.07,1.07,0,0,1-.4-.55Q80,32.35,80,32.32a.93.93,0,0,1,.34-.74,1.11,1.11,0,0,1,.75-.28,1,1,0,0,1,1,.71L88.26,51.7,94.63,32a.92.92,0,0,1,.94-.68,1.2,1.2,0,0,1,.79.29,1,1,0,0,1,.33.76L89.28,55.43A1,1,0,0,1,88.26,56.18Z" style="fill:#fff;stroke:#fff;stroke-miterlimit:10"/><path d="M99.78,56.15a1,1,0,0,1-.75-.3,1,1,0,0,1-.3-.75V32.41a1,1,0,0,1,.28-.77,1,1,0,0,1,.77-.28h9.76a1,1,0,0,1,.8.31,1.07,1.07,0,0,1,.28.74,1,1,0,0,1-1.08,1.05h-8.72v9.63h8.69a1,1,0,0,1,.77.31,1,1,0,0,1,.28.73,1.08,1.08,0,0,1-.28.76,1,1,0,0,1-.77.32h-8.69V54h8.72a1,1,0,0,1,.78.32,1.1,1.1,0,0,1,.27.75,1.15,1.15,0,0,1-.27.77,1,1,0,0,1-.78.32Z" style="fill:#fff;stroke:#fff;stroke-miterlimit:10"/><path d="M114.56,56.11a1,1,0,0,1-.77-.29,1.09,1.09,0,0,1-.28-.79V32.38a1,1,0,0,1,.31-.8,1.05,1.05,0,0,1,.74-.28,1,1,0,0,1,.73.28,1.08,1.08,0,0,1,.31.8V54h9.93a1,1,0,0,1,.78.32,1.11,1.11,0,0,1,.27.75,1.16,1.16,0,0,1-.27.76.94.94,0,0,1-.78.32Z" style="fill:#fff;stroke:#fff;stroke-miterlimit:10"/><path d="M139.49,39.66l7.17-7.87a1.78,1.78,0,0,1,1.18-.53,1,1,0,0,1,.71.32.94.94,0,0,1,.31.7V55.1a1,1,0,0,1-.32.78,1.07,1.07,0,0,1-1.44,0,1,1,0,0,1-.33-.78V34.93l-5.72,6.23a1,1,0,0,1-.79.31,1.06,1.06,0,0,1-.71-.33,1.51,1.51,0,0,1-.35-.69A.92.92,0,0,1,139.49,39.66Z" style="fill:#fff;stroke:#fff;stroke-miterlimit:10"/></g></svg>