<svg xmlns="http://www.w3.org/2000/svg" viewBox="0 0 322 140"><g id="Botones"><path d="M262.46,5.81H63.55a51.89,51.89,0,0,0-38,16.68c-1.12,1-2.24,2.07-3.41,3.31A51.72,51.72,0,0,0,4.49,64.65V83.81a51.78,51.78,0,0,0,51.72,51.72H255.12a51.87,51.87,0,0,0,38.06-16.71l.08-.07.38-.33c1-.88,2-1.84,3-2.94a51.73,51.73,0,0,0,17.54-38.8V57.52A51.77,51.77,0,0,0,262.46,5.81Z" style="fill:#72ae2b;stroke:#72ae2b;stroke-miterlimit:10;stroke-width:6px"/><path d="M268.79,1.47H69.88a51.82,51.82,0,0,0-38,16.69c-1.13,1-2.25,2.07-3.42,3.3A51.74,51.74,0,0,0,10.82,60.32V79.48a51.77,51.77,0,0,0,51.72,51.71H261.45a51.83,51.83,0,0,0,38.06-16.71l.08-.06c.13-.11.26-.22.38-.34,1-.87,2-1.84,3-2.94a51.7,51.7,0,0,0,17.54-38.79V53.19A51.78,51.78,0,0,0,268.79,1.47Z" style="fill:#fff"/><rect x="21.17" y="4.47" width="296.34" height="116.59" rx="48.72" style="fill:#facd90"/><rect x="13.82" y="11.6" width="296.34" height="116.59" rx="48.72" style="fill:#f59c22"/><path d="M313.84,76.64V56c0-26.5-22.15-48-49.46-48H67a50.28,50.28,0,0,0-28.52,8.79l259.54,95A47.22,47.22,0,0,0,313.84,76.64Z" style="fill:#f7b04e"/><path d="M38.43,16.83A47.51,47.51,0,0,0,17.5,56V76.64c0,26.51,22.14,48,49.45,48H264.38A50.09,50.09,0,0,0,298,111.85Z" style="fill:#f6a639"/><path d="M77.93,94.47a16.84,16.84,0,0,1-12.31-4.73,15.72,15.72,0,0,1-4.67-12,2.26,2.26,0,0,1,2.27-2.37A2.37,2.37,0,0,1,65,76a2.64,2.64,0,0,1,.7,2,11.11,11.11,0,0,0,3.43,8.54,12.58,12.58,0,0,0,9,3.21,13.31,13.31,0,0,0,9.39-3.33,11.2,11.2,0,0,0,3.59-8.71v-37a2.21,2.21,0,0,1,.7-1.74,2.44,2.44,0,0,1,1.68-.63,2.39,2.39,0,0,1,1.64.63,2.24,2.24,0,0,1,.7,1.74V77.71a15.73,15.73,0,0,1-5,12A18.25,18.25,0,0,1,77.93,94.47Z" style="fill:#f59c22"/><path d="M120.28,94.47a19.3,19.3,0,0,1-2.71-.19,18.29,18.29,0,0,1-3-.74,17.39,17.39,0,0,1-3.08-1.37A14.23,14.23,0,0,1,108.65,90a14.46,14.46,0,0,1-2.38-3,15.2,15.2,0,0,1-1.58-4.12,22.27,22.27,0,0,1-.6-5.32V40.81a2.27,2.27,0,0,1,.74-1.8,2.55,2.55,0,0,1,1.71-.65,2.5,2.5,0,0,1,1.73.65,2.3,2.3,0,0,1,.73,1.8V77.5q.06,6.12,2.84,9.12c1.85,2,4.74,3,8.65,3.13a17.46,17.46,0,0,0,3.25-.29,14.09,14.09,0,0,0,3.37-1.11,11.16,11.16,0,0,0,3.1-2.13,10,10,0,0,0,2.18-3.55,14.48,14.48,0,0,0,.86-5.17V40.66a2.19,2.19,0,0,1,.72-1.74,2.54,2.54,0,0,1,1.73-.63,2.44,2.44,0,0,1,1.68.63,2.21,2.21,0,0,1,.7,1.74V77.5a18,18,0,0,1-1.33,7.13,13.92,13.92,0,0,1-3.28,4.92,17.41,17.41,0,0,1-4.49,3,20.38,20.38,0,0,1-4.65,1.57A22.34,22.34,0,0,1,120.28,94.47Z" style="fill:#f59c22"/><path d="M162.91,94.55q-7.89,0-12.29-7.45t-4.39-20.85A40.57,40.57,0,0,1,148.59,52a23.46,23.46,0,0,1,6.52-9.93,14,14,0,0,1,9.35-3.57,12.29,12.29,0,0,1,5.43,1.21,11.63,11.63,0,0,1,4,3,17.2,17.2,0,0,1,2.34,3.65,12.09,12.09,0,0,1,1.07,3.41,2.28,2.28,0,0,1-.62,2,2.52,2.52,0,0,1-1.83.74,2.31,2.31,0,0,1-1.48-.51,2.19,2.19,0,0,1-.79-1.51,8.27,8.27,0,0,0-2.76-5.14,7.77,7.77,0,0,0-5.32-2.07,8.4,8.4,0,0,0-2.81.51,12.84,12.84,0,0,0-3,1.56,12.31,12.31,0,0,0-2.9,2.91,22.43,22.43,0,0,0-2.43,4.27,25.59,25.59,0,0,0-1.72,6,44.08,44.08,0,0,0-.63,7.71q0,11,3.14,17.21t8.65,6.22a9.49,9.49,0,0,0,8.5-4.83q2.89-4.75,3.25-14.67H168a2.2,2.2,0,0,1-1.75-.72,2.53,2.53,0,0,1-.63-1.73,2.39,2.39,0,0,1,.63-1.64,2.22,2.22,0,0,1,1.75-.7h8.9a2.58,2.58,0,0,1,1.84.65,2.33,2.33,0,0,1,.68,1.76q.08,12.95-4.16,19.84A13.59,13.59,0,0,1,162.91,94.55Z" style="fill:#f59c22"/><path d="M188.29,94.4a2.53,2.53,0,0,1-1.75-.66A2.2,2.2,0,0,1,185.8,92a4.49,4.49,0,0,1,.14-.79L202,40.12a2.22,2.22,0,0,1,2.3-1.69,2.49,2.49,0,0,1,1.37.43,2.23,2.23,0,0,1,.9,1.19v.07l16,51.18a3.87,3.87,0,0,1,.15.8,2.09,2.09,0,0,1-.76,1.65,2.6,2.6,0,0,1-1.77.65,2.14,2.14,0,0,1-2.2-1.76l-4.21-13.45h-19l-4.22,13.52A2.18,2.18,0,0,1,188.29,94.4Zm8-19.93h16.14l-8.11-25.84Z" style="fill:#f59c22"/><path d="M229.48,94.55a2.59,2.59,0,0,1-1.71-.62,2.16,2.16,0,0,1-.74-1.76V40.88a2.35,2.35,0,0,1,2.52-2.52h13.59q15.13,0,15.14,14a16.3,16.3,0,0,1-3.1,10A15.2,15.2,0,0,1,246.53,68l12.76,23a3.12,3.12,0,0,1,.39,1.16,2.1,2.1,0,0,1-.77,1.64,2.63,2.63,0,0,1-1.75.66,2.16,2.16,0,0,1-2.05-1.18L241.45,68.56h-9.52V92.17a2.18,2.18,0,0,1-.72,1.76A2.59,2.59,0,0,1,229.48,94.55Zm2.45-30.85h10.78c3.62-.46,6.32-1.61,8.07-3.46s2.63-4.47,2.63-7.86a13.92,13.92,0,0,0-.66-4.4,7.52,7.52,0,0,0-1.5-2.7,5.49,5.49,0,0,0-2.31-1.37,11.67,11.67,0,0,0-2.43-.56q-1-.09-2.58-.09h-12Z" style="fill:#f59c22"/><path d="M82.77,90.66a16.81,16.81,0,0,1-12.31-4.74,15.71,15.71,0,0,1-4.67-12,2.25,2.25,0,0,1,.69-1.75,2.27,2.27,0,0,1,1.59-.63,2.34,2.34,0,0,1,1.74.7,2.67,2.67,0,0,1,.71,2,11.16,11.16,0,0,0,3.42,8.54,12.58,12.58,0,0,0,9,3.21A13.27,13.27,0,0,0,92.3,82.6a11.16,11.16,0,0,0,3.59-8.7V36.85a2.22,2.22,0,0,1,.7-1.75,2.44,2.44,0,0,1,1.68-.63,2.39,2.39,0,0,1,1.64.63,2.22,2.22,0,0,1,.7,1.75V73.9a15.71,15.71,0,0,1-5,12A18.25,18.25,0,0,1,82.77,90.66Z" style="fill:#fff;stroke:#fff;stroke-miterlimit:10"/><path d="M125.12,90.66a19.09,19.09,0,0,1-2.7-.2,17.41,17.41,0,0,1-3-.74,17.72,17.72,0,0,1-3.08-1.37,13.91,13.91,0,0,1-2.84-2.18,14.15,14.15,0,0,1-2.38-3A15.4,15.4,0,0,1,109.53,79a22.17,22.17,0,0,1-.59-5.32V37a2.24,2.24,0,0,1,.74-1.8,2.6,2.6,0,0,1,3.44,0,2.29,2.29,0,0,1,.72,1.8V73.68c0,4.09,1,7.13,2.85,9.12s4.73,3,8.64,3.14a18.36,18.36,0,0,0,3.25-.29A14,14,0,0,0,132,84.53a10.81,10.81,0,0,0,3.1-2.13,9.91,9.91,0,0,0,2.18-3.55,14.26,14.26,0,0,0,.86-5.17V36.85a2.2,2.2,0,0,1,.72-1.75,2.54,2.54,0,0,1,1.73-.63,2.44,2.44,0,0,1,1.68.63,2.22,2.22,0,0,1,.7,1.75V73.68a18.07,18.07,0,0,1-1.33,7.14,14,14,0,0,1-3.28,4.92,17.21,17.21,0,0,1-4.49,3,19.91,19.91,0,0,1-4.65,1.57A21.36,21.36,0,0,1,125.12,90.66Z" style="fill:#fff;stroke:#fff;stroke-miterlimit:10"/><path d="M167.76,90.73q-7.9,0-12.29-7.44t-4.4-20.85a40.86,40.86,0,0,1,2.36-14.26A23.55,23.55,0,0,1,160,38.25a14.06,14.06,0,0,1,9.35-3.56,12.25,12.25,0,0,1,5.43,1.2,11.54,11.54,0,0,1,4,3A17.47,17.47,0,0,1,181,42.6,12,12,0,0,1,182.1,46a2.28,2.28,0,0,1-.61,2,2.52,2.52,0,0,1-1.84.74,2.38,2.38,0,0,1-1.48-.5,2.21,2.21,0,0,1-.79-1.52,8.22,8.22,0,0,0-2.76-5.13,7.77,7.77,0,0,0-5.32-2.07,8.43,8.43,0,0,0-2.81.5,13.11,13.11,0,0,0-3,1.57,12.25,12.25,0,0,0-2.9,2.9,22.74,22.74,0,0,0-2.43,4.27,26.12,26.12,0,0,0-1.71,6,44.11,44.11,0,0,0-.63,7.72q0,11,3.13,17.21t8.65,6.21A9.49,9.49,0,0,0,176.12,81q2.88-4.77,3.24-14.67H172.8a2.21,2.21,0,0,1-1.75-.72,2.57,2.57,0,0,1-.63-1.74,2.35,2.35,0,0,1,.63-1.63,2.24,2.24,0,0,1,1.75-.71h8.9a2.58,2.58,0,0,1,1.84.65,2.3,2.3,0,0,1,.69,1.77q.06,12.93-4.17,19.84A13.58,13.58,0,0,1,167.76,90.73Z" style="fill:#fff;stroke:#fff;stroke-miterlimit:10"/><path d="M193.13,90.59a2.55,2.55,0,0,1-1.75-.67,2.23,2.23,0,0,1-.74-1.71,3.87,3.87,0,0,1,.15-.8l16.07-51.1a2.23,2.23,0,0,1,2.31-1.7,2.45,2.45,0,0,1,1.37.44,2.21,2.21,0,0,1,.9,1.19v.07l16,51.18a3.7,3.7,0,0,1,.15.79,2.09,2.09,0,0,1-.76,1.66,2.62,2.62,0,0,1-1.76.65,2.14,2.14,0,0,1-2.2-1.77l-4.22-13.44h-19l-4.22,13.51A2.18,2.18,0,0,1,193.13,90.59Zm8-19.93h16.15l-8.11-25.85Z" style="fill:#fff;stroke:#fff;stroke-miterlimit:10"/><path d="M234.32,90.73a2.58,2.58,0,0,1-1.71-.61,2.18,2.18,0,0,1-.74-1.77V37.07a2.37,2.37,0,0,1,2.53-2.53H248q15.14,0,15.14,14a16.22,16.22,0,0,1-3.1,10,15.21,15.21,0,0,1-8.65,5.57l12.76,23a3.16,3.16,0,0,1,.4,1.15,2.07,2.07,0,0,1-.78,1.64,2.59,2.59,0,0,1-1.75.67A2.18,2.18,0,0,1,260,89.47L246.29,64.74h-9.52V88.35a2.2,2.2,0,0,1-.72,1.77A2.56,2.56,0,0,1,234.32,90.73Zm2.45-30.85h10.78q5.44-.69,8.07-3.46c1.76-1.85,2.63-4.47,2.63-7.86a14,14,0,0,0-.66-4.4,7.37,7.37,0,0,0-1.5-2.7,5.5,5.5,0,0,0-2.3-1.37,11.88,11.88,0,0,0-2.44-.56c-.66-.06-1.52-.09-2.57-.09h-12Z" style="fill:#fff;stroke:#fff;stroke-miterlimit:10"/></g></svg>