<svg xmlns="http://www.w3.org/2000/svg" viewBox="0 0 195 100"><g id="Botones"><path d="M154.35,6.37H43.89A35.38,35.38,0,0,0,18,17.72c-.74.65-1.49,1.37-2.26,2.18a35.3,35.3,0,0,0-12,26.49V60.1A35.33,35.33,0,0,0,39,95.39H149.48A35.39,35.39,0,0,0,175.42,84h0l.26-.23c.67-.6,1.33-1.25,2-2a35.34,35.34,0,0,0,11.93-26.45V41.67a35.34,35.34,0,0,0-35.3-35.3Z" style="fill:#72ae2b;stroke:#72ae2b;stroke-miterlimit:10;stroke-width:6px"/><path d="M159,1.61H48.52A35.41,35.41,0,0,0,22.59,13c-.74.66-1.49,1.38-2.26,2.19a35.32,35.32,0,0,0-12,26.49v13.7a35.34,35.34,0,0,0,35.3,35.3H154.11a35.4,35.4,0,0,0,25.94-11.36h0l.27-.24c.66-.59,1.32-1.24,2-2a35.34,35.34,0,0,0,11.93-26.45V36.9A35.33,35.33,0,0,0,159,1.61Z" style="fill:#fff"/><rect x="16.22" y="4.61" width="175.06" height="78.3" rx="32.3" style="fill:#d794be"/><rect x="11.35" y="9.33" width="175.06" height="78.3" rx="32.3" style="fill:#af2a7e"/><path d="M188.84,53.46V38.78C188.84,21.21,174.16,7,156.06,7H46.58A33.28,33.28,0,0,0,27.67,12.8l150.66,64A31.32,31.32,0,0,0,188.84,53.46Z" style="fill:#bf5598"/><path d="M27.67,12.8a31.48,31.48,0,0,0-13.88,26V53.46c0,17.57,14.68,31.81,32.79,31.81H156.06a33.25,33.25,0,0,0,22.27-8.47Z" style="fill:#b7408b"/><path d="M48.65,59.88a1.08,1.08,0,0,1-.75-.28,1,1,0,0,1-.32-.78V36.08a.92.92,0,0,1,.31-.74,1.08,1.08,0,0,1,.76-.28,1,1,0,0,1,.92.49L60.73,54.84V36.08a1,1,0,0,1,.32-.78,1.15,1.15,0,0,1,.76-.28,1.09,1.09,0,0,1,.73.28,1,1,0,0,1,.31.78V58.82a1,1,0,0,1-.33.76,1.06,1.06,0,0,1-.74.3,1,1,0,0,1-.92-.56L49.73,40.06V58.82a1,1,0,0,1-.32.78A1.1,1.1,0,0,1,48.65,59.88Z" style="fill:#af2a7e;stroke:#af2a7e;stroke-miterlimit:10"/><path d="M67.22,59.88a1,1,0,0,1-.79-.32,1.1,1.1,0,0,1,0-1.47,1,1,0,0,1,.79-.3H68.4V37.18H67.22a1,1,0,0,1-.77-.3,1,1,0,0,1-.27-.71,1.1,1.1,0,0,1,.29-.75.94.94,0,0,1,.75-.33h4.44a.91.91,0,0,1,.74.33,1.09,1.09,0,0,1,.28.75,1,1,0,0,1-.26.72,1,1,0,0,1-.76.29H70.48V57.79h1.18a1,1,0,0,1,.78.3,1.1,1.1,0,0,1,0,1.47,1,1,0,0,1-.78.32Z" style="fill:#af2a7e;stroke:#af2a7e;stroke-miterlimit:10"/><path d="M83.63,59.94a1.05,1.05,0,0,1-.6-.2,1,1,0,0,1-.4-.55Q75.4,36.1,75.41,36.08a1,1,0,0,1,.33-.74,1.15,1.15,0,0,1,.75-.28,1,1,0,0,1,1,.71l6.16,19.69L90,35.74a.91.91,0,0,1,.94-.68,1.16,1.16,0,0,1,.78.29,1,1,0,0,1,.34.76L84.65,59.19A1,1,0,0,1,83.63,59.94Z" style="fill:#af2a7e;stroke:#af2a7e;stroke-miterlimit:10"/><path d="M95.16,59.91a1,1,0,0,1-1-1V36.17a1,1,0,0,1,.28-.77,1,1,0,0,1,.77-.28h9.75a1,1,0,0,1,.8.31,1.08,1.08,0,0,1,.29.74,1,1,0,0,1-.29.74,1,1,0,0,1-.8.31H96.2v9.63h8.68a1,1,0,0,1,.78.31,1.09,1.09,0,0,1,.28.73,1.13,1.13,0,0,1-.28.76,1,1,0,0,1-.78.32H96.2v8.78h8.71a1,1,0,0,1,.79.32,1.1,1.1,0,0,1,.27.75,1.15,1.15,0,0,1-.27.77,1,1,0,0,1-.79.32Z" style="fill:#af2a7e;stroke:#af2a7e;stroke-miterlimit:10"/><path d="M109.94,59.88a1,1,0,0,1-.78-.3,1.14,1.14,0,0,1-.28-.79V36.14a1,1,0,0,1,1.06-1.08,1,1,0,0,1,.73.28,1.07,1.07,0,0,1,.3.8V57.72h9.93a1,1,0,0,1,.78.32,1.11,1.11,0,0,1,.27.75,1.16,1.16,0,0,1-.27.76,1,1,0,0,1-.78.33Z" style="fill:#af2a7e;stroke:#af2a7e;stroke-miterlimit:10"/><path d="M135.46,58.23l10.63-13.77a4.45,4.45,0,0,0,.95-2.8,4.6,4.6,0,0,0-1.35-3.34A4.5,4.5,0,0,0,142.37,37a4.68,4.68,0,0,0-4.7,4.71,1,1,0,0,1-.33.78,1.13,1.13,0,0,1-1.49,0,1,1,0,0,1-.33-.78,6.52,6.52,0,0,1,2-4.81,6.63,6.63,0,0,1,4.85-2,6.76,6.76,0,0,1,6.79,6.79,6.69,6.69,0,0,1-1.37,4.08l-9.27,12h9.93a1,1,0,0,1,.78.33,1.09,1.09,0,0,1,0,1.48,1,1,0,0,1-.78.34H136.36a1,1,0,0,1-1-.57A1.07,1.07,0,0,1,135.46,58.23Z" style="fill:#af2a7e;stroke:#af2a7e;stroke-miterlimit:10"/><path d="M50.82,56.48a1.15,1.15,0,0,1-.75-.27,1,1,0,0,1-.31-.78V32.68a.94.94,0,0,1,.31-.74,1.06,1.06,0,0,1,.75-.28,1,1,0,0,1,.93.49L62.91,51.44V32.68a.94.94,0,0,1,.32-.77,1.08,1.08,0,0,1,.76-.28,1,1,0,0,1,.73.28,1,1,0,0,1,.31.77V55.43a.94.94,0,0,1-.33.75,1.08,1.08,0,0,1-.74.3,1,1,0,0,1-.93-.56L51.91,36.67V55.43a1,1,0,0,1-.32.78A1.15,1.15,0,0,1,50.82,56.48Z" style="fill:#fff;stroke:#fff;stroke-miterlimit:10"/><path d="M69.39,56.48a1,1,0,0,1-.79-.31,1.11,1.11,0,0,1-.27-.74,1.09,1.09,0,0,1,.27-.74,1,1,0,0,1,.79-.3h1.18V33.78H69.39a1,1,0,0,1-.76-.29,1,1,0,0,1-.27-.71,1.12,1.12,0,0,1,.28-.76,1,1,0,0,1,.75-.33h4.45a.91.91,0,0,1,.74.33,1.12,1.12,0,0,1,.28.76,1,1,0,0,1-.26.71,1,1,0,0,1-.76.29H72.66V54.39h1.18a1,1,0,0,1,.78.3,1.09,1.09,0,0,1,.27.74,1.11,1.11,0,0,1-.27.74,1,1,0,0,1-.78.31Z" style="fill:#fff;stroke:#fff;stroke-miterlimit:10"/><path d="M85.81,56.54a1.08,1.08,0,0,1-1-.75q-7.25-23.07-7.22-23.11a.92.92,0,0,1,.33-.73,1.12,1.12,0,0,1,.75-.29.94.94,0,0,1,1,.72l6.17,19.68,6.38-19.71a.91.91,0,0,1,.94-.69,1.12,1.12,0,0,1,.78.3.94.94,0,0,1,.33.75L86.83,55.79A1,1,0,0,1,85.81,56.54Z" style="fill:#fff;stroke:#fff;stroke-miterlimit:10"/><path d="M97.34,56.51a1.06,1.06,0,0,1-.76-.29,1,1,0,0,1-.3-.76V32.78a1,1,0,0,1,1.06-1.06h9.75a1,1,0,0,1,.8.32,1,1,0,0,1,.29.74,1.08,1.08,0,0,1-.29.74,1.06,1.06,0,0,1-.8.31H98.37v9.63h8.69a1,1,0,0,1,.77.31,1,1,0,0,1,.28.72,1.11,1.11,0,0,1-.28.77,1,1,0,0,1-.77.32H98.37v8.78h8.72a1,1,0,0,1,.78.31,1.12,1.12,0,0,1,.27.76,1.14,1.14,0,0,1-.27.76,1,1,0,0,1-.78.32Z" style="fill:#fff;stroke:#fff;stroke-miterlimit:10"/><path d="M112.11,56.48a1,1,0,0,1-.77-.3,1.08,1.08,0,0,1-.28-.79V32.74a1,1,0,0,1,.31-.79,1.08,1.08,0,0,1,.74-.29,1.06,1.06,0,0,1,.74.29,1,1,0,0,1,.3.79V54.33h9.93a.94.94,0,0,1,.78.32,1.11,1.11,0,0,1,.27.74,1.16,1.16,0,0,1-.27.76,1,1,0,0,1-.78.33Z" style="fill:#fff;stroke:#fff;stroke-miterlimit:10"/><path d="M137.63,54.84l10.64-13.78a4.49,4.49,0,0,0,.95-2.8,4.56,4.56,0,0,0-1.35-3.33,4.72,4.72,0,0,0-6.65,0,4.54,4.54,0,0,0-1.37,3.33,1,1,0,0,1-.33.78,1.16,1.16,0,0,1-.75.29A1.13,1.13,0,0,1,138,39a1,1,0,0,1-.33-.78,6.52,6.52,0,0,1,2-4.81A6.81,6.81,0,0,1,150,42.34l-9.28,12h9.94a1,1,0,0,1,.78.34,1.1,1.1,0,0,1,.28.74,1.12,1.12,0,0,1-.28.74,1,1,0,0,1-.78.33H138.54a1,1,0,0,1-.95-.57A1.05,1.05,0,0,1,137.63,54.84Z" style="fill:#fff;stroke:#fff;stroke-miterlimit:10"/></g></svg>