<svg xmlns="http://www.w3.org/2000/svg" viewBox="0 0 132 64"><g id="Botones"><path d="M106.43.79H29a24.79,24.79,0,0,0-18.17,8c-.53.46-1.05,1-1.59,1.53A24.75,24.75,0,0,0,.82,28.85v9.61A24.77,24.77,0,0,0,25.57,63.21H103a24.77,24.77,0,0,0,18.18-8h0l.19-.16c.46-.42.92-.87,1.41-1.39a24.74,24.74,0,0,0,8.37-18.54V25.54A24.77,24.77,0,0,0,106.43.79Z" style="fill:#fff"/><rect x="6.34" y="2.89" width="122.74" height="54.9" rx="22.64" style="fill:#81cdc7"/><rect x="2.92" y="6.21" width="122.74" height="54.9" rx="22.64" style="fill:#039c90"/><path d="M127.37,37.14V26.86c0-12.32-10.29-22.31-23-22.31H27.62A23.39,23.39,0,0,0,14.36,8.64L120,53.51A21.93,21.93,0,0,0,127.37,37.14Z" style="fill:#35b0a6"/><path d="M14.36,8.64A22.1,22.1,0,0,0,4.63,26.86V37.14c0,12.32,10.29,22.31,23,22.31h76.76A23.3,23.3,0,0,0,120,53.51Z" style="fill:#1da69b"/><path d="M29.07,41.65a.81.81,0,0,1-.52-.19.69.69,0,0,1-.23-.55V25a.68.68,0,0,1,.22-.52.78.78,0,0,1,.53-.2.71.71,0,0,1,.65.35l7.82,13.52V25a.68.68,0,0,1,.23-.54.78.78,0,0,1,.53-.2.73.73,0,0,1,.51.2A.67.67,0,0,1,39,25V40.91a.7.7,0,0,1-.23.53.75.75,0,0,1-.52.21.68.68,0,0,1-.65-.4l-7.8-13.5V40.91a.68.68,0,0,1-.22.55A.85.85,0,0,1,29.07,41.65Z" style="fill:#039c90;stroke:#039c90;stroke-miterlimit:10"/><path d="M42.09,41.65a.71.71,0,0,1-.55-.22.78.78,0,0,1,0-1,.71.71,0,0,1,.55-.21h.83V25.73h-.83a.66.66,0,0,1-.53-.21.67.67,0,0,1-.19-.49.75.75,0,0,1,.2-.53.64.64,0,0,1,.52-.23h3.12a.62.62,0,0,1,.52.23.79.79,0,0,1,.2.53.72.72,0,0,1-.19.5.69.69,0,0,1-.53.2h-.83V40.18h.83a.71.71,0,0,1,.55.21.81.81,0,0,1,0,1,.71.71,0,0,1-.55.22Z" style="fill:#039c90;stroke:#039c90;stroke-miterlimit:10"/><path d="M53.6,41.69a.73.73,0,0,1-.42-.14.66.66,0,0,1-.28-.39Q47.83,25,47.84,25a.62.62,0,0,1,.23-.51.77.77,0,0,1,.53-.21.66.66,0,0,1,.68.51l4.32,13.8,4.47-13.83a.64.64,0,0,1,.66-.48.81.81,0,0,1,.55.21.68.68,0,0,1,.24.53l-5.2,16.18A.69.69,0,0,1,53.6,41.69Z" style="fill:#039c90;stroke:#039c90;stroke-miterlimit:10"/><path d="M61.68,41.67a.72.72,0,0,1-.53-.21.7.7,0,0,1-.2-.53V25a.75.75,0,0,1,.19-.55.73.73,0,0,1,.54-.19h6.84a.72.72,0,0,1,.76.74.72.72,0,0,1-.2.52.73.73,0,0,1-.56.21H62.41v6.75H68.5a.71.71,0,0,1,.54.22.76.76,0,0,1,.2.51.8.8,0,0,1-.2.54.67.67,0,0,1-.54.22H62.41v6.16h6.11a.68.68,0,0,1,.55.22.75.75,0,0,1,.19.53.77.77,0,0,1-.19.53.69.69,0,0,1-.55.23Z" style="fill:#039c90;stroke:#039c90;stroke-miterlimit:10"/><path d="M72,41.65a.7.7,0,0,1-.54-.21.77.77,0,0,1-.19-.55V25a.72.72,0,0,1,.21-.55.73.73,0,0,1,.52-.21.72.72,0,0,1,.73.76V40.14h7a.68.68,0,0,1,.55.22.77.77,0,0,1,.19.53.8.8,0,0,1-.19.53.69.69,0,0,1-.55.23Z" style="fill:#039c90;stroke:#039c90;stroke-miterlimit:10"/><path d="M90,37a.67.67,0,0,1,.22-.54.76.76,0,0,1,.51-.2.79.79,0,0,1,.51.19.63.63,0,0,1,.24.52,3.31,3.31,0,0,0,5.64,2.34A3.12,3.12,0,0,0,98,37a3.18,3.18,0,0,0-1-2.34,3.24,3.24,0,0,0-2.34-1,.61.61,0,0,1-.6-.37.85.85,0,0,1,0-.73.6.6,0,0,1,.58-.37,3.21,3.21,0,0,0,2.34-.95,3.3,3.3,0,1,0-5.61-2.32.67.67,0,0,1-.23.53.73.73,0,0,1-.51.21.85.85,0,0,1-.52-.19A.69.69,0,0,1,90,29a4.76,4.76,0,0,1,4.78-4.81,4.78,4.78,0,0,1,4.76,4.79,4.77,4.77,0,0,1-2.2,4,4.8,4.8,0,0,1,1.57,6.41,4.84,4.84,0,0,1-1.74,1.74,4.72,4.72,0,0,1-2.39.66A4.76,4.76,0,0,1,90,37Z" style="fill:#039c90;stroke:#039c90;stroke-miterlimit:10"/><path d="M30.6,39.26a.78.78,0,0,1-.53-.19.69.69,0,0,1-.22-.54v-16a.65.65,0,0,1,.22-.52.76.76,0,0,1,.53-.2.71.71,0,0,1,.65.35l7.82,13.52V22.58a.71.71,0,0,1,.22-.54.8.8,0,0,1,.54-.2.76.76,0,0,1,.51.2.71.71,0,0,1,.22.54v16a.7.7,0,0,1-.23.53.76.76,0,0,1-.52.2.67.67,0,0,1-.65-.39l-7.8-13.5V38.53a.69.69,0,0,1-.22.54A.79.79,0,0,1,30.6,39.26Z" style="fill:#fff;stroke:#fff;stroke-miterlimit:10"/><path d="M43.62,39.26a.71.71,0,0,1-.55-.21.77.77,0,0,1-.2-.52.73.73,0,0,1,.2-.52.71.71,0,0,1,.55-.21h.83V23.35h-.83a.7.7,0,0,1-.54-.21.71.71,0,0,1-.19-.49.82.82,0,0,1,.2-.54.68.68,0,0,1,.53-.22h3.12a.66.66,0,0,1,.52.22.81.81,0,0,1,.19.54.73.73,0,0,1-.18.5.69.69,0,0,1-.53.2h-.83V37.8h.83a.67.67,0,0,1,.54.21.73.73,0,0,1,.19.52.76.76,0,0,1-.19.52.67.67,0,0,1-.54.21Z" style="fill:#fff;stroke:#fff;stroke-miterlimit:10"/><path d="M55.13,39.31a.73.73,0,0,1-.42-.14.66.66,0,0,1-.28-.39q-5.09-16.17-5.07-16.2a.66.66,0,0,1,.24-.52.79.79,0,0,1,.52-.2.66.66,0,0,1,.68.51l4.33,13.8L59.6,22.34a.63.63,0,0,1,.66-.48.81.81,0,0,1,.55.21.69.69,0,0,1,.23.53L55.85,38.78A.71.71,0,0,1,55.13,39.31Z" style="fill:#fff;stroke:#fff;stroke-miterlimit:10"/><path d="M63.21,39.29a.71.71,0,0,1-.53-.21.72.72,0,0,1-.21-.53V22.65a.74.74,0,0,1,.2-.55.73.73,0,0,1,.54-.19h6.84a.72.72,0,0,1,.56.22.73.73,0,0,1,.2.52.77.77,0,0,1-.2.52.75.75,0,0,1-.56.21H63.94v6.75H70a.71.71,0,0,1,.54.22.76.76,0,0,1,.2.51.8.8,0,0,1-.2.54.67.67,0,0,1-.54.22H63.94v6.16h6.11a.68.68,0,0,1,.55.22.8.8,0,0,1,.19.53.82.82,0,0,1-.19.53.69.69,0,0,1-.55.23Z" style="fill:#fff;stroke:#fff;stroke-miterlimit:10"/><path d="M73.57,39.26a.69.69,0,0,1-.54-.2.78.78,0,0,1-.2-.56V22.62a.75.75,0,0,1,.22-.56.77.77,0,0,1,.52-.2.73.73,0,0,1,.51.2.72.72,0,0,1,.22.56V37.76h7a.68.68,0,0,1,.55.22.81.81,0,0,1,.19.52.89.89,0,0,1-.19.54.68.68,0,0,1-.55.22Z" style="fill:#fff;stroke:#fff;stroke-miterlimit:10"/><path d="M91.49,34.61a.67.67,0,0,1,.22-.53.71.71,0,0,1,.5-.2.8.8,0,0,1,.52.19.68.68,0,0,1,.24.52,3.31,3.31,0,0,0,5.64,2.34,3.14,3.14,0,0,0,1-2.32,3.18,3.18,0,0,0-1-2.33,3.26,3.26,0,0,0-2.34-1,.61.61,0,0,1-.6-.37.84.84,0,0,1,0-.74.6.6,0,0,1,.58-.36,3.23,3.23,0,0,0,2.34-.95,3.31,3.31,0,0,0,0-4.66,3.2,3.2,0,0,0-2.34-1A3.26,3.26,0,0,0,93,26.56a.67.67,0,0,1-.22.53.75.75,0,0,1-.51.2.8.8,0,0,1-.52-.19.63.63,0,0,1-.25-.52,4.76,4.76,0,0,1,4.78-4.81A4.78,4.78,0,0,1,101,26.56a4.73,4.73,0,0,1-.59,2.29,4.88,4.88,0,0,1-1.61,1.74,4.77,4.77,0,0,1,1.61,1.73,4.71,4.71,0,0,1,.59,2.29,4.65,4.65,0,0,1-.64,2.39,4.81,4.81,0,0,1-4.12,2.4,4.76,4.76,0,0,1-4.78-4.79Z" style="fill:#fff;stroke:#fff;stroke-miterlimit:10"/></g></svg>