<svg id="Fondo" xmlns="http://www.w3.org/2000/svg" viewBox="0 0 800 195"><path d="M35.76,48.14a43.5,43.5,0,0,1,6.17-7.63,21.25,21.25,0,0,0,.8,3.26,24,24,0,0,1,1,3.06,7.91,7.91,0,0,1-2.5,7.28l-4.42-3.73a3.77,3.77,0,0,1-1.26-1.52,1.31,1.31,0,0,1,.65-1.68" style="fill:#ffc000"/><path d="M37.23,47.4A9.88,9.88,0,0,1,39.67,45a9.17,9.17,0,0,1,1.74,7,4.73,4.73,0,0,1-4.3-5.39" style="fill:#ffe300"/><path d="M147.12,43.87q2.81,4.2,5.2,8.64a1.05,1.05,0,0,1,.19.69,1.1,1.1,0,0,1-.4.55l-5.69,5.08c-1.66-1.57-7.63-5.54-7.2-8,.23-1.4,2.12-2.47,3.13-3.24C144,46.35,145.55,45.12,147.12,43.87Z" style="fill:#ffc000"/><path d="M177.27,150q3.42,4.44,6.57,9.08a1.91,1.91,0,0,1,.4.94c0,.59-.51,1-1,1.38q-2.56,1.83-5.31,3.41a.79.79,0,0,1-.29.11.72.72,0,0,1-.43-.18,65.9,65.9,0,0,1-8.53-7.11A112.89,112.89,0,0,1,177.27,150Z" style="fill:#ffc000"/><path d="M298.27,152.76a8.41,8.41,0,0,0,4.28-5.3l7.24,5.48a44.39,44.39,0,0,1-2.86,9.29l-6.47-4.38a6.5,6.5,0,0,1-2.3-2.21,2.22,2.22,0,0,1,.54-2.87,2.4,2.4,0,0,0-1.73-.63" style="fill:#ffc000"/><path d="M357.89,92.71a22.37,22.37,0,0,1-5.6,8.36q4.11,2.75,8.38,5.2c1.57-2.5,1.5-5.66,1.37-8.61a2.66,2.66,0,0,0-.31-1.37,2.62,2.62,0,0,0-1-.79l-2.94-1.56" style="fill:#ffc000"/><path d="M427,142a16.34,16.34,0,0,1-8,6,17.14,17.14,0,0,1,8,7,23.57,23.57,0,0,1,6.2-5.27,33.9,33.9,0,0,1-5.32-7.37" style="fill:#ffc000"/><path d="M519,65.19a31.41,31.41,0,0,0,10.14,5.17,13.36,13.36,0,0,1-6.49,8.89,1.47,1.47,0,0,1-1,.26,1.49,1.49,0,0,1-.64-.35c-2.28-1.75-5.22-3.46-7-5.63,1-.38,2.57-.72,3.35-1.51S520,65.9,519,65.19Z" style="fill:#ffc000"/><path d="M641.12,102a9.92,9.92,0,0,0,6-2.17c1-.78,2.27-1.8,3.27-1.06a2.42,2.42,0,0,1,.74,1.31,14.9,14.9,0,0,1,.61,6.81,7.84,7.84,0,0,1-3.71,5.55,14.33,14.33,0,0,0-3.88-3.13,5,5,0,0,1-1.23-.8c-1.4-1.45-.34-4.33-1.93-5.57" style="fill:#ffc000"/><path d="M700,58.06a26.51,26.51,0,0,1,7.21-4.3L705,46.16a1.4,1.4,0,0,0-.42-.77,1.34,1.34,0,0,0-1-.15c-2.75.25-12.69.36-11.91,3.86C692,50.05,700.73,57.44,700,58.06Z" style="fill:#ffc000"/><path d="M736.48,134.52a22.26,22.26,0,0,0,6.6-7.19,8,8,0,0,1,4.86,6.11,4.38,4.38,0,0,1-.33,2.7,6.05,6.05,0,0,1-.88,1.15l-3.92,4.35a20,20,0,0,0-7.72-3l.45-4.16" style="fill:#ffc000"/><path d="M142.9,51a6.8,6.8,0,0,1,1.5-2.35,2.36,2.36,0,0,1,2.59-.49l-.38,5.59a2.92,2.92,0,0,1-3.47-2.28c-.06-.34-.18-.81-.52-.76" style="fill:#ffe300"/><path d="M171,158.47a10,10,0,0,1,1.75-2.8,3.39,3.39,0,0,1,3-1.07,2.07,2.07,0,0,1,1.61,2.46,2.25,2.25,0,0,1-1.71,1.37,6.78,6.78,0,0,1-2.29,0l-2.13-.3" style="fill:#ffe300"/><path d="M299.57,154a7.48,7.48,0,0,0,2.87-3c.11-.21.23-.44.46-.51a.79.79,0,0,1,.34,0,2.91,2.91,0,0,1,2.1,3.11,3.47,3.47,0,0,1-2.63,2.84,4.34,4.34,0,0,1-3.81-1" style="fill:#ffe300"/><path d="M355.43,100c1.45-.5,1.79-2.36,1.9-3.89a1.94,1.94,0,0,1,2.32,1.16,5.67,5.67,0,0,1,.23,2.84,3.16,3.16,0,0,1-.26,1.14,2,2,0,0,1-2.18.81,5.65,5.65,0,0,1-2.16-1.18" style="fill:#ffe300"/><path d="M436.73,51.09a3.48,3.48,0,0,1,1.88-1.25,3.22,3.22,0,0,1,1.75.42,21.5,21.5,0,0,1,5,3.27,25.27,25.27,0,0,0-2.28,6.7,1.64,1.64,0,0,1-.29.79c-.39.45-1.11.32-1.68.15-2.38-.76-6-1.87-7.82-3.7C431.09,55.23,435,52.91,436.73,51.09Z" style="fill:#ffc000"/><path d="M436.36,56a4.42,4.42,0,0,1,1.33-2.46,2.65,2.65,0,0,1,2.64-.58,1.91,1.91,0,0,1,1.16,2.29,3.15,3.15,0,0,1-2.26,1.6,4.83,4.83,0,0,1-2.78.23" style="fill:#ffe300"/><path d="M423.44,147.6l2.68-2.42a.76.76,0,0,1,.43-.23.72.72,0,0,1,.5.27,11.46,11.46,0,0,1,2.58,3.89c-1.11-.63-2.48-.23-3.76-.16a14,14,0,0,1-2.5-.17c-.54-.07-1.26-.37-1.12-.9.08-.34.48-.48.83-.57" style="fill:#ffe300"/><path d="M519.9,68.84c0-.19,0-.43.22-.5a.5.5,0,0,1,.27,0,9.5,9.5,0,0,1,4.8,3.36,1.26,1.26,0,0,1,.27.51c.14.63-.56,1.11-1.17,1.34-1.24.46-5.14,1.7-6,.14C517.55,72.36,519.83,70.27,519.9,68.84Z" style="fill:#ffe300"/><path d="M645.68,104.1a6.22,6.22,0,0,1,1.58-2.31,2.14,2.14,0,0,1,2.6-.18c1,.81.64,2.39.2,3.6a4.23,4.23,0,0,1-.61,1.22c-.87,1.1-2.51,1.09-3.91,1a1.07,1.07,0,0,1-.64-.19.92.92,0,0,1-.25-.5,2.44,2.44,0,0,1,1.56-2.69" style="fill:#ffe300"/><path d="M697.08,50.56c-.43.17-.7-.48-.62-.93a3.85,3.85,0,0,1,2.83-2.77,11.49,11.49,0,0,1,4.14-.16,6.4,6.4,0,0,1-.17,3.8,2.22,2.22,0,0,1-.85,1.2,2.45,2.45,0,0,1-1.29.25,13.23,13.23,0,0,1-5.07-1.09" style="fill:#ffe300"/><path d="M737.3,136.8c.27-1,1.24-1.68,2-2.37a10.78,10.78,0,0,0,3.15-4.68,3.21,3.21,0,0,1,1.81,4,5.65,5.65,0,0,1-3.4,3.29,30.09,30.09,0,0,1-4.73,1.21" style="fill:#ffe300"/><path d="M41.3,112.41a2.35,2.35,0,0,1,.8-.77,2.39,2.39,0,0,1,1.22-.15c1.86.11,4,.41,4.93,2.05a3.88,3.88,0,0,1,.36,2c-.16,2.46-1.8,4.55-3.36,6.46a1.13,1.13,0,0,1-.54.43,1.1,1.1,0,0,1-.59-.07c-1.44-.47-2.87-1-4.28-1.57a5.44,5.44,0,0,1-2.15-1.34C36,117.43,40.13,114,41.3,112.41Z" style="fill:#00e4e7"/><path d="M97.49,58.68a16.35,16.35,0,0,1,3.81-4.58,3.22,3.22,0,0,0,1.18-1.39,2.81,2.81,0,0,0-.28-1.85,38.41,38.41,0,0,0-4-7.33c-.2-.29-8.95,4.08-8.79,6C89.67,52.37,95.63,56.72,97.49,58.68Z" style="fill:#00e4e7"/><path d="M282,78.52a1.22,1.22,0,0,1,.9,0c.49.25.44,1,.49,1.5a4.2,4.2,0,0,0,1.68,2.7,24,24,0,0,1,2.53,2.07,1.26,1.26,0,0,1,.39.69,1.2,1.2,0,0,1-.14.64,5,5,0,0,1-3.08,2.58,9.61,9.61,0,0,1-4.1.22,4.68,4.68,0,0,1-2.37-.82,5.45,5.45,0,0,1-1.51-3c-.4-1.53-1.58-3.67-.38-4.94C277.36,79.08,280.57,79,282,78.52Z" style="fill:#00e4e7"/><path d="M286.36,161a1.32,1.32,0,0,1,.79.1,1.36,1.36,0,0,1,.42.44c1.06,1.53,2.07,3.1,3,4.71.24.4.48.91.24,1.32a1.27,1.27,0,0,1-.51.43,22.85,22.85,0,0,1-6.71,2.64,1.21,1.21,0,0,1-.86,0,1.28,1.28,0,0,1-.4-.54c-.91-1.94-3.36-5.1-2.18-7C281.18,161.42,284.64,161,286.36,161Z" style="fill:#00e4e7"/><path d="M345.39,176.54a2.3,2.3,0,0,0,.4,1.15,2.12,2.12,0,0,0,1,.56c2.56.76,5.31.44,8,.11-.05-.78.41-1.57.22-2.33a4.35,4.35,0,0,0-.47-.94c-.88-1.62-.62-3.59-.33-5.41-.2,1.27-7.4.17-8.18.61C344.31,171.26,345.11,174.6,345.39,176.54Z" style="fill:#00e4e7"/><path d="M385.24,133.6l4.9,2.23c2.65,1.22,5.39,2.49,7.32,4.68a4.9,4.9,0,0,0,.24-6.35c-1-2-2.47-7-5-6.56C391.12,127.88,386.39,134.06,385.24,133.6Z" style="fill:#00e4e7"/><path d="M386.53,81.92A23.93,23.93,0,0,0,389.14,83a13,13,0,0,1,3.8,2.45,9.94,9.94,0,0,0,.91-7.67A17.26,17.26,0,0,0,390,71a4.26,4.26,0,0,1-2.31,3.75c-2,1.14-4.21-.06-4.31,2.57C383.28,79.07,385.07,81.11,386.53,81.92Z" style="fill:#00e4e7"/><path d="M755.38,124.21a3.23,3.23,0,0,0,1.57.87c1.79.26,3.14-2.14,4.93-1.89a10.29,10.29,0,0,1,1.35-5,4.57,4.57,0,0,0,.61-1.33,1.19,1.19,0,0,0-.48-1.28c-.62-.34-1.37.17-2.06.07-1.4-.21-1.44-2.43-2.7-3.09a2.68,2.68,0,0,0-2.65.57,4.69,4.69,0,0,1-2.53,1.2,5.29,5.29,0,0,1-2-.71c-3.71-1.67-1.71,2-1,3.29C752,119.61,752.9,122.09,755.38,124.21Z" style="fill:#00e4e7"/><path d="M753.53,117a14.47,14.47,0,0,0,2.47,2,3.46,3.46,0,0,0,2.82.69,2.31,2.31,0,0,0,1.25-3,3.18,3.18,0,0,0-3-1.76,5.11,5.11,0,0,0-3.27,1.53" style="fill:#93e4e7"/><path d="M384.53,77.68c1.78-.5,3.71-1.1,4.71-2.65a5.94,5.94,0,0,1,2,3,2.58,2.58,0,0,1-1.49,3,4,4,0,0,1-1.91-.08,6.59,6.59,0,0,1-2.57-1,2.21,2.21,0,0,1-.9-2.41" style="fill:#93e4e7"/><path d="M386.68,134.23c2.31-.86,3.42-4.22,5.88-4.18a4.07,4.07,0,0,1,2.52,1.22,1.49,1.49,0,0,1,.65,1.21c-.08.48-.56.77-1,1a13.05,13.05,0,0,1-7.55.93" style="fill:#93e4e7"/><path d="M347.28,176.49a1.07,1.07,0,0,1-.94-.68,3.22,3.22,0,0,1-.2-1.2c0-1.09,0-2.36.9-3a3.46,3.46,0,0,1,2.6-.31l1.71.24a.79.79,0,0,1,.4.13c.37.3,0,.91-.49,1s-1,.09-1.33.44c-.46.5-.09,1.29-.12,2a1.84,1.84,0,0,1-1.27,1.55,2.77,2.77,0,0,1-2.07-.2" style="fill:#93e4e7"/><path d="M283.5,168.56a4.36,4.36,0,0,1-2.15-4.13,1.44,1.44,0,0,1,.32-.88,1.5,1.5,0,0,1,.65-.34,7,7,0,0,1,3.18-.27,1.76,1.76,0,0,1,.92.35.72.72,0,0,1,.17.9c-.16.21-.45.28-.65.46a1.17,1.17,0,0,0-.1,1.3,3.55,3.55,0,0,1,.43,1.31,1.6,1.6,0,0,1-1.51,1.39,4.62,4.62,0,0,1-2.17-.49" style="fill:#93e4e7"/><path d="M277.12,82.24A1.88,1.88,0,0,1,278.34,80a5.4,5.4,0,0,1,2.77-.1,5,5,0,0,0-.16,3.31,4.1,4.1,0,0,1,.29,1.28A1.67,1.67,0,0,1,279.65,86a2.35,2.35,0,0,1-2-1.1,3.86,3.86,0,0,1-.53-2.28" style="fill:#93e4e7"/><path d="M97.34,49.21a5.93,5.93,0,0,1-2,3.36,1.57,1.57,0,0,1-.63.32,1.65,1.65,0,0,1-.76-.07,7,7,0,0,1-2.34-1.17,1.62,1.62,0,0,1-.62-.78,1.55,1.55,0,0,1,.34-1.19,10.76,10.76,0,0,1,4.49-3.59C98.22,45,97.76,47.4,97.34,49.21Z" style="fill:#93e4e7"/><path d="M42.34,118.68a4.26,4.26,0,0,1-1.51,1.13,1.63,1.63,0,0,1-1.77-.33,1.7,1.7,0,0,1-.09-1.89,6.28,6.28,0,0,1,1.31-1.51c.87-.84,2.43-2.6,3.69-1.37S43.2,117.79,42.34,118.68Z" style="fill:#93e4e7"/><path d="M39.88,77.8A5.4,5.4,0,0,1,41,79.34c.39,1,.25,2.12.92,2.91a.44.44,0,0,0,.37.2.5.5,0,0,0,.3-.2,62.72,62.72,0,0,1,6.92-6.42c-1.09-1-2.25-2.13-2.37-3.6s.9-3,.5-4.38a.52.52,0,0,0-.18-.31c-.18-.11-.41,0-.59.12l-8.77,5.57C35.69,74.76,38.63,76.44,39.88,77.8Z" style="fill:#ff1b00"/><path d="M41,76.32a1.25,1.25,0,0,0,1.15.5,1.77,1.77,0,0,0,1-.79c.76-1.06,2.33-4.24-.22-4C41.25,72.2,39.94,75,41,76.32Z" style="fill:#ff6800"/><path d="M83.32,144.34a5.63,5.63,0,0,1,1.12,1.54c.39,1,.25,2.13.92,2.91a.48.48,0,0,0,.37.21.57.57,0,0,0,.3-.21A60.82,60.82,0,0,1,93,142.38c-1.09-1-2.26-2.13-2.37-3.6s.9-3,.5-4.39a.47.47,0,0,0-.18-.3c-.18-.12-.41,0-.59.11l-8.77,5.58C79.13,141.31,82.07,143,83.32,144.34Z" style="fill:#ff1b00"/><path d="M84.45,142.86a1.24,1.24,0,0,0,1.15.5,1.69,1.69,0,0,0,1-.79c.76-1,2.32-4.24-.22-4C84.69,138.75,83.39,141.55,84.45,142.86Z" style="fill:#ff6800"/><path d="M47.35,158.07a6.27,6.27,0,0,1,4.11-5.4,3.7,3.7,0,0,1,2.3-.12c1.5.49,2.22,2.14,2.76,3.62.91,2.47,1.82,5.23.83,7.67a2.4,2.4,0,0,1-.66,1,2.76,2.76,0,0,1-1.81.47,8.88,8.88,0,0,1-5.36-1.56,5.1,5.1,0,0,1-2.05-5" style="fill:#ff1b00"/><path d="M50.2,155.92A3.72,3.72,0,0,0,54,161.19l-.6-4a3.36,3.36,0,0,0-.51-1.58,1.77,1.77,0,0,0-2.7,0" style="fill:#ff6800"/><path d="M128.54,116.59a1.44,1.44,0,0,1,1.11-.06,1.4,1.4,0,0,1,.58.76l6.7,14.64-3.56.89c-2.1.52-4.41,1-6.35.06-3.09-1.54-4.75-7.41-5.08-10.55C121.48,117.9,124.8,117.83,128.54,116.59Z" style="fill:#ff6800"/><path d="M269.06,146.78a2.88,2.88,0,0,1,.74,1.45,3.07,3.07,0,0,1-.7,1.86c-1.07,1.61-3.68,7.49-5.4,8.15-2.66,1-4.43-3-5.54-5-3.09-5.6-.9-9.09,4.14-12.82C264.9,141.84,267.21,144.47,269.06,146.78Z" style="fill:#ff6800"/><path d="M262.43,146a7.15,7.15,0,0,0-2.15,3.15,3.36,3.36,0,0,0,.94,3.52,2.24,2.24,0,0,0,3.3-.62,3.12,3.12,0,0,0,.21-1.1,5.66,5.66,0,0,0-.55-3.07,2.94,2.94,0,0,0-2.55-1.6" style="fill:#ffc000"/><path d="M126.54,119.14a5.86,5.86,0,0,0-2.47,5.35,4.18,4.18,0,0,0,4.31,3.58,7.08,7.08,0,0,0-3.64-9.35" style="fill:#ffc000"/><path d="M129.76,97.4a8.89,8.89,0,0,1,5.87,6.63,10.82,10.82,0,0,1-2.19,8.74L125.35,110C118.12,107.59,126.85,100.37,129.76,97.4Z" style="fill:#6fc000"/><path d="M128.27,105l3.84-4.39a8.57,8.57,0,0,1,2.06,4.93,2.31,2.31,0,0,1-.5,1.88,2.55,2.55,0,0,1-1.6.54,5.17,5.17,0,0,1-2.82-.29,1.91,1.91,0,0,1-1-2.37" style="fill:#8fc300"/><path d="M199.1,49.36a106.13,106.13,0,0,1,.79,13.22,11.21,11.21,0,0,1-.74,4.75,4.12,4.12,0,0,1-3.77,2.57c-1-2.62-3.11-4.65-4.93-6.81s-4.24-5.39-2.29-7.94S196.12,50.61,199.1,49.36Z" style="fill:#8fc300"/><path d="M194,55.07a6.38,6.38,0,0,0,2.35,8.31L197.81,58c.29-1.12.38-2.66-.7-3.05-.91-.32-2,.52-2.83,0" style="fill:#aac300"/><path d="M449.47,131.74c-2.22-3.27-4.31-6.83-6.81-9.86-6.9,2.16-2.9,9.59.28,13.31C443.48,134.92,449.19,131.32,449.47,131.74Z" style="fill:#8fc300"/><path d="M440.75,125.74a11.38,11.38,0,0,0,1.11,3.38,3.73,3.73,0,0,0,2.84,1.94,1.13,1.13,0,0,0,.86-.25c.44-.43.14-1.17-.18-1.7l-2.4-4c-.13-.23-.29-.48-.55-.54-.75-.19-1.1,1.26-1.86,1.13" style="fill:#ace900"/><path d="M536.44,78.27a2.26,2.26,0,0,1,.65-.51c.87-.37,1.83.65,1.77,1.6a4.27,4.27,0,0,1-1.35,2.44,7.52,7.52,0,0,1,6.5,5.32c-1.47,3-5.64,4.14-6.53,7.34a6.15,6.15,0,0,1-.36,1.2c-.79,1.48-3,1.09-4.56.48a2.82,2.82,0,0,1,.64-3c.23-.23.54-.49.5-.81a.86.86,0,0,0-.34-.48c-1.07-.89-2.42-1.37-3.52-2.21C525.52,86.3,534.05,80.71,536.44,78.27Z" style="fill:#71be00"/><path d="M535,85a1.59,1.59,0,0,0-1.74,1.7,2.38,2.38,0,0,0,1.77,2,4.78,4.78,0,0,0,2.77-.19c.52-.17,1.1-.49,1.13-1s-.68-1-1.27-1.16c-1.18-.36-2.37-.68-3.57-1" style="fill:#a0be00"/><path d="M662.18,129.06c3,.78,5.25,3.13,7.07,5.59a5.83,5.83,0,0,1,.77,1.26c.61,1.52,0,3.22-.68,4.73a1.75,1.75,0,0,1-2.49,1.34c-2.45-.58-4.9-1.2-7.33-1.86a1.64,1.64,0,0,1-.48-.18c-1-.62,0-2.19-.13-3.38-.38-2.67-4.63-1.86-3.77-5C655.82,129.07,660.21,128.54,662.18,129.06Z" style="fill:#a0be00"/><path d="M660,133a9.33,9.33,0,0,1,3.79,4,2.16,2.16,0,0,0,.82,1.09,1.93,1.93,0,0,0,.71.16c.72.07,1.6.06,2-.56a1.58,1.58,0,0,0,.08-1.21,4.35,4.35,0,0,0-1.79-2.55,1.79,1.79,0,0,1-.55-.47c-.37-.58.17-1.54-.37-2a1.18,1.18,0,0,0-.72-.18A3.55,3.55,0,0,0,661,132" style="fill:#b6cd3b"/><path d="M642,67.07a.85.85,0,0,0,1.34.15l4.91-3.6c.19-.14.4-.3.42-.54a.82.82,0,0,0-.16-.49l-4.26-7.5A10.35,10.35,0,0,0,638.85,57C633.81,60.64,639.21,64.35,642,67.07Z" style="fill:#b6cd3b"/><path d="M639.91,59.45l1.78,3c.48.81,1.14,1.74,2.09,1.74a2,2,0,0,0,1.75-1.59A3.74,3.74,0,0,0,642,58" style="fill:#c2d55b"/><path d="M287.26,58.45l7.44,5.79a2.84,2.84,0,0,0,1.3.69c1.05.16,1.94-.86,2.17-1.9a22.16,22.16,0,0,0,.09-3.16c.1-1.39.68-2.81.27-4.14-.65-2.12-3.39-2.84-4.51-4.76a31.66,31.66,0,0,0-6.26,4.31,3.58,3.58,0,0,0-1.3,1.83c-.15.74.37,1.66,1.13,1.63" style="fill:#ff6800"/><path d="M369.22,66.9a28.1,28.1,0,0,1-1,3.44,11.67,11.67,0,0,0,0,6.42,4.62,4.62,0,0,1,.33,2.86,2.61,2.61,0,0,1-2.16,1.51,8,8,0,0,1-2.73-.32L359,79.68a2.26,2.26,0,0,1-.84-.32,1.63,1.63,0,0,1-.43-1.82,6,6,0,0,1,1.07-1.68c2.06-2.68,1.78-7.56,3.87-9.67C363.9,65,369.6,64.29,369.22,66.9Z" style="fill:#ff6800"/><path d="M367.75,116.75a2.21,2.21,0,0,0-.63,1.65,1.94,1.94,0,0,0,.82,1.06,17.69,17.69,0,0,0,9.21,3.67,22.63,22.63,0,0,1,2.21-8.26c.6-1.22,1.31-2.67.62-3.84a3.11,3.11,0,0,0-1-1c-1.76-1.18-6.19-2.79-8.08-1.08C369.37,110.31,369.12,114.81,367.75,116.75Z" style="fill:#ff6800"/><path d="M420.81,113.8,416.64,119a.67.67,0,0,0-.21.5c0,.21.24.33.43.43,2.75,1.41,5.56,2.73,8.4,4a10.66,10.66,0,0,0,.64-3.69,5.55,5.55,0,0,0-6.19-4.93" style="fill:#ff6800"/><path d="M475.62,152.66a25.27,25.27,0,0,0,9.87,6,.51.51,0,0,0,.4,0,.48.48,0,0,0,.17-.27l3.23-8.37c-1.07-1-2.66-1-4.1-1-1.89-.06-3.36-1.43-5-.84C479.67,148.34,475.75,152.79,475.62,152.66Z" style="fill:#ff6800"/><path d="M609.93,151.28a33.62,33.62,0,0,1-6.72,2.53,65.7,65.7,0,0,0,3.53,6.63,1.92,1.92,0,0,0,.76.81,1.87,1.87,0,0,0,1.44-.14l6.19-2.28-1.8-5.7a1.87,1.87,0,0,0-.89-1.31c-.85-.34-2,.63-2.66.05" style="fill:#ff6800"/><path d="M725.22,109.75l6.87.27a.86.86,0,0,1,.57.15.84.84,0,0,1,.21.62l.57,7a63.43,63.43,0,0,1-7.92,2.87,1.31,1.31,0,0,1-.73.06,1.26,1.26,0,0,1-.67-.67,11,11,0,0,1,.37-11.08" style="fill:#ff6800"/><path d="M614.2,58.6a3.79,3.79,0,0,1,2.2-1.06,3.23,3.23,0,0,1,1.88,1.06l3,2.79a19.25,19.25,0,0,0-2,9.22.88.88,0,0,1-.14.64.81.81,0,0,1-.57.18,62.41,62.41,0,0,1-8.54-.16,2.08,2.08,0,0,1-1.66-.68,2.18,2.18,0,0,1-.22-1.16c0-1.69-.92-7.1,0-8.4A36.94,36.94,0,0,1,614.2,58.6Z" style="fill:#ff6800"/><path d="M610.38,65.24a3,3,0,0,1,3.7-2.48A3.15,3.15,0,0,1,616,66.83a3.32,3.32,0,0,1-4.24,1.69A3.49,3.49,0,0,1,610,64.26" style="fill:#ff8d00"/><path d="M726.39,113a3.37,3.37,0,0,1,3.84-.51,1.07,1.07,0,0,1,.53.54,1.15,1.15,0,0,1-.14.86,4.06,4.06,0,0,1-3.62,2.6c-1.58-.11-2.81-2.22-1.75-3.38" style="fill:#ff8d00"/><path d="M606.16,156.24a7.56,7.56,0,0,0,2,3,2.54,2.54,0,0,0,3.33,0c1.1-1.19.08-3.29-1.44-3.83s-3.2,0-4.74.47" style="fill:#ff8d00"/><path d="M480.89,151.55a5,5,0,0,0,.88,2.95,2.14,2.14,0,0,0,2.78.57c1.06-.8.67-2.61-.41-3.38a6.43,6.43,0,0,0-3.81-.8" style="fill:#ff8d00"/><path d="M371.34,114a3.35,3.35,0,0,1,4.64-2.39,1,1,0,0,1,.45.41.91.91,0,0,1,0,.4,4.71,4.71,0,0,1-3.59,4.21,2.54,2.54,0,0,1-2.18-.4,1.35,1.35,0,0,1-.09-2" style="fill:#ff8d00"/><path d="M363.32,77.39c-1.68-1.1-1.32-3.63-.75-5.56a4.18,4.18,0,0,1,.87-1.81,1.43,1.43,0,0,1,1.84-.24,26.87,26.87,0,0,1-1.36,4.51,6.3,6.3,0,0,0,0,4.6L362,78.24" style="fill:#ff8d00"/><path d="M418.55,118.75a8.42,8.42,0,0,1,2.28,1.19c.78.38,2,.26,2.17-.58s-.58-1.32-1.27-1.61a7.49,7.49,0,0,0-4.46-.42" style="fill:#ff8d00"/><path d="M290.5,56.68a2.17,2.17,0,0,0,.25,2.91,5.32,5.32,0,0,0,2.91,1.27,2.64,2.64,0,0,0,2.5-.44,2.37,2.37,0,0,0,.21-2.29A4.64,4.64,0,0,0,294,55.21a2.6,2.6,0,0,0-3.33,1" style="fill:#ff8d00"/><path d="M286,108.31l7,.38c1.07,0,2.33,0,2.94-.85a2.53,2.53,0,0,0-.29-2.77,22.14,22.14,0,0,1-1.75-2.39c-.43-.89-.49-1.93-.95-2.81s-1.62-1.56-2.43-1c-1.15.8-.29,3-1.42,3.8a3.66,3.66,0,0,1-1.28.43,3.45,3.45,0,0,0-2,4.78" style="fill:#ff1b00"/><path d="M338.39,127.38c1.47,0,3.18.07,4.18-1,.57-.63,1-1.66,1.85-1.54s1,1,1.06,1.69l1,7a1.38,1.38,0,0,1-.06.83c-.24.47-.91.49-1.43.41a21,21,0,0,1-4.48-1.4l-3.06-1.21C333.91,130.78,334.56,127.5,338.39,127.38Z" style="fill:#ff1b00"/><path d="M300.26,169.21a2,2,0,0,1,.44-.78,1.33,1.33,0,0,1,1.05-.22c2,.28,3.15,2.45,3.93,4.34l2.12,5.12a2.27,2.27,0,0,1,.23,1.56,1.94,1.94,0,0,1-1.47,1c-2.31.56-4.72-.15-7-.85s-6.7-2.68-4.8-5.89C296,171.48,299.11,172,300.26,169.21Z" style="fill:#ff1b00"/><path d="M359.21,59a3,3,0,0,0,1.5.15,1.84,1.84,0,0,0,1-.9c.85-1.63-.28-3.55-1.37-5-2-2.7-4.4-5.64-7.74-5.89a8.73,8.73,0,0,0,.64,5,1.27,1.27,0,0,1,.16,1,1.15,1.15,0,0,1-.76.51c-2,.69-4.67,3.16-2,4.76C352.22,59.5,357.16,58.41,359.21,59Z" style="fill:#ff1b00"/><path d="M444.6,170.21c-1.21-1.12-1.61-2.85-1.94-4.46a1.75,1.75,0,0,1-.05-.75,1.37,1.37,0,0,1,1.27-.91c2-.24,3.56,1.59,4.72,3.23l2.58,3.63a2.44,2.44,0,0,1,.63,1.55c-.07.87-1,1.39-1.77,1.75a9.87,9.87,0,0,1-3.05,1,3.33,3.33,0,0,1-2.93-1,2,2,0,0,1,.24-2.87" style="fill:#ff1b00"/><path d="M515.78,169a7.16,7.16,0,0,0,2.08-2.87c3,.72,4.52,4,5.62,6.89a2.11,2.11,0,0,1,.19,1.43c-.28.81-1.35,1-2.21,1l-2.78,0a10.16,10.16,0,0,1-3.26-.32A3.41,3.41,0,0,1,513.1,173a2.62,2.62,0,0,1,1.63-3.09" style="fill:#ff1b00"/><path d="M469.14,57.79c.87-1.36,2.27-2.92,3.8-2.38a3.52,3.52,0,0,1,1.71,1.83,51,51,0,0,1,3,6.46,2.35,2.35,0,0,1,.13,2c-.44.78-1.53.81-2.42.75a20.83,20.83,0,0,1-6.14-1.07,6.94,6.94,0,0,1-4.29-4.24,2,2,0,0,1,.36-2.06,2.37,2.37,0,0,1,1.22-.38l2.35-.28" style="fill:#ff1b00"/><path d="M538.72,62.6a2.62,2.62,0,0,0,2.23.77c1-.31,1.28-1.59,1.38-2.64a17.1,17.1,0,0,0-.06-5.2,5.77,5.77,0,0,0-2.94-4.09.91.91,0,0,0-.89,0c-.31.21-.29.67-.38,1a2.23,2.23,0,0,1-2.31,1.36c-2.92,0-4.47-.79-3.4,2.34C533.15,58.48,536.85,61.15,538.72,62.6Z" style="fill:#ff1b00"/><path d="M627.68,84.32c1.48,1.08,3.15,2.21,5,2,.18-3.5.31-7.23-1.5-10.23-.44-.73-1.22-1.47-2-1.19a3,3,0,0,0-1,.9c-1.36,1.4-8.21,1.48-7.87,3.57C620.38,80.43,626.73,83.63,627.68,84.32Z" style="fill:#ff1b00"/><path d="M657.22,153.29a8.17,8.17,0,0,1,7,2.81,1.21,1.21,0,0,1-.32,2.16,13.39,13.39,0,0,1-9.13,1.49,3.63,3.63,0,0,1-2.58-1.45A3.57,3.57,0,0,0,654,157c.37-.64.13-1.68-.6-1.81,1.62-1.87,4.51-1.71,7-1.4" style="fill:#ff1b00"/><path d="M707,134.75a1,1,0,0,1,.48.53c.17.56-.53,1.12-.33,1.67s1.08.43,1.71.33a2.89,2.89,0,0,1,3.32,2.48A2.38,2.38,0,0,1,709,142a4,4,0,0,1-2.9,3.13c-1.48.27-3.16-1.14-2.76-2.6.13-.47.42-1,0-1.38A.88.88,0,0,0,703,141a8.13,8.13,0,0,0-4,.1c-.56.16-1.27.33-1.61-.15a1.3,1.3,0,0,1,0-1.08C698.41,135.91,702.78,132,707,134.75Z" style="fill:#ff1b00"/><path d="M766.43,159.76c.27,1.05.27,2.33,1.16,3a8.33,8.33,0,0,0,1.09.51c1.71.89,1.64,3.73.05,4.82a4,4,0,0,1-5.15-1,3.69,3.69,0,0,1-4,3.27,5.49,5.49,0,0,1-4.33-3.41c-.26-.6-.4-1.4.11-1.82a14.86,14.86,0,0,1,1.74-.87c-1.05-1.92-8.93-2.69-2-4.46a38.51,38.51,0,0,0,6.23-1.87c1.18-.5.68-1.64,2.21-1.49S766.14,158.6,766.43,159.76Z" style="fill:#ff1b00"/></svg>