<svg id="Capa_1" data-name="Capa 1" xmlns="http://www.w3.org/2000/svg" viewBox="0 0 627 94"><path d="M623.51,55.16a21.74,21.74,0,0,0-3.44-4.6c.27-.38.53-.77.8-1.19,2.3-3.67,3.42-7,3.42-10.21,0-2.35-.82-8.18-8.39-11.65a42.5,42.5,0,0,0-17.51-4C587,23.5,580,26.56,575.7,30.61a12.77,12.77,0,0,0-7-5.18,26.88,26.88,0,0,0-8.13-1,18.36,18.36,0,0,0-9.15,2.15l-.48-.21a23.51,23.51,0,0,0-9.31-1.84A28.06,28.06,0,0,0,524,30.91a9.68,9.68,0,0,0-.74-.95,14.92,14.92,0,0,0-6.92-4.53,30.66,30.66,0,0,0-4.61-1.11,33.2,33.2,0,0,0-5.1-.35,19,19,0,0,0-8.91,2.46,21.18,21.18,0,0,0-9.78-2c-4.69,0-8.43.95-11.18,2.81-.33-.21-.67-.41-1-.6a15.89,15.89,0,0,0-5.38-1.8c-.62-.08-1.32-.14-2.14-.17v-.45a24.9,24.9,0,0,0-.87-7.44l-.09-.29c-1.22-3.46-4.9-9.27-15.85-9.27-7.35,0-12.33,2.25-14.81,6.7a14.45,14.45,0,0,0-2,5.41,33.78,33.78,0,0,0-.22,4.41v1.85a14.07,14.07,0,0,0-3.81,2.2l-.15.12-.14.13a12.24,12.24,0,0,0-1.5,1.63c-4.57-3.53-11.08-6.29-20.24-6.29-10,0-18.49,3.2-25.3,9.51a32.49,32.49,0,0,0-5.52,6.65V17.83a34.71,34.71,0,0,0-.21-4.41,15.91,15.91,0,0,0-1.85-5.56l-.07-.13c-2.58-4.64-7.55-7-14.77-7-7.53,0-12.6,2.42-15.08,7.21l-.08.16-.08.16a17.28,17.28,0,0,0-1.55,5.06,36.46,36.46,0,0,0-.21,4.41v7.69h0a26.88,26.88,0,0,0-8.13-1,18.36,18.36,0,0,0-9.15,2.15l-.48-.21a23.51,23.51,0,0,0-9.31-1.84c-8.09,0-15.45,3.42-21.86,10.18a38.42,38.42,0,0,0-3.67,4.52,34.21,34.21,0,0,0-3.33-4.53,28.91,28.91,0,0,0-22.4-10.27,21,21,0,0,0-9.42,2.18c-3.84-2.18-8.34-2.18-10.18-2.18-7.34,0-12.34,2.29-14.82,6.72-.07.12-.12.24-.19.36-4.61-4.36-11.68-8.13-22.39-8.13-9.77,0-18.14,3.08-24.88,9.15V17.93a34.2,34.2,0,0,0-.22-4.41,16.49,16.49,0,0,0-1.69-5.26,12.62,12.62,0,0,0-7.63-6.36,28.83,28.83,0,0,0-14.83,0,12.44,12.44,0,0,0-7.57,6.2,16,16,0,0,0-1.75,5.32,34.2,34.2,0,0,0-.22,4.41v6.82c-.79-.07-1.59-.1-2.41-.1a28,28,0,0,0-18,6.63A12.47,12.47,0,0,0,128.4,30a15,15,0,0,0-6.93-4.53,30.38,30.38,0,0,0-4.61-1.11,33.2,33.2,0,0,0-5.1-.35,19,19,0,0,0-8.91,2.46,21.18,21.18,0,0,0-9.78-2c-4.62,0-8.31.92-11,2.73a43.5,43.5,0,0,0-8-10.6A42.39,42.39,0,0,0,43.43,3.89,40.82,40.82,0,0,0,27.22,7.27a44.45,44.45,0,0,0-13.61,9.12A43.16,43.16,0,0,0,4,30.86,47.12,47.12,0,0,0,.51,49,43.24,43.24,0,0,0,13.12,80,41.57,41.57,0,0,0,44,93.17,40.61,40.61,0,0,0,74.77,79.78c.45-.49.89-1,1.32-1.48a14.06,14.06,0,0,0,4.63,10l.12.11.13.1C83.91,90.86,87.83,92,93,92c7.29,0,12.3-2.28,14.9-6.78L108,85a15.84,15.84,0,0,0,1.84-5.45,34.2,34.2,0,0,0,.22-4.41V57.79A16,16,0,0,0,116,58.93a33.14,33.14,0,0,0,9.4,22.7c6.38,6.77,13.76,10.2,21.93,10.2A25,25,0,0,0,157.1,90a18.52,18.52,0,0,0,8.79,2c2.89,0,11.66,0,15.56-7a18.63,18.63,0,0,0,.88-1.8,30.83,30.83,0,0,0,10,6.91,39.35,39.35,0,0,0,16.06,3.17c8,0,14.09-.91,18.59-2.79a19.19,19.19,0,0,0,5.44-3.37c2.79,3.2,7.27,4.83,13.36,4.83,7.48,0,12.51-2.41,15-7.14a15.14,15.14,0,0,0,1.84-5.36l0-.27a17.64,17.64,0,0,0,.74,3.3c1.15,3.64,4.76,9.47,16,9.47,7.52,0,12.59-2.43,15.08-7.21l.06-.13a17.59,17.59,0,0,0,1-2.34c6.22,6.35,13.26,9.58,20.95,9.58a26.49,26.49,0,0,0,10.42-1.94c2.58,1.33,5.89,1.94,10.42,1.94,7.41,0,11.28-2.86,13.3-5.7q4.6,4.34,13.06,5.44a60.08,60.08,0,0,0,7.44.53c4.54,0,7.82-.81,10.39-2.59a11.39,11.39,0,0,0,3.49-4,32.92,32.92,0,0,0,7.47,4.54,39.3,39.3,0,0,0,16,3.17c8,0,14.1-.91,18.59-2.79,5.81-2.42,9.43-6.77,10.21-12.1a21.2,21.2,0,0,0,5.26,7c5,4.38,12,6.6,20.74,6.6a35.5,35.5,0,0,0,4.32-.21,17.32,17.32,0,0,0,5.05-1.55l.21-.1a11.9,11.9,0,0,0,2.74-1.9h0l.12.11.13.1c2.94,2.38,6.86,3.54,12,3.54,7.29,0,12.3-2.28,14.9-6.78l.14-.25a16,16,0,0,0,1.84-5.46,34.2,34.2,0,0,0,.22-4.41V57.79a15.94,15.94,0,0,0,5.41,1.12,33.32,33.32,0,0,0,9.38,22.65c6.38,6.81,13.66,10.27,21.62,10.27a26.49,26.49,0,0,0,10.42-1.94c2.58,1.33,5.89,1.94,10.42,1.94,6.54,0,10.32-2.23,12.5-4.7a41,41,0,0,0,20.78,5.75c7.44,0,13.86-1.28,19.1-3.82l.18-.09a20.67,20.67,0,0,0,8.86-8.8,26.3,26.3,0,0,0,2.88-12.51A25.18,25.18,0,0,0,623.51,55.16ZM50.15,56.26c-2.66,2.52-4.89,2.81-6.34,2.81s-3.63-.3-6.32-2.9c-1.24-1.19-2.88-3.28-2.88-7.64s1.63-6.47,2.86-7.67C40.11,38.29,42.3,38,43.72,38s3.66.3,6.35,2.88c1.23,1.17,2.85,3.24,2.85,7.76S51.34,55.13,50.15,56.26ZM468.21,58.5c.78,0,1.45-.09,2-.17l.69-.12V60a15.06,15.06,0,0,0-2.73-.66Z" style="fill:#fff;stroke:#ff1d25;stroke-miterlimit:10"/><path d="M43.43,12.48A33.93,33.93,0,0,1,68,22.71Q78.43,32.94,78.43,48.1a36.48,36.48,0,0,1-9.94,25.82A32.15,32.15,0,0,1,44,84.58,33.11,33.11,0,0,1,19.28,74.06,34.76,34.76,0,0,1,9.1,49,38.55,38.55,0,0,1,12,34.14a34.39,34.39,0,0,1,7.65-11.62,35.78,35.78,0,0,1,11-7.37A32.12,32.12,0,0,1,43.43,12.48ZM26,48.53q0,8.52,5.5,13.82a17,17,0,0,0,24.53.14q5.44-5.16,5.45-13.86t-5.5-14A17.4,17.4,0,0,0,43.72,29.4a17.12,17.12,0,0,0-12.24,5.31Q26,40,26,48.53Z" style="fill:#e5336a"/><path d="M118.89,33.61a6.49,6.49,0,0,1,3,2A6.75,6.75,0,0,1,123.09,40a15.1,15.1,0,0,1-1.81,6.69c-1.21,2.43-3,3.64-5.26,3.64a7.47,7.47,0,0,1-3.3-.77,9.6,9.6,0,0,0-4.16-.76,7.55,7.55,0,0,0-4.83,1.81,5.49,5.49,0,0,0-2.25,4.4V75.12a29.42,29.42,0,0,1-.14,3.3,7.81,7.81,0,0,1-.91,2.53c-1,1.66-3.44,2.49-7.46,2.49q-4.59,0-6.6-1.63a5.73,5.73,0,0,1-1.72-4.11V41.36a29.17,29.17,0,0,1,.14-3.3,7.87,7.87,0,0,1,.82-2.44C86.5,33.9,89,33,93.07,33q5.73,0,7.17,2.2a5.5,5.5,0,0,1,1.05,3.15,16.68,16.68,0,0,1,1.39-1.62,17.23,17.23,0,0,1,3.87-2.58,11.12,11.12,0,0,1,5.21-1.63,25,25,0,0,1,3.78.24A23.7,23.7,0,0,1,118.89,33.61Z" style="fill:#e5336a"/><path d="M159.29,12.05a4,4,0,0,1,2.54-2,20.36,20.36,0,0,1,9.65,0,4,4,0,0,1,2.54,2,8.36,8.36,0,0,1,.86,2.54,27,27,0,0,1,.14,3.3V75a27,27,0,0,1-.14,3.3,6.9,6.9,0,0,1-.91,2.44q-1.44,2.58-8.08,2.58t-7.41-4.69q-4,4.6-11.19,4.6-8.61,0-15.68-7.51a25.18,25.18,0,0,1,0-35q7.13-7.56,15.64-7.56,7.08,0,11,4.79V17.83a27.17,27.17,0,0,1,.14-3.3A7.74,7.74,0,0,1,159.29,12.05ZM143.75,64a8.08,8.08,0,0,0,6,2.59A7.64,7.64,0,0,0,155.66,64,8.28,8.28,0,0,0,158,58.33a8.8,8.8,0,0,0-2.25-5.78,7.5,7.5,0,0,0-6.07-2.68,7.73,7.73,0,0,0-6.12,2.63,8.6,8.6,0,0,0-2.3,5.78A8.08,8.08,0,0,0,143.75,64Z" style="fill:#e5336a"/><path d="M231.26,52.21c0,3.92-1,6.83-2.92,8.71a9.12,9.12,0,0,1-6.46,2.82H199.22q0,2.67,3.15,4.49a12.6,12.6,0,0,0,6.32,1.82,26.23,26.23,0,0,0,8.7-1.15l1.05-.38a9.68,9.68,0,0,1,3.83-1q3.06,0,5.26,4.3a10.68,10.68,0,0,1,1.24,4.4q0,8.51-20.37,8.51a30.69,30.69,0,0,1-12.58-2.44,21.41,21.41,0,0,1-8.56-6.45,27.56,27.56,0,0,1-6-17.31q0-12.06,7.79-19.27T208.49,32Q221.8,32,228,41.36A19.41,19.41,0,0,1,231.26,52.21ZM211.08,55q3.63,0,3.63-3.06A4.34,4.34,0,0,0,213,48.43a7.51,7.51,0,0,0-4.78-1.33,9.64,9.64,0,0,0-6.17,2.53Q199,52.17,199,55Z" style="fill:#e5336a"/><path d="M265.49,33a20.26,20.26,0,0,1,15.93,7.31,26.3,26.3,0,0,1,6.35,17.84V75a27,27,0,0,1-.14,3.3,7.83,7.83,0,0,1-.81,2.44c-.9,1.72-3.38,2.58-7.46,2.58q-6.8,0-7.84-3.54a15.29,15.29,0,0,1-.58-4.87V58.09a7.67,7.67,0,0,0-8.27-8.32,8.37,8.37,0,0,0-6.12,2.3,8.06,8.06,0,0,0-2.34,6V75a26.52,26.52,0,0,1-.15,3.3,6.86,6.86,0,0,1-.9,2.44q-1.24,2.58-7.37,2.58t-7.36-2.58a8.92,8.92,0,0,1-.82-2.54,29.09,29.09,0,0,1-.14-3.29V41.07a28,28,0,0,1,.14-3.2,6.83,6.83,0,0,1,.91-2.44c.9-1.59,3.35-2.39,7.37-2.39s6.28.73,7.17,2.2a7.57,7.57,0,0,1,1,3.92,9,9,0,0,1,1.72-1.91,16.53,16.53,0,0,1,2.58-2A12.51,12.51,0,0,1,265.49,33Z" style="fill:#e5336a"/><path d="M328.13,38.39Q328.7,33,335.69,33a19.9,19.9,0,0,1,5.54.57,4,4,0,0,1,2.54,2,8.31,8.31,0,0,1,.86,2.53,29.42,29.42,0,0,1,.14,3.3V74.93a29.09,29.09,0,0,1-.14,3.29,9.19,9.19,0,0,1-.81,2.54c-.9,1.66-3.08,2.49-6.56,2.49s-5.8-.43-7-1.3a5.13,5.13,0,0,1-2-3.77q-3.54,5.07-11.81,5.07t-15.35-7.56A24.89,24.89,0,0,1,294,58.14a24.63,24.63,0,0,1,7.12-17.5q7.13-7.5,15.64-7.51a15,15,0,0,1,5.93,1.15,13.34,13.34,0,0,1,3.73,2.15A14,14,0,0,1,328.13,38.39Zm-17.4,19.89a7.93,7.93,0,0,0,2.48,5.7,8.14,8.14,0,0,0,6,2.53,7.6,7.6,0,0,0,5.88-2.58,8.29,8.29,0,0,0,2.34-5.69,8.85,8.85,0,0,0-2.25-5.79,7.46,7.46,0,0,0-6-2.68,7.76,7.76,0,0,0-6.12,2.68A8.7,8.7,0,0,0,310.73,58.28Z" style="fill:#e5336a"/><path d="M352.42,17.74a26.52,26.52,0,0,1,.15-3.3,8.56,8.56,0,0,1,.81-2.54q1.33-2.58,7.46-2.58,5.84,0,7.27,2.58a7.53,7.53,0,0,1,.9,2.58,28,28,0,0,1,.15,3.35V62.11q0,3.45.57,4.35c.38.61,1.23.91,2.54.91a16.16,16.16,0,0,1,2.63.14,4.9,4.9,0,0,1,1.62.82c1.28.83,1.91,3.09,1.91,6.79,0,4-.63,6.47-1.91,7.36q-2.49,1.72-11.86.57-7.37-.94-9.56-4.87-2.69-4.7-2.68-14.92Z" style="fill:#e5336a"/><path d="M431.32,52.21c0,3.92-1,6.83-2.92,8.71A9.08,9.08,0,0,1,422,63.74H399.28q0,2.67,3.16,4.49a12.57,12.57,0,0,0,6.31,1.82,26.15,26.15,0,0,0,8.7-1.15l1.06-.38a9.64,9.64,0,0,1,3.82-1q3.06,0,5.26,4.3a10.53,10.53,0,0,1,1.24,4.4q0,8.51-20.37,8.51a30.61,30.61,0,0,1-12.57-2.44,21.34,21.34,0,0,1-8.56-6.45,27.51,27.51,0,0,1-6-17.31q0-12.06,7.8-19.27T408.56,32q13.29,0,19.51,9.37A19.4,19.4,0,0,1,431.32,52.21ZM411.14,55c2.42,0,3.64-1,3.64-3.06a4.32,4.32,0,0,0-1.68-3.54,7.5,7.5,0,0,0-4.78-1.33,9.66,9.66,0,0,0-6.17,2.53q-3.06,2.53-3.06,5.4Z" style="fill:#e5336a"/><path d="M465.85,50l-6.22-.38v13.2a6.63,6.63,0,0,0,.81,3.73,3.53,3.53,0,0,0,3.06,1.15,32.5,32.5,0,0,1,3.44.14,6.86,6.86,0,0,1,2.54.91c1.46.83,2.2,3,2.2,6.41,0,4-.89,6.47-2.68,7.36a8.6,8.6,0,0,1-2.53.81,25.75,25.75,0,0,1-3.21.15q-9.94,0-15.11-4.5T443,63.74V49.58a25.32,25.32,0,0,1-3.92.29,4.36,4.36,0,0,1-3.49-1.63q-1.4-1.62-1.39-5.54a24,24,0,0,1,.48-5.69A5.09,5.09,0,0,1,436,34.47a5.85,5.85,0,0,1,3.82-1.24l3.16.38V23.76a27.92,27.92,0,0,1,.14-3.25,6.14,6.14,0,0,1,.91-2.3q1.24-2.38,7.36-2.39,6.51,0,7.75,3.54a17.84,17.84,0,0,1,.48,4.88v9.37q4.2-.37,6.36-.38a28.65,28.65,0,0,1,3.25.14,7.73,7.73,0,0,1,2.53.91c1.66.83,2.49,3.29,2.49,7.36s-.86,6.48-2.58,7.37a8.56,8.56,0,0,1-2.54.81A26.88,26.88,0,0,1,465.85,50Z" style="fill:#e5336a"/><path d="M513.76,33.61a6.49,6.49,0,0,1,3,2A6.75,6.75,0,0,1,518,40a15.1,15.1,0,0,1-1.81,6.69c-1.21,2.43-3,3.64-5.26,3.64a7.47,7.47,0,0,1-3.3-.77,9.6,9.6,0,0,0-4.16-.76,7.55,7.55,0,0,0-4.83,1.81,5.49,5.49,0,0,0-2.25,4.4V75.12a29.42,29.42,0,0,1-.14,3.3A7.81,7.81,0,0,1,495.3,81c-1,1.66-3.44,2.49-7.46,2.49q-4.59,0-6.6-1.63a5.73,5.73,0,0,1-1.72-4.11V41.36a29.17,29.17,0,0,1,.14-3.3,7.87,7.87,0,0,1,.82-2.44c.89-1.72,3.37-2.58,7.46-2.58q5.73,0,7.17,2.2a5.5,5.5,0,0,1,1.05,3.15,16.68,16.68,0,0,1,1.39-1.62,17.23,17.23,0,0,1,3.87-2.58,11.12,11.12,0,0,1,5.21-1.63,25,25,0,0,1,3.78.24A23.37,23.37,0,0,1,513.76,33.61Z" style="fill:#e5336a"/><path d="M553.06,38.39q.57-5.36,7.56-5.35a19.9,19.9,0,0,1,5.54.57,4,4,0,0,1,2.54,2,8.31,8.31,0,0,1,.86,2.53,29.42,29.42,0,0,1,.14,3.3V74.93a29.09,29.09,0,0,1-.14,3.29,9.19,9.19,0,0,1-.81,2.54c-.9,1.66-3.08,2.49-6.56,2.49s-5.8-.43-7-1.3a5.13,5.13,0,0,1-2.05-3.77q-3.54,5.07-11.81,5.07T526,75.69a24.89,24.89,0,0,1-7.08-17.55A24.63,24.63,0,0,1,526,40.64q7.13-7.5,15.64-7.51a15,15,0,0,1,5.93,1.15,13.34,13.34,0,0,1,3.73,2.15A14,14,0,0,1,553.06,38.39Zm-17.4,19.89a7.93,7.93,0,0,0,2.48,5.7,8.14,8.14,0,0,0,6,2.53,7.6,7.6,0,0,0,5.88-2.58,8.29,8.29,0,0,0,2.34-5.69,8.85,8.85,0,0,0-2.25-5.79,7.46,7.46,0,0,0-6-2.68A7.76,7.76,0,0,0,538,52.45,8.7,8.7,0,0,0,535.66,58.28Z" style="fill:#e5336a"/><path d="M577.73,78.94a4,4,0,0,1-1.81-3.63q0-2.49,3.63-7.56a3.74,3.74,0,0,1,3.4-1.62q2.34,0,6.36,2.34a14.72,14.72,0,0,0,7.26,2.34q5.83,0,5.84-2.29c0-1.21-2.14-2.11-6.41-2.68a31.22,31.22,0,0,1-12-4.49,12.77,12.77,0,0,1-4.59-5.41,19.44,19.44,0,0,1-1.82-8.75q0-15.11,20.75-15.11a33.79,33.79,0,0,1,14,3.25c2.24,1,3.35,2.3,3.35,3.83a11.29,11.29,0,0,1-2.1,5.64c-1.41,2.23-2.84,3.35-4.31,3.35A12.92,12.92,0,0,1,605,46.71a16,16,0,0,0-6.74-1.43q-5.65,0-5.65,2.1,0,2.88,6.51,3.73a35.7,35.7,0,0,1,12.24,3.64A10.88,10.88,0,0,1,616,59.38a16.68,16.68,0,0,1,1.86,8.28A17.8,17.8,0,0,1,616,76.12a12.1,12.1,0,0,1-5.22,5.21q-6.12,3-15.35,3A32.87,32.87,0,0,1,577.73,78.94Z" style="fill:#e5336a"/></svg>