<svg id="Fondo" xmlns="http://www.w3.org/2000/svg" viewBox="0 0 461.25 142.5"><path d="M362.18,9.23l-8.39,5.19s9.33,9.45,12.4,18.18,0,16,0,21.95,8,26.91,21.48,26.91,12,2.13,12,2.13l9-65.86Z" style="fill:#ffee2f"/><polygon points="371.96 104.83 385.07 101.76 403.72 101.76 417.64 104.83 402.3 114.74 382.95 113.56 371.96 104.83" style="fill:#c18580"/><rect x="384.09" y="104.68" width="21.43" height="30.08" style="fill:#ab5a53"/><path d="M362.8,67.48c1.38-2.24.6-5.29-1.11-7.28s-4.15-3.17-6.52-4.32A54.88,54.88,0,0,1,344,49.32a19.65,19.65,0,0,1-7-10.61c-.93-4.23.26-9,3.6-11.8s8.13-3,12.45-2.48c4,.49,8,1.56,11.12,4s4.48,11,4.3,11.14c-.59.61-1.56-.1-2.1-.75A28.27,28.27,0,0,0,357,31.6c-3.47-1.68-8-2.49-10.91,0a8.75,8.75,0,0,0-2.65,6.31,8.35,8.35,0,0,0,1.21,5.14c1.44,2.11,4.05,3,6.48,3.84,4.56,1.52,9.21,3.22,12.75,6.47s5.72,8.43,4.11,13a9.72,9.72,0,0,1-13,5.17,5.44,5.44,0,0,1-2.45-2.24,4.32,4.32,0,0,1,.52-4.47c1.19-1.53,3.74-2.58,5.57-1.75-1,1.6-3.79,2.48-2.19,4.95C357.89,70.18,361.56,69.48,362.8,67.48Z" style="fill:#ffdb00"/><path d="M427.79,9.23l8.39,5.19s-9.33,9.45-12.4,18.18,0,16,0,21.95-8,26.91-21.48,26.91-12,2.13-12,2.13l-9-65.86Z" style="fill:#ffee2f"/><path d="M427.17,67.48c-1.38-2.24-.61-5.29,1.1-7.28s4.16-3.17,6.52-4.32A55,55,0,0,0,446,49.32,19.65,19.65,0,0,0,453,38.71c.93-4.23-.26-9-3.61-11.8s-8.13-3-12.45-2.48c-3.95.49-8,1.56-11.11,4s-4.48,11-4.3,11.14c.59.61,1.56-.1,2.1-.75a28.17,28.17,0,0,1,9.3-7.23c3.47-1.68,8-2.49,10.91,0a8.75,8.75,0,0,1,2.65,6.31,8.42,8.42,0,0,1-1.21,5.14c-1.44,2.11-4.06,3-6.48,3.84-4.56,1.52-9.21,3.22-12.75,6.47s-5.72,8.43-4.11,13a9.72,9.72,0,0,0,13,5.17,5.44,5.44,0,0,0,2.45-2.24,4.34,4.34,0,0,0-.52-4.47c-1.19-1.53-3.74-2.58-5.57-1.75,1,1.6,3.79,2.48,2.18,4.95C432.08,70.18,428.41,69.48,427.17,67.48Z" style="fill:#ffdb00"/><ellipse cx="395.13" cy="14.42" rx="41.34" ry="11.04" style="fill:#ffee2f"/><ellipse cx="395.13" cy="16.47" rx="33.68" ry="8.99" style="fill:#ffdb00"/><ellipse cx="395.13" cy="18.92" rx="24.49" ry="6.54" style="fill:#e5ad00"/><path d="M389.06,78.4c.83,1.78,2,3.33,3.5,3.25a3.75,3.75,0,0,0,3-2.35,8.89,8.89,0,0,0,.5-4,29.11,29.11,0,0,0-3.18-11.8c-.45-.87-1.08-1.81-2.05-1.92a2.19,2.19,0,0,0-1.71.7c-1.16,1.11-1.41,2.85-1.55,4.45a26.75,26.75,0,0,0,.13,7.53A19,19,0,0,0,389.06,78.4Z" style="fill:#ffdb00"/><path d="M386.18,72.84a16.43,16.43,0,0,1,4.7,8.44c-2.41.21-4.74-.74-7-1.68a12.24,12.24,0,0,1-4.2-2.47,8.26,8.26,0,0,1-2.08-4.74C376.59,64.22,383.17,69.78,386.18,72.84Z" style="fill:#ffdb00"/><path d="M401.92,78.4c-.82,1.78-2,3.33-3.49,3.25a3.73,3.73,0,0,1-3-2.35,8.76,8.76,0,0,1-.5-4,29,29,0,0,1,3.18-11.8c.45-.87,1.07-1.81,2-1.92a2.19,2.19,0,0,1,1.72.7c1.16,1.11,1.41,2.85,1.55,4.45a27.52,27.52,0,0,1-.13,7.53A19.67,19.67,0,0,1,401.92,78.4Z" style="fill:#ffdb00"/><path d="M404.81,72.84a16.43,16.43,0,0,0-4.7,8.44c2.4.21,4.74-.74,7-1.68a12.24,12.24,0,0,0,4.2-2.47,8.33,8.33,0,0,0,2.08-4.74C414.39,64.22,407.81,69.78,404.81,72.84Z" style="fill:#ffdb00"/><rect x="385.17" y="81.09" width="20.35" height="8.44" rx="4.22" style="fill:#ffdb00"/><circle cx="395.78" cy="92.34" r="5.41" style="fill:#ffdb00"/><path d="M394.48,92.34a11.62,11.62,0,0,1-6.28,6.28c-4.76,1.95-7.57,3.24-7.57,5.62v2.39h15.15l1.73-12.34Z" style="fill:#ffdb00"/><path d="M397.08,92.34a11.58,11.58,0,0,0,6.27,6.28c4.76,1.95,7.58,3.24,7.58,5.62v2.39H395.78l-1.73-12.34Z" style="fill:#ffdb00"/><polygon points="417.64 128.19 405.52 134.76 405.52 106.72 417.64 104.83 417.64 128.19" style="fill:#c18580"/><polygon points="371.96 128.19 384.09 134.76 384.09 106.72 371.96 104.83 371.96 128.19" style="fill:#c18580"/><rect x="367.13" y="125.6" width="54.99" height="12.48" rx="6.24" style="fill:#b97670"/><path d="M424.92,22.38c-4.79,5.79-13.07,7-20.56,7.59-9.62.76-19.43,1.18-28.78-1.19-1.73-.44-5.86-1.26-6.88-2.91-1.75-2.83,2.46-1.26,3.94-1a112.88,112.88,0,0,0,17.49,1.91A112.1,112.1,0,0,0,424.92,22.38Z" style="fill:#fff474"/><path d="M378.31,43.84a13.33,13.33,0,0,1,4.09-1,20.1,20.1,0,0,1,8.32.34,6.35,6.35,0,0,1,3.53,2.29c1.47,2.17.55,5.32-1.42,7.05s-4.67,2.33-7.27,2.64-5.5.34-7.8-1A5.8,5.8,0,0,1,378.31,43.84Z" style="fill:#fff474"/><path d="M26.26,9.9l9,12.24a2.17,2.17,0,0,0,2.42.77L52.14,18.1a2.17,2.17,0,0,1,2.44,3.32L45.73,33.78a2.15,2.15,0,0,0,0,2.54l9,12.24a2.16,2.16,0,0,1-2.39,3.35l-14.5-4.6a2.17,2.17,0,0,0-2.41.8L26.62,60.48a2.16,2.16,0,0,1-3.92-1.25L22.59,44A2.15,2.15,0,0,0,21.08,42L6.59,37.39a2.17,2.17,0,0,1,0-4.12L21,28.47a2.17,2.17,0,0,0,1.48-2.07l-.11-15.2A2.16,2.16,0,0,1,26.26,9.9Z" style="fill:#fff474"/><path d="M26.27,14.23,34,24.7a1.86,1.86,0,0,0,2.08.66l12.34-4.11a1.85,1.85,0,0,1,2.09,2.84L42.93,34.67a1.85,1.85,0,0,0,0,2.17l7.73,10.48a1.85,1.85,0,0,1-2.05,2.86L36.21,46.25a1.84,1.84,0,0,0-2.06.68L26.58,57.51a1.85,1.85,0,0,1-3.36-1.06l-.09-13a1.86,1.86,0,0,0-1.29-1.75L9.43,37.75a1.85,1.85,0,0,1,0-3.52l12.34-4.11A1.82,1.82,0,0,0,23,28.36l-.09-13A1.85,1.85,0,0,1,26.27,14.23Z" style="fill:#fcd651"/><path d="M27.09,17.4l6.67,9a1.59,1.59,0,0,0,1.79.57l10.66-3.55A1.6,1.6,0,0,1,48,25.91L41.47,35a1.61,1.61,0,0,0,0,1.88l6.66,9a1.59,1.59,0,0,1-1.76,2.47L35.68,45a1.59,1.59,0,0,0-1.78.59l-6.54,9.14a1.6,1.6,0,0,1-2.9-.92l-.08-11.24a1.59,1.59,0,0,0-1.11-1.51L12.56,37.71a1.6,1.6,0,0,1,0-3L23.2,31.12a1.61,1.61,0,0,0,1.09-1.53l-.08-11.23A1.6,1.6,0,0,1,27.09,17.4Z" style="fill:#fcc617"/><circle cx="34.21" cy="31.34" r="2.56"/><circle cx="26.22" cy="34.54" r="2.56"/><circle cx="26.85" cy="33.37" r="0.91" style="fill:#fff"/><circle cx="34.66" cy="30.45" r="0.91" style="fill:#fff"/><path d="M38,36.85a8.78,8.78,0,0,1-4.78,4.21c-4.36,1.48-7,.19-7.52-.24" style="fill:none;stroke:#000;stroke-linecap:round;stroke-linejoin:round"/><path d="M37.56,66.15l1.12,11.33A1.62,1.62,0,0,0,40,78.9l11.12,2.44a1.62,1.62,0,0,1,.31,3.07L40.94,89a1.61,1.61,0,0,0-1,1.64L41.1,102a1.62,1.62,0,0,1-2.82,1.24l-7.57-8.51a1.63,1.63,0,0,0-1.86-.41L18.42,98.84a1.62,1.62,0,0,1-2.05-2.3l5.76-9.83a1.63,1.63,0,0,0-.19-1.89l-7.57-8.51a1.62,1.62,0,0,1,1.55-2.66l11.13,2.43a1.63,1.63,0,0,0,1.75-.76l5.75-9.83A1.62,1.62,0,0,1,37.56,66.15Z" style="fill:#fff474"/><path d="M35.91,68.94l1,9.7A1.37,1.37,0,0,0,38,79.86l9.52,2.08a1.38,1.38,0,0,1,.26,2.62L38.8,88.47A1.39,1.39,0,0,0,38,89.88l1,9.7a1.39,1.39,0,0,1-2.42,1.06L30,93.36A1.38,1.38,0,0,0,28.45,93l-8.93,3.91a1.38,1.38,0,0,1-1.75-2l4.93-8.41a1.4,1.4,0,0,0-.16-1.63l-6.48-7.28a1.38,1.38,0,0,1,1.33-2.27l9.52,2.08a1.41,1.41,0,0,0,1.5-.65l4.92-8.42A1.39,1.39,0,0,1,35.91,68.94Z" style="fill:#fcd651"/><path d="M35.22,71.29l.83,8.38a1.2,1.2,0,0,0,.94,1l8.21,1.8a1.19,1.19,0,0,1,.23,2.26l-7.71,3.38A1.21,1.21,0,0,0,37,89.37l.83,8.38a1.2,1.2,0,0,1-2.09.91l-5.59-6.29a1.18,1.18,0,0,0-1.37-.3l-7.71,3.38a1.2,1.2,0,0,1-1.51-1.7l4.25-7.26a1.19,1.19,0,0,0-.14-1.4L18.09,78.8a1.2,1.2,0,0,1,1.15-2l8.22,1.8a1.2,1.2,0,0,0,1.29-.56L33,70.81A1.19,1.19,0,0,1,35.22,71.29Z" style="fill:#fcc617"/><circle cx="34.47" cy="82.99" r="1.92"/><circle cx="28.1" cy="81.99" r="1.92"/><circle cx="28.95" cy="81.48" r="0.68" style="fill:#fff"/><circle cx="35.1" cy="82.59" r="0.68" style="fill:#fff"/><path d="M34.78,88a6.59,6.59,0,0,1-4.69.88c-3.38-.71-4.61-2.57-4.75-3" style="fill:none;stroke:#000;stroke-linecap:round;stroke-linejoin:round;stroke-width:0.749034749034745px"/></svg>