<?xml version="1.0" standalone="no"?>
<!DOCTYPE svg PUBLIC "-//W3C//DTD SVG 1.1//EN" "http://www.w3.org/Graphics/SVG/1.1/DTD/svg11.dtd" >
<svg xmlns="http://www.w3.org/2000/svg" xmlns:xlink="http://www.w3.org/1999/xlink" version="1.1">
<metadata>
Created by FontForge 20170731 at Tue Jun 29 13:54:05 2021
 By Aleksey,,,
Generated in 2010 by FontLab Studio. Copyright info pending.
</metadata>
<defs>
<font id="Omnes-Medium" horiz-adv-x="1536" >
  <font-face 
    font-family="Omnes Medium"
    font-weight="500"
    font-stretch="normal"
    units-per-em="2048"
    panose-1="0 0 0 0 0 0 0 0 0 0"
    ascent="1434"
    descent="-614"
    x-height="985"
    cap-height="1333"
    bbox="-173.006 -511.05 2185 2099"
    underline-thickness="102"
    underline-position="-307"
    unicode-range="U+0020-FB02"
  />
<missing-glyph horiz-adv-x="1024" 
 />
    <glyph glyph-name="fi" unicode="fi" horiz-adv-x="1191" 
d="M106 819q-48 0 -69 19.5t-21 58.5v14q0 38 21 56t69 18h115v74q0 182 81.5 272t232.5 90q108 0 164.5 -38t56.5 -95q0 -16 -4.5 -31t-11.5 -25.5t-14 -18.5t-12.5 -11t-6.5 -2q-23 23 -64 40t-84 17q-73 0 -107 -48t-34 -152v-72h166q48 0 69 -19t21 -57v-14
q0 -38 -21 -57t-69 -19h-162v-731q0 -53 -22.5 -74.5t-65.5 -21.5h-21q-92 0 -92 96v731h-115zM948 -8q-92 0 -92 96v809q0 98 90 98h23q43 0 66.5 -22t23.5 -76v-809q0 -96 -90 -96h-21zM958 1196q-57 0 -88.5 29.5t-31.5 83.5q0 55 31.5 84.5t88.5 29.5q59 0 90 -29.5
t31 -84.5t-31.5 -84t-89.5 -29z" />
    <glyph glyph-name="fl" unicode="fl" horiz-adv-x="1191" 
d="M106 819q-48 0 -69 19.5t-21 58.5v14q0 38 21 56t69 18h115v74q0 182 81.5 272t232.5 90q108 0 164.5 -38t56.5 -95q0 -16 -4.5 -31t-11.5 -25.5t-14 -18.5t-12.5 -11t-6.5 -2q-23 23 -64 40t-84 17q-73 0 -107 -48t-34 -152v-72h166q48 0 69 -19t21 -57v-14
q0 -38 -21 -57t-69 -19h-162v-731q0 -53 -22.5 -74.5t-65.5 -21.5h-21q-92 0 -92 96v731h-115zM948 -8q-92 0 -92 96v1296q0 3 10 8.5t28 10t36 4.5q129 0 129 -174v-1145q0 -96 -90 -96h-21z" />
    <glyph glyph-name=".notdef" horiz-adv-x="1024" 
 />
    <glyph glyph-name=".null" horiz-adv-x="0" 
 />
    <glyph glyph-name="nonmarkingreturn" horiz-adv-x="682" 
 />
    <glyph glyph-name="space" unicode=" " horiz-adv-x="348" 
 />
    <glyph glyph-name="exclam" unicode="!" horiz-adv-x="532" 
d="M254 385q-22 0 -32 16.5t-17 53.5l-62 757q-7 62 19 93.5t78 31.5h51q54 0 80.5 -31t17.5 -94l-61 -757q-5 -36 -16 -53t-36 -17h-22zM252 -14q-111 0 -111 110v25q0 54 28.5 83t82.5 29h27q112 0 112 -112v-25q0 -110 -112 -110h-27z" />
    <glyph glyph-name="quotedbl" unicode="&#x22;" horiz-adv-x="796" 
d="M555 768q-24 0 -34 14.5t-15 48.5l-49 373q-7 71 19.5 101t92.5 30t93 -30t18 -101l-47 -373q-5 -34 -16 -48.5t-35 -14.5h-27zM213 768q-24 0 -34 14.5t-15 48.5l-49 373q-9 71 17.5 101t92.5 30q67 0 94.5 -30t18.5 -101l-49 -373q-5 -34 -15 -48.5t-34 -14.5h-27z" />
    <glyph glyph-name="numbersign" unicode="#" horiz-adv-x="1357" 
d="M106 334q-88 0 -88 69v21q0 72 88 72h207l103 333h-156q-88 0 -88 72v19q0 71 88 71h205l104 340q0 8 27 8q36 0 67 -27t31 -81q0 -25 -16 -78l-51 -162h305l104 340q4 8 29 8q35 0 65.5 -27t30.5 -81q0 -25 -16 -78l-49 -162h155q88 0 88 -69v-21q0 -72 -88 -72h-207
l-102 -333h156q88 0 88 -70v-20q0 -72 -88 -72h-205l-102 -340q-4 -8 -29 -8q-36 0 -66 27t-30 81q0 24 14 78l49 162h-303l-104 -340q0 -8 -27 -8q-36 0 -67 27t-31 81q0 28 16 78l49 162h-156zM575 834l-104 -342h311l105 342h-312z" />
    <glyph glyph-name="dollar" unicode="$" horiz-adv-x="1126" 
d="M553 -211q-43 0 -62.5 22.5t-19.5 75.5v101q-177 19 -288 98t-111 160q0 32 22 60.5t44 40.5t26 7q47 -71 129.5 -122t185.5 -68v432q-62 15 -110 32t-100 47t-86 67.5t-56.5 94.5t-22.5 128q0 141 103 242t268 126v101q0 51 20 73.5t62 22.5h14q43 0 62.5 -22t19.5 -74
v-97q165 -16 267 -85.5t102 -143.5q0 -33 -23 -62t-45.5 -42t-25.5 -9q-45 64 -120.5 109.5t-164.5 58.5v-415q46 -11 83.5 -22.5t81 -29t76.5 -38t65.5 -49.5t53.5 -63t33.5 -79t12.5 -98q0 -152 -109 -255.5t-291 -123.5v-103q0 -52 -20.5 -75t-63.5 -23h-12zM842 360
q0 77 -52.5 121t-152.5 76v-395q94 15 149.5 69t55.5 129zM305 969q0 -72 45 -113t135 -70v373q-82 -19 -131 -70t-49 -120z" />
    <glyph glyph-name="percent" unicode="%" horiz-adv-x="1505" 
d="M377 705q-136 0 -227 88.5t-91 220.5v18q0 132 92 223t228 91q137 0 228 -89t91 -221v-18q0 -132 -92.5 -222.5t-228.5 -90.5zM250 -18q-5 -6 -27.5 1.5t-44.5 27.5t-22 46q0 28 12.5 51t46.5 58l1030 1186q5 5 27.5 -1.5t44.5 -26.5t22 -48q0 -46 -57 -111zM1126 -12
q-138 0 -228.5 88.5t-90.5 220.5v18q0 132 92.5 223t228.5 91t227 -89t91 -221v-18q0 -132 -92 -222.5t-228 -90.5zM379 834q71 0 116.5 49t45.5 127v30q0 78 -46.5 128.5t-117.5 50.5t-116.5 -50t-45.5 -129v-30q0 -76 46.5 -126t117.5 -50zM1128 117q70 0 116 49.5
t46 126.5v31q0 78 -46.5 128t-117.5 50t-116 -49.5t-45 -128.5v-31q0 -76 46 -126t117 -50z" />
    <glyph glyph-name="ampersand" unicode="&#x26;" horiz-adv-x="1366" 
d="M522 -27q-219 0 -349 105.5t-130 294.5q0 279 332 381q-117 128 -117 268t104 235t267 95q150 0 247 -88.5t97 -223.5q0 -231 -309 -323l311 -279q53 94 100 269q18 62 46 88t71 26q28 0 50.5 -13t31.5 -26t8 -18q-56 -250 -184 -438l278 -250q2 -1 -0.5 -10t-10.5 -22
t-20.5 -25t-34 -20.5t-46.5 -8.5q-75 0 -134 61l-141 135q-194 -213 -467 -213zM537 133q189 0 333 164l-397 358q-233 -75 -233 -266q0 -119 82 -187.5t215 -68.5zM449 1022q0 -62 26 -112.5t80 -102.5q127 35 185.5 88.5t58.5 134.5q0 72 -48.5 121t-123.5 49
q-84 0 -131 -50.5t-47 -127.5z" />
    <glyph glyph-name="quotesingle" unicode="'" horiz-adv-x="454" 
d="M213 768q-24 0 -34 14.5t-15 48.5l-49 373q-9 71 17.5 101t92.5 30q67 0 94.5 -30t18.5 -101l-49 -373q-5 -34 -15 -48.5t-34 -14.5h-27z" />
    <glyph glyph-name="parenleft" unicode="(" horiz-adv-x="768" 
d="M664 -406q-76 0 -157 39.5t-155.5 116.5t-133.5 180.5t-94.5 243t-35.5 291.5q0 148 35.5 285.5t94.5 241.5t133.5 182.5t155.5 119.5t157 41q94 0 94 -82q0 -22 -12 -44t-19 -27q-133 -30 -232.5 -135t-149.5 -255t-50 -325q0 -180 50 -331.5t149 -255t233 -134.5
q6 -2 18.5 -25t12.5 -45q0 -82 -94 -82z" />
    <glyph glyph-name="parenright" unicode=")" horiz-adv-x="768" 
d="M104 -406q-94 0 -94 82q0 22 12.5 45t18.5 25q134 31 233 134.5t149 255t50 331.5q0 175 -50 325t-149.5 255t-232.5 135q-7 5 -19 27t-12 44q0 82 94 82q76 0 157 -41t155.5 -119.5t133.5 -182.5t94.5 -241.5t35.5 -285.5q0 -152 -35.5 -291.5t-94.5 -243t-133.5 -180.5
t-155.5 -116.5t-157 -39.5z" />
    <glyph glyph-name="asterisk" unicode="*" horiz-adv-x="802" 
d="M184 674l-6 4q-46 25 -12 86l106 174l-184 78q-34 14 -42 31.5t1 44.5l2 8q8 25 25 34t53 3l199 -50l16 199q4 38 17.5 51t41.5 13h9q27 0 41 -13t18 -51l12 -199l199 50q65 11 80 -37l2 -8q9 -27 1 -44.5t-42 -31.5l-189 -78l109 -174q33 -56 -12 -86l-6 -4
q-17 -16 -38.5 -13.5t-45.5 29.5l-136 158l-133 -158q-26 -27 -46 -29t-40 13z" />
    <glyph glyph-name="plus" unicode="+" horiz-adv-x="1101" 
d="M168 459q-88 0 -88 76v12q0 76 88 76h297v303q0 88 78 88h16q78 0 78 -88v-303h297q88 0 88 -76v-12q0 -76 -88 -76h-297v-322q0 -88 -78 -88h-16q-78 0 -78 88v322h-297z" />
    <glyph glyph-name="comma" unicode="," horiz-adv-x="454" 
d="M129 -250q-16 -15 -42 -17t-46.5 17t-13.5 47l110 348q15 53 35.5 75t69.5 22h18q39 0 62.5 -25.5t23.5 -71.5v-10q0 -62 -47 -123z" />
    <glyph glyph-name="hyphen" unicode="-" horiz-adv-x="804" 
d="M172 406q-42 0 -65 20.5t-23 56.5v29q0 36 23 58t65 22h461q43 0 65.5 -22t22.5 -58v-29q0 -36 -22.5 -56.5t-65.5 -20.5h-461z" />
    <glyph glyph-name="period" unicode="." horiz-adv-x="454" 
d="M213 -14q-111 0 -111 110v25q0 112 111 112h27q112 0 112 -112v-25q0 -110 -112 -110h-27z" />
    <glyph glyph-name="slash" unicode="/" horiz-adv-x="694" 
d="M123 -414q-115 0 -115 95q0 25 17 81l487 1569q0 1 5 3t15 3.5t21 1.5q113 0 113 -94q0 -23 -17 -82l-485 -1569q0 -8 -41 -8z" />
    <glyph glyph-name="zero" unicode="0" horiz-adv-x="1300" 
d="M649 -27q-257 0 -404 166.5t-147 454.5v135q0 288 148 455.5t403 167.5q257 0 405 -166.5t148 -454.5v-133q0 -288 -148.5 -456.5t-404.5 -168.5zM649 152q164 0 253 113.5t89 322.5v147q0 209 -90.5 326t-251.5 117t-249.5 -115t-88.5 -324v-149q0 -209 89 -323.5
t249 -114.5z" />
    <glyph glyph-name="one" unicode="1" horiz-adv-x="749" 
d="M432 -10q-90 0 -90 96v950q-55 -55 -137 -55q-72 0 -118 39t-46 102q0 20 5.5 38t13.5 30.5t16.5 21.5t15 12.5t8.5 2.5q50 -47 121 -47q65 0 111.5 44t54.5 111h72q92 0 92 -96v-1153q0 -96 -92 -96h-27z" />
    <glyph glyph-name="two" unicode="2" horiz-adv-x="1095" 
d="M635 532q-58 -26 -96 -44.5t-83 -45t-74 -52t-55 -57.5t-39 -70.5t-14 -82.5h672q101 0 101 -82v-12q0 -86 -101 -86h-737q-70 0 -100.5 26.5t-30.5 88.5v51q0 79 25 147t60.5 115t95 92.5t108 73.5t120.5 63q12 6 35 17q152 75 206 117q88 72 89 161q0 103 -71.5 161
t-198.5 58q-136 0 -214.5 -70t-109.5 -183q0 -2 -14.5 -2.5t-34.5 4t-40.5 14.5t-35 32.5t-14.5 53.5q0 53 31.5 110t88.5 107t151 82.5t206 32.5q216 0 339.5 -105.5t123.5 -290.5q0 -50 -12 -94t-29.5 -78t-49 -66.5t-60 -55t-74 -48.5t-78.5 -42t-86 -40z" />
    <glyph glyph-name="three" unicode="3" horiz-adv-x="1118" 
d="M1034 371q0 -187 -136 -292.5t-378 -105.5q-93 0 -174 19.5t-137 51t-97 70.5t-60 79t-19 77q0 31 12.5 54t30 33.5t36 18t30.5 6t14 -2.5q38 -113 134 -173.5t230 -60.5q141 0 224 63.5t83 170.5q0 115 -77 174t-226 59h-94q-100 0 -100 76v12q0 40 23.5 58t72.5 18h123
q120 0 184 53t64 148t-74.5 150t-204.5 55q-121 0 -202.5 -55t-120.5 -146q-2 -1 -14.5 -2.5t-31 6.5t-35.5 18.5t-29.5 32t-12.5 49.5q0 43 32.5 89.5t88.5 86.5t143 65.5t184 25.5q229 0 355 -94.5t126 -264.5q0 -215 -225 -282q125 -41 191.5 -129t66.5 -211z" />
    <glyph glyph-name="four" unicode="4" horiz-adv-x="1216" 
d="M825 -10q-39 0 -62.5 27t-23.5 69v268h-542q-59 0 -94 27.5t-35 71.5v45q0 32 13.5 59.5t45.5 71.5l473 612q41 58 74 76t106 18q86 0 122 -31.5t36 -105.5v-672h145q93 0 93 -82v-10q0 -80 -93 -80h-145v-268q0 -96 -90 -96h-23zM748 1163l-490 -641h490v641z" />
    <glyph glyph-name="five" unicode="5" horiz-adv-x="1101" 
d="M293 1145v-379q131 59 272 59q216 0 345.5 -113t129.5 -304q0 -199 -138.5 -317t-375.5 -118q-203 0 -338 85t-135 178q0 32 24 59.5t48.5 39t28.5 5.5q57 -93 152 -145t220 -52q146 0 232 71.5t86 191.5t-79 188t-220 68q-185 0 -309 -91q-130 9 -130 131v504
q0 54 29 86.5t80 32.5h666q98 0 98 -86v-10q0 -84 -98 -84h-588z" />
    <glyph glyph-name="six" unicode="6" horiz-adv-x="1202" 
d="M666 1178q-172 0 -265.5 -115.5t-93.5 -331.5v-41q69 64 168 105t209 41q204 0 326.5 -107.5t122.5 -292.5v-10q0 -197 -138.5 -325t-353.5 -128q-259 0 -401 167t-142 448v135q0 292 150 460.5t407 168.5q194 0 308 -74t114 -162q0 -36 -26 -62t-51.5 -35t-28.5 -5
q-106 164 -305 164zM639 678q-92 0 -180.5 -42.5t-149.5 -109.5q9 -183 92.5 -284t231.5 -101q131 0 214 74.5t83 194.5v12q0 123 -75.5 189.5t-215.5 66.5z" />
    <glyph glyph-name="seven" unicode="7" horiz-adv-x="1085" 
d="M45 1223v14q0 88 94 88h774q76 0 103.5 -26.5t27.5 -73.5v-17q0 -45 -61 -153l-534 -992q-40 -73 -109 -73q-32 0 -62.5 17t-45 36t-9.5 27l588 1067h-672q-94 0 -94 86z" />
    <glyph glyph-name="eight" unicode="8" horiz-adv-x="1193" 
d="M596 -25q-242 0 -381 102t-139 275q0 117 68.5 202.5t199.5 127.5q-229 75 -229 299q0 165 132.5 268t350.5 103q221 0 349 -99.5t128 -267.5q0 -107 -57 -184.5t-170 -116.5q133 -41 200.5 -126.5t67.5 -205.5q0 -167 -143.5 -272t-376.5 -105zM598 137q151 0 231 61.5
t80 170.5q0 107 -83.5 171t-229.5 64q-148 0 -230.5 -63.5t-82.5 -171.5q0 -103 84.5 -167.5t230.5 -64.5zM598 756q131 0 203.5 56.5t72.5 156.5t-73.5 160.5t-204.5 60.5q-136 0 -207.5 -59t-71.5 -162q0 -96 75.5 -154.5t205.5 -58.5z" />
    <glyph glyph-name="nine" unicode="9" horiz-adv-x="1202" 
d="M897 590l-2 28q-66 -63 -166 -103t-209 -40q-206 0 -327 106.5t-121 292.5v9q0 198 139 332.5t352 134.5q253 0 397 -162t144 -449v-141q0 -308 -145 -466.5t-422 -158.5q-194 0 -307 71t-113 155q0 35 21.5 62t42.5 37.5t24 6.5q123 -160 323 -160q187 0 278 108.5
t91 336.5zM563 633q92 0 179.5 42t148.5 109q-6 190 -89 295t-233 105q-128 0 -211.5 -82t-83.5 -203v-10q0 -123 75 -189.5t214 -66.5z" />
    <glyph glyph-name="colon" unicode=":" horiz-adv-x="503" 
d="M238 651q-54 0 -82.5 28.5t-28.5 82.5v24q0 111 111 111h26q113 0 113 -111v-24q0 -111 -113 -111h-26zM238 -14q-111 0 -111 110v25q0 112 111 112h26q113 0 113 -112v-25q0 -110 -113 -110h-26z" />
    <glyph glyph-name="semicolon" unicode=";" horiz-adv-x="503" 
d="M238 651q-54 0 -82.5 28.5t-28.5 82.5v24q0 111 111 111h26q113 0 113 -111v-24q0 -111 -113 -111h-26zM154 -250q-16 -15 -42 -17t-47 17t-14 47l111 348q15 53 35 75t69 22h19q39 0 62.5 -25.5t23.5 -71.5v-10q0 -62 -47 -123z" />
    <glyph glyph-name="less" unicode="&#x3c;" horiz-adv-x="950" 
d="M291 541l467 -238q104 -54 100 -129q-2 -26 -14 -50t-24.5 -35t-18.5 -9l-649 348q-31 17 -46.5 41.5t-15.5 71.5t15.5 71t46.5 41l649 351q5 1 17.5 -11t25 -36t14.5 -48q4 -75 -100 -127z" />
    <glyph glyph-name="equal" unicode="=" horiz-adv-x="1101" 
d="M193 684q-89 0 -89 80v18q0 80 89 80h716q88 0 88 -80v-18q0 -80 -88 -80h-716zM193 205q-89 0 -89 80v20q0 80 89 80h716q88 0 88 -80v-20q0 -80 -88 -80h-716z" />
    <glyph glyph-name="greater" unicode="&#x3e;" horiz-adv-x="948" 
d="M90 174q-4 73 100 129l465 238l-465 241q-104 53 -100 127q2 24 15 47.5t26 36t19 11.5l647 -351q31 -17 46 -41t15 -71q0 -48 -15 -72t-46 -41l-647 -348q-7 -2 -20 9.5t-25.5 35t-14.5 49.5z" />
    <glyph glyph-name="question" unicode="?" horiz-adv-x="980" 
d="M440 379q-40 0 -63.5 18t-22.5 52q2 77 24 137.5t55 98t72.5 67t78.5 53t71 47t52 57t20 76.5q0 89 -61 141t-170 52q-70 0 -124.5 -22t-88 -60.5t-52.5 -82.5t-26 -95q-2 0 -16 -1.5t-35.5 5t-42 16.5t-35.5 33.5t-15 54.5q0 49 27 103t78 104.5t138.5 83.5t195.5 33
q196 0 312 -97t116 -252q0 -68 -22 -122t-57 -89.5t-77.5 -65.5t-85.5 -58t-78.5 -59.5t-58.5 -78t-25 -104.5q-6 -45 -84 -45zM430 -14q-111 0 -111 110v25q0 54 28.5 83t82.5 29h29q112 0 112 -112v-25q0 -110 -112 -110h-29z" />
    <glyph glyph-name="at" unicode="@" horiz-adv-x="1521" 
d="M698 338q-121 0 -197.5 87.5t-76.5 223.5q0 137 78 223t200 86q60 0 111 -28t82 -72q16 96 98 96q16 0 30 -4.5t21 -9.5t7 -8v-322q0 -80 27.5 -119.5t90.5 -39.5q75 0 116.5 76.5t41.5 207.5q0 228 -149 368t-408 140q-250 0 -408.5 -163t-158.5 -418q0 -166 74 -298.5
t207 -207t302 -74.5q97 0 186 27.5t150 72.5q39 27 70 27q20 0 37 -17t23.5 -35t2.5 -22q-79 -71 -203 -116.5t-266 -45.5q-313 0 -504.5 190.5t-191.5 498.5q0 149 50.5 277.5t139.5 219t215.5 142t274.5 51.5q309 0 489.5 -168.5t180.5 -446.5q0 -194 -80.5 -297.5
t-231.5 -103.5q-84 0 -142 35t-77 96q-33 -61 -87.5 -95t-123.5 -34zM739 473q65 0 109.5 40.5t44.5 104.5v101q-46 104 -152 104q-70 0 -112.5 -48t-42.5 -126q0 -79 42.5 -127.5t110.5 -48.5z" />
    <glyph glyph-name="A" unicode="A" horiz-adv-x="1290" 
d="M1022 88l-117 301h-530l-117 -303q-35 -96 -117 -96q-28 0 -57 12t-44.5 27t-12.5 24l471 1217q13 34 44.5 50.5t100.5 16.5q70 0 101 -16t44 -51l476 -1217q3 -8 -13 -23t-45.5 -27.5t-58.5 -12.5q-88 0 -125 98zM639 1120l-213 -561h426z" />
    <glyph glyph-name="B" unicode="B" horiz-adv-x="1265" 
d="M254 0q-51 0 -82 32.5t-31 86.5v1087q0 54 31 86.5t82 32.5h436q217 0 332 -88.5t115 -255.5q0 -107 -59.5 -179t-174.5 -106q143 -33 215 -118.5t72 -206.5q0 -187 -123 -279t-381 -92h-432zM350 170h322q160 0 230.5 51t70.5 166q0 209 -295 209h-328v-426zM350 748
h314q117 0 185.5 56.5t68.5 151.5q0 199 -259 199h-309v-407z" />
    <glyph glyph-name="C" unicode="C" horiz-adv-x="1345" 
d="M758 -27q-194 0 -346.5 87t-237 243.5t-84.5 355.5q0 150 50 279t138 220t213.5 142.5t272.5 51.5q95 0 179 -20.5t141 -52t99 -70t61.5 -74t19.5 -64.5q0 -44 -30 -73.5t-60 -38.5t-33 -3q-56 97 -157.5 151t-217.5 54q-202 0 -329.5 -138t-127.5 -359
q0 -219 130.5 -359.5t330.5 -140.5q134 0 238 62t145 169q2 1 15 1.5t33 -8.5t38.5 -20.5t31.5 -34t13 -50.5q0 -31 -20.5 -70t-64 -81.5t-103.5 -77.5t-149 -58t-189 -23z" />
    <glyph glyph-name="D" unicode="D" horiz-adv-x="1386" 
d="M258 0q-49 0 -83 34.5t-34 82.5v1089q0 53 32.5 86t80.5 33h324q338 0 528 -174.5t190 -484.5q0 -311 -194 -488.5t-535 -177.5h-309zM350 182h221q243 0 377.5 126.5t134.5 355.5q0 225 -135 352t-375 127h-223v-961z" />
    <glyph glyph-name="E" unicode="E" horiz-adv-x="1202" 
d="M254 0q-51 0 -82 31.5t-31 85.5v1089q0 54 31 86.5t82 32.5h768q98 0 98 -88v-12q0 -88 -98 -88h-670v-371h518q99 0 99 -84v-6q0 -88 -99 -88h-518v-402h682q96 0 96 -84v-10q0 -92 -96 -92h-780z" />
    <glyph glyph-name="F" unicode="F" horiz-adv-x="1112" 
d="M229 -8q-88 0 -88 110v1104q0 54 31 86.5t82 32.5h715q98 0 98 -86v-12q0 -88 -98 -88h-619v-422h459q98 0 98 -84v-8q0 -86 -98 -86h-455v-451q0 -96 -92 -96h-33z" />
    <glyph glyph-name="G" unicode="G" horiz-adv-x="1458" 
d="M1272 -8q-53 0 -84 37t-31 133v24q-63 -100 -176 -155.5t-264 -55.5q-188 0 -331.5 88.5t-219.5 243.5t-76 352q0 201 86 359t241 246t353 88q114 0 213 -28.5t160 -71t95 -89t34 -86.5q0 -43 -28 -71t-55.5 -35.5t-31.5 -1.5q-60 95 -164.5 147.5t-218.5 52.5
q-206 0 -336.5 -142.5t-130.5 -369.5t122 -369.5t329 -142.5q160 0 268.5 82t128.5 215v84h-311q-55 0 -81 19t-26 61v10q0 44 26 63t81 19h385q56 0 84 -31.5t28 -88.5v-566q0 -3 -9 -7.5t-25.5 -8.5t-34.5 -4z" />
    <glyph glyph-name="H" unicode="H" horiz-adv-x="1402" 
d="M229 -8q-88 0 -88 96v1149q0 96 88 96h31q92 0 92 -96v-481h699v481q0 96 88 96h30q93 0 93 -96v-1149q0 -96 -93 -96h-30q-88 0 -88 96v483h-699v-483q0 -96 -92 -96h-31z" />
    <glyph glyph-name="I" unicode="I" horiz-adv-x="530" 
d="M250 -8q-90 0 -90 96v1149q0 96 90 96h29q92 0 92 -96v-1149q0 -96 -92 -96h-29z" />
    <glyph glyph-name="J" unicode="J" horiz-adv-x="950" 
d="M399 -27q-152 0 -252 66.5t-100 146.5q0 36 23.5 66t46.5 42t26 7q37 -67 99 -106t141 -39q122 0 174.5 67.5t52.5 225.5v788q0 96 90 96h31q90 0 90 -96v-791q0 -241 -104 -357t-318 -116z" />
    <glyph glyph-name="K" unicode="K" horiz-adv-x="1191" 
d="M229 -8q-88 0 -88 96v1149q0 96 88 96h31q92 0 92 -96v-532l531 561q55 67 116 67q25 0 46.5 -9t34 -22t21 -26.5t11.5 -23.5t2 -13l-528 -561l542 -594q5 -6 -6 -28t-41.5 -43t-72.5 -21q-67 0 -115 59l-541 590v-553q0 -96 -92 -96h-31z" />
    <glyph glyph-name="L" unicode="L" horiz-adv-x="1081" 
d="M254 0q-51 0 -82 31.5t-31 85.5v1120q0 96 88 96h31q92 0 92 -96v-1047h576q98 0 98 -90v-8q0 -44 -25.5 -68t-72.5 -24h-674z" />
    <glyph glyph-name="M" unicode="M" horiz-adv-x="1533" 
d="M223 -8q-82 0 -82 96v1129q0 54 32.5 85t88.5 31h55q58 0 84.5 -22.5t53.5 -83.5l313 -707l315 707q26 61 53 83.5t83 22.5h51q57 0 91 -31t34 -85v-1129q0 -96 -88 -96h-29q-84 0 -84 96v973l-293 -660q-20 -47 -46.5 -68.5t-88.5 -21.5q-44 0 -71 13t-37.5 28.5
t-26.5 48.5l-289 654v-967q0 -96 -86 -96h-33z" />
    <glyph glyph-name="N" unicode="N" horiz-adv-x="1396" 
d="M227 -8q-86 0 -86 96v1126q0 55 26 87t75 32h34q44 0 69 -17.5t58 -62.5l656 -929v913q0 96 88 96h24q86 0 86 -96v-1126q0 -56 -26 -87.5t-72 -31.5h-16q-44 0 -65 13t-48 50l-690 977v-944q0 -96 -90 -96h-23z" />
    <glyph glyph-name="O" unicode="O" horiz-adv-x="1517" 
d="M758 -27q-195 0 -348 87t-237.5 243.5t-84.5 355.5q0 200 86 358.5t239.5 246.5t346.5 88q296 0 483 -192t187 -496q0 -200 -85.5 -358t-239 -245.5t-347.5 -87.5zM760 160q201 0 329 139t128 360t-129 363.5t-330 142.5q-202 0 -329.5 -139.5t-127.5 -361.5
q0 -221 129 -362.5t330 -141.5z" />
    <glyph glyph-name="P" unicode="P" horiz-adv-x="1165" 
d="M229 -8q-88 0 -88 96v1118q0 54 31 86.5t82 32.5h342q247 0 380.5 -109t133.5 -313q0 -209 -133 -317.5t-389 -108.5h-236v-389q0 -44 -23.5 -70t-68.5 -26h-31zM350 1151v-504h242q152 0 229.5 64.5t77.5 187.5q0 125 -77 188.5t-228 63.5h-244z" />
    <glyph glyph-name="Q" unicode="Q" horiz-adv-x="1517" 
d="M1315 -27q-61 0 -123 68l-51 51q-166 -119 -383 -119q-194 0 -347 86.5t-238 243t-85 356.5t86 358.5t240 246.5t348 88q295 0 481.5 -192t186.5 -496q0 -253 -152 -445l158 -162q2 -3 -2 -12t-14.5 -21t-24.5 -23.5t-35.5 -19.5t-44.5 -8zM762 160q143 0 252 67
l-211 217q-29 31 -33.5 68t21.5 63l14 13q31 26 64.5 19t62.5 -40l207 -213q82 124 82 305q0 220 -129.5 363t-331.5 143t-330.5 -140.5t-128.5 -360.5q0 -221 130 -362.5t331 -141.5z" />
    <glyph glyph-name="R" unicode="R" horiz-adv-x="1206" 
d="M995 -8q-41 0 -72 18.5t-65 63.5l-362 444h-146v-430q0 -44 -23.5 -70t-68.5 -26h-29q-88 0 -88 108v1106q0 54 31 86.5t82 32.5h377q243 0 369 -100.5t126 -296.5q0 -170 -102 -272t-293 -117l387 -461q3 -4 -0.5 -13.5t-13.5 -22t-24.5 -24t-37 -19t-47.5 -7.5z
M348 1151v-467h279q143 0 214.5 62t71.5 172q0 233 -292 233h-273z" />
    <glyph glyph-name="S" unicode="S" horiz-adv-x="1134" 
d="M563 -27q-114 0 -211.5 26t-158 66t-94 85.5t-33.5 87.5q0 32 23 61t46 42.5t27 8.5q61 -89 165 -146t234 -57q138 0 213.5 54.5t75.5 152.5q0 25 -6.5 46.5t-14.5 38t-26.5 32t-32.5 26t-42 22t-45 18t-53 16t-53.5 14t-58.5 13.5q-72 17 -123.5 33t-111 46.5t-96.5 69
t-62 100t-25 138.5q0 169 133 277t345 108q105 0 194.5 -23t144 -59t85 -76.5t30.5 -77.5q0 -34 -24 -64t-47.5 -43.5t-26.5 -9.5q-55 79 -149 129t-205 50q-125 0 -200 -55.5t-75 -147.5q0 -40 16 -71t34 -49t65.5 -36t74.5 -25.5t98 -23.5q17 -4 25 -6q75 -17 133.5 -36
t119 -51.5t100 -72.5t65 -100.5t25.5 -134.5q0 -183 -133.5 -289.5t-364.5 -106.5z" />
    <glyph glyph-name="T" unicode="T" horiz-adv-x="1214" 
d="M139 1137q-47 0 -72.5 23.5t-25.5 66.5v10q0 43 25.5 65.5t72.5 22.5h938q97 0 97 -88v-10q0 -43 -25 -66.5t-72 -23.5h-362v-1049q0 -96 -94 -96h-29q-90 0 -90 96v1049h-363z" />
    <glyph glyph-name="U" unicode="U" horiz-adv-x="1331" 
d="M664 -25q-264 0 -401.5 143.5t-137.5 420.5v698q0 47 23.5 71.5t66.5 24.5h29q92 0 92 -96v-692q0 -189 83 -286t247 -97q167 0 248 95.5t81 289.5v690q0 96 90 96h33q88 0 88 -96v-694q0 -277 -139 -422.5t-403 -145.5z" />
    <glyph glyph-name="V" unicode="V" horiz-adv-x="1269" 
d="M156 1333q91 0 123 -96l360 -1010l360 1010q33 96 117 96q31 0 62 -13t47.5 -29t13.5 -25l-473 -1198q-18 -43 -46.5 -61.5t-84.5 -18.5q-55 0 -82.5 18t-46.5 62l-475 1198q-4 9 13 25t48.5 29t63.5 13z" />
    <glyph glyph-name="W" unicode="W" horiz-adv-x="1894" 
d="M551 -14q-68 0 -100.5 18.5t-42.5 65.5l-310 1204q-1 6 12.5 19.5t44.5 26.5t68 13q96 0 123 -123l215 -974l252 833q24 96 139 96q60 0 92 -23.5t48 -72.5l247 -829l220 972q25 121 116 121q35 0 65 -13t43 -26.5t11 -19.5l-305 -1204q-11 -46 -43.5 -65t-99.5 -19
q-61 0 -92.5 20t-45.5 66l-256 856l-268 -856q-12 -46 -42 -66t-91 -20z" />
    <glyph glyph-name="X" unicode="X" horiz-adv-x="1241" 
d="M184 1333q73 0 117 -69l324 -471l336 473q46 71 108 71q33 0 64 -19t45.5 -40t9.5 -29l-432 -585l432 -582q3 -4 -1.5 -14.5t-15.5 -22.5t-26 -24t-36.5 -19.5t-43.5 -7.5q-73 0 -117 69l-334 478l-340 -480q-45 -71 -108 -71q-33 0 -64 19t-45.5 40t-9.5 29l436 588
l-424 579q-5 8 9.5 28.5t47 40t68.5 19.5z" />
    <glyph glyph-name="Y" unicode="Y" horiz-adv-x="1173" 
d="M571 -8q-90 0 -90 96v455l-469 704q-2 5 1.5 14.5t14 22t25.5 23.5t39.5 18.5t52.5 7.5q63 0 103 -73l340 -541l340 541q45 73 104 73q26 0 49 -7.5t38 -19t25 -24t14 -22t1 -13.5l-467 -704v-455q0 -96 -92 -96h-29z" />
    <glyph glyph-name="Z" unicode="Z" horiz-adv-x="1247" 
d="M236 0q-69 0 -103.5 28.5t-34.5 71.5v19q0 44 17 77t71 99l695 846h-682q-95 0 -95 86v12q0 86 95 86h800q69 0 102.5 -27.5t33.5 -70.5v-19q0 -42 -20.5 -79t-65.5 -91l-701 -854h723q94 0 94 -86v-12q0 -86 -94 -86h-835z" />
    <glyph glyph-name="bracketleft" unicode="[" horiz-adv-x="706" 
d="M256 -406q-51 0 -82 32.5t-31 86.5v1499q0 54 31 86.5t82 32.5h315q52 0 74.5 -19t22.5 -59v-14q0 -42 -22.5 -61t-74.5 -19h-237v-1392h237q53 0 76 -19t23 -59v-13q0 -42 -23 -62t-76 -20h-315z" />
    <glyph glyph-name="backslash" unicode="\" horiz-adv-x="694" 
d="M571 -414q-41 0 -41 8l-487 1569q-16 56 -16 82q0 94 114 94q9 0 19 -1.5t16 -3.5t6 -3l486 -1569q16 -53 16 -81q0 -54 -34.5 -74.5t-78.5 -20.5z" />
    <glyph glyph-name="bracketright" unicode="]" horiz-adv-x="706" 
d="M135 -406q-53 0 -75.5 20t-22.5 62v13q0 41 22.5 59.5t75.5 18.5h238v1392h-236q-53 0 -75.5 19t-22.5 61v14q0 41 22.5 59.5t75.5 18.5h314q51 0 81.5 -32.5t30.5 -86.5v-1499q0 -54 -30.5 -86.5t-81.5 -32.5h-316z" />
    <glyph glyph-name="asciicircum" unicode="^" horiz-adv-x="1024" 
d="M291 909q-29 0 -47.5 18.5t-18.5 47.5q0 50 64 124t131.5 125t91.5 56q24 -5 91 -56t130.5 -125t63.5 -124q0 -29 -17.5 -47.5t-46.5 -18.5q-42 0 -94 51t-129 168q-81 -120 -129.5 -169.5t-89.5 -49.5z" />
    <glyph glyph-name="underscore" unicode="_" horiz-adv-x="980" 
d="M115 -168q-42 0 -65 20.5t-23 57.5v10q0 37 23 58.5t65 21.5h751q42 0 65 -21.5t23 -58.5v-10q0 -37 -23 -57.5t-65 -20.5h-751z" />
    <glyph glyph-name="grave" unicode="`" horiz-adv-x="1024" 
d="M313 1247q-88 54 -88 125q0 35 27 57.5t65 22.5q53 0 99 -35q61 -40 123.5 -106t96 -115.5t28.5 -58.5q-7 -4 -27 -4.5t-59.5 8t-81 21t-91.5 35.5t-92 50z" />
    <glyph glyph-name="a" unicode="a" horiz-adv-x="1071" 
d="M403 -23q-156 0 -245.5 76.5t-89.5 204.5q0 168 162 248t499 86h27v20q0 113 -63 172.5t-181 59.5q-105 0 -175.5 -46.5t-107.5 -121.5q0 -1 -13 0t-31.5 6t-36.5 14.5t-31 30t-13 47.5q0 37 27.5 77t78 76t134 59.5t182.5 23.5q208 0 319 -102.5t111 -291.5v-604
q0 -8 -23 -15t-50 -7q-122 0 -125 157q-57 -80 -150 -125t-205 -45zM453 123q132 0 217.5 74.5t85.5 191.5v76l-56 -2q-221 -8 -327.5 -54t-106.5 -143q0 -66 50 -104.5t137 -38.5z" />
    <glyph glyph-name="b" unicode="b" horiz-adv-x="1198" 
d="M666 -27q-118 0 -208 49.5t-132 124.5v-59q0 -96 -88 -96h-23q-90 0 -90 96v1296q0 3 9.5 8.5t27.5 10t37 4.5q55 0 92 -39t37 -135v-402q126 179 344 179q201 0 331 -142t130 -374q0 -231 -131 -376t-336 -145zM629 141q138 0 222.5 97t84.5 254q0 153 -85.5 251.5
t-217.5 98.5q-111 0 -189.5 -54.5t-117.5 -150.5v-219q4 -119 92.5 -198t210.5 -79z" />
    <glyph glyph-name="c" unicode="c" horiz-adv-x="1056" 
d="M578 -27q-223 0 -367.5 147t-144.5 374q0 224 145 370t367 146q103 0 188 -29.5t133.5 -73t74 -88.5t25.5 -82q0 -24 -12 -43t-28.5 -28t-34.5 -16t-30 -6t-15 3q-80 193 -297 193q-139 0 -231.5 -98t-92.5 -248q0 -152 92 -251.5t232 -99.5q217 0 297 193q3 2 15 3
t30 -5.5t34.5 -16t28.5 -29t12 -44.5q0 -28 -15.5 -62.5t-49.5 -71.5t-81.5 -67.5t-119.5 -50t-155 -19.5z" />
    <glyph glyph-name="d" unicode="d" horiz-adv-x="1198" 
d="M526 -27q-200 0 -330 144t-130 375q0 232 130.5 375t335.5 143q114 0 203 -46t135 -116v536q0 3 10 8.5t28 10t36 4.5q129 0 129 -174v-1145q0 -96 -90 -96h-20q-91 0 -91 96v76q-125 -191 -346 -191zM565 141q126 0 216.5 82.5t90.5 206.5v209q-83 203 -303 203
q-138 0 -222.5 -96t-84.5 -254q0 -154 85.5 -252.5t217.5 -98.5z" />
    <glyph glyph-name="e" unicode="e" horiz-adv-x="1105" 
d="M586 -27q-233 0 -376.5 142t-143.5 372q0 148 64.5 267.5t180 187.5t258.5 68q213 0 343 -137t130 -359v-16q0 -33 -13 -46.5t-48 -13.5h-727q10 -136 103 -220.5t233 -84.5q214 0 309 164q4 4 29 -3.5t51.5 -33t26.5 -63.5q0 -75 -118 -149.5t-302 -74.5zM567 856
q-121 0 -206.5 -78.5t-104.5 -202.5h590q-8 129 -82.5 205t-196.5 76z" />
    <glyph glyph-name="f" unicode="f" horiz-adv-x="722" 
d="M106 819q-48 0 -69 19.5t-21 58.5v14q0 38 21 56t69 18h115v74q0 182 81.5 272t232.5 90q108 0 164.5 -38t56.5 -95q0 -16 -4.5 -31t-11.5 -25.5t-14 -18.5t-12.5 -11t-6.5 -2q-23 23 -64 40t-84 17q-73 0 -107 -48t-34 -152v-72h166q48 0 69 -19t21 -57v-14
q0 -38 -21 -57t-69 -19h-162v-731q0 -53 -22.5 -74.5t-65.5 -21.5h-21q-92 0 -92 96v731h-115z" />
    <glyph glyph-name="g" unicode="g" horiz-adv-x="1001" 
d="M481 -432q-248 0 -366.5 67t-118.5 205q0 104 87 175.5t226 95.5q-39 31 -39 92q0 57 56 106q-119 37 -188.5 125t-69.5 203q0 157 120 265t301 108q126 0 236 -60l53 94q25 41 52.5 59.5t64.5 18.5q34 0 61 -21t37 -41.5t6 -23.5l-168 -174q87 -100 87 -219
q0 -156 -119.5 -257t-306.5 -101h-37q-11 -17 -11 -35q0 -13 5 -23.5t18.5 -19t27 -14.5t40 -13.5t48 -12.5t60.5 -14t68 -16q286 -76 286 -268q0 -140 -136.5 -220.5t-379.5 -80.5zM492 418q102 0 165.5 62t63.5 161t-65 161t-169 62q-100 0 -163.5 -62t-63.5 -161t65 -161
t167 -62zM801 -137q0 21 -8.5 38t-27 30.5t-37 23.5t-51 19.5t-55 15.5t-63 15.5t-61.5 14.5q-133 -8 -220.5 -53.5t-87.5 -120.5q0 -66 75 -101.5t220 -35.5q150 0 233 40.5t83 113.5z" />
    <glyph glyph-name="h" unicode="h" horiz-adv-x="1148" 
d="M328 1233v-404q115 181 325 181q188 0 284.5 -116.5t96.5 -309.5v-496q0 -96 -90 -96h-22q-91 0 -91 96v473q0 127 -60.5 198.5t-166.5 71.5q-126 0 -201 -77.5t-75 -210.5v-455q0 -96 -90 -96h-23q-90 0 -90 96v1296q0 3 9.5 8.5t27.5 10t37 4.5q55 0 92 -39t37 -135z
" />
    <glyph glyph-name="i" unicode="i" horiz-adv-x="471" 
d="M236 1196q-57 0 -89 29.5t-32 83.5q0 55 32 84.5t91 29.5q57 0 87.5 -29.5t30.5 -84.5q0 -113 -120 -113zM225 -8q-92 0 -92 96v809q0 98 92 98h21q43 0 66.5 -22t23.5 -76v-809q0 -96 -90 -96h-21z" />
    <glyph glyph-name="j" unicode="j" horiz-adv-x="471" 
d="M236 1196q-57 0 -89 29.5t-32 83.5q0 55 32 84.5t91 29.5q57 0 87.5 -29.5t30.5 -84.5q0 -113 -120 -113zM41 -410q-96 0 -152.5 37t-56.5 94q0 25 11 49t22.5 36t13.5 10q58 -58 131 -58q66 0 94.5 37t28.5 121v981q0 98 92 98h21q43 0 66.5 -22t23.5 -76v-993
q0 -152 -75.5 -233t-219.5 -81z" />
    <glyph glyph-name="k" unicode="k" horiz-adv-x="970" 
d="M215 -8q-90 0 -90 96v1296q0 3 9.5 8.5t27.5 10t37 4.5q55 0 92 -39t37 -135v-690l342 383q55 69 121 69q33 0 60 -18t38 -37t6 -25l-358 -395l413 -448q2 -3 -2 -12t-13.5 -21t-22.5 -23t-32.5 -18.5t-39.5 -7.5q-65 0 -121 69l-391 422v-393q0 -96 -90 -96h-23z" />
    <glyph glyph-name="l" unicode="l" horiz-adv-x="471" 
d="M225 -8q-92 0 -92 96v1296q0 3 10 8.5t28 10t36 4.5q129 0 129 -174v-1145q0 -96 -90 -96h-21z" />
    <glyph glyph-name="m" unicode="m" horiz-adv-x="1779" 
d="M199 995q117 0 127 -151q118 166 305 166q119 0 200.5 -53.5t120.5 -153.5q122 207 342 207q184 0 277.5 -106t93.5 -300v-516q0 -96 -90 -96h-21q-44 0 -68 21.5t-24 74.5v492q0 251 -217 251q-77 0 -144 -44.5t-106 -118.5v-580q0 -96 -90 -96h-20q-92 0 -92 96v483
q0 260 -218 260q-76 0 -143 -44.5t-104 -118.5v-580q0 -96 -90 -96h-23q-90 0 -90 96v885q0 3 9.5 8t27.5 9.5t37 4.5z" />
    <glyph glyph-name="n" unicode="n" horiz-adv-x="1148" 
d="M199 995q120 0 127 -159q118 174 327 174q188 0 284.5 -115.5t96.5 -306.5v-500q0 -96 -90 -96h-22q-91 0 -91 96v475q0 125 -60 196.5t-167 71.5q-94 0 -166 -46.5t-110 -125.5v-571q0 -96 -90 -96h-23q-90 0 -90 96v885q0 3 9.5 8t27.5 9.5t37 4.5z" />
    <glyph glyph-name="o" unicode="o" horiz-adv-x="1163" 
d="M582 -27q-228 0 -372 146t-144 375q0 226 145 371t373 145q225 0 369.5 -146.5t144.5 -374.5q0 -226 -144.5 -371t-371.5 -145zM582 139q141 0 234 99.5t93 250.5q0 154 -92.5 254.5t-234.5 100.5t-236 -99t-94 -251t94.5 -253.5t235.5 -101.5z" />
    <glyph glyph-name="p" unicode="p" horiz-adv-x="1198" 
d="M215 -401q-90 0 -90 96v1278q0 3 9.5 8t27.5 9.5t37 4.5q53 0 89.5 -38.5t37.5 -133.5q121 187 346 187q201 0 331 -142t130 -374q0 -231 -131 -376t-336 -145q-116 0 -204.5 52.5t-133.5 132.5v-463q0 -96 -90 -96h-23zM629 141q138 0 222.5 97t84.5 254
q0 153 -85.5 251.5t-217.5 98.5q-111 0 -189.5 -54.5t-117.5 -150.5v-207q0 -123 89 -206t214 -83z" />
    <glyph glyph-name="q" unicode="q" horiz-adv-x="1198" 
d="M961 -401q-91 0 -91 96v465q-125 -187 -344 -187q-200 0 -330 144t-130 375q0 232 130.5 375t335.5 143q116 0 205 -47t135 -119q7 151 127 151q19 0 37 -4.5t27.5 -9.5t9.5 -8v-1278q0 -96 -90 -96h-22zM565 141q125 0 216 84t91 207v205q-40 96 -116.5 150.5
t-186.5 54.5q-138 0 -222.5 -96t-84.5 -254q0 -154 85.5 -252.5t217.5 -98.5z" />
    <glyph glyph-name="r" unicode="r" horiz-adv-x="761" 
d="M199 995q53 0 89.5 -38.5t37.5 -133.5q66 187 249 187q76 0 119 -34.5t43 -96.5q0 -35 -14.5 -61.5t-29 -36.5t-17.5 -7q-53 43 -125 43q-115 0 -169 -101.5t-54 -281.5v-346q0 -96 -90 -96h-23q-90 0 -90 96v885q0 3 9.5 8t27.5 9.5t37 4.5z" />
    <glyph glyph-name="s" unicode="s" horiz-adv-x="950" 
d="M469 -25q-191 0 -303.5 65t-112.5 144q0 28 19 51.5t38 33.5t23 7q115 -147 332 -147q103 0 160 35.5t57 97.5q0 19 -3.5 34t-14 27.5t-19.5 21.5t-30 18.5t-34.5 14.5t-45 13t-49 12t-58.5 13q-42 9 -66 14.5t-65.5 18.5t-66.5 26t-56.5 35t-49 47.5t-30 62.5t-12.5 80
q0 139 107 224.5t286 85.5q177 0 278 -61t101 -138q0 -28 -20 -52.5t-39.5 -35t-22.5 -6.5q-47 64 -122.5 101.5t-166.5 37.5q-103 0 -158 -36t-55 -99q0 -27 11.5 -47t27.5 -33t52.5 -25.5t66.5 -20t88 -20.5q36 -8 53 -12t53.5 -13.5t56 -17t51 -21.5t49 -28t39.5 -35
t33.5 -44.5t19.5 -53.5t8 -65q0 -142 -110 -226t-300 -84z" />
    <glyph glyph-name="t" unicode="t" horiz-adv-x="759" 
d="M127 819q-88 0 -88 76v14q0 76 88 76h72v152q0 96 90 96h20q43 0 65.5 -21t22.5 -75v-152h224q46 0 66 -18t20 -56v-14q0 -78 -89 -78h-223v-497q0 -94 30 -138.5t101 -44.5q87 0 140 70q2 2 8 -0.5t14.5 -9.5t16 -17t13 -25.5t5.5 -33.5q0 -60 -62.5 -105t-166.5 -45
q-295 0 -295 326v520h-72z" />
    <glyph glyph-name="u" unicode="u" horiz-adv-x="1148" 
d="M952 -8q-124 0 -129 155q-120 -172 -327 -172q-188 0 -283.5 114.5t-95.5 307.5v500q0 98 88 98h22q43 0 66.5 -22t23.5 -76v-475q0 -128 62 -199t174 -71q90 0 160.5 47t109.5 127v571q0 98 88 98h23q43 0 66.5 -22t23.5 -76v-883q0 -3 -9.5 -8t-27 -9.5t-35.5 -4.5z
" />
    <glyph glyph-name="v" unicode="v" horiz-adv-x="1021" 
d="M510 180l256 694q25 68 54.5 94.5t70.5 26.5q29 0 55 -13t38.5 -26.5t10.5 -19.5l-358 -885q-25 -63 -125 -63q-54 0 -82 13t-41 46l-362 889q-2 7 10.5 20.5t39 26t56.5 12.5q45 0 74.5 -26t54.5 -95z" />
    <glyph glyph-name="w" unicode="w" horiz-adv-x="1454" 
d="M412 -12q-57 0 -86 14.5t-39 50.5l-246 883q-2 6 15.5 20t48 26.5t57.5 12.5q85 0 106 -108l154 -690l188 596q11 37 40 54t85 17q55 0 83.5 -17t39.5 -54l182 -592l152 686q10 58 39 83t65 25q27 0 56 -13t45.5 -26.5t15.5 -19.5l-244 -883q-9 -36 -37 -50.5t-85 -14.5
q-62 0 -86.5 14.5t-38.5 56.5l-191 596l-196 -596q-14 -41 -39 -56t-84 -15z" />
    <glyph glyph-name="x" unicode="x" horiz-adv-x="1001" 
d="M631 492l319 -426q2 -3 -1.5 -11.5t-13 -19.5t-22 -21t-32.5 -17t-41 -7q-73 0 -125 84l-219 311l-213 -309q-55 -86 -127 -86q-33 0 -61.5 17.5t-41.5 35.5t-8 23l326 426l-322 430q-4 6 8.5 23t40 33.5t60.5 16.5q74 0 127 -84l219 -313l215 313q54 84 125 84
q33 0 62 -17t41.5 -34t8.5 -22z" />
    <glyph glyph-name="y" unicode="y" horiz-adv-x="1019" 
d="M408 -399q-26 0 -53 12t-41.5 25t-12.5 18l164 399q-35 3 -54.5 15.5t-31.5 42.5l-352 823q-2 7 10.5 20.5t39 26t56.5 12.5q45 0 75 -25t54 -89l266 -680l236 676q38 118 127 118q25 0 52 -12t41.5 -25t12.5 -18l-465 -1227q-42 -112 -124 -112z" />
    <glyph glyph-name="z" unicode="z" horiz-adv-x="987" 
d="M156 0q-43 0 -63.5 22t-20.5 56v16q0 30 11.5 51t45.5 60l516 618h-481q-46 0 -67 18t-21 56v14q0 74 88 74h657q84 0 84 -76v-12q0 -28 -11 -48t-44 -58l-526 -627h510q88 0 88 -76v-12q0 -76 -88 -76h-678z" />
    <glyph glyph-name="braceleft" unicode="{" horiz-adv-x="886" 
d="M756 -408q-61 0 -123 23.5t-122.5 75.5t-108 125.5t-80.5 183.5t-41 240l-113 61q-74 39 -96.5 67.5t-22.5 96.5q0 47 12 75t34.5 45.5t72.5 43.5l113 61q8 130 41.5 239.5t81.5 183.5t108.5 125.5t122.5 75t123 23.5q43 0 68.5 -23.5t25.5 -64.5q0 -23 -12 -45t-19 -24
q-185 -34 -262.5 -174t-85.5 -410l-244 -131l242 -131q4 -107 16.5 -189t37.5 -151.5t64.5 -117.5t96.5 -80t133 -46q8 -2 20.5 -24t12.5 -45q0 -41 -26.5 -65t-69.5 -24z" />
    <glyph glyph-name="bar" unicode="|" horiz-adv-x="524" 
d="M252 -406q-92 0 -92 99v1548q0 96 92 96h20q90 0 90 -96v-1548q0 -99 -90 -99h-20z" />
    <glyph glyph-name="braceright" unicode="}" horiz-adv-x="886" 
d="M129 -408q-43 0 -68.5 24t-25.5 65q0 23 12 45t19 24q185 34 262.5 174t85.5 410l241 131l-241 131q-4 107 -16.5 189t-37.5 151.5t-64.5 117.5t-96.5 80t-133 46q-8 2 -20.5 24t-12.5 45q0 41 25.5 64.5t68.5 23.5q61 0 123.5 -23.5t123 -75t108.5 -125.5t81 -183.5
t41 -239.5l115 -61q71 -38 95 -67.5t24 -96.5t-23 -96t-96 -68l-113 -61q-8 -130 -41 -240t-81 -183.5t-108.5 -125.5t-123 -75.5t-123.5 -23.5z" />
    <glyph glyph-name="asciitilde" unicode="~" horiz-adv-x="1021" 
d="M268 338q-33 0 -52 19.5t-19 52.5q0 79 46 137.5t113 58.5q57 0 136 -40.5t159 -112.5q19 61 46.5 101t58.5 40q33 0 52 -20t19 -54q0 -77 -47 -135.5t-112 -58.5q-59 0 -138.5 40t-156.5 113q-49 -141 -105 -141z" />
    <glyph glyph-name="nbspace" unicode="&#xa0;" horiz-adv-x="348" 
 />
    <glyph glyph-name="exclamdown" unicode="&#xa1;" horiz-adv-x="532" 
d="M254 1094q-113 0 -113 110v25q0 110 113 110h27q110 0 110 -110v-25q0 -110 -110 -110h-27zM242 -12q-54 0 -81 32t-18 93l62 759q7 36 17.5 52t33.5 16h23q23 0 32.5 -15.5t16.5 -52.5l61 -759q9 -61 -17 -93t-79 -32h-51z" />
    <glyph glyph-name="cent" unicode="&#xa2;" horiz-adv-x="1095" 
d="M592 -203q-42 0 -62 22.5t-20 74.5v165q-203 30 -317.5 165.5t-114.5 353.5q0 204 119 344.5t311 173.5v157q0 99 84 99h10q42 0 62 -23t20 -76v-151q160 -16 253 -89t93 -147q0 -37 -26 -64t-52 -35.5t-30 -2.5q-43 76 -101 118t-145 52v-713q181 21 258 189
q4 5 31 -2.5t54.5 -32.5t27.5 -62q0 -82 -99 -163t-262 -97v-159q0 -51 -21 -74t-63 -23h-10zM274 578q0 -136 66 -226.5t178 -120.5v697q-114 -27 -179 -118t-65 -232z" />
    <glyph glyph-name="sterling" unicode="&#xa3;" horiz-adv-x="1185" 
d="M150 526q-39 0 -60.5 18.5t-21.5 53.5v18q0 35 22.5 54.5t59.5 19.5h155l51 273q34 189 139 289t277 100q86 0 156.5 -24.5t113 -64t65.5 -86t23 -94.5q0 -32 -13 -54.5t-31 -33t-36.5 -15t-31.5 -4t-14 2.5q-43 201 -226 201q-104 0 -157.5 -56.5t-75.5 -181.5l-47 -252
h309q38 0 60 -19.5t22 -54.5v-18q0 -35 -21.5 -53.5t-60.5 -18.5h-338l-63 -350h610q94 0 94 -82v-12q0 -82 -94 -82h-889q-94 0 -94 82v14q0 80 94 80h86l63 350h-126z" />
    <glyph glyph-name="currency" unicode="&#xa4;" horiz-adv-x="1286" 
d="M143 750q-82 0 -82 65v16q0 64 82 64h119q43 212 183.5 333.5t345.5 121.5q95 0 177.5 -24.5t134.5 -63t81.5 -83.5t29.5 -87q0 -37 -26 -64t-52 -36.5t-30 -4.5q-57 95 -132 142t-188 47q-119 0 -203 -74.5t-118 -206.5h391q80 0 80 -64v-16q0 -65 -80 -65h-412v-166
h412q80 0 80 -66v-16q0 -66 -80 -66h-391q34 -133 121.5 -209.5t210.5 -76.5q114 0 187.5 51t125.5 153q4 6 31 -3t53.5 -37t26.5 -66q0 -41 -29 -88t-80 -89t-134 -70t-179 -28q-215 0 -356.5 122t-182.5 341h-117q-82 0 -82 66v16q0 66 82 66h103v166h-103z" />
    <glyph glyph-name="yen" unicode="&#xa5;" horiz-adv-x="1206" 
d="M197 522q-84 0 -84 68v16q0 68 84 68h249l-360 571q-3 4 1 14.5t14 23.5t25 24.5t38.5 19.5t50.5 8q65 0 102 -73l285 -523l295 521q42 75 104 75q37 0 67.5 -20.5t42.5 -41.5t7 -28l-358 -571h248q84 0 84 -68v-16q0 -68 -84 -68h-310v-139h310q84 0 84 -68v-16
q0 -68 -84 -68h-310v-145q0 -96 -86 -96h-22q-82 0 -82 96v145h-311q-84 0 -84 68v16q0 68 84 68h311v139h-311z" />
    <glyph glyph-name="section" unicode="&#xa7;" horiz-adv-x="1110" 
d="M535 -348q-117 0 -210.5 24.5t-148 63.5t-82.5 81.5t-28 82.5q0 30 21 56t41.5 38t23.5 8q57 -90 155.5 -140t227.5 -50q127 0 197.5 40.5t70.5 114.5q0 80 -80 120q-51 25 -211 61l-1 1h-1h-1h-1l-1 1h-1h-1h-1h-1l-1 1h-1h-1h-1l-1 1h-2q-53 12 -85.5 20.5t-83 24.5
t-81.5 32t-67.5 41.5t-57.5 54t-35 69t-14 87.5q0 95 57 164t160 103q-174 80 -174 258q0 151 126.5 245.5t321.5 94.5q87 0 160.5 -16t121 -41t80.5 -56t47.5 -60.5t14.5 -56.5q0 -31 -21 -58t-42 -38.5t-25 -7.5q-127 172 -330 172q-109 0 -180.5 -42t-71.5 -116t74 -114
t236 -76q41 -10 65.5 -16.5t64 -18t64 -21.5t57.5 -26t53.5 -32t43.5 -38.5t35.5 -47.5t21 -57.5t8.5 -68.5q0 -95 -56.5 -163.5t-158.5 -102.5q85 -37 132 -98.5t47 -161.5q0 -151 -128 -243.5t-341 -92.5zM520 686q-21 3 -47 10q-97 -15 -158 -68t-61 -114q0 -32 11 -57.5
t36 -44.5t51 -33t69 -26.5t77 -20.5t88 -19q7 -1 10 -2l51 -12q91 13 150 67.5t59 118.5q0 31 -11 56.5t-37 45t-50 32.5t-70.5 26.5t-77.5 20.5t-90 20z" />
    <glyph glyph-name="dieresis" unicode="&#xa8;" horiz-adv-x="1024" 
d="M702 1118q-58 0 -91 32t-33 89q0 58 32 90.5t88 32.5t89.5 -32.5t33.5 -90.5q0 -56 -33 -88.5t-86 -32.5zM326 1118q-56 0 -89.5 32.5t-33.5 88.5q0 57 32.5 90t86.5 33q59 0 91.5 -32.5t32.5 -90.5q0 -57 -32 -89t-88 -32z" />
    <glyph glyph-name="copyright" unicode="&#xa9;" horiz-adv-x="1540" 
d="M770 -27q-196 0 -351 88t-241 244.5t-86 353.5q0 196 88 354.5t243.5 248.5t348.5 90q196 0 350.5 -88t240 -244.5t85.5 -353.5q0 -196 -87.5 -354.5t-242.5 -248.5t-348 -90zM772 84q247 0 401 160.5t154 417.5q0 124 -42 231.5t-115.5 183.5t-177.5 120t-224 44
q-247 0 -401 -160t-154 -417q0 -165 71.5 -297.5t199.5 -207.5t288 -75zM788 291q-162 0 -265 103t-103 265q0 158 105 263.5t261 105.5q79 0 140.5 -25t95.5 -59q39 -39 39 -82q0 -25 -20 -45.5t-40 -29t-22 -3.5q-62 103 -191 103q-87 0 -148.5 -64.5t-61.5 -160.5
q0 -99 62.5 -163.5t154.5 -64.5q133 0 190 111q2 5 22.5 -3t41 -29t20.5 -48q0 -40 -47 -90q-33 -35 -94 -59.5t-140 -24.5z" />
    <glyph glyph-name="ordfeminine" unicode="&#xaa;" horiz-adv-x="890" 
d="M352 522q-134 0 -211.5 59.5t-77.5 161.5q0 50 14.5 88t51 71t98 55.5t156.5 38t225 22.5q0 190 -192 190q-140 0 -215 -131q-1 0 -11.5 -0.5t-27 4.5t-31.5 12.5t-26 24t-11 37.5q0 31 20.5 64t59.5 63.5t106 50t148 19.5q179 0 266.5 -86.5t87.5 -247.5v-467
q0 -6 -19.5 -12.5t-43.5 -6.5q-97 0 -105 119q-41 -60 -111.5 -94.5t-150.5 -34.5zM418 -14q-101 0 -101 100v20q0 101 101 101h22q103 0 103 -101v-20q0 -100 -103 -100h-22zM397 649q89 0 151 52.5t62 121.5v92q-151 -10 -236 -32.5t-113 -51.5t-28 -75q0 -50 44 -78.5
t120 -28.5z" />
    <glyph glyph-name="guillemotleft" unicode="&#xab;" horiz-adv-x="1062" 
d="M895 147q-46 0 -116 50.5t-129 114t-102.5 119.5t-43.5 69q0 12 43.5 68t102.5 119.5t129.5 114t115.5 50.5h4q33 0 53.5 -21t20.5 -51v-6q0 -44 -81.5 -113.5t-219.5 -162.5q301 -197 301 -273v-8q0 -29 -20.5 -49.5t-53.5 -20.5h-4zM438 182q-54 0 -142 74t-151 150.5
t-63 93.5t63 93t151 150t142 74h4q29 0 47.5 -19t18.5 -46v-4q0 -70 -268 -250q268 -176 268 -248v-2q0 -28 -18.5 -47t-47.5 -19h-4z" />
    <glyph glyph-name="registered" unicode="&#xae;" horiz-adv-x="1540" 
d="M770 -27q-196 0 -351 88t-241 244.5t-86 353.5q0 196 88 354.5t243.5 248.5t348.5 90q196 0 350.5 -88t240 -244.5t85.5 -353.5q0 -196 -87.5 -354.5t-242.5 -248.5t-348 -90zM772 84q247 0 401 160.5t154 417.5q0 124 -42 231.5t-115.5 183.5t-177.5 120t-224 44
q-247 0 -401 -160t-154 -417q0 -165 71.5 -297.5t199.5 -207.5t288 -75zM987 303q-60 0 -98 57l-156 205h-82v-188q0 -72 -65 -72h-23q-32 0 -48.5 23t-16.5 63v545q0 41 21.5 63.5t60.5 22.5h217q284 0 284 -225q0 -87 -50 -143.5t-140 -69.5l182 -222q3 -5 -7.5 -19
t-33 -27t-45.5 -13zM649 897v-213h146q64 0 98.5 28.5t34.5 78.5q0 106 -140 106h-139z" />
    <glyph glyph-name="macron" unicode="&#xaf;" horiz-adv-x="1024" 
d="M293 1151q-103 0 -103 80v12q0 36 27.5 56t75.5 20h438q50 0 76.5 -19.5t26.5 -56.5v-12q0 -80 -103 -80h-438z" />
    <glyph glyph-name="degree" unicode="&#xb0;" horiz-adv-x="817" 
d="M406 702q-138 0 -228 89t-90 227v18q0 137 92.5 227.5t231.5 90.5q138 0 227.5 -89t89.5 -227v-18q0 -138 -92 -228t-231 -90zM412 831q74 0 124 52t50 133v22q0 81 -51.5 134t-126.5 53q-76 0 -126.5 -52t-50.5 -133v-22q0 -80 53 -133.5t128 -53.5z" />
    <glyph glyph-name="plusminus" unicode="&#xb1;" horiz-adv-x="1228" 
d="M262 809q-88 0 -88 76v12q0 76 88 76h266v262q0 88 78 88h15q77 0 77 -88v-262h267q88 0 88 -76v-12q0 -76 -88 -76h-267v-268q0 -88 -77 -88h-15q-78 0 -78 88v268h-266zM242 195q-88 0 -88 75v17q0 75 88 75h743q88 0 88 -75v-17q0 -75 -88 -75h-743z" />
    <glyph glyph-name="twosuperior" unicode="&#xb2;" horiz-adv-x="688" 
d="M414 879q-8 -4 -33 -14t-34 -14t-29.5 -13.5t-29 -15t-24 -15.5t-23 -18.5t-16.5 -19.5t-13.5 -23.5t-6.5 -26.5h350q78 0 78 -64v-6q0 -34 -18.5 -49.5t-59.5 -15.5h-385q-57 0 -78.5 18.5t-21.5 65.5v34q0 54 16.5 95.5t51.5 73t69.5 51.5t89.5 45q10 5 37.5 18t37 18
t30 16.5t28.5 19t19 19t14.5 24t3.5 26.5q0 46 -34 74t-93 28q-67 0 -105.5 -37.5t-52.5 -95.5q-1 -2 -12 -2.5t-27.5 2.5t-32.5 10t-27 23.5t-11 40.5q0 72 76.5 131t203.5 59q129 0 201 -61t72 -168q0 -49 -16 -86.5t-50.5 -65t-64 -43.5t-80.5 -38z" />
    <glyph glyph-name="threesuperior" unicode="&#xb3;" horiz-adv-x="688" 
d="M627 795q0 -107 -79 -166.5t-224 -59.5q-127 0 -205 52t-78 116q0 24 9.5 41t23.5 25t28.5 12t25 3.5t11.5 -3.5q17 -57 65.5 -88t117.5 -31t112 30t43 79q0 50 -37 77t-104 27h-41q-76 0 -76 56v10q0 55 74 55h57q51 0 83 24t32 64q0 42 -41.5 69t-104.5 27
q-124 0 -163 -108q-1 -1 -10.5 -2t-24.5 4t-28.5 12.5t-23.5 24.5t-10 39q0 62 74.5 109.5t190.5 47.5q140 0 213 -52.5t73 -151.5q0 -118 -127 -156q144 -49 144 -186z" />
    <glyph glyph-name="acute" unicode="&#xb4;" horiz-adv-x="1024" 
d="M360 1137q-6 8 27.5 58t96 115.5t122.5 106.5q53 35 99 35q39 0 65.5 -22.5t26.5 -57.5q0 -72 -86 -125q-42 -27 -92 -50t-91.5 -35.5t-81 -21t-59.5 -8t-27 4.5z" />
    <glyph glyph-name="paragraph" unicode="&#xb6;" horiz-adv-x="1269" 
d="M1036 -10q-67 0 -67 73v1199q0 73 67 73h23q71 0 71 -73v-1199q0 -73 -71 -73h-23zM762 -10q-34 0 -52 20t-18 53v521h-153q-235 0 -358.5 93t-123.5 275q0 185 119.5 282t353.5 97h232q40 0 65 -25t25 -65v-1178q0 -73 -68 -73h-22z" />
    <glyph glyph-name="periodcentered" unicode="&#xb7;" horiz-adv-x="475" 
d="M221 377q-110 0 -110 108v25q0 54 28 83.5t82 29.5h29q55 0 83.5 -29.5t28.5 -83.5v-25q0 -108 -112 -108h-29z" />
    <glyph glyph-name="cedilla" unicode="&#xb8;" horiz-adv-x="1024" 
d="M416 -459q-26 -22 -71.5 -9t-31.5 48l109 242q14 32 22.5 45t30 24t55.5 11h19q41 0 67.5 -19.5t26.5 -52.5v-10q0 -19 -15 -39t-50 -55z" />
    <glyph glyph-name="onesuperior" unicode="&#xb9;" horiz-adv-x="688" 
d="M164 584q-76 0 -76 65v2q0 70 76 70h129v407q-40 -34 -96 -34q-46 0 -81.5 27.5t-35.5 70.5q0 25 11 45.5t22.5 29t15.5 7.5q33 -33 78 -33q41 0 72.5 26t37.5 66h56q73 0 73 -78v-534h103q78 0 78 -70v-2q0 -65 -78 -65h-385z" />
    <glyph glyph-name="ordmasculine" unicode="&#xba;" horiz-adv-x="978" 
d="M489 520q-179 0 -295 118t-116 296q0 174 120 296t294 122q177 0 293 -119t116 -297q0 -175 -119 -295.5t-293 -120.5zM475 -14q-100 0 -100 100v20q0 101 100 101h23q102 0 102 -101v-20q0 -100 -102 -100h-23zM492 668q106 0 175.5 76t69.5 192q0 114 -70.5 191
t-174.5 77q-107 0 -178.5 -77t-71.5 -191q0 -113 72 -190.5t178 -77.5z" />
    <glyph glyph-name="guillemotright" unicode="&#xbb;" horiz-adv-x="1062" 
d="M621 182q-30 0 -48 19.5t-18 46.5v4q0 69 266 250q-266 177 -266 248v2q0 28 18 46.5t48 18.5h2q55 0 143.5 -74t151.5 -150t63 -93q0 -12 -39.5 -62t-93.5 -107.5t-118.5 -103t-106.5 -45.5h-2zM164 147q-34 0 -54 21t-20 51v6q0 44 82 114t219 163q-301 197 -301 272v8
q0 30 20 50t54 20h2q60 0 157 -82t165.5 -166.5t68.5 -103.5q0 -12 -43 -68t-102 -120t-129.5 -114.5t-116.5 -50.5h-2z" />
    <glyph glyph-name="onequarter" unicode="&#xbc;" horiz-adv-x="1622" 
d="M164 584q-76 0 -76 65v2q0 70 76 70h129v407q-40 -34 -96 -34q-46 0 -81.5 27.5t-35.5 70.5q0 25 11 45.5t22.5 29t15.5 7.5q33 -33 78 -33q41 0 72.5 26t37.5 66h56q73 0 73 -78v-534h103q78 0 78 -70v-2q0 -65 -78 -65h-385zM297 0q0 28 9 48t38 58q11 13 82.5 99
t170 204.5t171.5 208.5l541 680h20.5t34.5 -15.5t18 -41.5q0 -45 -51 -106q-12 -16 -81.5 -100.5t-170 -207t-170.5 -209.5l-538 -677q-6 -2 -23 -1t-34.5 17.5t-16.5 42.5zM1397 -8q-33 0 -50.5 21t-17.5 57v114h-274q-44 0 -70.5 19.5t-26.5 50.5v29q2 29 37 88l226 315
q23 40 49.5 52t89.5 12t89 -24t26 -83v-334h59q38 0 55 -14t17 -45v-6q0 -32 -17 -46t-55 -14h-59v-114q0 -78 -70 -78h-8zM1333 635l-233 -328h235z" />
    <glyph glyph-name="onehalf" unicode="&#xbd;" horiz-adv-x="1622" 
d="M1348 295q-8 -4 -33 -14t-34 -14t-29.5 -13.5t-29 -15t-24 -15.5t-23 -18.5t-16.5 -19.5t-13.5 -23.5t-6.5 -26.5h350q78 0 78 -63v-6q0 -34 -18.5 -50t-59.5 -16h-385q-57 0 -78.5 18.5t-21.5 65.5v35q0 54 16.5 95.5t51.5 72.5t69 51t90 45q10 5 37.5 18t37 18t30 16.5
t28.5 19t19 19t14.5 24t3.5 26.5q0 46 -34 74.5t-93 28.5q-67 0 -105.5 -37.5t-52.5 -95.5q-1 -2 -12 -2.5t-27.5 2.5t-32.5 9.5t-27 23t-11 40.5q0 72 76.5 131.5t203.5 59.5q129 0 201 -61t72 -169q0 -49 -16 -86.5t-50.5 -65t-64 -43.5t-80.5 -38zM164 584q-76 0 -76 65
v2q0 70 76 70h129v407q-40 -34 -96 -34q-46 0 -81.5 27.5t-35.5 70.5q0 25 11 45.5t22.5 29t15.5 7.5q33 -33 78 -33q41 0 72.5 26t37.5 66h56q73 0 73 -78v-534h103q78 0 78 -70v-2q0 -65 -78 -65h-385zM240 0q0 28 9 48t38 58q11 13 82.5 99t170 204.5t171.5 208.5
l540 680h21t34.5 -15.5t18.5 -41.5q0 -45 -51 -106q-12 -16 -81.5 -100.5t-170 -207t-170.5 -209.5l-539 -677q-6 -2 -23 -1t-34 17.5t-16 42.5z" />
    <glyph glyph-name="threequarters" unicode="&#xbe;" horiz-adv-x="1622" 
d="M1397 -8q-33 0 -50.5 21t-17.5 57v114h-274q-44 0 -70.5 19.5t-26.5 50.5v29q2 29 37 88l226 315q23 40 49.5 52t89.5 12t89 -24t26 -83v-334h59q38 0 55 -14t17 -45v-6q0 -32 -17 -46t-55 -14h-59v-114q0 -78 -70 -78h-8zM627 795q0 -107 -79 -166.5t-224 -59.5
q-127 0 -205 52t-78 116q0 24 9.5 41t23.5 25t28.5 12t25 3.5t11.5 -3.5q17 -57 65.5 -88t117.5 -31t112 30t43 79q0 50 -37 77t-104 27h-41q-76 0 -76 56v10q0 55 74 55h57q51 0 83 24t32 64q0 42 -41.5 69t-104.5 27q-124 0 -163 -108q-1 -1 -10.5 -2t-24.5 4t-28.5 12.5
t-23.5 24.5t-10 39q0 62 74.5 109.5t190.5 47.5q140 0 213 -52.5t73 -151.5q0 -118 -127 -156q144 -49 144 -186zM293 0q0 28 9 48t38 58q11 13 82.5 99t170 204.5t171.5 208.5l541 680h20.5t34.5 -15.5t18 -41.5q0 -45 -51 -106q-12 -16 -81.5 -100.5t-170 -207
t-170.5 -209.5l-538 -677q-6 -2 -23 -1t-34.5 17.5t-16.5 42.5zM1333 635l-233 -328h235z" />
    <glyph glyph-name="questiondown" unicode="&#xbf;" horiz-adv-x="980" 
d="M522 1094q-112 0 -112 110v25q0 110 112 110h29q111 0 111 -110v-25q0 -110 -111 -110h-29zM479 -25q-195 0 -310.5 97.5t-115.5 253.5q0 68 22 121.5t57 88.5t77.5 65t85.5 58.5t78.5 60t58.5 78t25 105.5q6 43 84 43q40 0 63.5 -16.5t22.5 -50.5q-2 -77 -24 -137.5
t-55 -98.5t-72.5 -68t-78.5 -53.5t-71 -47.5t-52 -57.5t-20 -76.5q0 -88 61 -139t170 -51q70 0 124.5 22t88 60t52.5 81.5t26 94.5q2 1 16 2.5t35.5 -5.5t42 -17.5t35.5 -34t15 -54.5q0 -38 -16 -80.5t-52 -86t-85.5 -78.5t-125 -57t-162.5 -22z" />
    <glyph glyph-name="Agrave" unicode="&#xc0;" horiz-adv-x="1290" 
d="M1022 88l-117 301h-530l-117 -303q-35 -96 -117 -96q-28 0 -57 12t-44.5 27t-12.5 24l471 1217q13 34 44.5 50.5t100.5 16.5q70 0 101 -16t44 -51l476 -1217q3 -8 -13 -23t-45.5 -27.5t-58.5 -12.5q-88 0 -125 98zM639 1120l-213 -561h426zM395 1587q-88 54 -88 125
q0 35 27 57.5t65 22.5q53 0 99 -35q61 -40 123.5 -106t95.5 -115.5t28 -58.5q-7 -4 -27 -4.5t-59 8t-80.5 21t-91.5 35.5t-92 50z" />
    <glyph glyph-name="Aacute" unicode="&#xc1;" horiz-adv-x="1290" 
d="M1022 88l-117 301h-530l-117 -303q-35 -96 -117 -96q-28 0 -57 12t-44.5 27t-12.5 24l471 1217q13 34 44.5 50.5t100.5 16.5q70 0 101 -16t44 -51l476 -1217q3 -8 -13 -23t-45.5 -27.5t-58.5 -12.5q-88 0 -125 98zM639 1120l-213 -561h426zM524 1477q-6 8 27.5 58
t96 115.5t122.5 106.5q53 35 98 35q39 0 66 -22.5t27 -57.5q0 -72 -87 -125q-42 -27 -92 -50t-91.5 -35.5t-80.5 -21t-59 -8t-27 4.5z" />
    <glyph glyph-name="Acircumflex" unicode="&#xc2;" horiz-adv-x="1290" 
d="M1022 88l-117 301h-530l-117 -303q-35 -96 -117 -96q-28 0 -57 12t-44.5 27t-12.5 24l471 1217q13 34 44.5 50.5t100.5 16.5q70 0 101 -16t44 -51l476 -1217q3 -8 -13 -23t-45.5 -27.5t-58.5 -12.5q-88 0 -125 98zM639 1120l-213 -561h426zM422 1460q-29 0 -47.5 18.5
t-18.5 47.5q0 50 64 124t131.5 125t91.5 56q24 -5 91 -56t130.5 -125t63.5 -124q0 -29 -17.5 -47.5t-46.5 -18.5q-42 0 -94 51t-129 168q-81 -120 -129.5 -169.5t-89.5 -49.5z" />
    <glyph glyph-name="Atilde" unicode="&#xc3;" horiz-adv-x="1290" 
d="M1022 88l-117 301h-530l-117 -303q-35 -96 -117 -96q-28 0 -57 12t-44.5 27t-12.5 24l471 1217q13 34 44.5 50.5t100.5 16.5q70 0 101 -16t44 -51l476 -1217q3 -8 -13 -23t-45.5 -27.5t-58.5 -12.5q-88 0 -125 98zM639 1120l-213 -561h426zM410 1470q-33 0 -52.5 19.5
t-19.5 52.5q0 79 46.5 138t113.5 59q56 0 135 -41t160 -113q45 141 104 141q34 0 53 -19.5t19 -53.5q0 -77 -47.5 -136t-112.5 -59q-59 0 -138.5 40.5t-156.5 113.5q-49 -142 -104 -142z" />
    <glyph glyph-name="Adieresis" unicode="&#xc4;" horiz-adv-x="1290" 
d="M1022 88l-117 301h-530l-117 -303q-35 -96 -117 -96q-28 0 -57 12t-44.5 27t-12.5 24l471 1217q13 34 44.5 50.5t100.5 16.5q70 0 101 -16t44 -51l476 -1217q3 -8 -13 -23t-45.5 -27.5t-58.5 -12.5q-88 0 -125 98zM639 1120l-213 -561h426zM834 1458q-59 0 -92 32t-33 89
q0 58 32 90.5t88 32.5t89.5 -32.5t33.5 -90.5q0 -56 -32.5 -88.5t-85.5 -32.5zM457 1458q-56 0 -89.5 32.5t-33.5 88.5q0 57 33 90t86 33q59 0 92 -32.5t33 -90.5q0 -57 -32.5 -89t-88.5 -32z" />
    <glyph glyph-name="Aring" unicode="&#xc5;" horiz-adv-x="1290" 
d="M891 1475q0 -65 -29 -117.5t-80 -83.5l4 -4l478 -1217q3 -8 -13 -23t-45.5 -27.5t-58.5 -12.5q-88 0 -125 98l-117 301h-530l-117 -303q-35 -96 -117 -96q-28 0 -57 12t-44.5 27t-12.5 24l471 1217q0 2 4 6q-50 29 -77.5 81t-27.5 118q0 105 70.5 175t177.5 70
t176.5 -69.5t69.5 -175.5zM639 1124l-213 -565h428zM643 1341q54 0 89.5 38.5t35.5 95.5q0 58 -36 97.5t-89 39.5q-54 0 -90.5 -39.5t-36.5 -97.5q0 -55 37 -94.5t90 -39.5z" />
    <glyph glyph-name="AE" unicode="&#xc6;" horiz-adv-x="1757" 
d="M1012 106l-107 283h-530l-117 -303q-38 -96 -117 -96q-28 0 -57 12t-44.5 27t-12.5 24l462 1192q27 80 136 80h952q98 0 98 -88v-12q0 -88 -98 -88h-746l144 -369h450q99 0 99 -84v-10q0 -86 -99 -86h-376l155 -402h385q97 0 97 -84v-10q0 -92 -97 -92h-418
q-68 0 -102 22.5t-57 83.5zM639 1120l-213 -561h428z" />
    <glyph glyph-name="Ccedilla" unicode="&#xc7;" horiz-adv-x="1345" 
d="M758 -27q-194 0 -346.5 87t-237 243.5t-84.5 355.5q0 150 50 279t138 220t213.5 142.5t272.5 51.5q95 0 179 -20.5t141 -52t99 -70t61.5 -74t19.5 -64.5q0 -44 -30 -73.5t-60 -38.5t-33 -3q-56 97 -157.5 151t-217.5 54q-202 0 -329.5 -138t-127.5 -359
q0 -219 130.5 -359.5t330.5 -140.5q134 0 238 62t145 169q2 1 15 1.5t33 -8.5t38.5 -20.5t31.5 -34t13 -50.5q0 -31 -20.5 -70t-64 -81.5t-103.5 -77.5t-149 -58t-189 -23zM629 -459q-26 -22 -71.5 -9t-31.5 48l109 242q14 32 22.5 45t30 24t55.5 11h19q41 0 67.5 -19.5
t26.5 -52.5v-10q0 -19 -15 -39t-50 -55z" />
    <glyph glyph-name="Egrave" unicode="&#xc8;" horiz-adv-x="1202" 
d="M254 0q-51 0 -82 31.5t-31 85.5v1089q0 54 31 86.5t82 32.5h768q98 0 98 -88v-12q0 -88 -98 -88h-670v-371h518q99 0 99 -84v-6q0 -88 -99 -88h-518v-402h682q96 0 96 -84v-10q0 -92 -96 -92h-780zM442 1587q-88 54 -88 125q0 35 27 57.5t65 22.5q53 0 99 -35
q61 -40 123.5 -106t96 -115.5t28.5 -58.5q-7 -4 -27 -4.5t-59.5 8t-81 21t-91.5 35.5t-92 50z" />
    <glyph glyph-name="Eacute" unicode="&#xc9;" horiz-adv-x="1202" 
d="M461 1477q-6 8 27.5 58t96 115.5t122.5 106.5q53 35 98 35q39 0 65.5 -22.5t26.5 -57.5q0 -72 -86 -125q-42 -27 -92 -50t-91.5 -35.5t-80.5 -21t-59 -8t-27 4.5zM254 0q-51 0 -82 31.5t-31 85.5v1089q0 54 31 86.5t82 32.5h768q98 0 98 -88v-12q0 -88 -98 -88h-670v-371
h518q99 0 99 -84v-6q0 -88 -99 -88h-518v-402h682q96 0 96 -84v-10q0 -92 -96 -92h-780z" />
    <glyph glyph-name="Ecircumflex" unicode="&#xca;" horiz-adv-x="1202" 
d="M412 1460q-29 0 -47.5 18.5t-18.5 47.5q0 50 64 124t131.5 125t91.5 56q24 -5 91 -56t130.5 -125t63.5 -124q0 -29 -17.5 -47.5t-46.5 -18.5q-42 0 -94 51t-129 168q-81 -120 -129.5 -169.5t-89.5 -49.5zM254 0q-51 0 -82 31.5t-31 85.5v1089q0 54 31 86.5t82 32.5h768
q98 0 98 -88v-12q0 -88 -98 -88h-670v-371h518q99 0 99 -84v-6q0 -88 -99 -88h-518v-402h682q96 0 96 -84v-10q0 -92 -96 -92h-780z" />
    <glyph glyph-name="Edieresis" unicode="&#xcb;" horiz-adv-x="1202" 
d="M823 1458q-59 0 -92 32t-33 89q0 58 32.5 90.5t88.5 32.5t89.5 -32.5t33.5 -90.5q0 -56 -33 -88.5t-86 -32.5zM446 1458q-56 0 -89 32t-33 89q0 58 32.5 90.5t85.5 32.5q59 0 92 -32.5t33 -90.5q0 -57 -32.5 -89t-88.5 -32zM254 0q-51 0 -82 31.5t-31 85.5v1089
q0 54 31 86.5t82 32.5h768q98 0 98 -88v-12q0 -88 -98 -88h-670v-371h518q99 0 99 -84v-6q0 -88 -99 -88h-518v-402h682q96 0 96 -84v-10q0 -92 -96 -92h-780z" />
    <glyph glyph-name="Igrave" unicode="&#xcc;" horiz-adv-x="530" 
d="M250 -8q-90 0 -90 96v1149q0 96 90 96h29q92 0 92 -96v-1149q0 -96 -92 -96h-29zM41 1587q-88 54 -88 125q0 35 27 57.5t65 22.5q52 0 98 -35q61 -40 123.5 -106t96 -115.5t28.5 -58.5q-7 -4 -27 -4.5t-59 8t-80.5 21t-91.5 35.5t-92 50z" />
    <glyph glyph-name="Iacute" unicode="&#xcd;" horiz-adv-x="530" 
d="M250 -8q-90 0 -90 96v1149q0 96 90 96h29q92 0 92 -96v-1149q0 -96 -92 -96h-29zM137 1477q-6 8 27.5 58t96 115.5t122.5 106.5q53 35 98 35q39 0 65.5 -22.5t26.5 -57.5q0 -72 -86 -125q-42 -27 -92 -50t-91.5 -35.5t-80.5 -21t-59 -8t-27 4.5z" />
    <glyph glyph-name="Icircumflex" unicode="&#xce;" horiz-adv-x="530" 
d="M250 -8q-90 0 -90 96v1149q0 96 90 96h29q92 0 92 -96v-1149q0 -96 -92 -96h-29zM43 1460q-29 0 -47.5 18.5t-18.5 47.5q0 50 64 124t131.5 125t91.5 56q24 -5 91 -56t130.5 -125t63.5 -124q0 -29 -17.5 -47.5t-46.5 -18.5q-42 0 -94 51t-129 168q-81 -120 -129.5 -169.5
t-89.5 -49.5z" />
    <glyph glyph-name="Idieresis" unicode="&#xcf;" horiz-adv-x="530" 
d="M250 -8q-90 0 -90 96v1149q0 96 90 96h29q92 0 92 -96v-1149q0 -96 -92 -96h-29zM455 1458q-59 0 -92 32t-33 89q0 58 32.5 90.5t88.5 32.5t89 -32.5t33 -90.5q0 -56 -32.5 -88.5t-85.5 -32.5zM78 1458q-56 0 -89.5 32.5t-33.5 88.5q0 57 32.5 90t86.5 33q59 0 92 -32.5
t33 -90.5q0 -57 -32.5 -89t-88.5 -32z" />
    <glyph glyph-name="Eth" unicode="&#xd0;" horiz-adv-x="1476" 
d="M106 582q-79 0 -79 73v19q0 71 79 71h109v461q0 53 32.5 86t80.5 33h331q337 0 532 -176t195 -483q0 -309 -198.5 -487.5t-538.5 -178.5h-317q-49 0 -83 34.5t-34 82.5v465h-109zM424 186h238q246 0 380 125t134 353q0 225 -134.5 350t-377.5 125h-240v-394h358
q82 0 82 -71v-19q0 -73 -82 -73h-358v-396z" />
    <glyph glyph-name="Ntilde" unicode="&#xd1;" horiz-adv-x="1396" 
d="M227 -8q-86 0 -86 96v1126q0 55 26 87t75 32h34q44 0 69 -17.5t58 -62.5l656 -929v913q0 96 88 96h24q86 0 86 -96v-1126q0 -56 -26 -87.5t-72 -31.5h-16q-44 0 -65 13t-48 50l-690 977v-944q0 -96 -90 -96h-23zM455 1470q-33 0 -52.5 19.5t-19.5 52.5q0 79 46.5 138
t113.5 59q56 0 135 -41t160 -113q45 141 104 141q34 0 53 -19.5t19 -53.5q0 -77 -47.5 -136t-112.5 -59q-59 0 -138.5 40.5t-156.5 113.5q-49 -142 -104 -142z" />
    <glyph glyph-name="Ograve" unicode="&#xd2;" horiz-adv-x="1517" 
d="M758 -27q-195 0 -348 87t-237.5 243.5t-84.5 355.5q0 200 86 358.5t239.5 246.5t346.5 88q296 0 483 -192t187 -496q0 -200 -85.5 -358t-239 -245.5t-347.5 -87.5zM760 160q201 0 329 139t128 360t-129 363.5t-330 142.5q-202 0 -329.5 -139.5t-127.5 -361.5
q0 -221 129 -362.5t330 -141.5zM526 1587q-88 54 -88 125q0 35 27 57.5t65 22.5q53 0 99 -35q61 -40 123.5 -106t96 -115.5t28.5 -58.5q-7 -4 -27 -4.5t-59.5 8t-81 21t-91.5 35.5t-92 50z" />
    <glyph glyph-name="Oacute" unicode="&#xd3;" horiz-adv-x="1517" 
d="M631 1477q-6 8 27.5 58t96 115.5t122.5 106.5q53 35 98 35q39 0 65.5 -22.5t26.5 -57.5q0 -72 -86 -125q-42 -27 -92 -50t-91.5 -35.5t-80.5 -21t-59 -8t-27 4.5zM758 -27q-195 0 -348 87t-237.5 243.5t-84.5 355.5q0 200 86 358.5t239.5 246.5t346.5 88q296 0 483 -192
t187 -496q0 -200 -85.5 -358t-239 -245.5t-347.5 -87.5zM760 160q201 0 329 139t128 360t-129 363.5t-330 142.5q-202 0 -329.5 -139.5t-127.5 -361.5q0 -221 129 -362.5t330 -141.5z" />
    <glyph glyph-name="Ocircumflex" unicode="&#xd4;" horiz-adv-x="1517" 
d="M537 1460q-29 0 -47.5 18.5t-18.5 47.5q0 50 64 124t131.5 125t91.5 56q23 -5 90.5 -56t130.5 -125t63 -124q0 -30 -17 -48t-46 -18q-42 0 -94 51t-129 168q-81 -120 -129.5 -169.5t-89.5 -49.5zM758 -27q-195 0 -348 87t-237.5 243.5t-84.5 355.5q0 200 86 358.5
t239.5 246.5t346.5 88q296 0 483 -192t187 -496q0 -200 -85.5 -358t-239 -245.5t-347.5 -87.5zM760 160q201 0 329 139t128 360t-129 363.5t-330 142.5q-202 0 -329.5 -139.5t-127.5 -361.5q0 -221 129 -362.5t330 -141.5z" />
    <glyph glyph-name="Otilde" unicode="&#xd5;" horiz-adv-x="1517" 
d="M758 -27q-195 0 -348 87t-237.5 243.5t-84.5 355.5q0 200 86 358.5t239.5 246.5t346.5 88q296 0 483 -192t187 -496q0 -200 -85.5 -358t-239 -245.5t-347.5 -87.5zM760 160q201 0 329 139t128 360t-129 363.5t-330 142.5q-202 0 -329.5 -139.5t-127.5 -361.5
q0 -221 129 -362.5t330 -141.5zM516 1470q-33 0 -52.5 19.5t-19.5 52.5q0 79 46.5 138t113.5 59q56 0 135 -41t160 -113q19 61 46.5 101t58.5 40q34 0 52.5 -19.5t18.5 -53.5q0 -77 -47.5 -136t-112.5 -59q-59 0 -137.5 40.5t-156.5 113.5q-49 -142 -105 -142z" />
    <glyph glyph-name="Odieresis" unicode="&#xd6;" horiz-adv-x="1517" 
d="M948 1458q-59 0 -92 32t-33 89q0 58 32.5 90.5t88.5 32.5t89.5 -32.5t33.5 -90.5q0 -56 -33 -88.5t-86 -32.5zM571 1458q-56 0 -89 32t-33 89q0 58 32.5 90.5t85.5 32.5q59 0 92 -32.5t33 -90.5q0 -57 -32.5 -89t-88.5 -32zM758 -27q-195 0 -348 87t-237.5 243.5
t-84.5 355.5q0 200 86 358.5t239.5 246.5t346.5 88q296 0 483 -192t187 -496q0 -200 -85.5 -358t-239 -245.5t-347.5 -87.5zM760 160q201 0 329 139t128 360t-129 363.5t-330 142.5q-202 0 -329.5 -139.5t-127.5 -361.5q0 -221 129 -362.5t330 -141.5z" />
    <glyph glyph-name="multiply" unicode="&#xd7;" horiz-adv-x="1118" 
d="M207 158l-12 12q-56 53 8 117l246 250l-246 245q-63 64 -8 119l12 12q56 59 119 -10l237 -250l236 250q66 69 121 10l10 -12q58 -55 -6 -119l-246 -245l246 -250q63 -63 6 -117l-12 -12q-20 -25 -53 -25t-66 35l-236 250l-237 -250q-62 -67 -119 -10z" />
    <glyph glyph-name="Oslash" unicode="&#xd8;" horiz-adv-x="1517" 
d="M178 -88q-6 -6 -28 3.5t-43 32.5t-21 50q0 43 49 100l103 113q-148 187 -148 448q0 194 84.5 352t238.5 249.5t349 91.5q224 0 399 -125l158 174q5 6 26.5 -3.5t42.5 -32.5t21 -50q0 -46 -47 -101l-88 -96q156 -189 156 -454q0 -194 -84.5 -351.5t-238.5 -248.5t-349 -91
q-237 0 -408 129zM762 160q210 0 338.5 140.5t128.5 358.5q0 182 -92 316l-656 -729q119 -86 281 -86zM291 664q0 -177 86 -308l653 725q-120 84 -272 84q-211 0 -339 -140.5t-128 -360.5z" />
    <glyph glyph-name="Ugrave" unicode="&#xd9;" horiz-adv-x="1331" 
d="M664 -25q-264 0 -401.5 143.5t-137.5 420.5v698q0 47 23.5 71.5t66.5 24.5h29q92 0 92 -96v-692q0 -189 83 -286t247 -97q167 0 248 95.5t81 289.5v690q0 96 90 96h33q88 0 88 -96v-694q0 -277 -139 -422.5t-403 -145.5zM446 1571q-88 54 -88 125q0 34 27.5 57t65.5 23
q52 0 98 -35q61 -40 123.5 -106.5t96 -116t28.5 -58.5q-7 -4 -27 -4.5t-59.5 8.5t-81 21.5t-91.5 35.5t-92 50z" />
    <glyph glyph-name="Uacute" unicode="&#xda;" horiz-adv-x="1331" 
d="M543 1460q-6 8 27 58.5t95.5 116.5t122.5 106q53 35 99 35q39 0 65.5 -22.5t26.5 -57.5q0 -72 -86 -125q-42 -27 -92 -50t-91.5 -35.5t-80.5 -21.5t-59 -8.5t-27 4.5zM664 -25q-264 0 -401.5 143.5t-137.5 420.5v698q0 47 23.5 71.5t66.5 24.5h29q92 0 92 -96v-692
q0 -189 83 -286t247 -97q167 0 248 95.5t81 289.5v690q0 96 90 96h33q88 0 88 -96v-694q0 -277 -139 -422.5t-403 -145.5z" />
    <glyph glyph-name="Ucircumflex" unicode="&#xdb;" horiz-adv-x="1331" 
d="M440 1460q-29 0 -47 18.5t-18 47.5q0 50 64 124t131.5 125t91.5 56q23 -5 90.5 -56t130.5 -125t63 -124q0 -30 -17 -48t-46 -18q-42 0 -94.5 51.5t-129.5 167.5q-81 -120 -129.5 -169.5t-89.5 -49.5zM664 -25q-264 0 -401.5 143.5t-137.5 420.5v698q0 47 23.5 71.5
t66.5 24.5h29q92 0 92 -96v-692q0 -189 83 -286t247 -97q167 0 248 95.5t81 289.5v690q0 96 90 96h33q88 0 88 -96v-694q0 -277 -139 -422.5t-403 -145.5z" />
    <glyph glyph-name="Udieresis" unicode="&#xdc;" horiz-adv-x="1331" 
d="M852 1458q-59 0 -92 32t-33 89q0 58 32.5 90.5t88.5 32.5t89.5 -32.5t33.5 -90.5q0 -56 -33 -88.5t-86 -32.5zM475 1458q-56 0 -89.5 32.5t-33.5 88.5q0 57 33 90t86 33q59 0 92 -32.5t33 -90.5q0 -57 -32.5 -89t-88.5 -32zM664 -25q-264 0 -401.5 143.5t-137.5 420.5
v698q0 47 23.5 71.5t66.5 24.5h29q92 0 92 -96v-692q0 -189 83 -286t247 -97q167 0 248 95.5t81 289.5v690q0 96 90 96h33q88 0 88 -96v-694q0 -277 -139 -422.5t-403 -145.5z" />
    <glyph glyph-name="Yacute" unicode="&#xdd;" horiz-adv-x="1173" 
d="M571 -8q-90 0 -90 96v455l-469 704q-2 5 1.5 14.5t14 22t25.5 23.5t39.5 18.5t52.5 7.5q63 0 103 -73l340 -541l340 541q45 73 104 73q26 0 49 -7.5t38 -19t25 -24t14 -22t1 -13.5l-467 -704v-455q0 -96 -92 -96h-29zM451 1460q-6 8 27 58.5t95.5 116.5t122.5 106
q53 35 99 35q39 0 65.5 -22.5t26.5 -57.5q0 -72 -86 -125q-42 -27 -92 -50t-91.5 -35.5t-80.5 -21.5t-59 -8.5t-27 4.5z" />
    <glyph glyph-name="Thorn" unicode="&#xde;" horiz-adv-x="1177" 
d="M229 -8q-88 0 -88 96v1149q0 96 88 96h31q92 0 92 -96v-150h242q248 0 381 -108t133 -309q0 -206 -132.5 -314t-389.5 -108h-234v-160q0 -96 -92 -96h-31zM596 913h-244v-495h240q152 0 229.5 63.5t77.5 184.5q0 247 -303 247z" />
    <glyph glyph-name="germandbls" unicode="&#xdf;" horiz-adv-x="1130" 
d="M1001 1087q0 -264 -292 -301q370 -99 370 -430q0 -161 -111 -272t-272 -111q-133 0 -207.5 46.5t-74.5 111.5q0 26 14 50.5t28.5 36t18.5 9.5q37 -42 82 -65t117 -23q85 0 147 64t62 153q0 102 -61.5 174.5t-215.5 112.5q-65 19 -93 47.5t-28 81.5q0 24 10.5 49t20.5 39
t12 14q139 -2 209 44t70 147q0 89 -61 139.5t-166 50.5q-252 0 -252 -299v-870q0 -96 -92 -96h-21q-90 0 -90 96v860q0 237 117.5 356t339.5 119q191 0 305 -91.5t114 -242.5z" />
    <glyph glyph-name="agrave" unicode="&#xe0;" horiz-adv-x="1071" 
d="M403 -23q-156 0 -245.5 76.5t-89.5 204.5q0 168 162 248t499 86h27v20q0 113 -63 172.5t-181 59.5q-105 0 -175.5 -46.5t-107.5 -121.5q0 -1 -13 0t-31.5 6t-36.5 14.5t-31 30t-13 47.5q0 37 27.5 77t78 76t134 59.5t182.5 23.5q208 0 319 -102.5t111 -291.5v-604
q0 -8 -23 -15t-50 -7q-122 0 -125 157q-57 -80 -150 -125t-205 -45zM453 123q132 0 217.5 74.5t85.5 191.5v76l-56 -2q-221 -8 -327.5 -54t-106.5 -143q0 -66 50 -104.5t137 -38.5zM340 1247q-88 54 -88 125q0 35 27 57.5t65 22.5q52 0 98 -35q61 -40 123.5 -106t96 -115.5
t28.5 -58.5q-7 -4 -27 -4.5t-59 8t-80.5 21t-91.5 35.5t-92 50z" />
    <glyph glyph-name="aacute" unicode="&#xe1;" horiz-adv-x="1071" 
d="M403 -23q-156 0 -245.5 76.5t-89.5 204.5q0 168 162 248t499 86h27v20q0 113 -63 172.5t-181 59.5q-105 0 -175.5 -46.5t-107.5 -121.5q0 -1 -13 0t-31.5 6t-36.5 14.5t-31 30t-13 47.5q0 37 27.5 77t78 76t134 59.5t182.5 23.5q208 0 319 -102.5t111 -291.5v-604
q0 -8 -23 -15t-50 -7q-122 0 -125 157q-57 -80 -150 -125t-205 -45zM453 123q132 0 217.5 74.5t85.5 191.5v76l-56 -2q-221 -8 -327.5 -54t-106.5 -143q0 -66 50 -104.5t137 -38.5zM379 1137q-6 8 27.5 58t96 115.5t122.5 106.5q53 35 98 35q39 0 65.5 -22.5t26.5 -57.5
q0 -72 -86 -125q-42 -27 -92 -50t-91.5 -35.5t-80.5 -21t-59 -8t-27 4.5z" />
    <glyph glyph-name="acircumflex" unicode="&#xe2;" horiz-adv-x="1071" 
d="M403 -23q-156 0 -245.5 76.5t-89.5 204.5q0 168 162 248t499 86h27v20q0 113 -63 172.5t-181 59.5q-105 0 -175.5 -46.5t-107.5 -121.5q0 -1 -13 0t-31.5 6t-36.5 14.5t-31 30t-13 47.5q0 37 27.5 77t78 76t134 59.5t182.5 23.5q208 0 319 -102.5t111 -291.5v-604
q0 -8 -23 -15t-50 -7q-122 0 -125 157q-57 -80 -150 -125t-205 -45zM453 123q132 0 217.5 74.5t85.5 191.5v76l-56 -2q-221 -8 -327.5 -54t-106.5 -143q0 -66 50 -104.5t137 -38.5zM313 1120q-29 0 -47 18.5t-18 47.5q0 50 64 124t131.5 125t91.5 56q23 -5 90.5 -56
t130.5 -125t63 -124q0 -30 -17 -48t-46 -18q-42 0 -94.5 51.5t-129.5 167.5q-81 -120 -129.5 -169.5t-89.5 -49.5z" />
    <glyph glyph-name="atilde" unicode="&#xe3;" horiz-adv-x="1071" 
d="M403 -23q-156 0 -245.5 76.5t-89.5 204.5q0 168 162 248t499 86h27v20q0 113 -63 172.5t-181 59.5q-105 0 -175.5 -46.5t-107.5 -121.5q0 -1 -13 0t-31.5 6t-36.5 14.5t-31 30t-13 47.5q0 37 27.5 77t78 76t134 59.5t182.5 23.5q208 0 319 -102.5t111 -291.5v-604
q0 -8 -23 -15t-50 -7q-122 0 -125 157q-57 -80 -150 -125t-205 -45zM453 123q132 0 217.5 74.5t85.5 191.5v76l-56 -2q-221 -8 -327.5 -54t-106.5 -143q0 -66 50 -104.5t137 -38.5zM289 1130q-33 0 -52.5 19.5t-19.5 52.5q0 79 46.5 138t113.5 59q56 0 135 -41t160 -113
q45 141 104 141q34 0 53 -19.5t19 -53.5q0 -77 -47.5 -136t-112.5 -59q-59 0 -138.5 40.5t-156.5 113.5q-49 -142 -104 -142z" />
    <glyph glyph-name="adieresis" unicode="&#xe4;" horiz-adv-x="1071" 
d="M403 -23q-156 0 -245.5 76.5t-89.5 204.5q0 168 162 248t499 86h27v20q0 113 -63 172.5t-181 59.5q-105 0 -175.5 -46.5t-107.5 -121.5q0 -1 -13 0t-31.5 6t-36.5 14.5t-31 30t-13 47.5q0 37 27.5 77t78 76t134 59.5t182.5 23.5q208 0 319 -102.5t111 -291.5v-604
q0 -8 -23 -15t-50 -7q-122 0 -125 157q-57 -80 -150 -125t-205 -45zM453 123q132 0 217.5 74.5t85.5 191.5v76l-56 -2q-221 -8 -327.5 -54t-106.5 -143q0 -66 50 -104.5t137 -38.5zM721 1118q-59 0 -92 32t-33 89q0 58 32.5 90.5t88.5 32.5t89.5 -32.5t33.5 -90.5
q0 -56 -33 -88.5t-86 -32.5zM344 1118q-56 0 -89.5 32.5t-33.5 88.5q0 57 32.5 90t86.5 33q59 0 92 -32.5t33 -90.5q0 -57 -32.5 -89t-88.5 -32z" />
    <glyph glyph-name="aring" unicode="&#xe5;" horiz-adv-x="1071" 
d="M403 -23q-156 0 -245.5 76.5t-89.5 204.5q0 168 162 248t499 86h27v20q0 113 -63 172.5t-181 59.5q-105 0 -175.5 -46.5t-107.5 -121.5q0 -1 -13 0t-31.5 6t-36.5 14.5t-31 30t-13 47.5q0 37 27.5 77t78 76t134 59.5t182.5 23.5q208 0 319 -102.5t111 -291.5v-604
q0 -8 -23 -15t-50 -7q-122 0 -125 157q-57 -80 -150 -125t-205 -45zM528 1118q-108 0 -176.5 69.5t-68.5 174.5t70 175.5t177 70.5q108 0 177 -70t69 -176q0 -103 -70.5 -173.5t-177.5 -70.5zM453 123q132 0 217.5 74.5t85.5 191.5v76l-56 -2q-221 -8 -327.5 -54
t-106.5 -143q0 -66 50 -104.5t137 -38.5zM528 1229q55 0 91 38t36 95q0 58 -36.5 97.5t-90.5 39.5t-89.5 -39t-35.5 -98q0 -56 36.5 -94.5t88.5 -38.5z" />
    <glyph glyph-name="ae" unicode="&#xe6;" horiz-adv-x="1775" 
d="M406 -23q-157 0 -247.5 77t-90.5 204q0 168 162 248t499 86h27v20q0 113 -63 173.5t-181 60.5q-105 0 -175 -47.5t-108 -122.5q0 -1 -13 0t-31.5 6t-36.5 14.5t-31 30t-13 47.5q0 37 27 77t76.5 76t131 59.5t177.5 23.5q256 0 352 -181q63 86 158 133.5t213 47.5
q213 0 344 -137t131 -359v-16q-2 -33 -15 -46.5t-46 -13.5h-729q10 -136 103 -220.5t233 -84.5q212 0 311 164q2 4 27 -3.5t51 -33t26 -63.5q0 -33 -28.5 -71.5t-79.5 -73t-133.5 -57t-178.5 -22.5q-156 0 -267 62.5t-167 177.5q-54 -107 -164.5 -171.5t-250.5 -64.5z
M453 123q132 0 217.5 74.5t85.5 191.5v76l-56 -2q-221 -8 -327.5 -54t-106.5 -143q0 -66 50 -104.5t137 -38.5zM1239 856q-122 0 -207 -78.5t-104 -202.5h588q-8 128 -82 204.5t-195 76.5z" />
    <glyph glyph-name="ccedilla" unicode="&#xe7;" horiz-adv-x="1056" 
d="M578 -27q-223 0 -367.5 147t-144.5 374q0 224 145 370t367 146q103 0 188 -29.5t133.5 -73t74 -88.5t25.5 -82q0 -24 -12 -43t-28.5 -28t-34.5 -16t-30 -6t-15 3q-80 193 -297 193q-139 0 -231.5 -98t-92.5 -248q0 -152 92 -251.5t232 -99.5q217 0 297 193q3 2 15 3
t30 -5.5t34.5 -16t28.5 -29t12 -44.5q0 -28 -15.5 -62.5t-49.5 -71.5t-81.5 -67.5t-119.5 -50t-155 -19.5zM467 -459q-26 -22 -71 -9t-31 48l108 242q11 24 17 35t18.5 23.5t30 17t43.5 4.5h18q41 0 67.5 -19.5t26.5 -52.5v-10q0 -19 -15 -39t-50 -55z" />
    <glyph glyph-name="egrave" unicode="&#xe8;" horiz-adv-x="1105" 
d="M586 -27q-233 0 -376.5 142t-143.5 372q0 148 64.5 267.5t180 187.5t258.5 68q213 0 343 -137t130 -359v-16q0 -33 -13 -46.5t-48 -13.5h-727q10 -136 103 -220.5t233 -84.5q214 0 309 164q4 4 29 -3.5t51.5 -33t26.5 -63.5q0 -75 -118 -149.5t-302 -74.5zM567 856
q-121 0 -206.5 -78.5t-104.5 -202.5h590q-8 129 -82.5 205t-196.5 76zM344 1247q-88 54 -88 125q0 35 27 57.5t65 22.5q52 0 98 -35q61 -40 123.5 -106t96 -115.5t28.5 -58.5q-7 -4 -27 -4.5t-59 8t-80.5 21t-91.5 35.5t-92 50z" />
    <glyph glyph-name="eacute" unicode="&#xe9;" horiz-adv-x="1105" 
d="M586 -27q-233 0 -376.5 142t-143.5 372q0 148 64.5 267.5t180 187.5t258.5 68q213 0 343 -137t130 -359v-16q0 -33 -13 -46.5t-48 -13.5h-727q10 -136 103 -220.5t233 -84.5q214 0 309 164q4 4 29 -3.5t51.5 -33t26.5 -63.5q0 -75 -118 -149.5t-302 -74.5zM567 856
q-121 0 -206.5 -78.5t-104.5 -202.5h590q-8 129 -82.5 205t-196.5 76zM412 1137q-6 8 27 58t95.5 115.5t122.5 106.5q53 35 99 35q39 0 65.5 -22.5t26.5 -57.5q0 -72 -86 -125q-42 -27 -92 -50t-91.5 -35.5t-80.5 -21t-59 -8t-27 4.5z" />
    <glyph glyph-name="ecircumflex" unicode="&#xea;" horiz-adv-x="1105" 
d="M586 -27q-233 0 -376.5 142t-143.5 372q0 148 64.5 267.5t180 187.5t258.5 68q213 0 343 -137t130 -359v-16q0 -33 -13 -46.5t-48 -13.5h-727q10 -136 103 -220.5t233 -84.5q214 0 309 164q4 4 29 -3.5t51.5 -33t26.5 -63.5q0 -75 -118 -149.5t-302 -74.5zM567 856
q-121 0 -206.5 -78.5t-104.5 -202.5h590q-8 129 -82.5 205t-196.5 76zM346 1120q-29 0 -47 18.5t-18 47.5q0 50 63.5 124t131 125t91.5 56q24 -5 91 -56t130.5 -125t63.5 -124q0 -29 -17.5 -47.5t-46.5 -18.5q-42 0 -94 51t-129 168q-81 -120 -129.5 -169.5t-89.5 -49.5z
" />
    <glyph glyph-name="edieresis" unicode="&#xeb;" horiz-adv-x="1105" 
d="M586 -27q-233 0 -376.5 142t-143.5 372q0 148 64.5 267.5t180 187.5t258.5 68q213 0 343 -137t130 -359v-16q0 -33 -13 -46.5t-48 -13.5h-727q10 -136 103 -220.5t233 -84.5q214 0 309 164q4 4 29 -3.5t51.5 -33t26.5 -63.5q0 -75 -118 -149.5t-302 -74.5zM567 856
q-121 0 -206.5 -78.5t-104.5 -202.5h590q-8 129 -82.5 205t-196.5 76zM758 1118q-59 0 -92 32t-33 89q0 58 32.5 90.5t88.5 32.5t89.5 -32.5t33.5 -90.5q0 -56 -33 -88.5t-86 -32.5zM381 1118q-56 0 -89.5 32.5t-33.5 88.5q0 57 33 90t86 33q59 0 92 -32.5t33 -90.5
q0 -57 -32.5 -89t-88.5 -32z" />
    <glyph glyph-name="igrave" unicode="&#xec;" horiz-adv-x="471" 
d="M225 -8q-92 0 -92 96v809q0 98 92 98h21q43 0 66.5 -22t23.5 -76v-809q0 -96 -90 -96h-21zM18 1247q-88 54 -88 125q0 34 27.5 57t65.5 23q52 0 98 -35q61 -40 123.5 -106t96 -115.5t28.5 -58.5q-7 -4 -27 -4.5t-59.5 8t-81 21t-91.5 35.5t-92 50z" />
    <glyph glyph-name="iacute" unicode="&#xed;" horiz-adv-x="471" 
d="M115 1137q-6 8 27 58t95.5 115.5t122.5 106.5q53 35 99 35q39 0 65.5 -22.5t26.5 -57.5q0 -72 -86 -125q-42 -27 -92 -50t-91.5 -35.5t-80.5 -21t-59 -8t-27 4.5zM225 -8q-92 0 -92 96v809q0 98 92 98h21q43 0 66.5 -22t23.5 -76v-809q0 -96 -90 -96h-21z" />
    <glyph glyph-name="icircumflex" unicode="&#xee;" horiz-adv-x="471" 
d="M20 1120q-29 0 -47 18.5t-18 47.5q0 50 64 124t131.5 125t91.5 56q23 -5 90.5 -56t130.5 -125t63 -124q0 -30 -17 -48t-46 -18q-42 0 -94 51t-129 168q-81 -119 -129.5 -169t-90.5 -50zM225 -8q-92 0 -92 96v809q0 98 92 98h21q43 0 66.5 -22t23.5 -76v-809
q0 -96 -90 -96h-21z" />
    <glyph glyph-name="idieresis" unicode="&#xef;" horiz-adv-x="471" 
d="M432 1118q-59 0 -92 32t-33 89q0 58 32.5 90.5t88.5 32.5t89.5 -32.5t33.5 -90.5q0 -56 -33 -88.5t-86 -32.5zM55 1118q-56 0 -89.5 32.5t-33.5 88.5q0 57 33 90t86 33q59 0 92 -32.5t33 -90.5q0 -57 -32.5 -89t-88.5 -32zM225 -8q-92 0 -92 96v809q0 98 92 98h21
q43 0 66.5 -22t23.5 -76v-809q0 -96 -90 -96h-21z" />
    <glyph glyph-name="eth" unicode="&#xf0;" horiz-adv-x="1187" 
d="M428 1014q-76 -43 -106 22l-5 11q-31 60 41 102l152 82q-142 60 -303 72q-2 6 -1 36t42.5 64.5t107.5 34.5q176 0 353 -107l215 119q68 37 106 -25l6 -6q40 -58 -43 -102l-153 -82q123 -113 195.5 -278t72.5 -377q0 -282 -145.5 -444.5t-384.5 -162.5
q-227 0 -363.5 127.5t-136.5 348.5q0 205 133 331.5t348 126.5q110 0 202.5 -48t141.5 -118q-46 253 -244 402zM580 139q150 0 235.5 105.5t85.5 271.5v68q-38 67 -124.5 117.5t-182.5 50.5q-153 0 -235.5 -79t-82.5 -222q0 -146 83 -229t221 -83z" />
    <glyph glyph-name="ntilde" unicode="&#xf1;" horiz-adv-x="1148" 
d="M199 995q120 0 127 -159q118 174 327 174q188 0 284.5 -115.5t96.5 -306.5v-500q0 -96 -90 -96h-22q-91 0 -91 96v475q0 125 -60 196.5t-167 71.5q-94 0 -166 -46.5t-110 -125.5v-571q0 -96 -90 -96h-23q-90 0 -90 96v885q0 3 9.5 8t27.5 9.5t37 4.5zM326 1130
q-33 0 -52.5 19.5t-19.5 52.5q0 79 46.5 138t113.5 59q56 0 135 -41t160 -113q45 141 104 141q34 0 53 -19.5t19 -53.5q0 -77 -47.5 -136t-112.5 -59q-59 0 -138.5 40.5t-156.5 113.5q-49 -142 -104 -142z" />
    <glyph glyph-name="ograve" unicode="&#xf2;" horiz-adv-x="1163" 
d="M582 -27q-228 0 -372 146t-144 375q0 226 145 371t373 145q225 0 369.5 -146.5t144.5 -374.5q0 -226 -144.5 -371t-371.5 -145zM582 139q141 0 234 99.5t93 250.5q0 154 -92.5 254.5t-234.5 100.5t-236 -99t-94 -251t94.5 -253.5t235.5 -101.5zM354 1247q-88 54 -88 125
q0 35 27 57.5t65 22.5q53 0 99 -35q61 -40 123.5 -106t96 -115.5t28.5 -58.5q-7 -4 -27 -4.5t-59.5 8t-81 21t-91.5 35.5t-92 50z" />
    <glyph glyph-name="oacute" unicode="&#xf3;" horiz-adv-x="1163" 
d="M467 1137q-6 8 27.5 58t96 115.5t122.5 106.5q53 35 98 35q39 0 65.5 -22.5t26.5 -57.5q0 -72 -86 -125q-42 -27 -92 -50t-91.5 -35.5t-80.5 -21t-59 -8t-27 4.5zM582 -27q-228 0 -372 146t-144 375q0 226 145 371t373 145q225 0 369.5 -146.5t144.5 -374.5
q0 -226 -144.5 -371t-371.5 -145zM582 139q141 0 234 99.5t93 250.5q0 154 -92.5 254.5t-234.5 100.5t-236 -99t-94 -251t94.5 -253.5t235.5 -101.5z" />
    <glyph glyph-name="ocircumflex" unicode="&#xf4;" horiz-adv-x="1163" 
d="M582 -27q-228 0 -372 146t-144 375q0 226 145 371t373 145q225 0 369.5 -146.5t144.5 -374.5q0 -226 -144.5 -371t-371.5 -145zM582 139q141 0 234 99.5t93 250.5q0 154 -92.5 254.5t-234.5 100.5t-236 -99t-94 -251t94.5 -253.5t235.5 -101.5zM365 1120
q-29 0 -47.5 18.5t-18.5 47.5q0 50 64 124t131.5 125t91.5 56q23 -5 90.5 -56t130.5 -125t63 -124q0 -30 -17 -48t-46 -18q-42 0 -94 51t-129 168q-81 -120 -129.5 -169.5t-89.5 -49.5z" />
    <glyph glyph-name="otilde" unicode="&#xf5;" horiz-adv-x="1163" 
d="M582 -27q-228 0 -372 146t-144 375q0 226 145 371t373 145q225 0 369.5 -146.5t144.5 -374.5q0 -226 -144.5 -371t-371.5 -145zM582 139q141 0 234 99.5t93 250.5q0 154 -92.5 254.5t-234.5 100.5t-236 -99t-94 -251t94.5 -253.5t235.5 -101.5zM344 1130
q-33 0 -52.5 19.5t-19.5 52.5q0 79 46.5 138t113.5 59q56 0 135 -41t160 -113q45 141 104 141q34 0 53 -19.5t19 -53.5q0 -77 -47.5 -136t-112.5 -59q-59 0 -137.5 40.5t-156.5 113.5q-49 -142 -105 -142z" />
    <glyph glyph-name="odieresis" unicode="&#xf6;" horiz-adv-x="1163" 
d="M776 1118q-59 0 -92 32t-33 89q0 58 32.5 90.5t88.5 32.5t89.5 -32.5t33.5 -90.5q0 -56 -33 -88.5t-86 -32.5zM399 1118q-56 0 -89.5 32.5t-33.5 88.5q0 57 33 90t86 33q59 0 92 -32.5t33 -90.5q0 -57 -32.5 -89t-88.5 -32zM582 -27q-228 0 -372 146t-144 375
q0 226 145 371t373 145q225 0 369.5 -146.5t144.5 -374.5q0 -226 -144.5 -371t-371.5 -145zM582 139q141 0 234 99.5t93 250.5q0 154 -92.5 254.5t-234.5 100.5t-236 -99t-94 -251t94.5 -253.5t235.5 -101.5z" />
    <glyph glyph-name="divide" unicode="&#xf7;" horiz-adv-x="1228" 
d="M600 774q-104 0 -104 105v22q0 50 26.5 77.5t77.5 27.5h25q52 0 79 -27.5t27 -77.5v-22q0 -105 -106 -105h-25zM600 78q-104 0 -104 104v23q0 104 104 104h25q106 0 106 -104v-23q0 -104 -106 -104h-25zM242 457q-88 0 -88 78v14q0 78 88 78h743q88 0 88 -78v-14
q0 -78 -88 -78h-743z" />
    <glyph glyph-name="oslash" unicode="&#xf8;" horiz-adv-x="1163" 
d="M152 -94q-5 -5 -26.5 3.5t-42 28.5t-20.5 44q0 39 48 92l77 86q-110 138 -110 329q0 107 39.5 203.5t107.5 166t163.5 110.5t201.5 41q157 0 291 -90l141 157q5 5 26 -3.5t41.5 -28.5t20.5 -44q0 -40 -45 -90l-80 -86q113 -141 113 -331q0 -107 -39.5 -203.5t-107.5 -166
t-163.5 -110.5t-201.5 -41q-162 0 -291 90zM588 139q140 0 232.5 101t92.5 252q0 118 -59 204l-448 -493q84 -64 182 -64zM322 289l448 493q-81 62 -182 62q-141 0 -233.5 -100t-92.5 -252q0 -111 60 -203z" />
    <glyph glyph-name="ugrave" unicode="&#xf9;" horiz-adv-x="1148" 
d="M952 -8q-124 0 -129 155q-120 -172 -327 -172q-188 0 -283.5 114.5t-95.5 307.5v500q0 98 88 98h22q43 0 66.5 -22t23.5 -76v-475q0 -128 62 -199t174 -71q90 0 160.5 47t109.5 127v571q0 98 88 98h23q43 0 66.5 -22t23.5 -76v-883q0 -3 -9.5 -8t-27 -9.5t-35.5 -4.5z
M342 1247q-88 54 -88 125q0 35 27 57.5t65 22.5q52 0 98 -35q61 -40 123.5 -106t96 -115.5t28.5 -58.5q-7 -4 -27 -4.5t-59 8t-80.5 21t-91.5 35.5t-92 50z" />
    <glyph glyph-name="uacute" unicode="&#xfa;" horiz-adv-x="1148" 
d="M952 -8q-124 0 -129 155q-120 -172 -327 -172q-188 0 -283.5 114.5t-95.5 307.5v500q0 98 88 98h22q43 0 66.5 -22t23.5 -76v-475q0 -128 62 -199t174 -71q90 0 160.5 47t109.5 127v571q0 98 88 98h23q43 0 66.5 -22t23.5 -76v-883q0 -3 -9.5 -8t-27 -9.5t-35.5 -4.5z
M471 1137q-6 8 27.5 58t96 115.5t122.5 106.5q53 35 98 35q39 0 65.5 -22.5t26.5 -57.5q0 -72 -86 -125q-42 -27 -92 -50t-91.5 -35.5t-80.5 -21t-59 -8t-27 4.5z" />
    <glyph glyph-name="ucircumflex" unicode="&#xfb;" horiz-adv-x="1148" 
d="M952 -8q-124 0 -129 155q-120 -172 -327 -172q-188 0 -283.5 114.5t-95.5 307.5v500q0 98 88 98h22q43 0 66.5 -22t23.5 -76v-475q0 -128 62 -199t174 -71q90 0 160.5 47t109.5 127v571q0 98 88 98h23q43 0 66.5 -22t23.5 -76v-883q0 -3 -9.5 -8t-27 -9.5t-35.5 -4.5z
M354 1120q-29 0 -47 18.5t-18 47.5q0 50 63.5 124t131 125t91.5 56q24 -5 91 -56t130.5 -125t63.5 -124q0 -30 -17 -48t-46 -18q-42 0 -94.5 51.5t-129.5 167.5q-81 -120 -129.5 -169.5t-89.5 -49.5z" />
    <glyph glyph-name="udieresis" unicode="&#xfc;" horiz-adv-x="1148" 
d="M952 -8q-124 0 -129 155q-120 -172 -327 -172q-188 0 -283.5 114.5t-95.5 307.5v500q0 98 88 98h22q43 0 66.5 -22t23.5 -76v-475q0 -128 62 -199t174 -71q90 0 160.5 47t109.5 127v571q0 98 88 98h23q43 0 66.5 -22t23.5 -76v-883q0 -3 -9.5 -8t-27 -9.5t-35.5 -4.5z
M768 1118q-59 0 -92 32t-33 89q0 58 32.5 90.5t88.5 32.5t89.5 -32.5t33.5 -90.5q0 -56 -33 -88.5t-86 -32.5zM391 1118q-56 0 -89.5 32.5t-33.5 88.5q0 57 33 90t86 33q59 0 92 -32.5t33 -90.5q0 -57 -32.5 -89t-88.5 -32z" />
    <glyph glyph-name="yacute" unicode="&#xfd;" horiz-adv-x="1019" 
d="M408 -399q-26 0 -53 12t-41.5 25t-12.5 18l164 399q-35 3 -54.5 15.5t-31.5 42.5l-352 823q-2 7 10.5 20.5t39 26t56.5 12.5q45 0 75 -25t54 -89l266 -680l236 676q38 118 127 118q25 0 52 -12t41.5 -25t12.5 -18l-465 -1227q-42 -112 -124 -112zM391 1120
q-6 8 27.5 58.5t96 116t122.5 106.5q53 35 98 35q39 0 65.5 -22.5t26.5 -57.5q0 -72 -86 -125q-42 -27 -92 -50t-91.5 -35.5t-80.5 -21.5t-59 -8.5t-27 4.5z" />
    <glyph glyph-name="thorn" unicode="&#xfe;" horiz-adv-x="1214" 
d="M666 -27q-112 0 -201 49t-137 123v-450q0 -96 -90 -96h-23q-90 0 -90 96v1689q0 3 9.5 8.5t27.5 10t37 4.5q55 0 92 -39t37 -135v-410q127 187 344 187q201 0 331 -142t130 -374q0 -233 -130 -377t-337 -144zM629 141q138 0 222.5 97t84.5 254q0 153 -85.5 251.5
t-217.5 98.5q-110 0 -188 -53t-117 -146v-250q13 -109 99.5 -180.5t201.5 -71.5z" />
    <glyph glyph-name="ydieresis" unicode="&#xff;" horiz-adv-x="1019" 
d="M408 -399q-26 0 -53 12t-41.5 25t-12.5 18l164 399q-35 3 -54.5 15.5t-31.5 42.5l-352 823q-2 7 10.5 20.5t39 26t56.5 12.5q45 0 75 -25t54 -89l266 -680l236 676q38 118 127 118q25 0 52 -12t41.5 -25t12.5 -18l-465 -1227q-42 -112 -124 -112zM709 1118q-59 0 -92 32
t-33 89q0 58 32.5 90.5t88.5 32.5t89 -32.5t33 -90.5q0 -56 -32.5 -88.5t-85.5 -32.5zM332 1118q-56 0 -89.5 32.5t-33.5 88.5q0 57 32.5 90t86.5 33q59 0 92 -32.5t33 -90.5q0 -57 -32.5 -89t-88.5 -32z" />
    <glyph glyph-name="Amacron" unicode="&#x100;" horiz-adv-x="1290" 
d="M1022 88l-117 301h-530l-117 -303q-35 -96 -117 -96q-28 0 -57 12t-44.5 27t-12.5 24l471 1217q13 34 44.5 50.5t100.5 16.5q70 0 101 -16t44 -51l476 -1217q3 -8 -13 -23t-45.5 -27.5t-58.5 -12.5q-88 0 -125 98zM639 1120l-213 -561h426zM424 1489q-102 0 -102 80v12
q0 36 27 56t75 20h438q50 0 76.5 -19.5t26.5 -56.5v-12q0 -80 -103 -80h-438z" />
    <glyph glyph-name="amacron" unicode="&#x101;" horiz-adv-x="1071" 
d="M403 -23q-156 0 -245.5 76.5t-89.5 204.5q0 168 162 248t499 86h27v20q0 113 -63 172.5t-181 59.5q-105 0 -175.5 -46.5t-107.5 -121.5q0 -1 -13 0t-31.5 6t-36.5 14.5t-31 30t-13 47.5q0 37 27.5 77t78 76t134 59.5t182.5 23.5q208 0 319 -102.5t111 -291.5v-604
q0 -8 -23 -15t-50 -7q-122 0 -125 157q-57 -80 -150 -125t-205 -45zM453 123q132 0 217.5 74.5t85.5 191.5v76l-56 -2q-221 -8 -327.5 -54t-106.5 -143q0 -66 50 -104.5t137 -38.5zM334 1151q-103 0 -103 80v12q0 36 27.5 56t75.5 20h438q102 0 102 -76v-12q0 -80 -102 -80
h-438z" />
    <glyph glyph-name="Abreve" unicode="&#x102;" horiz-adv-x="1290" 
d="M1022 88l-117 301h-530l-117 -303q-35 -96 -117 -96q-28 0 -57 12t-44.5 27t-12.5 24l471 1217q13 34 44.5 50.5t100.5 16.5q70 0 101 -16t44 -51l476 -1217q3 -8 -13 -23t-45.5 -27.5t-58.5 -12.5q-88 0 -125 98zM639 1120l-213 -561h426zM645 1456q-65 0 -139 37.5
t-123 91t-49 98.5q0 34 21 56t57 22q34 0 94.5 -51t142.5 -135q68 76 131.5 131t98.5 55q36 0 56.5 -21.5t20.5 -56.5q0 -47 -50.5 -101t-124 -90t-136.5 -36z" />
    <glyph glyph-name="abreve" unicode="&#x103;" horiz-adv-x="1071" 
d="M403 -23q-156 0 -245.5 76.5t-89.5 204.5q0 168 162 248t499 86h27v20q0 113 -63 172.5t-181 59.5q-105 0 -175.5 -46.5t-107.5 -121.5q0 -1 -13 0t-31.5 6t-36.5 14.5t-31 30t-13 47.5q0 37 27.5 77t78 76t134 59.5t182.5 23.5q208 0 319 -102.5t111 -291.5v-604
q0 -8 -23 -15t-50 -7q-122 0 -125 157q-57 -80 -150 -125t-205 -45zM453 123q132 0 217.5 74.5t85.5 191.5v76l-56 -2q-221 -8 -327.5 -54t-106.5 -143q0 -66 50 -104.5t137 -38.5zM549 1118q-65 0 -139 37.5t-123 91.5t-49 99q0 34 20.5 55.5t56.5 21.5q56 0 238 -186
q164 186 229 186q36 0 57 -21.5t21 -55.5q0 -47 -50.5 -101.5t-124 -90.5t-136.5 -36z" />
    <glyph glyph-name="Aogonek" unicode="&#x104;" horiz-adv-x="1290" 
d="M1022 88l-117 301h-530l-117 -303q-35 -96 -117 -96q-28 0 -57 12t-44.5 27t-12.5 24l471 1217q13 34 44.5 50.5t100.5 16.5q70 0 101 -16t44 -51l476 -1217q4 -18 -37 -41q-150 -117 -150 -200q0 -32 19 -52t49 -20q52 0 76 41q27 -2 47 -23.5t20 -54.5q0 -46 -43 -75
t-117 -29q-94 0 -150 46.5t-56 127.5q0 63 41.5 124t121.5 107q-40 22 -63 84zM639 1120l-213 -561h426z" />
    <glyph glyph-name="aogonek" unicode="&#x105;" horiz-adv-x="1071" 
d="M403 -23q-156 0 -245.5 76.5t-89.5 204.5q0 168 162 248t499 86h27v20q0 113 -63 172.5t-181 59.5q-105 0 -175.5 -46.5t-107.5 -121.5q0 -1 -13 0t-31.5 6t-36.5 14.5t-31 30t-13 47.5q0 37 27.5 77t78 76t134 59.5t182.5 23.5q208 0 319 -102.5t111 -291.5v-604
q0 -5 -14 -12q-151 -119 -151 -203q0 -32 18.5 -51.5t48.5 -19.5q52 0 76 41q27 -2 47 -23.5t20 -54.5q0 -47 -42.5 -76t-116.5 -29q-95 0 -151 46.5t-56 127.5q0 68 47.5 132t138.5 112q-63 32 -63 145q-57 -80 -150 -125t-205 -45zM453 123q132 0 217.5 74.5t85.5 191.5
v76l-56 -2q-221 -8 -327.5 -54t-106.5 -143q0 -66 50 -104.5t137 -38.5z" />
    <glyph glyph-name="Cacute" unicode="&#x106;" horiz-adv-x="1345" 
d="M633 1475q-6 8 27.5 58t96 115.5t122.5 106.5q53 35 98 35q39 0 65.5 -22.5t26.5 -57.5q0 -72 -86 -125q-42 -27 -92 -50t-91.5 -35.5t-80.5 -21t-59 -8t-27 4.5zM758 -27q-194 0 -346.5 87t-237 243.5t-84.5 355.5q0 150 50 279t138 220t213.5 142.5t272.5 51.5
q95 0 179 -20.5t141 -52t99 -70t61.5 -74t19.5 -64.5q0 -44 -30 -73.5t-60 -38.5t-33 -3q-56 97 -157.5 151t-217.5 54q-202 0 -329.5 -138t-127.5 -359q0 -219 130.5 -359.5t330.5 -140.5q134 0 238 62t145 169q2 1 15 1.5t33 -8.5t38.5 -20.5t31.5 -34t13 -50.5
q0 -31 -20.5 -70t-64 -81.5t-103.5 -77.5t-149 -58t-189 -23z" />
    <glyph glyph-name="cacute" unicode="&#x107;" horiz-adv-x="1056" 
d="M446 1137q-6 8 27.5 58t96 115.5t122.5 106.5q53 35 99 35q39 0 65.5 -22.5t26.5 -57.5q0 -72 -86 -125q-42 -27 -92 -50t-91.5 -35.5t-81 -21t-59.5 -8t-27 4.5zM578 -27q-223 0 -367.5 147t-144.5 374q0 224 145 370t367 146q103 0 188 -29.5t133.5 -73t74 -88.5
t25.5 -82q0 -24 -12 -43t-28.5 -28t-34.5 -16t-30 -6t-15 3q-80 193 -297 193q-139 0 -231.5 -98t-92.5 -248q0 -152 92 -251.5t232 -99.5q217 0 297 193q3 2 15 3t30 -5.5t34.5 -16t28.5 -29t12 -44.5q0 -28 -15.5 -62.5t-49.5 -71.5t-81.5 -67.5t-119.5 -50t-155 -19.5z
" />
    <glyph glyph-name="Ccircumflex" unicode="&#x108;" horiz-adv-x="1345" 
d="M514 1458q-29 0 -47 18.5t-18 47.5q0 50 63.5 124t131 125t91.5 56q24 -5 91 -56t130.5 -125t63.5 -124q0 -29 -17.5 -47.5t-46.5 -18.5q-42 0 -94 51t-129 168q-81 -120 -129.5 -169.5t-89.5 -49.5zM758 -27q-194 0 -346.5 87t-237 243.5t-84.5 355.5q0 150 50 279
t138 220t213.5 142.5t272.5 51.5q95 0 179 -20.5t141 -52t99 -70t61.5 -74t19.5 -64.5q0 -44 -30 -73.5t-60 -38.5t-33 -3q-56 97 -157.5 151t-217.5 54q-202 0 -329.5 -138t-127.5 -359q0 -219 130.5 -359.5t330.5 -140.5q134 0 238 62t145 169q2 1 15 1.5t33 -8.5
t38.5 -20.5t31.5 -34t13 -50.5q0 -31 -20.5 -70t-64 -81.5t-103.5 -77.5t-149 -58t-189 -23z" />
    <glyph glyph-name="ccircumflex" unicode="&#x109;" horiz-adv-x="1056" 
d="M369 1120q-29 0 -47.5 18.5t-18.5 47.5q0 50 64 124t131.5 125t91.5 56q23 -5 90.5 -56t130.5 -125t63 -124q0 -30 -17 -48t-46 -18q-42 0 -94 51t-129 168q-81 -120 -129.5 -169.5t-89.5 -49.5zM578 -27q-223 0 -367.5 147t-144.5 374q0 224 145 370t367 146
q103 0 188 -29.5t133.5 -73t74 -88.5t25.5 -82q0 -24 -12 -43t-28.5 -28t-34.5 -16t-30 -6t-15 3q-80 193 -297 193q-139 0 -231.5 -98t-92.5 -248q0 -152 92 -251.5t232 -99.5q217 0 297 193q3 2 15 3t30 -5.5t34.5 -16t28.5 -29t12 -44.5q0 -28 -15.5 -62.5t-49.5 -71.5
t-81.5 -67.5t-119.5 -50t-155 -19.5z" />
    <glyph glyph-name="Cdotaccent" unicode="&#x10a;" horiz-adv-x="1345" 
d="M758 -27q-194 0 -346.5 87t-237 243.5t-84.5 355.5q0 150 50 279t138 220t213.5 142.5t272.5 51.5q95 0 179 -20.5t141 -52t99 -70t61.5 -74t19.5 -64.5q0 -44 -30 -73.5t-60 -38.5t-33 -3q-56 97 -157.5 151t-217.5 54q-202 0 -329.5 -138t-127.5 -359
q0 -219 130.5 -359.5t330.5 -140.5q134 0 238 62t145 169q2 1 15 1.5t33 -8.5t38.5 -20.5t31.5 -34t13 -50.5q0 -31 -20.5 -70t-64 -81.5t-103.5 -77.5t-149 -58t-189 -23zM754 1458q-62 0 -99 35.5t-37 91.5t38 92.5t100 36.5q60 0 96.5 -36t36.5 -93q0 -56 -36.5 -91.5
t-98.5 -35.5z" />
    <glyph glyph-name="cdotaccent" unicode="&#x10b;" horiz-adv-x="1056" 
d="M578 -27q-223 0 -367.5 147t-144.5 374q0 224 145 370t367 146q103 0 188 -29.5t133.5 -73t74 -88.5t25.5 -82q0 -24 -12 -43t-28.5 -28t-34.5 -16t-30 -6t-15 3q-80 193 -297 193q-139 0 -231.5 -98t-92.5 -248q0 -152 92 -251.5t232 -99.5q217 0 297 193q3 2 15 3
t30 -5.5t34.5 -16t28.5 -29t12 -44.5q0 -28 -15.5 -62.5t-49.5 -71.5t-81.5 -67.5t-119.5 -50t-155 -19.5zM596 1120q-62 0 -98.5 35.5t-36.5 91.5t37.5 92.5t99.5 36.5q60 0 96.5 -36t36.5 -93q0 -56 -36.5 -91.5t-98.5 -35.5z" />
    <glyph glyph-name="Ccaron" unicode="&#x10c;" horiz-adv-x="1345" 
d="M758 -27q-194 0 -346.5 87t-237 243.5t-84.5 355.5q0 150 50 279t138 220t213.5 142.5t272.5 51.5q95 0 179 -20.5t141 -52t99 -70t61.5 -74t19.5 -64.5q0 -44 -30 -73.5t-60 -38.5t-33 -3q-56 97 -157.5 151t-217.5 54q-202 0 -329.5 -138t-127.5 -359
q0 -219 130.5 -359.5t330.5 -140.5q134 0 238 62t145 169q2 1 15 1.5t33 -8.5t38.5 -20.5t31.5 -34t13 -50.5q0 -31 -20.5 -70t-64 -81.5t-103.5 -77.5t-149 -58t-189 -23zM981 1800q29 0 46 -18.5t17 -48.5q0 -50 -63 -124t-130.5 -125.5t-90.5 -56.5q-23 5 -90.5 56.5
t-131 125.5t-63.5 124q0 30 17.5 48.5t46.5 18.5q42 0 92.5 -51.5t128.5 -169.5q78 118 128.5 169.5t92.5 51.5z" />
    <glyph glyph-name="ccaron" unicode="&#x10d;" horiz-adv-x="1056" 
d="M578 -27q-223 0 -367.5 147t-144.5 374q0 224 145 370t367 146q103 0 188 -29.5t133.5 -73t74 -88.5t25.5 -82q0 -24 -12 -43t-28.5 -28t-34.5 -16t-30 -6t-15 3q-80 193 -297 193q-139 0 -231.5 -98t-92.5 -248q0 -152 92 -251.5t232 -99.5q217 0 297 193q3 2 15 3
t30 -5.5t34.5 -16t28.5 -29t12 -44.5q0 -28 -15.5 -62.5t-49.5 -71.5t-81.5 -67.5t-119.5 -50t-155 -19.5zM809 1462q29 0 46 -18.5t17 -48.5q0 -50 -63 -123.5t-130.5 -125t-90.5 -56.5q-23 5 -90.5 56.5t-131 125t-63.5 123.5q0 30 17.5 48.5t46.5 18.5q42 0 92.5 -51.5
t128.5 -169.5q78 118 128.5 169.5t92.5 51.5z" />
    <glyph glyph-name="Dcaron" unicode="&#x10e;" horiz-adv-x="1386" 
d="M258 0q-49 0 -83 34.5t-34 82.5v1089q0 53 32.5 86t80.5 33h324q338 0 528 -174.5t190 -484.5q0 -311 -194 -488.5t-535 -177.5h-309zM350 182h221q243 0 377.5 126.5t134.5 355.5q0 225 -135 352t-375 127h-223v-961zM854 1800q29 0 46.5 -18.5t17.5 -48.5
q0 -50 -63.5 -124t-131 -125.5t-90.5 -56.5q-23 5 -90.5 56.5t-131 125.5t-63.5 124q0 30 17.5 48.5t46.5 18.5q42 0 92.5 -51.5t128.5 -169.5q78 118 128.5 169.5t92.5 51.5z" />
    <glyph glyph-name="dcaron" unicode="&#x10f;" horiz-adv-x="1585" 
d="M526 -27q-200 0 -330 144t-130 375q0 232 130.5 375t335.5 143q114 0 203 -46t135 -116v536q0 3 10 8.5t28 10t36 4.5q129 0 129 -174v-1145q0 -96 -90 -96h-20q-91 0 -91 96v76q-125 -191 -346 -191zM565 141q122 0 211.5 78.5t95.5 198.5v221q-83 203 -303 203
q-138 0 -222.5 -96t-84.5 -254q0 -154 85.5 -252.5t217.5 -98.5zM1331 926q-17 -16 -43.5 -18t-46.5 16.5t-12 46.5l108 348q17 55 37 75.5t70 20.5h18q39 0 62.5 -25t23.5 -71v-8q0 -63 -47 -125z" />
    <glyph glyph-name="dcroat" unicode="&#x111;" horiz-adv-x="1198" 
d="M526 -27q-200 0 -330 144t-130 375q0 232 130.5 375t335.5 143q114 0 203 -46t135 -116v254h-170q-79 0 -79 57v15q0 59 79 59h170v151q0 3 10 8.5t28 10t36 4.5q129 0 129 -174h76q80 0 80 -59v-15q0 -57 -80 -57h-76v-1014q0 -96 -90 -96h-20q-91 0 -91 96v76
q-125 -191 -346 -191zM565 141q126 0 216.5 82.5t90.5 206.5v209q-83 203 -303 203q-138 0 -222.5 -96t-84.5 -254q0 -154 85.5 -252.5t217.5 -98.5z" />
    <glyph glyph-name="Emacron" unicode="&#x112;" horiz-adv-x="1202" 
d="M254 0q-51 0 -82 31.5t-31 85.5v1089q0 54 31 86.5t82 32.5h768q98 0 98 -88v-12q0 -88 -98 -88h-670v-371h518q99 0 99 -84v-6q0 -88 -99 -88h-518v-402h682q96 0 96 -84v-10q0 -92 -96 -92h-780zM410 1489q-103 0 -103 80v12q0 36 27.5 56t75.5 20h438q102 0 102 -76
v-12q0 -80 -102 -80h-438z" />
    <glyph glyph-name="emacron" unicode="&#x113;" horiz-adv-x="1105" 
d="M586 -27q-233 0 -376.5 142t-143.5 372q0 148 64.5 267.5t180 187.5t258.5 68q213 0 343 -137t130 -359v-16q0 -33 -13 -46.5t-48 -13.5h-727q10 -136 103 -220.5t233 -84.5q214 0 309 164q4 4 29 -3.5t51.5 -33t26.5 -63.5q0 -75 -118 -149.5t-302 -74.5zM567 856
q-121 0 -206.5 -78.5t-104.5 -202.5h590q-8 129 -82.5 205t-196.5 76zM348 1151q-102 0 -102 80v12q0 36 27 56t75 20h438q50 0 76.5 -19.5t26.5 -56.5v-12q0 -80 -103 -80h-438z" />
    <glyph glyph-name="Ebreve" unicode="&#x114;" horiz-adv-x="1202" 
d="M254 0q-51 0 -82 31.5t-31 85.5v1089q0 54 31 86.5t82 32.5h768q98 0 98 -88v-12q0 -88 -98 -88h-670v-371h518q99 0 99 -84v-6q0 -88 -99 -88h-518v-402h682q96 0 96 -84v-10q0 -92 -96 -92h-780zM633 1456q-65 0 -139 37.5t-123 91t-49 98.5q0 35 20.5 56.5t56.5 21.5
q56 0 238 -186q164 186 229 186q36 0 57 -22t21 -56q0 -47 -50.5 -101t-124 -90t-136.5 -36z" />
    <glyph glyph-name="ebreve" unicode="&#x115;" horiz-adv-x="1105" 
d="M586 -27q-233 0 -376.5 142t-143.5 372q0 148 64.5 267.5t180 187.5t258.5 68q213 0 343 -137t130 -359v-16q0 -33 -13 -46.5t-48 -13.5h-727q10 -136 103 -220.5t233 -84.5q214 0 309 164q4 4 29 -3.5t51.5 -33t26.5 -63.5q0 -75 -118 -149.5t-302 -74.5zM567 856
q-121 0 -206.5 -78.5t-104.5 -202.5h590q-8 129 -82.5 205t-196.5 76zM569 1118q-65 0 -139 37.5t-123 91.5t-49 99q0 34 21 55.5t57 21.5q34 0 94.5 -51t142.5 -135q68 76 131.5 131t98.5 55q36 0 57 -21.5t21 -55.5q0 -47 -50.5 -101.5t-124.5 -90.5t-137 -36z" />
    <glyph glyph-name="Edotaccent" unicode="&#x116;" horiz-adv-x="1202" 
d="M254 0q-51 0 -82 31.5t-31 85.5v1089q0 54 31 86.5t82 32.5h768q98 0 98 -88v-12q0 -88 -98 -88h-670v-371h518q99 0 99 -84v-6q0 -88 -99 -88h-518v-402h682q96 0 96 -84v-10q0 -92 -96 -92h-780zM645 1458q-62 0 -98.5 35.5t-36.5 91.5t37.5 92.5t99.5 36.5
q61 0 97 -36t36 -93q0 -56 -36.5 -91.5t-98.5 -35.5z" />
    <glyph glyph-name="edotaccent" unicode="&#x117;" horiz-adv-x="1105" 
d="M586 -27q-233 0 -376.5 142t-143.5 372q0 148 64.5 267.5t180 187.5t258.5 68q213 0 343 -137t130 -359v-16q0 -33 -13 -46.5t-48 -13.5h-727q10 -136 103 -220.5t233 -84.5q214 0 309 164q4 4 29 -3.5t51.5 -33t26.5 -63.5q0 -75 -118 -149.5t-302 -74.5zM567 856
q-121 0 -206.5 -78.5t-104.5 -202.5h590q-8 129 -82.5 205t-196.5 76zM559 1120q-62 0 -98.5 35.5t-36.5 91.5t37.5 92.5t99.5 36.5q61 0 97 -36t36 -93q0 -56 -36.5 -91.5t-98.5 -35.5z" />
    <glyph glyph-name="Eogonek" unicode="&#x118;" horiz-adv-x="1202" 
d="M254 0q-51 0 -82 31.5t-31 85.5v1089q0 54 31 86.5t82 32.5h768q98 0 98 -88v-12q0 -88 -98 -88h-670v-371h518q99 0 99 -84v-6q0 -88 -99 -88h-518v-402h682q96 0 96 -84v-10q0 -52 -28 -74q-160 -125 -160 -208q0 -32 19 -52t49 -20q51 0 75 41q27 -2 47.5 -23.5
t20.5 -54.5q0 -46 -43 -75t-117 -29q-95 0 -151 46.5t-56 127.5q0 63 41 123t119 106h-692z" />
    <glyph glyph-name="eogonek" unicode="&#x119;" horiz-adv-x="1105" 
d="M586 -27q-233 0 -376.5 142t-143.5 372q0 148 64.5 267.5t180 187.5t258.5 68q213 0 343 -137t130 -359v-16q0 -33 -13 -46.5t-48 -13.5h-727q10 -136 103 -220.5t233 -84.5q214 0 309 164q4 4 29 -3.5t51.5 -33t26.5 -63.5q0 -40 -40 -86t-110 -82q-143 -113 -143 -195
q0 -32 19 -52t48 -20q52 0 76 41q27 -2 47.5 -23t20.5 -54q0 -47 -43 -76t-117 -29q-95 0 -151 46.5t-56 127.5q0 100 94 182q-46 -4 -65 -4zM567 856q-121 0 -206.5 -78.5t-104.5 -202.5h590q-8 129 -82.5 205t-196.5 76z" />
    <glyph glyph-name="Ecaron" unicode="&#x11a;" horiz-adv-x="1202" 
d="M254 0q-51 0 -82 31.5t-31 85.5v1089q0 54 31 86.5t82 32.5h768q98 0 98 -88v-12q0 -88 -98 -88h-670v-371h518q99 0 99 -84v-6q0 -88 -99 -88h-518v-402h682q96 0 96 -84v-10q0 -92 -96 -92h-780zM858 1800q29 0 46.5 -18.5t17.5 -48.5q0 -50 -63.5 -124t-131 -125.5
t-90.5 -56.5q-23 5 -90.5 56.5t-131 125.5t-63.5 124q0 30 17.5 48.5t46.5 18.5q42 0 92.5 -51.5t128.5 -169.5q78 118 128.5 169.5t92.5 51.5z" />
    <glyph glyph-name="ecaron" unicode="&#x11b;" horiz-adv-x="1105" 
d="M586 -27q-233 0 -376.5 142t-143.5 372q0 148 64.5 267.5t180 187.5t258.5 68q213 0 343 -137t130 -359v-16q0 -33 -13 -46.5t-48 -13.5h-727q10 -136 103 -220.5t233 -84.5q214 0 309 164q4 4 29 -3.5t51.5 -33t26.5 -63.5q0 -75 -118 -149.5t-302 -74.5zM567 856
q-121 0 -206.5 -78.5t-104.5 -202.5h590q-8 129 -82.5 205t-196.5 76zM780 1462q29 0 46.5 -18.5t17.5 -48.5q0 -50 -63.5 -123.5t-131 -125t-90.5 -56.5q-23 5 -90.5 56.5t-131 125t-63.5 123.5q0 30 17.5 48.5t46.5 18.5q42 0 92.5 -51.5t128.5 -169.5q78 118 128.5 169.5
t92.5 51.5z" />
    <glyph glyph-name="Gcircumflex" unicode="&#x11c;" horiz-adv-x="1458" 
d="M522 1458q-29 0 -47 18.5t-18 47.5q0 50 63.5 124t131 125t91.5 56q24 -5 91 -56t130.5 -125t63.5 -124q0 -30 -17 -48t-46 -18q-42 0 -94.5 51.5t-129.5 167.5q-81 -120 -129.5 -169.5t-89.5 -49.5zM1272 -8q-53 0 -84 37t-31 133v24q-63 -100 -176 -155.5t-264 -55.5
q-188 0 -331.5 88.5t-219.5 243.5t-76 352q0 201 86 359t241 246t353 88q114 0 213 -28.5t160 -71t95 -89t34 -86.5q0 -43 -28 -71t-55.5 -35.5t-31.5 -1.5q-60 95 -164.5 147.5t-218.5 52.5q-206 0 -336.5 -142.5t-130.5 -369.5t122 -369.5t329 -142.5q160 0 268.5 82
t128.5 215v84h-311q-55 0 -81 19t-26 61v10q0 44 26 63t81 19h385q56 0 84 -31.5t28 -88.5v-566q0 -3 -9 -7.5t-25.5 -8.5t-34.5 -4z" />
    <glyph glyph-name="gcircumflex" unicode="&#x11d;" horiz-adv-x="1001" 
d="M481 -432q-248 0 -366.5 67t-118.5 205q0 104 87 175.5t226 95.5q-39 31 -39 92q0 57 56 106q-119 37 -188.5 125t-69.5 203q0 157 120 265t301 108q130 0 242 -64l47 82q25 41 52.5 59.5t64.5 18.5q34 0 61 -21t37 -41.5t6 -23.5l-159 -166q78 -94 78 -211
q0 -156 -119.5 -257t-306.5 -101h-37q-11 -17 -11 -35q0 -13 5 -23.5t18.5 -19t27 -14.5t40 -13.5t48 -12.5t60.5 -14t68 -16q286 -76 286 -268q0 -140 -136.5 -220.5t-379.5 -80.5zM492 418q102 0 165.5 62t63.5 161t-65 161t-169 62q-100 0 -163.5 -62t-63.5 -161t65 -161
t167 -62zM801 -137q0 21 -8.5 38t-27 30.5t-37 23.5t-51 19.5t-55 15.5t-63 15.5t-61.5 14.5q-133 -8 -220.5 -53.5t-87.5 -120.5q0 -66 75 -101.5t220 -35.5q150 0 233 40.5t83 113.5zM262 1143q-29 0 -47 18t-18 47q0 50 63.5 124t131 125t91.5 56q24 -5 91 -56
t130.5 -125t63.5 -124q0 -29 -17 -47t-46 -18q-42 0 -94.5 51.5t-129.5 167.5q-81 -120 -129.5 -169.5t-89.5 -49.5z" />
    <glyph glyph-name="Gbreve" unicode="&#x11e;" horiz-adv-x="1458" 
d="M1272 -8q-53 0 -84 37t-31 133v24q-63 -100 -176 -155.5t-264 -55.5q-188 0 -331.5 88.5t-219.5 243.5t-76 352q0 201 86 359t241 246t353 88q114 0 213 -28.5t160 -71t95 -89t34 -86.5q0 -43 -28 -71t-55.5 -35.5t-31.5 -1.5q-60 95 -164.5 147.5t-218.5 52.5
q-206 0 -336.5 -142.5t-130.5 -369.5t122 -369.5t329 -142.5q160 0 268.5 82t128.5 215v84h-311q-55 0 -81 19t-26 61v10q0 44 26 63t81 19h385q56 0 84 -31.5t28 -88.5v-566q0 -3 -9 -7.5t-25.5 -8.5t-34.5 -4zM743 1456q-65 0 -139 37.5t-123 91t-49 98.5q0 34 21 56
t57 22q56 0 238 -186q164 186 229 186q36 0 57 -22t21 -56q0 -47 -50.5 -101t-124.5 -90t-137 -36z" />
    <glyph glyph-name="gbreve" unicode="&#x11f;" horiz-adv-x="1001" 
d="M481 -432q-248 0 -366.5 67t-118.5 205q0 104 87 175.5t226 95.5q-39 31 -39 92q0 57 56 106q-119 37 -188.5 125t-69.5 203q0 157 120 265t301 108q130 0 242 -64l47 82q25 41 52.5 59.5t64.5 18.5q34 0 61 -21t37 -41.5t6 -23.5l-159 -166q78 -94 78 -211
q0 -156 -119.5 -257t-306.5 -101h-37q-11 -17 -11 -35q0 -13 5 -23.5t18.5 -19t27 -14.5t40 -13.5t48 -12.5t60.5 -14t68 -16q286 -76 286 -268q0 -140 -136.5 -220.5t-379.5 -80.5zM492 418q102 0 165.5 62t63.5 161t-65 161t-169 62q-100 0 -163.5 -62t-63.5 -161t65 -161
t167 -62zM801 -137q0 21 -8.5 38t-27 30.5t-37 23.5t-51 19.5t-55 15.5t-63 15.5t-61.5 14.5q-133 -8 -220.5 -53.5t-87.5 -120.5q0 -66 75 -101.5t220 -35.5q150 0 233 40.5t83 113.5zM481 1126q-65 0 -139 37.5t-123 91.5t-49 99q0 34 21 56t57 22q24 0 67.5 -32t80 -66
t89.5 -89q165 187 230 187q36 0 57 -22t21 -56q0 -47 -50.5 -101.5t-124.5 -90.5t-137 -36z" />
    <glyph glyph-name="Gdotaccent" unicode="&#x120;" horiz-adv-x="1458" 
d="M1272 -8q-53 0 -84 37t-31 133v24q-63 -100 -176 -155.5t-264 -55.5q-188 0 -331.5 88.5t-219.5 243.5t-76 352q0 201 86 359t241 246t353 88q114 0 213 -28.5t160 -71t95 -89t34 -86.5q0 -43 -28 -71t-55.5 -35.5t-31.5 -1.5q-60 95 -164.5 147.5t-218.5 52.5
q-206 0 -336.5 -142.5t-130.5 -369.5t122 -369.5t329 -142.5q160 0 268.5 82t128.5 215v84h-311q-55 0 -81 19t-26 61v10q0 44 26 63t81 19h385q56 0 84 -31.5t28 -88.5v-566q0 -3 -9 -7.5t-25.5 -8.5t-34.5 -4zM752 1458q-62 0 -99 35.5t-37 91.5t38 92.5t100 36.5
q60 0 96.5 -36t36.5 -93q0 -56 -36.5 -91.5t-98.5 -35.5z" />
    <glyph glyph-name="gdotaccent" unicode="&#x121;" horiz-adv-x="1001" 
d="M481 -432q-248 0 -366.5 67t-118.5 205q0 104 87 175.5t226 95.5q-39 31 -39 92q0 57 56 106q-119 37 -188.5 125t-69.5 203q0 157 120 265t301 108q130 0 242 -64l47 82q25 41 52.5 59.5t64.5 18.5q34 0 61 -21t37 -41.5t6 -23.5l-159 -166q78 -94 78 -211
q0 -156 -119.5 -257t-306.5 -101h-37q-11 -17 -11 -35q0 -13 5 -23.5t18.5 -19t27 -14.5t40 -13.5t48 -12.5t60.5 -14t68 -16q286 -76 286 -268q0 -140 -136.5 -220.5t-379.5 -80.5zM492 418q102 0 165.5 62t63.5 161t-65 161t-169 62q-100 0 -163.5 -62t-63.5 -161t65 -161
t167 -62zM801 -137q0 21 -8.5 38t-27 30.5t-37 23.5t-51 19.5t-55 15.5t-63 15.5t-61.5 14.5q-133 -8 -220.5 -53.5t-87.5 -120.5q0 -66 75 -101.5t220 -35.5q150 0 233 40.5t83 113.5zM485 1120q-62 0 -98.5 35.5t-36.5 91.5t37.5 92.5t99.5 36.5q61 0 97.5 -36.5
t36.5 -92.5t-37 -91.5t-99 -35.5z" />
    <glyph glyph-name="Gcommaaccent" unicode="&#x122;" horiz-adv-x="1458" 
d="M1272 -8q-53 0 -84 37t-31 133v24q-63 -100 -176 -155.5t-264 -55.5q-188 0 -331.5 88.5t-219.5 243.5t-76 352q0 201 86 359t241 246t353 88q114 0 213 -28.5t160 -71t95 -89t34 -86.5q0 -43 -28 -71t-55.5 -35.5t-31.5 -1.5q-60 95 -164.5 147.5t-218.5 52.5
q-206 0 -336.5 -142.5t-130.5 -369.5t122 -369.5t329 -142.5q160 0 268.5 82t128.5 215v84h-311q-55 0 -81 19t-26 61v10q0 44 26 63t81 19h385q56 0 84 -31.5t28 -88.5v-566q0 -3 -9 -7.5t-25.5 -8.5t-34.5 -4zM659 -496q-18 -14 -44.5 -15t-46.5 18t-11 47l109 260
q11 28 17 40.5t18 27.5t29.5 20.5t43.5 5.5h19q41 0 67.5 -23t26.5 -63v-10q0 -24 -15.5 -48.5t-50.5 -62.5z" />
    <glyph glyph-name="gcommaaccent" unicode="&#x123;" horiz-adv-x="1001" 
d="M481 -432q-248 0 -366.5 67t-118.5 205q0 104 87 175.5t226 95.5q-39 31 -39 92q0 57 56 106q-119 37 -188.5 125t-69.5 203q0 157 120 265t301 108q130 0 242 -64l47 82q25 41 52.5 59.5t64.5 18.5q34 0 61 -21t37 -41.5t6 -23.5l-159 -166q78 -94 78 -211
q0 -156 -119.5 -257t-306.5 -101h-37q-11 -17 -11 -35q0 -13 5 -23.5t18.5 -19t27 -14.5t40 -13.5t48 -12.5t60.5 -14t68 -16q286 -76 286 -268q0 -140 -136.5 -220.5t-379.5 -80.5zM492 418q102 0 165.5 62t63.5 161t-65 161t-169 62q-100 0 -163.5 -62t-63.5 -161t65 -161
t167 -62zM801 -137q0 21 -8.5 38t-27 30.5t-37 23.5t-51 19.5t-55 15.5t-63 15.5t-61.5 14.5q-133 -8 -220.5 -53.5t-87.5 -120.5q0 -66 75 -101.5t220 -35.5q150 0 233 40.5t83 113.5zM582 1473q18 14 44.5 15t46.5 -18t11 -47l-109 -260q-11 -28 -17 -40.5t-18 -27.5
t-29.5 -20.5t-43.5 -5.5h-18q-41 0 -68 23t-27 63v10q0 24 15.5 48.5t50.5 62.5z" />
    <glyph glyph-name="Hcircumflex" unicode="&#x124;" horiz-adv-x="1402" 
d="M229 -8q-88 0 -88 96v1149q0 96 88 96h31q92 0 92 -96v-481h699v481q0 96 88 96h30q93 0 93 -96v-1149q0 -96 -93 -96h-30q-88 0 -88 96v483h-699v-483q0 -96 -92 -96h-31zM479 1458q-29 0 -47 18.5t-18 47.5q0 50 63.5 124t131 125t91.5 56q24 -5 91 -56t130.5 -125
t63.5 -124q0 -30 -17 -48t-46 -18q-42 0 -94.5 51.5t-129.5 167.5q-81 -120 -129.5 -169.5t-89.5 -49.5z" />
    <glyph glyph-name="hcircumflex" unicode="&#x125;" horiz-adv-x="1148" 
d="M328 1233v-404q115 181 325 181q188 0 284.5 -116.5t96.5 -309.5v-496q0 -96 -90 -96h-22q-91 0 -91 96v473q0 127 -60.5 198.5t-166.5 71.5q-126 0 -201 -77.5t-75 -210.5v-455q0 -96 -90 -96h-23q-90 0 -90 96v1296q0 3 9.5 8.5t27.5 10t37 4.5q55 0 92 -39t37 -135z
M-8 1470q-29 0 -47.5 18.5t-18.5 47.5q0 50 64 124t131.5 125t91.5 56q24 -5 91 -56t130.5 -125t63.5 -124q0 -29 -17.5 -47.5t-46.5 -18.5q-42 0 -93.5 51.5t-129.5 168.5q-81 -121 -129.5 -170.5t-89.5 -49.5z" />
    <glyph glyph-name="Hbar" unicode="&#x126;" horiz-adv-x="1402" 
d="M84 952q-80 0 -80 56v14q0 53 80 53h57v162q0 96 88 96h31q92 0 92 -96v-162h699v162q0 96 88 96h30q93 0 93 -96v-162h57q80 0 80 -53v-14q0 -56 -80 -56h-57v-864q0 -96 -93 -96h-30q-88 0 -88 96v483h-699v-483q0 -96 -92 -96h-31q-88 0 -88 96v864h-57zM352 756h699
v196h-699v-196z" />
    <glyph glyph-name="hbar" unicode="&#x127;" horiz-adv-x="1148" 
d="M328 1233h170q80 0 80 -57v-15q0 -59 -80 -59h-170v-273q115 181 325 181q188 0 284.5 -116.5t96.5 -309.5v-496q0 -96 -90 -96h-22q-91 0 -91 96v473q0 127 -60.5 198.5t-166.5 71.5q-126 0 -201 -77.5t-75 -210.5v-455q0 -96 -90 -96h-23q-90 0 -90 96v1014h-76
q-80 0 -80 59v15q0 57 80 57h76v151q0 3 9.5 8.5t27.5 10t37 4.5q55 0 92 -39t37 -135z" />
    <glyph glyph-name="Imacron" unicode="&#x12a;" horiz-adv-x="530" 
d="M250 -8q-90 0 -90 96v1149q0 96 90 96h29q92 0 92 -96v-1149q0 -96 -92 -96h-29zM47 1489q-102 0 -102 80v12q0 36 27 56t75 20h438q50 0 76.5 -19.5t26.5 -56.5v-12q0 -80 -103 -80h-438z" />
    <glyph glyph-name="imacron" unicode="&#x12b;" horiz-adv-x="471" 
d="M225 -8q-92 0 -92 96v809q0 98 92 98h21q43 0 66.5 -22t23.5 -76v-809q0 -96 -90 -96h-21zM16 1151q-102 0 -102 80v12q0 36 27 56t75 20h439q102 0 102 -76v-12q0 -80 -102 -80h-439z" />
    <glyph glyph-name="Ibreve" unicode="&#x12c;" horiz-adv-x="530" 
d="M250 -8q-90 0 -90 96v1149q0 96 90 96h29q92 0 92 -96v-1149q0 -96 -92 -96h-29zM266 1456q-65 0 -139 37.5t-123 91t-49 98.5q0 34 21 56t57 22q34 0 94.5 -51t142.5 -135q68 76 131.5 131t98.5 55q36 0 57 -22t21 -56q0 -47 -50.5 -101t-124.5 -90t-137 -36z" />
    <glyph glyph-name="ibreve" unicode="&#x12d;" horiz-adv-x="471" 
d="M225 -8q-92 0 -92 96v809q0 98 92 98h21q43 0 66.5 -22t23.5 -76v-809q0 -96 -90 -96h-21zM236 1118q-65 0 -139 37.5t-123.5 91.5t-49.5 99q0 34 21 55.5t57 21.5q56 0 238 -186q164 186 229 186q36 0 57 -21.5t21 -55.5q0 -47 -50.5 -101.5t-124 -90.5t-136.5 -36z" />
    <glyph glyph-name="Iogonek" unicode="&#x12e;" horiz-adv-x="530" 
d="M342 10q-160 -125 -160 -209q0 -32 19 -51.5t49 -19.5q52 0 76 41q27 -2 47 -23.5t20 -54.5q0 -47 -43 -76t-117 -29q-94 0 -150 46.5t-56 127.5q0 66 45 127.5t131 110.5q-43 21 -43 88v1149q0 96 90 96h29q92 0 92 -96v-1149q0 -52 -29 -78z" />
    <glyph glyph-name="iogonek" unicode="&#x12f;" horiz-adv-x="471" 
d="M309 10q-159 -124 -159 -209q0 -32 18.5 -51.5t48.5 -19.5q52 0 76 41q27 -2 47 -23.5t20 -54.5q0 -47 -42.5 -76t-116.5 -29q-95 0 -151 46.5t-56 127.5q0 66 45.5 129t132.5 111q-39 22 -39 86v809q0 98 92 98h21q43 0 66.5 -22t23.5 -76v-809q0 -54 -27 -78zM236 1196
q-57 0 -89 29.5t-32 83.5q0 55 32 84.5t91 29.5q57 0 87.5 -29.5t30.5 -84.5q0 -113 -120 -113z" />
    <glyph glyph-name="Idotaccent" unicode="&#x130;" horiz-adv-x="530" 
d="M250 -8q-90 0 -90 96v1149q0 96 90 96h29q92 0 92 -96v-1149q0 -96 -92 -96h-29zM266 1458q-62 0 -98.5 35.5t-36.5 91.5t37.5 92.5t99.5 36.5q60 0 96.5 -36t36.5 -93q0 -56 -36.5 -91.5t-98.5 -35.5z" />
    <glyph glyph-name="dotlessi" unicode="&#x131;" horiz-adv-x="471" 
d="M225 -8q-92 0 -92 96v809q0 98 92 98h21q43 0 66.5 -22t23.5 -76v-809q0 -96 -90 -96h-21z" />
    <glyph glyph-name="Jcircumflex" unicode="&#x134;" horiz-adv-x="950" 
d="M483 1458q-29 0 -47 18.5t-18 47.5q0 50 64 124t131.5 125t91.5 56q23 -5 90.5 -56t130.5 -125t63 -124q0 -30 -17 -48t-46 -18q-42 0 -94.5 51.5t-129.5 167.5q-81 -120 -129.5 -169.5t-89.5 -49.5zM399 -27q-152 0 -252 66.5t-100 146.5q0 36 23.5 66t46.5 42t26 7
q37 -67 99 -106t141 -39q122 0 174.5 67.5t52.5 225.5v788q0 96 90 96h31q90 0 90 -96v-791q0 -241 -104 -357t-318 -116z" />
    <glyph glyph-name="jcircumflex" unicode="&#x135;" horiz-adv-x="471" 
d="M14 1120q-29 0 -47 18.5t-18 47.5q0 50 64 124t131.5 125t91.5 56q23 -5 90.5 -56t130.5 -125t63 -124q0 -30 -17 -48t-46 -18q-42 0 -94.5 51.5t-129.5 167.5q-81 -120 -129.5 -169.5t-89.5 -49.5zM41 -410q-96 0 -152.5 37t-56.5 94q0 25 11 49t22.5 36t13.5 10
q58 -58 131 -58q66 0 94.5 37t28.5 121v981q0 98 92 98h21q43 0 66.5 -22t23.5 -76v-993q0 -152 -75.5 -233t-219.5 -81z" />
    <glyph glyph-name="Kcommaaccent" unicode="&#x136;" horiz-adv-x="1191" 
d="M229 -8q-88 0 -88 96v1149q0 96 88 96h31q92 0 92 -96v-532l531 561q55 67 116 67q25 0 46.5 -9t34 -22t21 -26.5t11.5 -23.5t2 -13l-528 -561l542 -594q5 -6 -6 -28t-41.5 -43t-72.5 -21q-67 0 -115 59l-541 590v-553q0 -96 -92 -96h-31zM475 -496q-18 -14 -44.5 -15
t-46.5 18t-11 47l108 260q11 28 17 40.5t18.5 27.5t30 20.5t43.5 5.5h18q41 0 67.5 -23t26.5 -63v-10q0 -24 -15.5 -48.5t-49.5 -62.5z" />
    <glyph glyph-name="kcommaaccent" unicode="&#x137;" horiz-adv-x="970" 
d="M215 -8q-90 0 -90 96v1296q0 3 9.5 8.5t27.5 10t37 4.5q55 0 92 -39t37 -135v-690l342 383q55 69 121 69q33 0 60 -18t38 -37t6 -25l-358 -395l413 -448q2 -3 -2 -12t-13.5 -21t-22.5 -23t-32.5 -18.5t-39.5 -7.5q-65 0 -121 69l-391 422v-393q0 -96 -90 -96h-23z
M399 -496q-18 -14 -44.5 -15t-46.5 18t-11 47l109 260q11 28 17 40.5t18 27.5t29.5 20.5t43.5 5.5h18q41 0 68 -23t27 -63v-10q0 -24 -15.5 -48.5t-50.5 -62.5z" />
    <glyph glyph-name="Lacute" unicode="&#x139;" horiz-adv-x="1081" 
d="M186 1475q-6 8 27.5 58t96 115.5t122.5 106.5q53 35 98 35q39 0 66 -22.5t27 -57.5q0 -72 -86 -125q-42 -27 -92 -50t-91.5 -35.5t-81 -21t-59.5 -8t-27 4.5zM254 0q-51 0 -82 31.5t-31 85.5v1120q0 96 88 96h31q92 0 92 -96v-1047h576q98 0 98 -90v-8q0 -44 -25.5 -68
t-72.5 -24h-674z" />
    <glyph glyph-name="lacute" unicode="&#x13a;" horiz-adv-x="471" 
d="M174 1497q-6 8 27.5 58.5t96 116t122.5 106.5q52 34 98 34q39 0 65.5 -22t26.5 -57q0 -72 -86 -125q-42 -27 -92 -50t-91.5 -35.5t-80.5 -21.5t-59 -8.5t-27 4.5zM225 -8q-92 0 -92 96v1296q0 3 10 8.5t28 10t36 4.5q129 0 129 -174v-1145q0 -96 -90 -96h-21z" />
    <glyph glyph-name="Lcommaaccent" unicode="&#x13b;" horiz-adv-x="1081" 
d="M254 0q-51 0 -82 31.5t-31 85.5v1120q0 96 88 96h31q92 0 92 -96v-1047h576q98 0 98 -90v-8q0 -44 -25.5 -68t-72.5 -24h-674zM485 -496q-18 -14 -44.5 -15t-46.5 18t-11 47l109 260q11 28 17 40.5t18 27.5t29.5 20.5t43.5 5.5h18q41 0 68 -23t27 -63v-10
q0 -24 -15.5 -48.5t-50.5 -62.5z" />
    <glyph glyph-name="lcommaaccent" unicode="&#x13c;" horiz-adv-x="471" 
d="M225 -8q-92 0 -92 96v1296q0 3 10 8.5t28 10t36 4.5q129 0 129 -174v-1145q0 -96 -90 -96h-21zM127 -496q-18 -14 -44.5 -15t-46.5 18t-11 47l108 260q11 28 17 40.5t18.5 27.5t30 20.5t43.5 5.5h18q41 0 67.5 -23t26.5 -63v-10q0 -24 -15.5 -48.5t-49.5 -62.5z" />
    <glyph glyph-name="Lcaron" unicode="&#x13d;" horiz-adv-x="1198" 
d="M991 846q-17 -16 -43.5 -18t-46.5 16.5t-12 46.5l108 348q17 55 37 75.5t70 20.5h18q39 0 62.5 -25t23.5 -71v-8q0 -63 -47 -125zM254 0q-51 0 -82 31.5t-31 85.5v1120q0 96 88 96h31q92 0 92 -96v-1047h576q98 0 98 -90v-8q0 -44 -25.5 -68t-72.5 -24h-674z" />
    <glyph glyph-name="lcaron" unicode="&#x13e;" horiz-adv-x="847" 
d="M596 922q-17 -16 -43.5 -18t-46.5 16.5t-12 46.5l108 348q17 55 37 75.5t70 20.5h18q39 0 62.5 -25t23.5 -71v-8q0 -63 -47 -125zM225 -8q-92 0 -92 96v1296q0 3 10 8.5t28 10t36 4.5q129 0 129 -174v-1145q0 -96 -90 -96h-21z" />
    <glyph glyph-name="Ldot" unicode="&#x13f;" horiz-adv-x="1280" 
d="M254 0q-51 0 -82 31.5t-31 85.5v1120q0 96 88 96h31q92 0 92 -96v-1047h576q98 0 98 -90v-8q0 -44 -25.5 -68t-72.5 -24h-674zM1133 545q-111 0 -111 108v25q0 54 28.5 83.5t82.5 29.5h28q55 0 84 -29.5t29 -83.5v-25q0 -108 -113 -108h-28z" />
    <glyph glyph-name="ldot" unicode="&#x140;" horiz-adv-x="731" 
d="M225 -8q-92 0 -92 96v1296q0 3 10 8.5t28 10t36 4.5q129 0 129 -174v-1145q0 -96 -90 -96h-21zM578 512q-111 0 -111 109v24q0 54 28.5 83.5t82.5 29.5h28q55 0 84 -29.5t29 -83.5v-24q0 -109 -113 -109h-28z" />
    <glyph glyph-name="Lslash" unicode="&#x141;" horiz-adv-x="1122" 
d="M70 416q-5 -2 -15 10t-18 33.5t-8 42.5q0 38 26 65t95 49l65 21v600q0 96 88 96h31q92 0 92 -96v-537l373 115q10 2 25.5 -26.5t15.5 -59.5q0 -38 -27 -66t-94 -49l-293 -90v-336h559q98 0 98 -90v-8q0 -90 -98 -90h-657q-51 0 -82 31.5t-31 85.5v342z" />
    <glyph glyph-name="lslash" unicode="&#x142;" horiz-adv-x="688" 
d="M68 426q-5 -1 -15 12t-18 35t-8 41q0 36 25.5 62.5t92.5 48.5l93 26v733q0 3 9.5 8.5t27.5 10t36 4.5q129 0 129 -174v-518l183 55q5 2 15 -11.5t18 -35.5t8 -41q0 -36 -27 -63.5t-94 -47.5l-103 -32v-453q0 -96 -90 -96h-20q-44 0 -68 21.5t-24 74.5v391z" />
    <glyph glyph-name="Nacute" unicode="&#x143;" horiz-adv-x="1396" 
d="M614 1475q-6 8 27.5 58t96 115.5t122.5 106.5q53 35 98 35q39 0 66 -22.5t27 -57.5q0 -72 -86 -125q-42 -27 -92 -50t-91.5 -35.5t-81 -21t-59.5 -8t-27 4.5zM227 -8q-86 0 -86 96v1126q0 55 26 87t75 32h34q44 0 69 -17.5t58 -62.5l656 -929v913q0 96 88 96h24
q86 0 86 -96v-1126q0 -56 -26 -87.5t-72 -31.5h-16q-44 0 -65 13t-48 50l-690 977v-944q0 -96 -90 -96h-23z" />
    <glyph glyph-name="nacute" unicode="&#x144;" horiz-adv-x="1148" 
d="M199 995q120 0 127 -159q118 174 327 174q188 0 284.5 -115.5t96.5 -306.5v-500q0 -96 -90 -96h-22q-91 0 -91 96v475q0 125 -60 196.5t-167 71.5q-94 0 -166 -46.5t-110 -125.5v-571q0 -96 -90 -96h-23q-90 0 -90 96v885q0 3 9.5 8t27.5 9.5t37 4.5zM469 1137
q-6 8 27.5 58t96 115.5t122.5 106.5q53 35 98 35q39 0 65.5 -22.5t26.5 -57.5q0 -72 -86 -125q-42 -27 -92 -50t-91.5 -35.5t-80.5 -21t-59 -8t-27 4.5z" />
    <glyph glyph-name="Ncommaaccent" unicode="&#x145;" horiz-adv-x="1396" 
d="M227 -8q-86 0 -86 96v1126q0 55 26 87t75 32h34q44 0 69 -17.5t58 -62.5l656 -929v913q0 96 88 96h24q86 0 86 -96v-1126q0 -56 -26 -87.5t-72 -31.5h-16q-44 0 -65 13t-48 50l-690 977v-944q0 -96 -90 -96h-23zM598 -496q-18 -14 -44.5 -15t-46.5 18t-11 47l108 260
q11 28 17 40.5t18.5 27.5t30 20.5t43.5 5.5h18q41 0 67.5 -23t26.5 -63v-10q0 -24 -15.5 -48.5t-49.5 -62.5z" />
    <glyph glyph-name="ncommaaccent" unicode="&#x146;" horiz-adv-x="1148" 
d="M199 995q120 0 127 -159q118 174 327 174q188 0 284.5 -115.5t96.5 -306.5v-500q0 -96 -90 -96h-22q-91 0 -91 96v475q0 125 -60 196.5t-167 71.5q-94 0 -166 -46.5t-110 -125.5v-571q0 -96 -90 -96h-23q-90 0 -90 96v885q0 3 9.5 8t27.5 9.5t37 4.5zM465 -496
q-18 -14 -45 -15t-47 18t-11 47l109 260q11 28 17 40.5t18.5 27.5t30 20.5t43.5 5.5h18q41 0 67.5 -23t26.5 -63v-10q0 -24 -15.5 -48.5t-49.5 -62.5z" />
    <glyph glyph-name="Ncaron" unicode="&#x147;" horiz-adv-x="1396" 
d="M227 -8q-86 0 -86 96v1126q0 55 26 87t75 32h34q44 0 69 -17.5t58 -62.5l656 -929v913q0 96 88 96h24q86 0 86 -96v-1126q0 -56 -26 -87.5t-72 -31.5h-16q-44 0 -65 13t-48 50l-690 977v-944q0 -96 -90 -96h-23zM924 1800q29 0 46 -18.5t17 -48.5q0 -50 -63.5 -124
t-131 -125.5t-90.5 -56.5q-23 5 -90.5 56.5t-130.5 125.5t-63 124q0 30 17 48.5t46 18.5q42 0 92.5 -51.5t128.5 -169.5q78 118 129 169.5t93 51.5z" />
    <glyph glyph-name="ncaron" unicode="&#x148;" horiz-adv-x="1148" 
d="M797 1462q29 0 46 -18.5t17 -48.5q0 -50 -63.5 -123.5t-131 -125t-90.5 -56.5q-23 5 -90.5 56.5t-130.5 125t-63 123.5q0 30 17 48.5t46 18.5q42 0 92.5 -51.5t128.5 -169.5q78 118 129 169.5t93 51.5zM199 995q120 0 127 -159q118 174 327 174q188 0 284.5 -115.5
t96.5 -306.5v-500q0 -96 -90 -96h-22q-91 0 -91 96v475q0 125 -60 196.5t-167 71.5q-94 0 -166 -46.5t-110 -125.5v-571q0 -96 -90 -96h-23q-90 0 -90 96v885q0 3 9.5 8t27.5 9.5t37 4.5z" />
    <glyph glyph-name="Omacron" unicode="&#x14c;" horiz-adv-x="1517" 
d="M567 1489q-102 0 -102 80v12q0 36 27 56t75 20h439q102 0 102 -76v-12q0 -80 -102 -80h-439zM758 -27q-195 0 -348 87t-237.5 243.5t-84.5 355.5q0 200 86 358.5t239.5 246.5t346.5 88q296 0 483 -192t187 -496q0 -200 -85.5 -358t-239 -245.5t-347.5 -87.5zM760 160
q201 0 329 139t128 360t-129 363.5t-330 142.5q-202 0 -329.5 -139.5t-127.5 -361.5q0 -221 129 -362.5t330 -141.5z" />
    <glyph glyph-name="omacron" unicode="&#x14d;" horiz-adv-x="1163" 
d="M381 1151q-102 0 -102 80v12q0 36 27 56t75 20h438q50 0 76.5 -19.5t26.5 -56.5v-12q0 -80 -103 -80h-438zM582 -27q-228 0 -372 146t-144 375q0 226 145 371t373 145q225 0 369.5 -146.5t144.5 -374.5q0 -226 -144.5 -371t-371.5 -145zM582 139q141 0 234 99.5t93 250.5
q0 154 -92.5 254.5t-234.5 100.5t-236 -99t-94 -251t94.5 -253.5t235.5 -101.5z" />
    <glyph glyph-name="Obreve" unicode="&#x14e;" horiz-adv-x="1517" 
d="M758 -27q-195 0 -348 87t-237.5 243.5t-84.5 355.5q0 200 86 358.5t239.5 246.5t346.5 88q296 0 483 -192t187 -496q0 -200 -85.5 -358t-239 -245.5t-347.5 -87.5zM760 160q201 0 329 139t128 360t-129 363.5t-330 142.5q-202 0 -329.5 -139.5t-127.5 -361.5
q0 -221 129 -362.5t330 -141.5zM770 1456q-65 0 -139 37.5t-123 91t-49 98.5q0 34 21 56t57 22q34 0 94.5 -51t142.5 -135q68 76 131.5 131t98.5 55q36 0 56.5 -21.5t20.5 -56.5q0 -47 -50.5 -101t-124 -90t-136.5 -36z" />
    <glyph glyph-name="obreve" unicode="&#x14f;" horiz-adv-x="1163" 
d="M582 -27q-228 0 -372 146t-144 375q0 226 145 371t373 145q225 0 369.5 -146.5t144.5 -374.5q0 -226 -144.5 -371t-371.5 -145zM582 139q141 0 234 99.5t93 250.5q0 154 -92.5 254.5t-234.5 100.5t-236 -99t-94 -251t94.5 -253.5t235.5 -101.5zM598 1118q-65 0 -139 37.5
t-123 91.5t-49 99q0 34 21 55.5t57 21.5q34 0 94.5 -51t142.5 -135q164 186 229 186q36 0 57 -21.5t21 -55.5q0 -47 -50.5 -101.5t-124 -90.5t-136.5 -36z" />
    <glyph glyph-name="Ohungarumlaut" unicode="&#x150;" horiz-adv-x="1517" 
d="M856 1475q-6 8 27.5 58t96 115.5t122.5 106.5q53 35 98 35q39 0 65.5 -22.5t26.5 -57.5q0 -72 -86 -125q-42 -27 -92 -50t-91.5 -35.5t-80.5 -21t-59 -8t-27 4.5zM453 1475q-6 9 27 58.5t95 115.5t123 106q53 35 99 35q39 0 65.5 -22.5t26.5 -57.5q0 -72 -86 -125
q-42 -27 -92 -50t-91.5 -35.5t-80.5 -21t-59 -8t-27 4.5zM758 -27q-195 0 -348 87t-237.5 243.5t-84.5 355.5q0 200 86 358.5t239.5 246.5t346.5 88q296 0 483 -192t187 -496q0 -200 -85.5 -358t-239 -245.5t-347.5 -87.5zM760 160q201 0 329 139t128 360t-129 363.5
t-330 142.5q-202 0 -329.5 -139.5t-127.5 -361.5q0 -221 129 -362.5t330 -141.5z" />
    <glyph glyph-name="ohungarumlaut" unicode="&#x151;" horiz-adv-x="1163" 
d="M616 1137q-6 8 27.5 58t96 115.5t122.5 106.5q53 35 99 35q39 0 65.5 -22.5t26.5 -57.5q0 -72 -86 -125q-42 -27 -92 -50t-91.5 -35.5t-81 -21t-59.5 -8t-27 4.5zM213 1137q-6 9 27 58.5t95.5 115.5t123.5 106q53 35 98 35q39 0 65.5 -22.5t26.5 -57.5q0 -72 -86 -125
q-42 -27 -92 -50t-91.5 -35.5t-80.5 -21t-59 -8t-27 4.5zM582 -27q-228 0 -372 146t-144 375q0 226 145 371t373 145q225 0 369.5 -146.5t144.5 -374.5q0 -226 -144.5 -371t-371.5 -145zM582 139q141 0 234 99.5t93 250.5q0 154 -92.5 254.5t-234.5 100.5t-236 -99t-94 -251
t94.5 -253.5t235.5 -101.5z" />
    <glyph glyph-name="OE" unicode="&#x152;" horiz-adv-x="2111" 
d="M758 -27q-195 0 -348 87t-237.5 243.5t-84.5 355.5q0 200 86 358.5t239.5 246.5t346.5 88q95 0 198 -27h973q49 0 74 -23t25 -65v-12q0 -88 -99 -88h-690q160 -138 178 -371h361q98 0 98 -84v-6q0 -88 -98 -88h-359q-6 -125 -53 -228t-129 -174h705q96 0 96 -84v-10
q0 -92 -96 -92h-986q-103 -27 -200 -27zM760 160q201 0 329 139t128 360t-129 363.5t-330 142.5q-202 0 -329.5 -139.5t-127.5 -361.5q0 -221 129 -362.5t330 -141.5z" />
    <glyph glyph-name="oe" unicode="&#x153;" horiz-adv-x="1949" 
d="M582 -27q-228 0 -372 146t-144 375q0 226 145 371t373 145q135 0 243 -60.5t172 -167.5q64 107 171.5 167.5t242.5 60.5q213 0 343 -137t130 -359v-16q0 -33 -13 -46.5t-48 -13.5h-727q10 -136 103 -220.5t233 -84.5q214 0 309 164q1 1 12.5 -0.5t27 -8.5t30.5 -17.5
t25.5 -30t10.5 -43.5q0 -75 -117.5 -149.5t-301.5 -74.5q-149 0 -261 57.5t-176 164.5q-65 -104 -171 -163t-240 -59zM582 139q141 0 234 99.5t93 250.5q0 154 -92.5 254.5t-234.5 100.5t-236 -99t-94 -251t94.5 -253.5t235.5 -101.5zM1411 856q-121 0 -206.5 -78.5
t-104.5 -202.5h590q-8 129 -82.5 205t-196.5 76z" />
    <glyph glyph-name="Racute" unicode="&#x154;" horiz-adv-x="1206" 
d="M459 1475q-6 8 27.5 58t96 115.5t122.5 106.5q53 35 98 35q39 0 65.5 -22.5t26.5 -57.5q0 -72 -86 -125q-42 -27 -92 -50t-91.5 -35.5t-80.5 -21t-59 -8t-27 4.5zM995 -8q-41 0 -72 18.5t-65 63.5l-362 444h-146v-430q0 -44 -23.5 -70t-68.5 -26h-29q-88 0 -88 108v1106
q0 54 31 86.5t82 32.5h377q243 0 369 -100.5t126 -296.5q0 -170 -102 -272t-293 -117l387 -461q3 -4 -0.5 -13.5t-13.5 -22t-24.5 -24t-37 -19t-47.5 -7.5zM348 1151v-467h279q143 0 214.5 62t71.5 172q0 233 -292 233h-273z" />
    <glyph glyph-name="racute" unicode="&#x155;" horiz-adv-x="761" 
d="M289 1137q-6 8 27.5 58t96 115.5t122.5 106.5q53 35 98 35q39 0 65.5 -22.5t26.5 -57.5q0 -72 -86 -125q-42 -27 -92 -50t-91.5 -35.5t-80.5 -21t-59 -8t-27 4.5zM199 995q53 0 89.5 -38.5t37.5 -133.5q66 187 249 187q76 0 119 -34.5t43 -96.5q0 -35 -14.5 -61.5
t-29 -36.5t-17.5 -7q-53 43 -125 43q-115 0 -169 -101.5t-54 -281.5v-346q0 -96 -90 -96h-23q-90 0 -90 96v885q0 3 9.5 8t27.5 9.5t37 4.5z" />
    <glyph glyph-name="Rcommaaccent" unicode="&#x156;" horiz-adv-x="1206" 
d="M995 -8q-41 0 -72 18.5t-65 63.5l-362 444h-146v-430q0 -44 -23.5 -70t-68.5 -26h-29q-88 0 -88 108v1106q0 54 31 86.5t82 32.5h377q243 0 369 -100.5t126 -296.5q0 -170 -102 -272t-293 -117l387 -461q3 -4 -0.5 -13.5t-13.5 -22t-24.5 -24t-37 -19t-47.5 -7.5z
M348 1151v-467h279q143 0 214.5 62t71.5 172q0 233 -292 233h-273zM496 -496q-18 -14 -45 -15t-47 18t-11 47l109 260q11 28 17 40.5t18 27.5t29.5 20.5t43.5 5.5h19q41 0 67.5 -23t26.5 -63v-10q0 -24 -15.5 -48.5t-50.5 -62.5z" />
    <glyph glyph-name="rcommaaccent" unicode="&#x157;" horiz-adv-x="761" 
d="M199 995q53 0 89.5 -38.5t37.5 -133.5q66 187 249 187q76 0 119 -34.5t43 -96.5q0 -35 -14.5 -61.5t-29 -36.5t-17.5 -7q-53 43 -125 43q-115 0 -169 -101.5t-54 -281.5v-346q0 -96 -90 -96h-23q-90 0 -90 96v885q0 3 9.5 8t27.5 9.5t37 4.5zM104 -496q-18 -14 -44.5 -15
t-46.5 18t-11 47l109 260q11 28 17 40.5t18 27.5t29.5 20.5t43.5 5.5h19q41 0 67.5 -23t26.5 -63v-10q0 -24 -15.5 -48.5t-50.5 -62.5z" />
    <glyph glyph-name="Rcaron" unicode="&#x158;" horiz-adv-x="1206" 
d="M995 -8q-41 0 -72 18.5t-65 63.5l-362 444h-146v-430q0 -44 -23.5 -70t-68.5 -26h-29q-88 0 -88 108v1106q0 54 31 86.5t82 32.5h377q243 0 369 -100.5t126 -296.5q0 -170 -102 -272t-293 -117l387 -461q3 -4 -0.5 -13.5t-13.5 -22t-24.5 -24t-37 -19t-47.5 -7.5z
M348 1151v-467h279q143 0 214.5 62t71.5 172q0 233 -292 233h-273zM799 1800q29 0 46 -18.5t17 -48.5q0 -50 -63 -124t-130.5 -125.5t-90.5 -56.5q-23 5 -90.5 56.5t-131 125.5t-63.5 124q0 30 17 48.5t46 18.5q42 0 93 -51.5t129 -169.5q78 118 128.5 169.5t92.5 51.5z" />
    <glyph glyph-name="rcaron" unicode="&#x159;" horiz-adv-x="761" 
d="M199 995q53 0 89.5 -38.5t37.5 -133.5q66 187 249 187q76 0 119 -34.5t43 -96.5q0 -35 -14.5 -61.5t-29 -36.5t-17.5 -7q-53 43 -125 43q-115 0 -169 -101.5t-54 -281.5v-346q0 -96 -90 -96h-23q-90 0 -90 96v885q0 3 9.5 8t27.5 9.5t37 4.5zM651 1462q29 0 46.5 -18.5
t17.5 -48.5q0 -50 -63.5 -123.5t-131 -125t-90.5 -56.5q-23 5 -90.5 56.5t-131 125t-63.5 123.5q0 30 17.5 48.5t46.5 18.5q42 0 92.5 -51.5t128.5 -169.5q78 118 128.5 169.5t92.5 51.5z" />
    <glyph glyph-name="Sacute" unicode="&#x15a;" horiz-adv-x="1134" 
d="M420 1475q-6 8 27.5 58t96 115.5t122.5 106.5q53 35 98 35q39 0 65.5 -22.5t26.5 -57.5q0 -72 -86 -125q-42 -27 -92 -50t-91.5 -35.5t-80.5 -21t-59 -8t-27 4.5zM563 -27q-114 0 -211.5 26t-158 66t-94 85.5t-33.5 87.5q0 32 23 61t46 42.5t27 8.5q61 -89 165 -146
t234 -57q138 0 213.5 54.5t75.5 152.5q0 25 -6.5 46.5t-14.5 38t-26.5 32t-32.5 26t-42 22t-45 18t-53 16t-53.5 14t-58.5 13.5q-72 17 -123.5 33t-111 46.5t-96.5 69t-62 100t-25 138.5q0 169 133 277t345 108q105 0 194.5 -23t144 -59t85 -76.5t30.5 -77.5q0 -34 -24 -64
t-47.5 -43.5t-26.5 -9.5q-55 79 -149 129t-205 50q-125 0 -200 -55.5t-75 -147.5q0 -40 16 -71t34 -49t65.5 -36t74.5 -25.5t98 -23.5q17 -4 25 -6q75 -17 133.5 -36t119 -51.5t100 -72.5t65 -100.5t25.5 -134.5q0 -183 -133.5 -289.5t-364.5 -106.5z" />
    <glyph glyph-name="sacute" unicode="&#x15b;" horiz-adv-x="950" 
d="M352 1137q-6 8 27.5 58t96 115.5t122.5 106.5q53 35 98 35q39 0 65.5 -22.5t26.5 -57.5q0 -72 -86 -125q-42 -27 -92 -50t-91.5 -35.5t-80.5 -21t-59 -8t-27 4.5zM469 -25q-191 0 -303.5 65t-112.5 144q0 28 19 51.5t38 33.5t23 7q115 -147 332 -147q103 0 160 35.5
t57 97.5q0 19 -3.5 34t-14 27.5t-19.5 21.5t-30 18.5t-34.5 14.5t-45 13t-49 12t-58.5 13q-42 9 -66 14.5t-65.5 18.5t-66.5 26t-56.5 35t-49 47.5t-30 62.5t-12.5 80q0 139 107 224.5t286 85.5q177 0 278 -61t101 -138q0 -28 -20 -52.5t-39.5 -35t-22.5 -6.5
q-47 64 -122.5 101.5t-166.5 37.5q-103 0 -158 -36t-55 -99q0 -27 11.5 -47t27.5 -33t52.5 -25.5t66.5 -20t88 -20.5q36 -8 53 -12t53.5 -13.5t56 -17t51 -21.5t49 -28t39.5 -35t33.5 -44.5t19.5 -53.5t8 -65q0 -142 -110 -226t-300 -84z" />
    <glyph glyph-name="Scircumflex" unicode="&#x15c;" horiz-adv-x="1134" 
d="M360 1458q-29 0 -47 18.5t-18 47.5q0 50 64 124t131.5 125t91.5 56q23 -5 90.5 -56t130.5 -125t63 -124q0 -30 -17 -48t-46 -18q-42 0 -94 51t-129 168q-81 -119 -129.5 -169t-90.5 -50zM563 -27q-114 0 -211.5 26t-158 66t-94 85.5t-33.5 87.5q0 32 23 61t46 42.5
t27 8.5q61 -89 165 -146t234 -57q138 0 213.5 54.5t75.5 152.5q0 25 -6.5 46.5t-14.5 38t-26.5 32t-32.5 26t-42 22t-45 18t-53 16t-53.5 14t-58.5 13.5q-72 17 -123.5 33t-111 46.5t-96.5 69t-62 100t-25 138.5q0 169 133 277t345 108q105 0 194.5 -23t144 -59t85 -76.5
t30.5 -77.5q0 -34 -24 -64t-47.5 -43.5t-26.5 -9.5q-55 79 -149 129t-205 50q-125 0 -200 -55.5t-75 -147.5q0 -40 16 -71t34 -49t65.5 -36t74.5 -25.5t98 -23.5q17 -4 25 -6q75 -17 133.5 -36t119 -51.5t100 -72.5t65 -100.5t25.5 -134.5q0 -183 -133.5 -289.5
t-364.5 -106.5z" />
    <glyph glyph-name="scircumflex" unicode="&#x15d;" horiz-adv-x="950" 
d="M258 1120q-29 0 -47 18.5t-18 47.5q0 50 63.5 124t131 125t91.5 56q24 -5 91 -56t130.5 -125t63.5 -124q0 -29 -17.5 -47.5t-46.5 -18.5q-42 0 -94 51t-129 168q-81 -120 -129.5 -169.5t-89.5 -49.5zM469 -25q-191 0 -303.5 65t-112.5 144q0 28 19 51.5t38 33.5t23 7
q115 -147 332 -147q103 0 160 35.5t57 97.5q0 19 -3.5 34t-14 27.5t-19.5 21.5t-30 18.5t-34.5 14.5t-45 13t-49 12t-58.5 13q-42 9 -66 14.5t-65.5 18.5t-66.5 26t-56.5 35t-49 47.5t-30 62.5t-12.5 80q0 139 107 224.5t286 85.5q177 0 278 -61t101 -138q0 -28 -20 -52.5
t-39.5 -35t-22.5 -6.5q-47 64 -122.5 101.5t-166.5 37.5q-103 0 -158 -36t-55 -99q0 -27 11.5 -47t27.5 -33t52.5 -25.5t66.5 -20t88 -20.5q36 -8 53 -12t53.5 -13.5t56 -17t51 -21.5t49 -28t39.5 -35t33.5 -44.5t19.5 -53.5t8 -65q0 -142 -110 -226t-300 -84z" />
    <glyph glyph-name="Scedilla" unicode="&#x15e;" horiz-adv-x="1134" 
d="M563 -27q-114 0 -211.5 26t-158 66t-94 85.5t-33.5 87.5q0 32 23 61t46 42.5t27 8.5q61 -89 165 -146t234 -57q138 0 213.5 54.5t75.5 152.5q0 25 -6.5 46.5t-14.5 38t-26.5 32t-32.5 26t-42 22t-45 18t-53 16t-53.5 14t-58.5 13.5q-72 17 -123.5 33t-111 46.5t-96.5 69
t-62 100t-25 138.5q0 169 133 277t345 108q105 0 194.5 -23t144 -59t85 -76.5t30.5 -77.5q0 -34 -24 -64t-47.5 -43.5t-26.5 -9.5q-55 79 -149 129t-205 50q-125 0 -200 -55.5t-75 -147.5q0 -40 16 -71t34 -49t65.5 -36t74.5 -25.5t98 -23.5q17 -4 25 -6q75 -17 133.5 -36
t119 -51.5t100 -72.5t65 -100.5t25.5 -134.5q0 -183 -133.5 -289.5t-364.5 -106.5zM436 -459q-26 -22 -71 -9t-31 48l108 242q11 24 17 35t18.5 23.5t30 17t43.5 4.5h18q41 0 68 -19.5t27 -52.5v-10q0 -19 -15 -38.5t-51 -55.5z" />
    <glyph glyph-name="scedilla" unicode="&#x15f;" horiz-adv-x="950" 
d="M469 -25q-191 0 -303.5 65t-112.5 144q0 28 19 51.5t38 33.5t23 7q115 -147 332 -147q103 0 160 35.5t57 97.5q0 19 -3.5 34t-14 27.5t-19.5 21.5t-30 18.5t-34.5 14.5t-45 13t-49 12t-58.5 13q-42 9 -66 14.5t-65.5 18.5t-66.5 26t-56.5 35t-49 47.5t-30 62.5t-12.5 80
q0 139 107 224.5t286 85.5q177 0 278 -61t101 -138q0 -28 -20 -52.5t-39.5 -35t-22.5 -6.5q-47 64 -122.5 101.5t-166.5 37.5q-103 0 -158 -36t-55 -99q0 -27 11.5 -47t27.5 -33t52.5 -25.5t66.5 -20t88 -20.5q36 -8 53 -12t53.5 -13.5t56 -17t51 -21.5t49 -28t39.5 -35
t33.5 -44.5t19.5 -53.5t8 -65q0 -142 -110 -226t-300 -84zM340 -459q-26 -22 -71 -9t-31 48l108 242q11 24 17 35t18.5 23.5t30 17t43.5 4.5h18q41 0 67.5 -19.5t26.5 -52.5v-10q0 -19 -15 -39t-50 -55z" />
    <glyph glyph-name="Scaron" unicode="&#x160;" horiz-adv-x="1134" 
d="M563 -27q-114 0 -211.5 26t-158 66t-94 85.5t-33.5 87.5q0 32 23 61t46 42.5t27 8.5q61 -89 165 -146t234 -57q138 0 213.5 54.5t75.5 152.5q0 25 -6.5 46.5t-14.5 38t-26.5 32t-32.5 26t-42 22t-45 18t-53 16t-53.5 14t-58.5 13.5q-72 17 -123.5 33t-111 46.5t-96.5 69
t-62 100t-25 138.5q0 169 133 277t345 108q105 0 194.5 -23t144 -59t85 -76.5t30.5 -77.5q0 -34 -24 -64t-47.5 -43.5t-26.5 -9.5q-55 79 -149 129t-205 50q-125 0 -200 -55.5t-75 -147.5q0 -40 16 -71t34 -49t65.5 -36t74.5 -25.5t98 -23.5q17 -4 25 -6q75 -17 133.5 -36
t119 -51.5t100 -72.5t65 -100.5t25.5 -134.5q0 -183 -133.5 -289.5t-364.5 -106.5zM799 1802q29 0 46 -18.5t17 -48.5q0 -50 -63 -123.5t-130.5 -125t-90.5 -56.5q-23 5 -90.5 56.5t-131 125t-63.5 123.5q0 30 17 48.5t46 18.5q42 0 93 -51.5t129 -169.5q78 118 128.5 169.5
t92.5 51.5z" />
    <glyph glyph-name="scaron" unicode="&#x161;" horiz-adv-x="950" 
d="M469 -25q-191 0 -303.5 65t-112.5 144q0 28 19 51.5t38 33.5t23 7q115 -147 332 -147q103 0 160 35.5t57 97.5q0 19 -3.5 34t-14 27.5t-19.5 21.5t-30 18.5t-34.5 14.5t-45 13t-49 12t-58.5 13q-42 9 -66 14.5t-65.5 18.5t-66.5 26t-56.5 35t-49 47.5t-30 62.5t-12.5 80
q0 139 107 224.5t286 85.5q177 0 278 -61t101 -138q0 -28 -20 -52.5t-39.5 -35t-22.5 -6.5q-47 64 -122.5 101.5t-166.5 37.5q-103 0 -158 -36t-55 -99q0 -27 11.5 -47t27.5 -33t52.5 -25.5t66.5 -20t88 -20.5q36 -8 53 -12t53.5 -13.5t56 -17t51 -21.5t49 -28t39.5 -35
t33.5 -44.5t19.5 -53.5t8 -65q0 -142 -110 -226t-300 -84zM684 1462q29 0 46.5 -18.5t17.5 -48.5q0 -50 -63.5 -123.5t-131 -125t-90.5 -56.5q-23 5 -90.5 56.5t-131 125t-63.5 123.5q0 30 17.5 48.5t46.5 18.5q42 0 92.5 -51.5t128.5 -169.5q78 118 128.5 169.5t92.5 51.5z
" />
    <glyph glyph-name="Tcommaaccent" unicode="&#x162;" horiz-adv-x="1214" 
d="M139 1137q-47 0 -72.5 23.5t-25.5 66.5v10q0 43 25.5 65.5t72.5 22.5h938q97 0 97 -88v-10q0 -43 -25 -66.5t-72 -23.5h-362v-1049q0 -96 -94 -96h-29q-90 0 -90 96v1049h-363zM508 -496q-18 -14 -44.5 -15t-46.5 18t-11 47l108 260q11 28 17 40.5t18.5 27.5t30 20.5
t43.5 5.5h18q41 0 67.5 -23t26.5 -63v-10q0 -24 -15.5 -48.5t-49.5 -62.5z" />
    <glyph glyph-name="tcommaaccent" unicode="&#x163;" horiz-adv-x="759" 
d="M127 819q-88 0 -88 76v14q0 76 88 76h72v152q0 96 90 96h20q43 0 65.5 -21t22.5 -75v-152h224q46 0 66 -18t20 -56v-14q0 -78 -89 -78h-223v-497q0 -94 30 -138.5t101 -44.5q87 0 140 70q2 2 8 -0.5t14.5 -9.5t16 -17t13 -25.5t5.5 -33.5q0 -60 -62.5 -105t-166.5 -45
q-295 0 -295 326v520h-72zM324 -496q-18 -14 -45 -15t-47 18t-11 47l109 260q11 28 17 40.5t18 27.5t29.5 20.5t43.5 5.5h19q41 0 67.5 -23t26.5 -63v-10q0 -24 -15.5 -48.5t-50.5 -62.5z" />
    <glyph glyph-name="Tcaron" unicode="&#x164;" horiz-adv-x="1214" 
d="M139 1137q-47 0 -72.5 23.5t-25.5 66.5v10q0 43 25.5 65.5t72.5 22.5h938q97 0 97 -88v-10q0 -43 -25 -66.5t-72 -23.5h-362v-1049q0 -96 -94 -96h-29q-90 0 -90 96v1049h-363zM827 1800q29 0 46.5 -18.5t17.5 -48.5q0 -50 -63.5 -124t-131 -125.5t-90.5 -56.5
q-23 5 -90.5 56.5t-130.5 125.5t-63 124q0 30 17 48.5t46 18.5q42 0 92.5 -51.5t128.5 -169.5q78 118 128.5 169.5t92.5 51.5z" />
    <glyph glyph-name="tcaron" unicode="&#x165;" horiz-adv-x="798" 
d="M127 819q-88 0 -88 76v14q0 76 88 76h72v152q0 96 90 96h20q43 0 65.5 -21t22.5 -75v-152h224q46 0 66 -18t20 -56v-14q0 -78 -89 -78h-223v-497q0 -94 30 -138.5t101 -44.5q87 0 140 70q2 2 8 -0.5t14.5 -9.5t16 -17t13 -25.5t5.5 -33.5q0 -60 -62.5 -105t-166.5 -45
q-295 0 -295 326v520h-72zM586 1102q-15 -13 -37.5 -15t-40 14t-10.5 40l94 301q13 47 30.5 65.5t61.5 18.5h14q35 0 55.5 -22t20.5 -62v-6q0 -56 -41 -109z" />
    <glyph glyph-name="Umacron" unicode="&#x16a;" horiz-adv-x="1331" 
d="M664 -25q-264 0 -401.5 143.5t-137.5 420.5v698q0 47 23.5 71.5t66.5 24.5h29q92 0 92 -96v-692q0 -189 83 -286t247 -97q167 0 248 95.5t81 289.5v690q0 96 90 96h33q88 0 88 -96v-694q0 -277 -139 -422.5t-403 -145.5zM463 1489q-103 0 -103 80v12q0 36 27.5 56
t75.5 20h438q50 0 76.5 -19.5t26.5 -56.5v-12q0 -80 -103 -80h-438z" />
    <glyph glyph-name="umacron" unicode="&#x16b;" horiz-adv-x="1148" 
d="M952 -8q-124 0 -129 155q-120 -172 -327 -172q-188 0 -283.5 114.5t-95.5 307.5v500q0 98 88 98h22q43 0 66.5 -22t23.5 -76v-475q0 -128 62 -199t174 -71q90 0 160.5 47t109.5 127v571q0 98 88 98h23q43 0 66.5 -22t23.5 -76v-883q0 -3 -9.5 -8t-27 -9.5t-35.5 -4.5z
M360 1151q-102 0 -102 80v12q0 36 27 56t75 20h439q102 0 102 -76v-12q0 -80 -102 -80h-439z" />
    <glyph glyph-name="Ubreve" unicode="&#x16c;" horiz-adv-x="1331" 
d="M664 -25q-264 0 -401.5 143.5t-137.5 420.5v698q0 47 23.5 71.5t66.5 24.5h29q92 0 92 -96v-692q0 -189 83 -286t247 -97q167 0 248 95.5t81 289.5v690q0 96 90 96h33q88 0 88 -96v-694q0 -277 -139 -422.5t-403 -145.5zM674 1456q-65 0 -139 37.5t-123.5 91t-49.5 98.5
q0 34 21 56t57 22q56 0 238 -186q164 186 229 186q36 0 57 -22t21 -56q0 -47 -50.5 -101t-124 -90t-136.5 -36z" />
    <glyph glyph-name="ubreve" unicode="&#x16d;" horiz-adv-x="1148" 
d="M952 -8q-124 0 -129 155q-120 -172 -327 -172q-188 0 -283.5 114.5t-95.5 307.5v500q0 98 88 98h22q43 0 66.5 -22t23.5 -76v-475q0 -128 62 -199t174 -71q90 0 160.5 47t109.5 127v571q0 98 88 98h23q43 0 66.5 -22t23.5 -76v-883q0 -3 -9.5 -8t-27 -9.5t-35.5 -4.5z
M557 1118q-65 0 -139 37.5t-123 91.5t-49 99q0 34 21 55.5t57 21.5q34 0 94.5 -51t142.5 -135q68 76 131.5 131t98.5 55q36 0 56.5 -21.5t20.5 -55.5q0 -47 -50.5 -101.5t-124 -90.5t-136.5 -36z" />
    <glyph glyph-name="Uring" unicode="&#x16e;" horiz-adv-x="1331" 
d="M680 1456q-108 0 -177 69.5t-69 174.5t70.5 175.5t177.5 70.5q108 0 177 -70t69 -176q0 -103 -70.5 -173.5t-177.5 -70.5zM680 1567q55 0 91 38t36 95q0 58 -36.5 97.5t-90.5 39.5t-89.5 -39t-35.5 -98q0 -56 36.5 -94.5t88.5 -38.5zM664 -25q-264 0 -401.5 143.5
t-137.5 420.5v698q0 47 23.5 71.5t66.5 24.5h29q92 0 92 -96v-692q0 -189 83 -286t247 -97q167 0 248 95.5t81 289.5v690q0 96 90 96h33q88 0 88 -96v-694q0 -277 -139 -422.5t-403 -145.5z" />
    <glyph glyph-name="uring" unicode="&#x16f;" horiz-adv-x="1148" 
d="M952 -8q-124 0 -129 155q-120 -172 -327 -172q-188 0 -283.5 114.5t-95.5 307.5v500q0 98 88 98h22q43 0 66.5 -22t23.5 -76v-475q0 -128 62 -199t174 -71q90 0 160.5 47t109.5 127v571q0 98 88 98h23q43 0 66.5 -22t23.5 -76v-883q0 -3 -9.5 -8t-27 -9.5t-35.5 -4.5z
M578 1092q-108 0 -177 69t-69 174t70.5 175.5t177.5 70.5q108 0 176.5 -69.5t68.5 -176.5q0 -103 -70 -173t-177 -70zM578 1202q55 0 91 38t36 95q0 59 -36.5 98.5t-90.5 39.5t-89.5 -39.5t-35.5 -98.5q0 -56 36.5 -94.5t88.5 -38.5z" />
    <glyph glyph-name="Uhungarumlaut" unicode="&#x170;" horiz-adv-x="1331" 
d="M664 -25q-264 0 -401.5 143.5t-137.5 420.5v698q0 47 23.5 71.5t66.5 24.5h29q92 0 92 -96v-692q0 -189 83 -286t247 -97q167 0 248 95.5t81 289.5v690q0 96 90 96h33q88 0 88 -96v-694q0 -277 -139 -422.5t-403 -145.5zM768 1475q-6 8 27.5 58t96 115.5t122.5 106.5
q53 35 98 35q39 0 65.5 -22.5t26.5 -57.5q0 -72 -86 -125q-42 -27 -92 -50t-91.5 -35.5t-80.5 -21t-59 -8t-27 4.5zM365 1475q-6 9 27 58.5t95 115.5t123 106q53 35 99 35q39 0 65.5 -22.5t26.5 -57.5q0 -72 -86 -125q-42 -27 -92 -50t-91.5 -35.5t-80.5 -21t-59 -8t-27 4.5
z" />
    <glyph glyph-name="uhungarumlaut" unicode="&#x171;" horiz-adv-x="1148" 
d="M952 -8q-124 0 -129 155q-120 -172 -327 -172q-188 0 -283.5 114.5t-95.5 307.5v500q0 98 88 98h22q43 0 66.5 -22t23.5 -76v-475q0 -128 62 -199t174 -71q90 0 160.5 47t109.5 127v571q0 98 88 98h23q43 0 66.5 -22t23.5 -76v-883q0 -3 -9.5 -8t-27 -9.5t-35.5 -4.5z
M242 1137q-6 9 27 58.5t95 115.5t123 106q53 35 99 35q39 0 65.5 -22.5t26.5 -57.5q0 -72 -86 -125q-42 -27 -92 -50t-91.5 -35.5t-80.5 -21t-59 -8t-27 4.5zM645 1137q-6 8 27.5 58t96 115.5t122.5 106.5q53 35 98 35q39 0 65.5 -22.5t26.5 -57.5q0 -72 -86 -125
q-42 -27 -92 -50t-91.5 -35.5t-80.5 -21t-59 -8t-27 4.5z" />
    <glyph glyph-name="Uogonek" unicode="&#x172;" horiz-adv-x="1331" 
d="M664 -25q-264 0 -401.5 143.5t-137.5 420.5v698q0 47 23.5 71.5t66.5 24.5h29q92 0 92 -96v-692q0 -189 83 -286t247 -97q167 0 248 95.5t81 289.5v690q0 96 90 96h33q88 0 88 -96v-694q0 -343 -211 -482q-143 -113 -143 -196q0 -32 19 -52t49 -20q51 0 75 41
q27 -2 47.5 -23.5t20.5 -54.5q0 -46 -43 -75t-117 -29q-95 0 -151 46.5t-56 127.5q0 82 68 156q-54 -7 -100 -7z" />
    <glyph glyph-name="uogonek" unicode="&#x173;" horiz-adv-x="1148" 
d="M1022 10q-160 -125 -160 -209q0 -32 19 -51.5t49 -19.5q52 0 76 41q27 -2 47 -23.5t20 -54.5q0 -47 -43 -76t-117 -29q-94 0 -150 46.5t-56 127.5q0 68 47 132t137 112q-63 30 -68 141q-120 -172 -327 -172q-188 0 -283.5 114.5t-95.5 307.5v500q0 98 88 98h22
q43 0 66.5 -22t23.5 -76v-475q0 -128 62 -199t174 -71q90 0 160.5 47t109.5 127v571q0 98 88 98h23q43 0 66.5 -22t23.5 -76v-883q0 -4 -4 -4h2z" />
    <glyph glyph-name="Wcircumflex" unicode="&#x174;" horiz-adv-x="1894" 
d="M731 1425q-29 0 -47 18.5t-18 47.5q0 50 63.5 124t131 125t91.5 56q24 -5 91 -56t130.5 -125t63.5 -124q0 -30 -17 -48t-46 -18q-42 0 -94.5 51.5t-129.5 168.5q-81 -121 -129.5 -170.5t-89.5 -49.5zM551 -14q-68 0 -100.5 18.5t-42.5 65.5l-310 1204q-1 6 12.5 19.5
t44.5 26.5t68 13q96 0 123 -123l215 -974l252 833q24 96 139 96q60 0 92 -23.5t48 -72.5l247 -829l220 972q25 121 116 121q35 0 65 -13t43 -26.5t11 -19.5l-305 -1204q-11 -46 -43.5 -65t-99.5 -19q-61 0 -92.5 20t-45.5 66l-256 856l-268 -856q-12 -46 -42 -66t-91 -20z
" />
    <glyph glyph-name="wcircumflex" unicode="&#x175;" horiz-adv-x="1454" 
d="M510 1104q-29 0 -47.5 18t-18.5 47q0 39 39 93t89.5 99t96.5 78t62 36q23 -5 90.5 -56t131 -125.5t63.5 -124.5q0 -29 -17.5 -47t-46.5 -18q-42 0 -94 51t-129 168q-81 -120 -129.5 -169.5t-89.5 -49.5zM412 -12q-57 0 -86 14.5t-39 50.5l-246 883q-2 6 15.5 20t48 26.5
t57.5 12.5q85 0 106 -108l154 -690l188 596q11 37 40 54t85 17q55 0 83.5 -17t39.5 -54l182 -592l152 686q10 58 39 83t65 25q27 0 56 -13t45.5 -26.5t15.5 -19.5l-244 -883q-9 -36 -37 -50.5t-85 -14.5q-62 0 -86.5 14.5t-38.5 56.5l-191 596l-196 -596q-14 -41 -39 -56
t-84 -15z" />
    <glyph glyph-name="Ycircumflex" unicode="&#x176;" horiz-adv-x="1173" 
d="M571 -8q-90 0 -90 96v455l-469 704q-2 5 1.5 14.5t14 22t25.5 23.5t39.5 18.5t52.5 7.5q63 0 103 -73l340 -541l340 541q45 73 104 73q26 0 49 -7.5t38 -19t25 -24t14 -22t1 -13.5l-467 -704v-455q0 -96 -92 -96h-29zM373 1458q-29 0 -47.5 18.5t-18.5 47.5q0 50 64 124
t131.5 125t91.5 56q24 -5 91 -56t130.5 -125t63.5 -124q0 -29 -17.5 -47.5t-46.5 -18.5q-42 0 -94 51t-129 168q-81 -120 -129.5 -169.5t-89.5 -49.5z" />
    <glyph glyph-name="ycircumflex" unicode="&#x177;" horiz-adv-x="1019" 
d="M408 -399q-26 0 -53 12t-41.5 25t-12.5 18l164 399q-35 3 -54.5 15.5t-31.5 42.5l-352 823q-2 7 10.5 20.5t39 26t56.5 12.5q45 0 75 -25t54 -89l266 -680l236 676q38 118 127 118q25 0 52 -12t41.5 -25t12.5 -18l-465 -1227q-42 -112 -124 -112zM305 1120
q-29 0 -47 18.5t-18 47.5q0 50 63.5 124t131 125t91.5 56q24 -5 91 -56t130.5 -125t63.5 -124q0 -30 -17 -48t-46 -18q-42 0 -94.5 51.5t-129.5 167.5q-81 -120 -129.5 -169.5t-89.5 -49.5z" />
    <glyph glyph-name="Ydieresis" unicode="&#x178;" horiz-adv-x="1173" 
d="M571 -8q-90 0 -90 96v455l-469 704q-2 5 1.5 14.5t14 22t25.5 23.5t39.5 18.5t52.5 7.5q63 0 103 -73l340 -541l340 541q45 73 104 73q26 0 49 -7.5t38 -19t25 -24t14 -22t1 -13.5l-467 -704v-455q0 -96 -92 -96h-29zM776 1458q-59 0 -92 32t-33 89q0 58 32.5 90.5
t88.5 32.5t89.5 -32.5t33.5 -90.5q0 -56 -33 -88.5t-86 -32.5zM399 1458q-56 0 -89.5 32.5t-33.5 88.5q0 57 33 90t86 33q59 0 92 -32.5t33 -90.5q0 -57 -32.5 -89t-88.5 -32z" />
    <glyph glyph-name="Zacute" unicode="&#x179;" horiz-adv-x="1247" 
d="M512 1475q-6 8 27.5 58t96 115.5t122.5 106.5q53 35 98 35q39 0 65.5 -22.5t26.5 -57.5q0 -72 -86 -125q-42 -27 -92 -50t-91.5 -35.5t-80.5 -21t-59 -8t-27 4.5zM236 0q-69 0 -103.5 28.5t-34.5 71.5v19q0 44 17 77t71 99l695 846h-682q-95 0 -95 86v12q0 86 95 86h800
q69 0 102.5 -27.5t33.5 -70.5v-19q0 -42 -20.5 -79t-65.5 -91l-701 -854h723q94 0 94 -86v-12q0 -86 -94 -86h-835z" />
    <glyph glyph-name="zacute" unicode="&#x17a;" horiz-adv-x="987" 
d="M389 1137q-6 8 27.5 58t96 115.5t122.5 106.5q53 35 98 35q39 0 65.5 -22.5t26.5 -57.5q0 -72 -86 -125q-42 -27 -92 -50t-91.5 -35.5t-80.5 -21t-59 -8t-27 4.5zM156 0q-43 0 -63.5 22t-20.5 56v16q0 30 11.5 51t45.5 60l516 618h-481q-46 0 -67 18t-21 56v14
q0 74 88 74h657q84 0 84 -76v-12q0 -28 -11 -48t-44 -58l-526 -627h510q88 0 88 -76v-12q0 -76 -88 -76h-678z" />
    <glyph glyph-name="Zdotaccent" unicode="&#x17b;" horiz-adv-x="1247" 
d="M236 0q-69 0 -103.5 28.5t-34.5 71.5v19q0 44 17 77t71 99l695 846h-682q-95 0 -95 86v12q0 86 95 86h800q69 0 102.5 -27.5t33.5 -70.5v-19q0 -42 -20.5 -79t-65.5 -91l-701 -854h723q94 0 94 -86v-12q0 -86 -94 -86h-835zM625 1458q-62 0 -99 35.5t-37 91.5t38 92.5
t100 36.5q61 0 97 -36t36 -93q0 -56 -36.5 -91.5t-98.5 -35.5z" />
    <glyph glyph-name="zdotaccent" unicode="&#x17c;" horiz-adv-x="987" 
d="M156 0q-43 0 -63.5 22t-20.5 56v16q0 30 11.5 51t45.5 60l516 618h-481q-46 0 -67 18t-21 56v14q0 74 88 74h657q84 0 84 -76v-12q0 -28 -11 -48t-44 -58l-526 -627h510q88 0 88 -76v-12q0 -76 -88 -76h-678zM512 1120q-62 0 -98.5 35.5t-36.5 91.5t37.5 92.5t99.5 36.5
q60 0 96.5 -36t36.5 -93q0 -56 -36.5 -91.5t-98.5 -35.5z" />
    <glyph glyph-name="Zcaron" unicode="&#x17d;" horiz-adv-x="1247" 
d="M236 0q-69 0 -103.5 28.5t-34.5 71.5v19q0 44 17 77t71 99l695 846h-682q-95 0 -95 86v12q0 86 95 86h800q69 0 102.5 -27.5t33.5 -70.5v-19q0 -42 -20.5 -79t-65.5 -91l-701 -854h723q94 0 94 -86v-12q0 -86 -94 -86h-835zM829 1802q29 0 46.5 -18.5t17.5 -48.5
q0 -50 -63.5 -123.5t-131 -125t-90.5 -56.5q-23 5 -90.5 56.5t-130.5 125t-63 123.5q0 30 17 48.5t46 18.5q42 0 92.5 -51.5t128.5 -169.5q78 118 128.5 169.5t92.5 51.5z" />
    <glyph glyph-name="zcaron" unicode="&#x17e;" horiz-adv-x="987" 
d="M156 0q-43 0 -63.5 22t-20.5 56v16q0 30 11.5 51t45.5 60l516 618h-481q-46 0 -67 18t-21 56v14q0 74 88 74h657q84 0 84 -76v-12q0 -28 -11 -48t-44 -58l-526 -627h510q88 0 88 -76v-12q0 -76 -88 -76h-678zM705 1462q29 0 46 -18.5t17 -48.5q0 -50 -63.5 -123.5
t-131 -125t-90.5 -56.5q-23 5 -90.5 56.5t-130.5 125t-63 123.5q0 30 17 48.5t46 18.5q42 0 92.5 -51.5t128.5 -169.5q78 118 129 169.5t93 51.5z" />
    <glyph glyph-name="florin" unicode="&#x192;" horiz-adv-x="845" 
d="M143 719q-48 0 -69 19t-21 57v14q0 38 21 57t69 19h123l23 125q30 170 115 255t217 85q102 0 162.5 -40t60.5 -100q0 -30 -16.5 -56.5t-33.5 -39t-18 -8.5q-50 70 -141 70q-62 0 -97.5 -46.5t-54.5 -148.5l-18 -96h201q88 0 88 -78v-14q0 -38 -21 -56t-67 -18h-224
l-106 -582q-27 -153 -133 -153q-25 0 -48 7t-34 15t-10 12l125 701h-93z" />
    <glyph glyph-name="Aringacute" unicode="&#x1fa;" horiz-adv-x="1290" 
d="M551 1784q-6 8 27.5 58t96 115.5t122.5 106.5q53 35 98 35q39 0 65.5 -22.5t26.5 -57.5q0 -72 -86 -125q-42 -27 -92 -50t-91.5 -35.5t-80.5 -21t-59 -8t-27 4.5zM891 1475q0 -65 -29 -117.5t-80 -83.5l4 -4l478 -1217q3 -8 -13 -23t-45.5 -27.5t-58.5 -12.5
q-88 0 -125 98l-117 301h-530l-117 -303q-35 -96 -117 -96q-28 0 -57 12t-44.5 27t-12.5 24l471 1217q0 2 4 6q-50 29 -77.5 81t-27.5 118q0 105 70.5 175t177.5 70t176.5 -69.5t69.5 -175.5zM639 1124l-213 -565h428zM643 1341q54 0 89.5 38.5t35.5 95.5q0 58 -36 97.5
t-89 39.5q-54 0 -90.5 -39.5t-36.5 -97.5q0 -55 37 -94.5t90 -39.5z" />
    <glyph glyph-name="aringacute" unicode="&#x1fb;" horiz-adv-x="1071" 
d="M403 -23q-156 0 -245.5 76.5t-89.5 204.5q0 168 162 248t499 86h27v20q0 113 -63 172.5t-181 59.5q-105 0 -175.5 -46.5t-107.5 -121.5q0 -1 -13 0t-31.5 6t-36.5 14.5t-31 30t-13 47.5q0 37 27.5 77t78 76t134 59.5t182.5 23.5q208 0 319 -102.5t111 -291.5v-604
q0 -8 -23 -15t-50 -7q-122 0 -125 157q-57 -80 -150 -125t-205 -45zM453 123q132 0 217.5 74.5t85.5 191.5v76l-56 -2q-221 -8 -327.5 -54t-106.5 -143q0 -66 50 -104.5t137 -38.5zM385 1681q-6 8 27.5 58.5t96 116t122.5 106.5q53 35 98 35q39 0 65.5 -22.5t26.5 -57.5
q0 -72 -86 -125q-42 -27 -92 -50t-91.5 -35.5t-80.5 -21.5t-59 -8.5t-27 4.5zM528 1118q-108 0 -176.5 69.5t-68.5 174.5t70 175.5t177 70.5q108 0 177 -70t69 -176q0 -103 -70.5 -173.5t-177.5 -70.5zM528 1229q55 0 91 38t36 95q0 58 -36.5 97.5t-90.5 39.5t-89.5 -39
t-35.5 -98q0 -56 36.5 -94.5t88.5 -38.5z" />
    <glyph glyph-name="AEacute" unicode="&#x1fc;" horiz-adv-x="1757" 
d="M1012 106l-107 283h-530l-117 -303q-38 -96 -117 -96q-28 0 -57 12t-44.5 27t-12.5 24l462 1192q27 80 136 80h952q98 0 98 -88v-12q0 -88 -98 -88h-746l144 -369h450q99 0 99 -84v-10q0 -86 -99 -86h-376l155 -402h385q97 0 97 -84v-10q0 -92 -97 -92h-418
q-68 0 -102 22.5t-57 83.5zM639 1120l-213 -561h428zM877 1475q-6 8 27 58t95.5 115.5t122.5 106.5q53 35 99 35q39 0 65.5 -22.5t26.5 -57.5q0 -72 -86 -125q-42 -27 -92 -50t-91.5 -35.5t-80.5 -21t-59 -8t-27 4.5z" />
    <glyph glyph-name="aeacute" unicode="&#x1fd;" horiz-adv-x="1775" 
d="M406 -23q-157 0 -247.5 77t-90.5 204q0 168 162 248t499 86h27v20q0 113 -63 173.5t-181 60.5q-105 0 -175 -47.5t-108 -122.5q0 -1 -13 0t-31.5 6t-36.5 14.5t-31 30t-13 47.5q0 37 27 77t76.5 76t131 59.5t177.5 23.5q256 0 352 -181q63 86 158 133.5t213 47.5
q213 0 344 -137t131 -359v-16q-2 -33 -15 -46.5t-46 -13.5h-729q10 -136 103 -220.5t233 -84.5q212 0 311 164q2 4 27 -3.5t51 -33t26 -63.5q0 -33 -28.5 -71.5t-79.5 -73t-133.5 -57t-178.5 -22.5q-156 0 -267 62.5t-167 177.5q-54 -107 -164.5 -171.5t-250.5 -64.5z
M453 123q132 0 217.5 74.5t85.5 191.5v76l-56 -2q-221 -8 -327.5 -54t-106.5 -143q0 -66 50 -104.5t137 -38.5zM1239 856q-122 0 -207 -78.5t-104 -202.5h588q-8 128 -82 204.5t-195 76.5zM840 1137q-6 8 27 58t95.5 115.5t122.5 106.5q53 35 99 35q39 0 65.5 -22.5
t26.5 -57.5q0 -72 -86 -125q-42 -27 -92 -50t-91.5 -35.5t-80.5 -21t-59 -8t-27 4.5z" />
    <glyph glyph-name="Oslashacute" unicode="&#x1fe;" horiz-adv-x="1517" 
d="M178 -88q-6 -6 -28 3.5t-43 32.5t-21 50q0 43 49 100l103 113q-148 187 -148 448q0 194 84.5 352t238.5 249.5t349 91.5q224 0 399 -125l158 174q5 6 26.5 -3.5t42.5 -32.5t21 -50q0 -46 -47 -101l-88 -96q156 -189 156 -454q0 -194 -84.5 -351.5t-238.5 -248.5t-349 -91
q-237 0 -408 129zM762 160q210 0 338.5 140.5t128.5 358.5q0 182 -92 316l-656 -729q119 -86 281 -86zM291 664q0 -177 86 -308l653 725q-120 84 -272 84q-211 0 -339 -140.5t-128 -360.5zM692 1475q-6 8 27.5 58t96 115.5t122.5 106.5q53 35 98 35q39 0 65.5 -22.5
t26.5 -57.5q0 -72 -86 -125q-42 -27 -92 -50t-91.5 -35.5t-80.5 -21t-59 -8t-27 4.5z" />
    <glyph glyph-name="oslashacute" unicode="&#x1ff;" horiz-adv-x="1163" 
d="M152 -94q-5 -5 -26.5 3.5t-42 28.5t-20.5 44q0 39 48 92l77 86q-110 138 -110 329q0 107 39.5 203.5t107.5 166t163.5 110.5t201.5 41q157 0 291 -90l141 157q5 5 26 -3.5t41.5 -28.5t20.5 -44q0 -40 -45 -90l-80 -86q113 -141 113 -331q0 -107 -39.5 -203.5t-107.5 -166
t-163.5 -110.5t-201.5 -41q-162 0 -291 90zM588 139q140 0 232.5 101t92.5 252q0 118 -59 204l-448 -493q84 -64 182 -64zM322 289l448 493q-81 62 -182 62q-141 0 -233.5 -100t-92.5 -252q0 -111 60 -203zM526 1137q-6 8 27.5 58t96 115.5t122.5 106.5q53 35 98 35
q39 0 66 -22.5t27 -57.5q0 -72 -86 -125q-42 -27 -92 -50t-91.5 -35.5t-81 -21t-59.5 -8t-27 4.5z" />
    <glyph glyph-name="Scommaaccent" unicode="&#x218;" horiz-adv-x="1134" 
d="M563 -27q-114 0 -211.5 26t-158 66t-94 85.5t-33.5 87.5q0 32 23 61t46 42.5t27 8.5q61 -89 165 -146t234 -57q138 0 213.5 54.5t75.5 152.5q0 25 -6.5 46.5t-14.5 38t-26.5 32t-32.5 26t-42 22t-45 18t-53 16t-53.5 14t-58.5 13.5q-72 17 -123.5 33t-111 46.5t-96.5 69
t-62 100t-25 138.5q0 169 133 277t345 108q105 0 194.5 -23t144 -59t85 -76.5t30.5 -77.5q0 -34 -24 -64t-47.5 -43.5t-26.5 -9.5q-55 79 -149 129t-205 50q-125 0 -200 -55.5t-75 -147.5q0 -40 16 -71t34 -49t65.5 -36t74.5 -25.5t98 -23.5q17 -4 25 -6q75 -17 133.5 -36
t119 -51.5t100 -72.5t65 -100.5t25.5 -134.5q0 -183 -133.5 -289.5t-364.5 -106.5zM457 -496q-18 -14 -45 -15t-47 18t-11 47l109 260q11 28 17 40.5t18 27.5t29.5 20.5t43.5 5.5h19q41 0 67.5 -23t26.5 -63v-10q0 -24 -15.5 -48.5t-50.5 -62.5z" />
    <glyph glyph-name="scommaaccent" unicode="&#x219;" horiz-adv-x="950" 
d="M469 -25q-191 0 -303.5 65t-112.5 144q0 28 19 51.5t38 33.5t23 7q115 -147 332 -147q103 0 160 35.5t57 97.5q0 19 -3.5 34t-14 27.5t-19.5 21.5t-30 18.5t-34.5 14.5t-45 13t-49 12t-58.5 13q-42 9 -66 14.5t-65.5 18.5t-66.5 26t-56.5 35t-49 47.5t-30 62.5t-12.5 80
q0 139 107 224.5t286 85.5q177 0 278 -61t101 -138q0 -28 -20 -52.5t-39.5 -35t-22.5 -6.5q-47 64 -122.5 101.5t-166.5 37.5q-103 0 -158 -36t-55 -99q0 -27 11.5 -47t27.5 -33t52.5 -25.5t66.5 -20t88 -20.5q36 -8 53 -12t53.5 -13.5t56 -17t51 -21.5t49 -28t39.5 -35
t33.5 -44.5t19.5 -53.5t8 -65q0 -142 -110 -226t-300 -84zM326 -496q-18 -14 -45 -15t-47 18t-11 47l109 260q11 28 17 40.5t18 27.5t29.5 20.5t43.5 5.5h19q41 0 67.5 -23t26.5 -63v-10q0 -24 -15.5 -48.5t-50.5 -62.5z" />
    <glyph glyph-name="circumflex" unicode="&#x2c6;" horiz-adv-x="1024" 
d="M291 1120q-29 0 -47.5 18.5t-18.5 47.5q0 50 64 124t131.5 125t91.5 56q24 -5 91 -56t130.5 -125t63.5 -124q0 -29 -17.5 -47.5t-46.5 -18.5q-42 0 -94 51t-129 168q-81 -120 -129.5 -169.5t-89.5 -49.5z" />
    <glyph glyph-name="caron" unicode="&#x2c7;" horiz-adv-x="1024" 
d="M733 1462q29 0 46.5 -18.5t17.5 -48.5q0 -50 -63.5 -123.5t-131 -125t-90.5 -56.5q-23 5 -90.5 56.5t-131 125t-63.5 123.5q0 30 17.5 48.5t46.5 18.5q42 0 92.5 -51.5t128.5 -169.5q78 118 128.5 169.5t92.5 51.5z" />
    <glyph glyph-name="breve" unicode="&#x2d8;" horiz-adv-x="1024" 
d="M512 1118q-65 0 -139 37.5t-123 91.5t-49 99q0 34 21 55.5t57 21.5q34 0 94.5 -51t142.5 -135q164 186 229 186q36 0 57 -21.5t21 -55.5q0 -47 -50.5 -101.5t-124 -90.5t-136.5 -36z" />
    <glyph glyph-name="dotaccent" unicode="&#x2d9;" horiz-adv-x="1024" 
d="M512 1120q-62 0 -98.5 35.5t-36.5 91.5t37.5 92.5t99.5 36.5q60 0 96.5 -36t36.5 -93q0 -56 -36.5 -91.5t-98.5 -35.5z" />
    <glyph glyph-name="ring" unicode="&#x2da;" horiz-adv-x="1024" 
d="M510 1118q-108 0 -177 69.5t-69 174.5t70.5 175.5t177.5 70.5q108 0 177 -70t69 -176q0 -103 -70.5 -173.5t-177.5 -70.5zM510 1229q55 0 91 38t36 95q0 58 -36.5 97.5t-90.5 39.5t-89.5 -39t-35.5 -98q0 -56 36.5 -94.5t88.5 -38.5z" />
    <glyph glyph-name="ogonek" unicode="&#x2db;" horiz-adv-x="1024" 
d="M662 10q-160 -125 -160 -209q0 -32 18.5 -51.5t48.5 -19.5q52 0 76 41q27 -2 47.5 -23.5t20.5 -54.5q0 -47 -43 -76t-117 -29q-95 0 -151 46.5t-56 127.5q0 82 72 158.5t205 126.5z" />
    <glyph glyph-name="tilde" unicode="&#x2dc;" horiz-adv-x="1024" 
d="M268 1130q-33 0 -52 19.5t-19 52.5q0 79 46.5 138t112.5 59q56 0 135 -41t160 -113q19 61 46.5 101t58.5 40q34 0 52.5 -19.5t18.5 -53.5q0 -78 -47 -136.5t-112 -58.5q-59 0 -138.5 40.5t-156.5 113.5q-49 -142 -105 -142z" />
    <glyph glyph-name="hungarumlaut" unicode="&#x2dd;" horiz-adv-x="1024" 
d="M573 1137q-6 8 27.5 58t96 115.5t122.5 106.5q53 35 99 35q39 0 65.5 -22.5t26.5 -57.5q0 -72 -86 -125q-42 -27 -92 -50t-91.5 -35.5t-81 -21t-59.5 -8t-27 4.5zM170 1137q-6 9 27 58.5t95.5 115.5t123.5 106q53 35 98 35q39 0 65.5 -22.5t26.5 -57.5q0 -72 -86 -125
q-42 -27 -92 -50t-91.5 -35.5t-80.5 -21t-59 -8t-27 4.5z" />
    <glyph glyph-name="pi" unicode="&#x3c0;" horiz-adv-x="1540" 
d="M770 -27q-196 0 -351 88t-241 244.5t-86 353.5q0 196 88 354.5t243.5 248.5t348.5 90q196 0 350.5 -88t240 -244.5t85.5 -353.5q0 -196 -87.5 -354.5t-242.5 -248.5t-348 -90zM772 84q247 0 401 160.5t154 417.5q0 124 -42 231.5t-115.5 183.5t-177.5 120t-224 44
q-247 0 -401 -160t-154 -417q0 -165 71.5 -297.5t199.5 -207.5t288 -75zM588 283q-31 0 -48.5 18t-17.5 51v559q0 39 22.5 62.5t59.5 23.5h195q142 0 217.5 -61t75.5 -178q0 -119 -73.5 -182.5t-211.5 -63.5h-129v-160q0 -32 -18 -50.5t-50 -18.5h-22zM674 877v-244h131
q67 0 102 32.5t35 90.5t-36.5 89.5t-106.5 31.5h-125z" />
    <glyph glyph-name="Wgrave" unicode="&#x1e80;" horiz-adv-x="1894" 
d="M551 -14q-68 0 -100.5 18.5t-42.5 65.5l-310 1204q-1 6 12.5 19.5t44.5 26.5t68 13q96 0 123 -123l215 -974l252 833q24 96 139 96q60 0 92 -23.5t48 -72.5l247 -829l220 972q25 121 116 121q35 0 65 -13t43 -26.5t11 -19.5l-305 -1204q-11 -46 -43.5 -65t-99.5 -19
q-61 0 -92.5 20t-45.5 66l-256 856l-268 -856q-12 -46 -42 -66t-91 -20zM756 1552q-88 54 -88 125q0 35 27 57.5t65 22.5q52 0 98 -35q61 -40 123.5 -106t96 -115.5t28.5 -58.5q-7 -4 -27 -4.5t-59 8t-80.5 21t-91.5 35.5t-92 50z" />
    <glyph glyph-name="wgrave" unicode="&#x1e81;" horiz-adv-x="1454" 
d="M412 -12q-57 0 -86 14.5t-39 50.5l-246 883q-2 6 15.5 20t48 26.5t57.5 12.5q85 0 106 -108l154 -690l188 596q11 37 40 54t85 17q55 0 83.5 -17t39.5 -54l182 -592l152 686q10 58 39 83t65 25q27 0 56 -13t45.5 -26.5t15.5 -19.5l-244 -883q-9 -36 -37 -50.5t-85 -14.5
q-62 0 -86.5 14.5t-38.5 56.5l-191 596l-196 -596q-14 -41 -39 -56t-84 -15zM506 1231q-88 54 -88 125q0 35 27 57.5t65 22.5q52 0 98 -35q61 -40 123.5 -106.5t96 -116t28.5 -58.5q-7 -4 -27 -4.5t-59 8.5t-80.5 21.5t-91.5 35.5t-92 50z" />
    <glyph glyph-name="Wacute" unicode="&#x1e82;" horiz-adv-x="1894" 
d="M805 1442q-6 8 27.5 58t96 115.5t122.5 106.5q53 35 98 35q39 0 65.5 -22.5t26.5 -57.5q0 -72 -86 -125q-42 -27 -92 -50t-91.5 -35.5t-80.5 -21t-59 -8t-27 4.5zM551 -14q-68 0 -100.5 18.5t-42.5 65.5l-310 1204q-1 6 12.5 19.5t44.5 26.5t68 13q96 0 123 -123
l215 -974l252 833q24 96 139 96q60 0 92 -23.5t48 -72.5l247 -829l220 972q25 121 116 121q35 0 65 -13t43 -26.5t11 -19.5l-305 -1204q-11 -46 -43.5 -65t-99.5 -19q-61 0 -92.5 20t-45.5 66l-256 856l-268 -856q-12 -46 -42 -66t-91 -20z" />
    <glyph glyph-name="wacute" unicode="&#x1e83;" horiz-adv-x="1454" 
d="M592 1120q-6 8 27.5 58.5t96 116t122.5 106.5q53 35 98 35q39 0 65.5 -22.5t26.5 -57.5q0 -72 -86 -125q-42 -27 -92 -50t-91.5 -35.5t-80.5 -21.5t-59 -8.5t-27 4.5zM412 -12q-57 0 -86 14.5t-39 50.5l-246 883q-2 6 15.5 20t48 26.5t57.5 12.5q85 0 106 -108l154 -690
l188 596q11 37 40 54t85 17q55 0 83.5 -17t39.5 -54l182 -592l152 686q10 58 39 83t65 25q27 0 56 -13t45.5 -26.5t15.5 -19.5l-244 -883q-9 -36 -37 -50.5t-85 -14.5q-62 0 -86.5 14.5t-38.5 56.5l-191 596l-196 -596q-14 -41 -39 -56t-84 -15z" />
    <glyph glyph-name="Wdieresis" unicode="&#x1e84;" horiz-adv-x="1894" 
d="M1139 1423q-59 0 -92 32t-33 89q0 58 32.5 90.5t88.5 32.5t89 -32.5t33 -90.5q0 -56 -32.5 -88.5t-85.5 -32.5zM762 1423q-56 0 -89.5 32.5t-33.5 88.5q0 58 32.5 90.5t86.5 32.5q59 0 92 -32.5t33 -90.5q0 -57 -32.5 -89t-88.5 -32zM551 -14q-68 0 -100.5 18.5
t-42.5 65.5l-310 1204q-1 6 12.5 19.5t44.5 26.5t68 13q96 0 123 -123l215 -974l252 833q24 96 139 96q60 0 92 -23.5t48 -72.5l247 -829l220 972q25 121 116 121q35 0 65 -13t43 -26.5t11 -19.5l-305 -1204q-11 -46 -43.5 -65t-99.5 -19q-61 0 -92.5 20t-45.5 66l-256 856
l-268 -856q-12 -46 -42 -66t-91 -20z" />
    <glyph glyph-name="wdieresis" unicode="&#x1e85;" horiz-adv-x="1454" 
d="M920 1118q-59 0 -92 32t-33 89q0 58 32 90.5t88 32.5t89.5 -32.5t33.5 -90.5q0 -56 -32.5 -88.5t-85.5 -32.5zM543 1118q-56 0 -89.5 32.5t-33.5 88.5q0 57 33 90t86 33q59 0 92 -32.5t33 -90.5q0 -57 -32.5 -89t-88.5 -32zM412 -12q-57 0 -86 14.5t-39 50.5l-246 883
q-2 6 15.5 20t48 26.5t57.5 12.5q85 0 106 -108l154 -690l188 596q11 37 40 54t85 17q55 0 83.5 -17t39.5 -54l182 -592l152 686q10 58 39 83t65 25q27 0 56 -13t45.5 -26.5t15.5 -19.5l-244 -883q-9 -36 -37 -50.5t-85 -14.5q-62 0 -86.5 14.5t-38.5 56.5l-191 596
l-196 -596q-14 -41 -39 -56t-84 -15z" />
    <glyph glyph-name="endash" unicode="&#x2013;" horiz-adv-x="1103" 
d="M172 412q-88 0 -88 77v19q0 78 88 78h756q88 0 88 -78v-19q0 -77 -88 -77h-756z" />
    <glyph glyph-name="emdash" unicode="&#x2014;" horiz-adv-x="1443" 
d="M172 412q-88 0 -88 77v19q0 78 88 78h1100q88 0 88 -78v-19q0 -77 -88 -77h-1100z" />
    <glyph glyph-name="quoteleft" unicode="&#x2018;" horiz-adv-x="442" 
d="M162 844q-40 0 -64 25t-24 71v8q0 58 49 125l168 260q14 18 42.5 19t48 -17.5t11.5 -46.5l-106 -348q-17 -53 -37.5 -74.5t-69.5 -21.5h-18z" />
    <glyph glyph-name="quoteright" unicode="&#x2019;" horiz-adv-x="442" 
d="M152 862q-17 -16 -43.5 -18t-47 16.5t-12.5 46.5l109 348q17 55 36.5 76t69.5 21h19q39 0 62.5 -25.5t23.5 -71.5v-8q0 -63 -47 -125z" />
    <glyph glyph-name="quotesinglbase" unicode="&#x201a;" horiz-adv-x="442" 
d="M135 -246q-17 -16 -43.5 -18t-46.5 16.5t-12 46.5l108 348q17 55 37 76t70 21h18q39 0 62.5 -25.5t23.5 -71.5v-8q0 -63 -47 -125z" />
    <glyph glyph-name="quotedblleft" unicode="&#x201c;" horiz-adv-x="800" 
d="M518 844q-38 0 -62 25t-24 71v8q0 60 49 125l168 260q18 16 44 18t46.5 -16.5t12.5 -46.5l-109 -348q-15 -54 -35 -75t-71 -21h-19zM160 844q-38 0 -62 25t-24 71v8q0 57 49 125l168 260q18 16 44 18t46 -16.5t12 -46.5l-108 -348q-15 -54 -35.5 -75t-69.5 -21h-20z" />
    <glyph glyph-name="quotedblright" unicode="&#x201d;" horiz-adv-x="800" 
d="M510 862q-17 -16 -44 -18t-47.5 16.5t-12.5 46.5l110 348q17 56 36 76.5t69 20.5h20q38 0 61 -25.5t23 -71.5v-8q0 -60 -47 -125zM150 862q-16 -16 -42 -18t-47 16.5t-14 46.5l111 348q15 54 35 75.5t69 21.5h19q39 0 62.5 -25.5t23.5 -71.5v-8q0 -62 -48 -125z" />
    <glyph glyph-name="quotedblbase" unicode="&#x201e;" horiz-adv-x="800" 
d="M494 -246q-17 -16 -44 -18t-48 16.5t-13 46.5l111 348q17 56 35.5 76.5t68.5 20.5h21q38 0 61 -25.5t23 -71.5v-8q0 -60 -47 -125zM133 -246q-16 -16 -42 -18t-46.5 16.5t-13.5 46.5l110 348q15 54 35.5 75.5t69.5 21.5h18q39 0 62.5 -25.5t23.5 -71.5v-8q0 -63 -47 -125
z" />
    <glyph glyph-name="dagger" unicode="&#x2020;" horiz-adv-x="1060" 
d="M514 -326q-32 0 -45 13.5t-16 46.5l-29 833q-7 109 55 191l-317 -51q-111 -22 -111 104q0 63 25.5 90.5t85.5 16.5l317 -54l-55 367q-10 60 15.5 85t90.5 25q66 0 91.5 -25t15.5 -85l-53 -365l315 52q111 19 111 -107t-111 -104l-317 51q62 -82 55 -191l-29 -833
q-3 -33 -16 -46.5t-43 -13.5h-35z" />
    <glyph glyph-name="daggerdbl" unicode="&#x2021;" horiz-adv-x="1060" 
d="M514 -326q-32 0 -45 13.5t-16 46.5l-15 444l-276 -47q-60 -11 -85.5 16.5t-25.5 90.5q0 126 111 104l272 -45l-10 278q-7 110 59 191l-321 -51q-111 -22 -111 104q0 63 25.5 90.5t85.5 16.5l315 -52l-53 357q-10 60 15.5 85t90.5 25q66 0 91.5 -25t15.5 -85l-53 -357
l315 52q111 19 111 -107t-111 -104l-319 51q64 -82 57 -191l-10 -278l272 45q111 22 111 -104t-111 -107l-276 47l-15 -444q-3 -33 -16 -46.5t-43 -13.5h-35z" />
    <glyph glyph-name="bullet" unicode="&#x2022;" horiz-adv-x="684" 
d="M342 264q-98 0 -164.5 67.5t-66.5 166.5t66.5 168t164.5 69t165.5 -69t67.5 -168q0 -97 -68 -165.5t-165 -68.5z" />
    <glyph glyph-name="ellipsis" unicode="&#x2026;" horiz-adv-x="1366" 
d="M1122 -14q-110 0 -110 110v25q0 54 28 83t82 29h27q115 0 115 -112v-25q0 -110 -115 -110h-27zM668 -14q-111 0 -111 110v25q0 54 28.5 83t82.5 29h26q113 0 113 -112v-25q0 -110 -113 -110h-26zM213 -14q-111 0 -111 110v25q0 112 111 112h27q112 0 112 -112v-25
q0 -110 -112 -110h-27z" />
    <glyph glyph-name="perthousand" unicode="&#x2030;" horiz-adv-x="2244" 
d="M377 705q-136 0 -227 88.5t-91 220.5v18q0 132 92 223t228 91q137 0 228 -89t91 -221v-18q0 -132 -92.5 -222.5t-228.5 -90.5zM250 -18q-5 -6 -27.5 1.5t-44.5 27.5t-22 46q0 28 12.5 51t46.5 58l1030 1186q5 5 27.5 -1.5t44.5 -26.5t22 -48q0 -46 -57 -111zM1866 -12
q-138 0 -229 88.5t-91 220.5v18q0 132 93 223t229 91q137 0 227 -88.5t90 -221.5v-18q0 -132 -91.5 -222.5t-227.5 -90.5zM1126 -12q-138 0 -228.5 88.5t-90.5 220.5v18q0 132 92.5 223t228.5 91t227 -89t91 -221v-18q0 -132 -92 -222.5t-228 -90.5zM379 834q71 0 116.5 49
t45.5 127v30q0 78 -46.5 128.5t-117.5 50.5t-116.5 -50t-45.5 -129v-30q0 -76 46.5 -126t117.5 -50zM1868 117q71 0 116.5 49t45.5 127v31q0 78 -46.5 128t-117.5 50t-116.5 -49.5t-45.5 -128.5v-31q0 -76 46.5 -126t117.5 -50zM1128 117q70 0 116 49.5t46 126.5v31
q0 78 -46.5 128t-117.5 50t-116 -49.5t-45 -128.5v-31q0 -76 46 -126t117 -50z" />
    <glyph glyph-name="guilsinglleft" unicode="&#x2039;" horiz-adv-x="645" 
d="M555 225v-8q0 -29 -20.5 -49.5t-53.5 -20.5h-4q-46 0 -116.5 50.5t-130.5 114t-104 119.5t-44 69q0 12 44 68t104 119.5t131 114t116 50.5h4q33 0 53.5 -21t20.5 -51v-6q0 -77 -301 -276q137 -91 219 -160t82 -113z" />
    <glyph glyph-name="guilsinglright" unicode="&#x203a;" horiz-adv-x="645" 
d="M92 225q0 45 83 115t218 158q-301 197 -301 276v6q0 30 19.5 51t52.5 21h2q46 0 117.5 -50.5t131.5 -114t104 -119.5t44 -68q0 -13 -44 -69t-104 -119.5t-131.5 -114t-117.5 -50.5h-2q-33 0 -52.5 20.5t-19.5 49.5v8z" />
    <glyph glyph-name="fraction" unicode="&#x2044;" horiz-adv-x="1333" 
d="M156 -16q-4 -3 -14.5 -3.5t-25 5.5t-27.5 14t-22.5 22t-9.5 31q0 27 12.5 50t45.5 59l1056 1190q4 3 14.5 3.5t25 -5.5t27.5 -14t22.5 -23t9.5 -33q0 -43 -58 -109z" />
    <glyph glyph-name="zero.sups" unicode="&#x2070;" horiz-adv-x="688" 
d="M342 569q-147 0 -229 92t-82 257v73q0 164 83.5 257t229.5 93t228.5 -92t82.5 -256v-73q0 -166 -82.5 -258.5t-230.5 -92.5zM344 702q73 0 111.5 52t38.5 153v99q0 99 -39 150.5t-113 51.5q-71 0 -109 -51t-38 -151v-99q0 -100 38.5 -152.5t110.5 -52.5z" />
    <glyph glyph-name="four.sups" unicode="&#x2074;" horiz-adv-x="688" 
d="M463 575q-33 0 -50.5 21t-17.5 57v115h-274q-44 0 -70 19.5t-26 50.5v28q2 31 36 88l226 316q23 39 49.5 51t89.5 12t89 -24t26 -82v-334h59q38 0 55 -14t17 -45v-7q0 -32 -16.5 -45.5t-55.5 -13.5h-59v-115q0 -78 -70 -78h-8zM399 1219l-233 -328h235z" />
    <glyph glyph-name="five.sups" unicode="&#x2075;" horiz-adv-x="688" 
d="M219 1192v-170q69 27 139 27q123 0 198 -63t75 -171q0 -114 -81 -180t-220 -66q-123 0 -200 44.5t-77 99.5q0 23 16.5 43.5t32.5 30t19 6.5q75 -101 207 -101q71 0 113 32t42 89q0 56 -40.5 88.5t-110.5 32.5q-93 0 -154 -45q-50 2 -74 25t-24 73v246q0 44 21 68t61 24
h358q78 0 78 -63v-7q0 -33 -19 -48t-59 -15h-301z" />
    <glyph glyph-name="six.sups" unicode="&#x2076;" horiz-adv-x="688" 
d="M385 1210q-85 0 -130.5 -57.5t-45.5 -167.5l2 -20q30 39 81 62.5t111 23.5q112 0 178 -58.5t66 -158.5v-7q0 -115 -78.5 -186.5t-206.5 -71.5q-147 0 -229 94t-82 255v67q0 167 86.5 261.5t237.5 94.5q116 0 182 -41.5t66 -99.5q0 -29 -20 -47t-39 -22.5t-21 -2.5
q-53 82 -158 82zM367 948q-80 0 -154 -78q3 -90 41.5 -137t110.5 -47q60 0 98.5 36t38.5 93v6q0 61 -35 94t-100 33z" />
    <glyph glyph-name="seven.sups" unicode="&#x2077;" horiz-adv-x="688" 
d="M59 1249v13q0 63 74 63h393q64 0 86.5 -22t22.5 -60v-12q0 -9 -2.5 -20.5t-5.5 -20t-9.5 -22.5t-9.5 -20t-11.5 -21.5t-10.5 -18.5l-258 -473q-33 -60 -86 -60q-24 0 -45 13t-30 27.5t-5 19.5l305 549h-334q-74 0 -74 65z" />
    <glyph glyph-name="eight.sups" unicode="&#x2078;" horiz-adv-x="688" 
d="M342 569q-142 0 -220.5 56.5t-78.5 158.5q0 135 145 181q-122 41 -122 165q0 97 75 155t205 58q128 0 201.5 -56.5t73.5 -153.5q0 -126 -123 -168q145 -43 145 -181q0 -99 -80.5 -157t-220.5 -58zM344 688q70 0 109 31t39 84t-40.5 85t-109.5 32q-67 0 -107 -32t-40 -85
q0 -52 40.5 -83.5t108.5 -31.5zM344 1006q62 0 97.5 29t35.5 77q0 51 -36 82t-99 31q-62 0 -97.5 -30.5t-35.5 -82.5q0 -47 37 -76.5t98 -29.5z" />
    <glyph glyph-name="nine.sups" unicode="&#x2079;" horiz-adv-x="688" 
d="M303 696q91 0 134.5 55.5t43.5 170.5v14q-67 -88 -194 -88q-110 0 -177 59.5t-67 159.5v6q0 116 78 192t205 76q147 0 229 -93t82 -257v-67q0 -172 -83.5 -263.5t-242.5 -91.5q-117 0 -182.5 40t-65.5 96q0 29 20 47.5t39 23t21 2.5q51 -82 160 -82zM326 948q84 0 155 78
q-2 91 -42.5 142t-110.5 51q-60 0 -100 -39.5t-40 -96.5v-8q0 -60 36 -93.5t102 -33.5z" />
    <glyph glyph-name="plus.sups" unicode="&#x207a;" horiz-adv-x="688" 
d="M131 891q-65 0 -65 55v8q0 56 65 56h152v155q0 32 15.5 49t39.5 17h14q26 0 41 -16.5t15 -49.5v-155h151q68 0 68 -56v-8q0 -55 -68 -55h-151v-162q0 -65 -56 -65h-14q-25 0 -40 16.5t-15 48.5v162h-152z" />
    <glyph glyph-name="minus.sups" unicode="&#x207b;" horiz-adv-x="688" 
d="M137 883q-65 0 -65 59v8q0 28 17 45t48 17h416q65 0 65 -62v-8q0 -59 -65 -59h-416z" />
    <glyph glyph-name="equal.sups" unicode="&#x207c;" horiz-adv-x="688" 
d="M137 1024q-31 0 -48 15.5t-17 39.5v13q0 24 17 38.5t48 14.5h416q65 0 65 -53v-13q0 -25 -16.5 -40t-48.5 -15h-416zM137 748q-31 0 -48 15.5t-17 39.5v10q0 25 16.5 40t48.5 15h416q65 0 65 -55v-10q0 -25 -16.5 -40t-48.5 -15h-416z" />
    <glyph glyph-name="parenleft.sups" unicode="&#x207d;" horiz-adv-x="688" 
d="M514 455q-60 0 -125.5 37t-121 100t-92 156.5t-36.5 195.5q0 100 36.5 193.5t92 157t121.5 101.5t125 38q37 0 56.5 -18t19.5 -50q0 -18 -10.5 -33.5t-18.5 -17.5q-111 -28 -187.5 -132.5t-76.5 -238.5q0 -135 76.5 -238.5t187.5 -130.5q8 -2 18.5 -19t10.5 -36
q0 -31 -19.5 -48t-56.5 -17z" />
    <glyph glyph-name="parenright.sups" unicode="&#x207e;" horiz-adv-x="688" 
d="M176 455q-35 0 -54.5 17t-19.5 48q0 19 10 36t17 19q110 26 181 129t71 240q0 136 -71 239.5t-181 131.5q-7 2 -17 17.5t-10 33.5q0 32 19.5 50t54.5 18q60 0 124.5 -38t118 -101.5t88 -157t34.5 -193.5q0 -103 -34.5 -196t-88 -156t-118 -100t-124.5 -37z" />
    <glyph glyph-name="zero.sinf" unicode="&#x2080;" horiz-adv-x="688" 
d="M342 -14q-147 0 -229 91.5t-82 256.5v74q0 164 83.5 257t229.5 93t228.5 -92t82.5 -256v-74q0 -166 -82.5 -258t-230.5 -92zM344 119q73 0 111.5 52t38.5 153v98q0 99 -39 151t-113 52q-71 0 -109 -51.5t-38 -151.5v-98q0 -100 38.5 -152.5t110.5 -52.5z" />
    <glyph glyph-name="one.sinf" unicode="&#x2081;" horiz-adv-x="688" 
d="M164 0q-76 0 -76 66v2q0 69 76 69h129v408q-41 -35 -96 -35q-46 0 -81.5 27.5t-35.5 70.5q0 25 11 45.5t22.5 29t15.5 7.5q33 -33 78 -33q40 0 72 26t38 67h56q73 0 73 -78v-535h103q78 0 78 -69v-2q0 -66 -78 -66h-385z" />
    <glyph glyph-name="two.sinf" unicode="&#x2082;" horiz-adv-x="688" 
d="M414 295q-8 -4 -33 -14t-34 -14t-29.5 -13.5t-29 -15t-24 -15.5t-23 -18.5t-16.5 -19.5t-13.5 -23.5t-6.5 -26.5h350q78 0 78 -63v-6q0 -34 -18.5 -50t-59.5 -16h-385q-57 0 -78.5 18.5t-21.5 65.5v35q0 54 16.5 95.5t51.5 72.5t69 51t90 45q10 5 37.5 18t37 18t30 16.5
t28.5 19t19 19t14.5 24t3.5 26.5q0 46 -34 74.5t-93 28.5q-67 0 -105.5 -37.5t-52.5 -95.5q-1 -2 -12 -2.5t-27.5 2.5t-32.5 9.5t-27 23t-11 40.5q0 72 76.5 131.5t203.5 59.5q129 0 201 -61t72 -169q0 -49 -16 -86.5t-50.5 -65t-64 -43.5t-80.5 -38z" />
    <glyph glyph-name="three.sinf" unicode="&#x2083;" horiz-adv-x="688" 
d="M627 211q0 -106 -79 -165.5t-224 -59.5q-127 0 -205 52t-78 116q0 24 9.5 41t23.5 25t28.5 11.5t25 3t11.5 -3.5q17 -57 65 -87.5t118 -30.5q69 0 112 29.5t43 78.5q0 51 -37 78t-104 27h-41q-76 0 -76 55v10q0 55 74 55h57q51 0 83 24.5t32 64.5q0 42 -41.5 69
t-104.5 27q-123 0 -163 -109q-1 -1 -10.5 -2t-24.5 4t-28.5 12.5t-23.5 24.5t-10 39q0 62 74.5 110t190.5 48q140 0 213 -53t73 -152q0 -118 -127 -156q144 -49 144 -186z" />
    <glyph glyph-name="four.sinf" unicode="&#x2084;" horiz-adv-x="688" 
d="M463 -8q-33 0 -50.5 21t-17.5 57v114h-274q-44 0 -70 19.5t-26 50.5v29q2 31 36 88l226 315q23 40 49.5 52t89.5 12t89 -24t26 -83v-334h59q38 0 55 -14t17 -45v-6q0 -32 -17 -46t-55 -14h-59v-114q0 -78 -70 -78h-8zM399 635l-233 -328h235z" />
    <glyph glyph-name="five.sinf" unicode="&#x2085;" horiz-adv-x="688" 
d="M219 608v-170q69 27 139 27q123 0 198 -63t75 -171q0 -114 -80.5 -179.5t-220.5 -65.5q-124 0 -200.5 44t-76.5 99q0 23 16.5 43.5t32.5 30t19 6.5q75 -100 207 -100q71 0 113 32t42 88t-40.5 88.5t-110.5 32.5q-93 0 -154 -45q-50 2 -74 25t-24 73v246q0 44 21 68t61 24
h358q78 0 78 -63v-6q0 -64 -78 -64h-301z" />
    <glyph glyph-name="six.sinf" unicode="&#x2086;" horiz-adv-x="688" 
d="M385 627q-85 0 -130.5 -58t-45.5 -168l2 -20q30 39 81 62.5t111 23.5q112 0 178 -58.5t66 -158.5v-6q0 -115 -78.5 -186.5t-206.5 -71.5q-147 0 -229 94t-82 254v67q0 167 86.5 262t237.5 95q115 0 181.5 -42t66.5 -100q0 -29 -20 -47t-39 -22t-21 -2q-53 82 -158 82z
M367 365q-80 0 -154 -78q3 -90 41.5 -137.5t110.5 -47.5q60 0 98.5 36t38.5 93v7q0 61 -35 94t-100 33z" />
    <glyph glyph-name="seven.sinf" unicode="&#x2087;" horiz-adv-x="688" 
d="M59 666v12q0 63 74 63h393q64 0 86.5 -22t22.5 -60v-12q0 -9 -2.5 -20.5t-5.5 -20t-9.5 -22.5t-9.5 -20t-11.5 -21.5t-10.5 -18.5l-258 -473q-33 -59 -86 -59q-24 0 -45 13t-30 27t-5 19l305 549h-334q-74 0 -74 66z" />
    <glyph glyph-name="eight.sinf" unicode="&#x2088;" horiz-adv-x="688" 
d="M342 -14q-142 0 -220.5 56.5t-78.5 158.5q0 134 145 180q-122 41 -122 166q0 97 75 155t205 58q128 0 201.5 -57t73.5 -154q0 -126 -123 -168q145 -43 145 -180q0 -99 -80.5 -157t-220.5 -58zM344 104q70 0 109 31t39 84t-40.5 85t-109.5 32q-67 0 -107 -32t-40 -85
q0 -52 40.5 -83.5t108.5 -31.5zM344 422q62 0 97.5 29t35.5 77q0 51 -36 82t-99 31q-62 0 -97.5 -30.5t-35.5 -82.5q0 -47 37 -76.5t98 -29.5z" />
    <glyph glyph-name="nine.sinf" unicode="&#x2089;" horiz-adv-x="688" 
d="M303 113q91 0 134.5 55t43.5 170v14q-67 -88 -194 -88q-110 0 -177 59.5t-67 159.5v6q0 116 78 192.5t205 76.5q147 0 229 -93t82 -257v-68q0 -172 -83.5 -263t-242.5 -91q-117 0 -182.5 39.5t-65.5 95.5q0 29 20 47.5t39 23.5t21 3q51 -82 160 -82zM326 365q85 0 155 77
q-2 91 -42.5 142t-110.5 51q-61 0 -100.5 -39.5t-39.5 -95.5v-8q0 -60 36 -93.5t102 -33.5z" />
    <glyph glyph-name="parenleft.sinf" unicode="&#x208d;" horiz-adv-x="688" 
d="M514 -129q-60 0 -125.5 37t-121 100t-92 156.5t-36.5 195.5q0 100 36.5 193.5t92 157t121.5 101.5t125 38q37 0 56.5 -18t19.5 -50q0 -18 -10.5 -33.5t-18.5 -17.5q-111 -28 -187.5 -132.5t-76.5 -238.5q0 -135 76.5 -238t187.5 -130q8 -2 18.5 -19t10.5 -36
q0 -31 -20 -48.5t-56 -17.5z" />
    <glyph glyph-name="parenright.sinf" unicode="&#x208e;" horiz-adv-x="688" 
d="M176 -129q-35 0 -54.5 17.5t-19.5 48.5q0 19 10 36t17 19q110 27 181 129t71 239q0 136 -71 239.5t-181 131.5q-7 2 -17 17.5t-10 33.5q0 32 19.5 50t54.5 18q60 0 124.5 -38t118 -101.5t88 -157t34.5 -193.5q0 -103 -34.5 -196t-88 -156t-118 -100t-124.5 -37z" />
    <glyph glyph-name="Euro" unicode="&#x20ac;" horiz-adv-x="1286" 
d="M143 750q-82 0 -82 65v16q0 64 82 64h119q43 212 183.5 333.5t345.5 121.5q95 0 177.5 -24.5t134.5 -63t81.5 -83.5t29.5 -87q0 -37 -26 -64t-52 -36.5t-30 -4.5q-57 95 -132 142t-188 47q-119 0 -203 -74.5t-118 -206.5h391q80 0 80 -64v-16q0 -65 -80 -65h-412v-166
h412q80 0 80 -66v-16q0 -66 -80 -66h-391q34 -133 121.5 -209.5t210.5 -76.5q114 0 187.5 51t125.5 153q4 6 31 -3t53.5 -37t26.5 -66q0 -41 -29 -88t-80 -89t-134 -70t-179 -28q-215 0 -356.5 122t-182.5 341h-117q-82 0 -82 66v16q0 66 82 66h103v166h-103z" />
    <glyph glyph-name="trademark" unicode="&#x2122;" horiz-adv-x="1398" 
d="M743 688q-55 0 -55 66v510q0 69 62 69h55q31 0 45.5 -10.5t23.5 -36.5l123 -301l123 301q10 27 25.5 37t42.5 10h53q62 0 62 -69v-510q0 -66 -56 -66h-18q-55 0 -55 66v387l-113 -289q-4 -12 -7.5 -17.5t-18 -10.5t-40.5 -5t-39.5 5.5t-15.5 9t-8 18.5l-115 287v-385
q0 -66 -51 -66h-23zM98 1204q-63 0 -63 60v6q0 57 63 57h432q62 0 62 -57v-6q0 -60 -62 -60h-147v-450q0 -66 -61 -66h-19q-27 0 -42 17.5t-15 48.5v450h-148z" />
    <glyph glyph-name="minus" unicode="&#x2212;" horiz-adv-x="1228" 
d="M242 453q-88 0 -88 79v15q0 80 88 80h743q88 0 88 -80v-15q0 -79 -88 -79h-743z" />
    <glyph glyph-name="uni2219" unicode="&#x2219;" horiz-adv-x="475" 
d="M221 377q-110 0 -110 108v25q0 54 28 83.5t82 29.5h29q55 0 83.5 -29.5t28.5 -83.5v-25q0 -108 -112 -108h-29z" />
    <glyph glyph-name="notequal" unicode="&#x2260;" horiz-adv-x="1228" 
d="M242 690q-88 0 -88 76v14q0 76 88 76h426l125 279q37 90 96 63l22 -8q30 -13 37 -37.5t-12 -79.5l-98 -217h147q88 0 88 -76v-14q0 -76 -88 -76h-233l-142 -311h375q88 0 88 -76v-16q0 -76 -88 -76h-438l-121 -279q-21 -50 -44 -64t-52 -1l-23 10q-62 23 -24 117l94 217
h-135q-88 0 -88 76v16q0 76 88 76h223l141 311h-364z" />
    <glyph glyph-name="lessequal" unicode="&#x2264;" horiz-adv-x="1228" 
d="M176 860q0 49 13 73t44 38l762 319q6 1 19 -10.5t25.5 -34.5t13.5 -47q6 -32 -21.5 -66.5t-79.5 -54.5l-563 -217l563 -213q51 -18 77 -51.5t24 -69.5q-1 -26 -13 -49.5t-25.5 -34.5t-19.5 -8l-762 316q-31 14 -44 37t-13 73zM248 193q-88 0 -88 75v15q0 75 88 75h731
q88 0 88 -75v-15q0 -75 -88 -75h-731z" />
    <glyph glyph-name="greaterequal" unicode="&#x2265;" horiz-adv-x="1228" 
d="M174 1202q2 24 14.5 47.5t25.5 35t17 9.5l764 -319q30 -15 44 -38.5t14 -72.5q0 -48 -14 -71.5t-44 -36.5l-764 -318q-5 -3 -18.5 8t-25.5 34.5t-13 49.5q-2 35 26 70.5t74 52.5l566 211l-566 217q-51 20 -78.5 54.5t-21.5 66.5zM248 197q-88 0 -88 75v17q0 76 88 76h731
q88 0 88 -76v-17q0 -75 -88 -75h-731z" />
    <glyph glyph-name="heart" unicode="&#x2665;" horiz-adv-x="1478" 
d="M1071 1004h8q142 0 231 -96.5t89 -245.5v-13q0 -80 -34 -153.5t-85 -127.5t-125.5 -110.5t-141 -97t-146.5 -91.5t-128 -89q-48 38 -128 89t-146.5 91.5t-140.5 97t-125.5 110.5t-85 127.5t-33.5 153.5v13q0 149 89 245.5t230 96.5h9q73 0 132.5 -25t97.5 -68t62.5 -91
t38.5 -105q14 56 38.5 104.5t63 91.5t98 68t132.5 25z" />
    <glyph glyph-name="uniF6BE" unicode="&#xf6be;" horiz-adv-x="471" 
d="M41 -410q-96 0 -152.5 37t-56.5 94q0 25 11 49t22.5 36t13.5 10q58 -58 131 -58q66 0 94.5 37t28.5 121v981q0 98 92 98h21q43 0 66.5 -22t23.5 -76v-993q0 -152 -75.5 -233t-219.5 -81z" />
    <glyph glyph-name="uniF6C3" unicode="&#xf6c3;" horiz-adv-x="1024" 
d="M412 -496q-18 -14 -45 -15t-47 18t-11 47l109 260q11 28 17 40.5t18 27.5t29.5 20.5t43.5 5.5h19q41 0 67.5 -23t26.5 -63v-10q0 -24 -15.5 -48.5t-50.5 -62.5z" />
    <glyph glyph-name="apple" unicode="&#xf8ff;" horiz-adv-x="1552" 
d="M702 -201l-104 254l-252 -106q-56 -22 -91 13t-13 91l104 254l-252 103q-36 15 -49.5 44t0 58.5t49.5 44.5l252 104l-104 252q-22 56 13.5 92t90.5 13l252 -105l104 254q23 54 74 54t74 -54l104 -254l252 105q55 23 91 -13t14 -92l-105 -252l252 -104q36 -15 49.5 -44
t0 -58.5t-49.5 -44.5l-252 -103l105 -254q22 -55 -13.5 -90.5t-91.5 -13.5l-252 106l-104 -254q-23 -55 -74 -55t-74 55zM776 -25l86 205q9 18 28.5 26t37.5 1l207 -82l-84 205q-13 45 28 65l203 86l-203 86q-18 9 -26 28t-2 38l84 207l-207 -84q-20 -6 -38.5 1.5
t-27.5 26.5l-86 203l-86 -203q-20 -41 -65 -28l-207 84l84 -207q6 -19 -2 -38t-25 -28l-205 -86l205 -86q18 -9 25.5 -27t1.5 -38l-84 -205l207 82q20 7 38 -1t27 -26z" />
    <glyph glyph-name="G.alt" horiz-adv-x="1468" 
d="M768 150q165 0 275.5 95t119.5 263h-375q-50 0 -74 19t-24 61v10q0 45 23.5 63.5t74.5 18.5h517q44 0 58.5 -20t14.5 -68v-23q0 -261 -169.5 -428.5t-436.5 -167.5q-203 0 -358.5 87t-239.5 243t-84 356q0 201 86 359t241 246t353 88q114 0 212.5 -28.5t159 -71t94.5 -89
t34 -86.5q0 -37 -27 -66t-54.5 -40t-31.5 -6q-58 96 -163.5 150t-219.5 54q-205 0 -336 -142t-131 -370q0 -225 129.5 -366t331.5 -141z" />
    <glyph glyph-name="I.alt" horiz-adv-x="880" 
d="M154 1147q-99 0 -99 84v10q0 84 99 84h573q50 0 74 -20t24 -64v-10q0 -84 -98 -84h-178v-969h178q98 0 98 -86v-10q0 -82 -98 -82h-573q-99 0 -99 82v10q0 86 99 86h184v969h-184z" />
    <glyph glyph-name="U.alt" horiz-adv-x="1331" 
d="M1116 -10q-131 0 -131 194v17q-60 -101 -167 -163.5t-243 -62.5q-233 0 -342.5 120.5t-109.5 377.5v766q0 46 24 71t68 25h27q94 0 94 -96v-754q0 -177 66 -253t216 -76q118 0 220 72t141 175v836q0 96 90 96h29q94 0 94 -96v-1227q0 -3 -10 -8t-28.5 -9.5t-37.5 -4.5z
" />
    <glyph glyph-name="Y.alt" horiz-adv-x="1222" 
d="M594 -10q-88 0 -88 96v428q-410 59 -410 576v149q0 47 23.5 71.5t66.5 24.5h29q92 0 92 -96v-152q0 -401 305 -401q155 0 230.5 99.5t75.5 304.5v149q0 96 92 96h26q90 0 90 -96v-145q0 -521 -409 -580v-428q0 -96 -92 -96h-31z" />
    <glyph glyph-name="one.alt" horiz-adv-x="839" 
d="M168 0q-96 0 -96 82v10q0 86 96 86h180v869q-60 -66 -147 -66q-72 0 -118 39t-46 102q0 20 5.5 38t13.5 30.5t16.5 21.5t15 12.5t8.5 2.5q50 -47 121 -47q65 0 111.5 44t54.5 111h72q92 0 92 -96v-1061h158q96 0 96 -86v-10q0 -82 -96 -82h-537z" />
    <glyph glyph-name="four.alt" horiz-adv-x="1204" 
d="M815 -10q-84 0 -84 96v268h-528q-69 0 -102 27.5t-33 73.5v26q0 37 14 69t56 101q9 15 14 23l342 567q50 96 129 96q29 0 55.5 -14t39 -29t9.5 -20l-457 -754h461v318q0 96 86 96h23q86 0 86 -96v-312h145q94 0 94 -82v-8q0 -82 -94 -82h-145v-268q0 -96 -88 -96h-23z
" />
    <glyph glyph-name="a.alt" horiz-adv-x="1198" 
d="M526 -27q-200 0 -330 144t-130 375q0 232 130.5 375t335.5 143q116 0 206 -46.5t134 -117.5q10 149 127 149q19 0 37 -4.5t27.5 -9.5t9.5 -8v-887q0 -96 -90 -96h-22q-91 0 -91 96v74q-125 -187 -344 -187zM565 141q126 0 216.5 82.5t90.5 206.5v209q-83 203 -303 203
q-138 0 -222.5 -96t-84.5 -254q0 -154 85.5 -252.5t217.5 -98.5z" />
    <glyph glyph-name="e.alt" horiz-adv-x="1105" 
d="M586 -27q-233 0 -376.5 142t-143.5 372q0 148 64.5 267.5t180 187.5t258.5 68q213 0 343 -137t130 -359v-16q0 -33 -13 -46.5t-48 -13.5h-727q10 -136 103 -220.5t233 -84.5q214 0 309 164q4 4 29 -3.5t51.5 -33t26.5 -63.5q0 -75 -118 -149.5t-302 -74.5zM567 856
q-121 0 -206.5 -78.5t-104.5 -202.5h590q-8 129 -82.5 205t-196.5 76z" />
    <glyph glyph-name="g.alt" horiz-adv-x="1198" 
d="M573 -408q-103 0 -190 24t-140 61.5t-82.5 79.5t-29.5 81q0 36 22.5 63.5t45 37.5t26.5 4q107 -179 342 -179q303 0 303 304v129q-121 -179 -346 -179q-206 0 -332 134t-126 360q0 216 133 357t333 141q114 0 204.5 -44t137.5 -112q12 141 125 141q18 0 36 -4.5t28 -9.5
t10 -8v-901q0 -480 -500 -480zM565 180q122 0 211.5 76t95.5 193v202q-41 91 -118 142t-185 51q-137 0 -222 -93t-85 -239q0 -151 82.5 -241.5t220.5 -90.5z" />
    <glyph glyph-name="j.alt" horiz-adv-x="471" 
d="M236 1196q-57 0 -89 29.5t-32 83.5q0 55 32 84.5t91 29.5q57 0 87.5 -29.5t30.5 -84.5q0 -113 -120 -113zM225 -401q-92 0 -92 96v1202q0 98 92 98h21q43 0 66.5 -22t23.5 -76v-1202q0 -96 -90 -96h-21z" />
    <glyph glyph-name="y.alt" horiz-adv-x="1148" 
d="M539 -408q-103 0 -187.5 24.5t-134 62.5t-76 79.5t-26.5 79.5q0 32 22 60t44 39.5t26 5.5q55 -92 125 -134t198 -42q152 0 222.5 67.5t70.5 220.5v129q-119 -174 -327 -174q-188 0 -283.5 115t-95.5 307v465q0 98 88 98h22q43 0 66.5 -22t23.5 -76v-434q0 -131 59.5 -206
t176.5 -75q88 0 158.5 47.5t111.5 126.5v463q0 176 127 176q18 0 36 -4.5t28 -9.5t10 -8v-930q0 -451 -485 -451z" />
    <glyph glyph-name="g.altacc" horiz-adv-x="1001" 
d="M481 -432q-248 0 -366.5 67t-118.5 205q0 104 87 175.5t226 95.5q-39 31 -39 92q0 57 56 106q-119 37 -188.5 125t-69.5 203q0 157 120 265t301 108q130 0 242 -64l47 82q25 41 52.5 59.5t64.5 18.5q34 0 61 -21t37 -41.5t6 -23.5l-159 -166q78 -94 78 -211
q0 -156 -119.5 -257t-306.5 -101h-37q-11 -17 -11 -35q0 -13 5 -23.5t18.5 -19t27 -14.5t40 -13.5t48 -12.5t60.5 -14t68 -16q286 -76 286 -268q0 -140 -136.5 -220.5t-379.5 -80.5zM492 418q102 0 165.5 62t63.5 161t-65 161t-169 62q-100 0 -163.5 -62t-63.5 -161t65 -161
t167 -62zM801 -137q0 21 -8.5 38t-27 30.5t-37 23.5t-51 19.5t-55 15.5t-63 15.5t-61.5 14.5q-133 -8 -220.5 -53.5t-87.5 -120.5q0 -66 75 -101.5t220 -35.5q150 0 233 40.5t83 113.5z" />
    <glyph glyph-name="aacute.alt" horiz-adv-x="1198" 
d="M526 -27q-200 0 -330 144t-130 375q0 232 130.5 375t335.5 143q116 0 206 -46.5t134 -117.5q10 149 127 149q19 0 37 -4.5t27.5 -9.5t9.5 -8v-887q0 -96 -90 -96h-22q-91 0 -91 96v74q-125 -187 -344 -187zM565 141q126 0 216.5 82.5t90.5 206.5v209q-83 203 -303 203
q-138 0 -222.5 -96t-84.5 -254q0 -154 85.5 -252.5t217.5 -98.5zM442 1137q-6 8 27.5 58t96 115.5t122.5 106.5q53 35 98 35q39 0 66 -22.5t27 -57.5q0 -72 -86 -125q-42 -27 -92 -50t-91.5 -35.5t-81 -21t-59.5 -8t-27 4.5z" />
    <glyph glyph-name="abreve.alt" horiz-adv-x="1198" 
d="M526 -27q-200 0 -330 144t-130 375q0 232 130.5 375t335.5 143q116 0 206 -46.5t134 -117.5q10 149 127 149q19 0 37 -4.5t27.5 -9.5t9.5 -8v-887q0 -96 -90 -96h-22q-91 0 -91 96v74q-125 -187 -344 -187zM565 141q122 0 211.5 78.5t95.5 198.5v221q-83 203 -303 203
q-138 0 -222.5 -96t-84.5 -254q0 -154 85.5 -252.5t217.5 -98.5zM610 1118q-65 0 -139 37.5t-123 91.5t-49 99q0 34 21 55.5t57 21.5q34 0 94.5 -51t142.5 -135q68 76 131.5 131t98.5 55q36 0 57 -21.5t21 -55.5q0 -47 -50.5 -101.5t-124.5 -90.5t-137 -36z" />
    <glyph glyph-name="acircumflex.alt" horiz-adv-x="1198" 
d="M526 -27q-200 0 -330 144t-130 375q0 232 130.5 375t335.5 143q116 0 206 -46.5t134 -117.5q10 149 127 149q19 0 37 -4.5t27.5 -9.5t9.5 -8v-887q0 -96 -90 -96h-22q-91 0 -91 96v74q-125 -187 -344 -187zM565 141q122 0 211.5 78.5t95.5 198.5v221q-83 203 -303 203
q-138 0 -222.5 -96t-84.5 -254q0 -154 85.5 -252.5t217.5 -98.5zM377 1120q-29 0 -47.5 18.5t-18.5 47.5q0 50 64 124t131.5 125t91.5 56q24 -5 91 -56t130.5 -125t63.5 -124q0 -29 -17.5 -47.5t-46.5 -18.5q-42 0 -94 51t-129 168q-81 -120 -129.5 -169.5t-89.5 -49.5z" />
    <glyph glyph-name="adieresis.alt" horiz-adv-x="1198" 
d="M526 -27q-200 0 -330 144t-130 375q0 232 130.5 375t335.5 143q116 0 206 -46.5t134 -117.5q10 149 127 149q19 0 37 -4.5t27.5 -9.5t9.5 -8v-887q0 -96 -90 -96h-22q-91 0 -91 96v74q-125 -187 -344 -187zM565 141q122 0 211.5 78.5t95.5 198.5v221q-83 203 -303 203
q-138 0 -222.5 -96t-84.5 -254q0 -154 85.5 -252.5t217.5 -98.5zM795 1118q-59 0 -92 32t-33 89q0 58 32.5 90.5t88.5 32.5t89 -32.5t33 -90.5q0 -56 -32.5 -88.5t-85.5 -32.5zM418 1118q-56 0 -89.5 32.5t-33.5 88.5q0 57 32.5 90t86.5 33q59 0 92 -32.5t33 -90.5
q0 -57 -32.5 -89t-88.5 -32z" />
    <glyph glyph-name="agrave.alt" horiz-adv-x="1198" 
d="M526 -27q-200 0 -330 144t-130 375q0 232 130.5 375t335.5 143q116 0 206 -46.5t134 -117.5q10 149 127 149q19 0 37 -4.5t27.5 -9.5t9.5 -8v-887q0 -96 -90 -96h-22q-91 0 -91 96v74q-125 -187 -344 -187zM565 141q126 0 216.5 82.5t90.5 206.5v209q-83 203 -303 203
q-138 0 -222.5 -96t-84.5 -254q0 -154 85.5 -252.5t217.5 -98.5zM422 1247q-88 54 -88 125q0 35 27 57.5t65 22.5q52 0 98 -35q61 -40 123.5 -106t96 -115.5t28.5 -58.5q-7 -4 -27 -4.5t-59 8t-80.5 21t-91.5 35.5t-92 50z" />
    <glyph glyph-name="amacron.alt" horiz-adv-x="1198" 
d="M526 -27q-200 0 -330 144t-130 375q0 232 130.5 375t335.5 143q116 0 206 -46.5t134 -117.5q10 149 127 149q19 0 37 -4.5t27.5 -9.5t9.5 -8v-887q0 -96 -90 -96h-22q-91 0 -91 96v74q-125 -187 -344 -187zM565 141q122 0 211.5 78.5t95.5 198.5v221q-83 203 -303 203
q-138 0 -222.5 -96t-84.5 -254q0 -154 85.5 -252.5t217.5 -98.5zM397 1151q-102 0 -102 80v12q0 36 27 56t75 20h439q102 0 102 -76v-12q0 -80 -102 -80h-439z" />
    <glyph glyph-name="aogonek.alt" horiz-adv-x="1198" 
d="M526 -27q-200 0 -330 144t-130 375q0 232 130.5 375t335.5 143q116 0 206 -46.5t134 -117.5q10 149 127 149q19 0 37 -4.5t27.5 -9.5t9.5 -8v-887q0 -72 -47 -88q-147 -120 -147 -201q0 -32 18.5 -51.5t48.5 -19.5q52 0 76 41q27 -2 47.5 -23.5t20.5 -54.5q0 -47 -43 -76
t-117 -29q-95 0 -151 46.5t-56 127.5q0 68 47 132t137 112q-37 19 -37 84v74q-125 -187 -344 -187zM565 141q126 0 216.5 82.5t90.5 206.5v209q-83 203 -303 203q-138 0 -222.5 -96t-84.5 -254q0 -154 85.5 -252.5t217.5 -98.5z" />
    <glyph glyph-name="aring.alt" horiz-adv-x="1198" 
d="M526 -27q-200 0 -330 144t-130 375q0 232 130.5 375t335.5 143q116 0 206 -46.5t134 -117.5q10 149 127 149q19 0 37 -4.5t27.5 -9.5t9.5 -8v-887q0 -96 -90 -96h-22q-91 0 -91 96v74q-125 -187 -344 -187zM565 141q126 0 216.5 82.5t90.5 206.5v209q-83 203 -303 203
q-138 0 -222.5 -96t-84.5 -254q0 -154 85.5 -252.5t217.5 -98.5zM612 1118q-108 0 -176.5 69.5t-68.5 174.5t70 175.5t177 70.5q108 0 177 -70t69 -176q0 -103 -70.5 -173.5t-177.5 -70.5zM612 1229q55 0 91 38t36 95q0 58 -36.5 97.5t-90.5 39.5t-89.5 -39t-35.5 -98
q0 -56 36.5 -94.5t88.5 -38.5z" />
    <glyph glyph-name="aringacute.alt" horiz-adv-x="1198" 
d="M526 -27q-200 0 -330 144t-130 375q0 232 130.5 375t335.5 143q116 0 206 -46.5t134 -117.5q10 149 127 149q19 0 37 -4.5t27.5 -9.5t9.5 -8v-887q0 -96 -90 -96h-22q-91 0 -91 96v74q-125 -187 -344 -187zM565 141q126 0 216.5 82.5t90.5 206.5v209q-83 203 -303 203
q-138 0 -222.5 -96t-84.5 -254q0 -154 85.5 -252.5t217.5 -98.5zM612 1118q-108 0 -176.5 69.5t-68.5 174.5t70 175.5t177 70.5q108 0 177 -70t69 -176q0 -103 -70.5 -173.5t-177.5 -70.5zM418 1677q-6 8 27.5 58.5t96 116t122.5 106.5q53 35 98 35q39 0 65.5 -22.5
t26.5 -57.5q0 -72 -86 -125q-42 -27 -92 -50t-91.5 -35.5t-80.5 -21.5t-59 -8.5t-27 4.5zM612 1229q55 0 91 38t36 95q0 58 -36.5 97.5t-90.5 39.5t-89.5 -39t-35.5 -98q0 -56 36.5 -94.5t88.5 -38.5z" />
    <glyph glyph-name="atilde.alt" horiz-adv-x="1198" 
d="M526 -27q-200 0 -330 144t-130 375q0 232 130.5 375t335.5 143q116 0 206 -46.5t134 -117.5q10 149 127 149q19 0 37 -4.5t27.5 -9.5t9.5 -8v-887q0 -96 -90 -96h-22q-91 0 -91 96v74q-125 -187 -344 -187zM565 141q122 0 211.5 78.5t95.5 198.5v221q-83 203 -303 203
q-138 0 -222.5 -96t-84.5 -254q0 -154 85.5 -252.5t217.5 -98.5zM362 1130q-33 0 -52 19.5t-19 52.5q0 79 46.5 138t113.5 59q56 0 134.5 -40.5t159.5 -113.5q19 61 46.5 101t58.5 40q34 0 53 -19.5t19 -53.5q0 -77 -47.5 -136t-112.5 -59q-59 0 -138.5 40.5t-156.5 113.5
q-49 -142 -105 -142z" />
    <glyph glyph-name="Yacute.alt" horiz-adv-x="1222" 
d="M473 1460q-6 8 27.5 58.5t96 116t122.5 106.5q53 35 98 35q39 0 65.5 -22.5t26.5 -57.5q0 -72 -86 -125q-42 -27 -92 -50t-91.5 -35.5t-80.5 -21.5t-59 -8.5t-27 4.5zM594 -10q-88 0 -88 96v428q-410 59 -410 576v149q0 47 23.5 71.5t66.5 24.5h29q92 0 92 -96v-152
q0 -401 305 -401q155 0 230.5 99.5t75.5 304.5v149q0 96 92 96h26q90 0 90 -96v-145q0 -521 -409 -580v-428q0 -96 -92 -96h-31z" />
    <glyph glyph-name="Ycircumflex.alt" horiz-adv-x="1222" 
d="M395 1458q-29 0 -47 18.5t-18 47.5q0 50 63.5 124t131 125t91.5 56q24 -5 91 -56t130.5 -125t63.5 -124q0 -30 -17 -48t-46 -18q-42 0 -94.5 51.5t-129.5 167.5q-81 -120 -129.5 -169.5t-89.5 -49.5zM594 -10q-88 0 -88 96v428q-410 59 -410 576v149q0 47 23.5 71.5
t66.5 24.5h29q92 0 92 -96v-152q0 -401 305 -401q155 0 230.5 99.5t75.5 304.5v149q0 96 92 96h26q90 0 90 -96v-145q0 -521 -409 -580v-428q0 -96 -92 -96h-31z" />
    <glyph glyph-name="Ydieresis.alt" horiz-adv-x="1222" 
d="M799 1458q-59 0 -92 32t-33 89q0 58 32.5 90.5t88.5 32.5t89.5 -32.5t33.5 -90.5q0 -56 -33 -88.5t-86 -32.5zM422 1458q-56 0 -89.5 32.5t-33.5 88.5q0 57 32.5 90t86.5 33q59 0 92 -32.5t33 -90.5q0 -57 -32.5 -89t-88.5 -32zM594 -10q-88 0 -88 96v428
q-410 59 -410 576v149q0 47 23.5 71.5t66.5 24.5h29q92 0 92 -96v-152q0 -401 305 -401q155 0 230.5 99.5t75.5 304.5v149q0 96 92 96h26q90 0 90 -96v-145q0 -521 -409 -580v-428q0 -96 -92 -96h-31z" />
    <glyph glyph-name="jcircumflex.alt" horiz-adv-x="471" 
d="M14 1120q-29 0 -47 18.5t-18 47.5q0 50 64 124t131.5 125t91.5 56q23 -5 90.5 -56t130.5 -125t63 -124q0 -30 -17 -48t-46 -18q-42 0 -94.5 51.5t-129.5 167.5q-81 -120 -129.5 -169.5t-89.5 -49.5zM225 -401q-92 0 -92 96v1202q0 98 92 98h21q43 0 66.5 -22t23.5 -76
v-1202q0 -96 -90 -96h-21z" />
    <glyph glyph-name="Gbreve.alt" horiz-adv-x="1468" 
d="M768 150q165 0 275.5 95t119.5 263h-375q-50 0 -74 19t-24 61v10q0 45 23.5 63.5t74.5 18.5h517q44 0 58.5 -20t14.5 -68v-23q0 -261 -169.5 -428.5t-436.5 -167.5q-203 0 -358.5 87t-239.5 243t-84 356q0 201 86 359t241 246t353 88q114 0 212.5 -28.5t159 -71t94.5 -89
t34 -86.5q0 -37 -27 -66t-54.5 -40t-31.5 -6q-58 96 -163.5 150t-219.5 54q-205 0 -336 -142t-131 -370q0 -225 129.5 -366t331.5 -141zM750 1456q-65 0 -139 37.5t-123.5 91t-49.5 98.5q0 34 21 56t57 22q56 0 238 -186q164 186 229 186q36 0 57 -22t21 -56
q0 -47 -50.5 -101t-124 -90t-136.5 -36z" />
    <glyph glyph-name="Gcircumflex.alt" horiz-adv-x="1468" 
d="M526 1458q-29 0 -47 18.5t-18 47.5q0 50 64 124t131.5 125t91.5 56q23 -5 90.5 -56t130.5 -125t63 -124q0 -30 -17 -48t-46 -18q-42 0 -94.5 51.5t-129.5 167.5q-81 -120 -129.5 -169.5t-89.5 -49.5zM768 150q165 0 275.5 95t119.5 263h-375q-50 0 -74 19t-24 61v10
q0 45 23.5 63.5t74.5 18.5h517q44 0 58.5 -20t14.5 -68v-23q0 -261 -169.5 -428.5t-436.5 -167.5q-203 0 -358.5 87t-239.5 243t-84 356q0 201 86 359t241 246t353 88q114 0 212.5 -28.5t159 -71t94.5 -89t34 -86.5q0 -37 -27 -66t-54.5 -40t-31.5 -6q-58 96 -163.5 150
t-219.5 54q-205 0 -336 -142t-131 -370q0 -225 129.5 -366t331.5 -141z" />
    <glyph glyph-name="Gcommaaccent.alt" horiz-adv-x="1468" 
d="M768 150q165 0 275.5 95t119.5 263h-375q-50 0 -74 19t-24 61v10q0 45 23.5 63.5t74.5 18.5h517q44 0 58.5 -20t14.5 -68v-23q0 -261 -169.5 -428.5t-436.5 -167.5q-203 0 -358.5 87t-239.5 243t-84 356q0 201 86 359t241 246t353 88q114 0 212.5 -28.5t159 -71t94.5 -89
t34 -86.5q0 -37 -27 -66t-54.5 -40t-31.5 -6q-58 96 -163.5 150t-219.5 54q-205 0 -336 -142t-131 -370q0 -225 129.5 -366t331.5 -141zM657 -496q-18 -14 -44.5 -15t-46.5 18t-11 47l109 260q11 28 17 40.5t18 27.5t29.5 20.5t43.5 5.5h19q41 0 67.5 -23t26.5 -63v-10
q0 -24 -15.5 -48.5t-50.5 -62.5z" />
    <glyph glyph-name="Gdotaccent.alt" horiz-adv-x="1468" 
d="M768 150q165 0 275.5 95t119.5 263h-375q-50 0 -74 19t-24 61v10q0 45 23.5 63.5t74.5 18.5h517q44 0 58.5 -20t14.5 -68v-23q0 -261 -169.5 -428.5t-436.5 -167.5q-203 0 -358.5 87t-239.5 243t-84 356q0 201 86 359t241 246t353 88q114 0 212.5 -28.5t159 -71t94.5 -89
t34 -86.5q0 -37 -27 -66t-54.5 -40t-31.5 -6q-58 96 -163.5 150t-219.5 54q-205 0 -336 -142t-131 -370q0 -225 129.5 -366t331.5 -141zM758 1458q-62 0 -98.5 35.5t-36.5 91.5t37.5 92.5t99.5 36.5q60 0 96.5 -36t36.5 -93q0 -56 -36.5 -91.5t-98.5 -35.5z" />
    <glyph glyph-name="Uacute.alt" horiz-adv-x="1331" 
d="M1116 -10q-131 0 -131 194v17q-60 -101 -167 -163.5t-243 -62.5q-233 0 -342.5 120.5t-109.5 377.5v766q0 46 24 71t68 25h27q94 0 94 -96v-754q0 -177 66 -253t216 -76q118 0 220 72t141 175v836q0 96 90 96h29q94 0 94 -96v-1227q0 -3 -10 -8t-28.5 -9.5t-37.5 -4.5z
M543 1460q-6 8 27 58.5t95.5 116.5t122.5 106q53 35 99 35q39 0 65.5 -22.5t26.5 -57.5q0 -72 -86 -125q-42 -27 -92 -50t-91.5 -35.5t-80.5 -21.5t-59 -8.5t-27 4.5z" />
    <glyph glyph-name="Ubreve.alt" horiz-adv-x="1331" 
d="M1116 -10q-131 0 -131 194v17q-60 -101 -167 -163.5t-243 -62.5q-233 0 -342.5 120.5t-109.5 377.5v766q0 46 24 71t68 25h27q94 0 94 -96v-754q0 -177 66 -253t216 -76q118 0 220 72t141 175v836q0 96 90 96h29q94 0 94 -96v-1227q0 -3 -10 -8t-28.5 -9.5t-37.5 -4.5z
M674 1456q-65 0 -139 37.5t-123.5 91t-49.5 98.5q0 34 21 56t57 22q56 0 238 -186q164 186 229 186q36 0 57 -22t21 -56q0 -47 -50.5 -101t-124 -90t-136.5 -36z" />
    <glyph glyph-name="Ucircumflex.alt" horiz-adv-x="1331" 
d="M440 1460q-29 0 -47 18.5t-18 47.5q0 50 64 124t131.5 125t91.5 56q23 -5 90.5 -56t130.5 -125t63 -124q0 -30 -17 -48t-46 -18q-42 0 -94.5 51.5t-129.5 167.5q-81 -120 -129.5 -169.5t-89.5 -49.5zM1116 -10q-131 0 -131 194v17q-60 -101 -167 -163.5t-243 -62.5
q-233 0 -342.5 120.5t-109.5 377.5v766q0 46 24 71t68 25h27q94 0 94 -96v-754q0 -177 66 -253t216 -76q118 0 220 72t141 175v836q0 96 90 96h29q94 0 94 -96v-1227q0 -3 -10 -8t-28.5 -9.5t-37.5 -4.5z" />
    <glyph glyph-name="Udieresis.alt" horiz-adv-x="1331" 
d="M852 1458q-59 0 -92 32t-33 89q0 58 32.5 90.5t88.5 32.5t89.5 -32.5t33.5 -90.5q0 -56 -33 -88.5t-86 -32.5zM475 1458q-56 0 -89.5 32.5t-33.5 88.5q0 57 33 90t86 33q59 0 92 -32.5t33 -90.5q0 -57 -32.5 -89t-88.5 -32zM1116 -10q-131 0 -131 194v17
q-60 -101 -167 -163.5t-243 -62.5q-233 0 -342.5 120.5t-109.5 377.5v766q0 46 24 71t68 25h27q94 0 94 -96v-754q0 -177 66 -253t216 -76q118 0 220 72t141 175v836q0 96 90 96h29q94 0 94 -96v-1227q0 -3 -10 -8t-28.5 -9.5t-37.5 -4.5z" />
    <glyph glyph-name="Ugrave.alt" horiz-adv-x="1331" 
d="M446 1571q-88 54 -88 125q0 34 27.5 57t65.5 23q52 0 98 -35q61 -40 123.5 -106.5t96 -116t28.5 -58.5q-7 -4 -27 -4.5t-59.5 8.5t-81 21.5t-91.5 35.5t-92 50zM1116 -10q-131 0 -131 194v17q-60 -101 -167 -163.5t-243 -62.5q-233 0 -342.5 120.5t-109.5 377.5v766
q0 46 24 71t68 25h27q94 0 94 -96v-754q0 -177 66 -253t216 -76q118 0 220 72t141 175v836q0 96 90 96h29q94 0 94 -96v-1227q0 -3 -10 -8t-28.5 -9.5t-37.5 -4.5z" />
    <glyph glyph-name="Uhungarumlaut.alt" horiz-adv-x="1331" 
d="M1116 -10q-131 0 -131 194v17q-60 -101 -167 -163.5t-243 -62.5q-233 0 -342.5 120.5t-109.5 377.5v766q0 46 24 71t68 25h27q94 0 94 -96v-754q0 -177 66 -253t216 -76q118 0 220 72t141 175v836q0 96 90 96h29q94 0 94 -96v-1227q0 -3 -10 -8t-28.5 -9.5t-37.5 -4.5z
M324 1475q-6 9 27 58.5t95 115.5t123 106q53 35 99 35q39 0 65.5 -22.5t26.5 -57.5q0 -72 -86 -125q-42 -27 -92 -50t-91.5 -35.5t-80.5 -21t-59 -8t-27 4.5zM727 1475q-6 8 27.5 58t96 115.5t122.5 106.5q53 35 98 35q39 0 65.5 -22.5t26.5 -57.5q0 -72 -86 -125
q-42 -27 -92 -50t-91.5 -35.5t-80.5 -21t-59 -8t-27 4.5z" />
    <glyph glyph-name="Umacron.alt" horiz-adv-x="1331" 
d="M463 1489q-103 0 -103 80v12q0 36 27.5 56t75.5 20h438q50 0 76.5 -19.5t26.5 -56.5v-12q0 -80 -103 -80h-438zM1116 -10q-131 0 -131 194v17q-60 -101 -167 -163.5t-243 -62.5q-233 0 -342.5 120.5t-109.5 377.5v766q0 46 24 71t68 25h27q94 0 94 -96v-754
q0 -177 66 -253t216 -76q118 0 220 72t141 175v836q0 96 90 96h29q94 0 94 -96v-1227q0 -3 -10 -8t-28.5 -9.5t-37.5 -4.5z" />
    <glyph glyph-name="Uogonek.alt" horiz-adv-x="1331" 
d="M872 -238q0 66 47 130t136 112q-70 36 -70 180v17q-60 -101 -167 -163.5t-243 -62.5q-233 0 -342.5 120.5t-109.5 377.5v766q0 46 24 71t68 25h27q94 0 94 -96v-754q0 -177 66 -253t216 -76q118 0 220 72t141 175v836q0 96 90 96h29q94 0 94 -96v-1227q0 -6 -16 -12
q-148 -118 -148 -199q0 -32 19 -51.5t49 -19.5q51 0 75 41q27 -2 47.5 -23.5t20.5 -54.5q0 -47 -43 -76t-117 -29q-95 0 -151 46.5t-56 127.5z" />
    <glyph glyph-name="Uring.alt" horiz-adv-x="1331" 
d="M680 1456q-108 0 -177 69.5t-69 174.5t70.5 175.5t177.5 70.5q108 0 177 -70t69 -176q0 -103 -70.5 -173.5t-177.5 -70.5zM680 1567q55 0 91 38t36 95q0 58 -36.5 97.5t-90.5 39.5t-89.5 -39t-35.5 -98q0 -56 36.5 -94.5t88.5 -38.5zM1116 -10q-131 0 -131 194v17
q-60 -101 -167 -163.5t-243 -62.5q-233 0 -342.5 120.5t-109.5 377.5v766q0 46 24 71t68 25h27q94 0 94 -96v-754q0 -177 66 -253t216 -76q118 0 220 72t141 175v836q0 96 90 96h29q94 0 94 -96v-1227q0 -3 -10 -8t-28.5 -9.5t-37.5 -4.5z" />
    <glyph glyph-name="eacute.alt" horiz-adv-x="1105" 
d="M586 -27q-233 0 -376.5 142t-143.5 372q0 148 64.5 267.5t180 187.5t258.5 68q213 0 343 -137t130 -359v-16q0 -33 -13 -46.5t-48 -13.5h-727q10 -136 103 -220.5t233 -84.5q214 0 309 164q4 4 29 -3.5t51.5 -33t26.5 -63.5q0 -75 -118 -149.5t-302 -74.5zM567 856
q-121 0 -206.5 -78.5t-104.5 -202.5h590q-8 129 -82.5 205t-196.5 76zM412 1137q-6 8 27 58t95.5 115.5t122.5 106.5q53 35 99 35q39 0 65.5 -22.5t26.5 -57.5q0 -72 -86 -125q-42 -27 -92 -50t-91.5 -35.5t-80.5 -21t-59 -8t-27 4.5z" />
    <glyph glyph-name="ebreve.alt" horiz-adv-x="1105" 
d="M586 -27q-233 0 -376.5 142t-143.5 372q0 148 64.5 267.5t180 187.5t258.5 68q213 0 343 -137t130 -359v-16q0 -33 -13 -46.5t-48 -13.5h-727q10 -136 103 -220.5t233 -84.5q214 0 309 164q4 4 29 -3.5t51.5 -33t26.5 -63.5q0 -75 -118 -149.5t-302 -74.5zM567 856
q-121 0 -206.5 -78.5t-104.5 -202.5h590q-8 129 -82.5 205t-196.5 76zM569 1118q-65 0 -139 37.5t-123 91.5t-49 99q0 34 21 55.5t57 21.5q34 0 94.5 -51t142.5 -135q68 76 131.5 131t98.5 55q36 0 57 -21.5t21 -55.5q0 -47 -50.5 -101.5t-124.5 -90.5t-137 -36z" />
    <glyph glyph-name="ecaron.alt" horiz-adv-x="1105" 
d="M586 -27q-233 0 -376.5 142t-143.5 372q0 148 64.5 267.5t180 187.5t258.5 68q213 0 343 -137t130 -359v-16q0 -33 -13 -46.5t-48 -13.5h-727q10 -136 103 -220.5t233 -84.5q214 0 309 164q4 4 29 -3.5t51.5 -33t26.5 -63.5q0 -75 -118 -149.5t-302 -74.5zM567 856
q-121 0 -206.5 -78.5t-104.5 -202.5h590q-8 129 -82.5 205t-196.5 76zM780 1462q29 0 46.5 -18.5t17.5 -48.5q0 -50 -63.5 -123.5t-131 -125t-90.5 -56.5q-23 5 -90.5 56.5t-131 125t-63.5 123.5q0 30 17.5 48.5t46.5 18.5q42 0 92.5 -51.5t128.5 -169.5q78 118 128.5 169.5
t92.5 51.5z" />
    <glyph glyph-name="ecircumflex.alt" horiz-adv-x="1105" 
d="M586 -27q-233 0 -376.5 142t-143.5 372q0 148 64.5 267.5t180 187.5t258.5 68q213 0 343 -137t130 -359v-16q0 -33 -13 -46.5t-48 -13.5h-727q10 -136 103 -220.5t233 -84.5q214 0 309 164q4 4 29 -3.5t51.5 -33t26.5 -63.5q0 -75 -118 -149.5t-302 -74.5zM567 856
q-121 0 -206.5 -78.5t-104.5 -202.5h590q-8 129 -82.5 205t-196.5 76zM346 1120q-29 0 -47 18.5t-18 47.5q0 50 63.5 124t131 125t91.5 56q24 -5 91 -56t130.5 -125t63.5 -124q0 -29 -17.5 -47.5t-46.5 -18.5q-42 0 -94 51t-129 168q-81 -120 -129.5 -169.5t-89.5 -49.5z
" />
    <glyph glyph-name="edieresis.alt" horiz-adv-x="1105" 
d="M758 1118q-59 0 -92 32t-33 89q0 58 32.5 90.5t88.5 32.5t89.5 -32.5t33.5 -90.5q0 -56 -33 -88.5t-86 -32.5zM381 1118q-56 0 -89.5 32.5t-33.5 88.5q0 57 33 90t86 33q59 0 92 -32.5t33 -90.5q0 -57 -32.5 -89t-88.5 -32zM586 -27q-233 0 -376.5 142t-143.5 372
q0 148 64.5 267.5t180 187.5t258.5 68q213 0 343 -137t130 -359v-16q0 -33 -13 -46.5t-48 -13.5h-727q10 -136 103 -220.5t233 -84.5q214 0 309 164q4 4 29 -3.5t51.5 -33t26.5 -63.5q0 -75 -118 -149.5t-302 -74.5zM567 856q-121 0 -206.5 -78.5t-104.5 -202.5h590
q-8 129 -82.5 205t-196.5 76z" />
    <glyph glyph-name="edotaccent.alt" horiz-adv-x="1105" 
d="M559 1120q-62 0 -98.5 35.5t-36.5 91.5t37.5 92.5t99.5 36.5q61 0 97 -36t36 -93q0 -56 -36.5 -91.5t-98.5 -35.5zM586 -27q-233 0 -376.5 142t-143.5 372q0 148 64.5 267.5t180 187.5t258.5 68q213 0 343 -137t130 -359v-16q0 -33 -13 -46.5t-48 -13.5h-727
q10 -136 103 -220.5t233 -84.5q214 0 309 164q4 4 29 -3.5t51.5 -33t26.5 -63.5q0 -75 -118 -149.5t-302 -74.5zM567 856q-121 0 -206.5 -78.5t-104.5 -202.5h590q-8 129 -82.5 205t-196.5 76z" />
    <glyph glyph-name="egrave.alt" horiz-adv-x="1105" 
d="M586 -27q-233 0 -376.5 142t-143.5 372q0 148 64.5 267.5t180 187.5t258.5 68q213 0 343 -137t130 -359v-16q0 -33 -13 -46.5t-48 -13.5h-727q10 -136 103 -220.5t233 -84.5q214 0 309 164q4 4 29 -3.5t51.5 -33t26.5 -63.5q0 -75 -118 -149.5t-302 -74.5zM567 856
q-121 0 -206.5 -78.5t-104.5 -202.5h590q-8 129 -82.5 205t-196.5 76zM344 1247q-88 54 -88 125q0 35 27 57.5t65 22.5q52 0 98 -35q61 -40 123.5 -106t96 -115.5t28.5 -58.5q-7 -4 -27 -4.5t-59 8t-80.5 21t-91.5 35.5t-92 50z" />
    <glyph glyph-name="emacron.alt" horiz-adv-x="1105" 
d="M348 1151q-102 0 -102 80v12q0 36 27 56t75 20h438q50 0 76.5 -19.5t26.5 -56.5v-12q0 -80 -103 -80h-438zM586 -27q-233 0 -376.5 142t-143.5 372q0 148 64.5 267.5t180 187.5t258.5 68q213 0 343 -137t130 -359v-16q0 -33 -13 -46.5t-48 -13.5h-727q10 -136 103 -220.5
t233 -84.5q214 0 309 164q4 4 29 -3.5t51.5 -33t26.5 -63.5q0 -75 -118 -149.5t-302 -74.5zM567 856q-121 0 -206.5 -78.5t-104.5 -202.5h590q-8 129 -82.5 205t-196.5 76z" />
    <glyph glyph-name="eogonek.alt" horiz-adv-x="1105" 
d="M586 -27q-233 0 -376.5 142t-143.5 372q0 148 64.5 267.5t180 187.5t258.5 68q213 0 343 -137t130 -359v-16q0 -33 -13 -46.5t-48 -13.5h-727q10 -136 103 -220.5t233 -84.5q214 0 309 164q4 4 29 -3.5t51.5 -33t26.5 -63.5t-37.5 -83t-102.5 -79q-149 -117 -149 -201
q0 -32 19 -52t48 -20q52 0 76 41q27 -2 47.5 -23t20.5 -54q0 -47 -43 -76t-117 -29q-95 0 -151 46.5t-56 127.5q0 97 94 182q-46 -4 -69 -4zM567 856q-121 0 -206.5 -78.5t-104.5 -202.5h590q-8 129 -82.5 205t-196.5 76z" />
    <glyph glyph-name="Iacute.alt" horiz-adv-x="880" 
d="M154 1147q-99 0 -99 84v10q0 84 99 84h573q50 0 74 -20t24 -64v-10q0 -84 -98 -84h-178v-969h178q98 0 98 -86v-10q0 -82 -98 -82h-573q-99 0 -99 82v10q0 86 99 86h184v969h-184zM313 1477q-6 8 27.5 58t96 115.5t122.5 106.5q53 35 98 35q39 0 66 -22.5t27 -57.5
q0 -72 -86 -125q-42 -27 -92 -50t-91.5 -35.5t-81 -21t-59.5 -8t-27 4.5z" />
    <glyph glyph-name="Ibreve.alt" horiz-adv-x="880" 
d="M154 1147q-99 0 -99 84v10q0 84 99 84h573q50 0 74 -20t24 -64v-10q0 -84 -98 -84h-178v-969h178q98 0 98 -86v-10q0 -82 -98 -82h-573q-99 0 -99 82v10q0 86 99 86h184v969h-184zM440 1456q-65 0 -139 37.5t-123 91t-49 98.5q0 34 21 56t57 22q34 0 94.5 -51t142.5 -135
q68 76 131.5 131t98.5 55q36 0 57 -22t21 -56q0 -47 -50.5 -101t-124.5 -90t-137 -36z" />
    <glyph glyph-name="Icircumflex.alt" horiz-adv-x="880" 
d="M219 1460q-29 0 -47 18.5t-18 47.5q0 50 63.5 124t131 125t91.5 56q24 -5 91 -56t130.5 -125t63.5 -124q0 -30 -17 -48t-46 -18q-42 0 -94.5 51.5t-129.5 167.5q-81 -120 -129.5 -169.5t-89.5 -49.5zM154 1147q-99 0 -99 84v10q0 84 99 84h573q50 0 74 -20t24 -64v-10
q0 -84 -98 -84h-178v-969h178q98 0 98 -86v-10q0 -82 -98 -82h-573q-99 0 -99 82v10q0 86 99 86h184v969h-184z" />
    <glyph glyph-name="Idieresis.alt" horiz-adv-x="880" 
d="M631 1458q-59 0 -92 32t-33 89q0 58 32.5 90.5t88.5 32.5t89.5 -32.5t33.5 -90.5q0 -56 -33 -88.5t-86 -32.5zM254 1458q-56 0 -89.5 32.5t-33.5 88.5q0 57 32.5 90t86.5 33q59 0 92 -32.5t33 -90.5q0 -57 -32.5 -89t-88.5 -32zM154 1147q-99 0 -99 84v10q0 84 99 84h573
q50 0 74 -20t24 -64v-10q0 -84 -98 -84h-178v-969h178q98 0 98 -86v-10q0 -82 -98 -82h-573q-99 0 -99 82v10q0 86 99 86h184v969h-184z" />
    <glyph glyph-name="Idotaccent.alt" horiz-adv-x="880" 
d="M154 1147q-99 0 -99 84v10q0 84 99 84h573q50 0 74 -20t24 -64v-10q0 -84 -98 -84h-178v-969h178q98 0 98 -86v-10q0 -82 -98 -82h-573q-99 0 -99 82v10q0 86 99 86h184v969h-184zM440 1458q-62 0 -98.5 35.5t-36.5 91.5t37.5 92.5t99.5 36.5q60 0 96.5 -36t36.5 -93
q0 -56 -36.5 -91.5t-98.5 -35.5z" />
    <glyph glyph-name="Igrave.alt" horiz-adv-x="880" 
d="M154 1147q-99 0 -99 84v10q0 84 99 84h573q50 0 74 -20t24 -64v-10q0 -84 -98 -84h-178v-969h178q98 0 98 -86v-10q0 -82 -98 -82h-573q-99 0 -99 82v10q0 86 99 86h184v969h-184zM217 1587q-88 54 -88 125q0 35 27 57.5t65 22.5q52 0 98 -35q61 -40 123.5 -106
t96 -115.5t28.5 -58.5q-7 -4 -27 -4.5t-59 8t-80.5 21t-91.5 35.5t-92 50z" />
    <glyph glyph-name="Imacron.alt" horiz-adv-x="880" 
d="M154 1147q-99 0 -99 84v10q0 84 99 84h573q50 0 74 -20t24 -64v-10q0 -84 -98 -84h-178v-969h178q98 0 98 -86v-10q0 -82 -98 -82h-573q-99 0 -99 82v10q0 86 99 86h184v969h-184zM221 1489q-102 0 -102 80v12q0 36 27 56t75 20h438q50 0 76.5 -19.5t26.5 -56.5v-12
q0 -80 -103 -80h-438z" />
    <glyph glyph-name="Iogonek.alt" horiz-adv-x="880" 
d="M154 1147q-99 0 -99 84v10q0 84 99 84h573q50 0 74 -20t24 -64v-10q0 -84 -98 -84h-178v-969h178q98 0 98 -86v-10q0 -52 -37 -70q-153 -121 -153 -205q0 -32 18.5 -51.5t48.5 -19.5q52 0 76 41q27 -2 47.5 -23.5t20.5 -54.5q0 -47 -43 -76t-117 -29q-94 0 -150.5 47
t-56.5 128q0 63 42 122.5t122 108.5h-489q-99 0 -99 82v10q0 86 99 86h184v969h-184z" />
    <glyph glyph-name="gbreve.alt" horiz-adv-x="1198" 
d="M573 -408q-103 0 -190 24t-140 61.5t-82.5 79.5t-29.5 81q0 36 22.5 63.5t45 37.5t26.5 4q107 -179 342 -179q303 0 303 304v129q-121 -179 -346 -179q-206 0 -332 134t-126 360q0 216 133 357t333 141q114 0 204.5 -44t137.5 -112q12 141 125 141q18 0 36 -4.5t28 -9.5
t10 -8v-901q0 -480 -500 -480zM565 180q122 0 211.5 76t95.5 193v202q-41 91 -118 142t-185 51q-137 0 -222 -93t-85 -239q0 -151 82.5 -241.5t220.5 -90.5zM586 1118q-65 0 -139 37.5t-123.5 91.5t-49.5 99q0 34 21 55.5t57 21.5q56 0 238 -186q164 186 229 186
q36 0 57 -21.5t21 -55.5q0 -47 -50.5 -101.5t-124 -90.5t-136.5 -36z" />
    <glyph glyph-name="gcircumflex.alt" horiz-adv-x="1198" 
d="M573 -408q-103 0 -190 24t-140 61.5t-82.5 79.5t-29.5 81q0 36 22.5 63.5t45 37.5t26.5 4q107 -179 342 -179q303 0 303 304v129q-121 -179 -346 -179q-206 0 -332 134t-126 360q0 216 133 357t333 141q114 0 204.5 -44t137.5 -112q12 141 125 141q18 0 36 -4.5t28 -9.5
t10 -8v-901q0 -480 -500 -480zM565 180q122 0 211.5 76t95.5 193v202q-41 91 -118 142t-185 51q-137 0 -222 -93t-85 -239q0 -151 82.5 -241.5t220.5 -90.5zM362 1120q-29 0 -47 18.5t-18 47.5q0 50 64 124t131.5 125t91.5 56q23 -5 90.5 -56t130.5 -125t63 -124
q0 -30 -17 -48t-46 -18q-42 0 -94 51t-129 168q-81 -119 -129.5 -169t-90.5 -50z" />
    <glyph glyph-name="gcommaaccent.alt" horiz-adv-x="1198" 
d="M573 -408q-103 0 -190 24t-140 61.5t-82.5 79.5t-29.5 81q0 36 22.5 63.5t45 37.5t26.5 4q107 -179 342 -179q303 0 303 304v129q-121 -179 -346 -179q-206 0 -332 134t-126 360q0 216 133 357t333 141q114 0 204.5 -44t137.5 -112q12 141 125 141q18 0 36 -4.5t28 -9.5
t10 -8v-901q0 -480 -500 -480zM565 180q122 0 211.5 76t95.5 193v202q-41 91 -118 142t-185 51q-137 0 -222 -93t-85 -239q0 -151 82.5 -241.5t220.5 -90.5zM680 1473q18 14 44.5 15t46.5 -18t11 -47l-108 -260q-11 -28 -17 -40.5t-18.5 -27.5t-30 -20.5t-43.5 -5.5h-18
q-41 0 -67.5 23t-26.5 63v10q0 24 15.5 48.5t49.5 62.5z" />
    <glyph glyph-name="gdotaccent.alt" horiz-adv-x="1198" 
d="M573 -408q-103 0 -190 24t-140 61.5t-82.5 79.5t-29.5 81q0 36 22.5 63.5t45 37.5t26.5 4q107 -179 342 -179q303 0 303 304v129q-121 -179 -346 -179q-206 0 -332 134t-126 360q0 216 133 357t333 141q114 0 204.5 -44t137.5 -112q12 141 125 141q18 0 36 -4.5t28 -9.5
t10 -8v-901q0 -480 -500 -480zM565 180q122 0 211.5 76t95.5 193v202q-41 91 -118 142t-185 51q-137 0 -222 -93t-85 -239q0 -151 82.5 -241.5t220.5 -90.5zM582 1120q-62 0 -99 35.5t-37 91.5t38 92.5t100 36.5q60 0 96.5 -36t36.5 -93q0 -56 -36.5 -91.5t-98.5 -35.5z" />
    <glyph glyph-name="yacute.alt" horiz-adv-x="1148" 
d="M539 -408q-103 0 -187.5 24.5t-134 62.5t-76 79.5t-26.5 79.5q0 32 22 60t44 39.5t26 5.5q55 -92 125 -134t198 -42q152 0 222.5 67.5t70.5 220.5v129q-119 -174 -327 -174q-188 0 -283.5 115t-95.5 307v465q0 98 88 98h22q43 0 66.5 -22t23.5 -76v-434q0 -131 59.5 -206
t176.5 -75q88 0 158.5 47.5t111.5 126.5v463q0 176 127 176q18 0 36 -4.5t28 -9.5t10 -8v-930q0 -451 -485 -451zM455 1120q-6 8 27 58.5t95.5 116.5t122.5 106q53 35 99 35q39 0 65.5 -22.5t26.5 -57.5q0 -72 -86 -125q-42 -27 -92 -50t-91.5 -35.5t-80.5 -21.5t-59 -8.5
t-27 4.5z" />
    <glyph glyph-name="ycircumflex.alt" horiz-adv-x="1148" 
d="M369 1120q-29 0 -47.5 18.5t-18.5 47.5q0 50 64 124t131.5 125t91.5 56q23 -5 90.5 -56t130.5 -125t63 -124q0 -30 -17 -48t-46 -18q-42 0 -94 51t-129 168q-81 -120 -129.5 -169.5t-89.5 -49.5zM539 -408q-103 0 -187.5 24.5t-134 62.5t-76 79.5t-26.5 79.5q0 32 22 60
t44 39.5t26 5.5q55 -92 125 -134t198 -42q152 0 222.5 67.5t70.5 220.5v129q-119 -174 -327 -174q-188 0 -283.5 115t-95.5 307v465q0 98 88 98h22q43 0 66.5 -22t23.5 -76v-434q0 -131 59.5 -206t176.5 -75q88 0 158.5 47.5t111.5 126.5v463q0 176 127 176q18 0 36 -4.5
t28 -9.5t10 -8v-930q0 -451 -485 -451z" />
    <glyph glyph-name="ydieresis.alt" horiz-adv-x="1148" 
d="M539 -408q-103 0 -187.5 24.5t-134 62.5t-76 79.5t-26.5 79.5q0 32 22 60t44 39.5t26 5.5q55 -92 125 -134t198 -42q152 0 222.5 67.5t70.5 220.5v129q-119 -174 -327 -174q-188 0 -283.5 115t-95.5 307v465q0 98 88 98h22q43 0 66.5 -22t23.5 -76v-434q0 -131 59.5 -206
t176.5 -75q88 0 158.5 47.5t111.5 126.5v463q0 176 127 176q18 0 36 -4.5t28 -9.5t10 -8v-930q0 -451 -485 -451zM772 1118q-59 0 -92 32t-33 89q0 58 32.5 90.5t88.5 32.5t89.5 -32.5t33.5 -90.5q0 -56 -33 -88.5t-86 -32.5zM395 1118q-56 0 -89.5 32.5t-33.5 88.5
q0 57 33 90t86 33q59 0 92 -32.5t33 -90.5q0 -57 -32.5 -89t-88.5 -32z" />
    <glyph glyph-name="eks" 
d="M766 786l205 213q19 19 45 19t46.5 -15.5t37 -37.5t15.5 -47.5t-19 -45.5l-213 -202l213 -203q19 -18 19 -43.5t-15.5 -46.5t-37.5 -37.5t-47 -16t-44 18.5l-203 211l-203 -211q-14 -14 -31.5 -17.5t-34 2t-32.5 16t-26.5 26.5t-16 32.5t-2 34t17.5 31.5l211 203
l-211 202q-19 18 -18.5 43.5t16 47t37.5 38t46.5 15.5t43.5 -19z" />
    <glyph glyph-name="chk" 
d="M1391 1657q32 56 92 52t85.5 -50t-3.5 -105l-756 -1329l-29 -4l-506 570q4 32 38 66.5t83 35.5q62 0 123 -72l264 -327z" />
    <glyph glyph-name="rndneg" 
d="M766 -72q-152 0 -288 57t-233.5 155t-154.5 234t-57 288q0 153 57 289t155 234t234 155t289 57q152 0 288.5 -57.5t234 -155t155 -234t57.5 -288.5q0 -204 -97.5 -372.5t-266.5 -265t-373 -96.5z" />
    <glyph glyph-name="rndpos" 
d="M18 662q0 154 58 292t157 237t237 156.5t292 57.5q205 0 376 -98.5t270 -269t99 -375.5q0 -154 -58.5 -292t-158 -236.5t-238 -156t-292.5 -57.5q-153 0 -291 58t-236.5 156.5t-156.5 236.5t-58 291zM1372 662q0 171 -80 312.5t-220.5 223.5t-309.5 82q-168 0 -308 -82
t-220 -224t-80 -312t79.5 -311.5t219 -222.5t307.5 -81q127 0 240.5 48t195 129.5t129 195.5t47.5 242z" />
    <glyph glyph-name="sqrneg" 
d="M1368 -25h-1200q-86 0 -86 91v1194q0 90 86 90h1200q86 0 86 -90v-1194q0 -91 -86 -91z" />
    <glyph glyph-name="sqrpos" 
d="M1368 -25h-1200q-86 0 -86 91v1194q0 90 86 90h1200q86 0 86 -90v-1194q0 -91 -86 -91zM1325 1221h-1114v-1117h1114v1117z" />
    <glyph glyph-name="dianeg" horiz-adv-x="1533" 
d="M848 1565l821 -822q79 -79 -4 -163l-815 -818q-84 -81 -166 -2l-819 822q-77 81 2 163l817 816q84 81 164 4z" />
    <glyph glyph-name="diapos" horiz-adv-x="1533" 
d="M1669 743q79 -79 -4 -163l-815 -818q-84 -81 -166 -2l-819 822q-77 81 2 163l817 816q84 81 164 4zM766 -137l801 801l-797 800l-801 -800z" />
    <glyph glyph-name="hexpos" 
d="M1401 262l-551 -498q-82 -82 -166 -2l-551 500q-32 30 -41.5 65.5t-9.5 102.5v477q0 65 9 100t36 60l555 494q85 79 166 2l559 -496q28 -25 37.5 -60t9.5 -100v-475q0 -67 -10.5 -103t-42.5 -67zM768 -133l557 502v602l-557 487l-557 -489v-600z" />
    <glyph glyph-name="hexneg" 
d="M1454 907v-475q0 -67 -10.5 -103t-42.5 -67l-551 -498q-82 -82 -166 -2l-551 500q-32 30 -41.5 65.5t-9.5 102.5v477q0 65 9 100t36 60l555 494q85 79 166 2l559 -496q28 -25 37.5 -60t9.5 -100z" />
    <glyph glyph-name="arw1_ee" horiz-adv-x="1228" 
d="M96 756h174l592 -6l-426 358q-9 27 24.5 77t92.5 50q33 0 61 -17t66 -57l465 -448q23 -22 23 -51.5t-23 -51.5l-465 -452q-72 -72 -133 -72q-40 0 -68.5 27.5t-38 56.5t-4.5 43l428 362l-594 -6h-174q-35 0 -35 35v117q0 35 35 35z" />
    <glyph glyph-name="arw1_ww" horiz-adv-x="1228" 
d="M1130 569h-174l-591 6l426 -358q9 -27 -24.5 -77t-92.5 -50q-33 0 -61 17t-66 57l-465 448q-23 22 -23 51.5t23 51.5l465 452q72 72 133 72q40 0 68.5 -27.5t38 -56.5t4.5 -43l-431 -362l596 6h174q35 0 35 -35v-117q0 -35 -35 -35z" />
    </font>
</defs>
</svg>
