<svg id="Capa_1" data-name="Capa 1" xmlns="http://www.w3.org/2000/svg" viewBox="0 0 30 30"><defs><style>.cls-1,.cls-2{fill:#af4c16;}.cls-1{stroke:#683314;stroke-linecap:round;stroke-linejoin:round;stroke-width:2.65px;}.cls-3{fill:#f5dc34;}.cls-4{fill:#fff;}.cls-5{opacity:0.3;}.cls-6{fill:#db9022;}</style></defs><title>star</title><path class="cls-1" d="M22.49,28a.63.63,0,0,1-.3-.07L15,24.13,7.81,27.94a.65.65,0,0,1-.67-.05c-.2-.14-.55-.38-.51-.62L8.26,19.2,2.43,13.48a5.17,5.17,0,0,1-.16-1.93c.08-.23.28-.14.52-.18l8-.15,3.6-7.35A.64.64,0,0,1,15,3.52h0a.64.64,0,0,1,.57.35l3.6,7.35,8,.15c.24,0,.44,0,.52.18a5.17,5.17,0,0,1-.16,1.93L21.74,19.2l1.62,8a.57.57,0,0,1,0,.18c0,.36-.54.64-.89.64Z"/><path class="cls-1" d="M22.49,26.48a.63.63,0,0,1-.3-.07L15,22.6,7.81,26.41a.65.65,0,0,1-.67-.05.63.63,0,0,1-.26-.62l1.38-8.07L2.43,12a.65.65,0,0,1-.16-.65.67.67,0,0,1,.52-.44l8-1.17,3.6-7.35A.64.64,0,0,1,15,2h0a.64.64,0,0,1,.57.35l3.6,7.35,8,1.17a.67.67,0,0,1,.52.44.65.65,0,0,1-.16.65l-5.83,5.72,1.36,8a.57.57,0,0,1,0,.18.64.64,0,0,1-.63.64Z"/><path class="cls-2" d="M22.49,28a.63.63,0,0,1-.3-.07L15,24.13,7.81,27.94a.65.65,0,0,1-.67-.05c-.2-.14-.55-.38-.51-.62L8.26,19.2,2.43,13.48a5.17,5.17,0,0,1-.16-1.93c.08-.23.28-.14.52-.18l8-.15,3.6-7.35A.64.64,0,0,1,15,3.52h0a.64.64,0,0,1,.57.35l3.6,7.35,8,.15c.24,0,.44,0,.52.18a5.17,5.17,0,0,1-.16,1.93L21.74,19.2l1.62,8a.57.57,0,0,1,0,.18c0,.36-.54.64-.89.64Z"/><path class="cls-3" d="M22.49,26.48a.63.63,0,0,1-.3-.07L15,22.6,7.81,26.41a.65.65,0,0,1-.67-.05.63.63,0,0,1-.26-.62l1.38-8.07L2.43,12a.65.65,0,0,1-.16-.65.67.67,0,0,1,.52-.44l8-1.17,3.6-7.35A.64.64,0,0,1,15,2h0a.64.64,0,0,1,.57.35l3.6,7.35,8,1.17a.67.67,0,0,1,.52.44.65.65,0,0,1-.16.65l-5.83,5.72,1.36,8a.57.57,0,0,1,0,.18.64.64,0,0,1-.63.64Z"/><path class="cls-4" d="M14.45,3.52c-.55.87-2.46,4.59.25,3.56,2.46-.94,1-5.48-.25-3.56C14.14,4,14.7,3.11,14.45,3.52Z"/><path class="cls-4" d="M12.56,7.56a1.27,1.27,0,0,0-.63,1.11,1.11,1.11,0,0,0,.5.76,1.14,1.14,0,0,0,1.13-.07,1.08,1.08,0,0,0,.17-1.48A1.06,1.06,0,0,0,12.56,7.56Z"/><path class="cls-4" d="M7.82,11c-1.06-.29-5.48-.15-4.09,1.39,1.93,2.13,5.58-1,4.09-1.39Z"/><g class="cls-5"><path class="cls-6" d="M27.73,11.3a.67.67,0,0,0-.52-.44L20.8,9.92A11.59,11.59,0,0,1,9.32,21.06a10.84,10.84,0,0,1-1.62-.12l-.82,4.8a.63.63,0,0,0,.26.62.65.65,0,0,0,.67.05L15,22.6l7.19,3.81a.63.63,0,0,0,.3.07h0a.64.64,0,0,0,.63-.64.57.57,0,0,0,0-.18l-1.36-8L27.57,12A.65.65,0,0,0,27.73,11.3Z"/></g><g class="cls-5"><path class="cls-6" d="M27.73,11.3a.67.67,0,0,0-.52-.44l-4.82-.7c0,.12,0,.25,0,.38A12.24,12.24,0,0,1,10.28,22.66a12,12,0,0,1-2.82-.35l-.58,3.43a.63.63,0,0,0,.26.62.65.65,0,0,0,.67.05L15,22.6l7.19,3.81a.63.63,0,0,0,.3.07h0a.64.64,0,0,0,.63-.64.57.57,0,0,0,0-.18l-1.36-8L27.57,12A.65.65,0,0,0,27.73,11.3Z"/></g></svg>