<svg id="Capa_1" data-name="Capa 1" xmlns="http://www.w3.org/2000/svg" viewBox="0 0 52.62 52.62"><defs><style>.cls-1{fill:#fff;}</style></defs><title>bad-white</title><path class="cls-1" d="M48.75,39.49,36.27,27a1,1,0,0,1,0-1.42L48.75,13.13a1,1,0,0,0,0-1.41L40.9,3.87a1,1,0,0,0-1.41,0L27,16.35a1,1,0,0,1-1.42,0L13.13,3.87a1,1,0,0,0-1.42,0L3.87,11.72a1,1,0,0,0,0,1.41L16.34,25.6a1,1,0,0,1,0,1.42L3.87,39.49a1,1,0,0,0,0,1.41l7.84,7.85a1,1,0,0,0,1.42,0L25.6,36.27a1,1,0,0,1,1.42,0L39.49,48.75a1,1,0,0,0,1.41,0l7.85-7.85a1,1,0,0,0,0-1.41"/></svg>