<?xml version="1.0" encoding="utf-8"?>
<!-- Generator: Adobe Illustrator 25.2.1, SVG Export Plug-In . SVG Version: 6.00 Build 0)  -->
<svg version="1.1" id="Capa_1" xmlns="http://www.w3.org/2000/svg" xmlns:xlink="http://www.w3.org/1999/xlink" x="0px" y="0px"
	 viewBox="0 0 52.6 52.6" style="enable-background:new 0 0 52.6 52.6;" xml:space="preserve">
<style type="text/css">
	.st0{fill:#FF3A70;stroke:#FF3A70;stroke-width:1.1554;stroke-miterlimit:10;}
</style>
<path class="st0" d="M33.2,26.3L45.6,12c1.9-2.2,1.7-5.4-0.5-7.3C43,2.8,39.7,3,37.8,5.2L26.3,18.4L14.8,5.2C12.9,3,9.6,2.8,7.5,4.7
	S5.1,9.9,7,12l12.4,14.3L7,40.6c-1.9,2.2-1.7,5.4,0.5,7.3c1,0.9,2.2,1.3,3.4,1.3c1.5,0,2.9-0.6,3.9-1.8l11.5-13.2l11.5,13.2
	c1,1.2,2.5,1.8,3.9,1.8c1.2,0,2.4-0.4,3.4-1.3c2.2-1.9,2.4-5.2,0.5-7.3L33.2,26.3z"/>
</svg>
