<svg id="Capa_1" data-name="Capa 1" xmlns="http://www.w3.org/2000/svg" viewBox="0 0 60 60"><defs><style>.cls-1{fill:#ff3a70;}.cls-2{fill:#fff;}</style></defs><title>bad</title><path class="cls-1" d="M58.05,30A28.06,28.06,0,1,0,30,58.06,28.06,28.06,0,0,0,58.05,30"/><path class="cls-2" d="M40.75,37.4l-6-6a.48.48,0,0,1,0-.68l6-6a.5.5,0,0,0,0-.68L37,20.34a.48.48,0,0,0-.68,0l-6,6a.5.5,0,0,1-.68,0l-6-6a.47.47,0,0,0-.67,0L19.25,24.1a.48.48,0,0,0,0,.68l6,6a.48.48,0,0,1,0,.68l-6,6a.48.48,0,0,0,0,.68L23,41.84a.48.48,0,0,0,.67,0l6-6a.48.48,0,0,1,.68,0l6,6a.5.5,0,0,0,.68,0l3.76-3.76a.5.5,0,0,0,0-.68"/></svg>