<svg id="Capa_1" data-name="Capa 1" xmlns="http://www.w3.org/2000/svg" viewBox="0 0 28 112"><path d="M8.35,22.72a4.29,4.29,0,0,1-5.78,1.36L2.42,24a4.28,4.28,0,0,1-1.36-5.78L10.28,2.58a4.3,4.3,0,0,1,5.87-1.51l.15.09a4.3,4.3,0,0,1,1.37,5.78L8.44,22.57Z" style="fill:#c1272d"/><path d="M26.85,22.69A4.24,4.24,0,0,1,25.44,24,4.3,4.3,0,0,1,20.92,24a4.35,4.35,0,0,1-1.35-1.41L10.29,7a4.29,4.29,0,0,1,7.37-4.38l9.28,15.6A4.28,4.28,0,0,1,26.85,22.69Z" style="fill:#c1272d"/><path d="M17.76,97.21a4.29,4.29,0,0,1-7.89-2.32L9.69,6.26a4.29,4.29,0,1,1,8.57,0l.18,88.63A4.3,4.3,0,0,1,17.76,97.21Z" style="fill:#c1272d"/><path d="M21.94,107.15A9.54,9.54,0,0,1,4.39,102h0a9.54,9.54,0,0,1,19.07,0A9.37,9.37,0,0,1,21.94,107.15ZM13,102a1,1,0,0,0,1,1,1,1,0,0,0,0-1.93,1,1,0,0,0-1,1Z" style="fill:#c1272d"/></svg>