<svg id="Capa_1" data-name="Capa 1" xmlns="http://www.w3.org/2000/svg" viewBox="0 0 28 133"><path d="M8.35,22.7a4.29,4.29,0,0,1-5.78,1.36L2.42,24a4.28,4.28,0,0,1-1.36-5.78L10.28,2.56a4.3,4.3,0,0,1,5.87-1.51l.15.09a4.3,4.3,0,0,1,1.37,5.78L8.44,22.55Z" style="fill:#39b54a"/><path d="M26.85,22.67A4.24,4.24,0,0,1,25.44,24a4.3,4.3,0,0,1-4.52-.08,4.35,4.35,0,0,1-1.35-1.41L10.29,6.93a4.29,4.29,0,0,1,7.37-4.38l9.28,15.6A4.28,4.28,0,0,1,26.85,22.67Z" style="fill:#39b54a"/><path d="M17.76,118.23a4.29,4.29,0,0,1-7.89-2.32L9.69,6.24a4.29,4.29,0,1,1,8.57,0l.18,109.67A4.3,4.3,0,0,1,17.76,118.23Z" style="fill:#39b54a"/><path d="M21.94,128.17A9.54,9.54,0,0,1,4.39,123h0a9.54,9.54,0,1,1,19.07,0A9.37,9.37,0,0,1,21.94,128.17ZM13,123a1,1,0,0,0,1,1,1,1,0,1,0-1-1Z" style="fill:#39b54a"/></svg>