<svg id="Capa_1" data-name="Capa 1" xmlns="http://www.w3.org/2000/svg" viewBox="0 0 449 449"><circle cx="224.26" cy="224.47" r="192.98" style="fill:#f9f3dc"/><ellipse cx="219.39" cy="230.61" rx="179.42" ry="178.5" transform="translate(-39.54 45.49) rotate(-10.87)" style="fill:#fffdf5"/><path d="M224.5,51.52a2,2,0,0,1-2-2V30.77a2,2,0,0,1,4,0V49.52A2,2,0,0,1,224.5,51.52Z" style="fill:#c97231"/><path d="M312,75a1.93,1.93,0,0,1-1-.27,2,2,0,0,1-.73-2.73l9.37-16.24a2,2,0,0,1,3.47,2L313.72,74A2,2,0,0,1,312,75Z" style="fill:#c97231"/><path d="M376,139a2,2,0,0,1-1-3.73l16.24-9.38a2,2,0,0,1,2,3.47L377,138.74A2,2,0,0,1,376,139Z" style="fill:#c97231"/><path d="M418.23,226.5H399.48a2,2,0,0,1,0-4h18.75a2,2,0,0,1,0,4Z" style="fill:#c97231"/><path d="M392.27,323.37a2,2,0,0,1-1-.27L375,313.72a2,2,0,1,1,2-3.46l16.24,9.37a2,2,0,0,1-1,3.74Z" style="fill:#c97231"/><path d="M321.37,394.28a2,2,0,0,1-1.74-1L310.26,377a2,2,0,0,1,3.46-2l9.38,16.24a2,2,0,0,1-.73,2.73A2,2,0,0,1,321.37,394.28Z" style="fill:#c97231"/><path d="M224.5,420.23a2,2,0,0,1-2-2V399.48a2,2,0,0,1,4,0v18.75A2,2,0,0,1,224.5,420.23Z" style="fill:#c97231"/><path d="M127.63,394.28a2,2,0,0,1-1-.27,2,2,0,0,1-.73-2.73L135.28,375a2,2,0,1,1,3.46,2l-9.37,16.24A2,2,0,0,1,127.63,394.28Z" style="fill:#c97231"/><path d="M56.73,323.37a2,2,0,0,1-1-3.74L72,310.26a2,2,0,1,1,2,3.46L57.72,323.1A2,2,0,0,1,56.73,323.37Z" style="fill:#c97231"/><path d="M49.52,226.5H30.77a2,2,0,0,1,0-4H49.52a2,2,0,0,1,0,4Z" style="fill:#c97231"/><path d="M73,139a2,2,0,0,1-1-.27l-16.24-9.37a2,2,0,0,1,2-3.47L74,135.28A2,2,0,0,1,73,139Z" style="fill:#c97231"/><path d="M137,75a2,2,0,0,1-1.73-1L125.9,57.72a2,2,0,0,1,3.47-2L138.74,72a2,2,0,0,1-.73,2.73A1.93,1.93,0,0,1,137,75Z" style="fill:#c97231"/><path d="M300.17,76.05a2.16,2.16,0,0,1,1.55-.69,1.4,1.4,0,0,1,1.33,1.34v30a1.38,1.38,0,1,1-2.75,0V80.17l-7.51,8.2c-1.29,1.25-3.3-.64-2.06-2Z" style="fill:#373737"/><path d="M301.68,110.37a3.68,3.68,0,0,1-2.47-.93A3.61,3.61,0,0,1,298,106.7V86.05l-3.64,4a3.66,3.66,0,0,1-5.19-.06,3.61,3.61,0,0,1-.13-5.13l9.57-10.46a4.39,4.39,0,0,1,3.09-1.29,3.66,3.66,0,0,1,3.62,3.62v30A3.63,3.63,0,0,1,301.68,110.37Zm-9.25-22.44h0Z" style="fill:#373737"/><path d="M362.82,142a6,6,0,0,0,1.24-3.69,6.16,6.16,0,1,0-12.32,0,1.42,1.42,0,0,1-2.83,0,9,9,0,0,1,17.94,0,9.08,9.08,0,0,1-1.8,5.37l-12.19,15.84h13.05a1.42,1.42,0,0,1,0,2.83H350a1.44,1.44,0,0,1-1.21-2.23Z" style="fill:#373737"/><path d="M365.91,164.64H350a3.65,3.65,0,0,1-3.24-1.88,3.79,3.79,0,0,1,.08-3.82l.15-.21,14-18.11a3.7,3.7,0,0,0,.78-2.3,3.88,3.88,0,1,0-7.75,0,3.65,3.65,0,0,1-3.7,3.67,3.77,3.77,0,0,1-2.48-.91,3.6,3.6,0,0,1-1.22-2.76,11.26,11.26,0,1,1,20.25,6.74l-9.38,12.18h8.41a3.7,3.7,0,0,1,0,7.4Z" style="fill:#373737"/><path d="M369.05,230.61a6.19,6.19,0,0,0,12.37,0,6.23,6.23,0,0,0-6.18-6.23c-1.72,0-1.59-2.74,0-2.74a6.16,6.16,0,1,0,0-12.32,6.08,6.08,0,0,0-6.14,6.18,1.42,1.42,0,0,1-2.84,0A9,9,0,1,1,380,223.09a8.9,8.9,0,0,1,4.12,7.56,9,9,0,1,1-17.9,0A1.4,1.4,0,0,1,369.05,230.61Z" style="fill:#373737"/><path d="M375.16,241.91A11.23,11.23,0,0,1,364,230.65a3.68,3.68,0,0,1,7.36-.15v.11a3.9,3.9,0,0,0,7.79,0,3.92,3.92,0,0,0-3.92-3.94h0a3.41,3.41,0,0,1-2.68-1.25,3.75,3.75,0,0,1-.82-2.37,3.58,3.58,0,0,1,3.53-3.7,3.88,3.88,0,1,0-2.77-6.61,3.84,3.84,0,0,0-1.09,2.73,3.62,3.62,0,0,1-3.6,3.69,3.66,3.66,0,0,1-3.8-3.51v-.11a11.24,11.24,0,1,1,19.57,7.5,11.2,11.2,0,0,1,2.9,7.57,11.32,11.32,0,0,1-11.19,11.26Zm.08-19.77h0Z" style="fill:#373737"/><path d="M344.28,278a1.38,1.38,0,1,1,2.75,0v14h12.1V278a1.38,1.38,0,1,1,2.75,0v30.83a1.38,1.38,0,1,1-2.75,0v-14H346.34a1.84,1.84,0,0,1-2.06-2.1Z" style="fill:#373737"/><path d="M360.51,312.54a3.68,3.68,0,0,1-2.47-.93,3.61,3.61,0,0,1-1.19-2.74V297.12H346.34a4.09,4.09,0,0,1-4.34-4.39V278a3.66,3.66,0,1,1,7.31,0V289.8h7.54V278a3.66,3.66,0,1,1,7.32,0v30.83A3.63,3.63,0,0,1,360.51,312.54Z" style="fill:#373737"/><path d="M292.59,333.83a1.83,1.83,0,0,1,2.1-2.06h14.25a1.4,1.4,0,0,1,0,2.79H295.42v12.36h6.27c5.62,0,8.88,3.13,8.84,8.54,0,5.67-3.52,9.32-8.93,9.32a14,14,0,0,1-8.67-2.62c-1.46-1.16.34-3.26,1.76-2.15a11.69,11.69,0,0,0,6.87,1.93c3.82,0,6.18-2.49,6.18-6.48s-1.93-5.71-5.92-5.71h-7.17a1.87,1.87,0,0,1-2.06-2.1Z" style="fill:#373737"/><path d="M301.6,367.06a16.18,16.18,0,0,1-10-3.07l-.05,0a3.56,3.56,0,0,1-.6-5.1,3.67,3.67,0,0,1,5.2-.63,9.55,9.55,0,0,0,5.45,1.44c3.22,0,3.89-2.28,3.89-4.2,0-2.59-.88-3.42-3.63-3.42h-7.17a4.14,4.14,0,0,1-4.35-4.39V333.83a4.09,4.09,0,0,1,4.39-4.35h14.25a3.68,3.68,0,0,1,0,7.36H297.71v7.79h4a11.31,11.31,0,0,1,8.27,3,10.7,10.7,0,0,1,2.86,7.82C312.76,362.41,308.26,367.06,301.6,367.06Z" style="fill:#373737"/><path d="M218.22,370c0-10.52,3.39-16.49,9.53-16.49a8.72,8.72,0,0,1,7.86,5.07,1.38,1.38,0,0,1-2.49,1.2,5.9,5.9,0,0,0-5.37-3.48c-4.25,0-6.69,4.81-6.69,13.61v.95a9.1,9.1,0,1,1-2.84,6.69Zm9,13.69a6.14,6.14,0,1,0-6.14-6.14A6.1,6.1,0,0,0,227.2,383.67Z" style="fill:#373737"/><path d="M227.2,388.83a11.29,11.29,0,0,1-11.26-11.3V370c0-16.94,8.26-18.77,11.81-18.77a11,11,0,0,1,9.9,6.33l0,.06a3.67,3.67,0,0,1-6.6,3.2,3.63,3.63,0,0,0-3.33-2.23c-2.33,0-3.87,3-4.29,8.26a11.5,11.5,0,0,1,3.74-.6,11.3,11.3,0,0,1,0,22.6Zm0-15.15a3.86,3.86,0,1,0,3.8,3.85A3.86,3.86,0,0,0,227.2,373.68Z" style="fill:#373737"/><path d="M155.79,334.62a1.63,1.63,0,0,1,1.5,2.36l-3.17,12.7,2.23,0c1.76,0,1.8,2.83,0,2.83h-3l-3.56,14a1.43,1.43,0,0,1-2.79-.61l3.39-13.35-2.19,0c-1.76,0-1.81-2.84-.05-2.84h2.92l3-12.27-13.66,0a1.42,1.42,0,0,1,0-2.83Z" style="fill:#373737"/><path d="M148.54,369.75a4.63,4.63,0,0,1-.81-.08,3.65,3.65,0,0,1-2.91-4.23l0-.18,2.68-10.54a3.66,3.66,0,0,1-2.89-3.65,3.77,3.77,0,0,1,.85-2.41,3.49,3.49,0,0,1,2.73-1.26h1.12l1.86-7.7-10.74,0a3.71,3.71,0,0,1-.16-7.41h15.48a3.89,3.89,0,0,1,3.19,1.58,4.14,4.14,0,0,1,.51,3.69L157,347.43a3.66,3.66,0,0,1,2.94,3.65,3.56,3.56,0,0,1-3.59,3.68H155.2L152.08,367A3.61,3.61,0,0,1,148.54,369.75Zm-.89-3.89h0Z" style="fill:#373737"/><path d="M88.54,297.17a9,9,0,1,1,13.78-7.6,9.14,9.14,0,0,1-4.16,7.6,9,9,0,1,1-9.62,0Zm4.81-1.42a6.18,6.18,0,1,0-6.18-6.18A6.16,6.16,0,0,0,93.35,295.75Zm0,15.15a6.18,6.18,0,1,0-6.18-6.18A6.16,6.16,0,0,0,93.35,310.9Z" style="fill:#373737"/><path d="M93.35,316a11.31,11.31,0,0,1-11.3-11.3,11.15,11.15,0,0,1,3-7.56,11.19,11.19,0,0,1-3-7.59,11.28,11.28,0,1,1,19.61,7.58A11.27,11.27,0,0,1,93.35,316Zm0-15.19a3.9,3.9,0,1,0,3.89,3.89A3.85,3.85,0,0,0,93.35,300.83Zm0-15.16a3.9,3.9,0,0,0-3.9,3.9,3.9,3.9,0,0,0,7.79,0A3.9,3.9,0,0,0,93.35,285.67Z" style="fill:#373737"/><path d="M73.86,208.82a8.92,8.92,0,0,1,8.93,8.93c0,7.51,0,15.07,0,22.58a1.4,1.4,0,0,1-2.79,0v-16.1a9.21,9.21,0,0,1-6.19,2.4,8.91,8.91,0,1,1,0-17.81Zm0,15.07a6.16,6.16,0,0,0,0-12.32,6.16,6.16,0,1,0,0,12.32Z" style="fill:#373737"/><path d="M81.44,243.9a3.59,3.59,0,0,1-3.68-3.57v-12.1a11.87,11.87,0,0,1-3.9.69,11.2,11.2,0,1,1,11.22-11.17c0,3.75,0,7.52,0,11.28s0,7.54,0,11.3A3.59,3.59,0,0,1,81.44,243.9Zm-7.53-30.05a3.88,3.88,0,1,0,0,7.75,3.88,3.88,0,0,0,0-7.75Z" style="fill:#373737"/><path d="M89.7,135.1a2.15,2.15,0,0,1,1.55-.68,1.4,1.4,0,0,1,1.33,1.33v30a1.38,1.38,0,1,1-2.75,0V139.23l-7.51,8.19c-1.29,1.25-3.31-.64-2.06-2Z" style="fill:#373737"/><path d="M91.2,169.43a3.7,3.7,0,0,1-2.46-.93,3.63,3.63,0,0,1-1.19-2.75V145.1l-3.64,4a3.66,3.66,0,0,1-5.2-.06,3.6,3.6,0,0,1-.12-5.12l9.57-10.47a4.44,4.44,0,0,1,3.09-1.29,3.66,3.66,0,0,1,3.61,3.62v30A3.63,3.63,0,0,1,91.2,169.43ZM82,147h0Z" style="fill:#373737"/><path d="M117.39,150.6c0,9.19-4,16.57-9,16.57s-9-7.38-9-16.57,3.95-16.57,9-16.57S117.39,141.42,117.39,150.6Zm-15.15,0c0,7.51,2.87,13.74,6.18,13.74s6.18-6.23,6.18-13.74-2.88-13.78-6.18-13.78S102.24,143.05,102.24,150.6Z" style="fill:#373737"/><path d="M108.42,169.46c-6.44,0-11.3-8.11-11.3-18.86s4.86-18.85,11.3-18.85,11.26,8.1,11.26,18.85S114.84,169.46,108.42,169.46Zm0-30.35c-1.19,0-3.9,4.34-3.9,11.49s2.71,11.45,3.9,11.45,3.89-4.32,3.89-11.45S109.61,139.11,108.42,139.11Z" style="fill:#373737"/><path d="M142.57,74.66a2.12,2.12,0,0,1,1.54-.69,1.4,1.4,0,0,1,1.33,1.33v30a1.37,1.37,0,1,1-2.74,0V78.78L135.19,87c-1.29,1.24-3.31-.64-2.07-2Z" style="fill:#373737"/><path d="M144.07,109a3.7,3.7,0,0,1-2.47-.93,3.61,3.61,0,0,1-1.19-2.74V84.66l-3.64,4a3.71,3.71,0,0,1-5.31-5.18L141,73a4.41,4.41,0,0,1,3.09-1.29,3.66,3.66,0,0,1,3.62,3.61v30A3.63,3.63,0,0,1,144.07,109Zm-9.25-22.44h0Z" style="fill:#373737"/><path d="M161.11,74.66a2.16,2.16,0,0,1,1.55-.69A1.4,1.4,0,0,1,164,75.3v30a1.38,1.38,0,1,1-2.75,0V78.78L153.73,87c-1.29,1.24-3.31-.64-2.06-2Z" style="fill:#373737"/><path d="M162.62,109a3.68,3.68,0,0,1-2.47-.93,3.61,3.61,0,0,1-1.19-2.74V84.66l-3.64,4A3.71,3.71,0,0,1,150,83.44L159.57,73a4.39,4.39,0,0,1,3.09-1.29,3.66,3.66,0,0,1,3.62,3.61v30A3.63,3.63,0,0,1,162.62,109Zm-9.25-22.44h0Z" style="fill:#373737"/><path d="M213.34,56.79a2.12,2.12,0,0,1,1.55-.69,1.4,1.4,0,0,1,1.33,1.33v30a1.38,1.38,0,1,1-2.75,0V60.91L206,69.11c-1.29,1.24-3.31-.65-2.06-2Z" style="fill:#373737"/><path d="M214.84,91.11a3.7,3.7,0,0,1-2.47-.93,3.65,3.65,0,0,1-1.19-2.74V66.79l-3.63,4a3.66,3.66,0,0,1-5.2-.06,3.6,3.6,0,0,1-.12-5.12L211.8,55.1a4.44,4.44,0,0,1,3.09-1.29,3.66,3.66,0,0,1,3.61,3.62v30A3.63,3.63,0,0,1,214.84,91.11Zm-9.25-22.45h0Z" style="fill:#373737"/><path d="M237.21,68.51a6,6,0,0,0,1.24-3.7,6.16,6.16,0,1,0-12.32,0,1.42,1.42,0,0,1-2.83,0,9,9,0,0,1,17.94,0,9.08,9.08,0,0,1-1.8,5.37L227.25,86H240.3a1.42,1.42,0,0,1,0,2.83H224.42a1.44,1.44,0,0,1-1.21-2.23Z" style="fill:#373737"/><path d="M240.3,91.14H224.42a3.65,3.65,0,0,1-3.24-1.88,3.8,3.8,0,0,1,.08-3.83l.15-.21,14-18.1a3.72,3.72,0,0,0,.78-2.31,3.88,3.88,0,1,0-7.75,0,3.65,3.65,0,0,1-3.7,3.67,3.8,3.8,0,0,1-2.48-.9A3.61,3.61,0,0,1,221,64.81a11.26,11.26,0,1,1,20.26,6.74l-9.38,12.18h8.41a3.71,3.71,0,0,1,0,7.41Z" style="fill:#373737"/><path d="M184.6,34.88a195,195,0,0,1,39.9-4.11c107,0,193.73,86.73,193.73,193.73S331.5,418.23,224.5,418.23,30.77,331.5,30.77,224.5A193.82,193.82,0,0,1,171.1,38.22Zm-82.18,1.5C20.58,89.44-19.83,192.08,10.08,290,46.26,408.42,171.58,475.1,290,438.92S475.1,277.42,438.92,159,277.42-26.1,159,10.08a225.92,225.92,0,0,0-42.77,18Z" style="fill:#c97231"/></svg>