<svg id="Capa_1" data-name="Capa 1" xmlns="http://www.w3.org/2000/svg" xmlns:xlink="http://www.w3.org/1999/xlink" viewBox="0 0 31.62 32.37"><defs><style>.cls-1{fill:none;}.cls-2{clip-path:url(#clip-path);}.cls-3{fill:#716abb;}.cls-4{clip-path:url(#clip-path-2);}.cls-5{fill:#2ed3f3;}</style><clipPath id="clip-path"><rect class="cls-1" x="-806.55" y="-141.76" width="74.3" height="67.63" rx="20.96"/></clipPath><clipPath id="clip-path-2"><rect class="cls-1" x="-717.43" y="-141.76" width="74.3" height="67.63" rx="20.96"/></clipPath></defs><title>repeat-icon</title><g class="cls-2"><rect class="cls-3" x="-1140.89" y="-324.65" width="1184.02" height="665.83"/></g><g class="cls-4"><rect class="cls-3" x="-1051.78" y="-324.65" width="1184.02" height="665.83"/></g><path class="cls-5" d="M2,18.76a13.92,13.92,0,0,0,27.72-1.22.51.51,0,0,0-.51-.51H25.56a.49.49,0,0,0-.49.48,9.26,9.26,0,1,1-9.56-9.67V9.16a.5.5,0,0,0,.79.41l5.1-3.63a.51.51,0,0,0,0-.82L16.3,1.49a.5.5,0,0,0-.79.41V3.18A13.92,13.92,0,0,0,2,18.76"/></svg>