<svg id="Capa_1" data-name="Capa 1" xmlns="http://www.w3.org/2000/svg" viewBox="0 0 36 29"><path d="M18,25.62a1.62,1.62,0,0,1-.93,1.47,1.68,1.68,0,0,1-.69.15,1.57,1.57,0,0,1-1-.37L6.5,19.53H1.78A1.62,1.62,0,0,1,.16,17.91V11.45A1.62,1.62,0,0,1,1.78,9.83H6.5l8.86-7.34A1.62,1.62,0,0,1,18,3.74V25.62Zm6.23-2.53h-.12A1.58,1.58,0,0,1,23,22.62l-.22-.22a1.61,1.61,0,0,1-.16-2.11,9.39,9.39,0,0,0-.25-11.54,1.62,1.62,0,0,1,.12-2.17l.21-.22a1.63,1.63,0,0,1,2.4.12,13,13,0,0,1,.34,16A1.62,1.62,0,0,1,24.24,23.09Zm6.7,5a1.61,1.61,0,0,1-1.17.57H29.7a1.65,1.65,0,0,1-1.15-.47L28.34,28a1.63,1.63,0,0,1-.09-2.19A17.28,17.28,0,0,0,28,3.23,1.6,1.6,0,0,1,28,1L28.24.8A1.56,1.56,0,0,1,29.43.33,1.63,1.63,0,0,1,30.6.87a20.82,20.82,0,0,1,.34,27.23Z" style="fill:#fff"/></svg>